<?xml version="1.0" encoding="utf-8"?>
<!-- Generator: Adobe Illustrator 16.0.1, SVG Export Plug-In . SVG Version: 6.00 Build 0)  -->
<!DOCTYPE svg PUBLIC "-//W3C//DTD SVG 1.1//EN" "http://www.w3.org/Graphics/SVG/1.1/DTD/svg11.dtd" [
	<!ENTITY ns_extend "http://ns.adobe.com/Extensibility/1.0/">
	<!ENTITY ns_ai "http://ns.adobe.com/AdobeIllustrator/10.0/">
	<!ENTITY ns_graphs "http://ns.adobe.com/Graphs/1.0/">
	<!ENTITY ns_vars "http://ns.adobe.com/Variables/1.0/">
	<!ENTITY ns_imrep "http://ns.adobe.com/ImageReplacement/1.0/">
	<!ENTITY ns_sfw "http://ns.adobe.com/SaveForWeb/1.0/">
	<!ENTITY ns_custom "http://ns.adobe.com/GenericCustomNamespace/1.0/">
	<!ENTITY ns_adobe_xpath "http://ns.adobe.com/XPath/1.0/">
]>
<svg version="1.1" xmlns:x="&ns_extend;" xmlns:i="&ns_ai;" xmlns:graph="&ns_graphs;"
	 xmlns="http://www.w3.org/2000/svg" xmlns:xlink="http://www.w3.org/1999/xlink" x="0px" y="0px" width="100px" height="100px"
	 viewBox="0 0 100 100" enable-background="new 0 0 100 100" xml:space="preserve">
<metadata>
	<sfw  xmlns="&ns_sfw;">
		<slices></slices>
		<sliceSourceBounds  bottomLeftOrigin="true" height="16383" width="1078" y="-8242" x="6"></sliceSourceBounds>
	</sfw>
</metadata>
<g id="snow_shower_thunder">
</g>
<g id="sleet_shower_thunder">
</g>
<g id="rain_shower_thunder">
</g>
<g id="clouds">
	<g id="sleet_thunder">
		<path fill="#C9AF16" d="M30.413,69l-6.25,12.484h8.325L20,94l25.001-16.68h-8.338L44.995,69H30.413z"/>
		<g>
			<path fill="#FFFFFF" d="M41.197,5c-4.068,0-7.844,1.524-10.873,4.345c-1.762-0.455-3.541-0.684-5.32-0.685
				c-5.893,0.001-11.094,2.498-14.27,6.851c-2.414,3.309-3.396,7.348-2.889,11.655C3.221,29.379,0,34.151,0,39.457
				C0,46.672,6.338,53,13.564,53h62.938C82.949,53,88,47.901,88,41.393c0-4.484-2.279-8.101-5.884-9.674
				c-1.772-3.888-6.06-7.351-11.538-7.351c-0.072,0-0.144,0.001-0.215,0.002c-1.828-5.323-6.771-8.945-12.9-8.945
				c-0.201,0-0.401,0.004-0.602,0.013C54.271,9.347,48.041,5,41.197,5L41.197,5z"/>
			<path fill="#A6A6A6" d="M76.503,49C80.512,49,84,45.907,84,41.393c0-2.964-1.551-5.932-5.043-6.447
				c-0.516-3.479-5.372-8.362-11.833-5.917c0-7.154-6.749-11.154-13.108-9.038c-1.423-10.053-14.994-15.6-22.486-6.058
				c-11.504-4.511-23.004,3.48-19,15.99C8.006,30.434,4,34.432,4,39.457C4,44.488,8.525,49,13.564,49H76.503z"/>
		</g>
		<g>
			<path fill="#FFFFFF" d="M52.804,23c-6.845,0-13.075,4.347-15.664,10.438c-0.2-0.009-0.401-0.013-0.603-0.013
				c-6.129,0-11.072,3.622-12.899,8.945c-0.071-0.001-0.144-0.002-0.215-0.002c-5.479,0-9.766,3.463-11.538,7.351
				C8.28,51.292,6,54.908,6,59.393C6,65.901,11.051,71,17.498,71h62.938C87.662,71,94,64.672,94,57.457
				c0-5.306-3.22-10.078-7.846-12.291c0.509-4.308-0.474-8.347-2.889-11.655c-3.176-4.353-8.377-6.85-14.27-6.851
				c-1.778,0.001-3.559,0.229-5.32,0.685C60.646,24.524,56.871,23,52.804,23L52.804,23z"/>
			<path fill="#808080" d="M17.498,67C13.489,67,10,63.907,10,59.393c0-2.964,1.551-5.932,5.043-6.447
				c0.516-3.479,5.373-8.362,11.834-5.917c0-7.154,6.748-11.154,13.108-9.038c1.423-10.053,14.993-15.6,22.486-6.058
				c11.503-4.511,23.004,3.48,18.999,15.99C85.995,48.434,90,52.432,90,57.457C90,62.488,85.476,67,80.437,67H17.498z"/>
		</g>
		<g>
			<circle fill="#FFFFFF" cx="71" cy="72" r="8"/>
			<path fill="#1362B1" d="M80,77.909C80,80.724,77.759,83,75,83c-2.763,0-5-2.276-5-5.091C70,76.327,70,69,70,69
				C74.57,73.494,80,73.295,80,77.909z"/>
		</g>
		<g>
			<circle fill="#FFFFFF" cx="56" cy="69" r="8"/>
			<path fill="#6FC6E3" d="M60.393,68.031l-2.066,2.072c-0.271-0.13-0.543-0.251-0.846-0.342c-0.292-0.07-0.583-0.101-0.875-0.11
				l-0.764-2.838c-0.161-0.583-0.765-0.936-1.348-0.774c-0.584,0.151-0.945,0.754-0.775,1.354l0.755,2.828
				c-0.508,0.316-0.935,0.749-1.252,1.257l-2.831-0.749c-0.588-0.161-1.197,0.191-1.348,0.77c-0.172,0.604,0.186,1.202,0.779,1.363
				l2.826,0.751c0.02,0.604,0.176,1.202,0.453,1.73l-2.067,2.068c-0.433,0.422-0.423,1.121,0.011,1.555
				c0.432,0.432,1.126,0.442,1.553,0l2.066-2.074c0.262,0.152,0.539,0.278,0.836,0.354c0.307,0.07,0.593,0.105,0.884,0.105
				l0.76,2.837c0.156,0.584,0.771,0.931,1.354,0.775c0.594-0.161,0.936-0.756,0.774-1.349l-0.754-2.828
				c0.513-0.316,0.94-0.754,1.247-1.267l2.846,0.764c0.583,0.146,1.196-0.201,1.353-0.784c0.156-0.594-0.191-1.197-0.784-1.349
				l-2.836-0.765c-0.021-0.604-0.171-1.188-0.453-1.722l2.067-2.062c0.432-0.433,0.432-1.138,0.01-1.57
				C61.524,67.609,60.815,67.609,60.393,68.031z M58.347,74.01c-0.262,1.025-1.329,1.641-2.354,1.358
				c-1.031-0.272-1.639-1.338-1.367-2.366c0.271-1.035,1.327-1.64,2.362-1.368C58.015,71.916,58.633,72.972,58.347,74.01z"/>
		</g>
	</g>
	<g id="heavy_rain_thunder">
	</g>
	<g id="rain_thunder">
	</g>
	<g id="heavy_snow">
	</g>
	<g id="sleet">
	</g>
	<g id="heavy_rain">
	</g>
	<g id="rain_1_">
	</g>
	<g id="heavy_cloud">
	</g>
	<g id="fog">
	</g>
</g>
<g id="snow_shower">
</g>
<g id="sleet_shower">
</g>
<g id="rain_shower">
</g>
<g id="partly_cloudy">
</g>
<g id="fair">
</g>
<g id="clear">
</g>
</svg>
