<?xml version="1.0" encoding="utf-8"?>
<!-- Generator: Adobe Illustrator 18.1.1, SVG Export Plug-In . SVG Version: 6.00 Build 0)  -->
<svg version="1.1" id="Layer_1" xmlns="http://www.w3.org/2000/svg" xmlns:xlink="http://www.w3.org/1999/xlink" x="0px" y="0px"
	 viewBox="0 0 100 100" enable-background="new 0 0 100 100" xml:space="preserve">
<path d="M2.4,24.1c1.1-2.5,3.4-2.7,4.1-2.8c4.9-0.8-0.1-2.6,1.2-4.6c-2-5.7,1.3-3.2,0.6-7.4c-0.2-1.1,1.8-2,3.4-2.6
	c3.2-0.4,1.4-4.8,3.9-5.4c4.6-1.2,3.6,1.4,9.6-1.2c1.5-0.7,4.9,0.1,6.5,3c2.1,1,4.9,0.6,4.6,2.9c1.4,1,3.1,1.5,3.6,4.7
	C41,10.1,35.7,23,33,23.5c-2.1,0.4-22.2,8.9-23.7,8.2c-0.7-0.3-8.3,2.7-9-0.3S0.5,28.5,2.4,24.1z"/>
</svg>
