<?xml version="1.0" encoding="utf-8"?>
<!-- Generator: Adobe Illustrator 19.1.0, SVG Export Plug-In . SVG Version: 6.00 Build 0)  -->
<svg version="1.1" id="Layer_1" xmlns="http://www.w3.org/2000/svg" xmlns:xlink="http://www.w3.org/1999/xlink" x="0px" y="0px"
	 viewBox="0 0 100 100" enable-background="new 0 0 100 100" xml:space="preserve">
<g id="cloud1_3">
	<path id="XMLID_18_" fill="#E6E6E6" d="M89.8,34.8c0,0.1,0,0.2,0,0.3C89.8,35,89.8,34.9,89.8,34.8z"/>
	<path id="XMLID_17_" fill="#E6E6E6" d="M89.8,34.1c0,0.1,0,0.1,0,0.2C89.8,34.2,89.8,34.1,89.8,34.1z"/>
	<path id="XMLID_16_" opacity="0.14" fill="#999999" d="M89.8,34.3c0,0.2,0,0.4,0,0.5C89.8,34.6,89.8,34.5,89.8,34.3z"/>
	<path id="XMLID_15_" opacity="0.2" fill="#999999" d="M89.8,34c0-0.4-0.1-0.8-0.1-1.2c0,0,0-0.1,0-0.1c-0.1-0.4-0.1-0.8-0.2-1.2
		c0,0,0-0.1,0-0.1c-0.7-1.1-3.9,0.9-4.5-1.3c-1.1-3.7-2.1-4.1-4.6-4.9c-0.8-0.3-0.8,0.8-1.1,1.1c-0.6,0.5-1.3,0.6-2.1,0.5
		c-1.5-0.4-3.4-2.3-4.8-2.6c-3.9-0.8-2.1,1-4.3,0.4c-0.6-0.2-1.6-1.3-2.1-1.8c-2.1-2.4-0.6-4.3-3.4-5.8c-2-0.5-1.4,1-5.6-1.8
		c-5.4-3.7-10,1.9-9.7,3.5c5.4-5,8.3-2,9.6-1.2c2,1.1,4.4,2.5,3.5,4.6c-1,2.2,0.1,3.2-0.3,3.8c-0.5,0.6-0.5,2.5-1.1,2.2
		c-1.8-0.8-1.2,2-3.3,1.5c-0.8-0.2-1.8,1-2.6,1.4c-0.8,0.3-1.7-0.7-2.4-0.3c-0.6,0.4-1.5,0.3-2,0.8c-0.5,0.5-0.5-0.8-0.6-0.9
		c-0.3-0.4-0.9,0.1-1.2-0.3c-0.5-0.5,0.1-1-1-1.2c-0.5-0.1-1.4-0.2-1.9,0.2c-0.4,0.3,0.1,1-0.3,1.4c-0.4-0.5-1.3-0.2-1.9-0.6
		c0.5-0.3,0.1-1.2-0.3-1.4c-0.7-0.4-0.5,0.7-1.1,0.7c-0.8,0-0.5,0.3-0.5,1c0,0.6-0.7,1-1,1.4c-0.6,1.1-1.2,2.3-2.7,1.3
		c-0.5-0.3-0.6-1-0.9-1.5c-0.5-0.8-0.2-1.3-0.2-2.2c0-0.9-0.8-0.6-1.4-0.8c-0.7-0.3-1.3-0.6-1.7-1.3c-0.5-1-2.5-1.1-3.2-0.3
		c-0.9,1-0.6,2.7-1.3,3.8c-0.4,0.7-0.9,1.1-1.7,1.1c-0.3,0-1.9,0.2-2,0c-0.7-1-1.2,1.1-2.1,0c-1-1.3-2-0.4-2.6,0.8
		c-0.9,1.7-2.9,5.3-4.5,4.2c-1-0.7-1.7,5.3-8.8,2.3c-3.6-1.5-4.8-2.9-5.3-2.4c0.1,0.3,0.2,0.6,0.3,0.8c0,0.1,0.1,0.1,0.1,0.2
		c0.1,0.3,0.2,0.5,0.3,0.7c0,0,0,0,0,0.1c0,0.1,0.1,0.2,0.1,0.3c0.1,0.2,0.2,0.4,0.3,0.5c0.1,0.1,0.1,0.2,0.2,0.3
		C1.9,40,2,40.1,2,40.2c0,0,0.1,0.1,0.1,0.1c0.1,0.1,0.2,0.3,0.3,0.3c0,0,0,0,0,0c0.1,0.1,0.2,0.2,0.3,0.2c0,0,0.1,0,0.1,0.1
		c0,0,0.1,0,0.1,0.1c0,0,0.1,0.1,0.1,0.1c0,0,0,0,0,0c0.1,0.1,0.2,0.3,0.3,0.5c0,0,0,0.1,0.1,0.1c0,0,0,0.1,0.1,0.1
		c0,0,0.1,0.1,0.1,0.1c0,0,0,0,0.1,0.1c0.1,0.1,0.1,0.1,0.2,0.1c0.3,0.1,0.7,0,1,0.2c0,0,0,0,0,0h0c0,0,0,0,0,0
		c0.3,0.2,0.6,0.5,0.9,0.8c0,0,0,0,0,0c0,0,0,0,0,0C5.9,43.3,6,43.3,6,43.4c0.1,0,0.2,0.1,0.2,0.1c0,0,0,0,0,0
		c0.5,0.5,1.4,0.1,2.1,0h0c0.2,0,0.3,0,0.5,0c0,0,0,0,0,0h0c0,0,0,0,0,0c0.1,0,0.2,0,0.4,0.1c0,0,0,0,0,0l0,0c0,0,0,0,0,0
		c0,0,0,0,0,0c0.4,0.1,0.7,0.2,1.1,0.4c0,0,0.1,0,0.1,0.1c0,0,0,0,0.1,0c0.1,0,0.2,0.1,0.2,0.1c0.2,0.1,0.3,0.1,0.5,0.2
		c0.3,0.1,0.6,0.2,0.9,0.2c0.1,0,0.2,0,0.3,0.1c0.1,0,0.1,0,0.2,0c0,0,0,0,0,0c1.3,0.3,2.7,0.4,4,0.6c0.1,0,0.1,0,0.2,0
		c0.4,0,0.8,0.1,1.1,0.1c1.5,0.1,2.9,0.1,4.4,0.1c0.4,0,0.9,0,1.3,0c1.1,0,2.3,0.1,3.4,0.1c0.4,0,0.9,0,1.3,0c1.4,0,2.7,0.1,4.1,0.1
		c0.2,0,0.3,0,0.5,0c3.3,0.1,6.6,0.1,9.9,0.1c0.2,0,0.4,0,0.6,0c1.6,0,3.1,0,4.7,0c0.1,0,0.1,0,0.2,0c0,0,0,0,0.1,0
		c3.4,0,6.8,0,10.2-0.1c0,0,0,0,0,0c1.8,0,3.6-0.1,5.4-0.1c0.1,0,0.3,0,0.4,0c1.8,0,3.6-0.1,5.4-0.2c0.1,0,0.2,0,0.3,0
		c1.5-0.1,3.1-0.1,4.6-0.2c0.4,0,0.8,0,1.2-0.1c1.6-0.1,3.1-0.2,4.7-0.2c0,0,0.1,0,0.1,0c0,0,0,0,0,0c0.4,0,0.7-0.1,1-0.1
		c0.1,0,0.1,0,0.2,0c0.3-0.1,0.6-0.1,0.9-0.2c0,0,0,0,0,0c0.6-0.2,1.2-0.4,1.7-0.7c0,0,0.1-0.1,0.1-0.1c0.2-0.1,0.4-0.2,0.6-0.4
		c0.1-0.1,0.1-0.1,0.2-0.2c0.2-0.1,0.3-0.3,0.5-0.4c0,0,0.1-0.1,0.1-0.1c0.2-0.2,0.5-0.4,0.8-0.8c0.1-0.1,0.1-0.1,0.2-0.2
		c0,0,0.1-0.1,0.1-0.1c0.1-0.1,0.2-0.3,0.4-0.4c0-0.1,0.1-0.1,0.1-0.2c0,0,0.1-0.1,0.1-0.1c0.1-0.1,0.1-0.2,0.2-0.3
		c0,0,0.1-0.1,0.1-0.1c0.1-0.1,0.1-0.2,0.2-0.3c0,0,0-0.1,0.1-0.1c0.1-0.1,0.1-0.2,0.2-0.4c0,0,0-0.1,0.1-0.1
		c0.1-0.1,0.1-0.3,0.2-0.4c0,0,0-0.1,0-0.1c0.1-0.2,0.1-0.3,0.2-0.5c0,0,0,0,0-0.1c0.2-0.6,0.4-1.3,0.6-2.1c0.1-0.5,0.2-1.1,0.2-1.6
		c0,0,0,0,0,0C89.8,34.6,89.8,34.3,89.8,34z"/>
	<path id="XMLID_12_" opacity="0.16" fill="#999999" d="M89.8,33.4c0,0.6-3.6,0.8-4.2,0.3c-0.6-0.5-0.2-0.6-0.6-1.2
		c-0.4-0.6-0.7,0.6-1.1,0c-0.2-0.4,0.2-2.2-0.4-1.8C83,31,83,28.7,82.2,29c-0.5,0.2-1.7-0.3-2.2-0.4c-0.8-0.2-2.3,1.6-3,1.3
		c-0.4-0.1-2.1-1.8-3-1.8c-1.2,0-2-2.4-3.2-2.3c-1.1,0.1-1.3,1.9-2.9,1c-1.2-0.6-5-7.1-6-7.2c0.1,0.9,0.4,2.2-0.7,3.8
		c0.2,2.1,1.4,3.9,0.6,4.1c-1.2,0.4,0.4,4-0.6,3.3c-0.6-0.4-1.6-1.4-2.3-1.4c-0.8,0-0.9,1.1-0.4,1.5c0.6,0.6,1.3,1.4-0.1,1.7
		c-1.2,0.3-1.6-0.7-2-1.6c-0.4-0.9-0.6,0.5-1.3,1.1c-2.5,2.1-3.5,0.8-4.3,0.9c-1,0.2-2.3,0.4-3.2,0.6c-0.9,0.2-1.6-0.9-2.5-0.9
		c-0.1,0.2-0.2,0.3-0.3,0.3c-0.2-0.1-0.3-0.3-0.3-0.5c-0.9-0.6-2.1-1.3-3.2-1c-1.2,0.3-0.8,1.8-2.1,2c-0.8,0.2-2.5,0.7-3.3,0.4
		c-1.1-0.4-1-2.1-1.6-2.9c0.3-0.6-1-0.4-1.2-0.4c-0.7-0.1-1.9-0.8-2,0.4c0,0.3,0,0.7-0.1,1.1c-0.2,0.4-0.7,0.7-0.7,1.3
		c-0.1,2.1-4,1.1-5.1,0.4c-0.8-0.5-1.3-0.7-2.2-0.2c-0.7,0.4-1.7,0.1-2.3,0.7c-0.6,0.6-0.6,1.2-1.6,1.1c-0.5-0.1,0-0.5-0.6-0.5
		c-0.5,0-1.3,2.8-1.6,2.3C16.8,37,15.2,38,15,38c-1.5,0-2.2,3.6-6.3,2.8c-4.3-1.4-7.1-2.4-7.3-2c-0.1,0.1,0,0.2,0,0.4
		c0.1,0.1,0.1,0.2,0.2,0.3c0.5,0.8,1,1.3,1.2,1.4c0,0,0,0,0,0c0.3,0.1,0.4,0.4,0.5,0.6c0.1,0.2,0.3,0.5,0.5,0.6c0,0,0,0,0,0
		c0.3,0.1,0.7,0,1,0.2c0.4,0.2,0.6,0.6,0.9,0.8c0.7,0.6,1.6,0.4,2.5,0.3c1.2-0.1,1.9,0.5,3,0.8c0.9,0.3,2.1,0.5,3.3,0.7
		c1.3,0.2,2.5,0.3,3.6,0.3c8.3,0.3,17.3,0.5,26.2,0.6c0.1,0,0.2,0,0.3,0c4.4,0,8.7,0,13.1,0c8-0.1,15.8-0.3,23.1-0.8
		c1.3-0.1,2.4-0.4,3.4-0.8c0.8-0.4,1.4-0.8,2.1-1.4c0.1,0,0.1-0.1,0.2-0.2c0.8-0.7,2.4-2.1,3.3-6.1c0.1-0.6,0.2-1.2,0.2-1.8
		C89.8,34.3,89.8,33.9,89.8,33.4z M83.2,31.3C83.2,31.3,83.2,31.3,83.2,31.3L83.2,31.3C83.2,31.3,83.2,31.3,83.2,31.3z"/>
	<g id="XMLID_6_" opacity="0.18">
		<path id="XMLID_8_" opacity="0.18" fill="#A4A4A4" d="M38.2,45.9c0.8,0,1.5,0,2.3,0c-0.1,0-0.2,0-0.3,0
			C39.6,45.9,38.9,45.9,38.2,45.9z"/>
		<path id="XMLID_7_" fill="#A4A4A4" d="M88.5,34.6c-0.2-1.3-2.9-0.7-3.1-1c-0.4-0.7-0.9-1.1-2.9,0.2c-1-1.8-0.5-3.4-1-2.7
			c-1,1.5-1.6-0.7-2.4-0.4c-1.3,0.6-3.7-0.7-3.8-0.2c-0.2,1.7-0.9-0.7-1.9-2.1c-1-1.4-1.6,1.3-3.3,1.3c-0.9,0,1-2.3-1.1-1.9
			c-2.7,2-4.7-3.3-4.1-1.7c0.3,0.9-1.2,5.4-1.4,5.2c-0.9-1,0.5,2.9-0.8,2.2c-0.5-0.3-0.9,0.1-1.4-0.2c-0.3-0.2-0.6-0.6-0.9-0.1
			c-0.3,0.5,0.1,1.8-0.8,1.7c-0.5,0-0.7-0.5-1.1-0.5c-0.9-0.2-0.4,1.3-0.7,1.6c-0.7,0.9-3-0.5-3.5-0.2c-1.9,1.4-1.7,0-2.8-0.3
			c-0.5-0.1-0.9,0.1-1.4-0.1c-0.9-0.2-1.7-0.6-2.6-0.5c0.5-0.6-1.1-0.9-1.5-1.2c-0.6-0.4-1,0.3-1.6,0.1c-0.3-0.1-0.4-0.4-0.7-0.6
			c-0.4-0.3-0.8-0.5-1.3-0.6c-1.6-0.3-1.7,1.5-2.8,2.3c-1.3,0.9-2.8,1.5-3.9,0.2c-0.7-0.7-1.4-2.7-2.6-2.7c-2,0.1-0.3,1.8-0.9,2.1
			c-0.5,0.3-0.8,0.5-1.2,0.9c-0.6,0.7-1.3,0.3-2,0c-0.7-0.3-1.2,0.2-1.9,0.2c-0.2,0-0.3-0.4-0.5-0.4c-0.4-0.1-0.7,0-1.1-0.2
			c-0.5-0.3-0.9-0.9-1.6-0.9c-0.6,0-1.4,0.4-1.9,0.7c-0.5,0.3-0.9,0.8-1.4,1.1c-0.7,0.4-1.6,0.4-2.4,0.3c-1.1,2.7-4.2,2.6-3.9,3.1
			c0.4,0.7-2.3,1.9-4.8,2c-2.1,0.1-4-0.9-4.4-0.7c-1.5,0.7-0.2,1.6,0.9,2.7c0.1,0.1,0.1,0.1,0.2,0.1c0,0,0,0,0,0
			c0.6,0.1,1.2,0,1.8,0c1.1-0.1,1.8,0.4,2.7,0.7c0.3,0.1,0.7,0.3,1.3,0.4c0.1,0,0.2,0,0.3,0.1c1.8,0.4,3.9,0.6,5.4,0.7
			c13.3,0.5,28.1,0.7,42.2,0.5c7.1-0.1,14-0.3,20.5-0.7c1.4-0.1,2.6-0.4,3.5-0.9c0.5-0.3,1-0.6,1.5-1c0.1-0.1,0.3-0.2,0.4-0.3
			c0.8-0.6,2.5-2,3.4-6.2c0,0,0,0,0,0C89.3,36.6,88.8,36.1,88.5,34.6z"/>
	</g>
	<path id="XMLID_5_" opacity="0.14" fill="#999999" d="M59.5,7.3c0.5-2,1.1-3.6,3.1-4.7c-0.3,0-0.7,0.1-1,0.3
		c-0.6,0.3-0.9,1-1.5,1.3c-0.5,0.3-1.4,0.2-1.9-0.2c-0.7-0.6-1.3-1-2-1.5C57.8,6.5,58.7,4.5,59.5,7.3z"/>
	<path id="XMLID_4_" opacity="0.14" fill="#999999" d="M21.9,15.5c2.7,1.5,2.8,0,4.7,0.6c1.6,0.5,1.9-0.2,3.5,0.3
		c2.8,0.9,4.5,2.3,6,4.8c-0.2-0.8-1.1-4.2-3.5-5.1c-3-1.1-2.3-1.7-3.3-2.2c0,0,0,0,0,0c0,0,0,0.1,0,0.1c0,0.2,0,0.4,0,0.6
		c0,0.4,0,0.7-0.2,0.8c-0.5,0.4-1.2,0.5-1.7,0.2c-0.7-0.4-1.3-0.6-2.1-0.3c-0.8,0.3-1.5,0.3-2.3-0.1c-0.6-0.4-1.7-1-4.2-0.5
		c-1.5,0.3-3,0.5-3.8,1.9c-0.2,0.5-0.5,0.9-0.7,1.2C17.3,14.5,21.6,15.3,21.9,15.5z"/>
	<path id="XMLID_3_" opacity="0.16" fill="#999999" d="M33.5,18.1c-0.2-0.3-0.3-1.4-2.3-2.4c-0.9-0.4-1.6-1.2-2-1.5
		c0,0.5,0,1-0.2,1.2c-0.3,0.2-0.4,0.3-1,0.4C26.5,15.8,30,15.4,33.5,18.1z"/>
	<g id="XMLID_9_" opacity="0.2">
		<path id="XMLID_11_" fill="#999999" d="M89.1,38c-1.7-3.4-2.2-1.8-2.9-1.7c-1.2,0.1-0.1,1-1.7,0.3c-2.5-1.2-0.6,2.7-3.5-0.9
			c-0.5,2.1-0.9-3-1.4-2.1c-0.5,0.9-1.4,1.5-2.4,2c-2.7,1.3,1.5-3.3-4.3-2.1c0,0-4.6-4.5-2.9-0.1c0.8,2.1-1.3-3.1-4.1-3.7
			c-0.8,1.4,0.2,2.2-0.7,2.8c-0.6,0.4,0,4-2.1,2.8c-0.9-0.5-0.8,1.1-1.7,2.2c-2.2-1.5-3.1,0.4-4,1.1c-2.2,1.7-5.1,0.3-5.8,1.5
			c0.1-0.9-1.9-2.8-2.6-2.8c-0.8-0.1-1.6,0.3-2.4,0c-0.9-0.3-1.9-0.3-2.8-0.7c-1.5-0.8-2.7,0.8-4,1.4c-0.7,0.3-1.5,1-2.3,0.7
			c-0.8-0.3-1.1-1.2-1.9-1.5c0,0-0.2,0-0.3,0.1c-0.4,0.3-0.2-0.1-0.6-0.2c-0.7-0.2-1.7,0.5-2.2,1C32,38.5,32,39,31.1,39.3
			c-0.9,0.3-1.7-0.2-2.5-0.4c-0.8-0.2-1.2-1-2.1-0.3c-0.6,0.5-0.9,0.8-1.7,0.3c-1-0.7-1.4-0.4-2.5-0.2c-1.1,0.2-2.5-0.1-3.6-0.3
			c-1-0.1-0.6,2.2-1.7,2.1c-1-0.1-2.3,2-3.3,2.2c-1.7,0.3-2.8-0.1-3.4,0.4c-0.9,0.8-3.9-1.3-3.7,0.3c0.1,0.1,0.1,0.2,0.2,0.3
			c0.5,0.1,1,0,1.5-0.1c1.2-0.1,1.9,0.5,3,0.8c1.9,0.6,4.8,0.9,6.8,1c20.1,0.7,43.4,0.9,62.6-0.2c2.4-0.1,4-1,5.4-2.2
			c0.7-0.6,2.1-1.7,3.1-4.9C89.2,38,89.2,38,89.1,38z"/>
		<path id="XMLID_10_" opacity="0.2" fill="#999999" d="M35.6,37.1C35.6,37,35.3,36.9,35.6,37.1L35.6,37.1z"/>
	</g>
	<path id="XMLID_19_" d="M87.8,26.9c-0.8-0.8-0.4-1.3-0.6-1.9c-0.4-0.8-1.1-1-1.6-1.3c-0.8-0.4-1.5-0.2-2.3-0.4
		c-1.3-0.4-1.5-2.9-2.7-3.8c-1.6-1.1-0.5-3.1-2-4.3c-0.8-0.6-1.3-0.3-2.1-0.5c-0.8-0.2-1.7-0.8-2.5-1.2c-1.5-0.7-1.1-1.9-2.1-4
		c-0.7-1.5-2.5-3-4-3.9c-0.6-0.3-1.2-0.5-1.8-0.7c-0.7-0.2-0.6-0.7-0.9-1.2c-0.9-1-2.2-1.5-3.6-0.8c-0.6,0.3-0.9,1-1.5,1.3
		c-0.5,0.3-1.4,0.2-1.9-0.2c-6.7-5.7-14.9-5.2-16.3,0.2c-1.8,1.4-3.9,2.2-4.6,6.6c-1.8-1.1-2.7,0.3-2.8,0.2c0,0-1.1-0.5-2.3-0.2
		c-1.6,0.4-2.8,1.5-3,3.1c-0.1,0.6,0.1,1.3-0.3,1.5c-0.5,0.4-1.2,0.5-1.7,0.2c-0.7-0.4-1.3-0.6-2.1-0.3c-0.8,0.3-1.5,0.3-2.3-0.1
		c-0.6-0.4-1.7-1-4.2-0.5c-1.5,0.3-3,0.5-3.8,1.9c-1.6,3.1-1.9,1.8-3.6,3.5c-0.4,0.5-0.7,1.6-1.3,1.8c-0.6,0.2-1.1,0.2-1.6,0.7
		c-0.6,0.5-1.5,0.1-2.2,0.6c-0.3,0.2-0.2,0.3-0.7,0.8c-0.5,0.4-1,0.7-1.4,1.2c-0.7,0.6-1.3,1.3-1.7,2.2c-0.3,0.7-0.4,1.6-1,2.1
		c-0.7,0.6-0.4,1-0.7,1.8c-0.2,0.3-0.5,0.4-0.7,0.8C0,32.5,0,33.1,0,33.7c0.1,4.4,2.1,7,2.8,7.3c0.6,0.3,0.6,1,1.1,1.3
		c0.3,0.1,0.7,0,1,0.2c0.4,0.2,0.6,0.6,0.9,0.8c0.7,0.6,1.6,0.4,2.5,0.3c1.2-0.1,1.9,0.5,3,0.8c1.9,0.6,4.8,0.9,6.8,1
		c20.1,0.7,43.4,0.9,62.6-0.2c2.4-0.1,4-1,5.4-2.2c0.8-0.6,2.5-2,3.4-6.2S88.2,27.3,87.8,26.9z"/>
</g>
</svg>
