<svg xmlns="http://www.w3.org/2000/svg" xmlns:xlink="http://www.w3.org/1999/xlink" width="100" height="100" viewBox="0 0 100 100">
  <defs>
    <symbol id="a" data-name="cloud1" viewBox="0 0 95 58.06">
      <path d="M55.7,0A29.2,29.2,0,0,0,31.92,12.42q-.57,0-1.14,0a14.78,14.78,0,0,0-12.1,6.17A19.82,19.82,0,0,0,0,38.14v.32a19.83,19.83,0,0,0,19.88,19.6H75.59a19.29,19.29,0,0,0,8-36.92A29.12,29.12,0,0,0,55.7,0Z"/>
      <path d="M55.7,5A23.94,23.94,0,0,0,34.37,18.05a9.9,9.9,0,0,0-12.78,5.56,15,15,0,0,0-1.71-.1A14.81,14.81,0,0,0,9.2,28,14.63,14.63,0,0,0,5,38.17v.21A14.83,14.83,0,0,0,19.88,53.06H75.59a14.3,14.3,0,0,0,3.67-28.14A23.93,23.93,0,0,0,55.7,5Z" fill-rule="evenodd"/>
    </symbol>
  </defs>
  <title>cloud</title>
  <use width="95" height="58.06" xlink:href="#a"/>
</svg>
