<?xml version="1.0" encoding="utf-8"?>
<!-- Generator: Adobe Illustrator 19.0.0, SVG Export Plug-In . SVG Version: 6.00 Build 0)  -->
<svg version="1.1" id="Layer_1" xmlns="http://www.w3.org/2000/svg" xmlns:xlink="http://www.w3.org/1999/xlink" x="0px" y="0px"
	 viewBox="-909 491 100 100" style="enable-background:new -909 491 100 100;" xml:space="preserve">
<style type="text/css">
	.st0{fill:#E6E6E6;}
	.st1{opacity:0.14;fill:#999999;}
	.st2{opacity:0.2;fill:#999999;}
	.st3{opacity:0.16;fill:#999999;}
	.st4{fill:#999999;}
	.st5{opacity:0.18;fill:#A4A4A4;}
	.st6{fill:#A4A4A4;}
</style>
<g id="cloud1_3">
	<path id="XMLID_18_" class="st0" d="M-819.2,525.9c0,0.1,0,0.2,0,0.3C-819.2,526-819.2,526-819.2,525.9z"/>
	<path id="XMLID_17_" class="st0" d="M-819.2,525.1c0,0.1,0,0.1,0,0.2C-819.2,525.3-819.2,525.2-819.2,525.1z"/>
	<path id="XMLID_16_" class="st1" d="M-819.2,525.3c0,0.2,0,0.4,0,0.5C-819.2,525.7-819.2,525.5-819.2,525.3z"/>
	<path id="XMLID_15_" class="st2" d="M-819.2,525c0-0.4-0.1-0.8-0.1-1.2c0,0,0-0.1,0-0.1c-0.1-0.4-0.1-0.8-0.2-1.2c0,0,0-0.1,0-0.1
		c-0.7-1.1-3.9,0.9-4.5-1.3c-1.1-3.7-2.1-4.1-4.6-4.9c-0.8-0.3-0.8,0.8-1.1,1.1c-0.6,0.5-1.3,0.7-2.1,0.5c-1.5-0.4-3.4-2.3-4.8-2.6
		c-3.9-0.8-2.1,1-4.4,0.4c-0.6-0.2-1.6-1.3-2.1-1.8c-2.1-2.4-0.6-4.3-3.4-5.8c-2-0.5-1.4,1-5.6-1.8c-5.4-3.7-10,1.9-9.7,3.5
		c5.4-5,8.3-2,9.6-1.2c2,1.1,4.4,2.5,3.5,4.6c-1,2.2,0.1,3.2-0.3,3.8c-0.5,0.6-0.5,2.5-1.1,2.2c-1.8-0.8-1.2,2-3.3,1.5
		c-0.8-0.2-1.8,1-2.6,1.4c-0.8,0.3-1.7-0.7-2.4-0.3c-0.6,0.4-1.5,0.3-2,0.8c-0.5,0.5-0.5-0.8-0.6-0.9c-0.3-0.4-0.9,0.1-1.2-0.3
		c-0.5-0.5,0.1-1-1-1.2c-0.5-0.1-1.4-0.2-1.9,0.2c-0.4,0.3,0.1,1-0.3,1.4c-0.4-0.5-1.3-0.2-1.9-0.6c0.5-0.3,0.1-1.2-0.3-1.4
		c-0.7-0.4-0.5,0.7-1.1,0.7c-0.8,0-0.5,0.3-0.5,1c0,0.6-0.7,1-1,1.4c-0.6,1.1-1.2,2.3-2.7,1.3c-0.5-0.3-0.6-1-0.9-1.5
		c-0.5-0.8-0.2-1.3-0.2-2.2c0-0.9-0.8-0.6-1.4-0.8c-0.7-0.3-1.3-0.6-1.7-1.3c-0.5-1-2.5-1.1-3.3-0.3c-0.9,1-0.6,2.7-1.3,3.8
		c-0.4,0.7-0.9,1.1-1.7,1.1c-0.3,0-1.9,0.2-2,0c-0.7-1-1.2,1.1-2.1,0c-1-1.3-2-0.4-2.6,0.8c-0.9,1.7-2.9,5.3-4.5,4.2
		c-1-0.7-1.7,5.3-8.9,2.3c-3.6-1.5-4.8-2.9-5.3-2.4c0.1,0.3,0.2,0.6,0.3,0.8c0,0.1,0.1,0.1,0.1,0.2c0.1,0.3,0.2,0.5,0.3,0.7
		c0,0,0,0,0,0.1c0,0.1,0.1,0.2,0.1,0.3c0.1,0.2,0.2,0.4,0.3,0.5c0.1,0.1,0.1,0.2,0.2,0.3c0.1,0.2,0.2,0.3,0.3,0.4
		c0,0,0.1,0.1,0.1,0.1c0.1,0.1,0.2,0.3,0.3,0.3c0,0,0,0,0,0c0.1,0.1,0.2,0.2,0.3,0.2c0,0,0.1,0,0.1,0.1c0,0,0.1,0,0.1,0.1
		c0,0,0.1,0.1,0.1,0.1c0,0,0,0,0,0c0.1,0.1,0.2,0.3,0.3,0.5c0,0,0,0.1,0.1,0.1c0,0,0,0.1,0.1,0.1c0,0,0.1,0.1,0.1,0.1
		c0,0,0,0,0.1,0.1c0.1,0.1,0.1,0.1,0.2,0.1c0.3,0.1,0.7,0,1,0.2c0,0,0,0,0,0h0c0,0,0,0,0,0c0.3,0.2,0.6,0.5,0.9,0.8c0,0,0,0,0,0
		c0,0,0,0,0,0c0.1,0.1,0.2,0.1,0.2,0.2c0.1,0,0.2,0.1,0.2,0.1c0,0,0,0,0,0c0.5,0.5,1.4,0.1,2.1,0h0c0.2,0,0.3,0,0.5,0c0,0,0,0,0,0h0
		c0,0,0,0,0,0c0.1,0,0.2,0,0.4,0.1c0,0,0,0,0,0c0,0,0,0,0,0c0,0,0,0,0,0c0,0,0,0,0,0c0.4,0.1,0.7,0.2,1.1,0.4c0,0,0.1,0,0.1,0.1
		c0,0,0,0,0.1,0c0.1,0,0.2,0.1,0.2,0.1c0.2,0.1,0.3,0.1,0.5,0.2c0.3,0.1,0.6,0.2,0.9,0.2c0.1,0,0.2,0,0.3,0.1c0.1,0,0.1,0,0.2,0
		c0,0,0,0,0,0c1.3,0.3,2.7,0.4,4,0.6c0.1,0,0.1,0,0.2,0c0.4,0,0.8,0.1,1.1,0.1c1.5,0.1,3,0.1,4.4,0.1c0.4,0,0.9,0,1.3,0
		c1.1,0,2.3,0.1,3.4,0.1c0.4,0,0.9,0,1.3,0c1.4,0,2.7,0.1,4.1,0.1c0.2,0,0.3,0,0.5,0c3.3,0.1,6.6,0.1,9.9,0.1c0.2,0,0.4,0,0.6,0
		c1.6,0,3.1,0,4.7,0c0.1,0,0.1,0,0.2,0c0,0,0,0,0.1,0c3.4,0,6.8,0,10.2-0.1c0,0,0,0,0,0c1.8,0,3.6-0.1,5.4-0.1c0.1,0,0.3,0,0.4,0
		c1.8,0,3.6-0.1,5.4-0.2c0.1,0,0.2,0,0.3,0c1.5-0.1,3.1-0.1,4.6-0.2c0.4,0,0.8,0,1.2-0.1c1.6-0.1,3.1-0.2,4.7-0.2c0,0,0.1,0,0.1,0
		c0,0,0,0,0,0c0.4,0,0.7-0.1,1-0.1c0.1,0,0.1,0,0.2,0c0.3-0.1,0.6-0.1,0.9-0.2c0,0,0,0,0,0c0.6-0.2,1.2-0.4,1.7-0.7
		c0,0,0.1-0.1,0.1-0.1c0.2-0.1,0.4-0.2,0.6-0.4c0.1-0.1,0.1-0.1,0.2-0.2c0.2-0.1,0.3-0.3,0.5-0.4c0,0,0.1-0.1,0.1-0.1
		c0.2-0.2,0.5-0.4,0.8-0.8c0.1-0.1,0.1-0.1,0.2-0.2c0,0,0.1-0.1,0.1-0.1c0.1-0.1,0.2-0.3,0.4-0.4c0-0.1,0.1-0.1,0.1-0.2
		c0,0,0.1-0.1,0.1-0.1c0.1-0.1,0.1-0.2,0.2-0.3c0,0,0.1-0.1,0.1-0.1c0.1-0.1,0.1-0.2,0.2-0.3c0,0,0-0.1,0.1-0.1
		c0.1-0.1,0.1-0.2,0.2-0.4c0,0,0-0.1,0.1-0.1c0.1-0.1,0.1-0.3,0.2-0.4c0,0,0-0.1,0-0.1c0.1-0.2,0.1-0.3,0.2-0.5c0,0,0,0,0-0.1
		c0.2-0.6,0.4-1.3,0.6-2.1c0.1-0.5,0.2-1.1,0.2-1.6c0,0,0,0,0,0C-819.2,525.7-819.2,525.4-819.2,525z"/>
	<path id="XMLID_12_" class="st3" d="M-819.2,524.5c0,0.6-3.6,0.8-4.2,0.3c-0.6-0.5-0.2-0.6-0.6-1.2c-0.4-0.6-0.7,0.6-1.1,0
		c-0.2-0.4,0.2-2.2-0.4-1.9c-0.5,0.3-0.5-2-1.3-1.7c-0.5,0.2-1.7-0.3-2.2-0.4c-0.8-0.2-2.3,1.6-3,1.3c-0.4-0.1-2.1-1.8-3-1.8
		c-1.2,0-2-2.4-3.2-2.3c-1.1,0.1-1.3,1.9-2.9,1c-1.2-0.6-5-7.1-6-7.2c0.1,0.9,0.4,2.2-0.7,3.8c0.2,2.1,1.4,3.9,0.6,4.1
		c-1.2,0.4,0.4,4-0.6,3.3c-0.6-0.4-1.6-1.4-2.3-1.4c-0.8,0-0.9,1.1-0.4,1.6c0.6,0.6,1.3,1.4-0.1,1.7c-1.2,0.3-1.6-0.7-2-1.6
		c-0.4-0.9-0.6,0.5-1.3,1.1c-2.5,2.1-3.5,0.8-4.3,0.9c-1,0.2-2.3,0.4-3.2,0.6c-0.9,0.2-1.6-0.9-2.5-0.9c-0.1,0.2-0.2,0.3-0.3,0.3
		c-0.2-0.1-0.3-0.3-0.3-0.5c-0.9-0.6-2.1-1.3-3.2-1c-1.2,0.3-0.8,1.8-2.1,2c-0.8,0.2-2.5,0.7-3.3,0.4c-1.1-0.4-1-2.1-1.7-2.9
		c0.3-0.6-1-0.4-1.2-0.4c-0.7-0.1-1.9-0.8-2,0.4c0,0.3,0,0.7-0.1,1.1c-0.2,0.4-0.7,0.7-0.7,1.3c-0.1,2.1-4,1.1-5.1,0.4
		c-0.8-0.5-1.3-0.7-2.2-0.2c-0.7,0.4-1.7,0.1-2.3,0.7c-0.6,0.6-0.6,1.2-1.6,1.1c-0.5-0.1,0-0.5-0.6-0.5c-0.5,0-1.3,2.8-1.6,2.3
		c-0.2-0.3-1.7,0.7-2,0.7c-1.5,0-2.2,3.6-6.3,2.8c-4.3-1.4-7.1-2.4-7.3-2c-0.1,0.1,0,0.2,0,0.4c0.1,0.1,0.1,0.2,0.2,0.3
		c0.5,0.8,1,1.3,1.2,1.4c0,0,0,0,0,0c0.3,0.1,0.4,0.4,0.5,0.6c0.1,0.2,0.3,0.5,0.5,0.6c0,0,0,0,0,0c0.3,0.1,0.7,0,1,0.2
		c0.4,0.2,0.6,0.6,0.9,0.8c0.7,0.6,1.6,0.4,2.5,0.3c1.2-0.1,1.9,0.5,3,0.8c0.9,0.3,2.1,0.5,3.3,0.7c1.3,0.2,2.5,0.3,3.6,0.3
		c8.4,0.3,17.3,0.5,26.2,0.6c0.1,0,0.2,0,0.3,0c4.4,0,8.7,0,13.1,0c8-0.1,15.9-0.3,23.1-0.8c1.3-0.1,2.4-0.4,3.4-0.8
		c0.8-0.4,1.4-0.8,2.1-1.4c0.1,0,0.1-0.1,0.2-0.2c0.8-0.7,2.4-2.1,3.3-6.1c0.1-0.6,0.2-1.2,0.2-1.8
		C-819.2,525.4-819.2,525-819.2,524.5z M-825.8,522.4C-825.8,522.4-825.8,522.4-825.8,522.4C-825.8,522.4-825.8,522.4-825.8,522.4
		C-825.8,522.4-825.8,522.4-825.8,522.4z"/>
	<path id="XMLID_11_" class="st4" d="M-819.9,529c-1.7-3.4-2.2-1.8-2.9-1.7c-1.3,0.1-0.1,1-1.7,0.3c-2.5-1.2-0.6,2.7-3.5-0.9
		c-0.5,2.1-0.9-3-1.4-2.1c-0.5,0.9-1.4,1.5-2.4,2c-2.7,1.3,1.5-3.3-4.3-2.1c0,0-4.6-4.5-2.9-0.1c0.8,2.1-1.3-3.1-4.1-3.7
		c-0.8,1.4,0.2,2.2-0.7,2.8c-0.6,0.4,0,4-2.1,2.8c-0.9-0.5-0.8,1.1-1.7,2.2c-2.2-1.5-3.2,0.4-4,1.1c-2.2,1.7-5.1,0.3-5.8,1.5
		c0.1-0.9-1.9-2.8-2.6-2.8c-0.8-0.1-1.6,0.3-2.4,0c-1-0.3-1.9-0.3-2.8-0.7c-1.5-0.8-2.7,0.8-4,1.4c-0.7,0.3-1.5,1-2.3,0.7
		c-0.8-0.3-1.1-1.2-1.9-1.5c0,0-0.2,0-0.3,0.1c-0.4,0.3-0.2-0.1-0.6-0.2c-0.7-0.2-1.7,0.5-2.2,1c-0.6,0.7-0.6,1.1-1.6,1.4
		c-0.9,0.3-1.7-0.2-2.5-0.4c-0.8-0.2-1.2-1-2.1-0.3c-0.6,0.5-0.9,0.8-1.7,0.3c-1-0.7-1.4-0.4-2.5-0.2c-1.1,0.2-2.5-0.1-3.6-0.3
		c-1-0.1-0.6,2.2-1.7,2.1c-1-0.1-2.3,2-3.3,2.2c-1.7,0.3-2.8-0.1-3.4,0.4c-0.9,0.8-3.9-1.3-3.7,0.3c0.1,0.1,0.1,0.2,0.2,0.3
		c0.5,0.1,1,0,1.5-0.1c1.2-0.1,1.9,0.5,3,0.8c1.9,0.6,4.8,0.9,6.8,1c20.1,0.7,43.5,0.9,62.7-0.2c2.4-0.1,4-1,5.4-2.2
		c0.7-0.6,2.1-1.7,3.1-4.9C-819.8,529.1-819.9,529-819.9,529z"/>
	<path id="XMLID_10_" class="st2" d="M-873.4,528.1C-873.5,528.1-873.8,527.9-873.4,528.1L-873.4,528.1z"/>
	<path id="XMLID_8_" class="st5" d="M-870.9,537c0.8,0,1.5,0,2.3,0c-0.1,0-0.2,0-0.3,0C-869.5,537-870.2,537-870.9,537z"/>
	<path id="XMLID_7_" class="st6" d="M-820.5,525.7c-0.2-1.3-2.9-0.7-3.1-1c-0.4-0.7-0.9-1.1-2.9,0.2c-1-1.8-0.5-3.4-1-2.7
		c-1,1.5-1.6-0.7-2.4-0.4c-1.3,0.6-3.7-0.7-3.8-0.2c-0.2,1.7-0.9-0.7-1.9-2.1c-1-1.4-1.6,1.3-3.3,1.3c-0.9,0,1-2.3-1.1-1.9
		c-2.7,2-4.8-3.3-4.1-1.7c0.3,0.9-1.2,5.4-1.4,5.2c-0.9-1,0.5,2.9-0.8,2.2c-0.5-0.3-0.9,0.1-1.4-0.2c-0.3-0.2-0.6-0.6-0.9-0.1
		c-0.3,0.5,0.1,1.8-0.8,1.7c-0.5,0-0.7-0.5-1.1-0.5c-0.9-0.2-0.4,1.3-0.7,1.6c-0.7,0.9-3-0.5-3.5-0.2c-1.9,1.4-1.7,0-2.8-0.3
		c-0.5-0.1-0.9,0.1-1.4-0.1c-0.9-0.2-1.7-0.6-2.6-0.5c0.5-0.6-1.1-0.9-1.5-1.2c-0.6-0.4-1,0.3-1.6,0.1c-0.3-0.1-0.4-0.4-0.7-0.6
		c-0.4-0.3-0.8-0.5-1.3-0.6c-1.6-0.3-1.7,1.5-2.8,2.3c-1.3,0.9-2.8,1.5-4,0.2c-0.7-0.7-1.4-2.7-2.6-2.7c-2,0.1-0.3,1.8-0.9,2.1
		c-0.5,0.3-0.8,0.5-1.2,0.9c-0.6,0.7-1.3,0.3-2,0c-0.7-0.3-1.2,0.2-1.9,0.2c-0.2,0-0.3-0.4-0.5-0.4c-0.4-0.1-0.7,0-1.1-0.2
		c-0.5-0.3-0.9-0.9-1.6-0.9c-0.6,0-1.4,0.4-1.9,0.7c-0.5,0.3-0.9,0.8-1.4,1.1c-0.7,0.4-1.6,0.4-2.4,0.3c-1.1,2.7-4.2,2.6-3.9,3.1
		c0.4,0.7-2.3,1.9-4.8,2c-2.1,0.1-4-0.9-4.4-0.7c-1.5,0.7-0.2,1.6,0.9,2.7c0.1,0.1,0.1,0.1,0.2,0.1c0,0,0,0,0,0c0.6,0.1,1.2,0,1.8,0
		c1.1-0.1,1.8,0.4,2.7,0.7c0.3,0.1,0.7,0.3,1.3,0.4c0.1,0,0.2,0,0.3,0.1c1.8,0.4,3.9,0.6,5.4,0.7c13.3,0.5,28.1,0.7,42.2,0.5
		c7.1-0.1,14-0.3,20.5-0.7c1.4-0.1,2.6-0.4,3.6-0.9c0.5-0.3,1-0.6,1.5-1c0.1-0.1,0.3-0.2,0.4-0.3c0.8-0.6,2.5-2,3.4-6.2c0,0,0,0,0,0
		C-819.7,527.6-820.3,527.2-820.5,525.7z"/>
	<path id="XMLID_5_" class="st1" d="M-849.5,498.3c0.5-2,1.1-3.6,3.1-4.7c-0.3,0-0.7,0.1-1,0.3c-0.6,0.3-0.9,1-1.5,1.3
		c-0.5,0.3-1.4,0.2-1.9-0.2c-0.7-0.6-1.3-1-2-1.5C-851.2,497.5-850.3,495.5-849.5,498.3z"/>
	<path id="XMLID_4_" class="st1" d="M-887.2,506.5c2.7,1.5,2.8,0,4.7,0.6c1.6,0.5,1.9-0.2,3.5,0.3c2.8,0.9,4.5,2.3,6,4.8
		c-0.2-0.8-1.1-4.2-3.5-5.1c-3-1.1-2.4-1.7-3.3-2.2c0,0,0,0,0,0c0,0,0,0.1,0,0.1c0,0.2,0,0.4,0,0.6c0,0.4,0,0.7-0.2,0.8
		c-0.5,0.4-1.2,0.5-1.8,0.2c-0.7-0.4-1.3-0.6-2.1-0.3c-0.8,0.3-1.5,0.3-2.3-0.1c-0.6-0.4-1.7-1-4.2-0.5c-1.5,0.3-3,0.5-3.8,2
		c-0.2,0.5-0.5,0.9-0.7,1.2C-891.8,505.6-887.5,506.3-887.2,506.5z"/>
	<path id="XMLID_3_" class="st3" d="M-875.5,509.1c-0.2-0.3-0.3-1.4-2.3-2.4c-0.9-0.4-1.6-1.2-2-1.5c0,0.5,0,1-0.2,1.2
		c-0.3,0.2-0.4,0.3-1,0.4C-882.6,506.9-879,506.5-875.5,509.1z"/>
	<path id="XMLID_19_" d="M-821.2,518c-0.8-0.8-0.4-1.3-0.6-1.9c-0.4-0.8-1.1-1-1.6-1.3c-0.8-0.4-1.5-0.2-2.3-0.4
		c-1.3-0.4-1.5-2.9-2.7-3.8c-1.6-1.1-0.5-3.1-2-4.3c-0.8-0.6-1.3-0.3-2.1-0.5c-0.8-0.2-1.7-0.8-2.5-1.2c-1.5-0.7-1.1-1.9-2.1-4
		c-0.7-1.5-2.5-3-4-3.9c-0.6-0.3-1.2-0.5-1.8-0.7c-0.7-0.2-0.6-0.7-0.9-1.2c-0.9-1-2.2-1.5-3.6-0.8c-0.6,0.3-0.9,1-1.5,1.3
		c-0.5,0.3-1.4,0.2-1.9-0.2c-6.7-5.7-15-5.2-16.3,0.2c-1.8,1.4-3.9,2.2-4.6,6.6c-1.8-1.1-2.7,0.3-2.8,0.2c0,0-1.1-0.5-2.3-0.2
		c-1.6,0.4-2.8,1.5-3,3.1c-0.1,0.6,0.1,1.3-0.3,1.5c-0.5,0.4-1.2,0.5-1.8,0.2c-0.7-0.4-1.3-0.6-2.1-0.3c-0.8,0.3-1.5,0.3-2.3-0.1
		c-0.6-0.4-1.7-1-4.2-0.5c-1.5,0.3-3,0.5-3.8,2c-1.6,3.1-1.9,1.8-3.6,3.6c-0.4,0.5-0.7,1.6-1.3,1.8c-0.6,0.2-1.1,0.2-1.6,0.7
		c-0.6,0.5-1.5,0.1-2.2,0.6c-0.3,0.2-0.2,0.3-0.7,0.8c-0.5,0.4-1,0.8-1.4,1.2c-0.7,0.6-1.3,1.3-1.7,2.2c-0.3,0.7-0.4,1.6-1,2.1
		c-0.7,0.6-0.4,1-0.7,1.8c-0.2,0.3-0.5,0.4-0.7,0.8c-0.2,0.5-0.1,1.1-0.1,1.6c0.1,4.4,2.1,7,2.8,7.3c0.6,0.3,0.6,1,1.1,1.3
		c0.3,0.1,0.7,0,1,0.2c0.4,0.2,0.6,0.6,0.9,0.8c0.7,0.6,1.6,0.4,2.5,0.3c1.2-0.1,1.9,0.5,3,0.8c1.9,0.6,4.8,0.9,6.8,1
		c20.1,0.7,43.5,0.9,62.7-0.2c2.4-0.1,4-1,5.4-2.2c0.8-0.6,2.5-2,3.4-6.2C-818.5,523.4-820.8,518.4-821.2,518z"/>
</g>
</svg>
