<?xml version="1.0" encoding="utf-8"?>
<!-- Generator: Adobe Illustrator 19.1.0, SVG Export Plug-In . SVG Version: 6.00 Build 0)  -->
<svg version="1.1" id="Layer_1" xmlns="http://www.w3.org/2000/svg" xmlns:xlink="http://www.w3.org/1999/xlink" x="0px" y="0px"
	 viewBox="0 0 100 100" enable-background="new 0 0 100 100" xml:space="preserve">
<path d="M88.7,3H14.3C13.6,3,13,2.3,13,1.5S13.6,0,14.3,0h74.4C89.4,0,90,0.7,90,1.5S89.4,3,88.7,3z"/>
<path d="M75.7,11H1.3C0.6,11,0,10.3,0,9.5S0.6,8,1.3,8h74.4C76.4,8,77,8.7,77,9.5S76.4,11,75.7,11z"/>
<path d="M86.7,19H12.3c-0.7,0-1.3-0.7-1.3-1.5s0.6-1.5,1.3-1.5h74.4c0.7,0,1.3,0.7,1.3,1.5S87.4,19,86.7,19z"/>
</svg>
