<?xml version="1.0" encoding="utf-8"?>
<!-- Generator: Adobe Illustrator 19.1.0, SVG Export Plug-In . SVG Version: 6.00 Build 0)  -->
<svg version="1.1" id="Layer_1" xmlns="http://www.w3.org/2000/svg" xmlns:xlink="http://www.w3.org/1999/xlink" x="0px" y="0px"
	 viewBox="0 0 100 100" enable-background="new 0 0 100 100" xml:space="preserve">
<path d="M4.6,10.6l1.5-3.3l2.1,2.9c0.3,0.4,0.8,0.5,1.2,0.2c0.4-0.3,0.5-0.9,0.2-1.2L7.6,6.3L11.2,6c0.5,0,0.9-0.5,0.8-1
	c0-0.5-0.5-0.8-1-0.8L7.5,4.5L9,1.3c0.2-0.4,0-1-0.4-1.2s-1,0-1.2,0.4L5.8,3.8L3.8,0.8C3.5,0.4,2.9,0.3,2.5,0.6
	C2.4,0.7,2.3,0.8,2.3,1C2.1,1.2,2.1,1.6,2.3,1.8l2.1,2.9L0.8,5.1c-0.3,0-0.6,0.2-0.7,0.5C0,5.8,0,5.9,0,6.1c0,0.5,0.5,0.8,1,0.8
	l3.6-0.3L3,9.8c-0.2,0.4,0,1,0.4,1.2C3.9,11.2,4.4,11,4.6,10.6z"/>
</svg>
