<svg xmlns="http://www.w3.org/2000/svg" xmlns:xlink="http://www.w3.org/1999/xlink" width="100" height="100" viewBox="0 0 100 100">
  <defs>
    <symbol id="a" data-name="sun-winter" viewBox="0 0 90 43">
      <polygon points="70.71 8.86 85.96 2 4.18 2 4.07 2.05 19.43 8.88 9.58 22.54 26.3 20.78 24.61 37.53 38.21 27.64 45.12 43 51.95 27.64 65.61 37.48 63.84 20.76 80.6 22.46 70.71 8.86"/>
      <path d="M20,2a24.84,24.84,0,0,0,3.34,12.5A25,25,0,0,0,57.5,23.65,25,25,0,0,0,70,2Z"/>
      <path d="M24,2a20.85,20.85,0,0,0,2.79,10.5A21,21,0,0,0,55.5,20.19,21,21,0,0,0,66,2Z"/>
      <path d="M88.29,2.7H1.71A1.56,1.56,0,0,1,0,1.35,1.56,1.56,0,0,1,1.71,0H88.29A1.56,1.56,0,0,1,90,1.35,1.56,1.56,0,0,1,88.29,2.7Z"/>
    </symbol>
  </defs>
  <title>sun-winter</title>
  <use width="90" height="43" transform="translate(0 0)" xlink:href="#a"/>
</svg>
