<?xml version="1.0" encoding="utf-8"?>
<!-- Generator: Adobe Illustrator 19.1.0, SVG Export Plug-In . SVG Version: 6.00 Build 0)  -->
<svg version="1.1" id="Layer_1" xmlns="http://www.w3.org/2000/svg" xmlns:xlink="http://www.w3.org/1999/xlink" x="0px" y="0px"
	 viewBox="0 0 100 100" enable-background="new 0 0 100 100" xml:space="preserve">
<path opacity="0.5" d="M85.5,1.8c0,22.4-18.1,40.5-40.5,40.5S4.5,24.2,4.5,1.8H85.5z"/>
<path opacity="0.95" d="M79,1.8c0,18.8-15.2,34-34,34s-34-15.2-34-34H79z"/>
<path stroke="#000000" stroke-width="2" stroke-miterlimit="10" d="M73.4,1.8c0,15.7-12.7,28.4-28.3,28.4S16.7,17.5,16.7,1.8H73.4z"
	/>
<path fill="#333333" d="M88.3,2.7H1.7C0.8,2.7,0,2.1,0,1.4S0.8,0,1.7,0h86.6C89.2,0,90,0.6,90,1.4S89.2,2.7,88.3,2.7z"/>
</svg>
