<?xml version="1.0" encoding="utf-8"?>
<!-- Generator: Adobe Illustrator 16.0.1, SVG Export Plug-In . SVG Version: 6.00 Build 0)  -->
<!DOCTYPE svg PUBLIC "-//W3C//DTD SVG 1.1//EN" "http://www.w3.org/Graphics/SVG/1.1/DTD/svg11.dtd" [
	<!ENTITY ns_extend "http://ns.adobe.com/Extensibility/1.0/">
	<!ENTITY ns_ai "http://ns.adobe.com/AdobeIllustrator/10.0/">
	<!ENTITY ns_graphs "http://ns.adobe.com/Graphs/1.0/">
	<!ENTITY ns_vars "http://ns.adobe.com/Variables/1.0/">
	<!ENTITY ns_imrep "http://ns.adobe.com/ImageReplacement/1.0/">
	<!ENTITY ns_sfw "http://ns.adobe.com/SaveForWeb/1.0/">
	<!ENTITY ns_custom "http://ns.adobe.com/GenericCustomNamespace/1.0/">
	<!ENTITY ns_adobe_xpath "http://ns.adobe.com/XPath/1.0/">
]>
<svg version="1.1" xmlns:x="&ns_extend;" xmlns:i="&ns_ai;" xmlns:graph="&ns_graphs;"
	 xmlns="http://www.w3.org/2000/svg" xmlns:xlink="http://www.w3.org/1999/xlink" x="0px" y="0px" width="100px" height="100px"
	 viewBox="0 0 100 100" enable-background="new 0 0 100 100" xml:space="preserve">
<metadata>
	<sfw  xmlns="&ns_sfw;">
		<slices></slices>
		<sliceSourceBounds  bottomLeftOrigin="true" height="16383" width="1078" y="-8242" x="6"></sliceSourceBounds>
	</sfw>
</metadata>
<g id="snow_shower_thunder">
</g>
<g id="sleet_shower_thunder">
</g>
<g id="rain_shower_thunder">
</g>
<g id="clouds">
	<g id="heavy_rain_thunder">
	</g>
	<g id="rain_thunder">
	</g>
	<g id="heavy_snow">
	</g>
	<g id="sleet">
	</g>
	<g id="heavy_rain">
	</g>
	<g id="rain_1_">
	</g>
	<g id="heavy_cloud">
	</g>
	<g id="fog">
	</g>
</g>
<g id="snow_shower">
</g>
<g id="sleet_shower">
</g>
<g id="rain_shower">
</g>
<g id="partly_cloudy">
	<g id="day_2_">
		<g id="day_3_">
			<path fill="#E88D15" d="M52.029,36.557l8.185-13.771l-13.765,8.186C48.676,32.465,50.54,34.324,52.029,36.557z"/>
			<path fill="#E88D15" d="M31.561,30.972l-13.771-8.186l8.189,13.771C27.465,34.324,29.324,32.465,31.561,30.972z"/>
			<path fill="#E88D15" d="M46.449,57.029l13.762,8.192l-8.182-13.78C50.54,53.676,48.676,55.535,46.449,57.029z"/>
			<path fill="#E88D15" d="M24.525,40.047L9,43.997l15.525,3.95C24,45.312,24,42.68,24.525,40.047z"/>
			<path fill="#E88D15" d="M53.473,47.947L69,44.003l-15.527-3.956C54,42.68,54,45.312,53.473,47.947z"/>
			<path fill="#E88D15" d="M25.979,51.441l-8.189,13.777l13.771-8.196C29.324,55.535,27.465,53.676,25.979,51.441z"/>
			<path fill="#E88D15" d="M42.955,29.525L38.996,14l-3.949,15.525C37.684,29,40.318,29,42.955,29.525z"/>
			<path fill="#E88D15" d="M35.047,58.473L39.004,74l3.951-15.527C40.318,58.992,37.684,58.992,35.047,58.473z"/>
			<path fill="#FABA2F" d="M38.999,32.003C45.625,32.003,51,37.376,51,44.001c0,6.629-5.375,11.996-12.001,11.996
				C32.372,55.997,27,50.63,27,44.001C27,37.376,32.372,32.003,38.999,32.003z"/>
		</g>
		<g>
			<path fill="#FFFFFF" d="M52.804,34c-6.845,0-13.075,4.347-15.664,10.438c-0.2-0.009-0.401-0.013-0.603-0.013
				c-6.129,0-11.072,3.622-12.899,8.945c-0.071-0.001-0.144-0.002-0.215-0.002c-5.479,0-9.766,3.463-11.538,7.351
				C8.28,62.292,6,65.908,6,70.393C6,76.901,11.051,82,17.498,82h62.938C87.662,82,94,75.672,94,68.457
				c0-5.306-3.22-10.078-7.846-12.291c0.509-4.308-0.474-8.347-2.889-11.655c-3.176-4.353-8.377-6.85-14.27-6.851
				c-1.778,0.001-3.559,0.229-5.32,0.685C60.646,35.524,56.871,34,52.804,34L52.804,34z"/>
			<path fill="#999999" d="M17.498,78C13.489,78,10,74.907,10,70.393c0-2.964,1.551-5.932,5.043-6.447
				c0.516-3.479,5.373-8.362,11.834-5.917c0-7.154,6.748-11.154,13.108-9.038c1.423-10.053,14.993-15.6,22.486-6.058
				c11.503-4.511,23.004,3.48,18.999,15.99C85.995,59.434,90,63.432,90,68.457C90,73.488,85.476,78,80.437,78H17.498z"/>
		</g>
	</g>
</g>
<g id="fair">
</g>
<g id="clear">
</g>
</svg>
