<?xml version="1.0" encoding="utf-8"?>
<!-- Generator: Adobe Illustrator 16.0.1, SVG Export Plug-In . SVG Version: 6.00 Build 0)  -->
<!DOCTYPE svg PUBLIC "-//W3C//DTD SVG 1.1//EN" "http://www.w3.org/Graphics/SVG/1.1/DTD/svg11.dtd" [
	<!ENTITY ns_extend "http://ns.adobe.com/Extensibility/1.0/">
	<!ENTITY ns_ai "http://ns.adobe.com/AdobeIllustrator/10.0/">
	<!ENTITY ns_graphs "http://ns.adobe.com/Graphs/1.0/">
	<!ENTITY ns_vars "http://ns.adobe.com/Variables/1.0/">
	<!ENTITY ns_imrep "http://ns.adobe.com/ImageReplacement/1.0/">
	<!ENTITY ns_sfw "http://ns.adobe.com/SaveForWeb/1.0/">
	<!ENTITY ns_custom "http://ns.adobe.com/GenericCustomNamespace/1.0/">
	<!ENTITY ns_adobe_xpath "http://ns.adobe.com/XPath/1.0/">
]>
<svg version="1.1" xmlns:x="&ns_extend;" xmlns:i="&ns_ai;" xmlns:graph="&ns_graphs;"
	 xmlns="http://www.w3.org/2000/svg" xmlns:xlink="http://www.w3.org/1999/xlink" x="0px" y="0px" width="100px" height="100px"
	 viewBox="0 0 100 100" enable-background="new 0 0 100 100" xml:space="preserve">
<metadata>
	<sfw  xmlns="&ns_sfw;">
		<slices></slices>
		<sliceSourceBounds  bottomLeftOrigin="true" height="16383" width="1078" y="-8242" x="6"></sliceSourceBounds>
	</sfw>
</metadata>
<g id="snow_shower_thunder">
</g>
<g id="sleet_shower_thunder">
</g>
<g id="rain_shower_thunder">
</g>
<g id="clouds">
	<g id="heavy_rain_thunder">
	</g>
	<g id="rain_thunder">
	</g>
	<g id="heavy_snow">
	</g>
	<g id="sleet">
	</g>
	<g id="heavy_rain">
	</g>
	<g id="rain_1_">
		<g>
			<path fill="#FFFFFF" d="M41.197,10c-4.068,0-7.844,1.524-10.873,4.345c-1.762-0.455-3.541-0.684-5.32-0.685
				c-5.893,0.001-11.094,2.498-14.27,6.851c-2.414,3.309-3.396,7.348-2.889,11.655C3.221,34.379,0,39.151,0,44.457
				C0,51.672,6.338,58,13.564,58h62.938C82.949,58,88,52.901,88,46.393c0-4.484-2.279-8.101-5.884-9.674
				c-1.772-3.888-6.06-7.351-11.538-7.351c-0.072,0-0.144,0.001-0.215,0.002c-1.828-5.323-6.771-8.945-12.9-8.945
				c-0.201,0-0.401,0.004-0.602,0.013C54.271,14.347,48.041,10,41.197,10L41.197,10z"/>
			<path fill="#A6A6A6" d="M76.503,54C80.512,54,84,50.907,84,46.393c0-2.964-1.551-5.932-5.043-6.447
				c-0.516-3.479-5.372-8.362-11.833-5.917c0-7.154-6.749-11.154-13.108-9.038c-1.423-10.053-14.994-15.6-22.486-6.058
				c-11.504-4.511-23.004,3.48-19,15.99C8.006,35.434,4,39.432,4,44.457C4,49.488,8.525,54,13.564,54H76.503z"/>
		</g>
		<g>
			<path fill="#FFFFFF" d="M52.804,28c-6.845,0-13.075,4.347-15.664,10.438c-0.2-0.009-0.401-0.013-0.603-0.013
				c-6.129,0-11.072,3.622-12.899,8.945c-0.071-0.001-0.144-0.002-0.215-0.002c-5.479,0-9.766,3.463-11.538,7.351
				C8.28,56.292,6,59.908,6,64.393C6,70.901,11.051,76,17.498,76h62.938C87.662,76,94,69.672,94,62.457
				c0-5.306-3.22-10.078-7.846-12.291c0.509-4.308-0.474-8.347-2.889-11.655c-3.176-4.353-8.377-6.85-14.27-6.851
				c-1.778,0.001-3.559,0.229-5.32,0.685C60.646,29.524,56.871,28,52.804,28L52.804,28z"/>
			<path fill="#808080" d="M17.498,72C13.489,72,10,68.907,10,64.393c0-2.964,1.551-5.932,5.043-6.447
				c0.516-3.479,5.373-8.362,11.834-5.917c0-7.154,6.748-11.154,13.108-9.038c1.423-10.053,14.993-15.6,22.486-6.058
				c11.503-4.511,23.004,3.48,18.999,15.99C85.995,53.434,90,57.432,90,62.457C90,67.488,85.476,72,80.437,72H17.498z"/>
		</g>
		<g>
			<circle fill="#FFFFFF" cx="66" cy="77" r="8"/>
			<path fill="#1362B1" d="M75,82.909C75,85.724,72.759,88,70,88c-2.763,0-5-2.276-5-5.091C65,81.327,65,74,65,74
				C69.57,78.494,75,78.295,75,82.909z"/>
		</g>
		<g>
			<circle fill="#FFFFFF" cx="51" cy="74" r="8"/>
			<path fill="#1362B1" d="M60,79.909C60,82.724,57.759,85,55,85c-2.763,0-5-2.276-5-5.091C50,78.327,50,71,50,71
				C54.57,75.494,60,75.295,60,79.909z"/>
		</g>
	</g>
	<g id="heavy_cloud">
	</g>
	<g id="fog">
	</g>
</g>
<g id="snow_shower">
</g>
<g id="sleet_shower">
</g>
<g id="rain_shower">
</g>
<g id="partly_cloudy">
</g>
<g id="fair">
</g>
<g id="clear">
</g>
</svg>
