<svg width="100" height="100" viewBox="0 0 100 100" fill="none" xmlns="http://www.w3.org/2000/svg">
<g clip-path="url(#clip0_149_1384)">
<path fill-rule="evenodd" clip-rule="evenodd" d="M48.3 32.3C48.3 27.1 46.8 22.2 44.4 18C55.8767 19.4651 65.1671 27.6878 68.2268 38.5699C65.2605 39.8984 62.6642 42.0116 60.7659 44.6833H60.0843C57.0482 44.6833 54.2599 46.1084 52.5869 48.525C49.4888 48.7108 46.6386 50.012 44.4699 52.2427C42.2392 54.4733 41 57.4475 41 60.6076V60.7315C41.062 64.0775 42.3632 67.1756 44.7797 69.4682C46.6971 71.3337 49.1345 72.4625 51.7658 72.782C48.3623 74.2106 44.6236 75 40.7 75C30.2 75 21 69.2 16 60.6C17.2 60.8 18.4 60.9 19.7 60.9C35.5 60.9 48.3 48.1 48.3 32.3Z" fill="url(#paint0_linear_149_1384)"/>
<path fill-rule="evenodd" clip-rule="evenodd" d="M90.272 52.4285C89.0947 45.4268 82.8985 40.0981 75.6489 40.0981C70.0103 40.0981 64.9295 43.2582 62.451 48.2151C61.7074 47.9053 60.9639 47.7814 60.2203 47.7814C57.6179 47.7814 55.3873 49.3304 54.5198 51.623C54.148 51.5611 53.8382 51.5611 53.4665 51.5611C50.926 51.5611 48.5714 52.5525 46.8365 54.3494C45.1635 56.0843 44.2341 58.315 44.2341 60.6695V60.7934C44.2961 63.3339 45.2875 65.6265 47.0844 67.2995C48.7573 68.9724 51.0499 69.9019 53.4665 69.9019H87.9794C92.8744 69.9019 96.9019 65.9363 96.9019 61.0413C96.9019 56.9518 94.1136 53.4199 90.272 52.4285Z" fill="#E6E6E6"/>
<g opacity="0.6">
<path fill-rule="evenodd" clip-rule="evenodd" d="M90.272 52.4285C89.0947 45.4268 82.8985 40.0981 75.6489 40.0981C70.0103 40.0981 64.9295 43.2582 62.451 48.2151C61.7074 47.9053 60.9639 47.7814 60.2203 47.7814C57.6179 47.7814 55.3873 49.3304 54.5198 51.623C54.148 51.5611 53.8382 51.5611 53.4665 51.5611C50.926 51.5611 48.5714 52.5525 46.8365 54.3494C45.1635 56.0843 44.2341 58.315 44.2341 60.6695V60.7934C44.2961 63.3339 45.2875 65.6265 47.0844 67.2995C48.7573 68.9724 51.0499 69.9019 53.4665 69.9019H87.9794C92.8744 69.9019 96.9019 65.9363 96.9019 61.0413C96.9019 56.9518 94.1136 53.4199 90.272 52.4285Z" fill="url(#paint1_linear_149_1384)" style="mix-blend-mode:multiply"/>
</g>
<g style="mix-blend-mode:multiply" opacity="0.3" filter="url(#filter0_f_149_1384)">
<path d="M58.1756 65.5026C59.2826 65.5026 73.572 64.7142 74.5831 64.2634C75.965 63.6473 73.1019 59.9435 74.5831 59.6352C75.252 59.496 76.2353 59.0605 76.2353 59.0605C76.2353 59.0605 78.9325 58.0676 79.3976 58.0676C79.8627 58.0676 79.6296 56.2315 79.4844 55.0876L79.3976 54.2693C79.3976 53.7302 77.7916 52.6125 77.5387 51.2517C77.3629 50.3055 77.8013 49.0306 77.7097 48.7933C77.7097 48.7933 77.6782 48.7755 77.6875 48.7732C77.6964 48.771 77.7038 48.778 77.7097 48.7933C77.7794 48.826 78.2811 48.996 78.2811 48.996C79.488 49.405 81.3972 50.0736 83.1153 51.2517C84.1429 51.9563 85.5573 53.305 85.5573 53.305C85.5573 53.305 86.5764 54.0932 86.8331 54.3498C87.4527 54.9694 89.3115 56.8283 90.5508 56.8283H93.6489L95.043 57.8135L95.3529 59.8025C95.3529 64.6975 91.3253 68.6631 86.4303 68.6631H51.3597C51.3597 68.6631 54.148 65.5026 58.1756 65.5026Z" fill="url(#paint2_radial_149_1384)"/>
</g>
</g>
<defs>
<filter id="filter0_f_149_1384" x="48.8813" y="46.2943" width="48.9501" height="24.8472" filterUnits="userSpaceOnUse" color-interpolation-filters="sRGB">
<feFlood flood-opacity="0" result="BackgroundImageFix"/>
<feBlend mode="normal" in="SourceGraphic" in2="BackgroundImageFix" result="shape"/>
<feGaussianBlur stdDeviation="1.23924" result="effect1_foregroundBlur_149_1384"/>
</filter>
<linearGradient id="paint0_linear_149_1384" x1="27.4251" y1="72.4921" x2="64.1806" y2="28.6887" gradientUnits="userSpaceOnUse">
<stop stop-color="#686E73"/>
<stop offset="0.9891" stop-color="#6A7075"/>
</linearGradient>
<linearGradient id="paint1_linear_149_1384" x1="69.3288" y1="49.7022" x2="70.568" y2="69.9019" gradientUnits="userSpaceOnUse">
<stop offset="0.484375" stop-color="white" stop-opacity="0"/>
<stop offset="1" stop-color="#B3B2B2"/>
</linearGradient>
<radialGradient id="paint2_radial_149_1384" cx="0" cy="0" r="1" gradientUnits="userSpaceOnUse" gradientTransform="translate(82.031 51.2513) rotate(75.0686) scale(14.4287 20.9009)">
<stop stop-color="#D5D5D5"/>
<stop offset="1" stop-color="#D0D0D0"/>
<stop offset="1" stop-color="#9B9B9B" stop-opacity="0"/>
</radialGradient>
<clipPath id="clip0_149_1384">
<rect width="100" height="100" fill="white"/>
</clipPath>
</defs>
</svg>
