<svg width="100" height="100" viewBox="0 0 100 100" fill="none" xmlns="http://www.w3.org/2000/svg">
<path fill-rule="evenodd" clip-rule="evenodd" d="M52.3146 18.5167L54.072 16.06L42.716 17.284L43.872 5.86L34.624 12.592L30 2.12L25.376 12.592L16.06 5.86L17.284 17.216L5.86 16.06L12.592 25.308L2.12 30L12.592 34.624L5.86 43.94L6.4302 43.8785C6.79888 43.4376 7.18901 43.011 7.6 42.6C11.1 39 15.7 36.9 20.7 36.6C23.4 32.7 27.9 30.4 32.8 30.4H33.9C38.2631 24.2593 44.9113 19.9465 52.3146 18.5167Z" fill="url(#paint0_radial_149_1395)"/>
<path fill-rule="evenodd" clip-rule="evenodd" d="M14.867 37.8308C16.7147 37.1384 18.6745 36.7215 20.7 36.6C23.4 32.7 27.9 30.4 32.8 30.4H33.9C36.6679 26.5044 40.3553 23.3445 44.5718 21.1896C39.7966 13.3271 29.5494 10.665 21.4904 15.2337C13.6195 19.7995 10.7654 29.8348 14.867 37.8308Z" fill="#FFD348"/>
<path fill-rule="evenodd" clip-rule="evenodd" d="M17.5653 37.034C18.5875 36.8096 19.6347 36.6639 20.7 36.6C23.4 32.7 27.9 30.4 32.8 30.4H33.9C36.1324 27.2581 38.9631 24.5947 42.187 22.5511C38.1607 15.989 29.5536 13.7405 22.8585 17.6236C16.0937 21.5472 13.7042 30.2499 17.5653 37.034Z" fill="url(#paint1_linear_149_1395)"/>
<path fill-rule="evenodd" clip-rule="evenodd" d="M81.3 42.9C79.4 31.6 69.4 23 57.7 23C48.6 23 40.4 28.1 36.4 36.1C35.2 35.6 34 35.4 32.8 35.4C28.6 35.4 25 37.9 23.6 41.6C23 41.5 22.5 41.5 21.9 41.5C17.8 41.5 14 43.1 11.2 46C8.5 48.8 7 52.4 7 56.2V56.4C7.1 60.5 8.7 64.2 11.6 66.9C14.3 69.6 18 71.1 21.9 71.1H77.6C85.5 71.1 92 64.7 92 56.8C92 50.2 87.5 44.5 81.3 42.9Z" fill="#B2B2B2"/>
<g opacity="0.6">
<path fill-rule="evenodd" clip-rule="evenodd" d="M81.3 42.9C79.4 31.6 69.4 23 57.7 23C48.6 23 40.4 28.1 36.4 36.1C35.2 35.6 34 35.4 32.8 35.4C28.6 35.4 25 37.9 23.6 41.6C23 41.5 22.5 41.5 21.9 41.5C17.8 41.5 14 43.1 11.2 46C8.5 48.8 7 52.4 7 56.2V56.4C7.1 60.5 8.7 64.2 11.6 66.9C14.3 69.6 18 71.1 21.9 71.1H77.6C85.5 71.1 92 64.7 92 56.8C92 50.2 87.5 44.5 81.3 42.9Z" fill="url(#paint2_linear_149_1395)" style="mix-blend-mode:multiply"/>
</g>
<g style="mix-blend-mode:multiply" opacity="0.3" filter="url(#filter0_f_149_1395)">
<path d="M29.5 64C31.2867 64 54.3482 62.7276 55.98 62C58.2101 61.0057 53.5895 55.0283 55.98 54.5307C57.0594 54.306 58.6465 53.6032 58.6465 53.6032C58.6465 53.6032 62.9994 52.0007 63.75 52.0007C64.5006 52.0007 64.1244 49.0374 63.8901 47.1913L63.75 45.8707C63.75 45.0007 61.158 43.1968 60.75 41.0007C60.4663 39.4736 61.1738 37.416 61.0258 37.033C61.0258 37.033 60.9751 37.0044 60.99 37.0007C61.0045 36.997 61.0163 37.0084 61.0258 37.033C61.1384 37.0858 61.9481 37.3602 61.9481 37.3602C63.8959 38.0203 66.9771 39.0993 69.75 41.0007C71.4084 42.1378 73.6911 44.3144 73.6911 44.3144C73.6911 44.3144 75.3358 45.5864 75.75 46.0007C76.75 47.0007 79.75 50.0007 81.75 50.0007H86.75L89 51.5907L89.5 54.8007C89.5 62.7007 83 69.1007 75.1 69.1007H18.5C18.5 69.1007 23 64 29.5 64Z" fill="url(#paint3_radial_149_1395)"/>
</g>
<g clip-path="url(#clip0_149_1395)">
<g clip-path="url(#clip1_149_1395)">
<path d="M40.7 83.5H37.9L39.3 81C39.7 80.4 39.5 79.5 38.8 79.2C38.1 78.8 37.3 79 36.9 79.7L35.5 82.1L34.1 79.7C33.7 79 32.9 78.8 32.3 79.2C31.9 79.4 31.7 79.7 31.6 80C31.5 80.3 31.6 80.7 31.7 81L33.1 83.4H30.4C29.6 83.5 29 84.1 29 84.8C29 85.5 29.6 86.2 30.4 86.2H33.2L31.8 88.6C31.6 88.9 31.6 89.3 31.7 89.6C31.8 89.9 32 90.2 32.3 90.4C32.9 90.8 33.8 90.5 34.1 89.9L35.5 87.5L36.9 90C37.1 90.4 37.6 90.7 38.1 90.7C38.3 90.7 38.6 90.6 38.8 90.5C39.4 90.1 39.7 89.3 39.3 88.7L37.9 86.2H40.7C41.4 86.2 42.1 85.6 42.1 84.8C42.1 84 41.4 83.5 40.7 83.5Z" fill="#00B8F1"/>
</g>
<path d="M48.2905 100.254L48.3156 100.266L48.3419 100.274C48.6557 100.379 49.1176 100.5 49.5 100.5C50.6717 100.5 51.773 99.9047 52.2611 98.6934L55.7581 90.7004L55.7626 90.6901L55.7667 90.6795C56.3547 89.1507 55.7651 87.464 54.2095 86.746L54.1947 86.7392L54.1795 86.7334C52.6507 86.1453 50.964 86.735 50.246 88.2905L50.2459 88.2905L50.2419 88.2996L46.7419 96.2996L46.7374 96.31L46.7333 96.3205C46.1453 97.8494 46.7349 99.5361 48.2905 100.254Z" fill="#006EDB" stroke="white"/>
<path d="M63.2905 92.254L63.3156 92.2656L63.3419 92.2744C63.6557 92.379 64.1176 92.5 64.5 92.5C65.6717 92.5 66.773 91.9047 67.2611 90.6934L70.7581 82.7004L70.7626 82.6901L70.7667 82.6795C71.3547 81.1507 70.7651 79.464 69.2095 78.746L69.1947 78.7392L69.1795 78.7334C67.6507 78.1453 65.964 78.735 65.246 80.2905L65.2459 80.2905L65.2419 80.2996L61.7419 88.2996L61.7374 88.31L61.7333 88.3205C61.1453 89.8494 61.7349 91.5361 63.2905 92.254Z" fill="#006EDB" stroke="white"/>
</g>
<defs>
<filter id="filter0_f_149_1395" x="14.5" y="33" width="79" height="40.1007" filterUnits="userSpaceOnUse" color-interpolation-filters="sRGB">
<feFlood flood-opacity="0" result="BackgroundImageFix"/>
<feBlend mode="normal" in="SourceGraphic" in2="BackgroundImageFix" result="shape"/>
<feGaussianBlur stdDeviation="2" result="effect1_foregroundBlur_149_1395"/>
</filter>
<radialGradient id="paint0_radial_149_1395" cx="0" cy="0" r="1" gradientUnits="userSpaceOnUse" gradientTransform="translate(30 30) scale(27.88)">
<stop offset="0.5143" stop-color="#D6B849"/>
<stop offset="0.6523" stop-color="#FFCE47"/>
<stop offset="1" stop-color="#FFDB73"/>
</radialGradient>
<linearGradient id="paint1_linear_149_1395" x1="20.8172" y1="19.0572" x2="39.1767" y2="40.9373" gradientUnits="userSpaceOnUse">
<stop stop-color="#FFAF22"/>
<stop offset="0.9897" stop-color="#F09900"/>
</linearGradient>
<linearGradient id="paint2_linear_149_1395" x1="47.5" y1="38.5" x2="49.5" y2="71.1" gradientUnits="userSpaceOnUse">
<stop offset="0.484375" stop-color="white" stop-opacity="0"/>
<stop offset="1" stop-color="#B3B2B2"/>
</linearGradient>
<radialGradient id="paint3_radial_149_1395" cx="0" cy="0" r="1" gradientUnits="userSpaceOnUse" gradientTransform="translate(68 41) rotate(75.0686) scale(23.2863 33.7318)">
<stop stop-color="#D5D5D5"/>
<stop offset="1" stop-color="#D0D0D0"/>
<stop offset="1" stop-color="#9B9B9B" stop-opacity="0"/>
</radialGradient>
<clipPath id="clip0_149_1395">
<rect width="100" height="100" fill="white"/>
</clipPath>
<clipPath id="clip1_149_1395">
<rect width="13" height="11.6" fill="white" transform="translate(29 79)"/>
</clipPath>
</defs>
</svg>
