<svg width="100" height="100" viewBox="0 0 100 100" fill="none" xmlns="http://www.w3.org/2000/svg">
<path fill-rule="evenodd" clip-rule="evenodd" d="M81.3 42.9C79.4 31.6 69.4 23 57.7 23C48.6 23 40.4 28.1 36.4 36.1C35.2 35.6 34 35.4 32.8 35.4C28.6 35.4 25 37.9 23.6 41.6C23 41.5 22.5 41.5 21.9 41.5C17.8 41.5 14 43.1 11.2 46C8.5 48.8 7 52.4 7 56.2V56.4C7.1 60.5 8.7 64.2 11.6 66.9C14.3 69.6 18 71.1 21.9 71.1H77.6C85.5 71.1 92 64.7 92 56.8C92 50.2 87.5 44.5 81.3 42.9Z" fill="#999999"/>
<g opacity="0.6">
<path fill-rule="evenodd" clip-rule="evenodd" d="M81.3 42.9C79.4 31.6 69.4 23 57.7 23C48.6 23 40.4 28.1 36.4 36.1C35.2 35.6 34 35.4 32.8 35.4C28.6 35.4 25 37.9 23.6 41.6C23 41.5 22.5 41.5 21.9 41.5C17.8 41.5 14 43.1 11.2 46C8.5 48.8 7 52.4 7 56.2V56.4C7.1 60.5 8.7 64.2 11.6 66.9C14.3 69.6 18 71.1 21.9 71.1H77.6C85.5 71.1 92 64.7 92 56.8C92 50.2 87.5 44.5 81.3 42.9Z" fill="url(#paint0_linear_149_1459)" style="mix-blend-mode:multiply"/>
</g>
<g style="mix-blend-mode:multiply" opacity="0.3" filter="url(#filter0_f_149_1459)">
<path d="M29.5 64C31.2867 64 54.3482 62.7276 55.98 62C58.2101 61.0057 53.5895 55.0283 55.98 54.5307C57.0594 54.306 58.6465 53.6032 58.6465 53.6032C58.6465 53.6032 62.9994 52.0007 63.75 52.0007C64.5006 52.0007 64.1244 49.0374 63.8901 47.1913L63.75 45.8707C63.75 45.0007 61.158 43.1968 60.75 41.0007C60.4663 39.4736 61.1738 37.416 61.0258 37.033C61.0258 37.033 60.9751 37.0044 60.99 37.0007C61.0045 36.997 61.0163 37.0084 61.0258 37.033C61.1384 37.0858 61.9481 37.3602 61.9481 37.3602C63.8959 38.0203 66.9771 39.0993 69.75 41.0007C71.4084 42.1378 73.6911 44.3144 73.6911 44.3144C73.6911 44.3144 75.3358 45.5864 75.75 46.0007C76.75 47.0007 79.75 50.0007 81.75 50.0007H86.75L89 51.5907L89.5 54.8007C89.5 62.7007 83 69.1007 75.1 69.1007H18.5C18.5 69.1007 23 64 29.5 64Z" fill="url(#paint1_radial_149_1459)"/>
</g>
<g clip-path="url(#clip0_149_1459)">
<path d="M26.7 81.5H23.9L25.3 79C25.7 78.4 25.5 77.5 24.8 77.2C24.1 76.8 23.3 77 22.9 77.7L21.5 80.1L20.1 77.7C19.7 77 18.9 76.8 18.3 77.2C17.9 77.4 17.7 77.7 17.6 78C17.5 78.3 17.6 78.7 17.7 79L19.1 81.4H16.4C15.6 81.5 15 82.1 15 82.8C15 83.5 15.6 84.2 16.4 84.2H19.2L17.8 86.6C17.6 86.9 17.6 87.3 17.7 87.6C17.8 87.9 18 88.2 18.3 88.4C18.9 88.8 19.8 88.5 20.1 87.9L21.5 85.5L22.9 88C23.1 88.4 23.6 88.7 24.1 88.7C24.3 88.7 24.6 88.6 24.8 88.5C25.4 88.1 25.7 87.3 25.3 86.7L23.9 84.2H26.7C27.4 84.2 28.1 83.6 28.1 82.8C28.1 82 27.4 81.5 26.7 81.5Z" fill="#00B8F1"/>
</g>
<g clip-path="url(#clip1_149_1459)">
<path d="M69.7 90.5H66.9L68.3 88C68.7 87.4 68.5 86.5 67.8 86.2C67.1 85.8 66.3 86 65.9 86.7L64.5 89.1L63.1 86.7C62.7 86 61.9 85.8 61.3 86.2C60.9 86.4 60.7 86.7 60.6 87C60.5 87.3 60.6 87.7 60.7 88L62.1 90.4H59.4C58.6 90.5 58 91.1 58 91.8C58 92.5 58.6 93.2 59.4 93.2H62.2L60.8 95.6C60.6 95.9 60.6 96.3 60.7 96.6C60.8 96.9 61 97.2 61.3 97.4C61.9 97.8 62.8 97.5 63.1 96.9L64.5 94.5L65.9 97C66.1 97.4 66.6 97.7 67.1 97.7C67.3 97.7 67.6 97.6 67.8 97.5C68.4 97.1 68.7 96.3 68.3 95.7L66.9 93.2H69.7C70.4 93.2 71.1 92.6 71.1 91.8C71.1 91 70.4 90.5 69.7 90.5Z" fill="#00B8F1"/>
</g>
<path d="M34.2905 99.254L34.3156 99.2656L34.3419 99.2744C34.6557 99.379 35.1176 99.5 35.5 99.5C36.6717 99.5 37.773 98.9047 38.2611 97.6934L41.7581 89.7004L41.7626 89.6901L41.7667 89.6795C42.3547 88.1507 41.7651 86.464 40.2095 85.746L40.1947 85.7392L40.1795 85.7334C38.6507 85.1453 36.964 85.735 36.246 87.2905L36.2459 87.2905L36.2419 87.2996L32.7419 95.2996L32.7374 95.31L32.7333 95.3205C32.1453 96.8494 32.7349 98.5361 34.2905 99.254Z" fill="#006EDB" stroke="white"/>
<path d="M49.2905 91.254L49.3156 91.2656L49.3419 91.2744C49.6557 91.379 50.1176 91.5 50.5 91.5C51.6717 91.5 52.773 90.9047 53.2611 89.6934L56.7581 81.7004L56.7626 81.6901L56.7667 81.6795C57.3547 80.1507 56.7651 78.464 55.2095 77.746L55.1947 77.7392L55.1795 77.7334C53.6507 77.1453 51.964 77.735 51.246 79.2905L51.2459 79.2905L51.2419 79.2996L47.7419 87.2996L47.7374 87.31L47.7333 87.3205C47.1453 88.8494 47.7349 90.5361 49.2905 91.254Z" fill="#006EDB" stroke="white"/>
<path d="M77.2905 91.254L77.3156 91.2656L77.3419 91.2744C77.6557 91.379 78.1176 91.5 78.5 91.5C79.6717 91.5 80.773 90.9047 81.2611 89.6934L84.7581 81.7004L84.7626 81.6901L84.7667 81.6795C85.3547 80.1507 84.7651 78.464 83.2095 77.746L83.1947 77.7392L83.1795 77.7334C81.6507 77.1453 79.964 77.735 79.246 79.2905L79.2459 79.2905L79.2419 79.2996L75.7419 87.2996L75.7374 87.31L75.7333 87.3205C75.1453 88.8494 75.7349 90.5361 77.2905 91.254Z" fill="#006EDB" stroke="white"/>
<defs>
<filter id="filter0_f_149_1459" x="14.5" y="33" width="79" height="40.1006" filterUnits="userSpaceOnUse" color-interpolation-filters="sRGB">
<feFlood flood-opacity="0" result="BackgroundImageFix"/>
<feBlend mode="normal" in="SourceGraphic" in2="BackgroundImageFix" result="shape"/>
<feGaussianBlur stdDeviation="2" result="effect1_foregroundBlur_149_1459"/>
</filter>
<linearGradient id="paint0_linear_149_1459" x1="47.5" y1="38.5" x2="49.5" y2="71.1" gradientUnits="userSpaceOnUse">
<stop offset="0.484375" stop-color="white" stop-opacity="0"/>
<stop offset="1" stop-color="#B3B2B2"/>
</linearGradient>
<radialGradient id="paint1_radial_149_1459" cx="0" cy="0" r="1" gradientUnits="userSpaceOnUse" gradientTransform="translate(68 41) rotate(75.0686) scale(23.2863 33.7318)">
<stop stop-color="#D5D5D5"/>
<stop offset="1" stop-color="#D0D0D0"/>
<stop offset="1" stop-color="#9B9B9B" stop-opacity="0"/>
</radialGradient>
<clipPath id="clip0_149_1459">
<rect width="13" height="11.6" fill="white" transform="translate(15 77)"/>
</clipPath>
<clipPath id="clip1_149_1459">
<rect width="13" height="11.6" fill="white" transform="translate(58 86)"/>
</clipPath>
</defs>
</svg>
