<?xml version="1.0" encoding="utf-8"?>
<!-- Generator: Adobe Illustrator 17.1.0, SVG Export Plug-In . SVG Version: 6.00 Build 0)  -->
<!DOCTYPE svg PUBLIC "-//W3C//DTD SVG 1.1//EN" "http://www.w3.org/Graphics/SVG/1.1/DTD/svg11.dtd">
<svg version="1.1" id="Layer_1" xmlns="http://www.w3.org/2000/svg" xmlns:xlink="http://www.w3.org/1999/xlink" x="0px" y="0px"
	 viewBox="0 0 100 100" enable-background="new 0 0 100 100" xml:space="preserve">
<path d="M93.7,33.7c-1.1-7-6-14.8-16.1-16.7C74.9,6.9,66.5,0.3,55.7,0c-0.3,0-0.5,0-0.8,0C44.5,0,36.2,5.7,32.8,15.1
	c-0.5,0-0.9-0.1-1.4-0.1c-6.5,0-14.2,3.9-16.6,11.2C5.9,26.9,0,34.5,0,41.6C0,52,7.8,58,21.5,58h43.6c5.6,0,13.4-0.5,18.2-2.8
	C91,51.5,95.2,42.8,93.7,33.7z"/>
</svg>
