<?xml version="1.0" encoding="utf-8"?>
<!-- Generator: Adobe Illustrator 17.1.0, SVG Export Plug-In . SVG Version: 6.00 Build 0)  -->
<!DOCTYPE svg PUBLIC "-//W3C//DTD SVG 1.1//EN" "http://www.w3.org/Graphics/SVG/1.1/DTD/svg11.dtd">
<svg version="1.1" id="Layer_1" xmlns="http://www.w3.org/2000/svg" xmlns:xlink="http://www.w3.org/1999/xlink" x="0px" y="0px"
	 viewBox="0 0 100 100" enable-background="new 0 0 100 100" xml:space="preserve">
<path fill="#FFFFFF" d="M18,9c0,5-4,9-9,9c-5,0-9-4-9-9c0-5,4-9,9-9C14,0,18,4,18,9z"/>
<path d="M19.9,16.6c-1.8,2.3-3.4,5.5-3.9,8.9c-0.1,0.5-0.6,0.7-1,0.4c-2.3-2.1-4.8-3.3-8.5-3.8c-0.4-0.1-0.6-0.5-0.4-0.8
	C8.4,17,8.6,10.1,7.8,5c2.7,4.2,7.1,9,11.8,10.7C20,15.8,20.1,16.3,19.9,16.6z"/>
</svg>
