<svg viewBox="0 0 100 100" xmlns="http://www.w3.org/2000/svg" xmlns:xlink="http://www.w3.org/1999/xlink"><style>.sun-primitive{color:#ffee8a;fill:#ffaf22;stroke:#ffaf22}</style><symbol id="sunWinter"><path fill="currentColor" opacity=".5" stroke-width="0" stroke-opacity="0" d="M85.5 1.8c0 22.4-18.1 40.5-40.5 40.5S4.5 24.2 4.5 1.8h81z"/><path fill="currentColor" opacity=".95" stroke-width="0" stroke-opacity="0" d="M79 1.8c0 18.8-15.2 34-34 34s-34-15.2-34-34h68z"/><path stroke-width="2" stroke-miterlimit="10" d="M73.4 1.8c0 15.7-12.7 28.4-28.3 28.4S16.7 17.5 16.7 1.8h56.7z"/><path fill="#333" stroke-width="0" d="M88.3 2.7H1.7C.8 2.7 0 2.1 0 1.4S.8 0 1.7 0h86.6c.9 0 1.7.6 1.7 1.4s-.8 1.3-1.7 1.3z"/></symbol><use xlink:href="#sunWinter" class="sun-primitive" width="100" height="100" transform="translate(5 37)"/></svg>