<svg x="0" y="0" viewBox="0 0 100 100" xmlns="http://www.w3.org/2000/svg" xmlns:xlink="http://www.w3.org/1999/xlink"><style type="text/css"><![CDATA[.sun-primitive {
  color: #ffee8a;
  fill: #fbbe40;
  stroke: #f5b93f;
}]]></style><symbol id="sunWinter">
		<path fill="currentColor" opacity="0.5" stroke-width="0" stroke-opacity="0" d="M85.5,1.8c0,22.4-18.1,40.5-40.5,40.5S4.5,24.2,4.5,1.8H85.5z"/>
		<path fill="currentColor" opacity="0.95" stroke-width="0" stroke-opacity="0" d="M79,1.8c0,18.8-15.2,34-34,34s-34-15.2-34-34H79z"/>
		<path stroke-width="2" stroke-miterlimit="10" d="M73.4,1.8c0,15.7-12.7,28.4-28.3,28.4S16.7,17.5,16.7,1.8H73.4z"/>
		<path fill="#333333" stroke-width="0" d="M88.3,2.7H1.7C0.8,2.7,0,2.1,0,1.4S0.8,0,1.7,0h86.6C89.2,0,90,0.6,90,1.4S89.2,2.7,88.3,2.7z"/>
	</symbol><use class="sun-primitive" xlink:href="#sunWinter" x="0" y="0" width="100" height="100" transform="translate(5,37) scale(1, 1)"></use></svg>