<?xml version="1.0" encoding="utf-8"?>
<!-- Generator: Adobe Illustrator 17.1.0, SVG Export Plug-In . SVG Version: 6.00 Build 0)  -->
<!DOCTYPE svg PUBLIC "-//W3C//DTD SVG 1.1//EN" "http://www.w3.org/Graphics/SVG/1.1/DTD/svg11.dtd">
<svg version="1.1" id="symbol" xmlns="http://www.w3.org/2000/svg" xmlns:xlink="http://www.w3.org/1999/xlink" x="0px" y="0px"
	 viewBox="0 0 100 100" style="enable-background:new 0 0 100 100;" xml:space="preserve">
<style type="text/css">
	.st0{clip-path:url(#SVGID_2_);fill:#E88D15;}
	.st1{clip-path:url(#SVGID_2_);fill:#FABA2F;}
	.st2{fill:#4D4D4D;}
	.st3{fill:#E6E6E6;}
	.st4{fill:#E88D15;}
	.st5{fill:#FABA2F;}
	.st6{clip-path:url(#SVGID_4_);fill:#E88D15;}
	.st7{clip-path:url(#SVGID_4_);fill:#FABA2F;}
	.st8{clip-path:url(#SVGID_6_);fill:#FABA2F;}
	.st9{clip-path:url(#SVGID_6_);fill:#E88D15;}
	.st10{display:none;}
	.st11{display:inline;fill:#E6E6E6;stroke:#FFFFFF;stroke-width:4;stroke-miterlimit:10;}
	.st12{fill:#AFC1C9;}
	.st13{fill:#D9D9D9;}
	.st14{fill:#B3B3B3;}
	.st15{fill:#1671CC;}
	.st16{clip-path:url(#SVGID_8_);fill:#E88D15;}
	.st17{clip-path:url(#SVGID_8_);fill:#FABA2F;}
	.st18{fill:#999999;}
	.st19{clip-path:url(#SVGID_10_);fill:#E88D15;}
	.st20{clip-path:url(#SVGID_10_);fill:#FABA2F;}
	.st21{fill:#808080;}
	.st22{clip-path:url(#SVGID_12_);fill:#E88D15;}
	.st23{clip-path:url(#SVGID_12_);fill:#FABA2F;}
	.st24{fill:#1EB9D8;}
	.st25{clip-path:url(#SVGID_14_);fill:#E88D15;}
	.st26{clip-path:url(#SVGID_14_);fill:#FABA2F;}
	.st27{clip-path:url(#SVGID_16_);fill:#E88D15;}
	.st28{clip-path:url(#SVGID_16_);fill:#FABA2F;}
	.st29{clip-path:url(#SVGID_18_);fill:#E88D15;}
	.st30{clip-path:url(#SVGID_18_);fill:#FABA2F;}
	.st31{fill:#54BFE3;}
	.st32{clip-path:url(#SVGID_20_);fill:#E88D15;}
	.st33{clip-path:url(#SVGID_20_);fill:#FABA2F;}
	.st34{clip-path:url(#SVGID_22_);fill:#E88D15;}
	.st35{clip-path:url(#SVGID_22_);fill:#FABA2F;}
	.st36{clip-path:url(#SVGID_24_);fill:#E88D15;}
	.st37{clip-path:url(#SVGID_24_);fill:#FABA2F;}
	.st38{fill:#C9AF16;}
	.st39{clip-path:url(#SVGID_26_);fill:#E88D15;}
	.st40{clip-path:url(#SVGID_26_);fill:#FABA2F;}
	.st41{clip-path:url(#SVGID_28_);fill:#E88D15;}
	.st42{clip-path:url(#SVGID_28_);fill:#FABA2F;}
	.st43{clip-path:url(#SVGID_30_);fill:#E88D15;}
	.st44{clip-path:url(#SVGID_30_);fill:#FABA2F;}
	.st45{clip-path:url(#SVGID_32_);fill:#E88D15;}
	.st46{clip-path:url(#SVGID_32_);fill:#FABA2F;}
	.st47{clip-path:url(#SVGID_34_);fill:#E88D15;}
	.st48{clip-path:url(#SVGID_34_);fill:#FABA2F;}
	.st49{clip-path:url(#SVGID_36_);fill:#E88D15;}
	.st50{clip-path:url(#SVGID_36_);fill:#FABA2F;}
	.st51{clip-path:url(#SVGID_38_);fill:#E88D15;}
	.st52{clip-path:url(#SVGID_38_);fill:#FABA2F;}
	.st53{clip-path:url(#SVGID_40_);fill:#E88D15;}
	.st54{clip-path:url(#SVGID_40_);fill:#FABA2F;}
	.st55{clip-path:url(#SVGID_42_);fill:#E88D15;}
	.st56{clip-path:url(#SVGID_42_);fill:#FABA2F;}
</style>
<g id="sun-winter">
</g>
<g id="sun">
	<g>
		<g>
			<path class="st4" d="M28.6,38.3c2.2-4.1,5.6-7.5,9.7-9.7l-17-10c-1.8-1-3.8,1-2.7,2.7L28.6,38.3z"/>
			<path class="st4" d="M50.1,25.6c2.4,0,4.7,0.3,6.9,1L52,7.5c-0.5-2-3.3-2-3.9,0l-5,19.1C45.4,25.9,47.7,25.6,50.1,25.6z"/>
			<path class="st4" d="M92.6,48.1l-19.1-5c0.6,2.2,1,4.5,1,6.9c0,2.4-0.3,4.7-1,6.9l19.1-5C94.6,51.5,94.6,48.7,92.6,48.1z"/>
			<path class="st4" d="M25.6,50.1c0-2.4,0.3-4.7,1-6.9l-19.1,5c-2,0.5-2,3.3,0,3.9l19.1,5C25.9,54.8,25.6,52.5,25.6,50.1z"/>
			<path class="st4" d="M71.6,38.3l10-17c1-1.8-1-3.8-2.7-2.7l-17,10C65.9,30.8,69.3,34.2,71.6,38.3z"/>
			<path class="st4" d="M71.6,61.8c-2.2,4.1-5.6,7.5-9.7,9.7l17,10c1.8,1,3.8-1,2.7-2.7L71.6,61.8z"/>
			<path class="st5" d="M34.4,55c7.1,0,11,3.5,13,9c3.9-0.3,8.1,1.7,10,5.2c7.6-3,13-10.4,13-19.1c0-11.3-9.2-20.5-20.5-20.5
				c-11.3,0-20.5,9.2-20.5,20.5c0,1.9,0.3,3.7,0.8,5.5C31.6,55.2,33,55,34.4,55z"/>
			<path class="st4" d="M47.4,90l0.7,2.6c0.5,2,3.3,2,3.9,0l0.7-2.6H47.4z"/>
		</g>
	</g>
</g>
<path id="cloud1" class="st3" d="M22.5,67c1.2-7.4,6.8-10,11.8-10c5.4,0,10.2,3.3,11.7,9.5c4.8-1.6,10.3,1.8,10.6,6.4
	c2.2-0.5,8.5,1.2,8.5,7.2c0,6.2-5.8,7.9-10.6,7.9H28.1c-4.5,0-8-0.9-9.9-1.8c-4.3-2.1-5.6-6.9-5-10.6C13.7,72,16.3,67.5,22.5,67z"/>
<g id="lightning_16_">
</g>
<g id="sleet_29_">
</g>
<g id="sleet_28_">
</g>
</svg>
