<?xml version="1.0" encoding="utf-8"?>
<!-- Generator: Adobe Illustrator 17.1.0, SVG Export Plug-In . SVG Version: 6.00 Build 0)  -->
<!DOCTYPE svg PUBLIC "-//W3C//DTD SVG 1.1//EN" "http://www.w3.org/Graphics/SVG/1.1/DTD/svg11.dtd">
<svg version="1.1" id="symbol" xmlns="http://www.w3.org/2000/svg" xmlns:xlink="http://www.w3.org/1999/xlink" x="0px" y="0px"
	 viewBox="0 0 100 100" style="enable-background:new 0 0 100 100;" xml:space="preserve">
<style type="text/css">
	.st0{fill:#E6E6E6;stroke:#FFFFFF;stroke-width:4;stroke-miterlimit:10;}
	.st1{clip-path:url(#SVGID_2_);fill:#E88D15;}
	.st2{clip-path:url(#SVGID_2_);fill:#FABA2F;}
	.st3{fill:#4D4D4D;}
	.st4{fill:#E6E6E6;}
	.st5{fill:#E88D15;}
	.st6{fill:#FABA2F;}
	.st7{clip-path:url(#SVGID_4_);fill:#E88D15;}
	.st8{clip-path:url(#SVGID_4_);fill:#FABA2F;}
	.st9{clip-path:url(#SVGID_6_);fill:#FABA2F;}
	.st10{clip-path:url(#SVGID_6_);fill:#E88D15;}
	.st11{fill:#AFC1C9;}
	.st12{fill:#D9D9D9;}
	.st13{fill:#B3B3B3;}
	.st14{fill:#1671CC;}
	.st15{clip-path:url(#SVGID_8_);fill:#E88D15;}
	.st16{clip-path:url(#SVGID_8_);fill:#FABA2F;}
	.st17{fill:#999999;}
	.st18{clip-path:url(#SVGID_10_);fill:#E88D15;}
	.st19{clip-path:url(#SVGID_10_);fill:#FABA2F;}
	.st20{fill:#808080;}
	.st21{clip-path:url(#SVGID_12_);fill:#E88D15;}
	.st22{clip-path:url(#SVGID_12_);fill:#FABA2F;}
	.st23{fill:#1EB9D8;}
	.st24{clip-path:url(#SVGID_14_);fill:#E88D15;}
	.st25{clip-path:url(#SVGID_14_);fill:#FABA2F;}
	.st26{clip-path:url(#SVGID_16_);fill:#E88D15;}
	.st27{clip-path:url(#SVGID_16_);fill:#FABA2F;}
	.st28{clip-path:url(#SVGID_18_);fill:#E88D15;}
	.st29{clip-path:url(#SVGID_18_);fill:#FABA2F;}
	.st30{fill:#54BFE3;}
	.st31{clip-path:url(#SVGID_20_);fill:#E88D15;}
	.st32{clip-path:url(#SVGID_20_);fill:#FABA2F;}
	.st33{clip-path:url(#SVGID_22_);fill:#E88D15;}
	.st34{clip-path:url(#SVGID_22_);fill:#FABA2F;}
	.st35{clip-path:url(#SVGID_24_);fill:#E88D15;}
	.st36{clip-path:url(#SVGID_24_);fill:#FABA2F;}
	.st37{fill:#C9AF16;}
	.st38{clip-path:url(#SVGID_26_);fill:#E88D15;}
	.st39{clip-path:url(#SVGID_26_);fill:#FABA2F;}
	.st40{clip-path:url(#SVGID_28_);fill:#E88D15;}
	.st41{clip-path:url(#SVGID_28_);fill:#FABA2F;}
	.st42{clip-path:url(#SVGID_30_);fill:#E88D15;}
	.st43{clip-path:url(#SVGID_30_);fill:#FABA2F;}
	.st44{clip-path:url(#SVGID_32_);fill:#E88D15;}
	.st45{clip-path:url(#SVGID_32_);fill:#FABA2F;}
	.st46{clip-path:url(#SVGID_34_);fill:#E88D15;}
	.st47{clip-path:url(#SVGID_34_);fill:#FABA2F;}
	.st48{clip-path:url(#SVGID_36_);fill:#E88D15;}
	.st49{clip-path:url(#SVGID_36_);fill:#FABA2F;}
	.st50{clip-path:url(#SVGID_38_);fill:#E88D15;}
	.st51{clip-path:url(#SVGID_38_);fill:#FABA2F;}
	.st52{clip-path:url(#SVGID_40_);fill:#E88D15;}
	.st53{clip-path:url(#SVGID_40_);fill:#FABA2F;}
	.st54{clip-path:url(#SVGID_42_);fill:#E88D15;}
	.st55{clip-path:url(#SVGID_42_);fill:#FABA2F;}
</style>
<symbol  id="cloud1_7_" viewBox="-2 -56 94 58">
	<path class="st0" d="M53.6,0C44,0.3,35.1-5,32.1-15.3c-6.1,1.5-16-2.4-17.8-10.9C8.1-26,0-31.1,0-39.6C0-49,7-54,19.5-54h43.6
		c5.6,0,12.9,0.5,17.3,2.6c14.9,7.2,12.3,32.3-6.4,34.6C71.7-5.9,63.1-0.3,53.6,0z"/>
</symbol>
<g id="sun-winter">
</g>
<g id="sun-winter_2_">
	<g>
		<defs>
			<rect id="SVGID_3_" x="8" y="23.8" width="54" height="27"/>
		</defs>
		<clipPath id="SVGID_2_">
			<use xlink:href="#SVGID_3_"  style="overflow:visible;"/>
		</clipPath>
		<path class="st1" d="M20.3,23.8c0-1.4,0.2-2.8,0.6-4.1l-11.4,3c-1.2,0.3-1.2,2,0,2.3l11.4,3C20.6,26.7,20.3,25.3,20.3,23.8z"/>
		<path class="st1" d="M22.1,30.9l-6,10.2c-0.6,1.1,0.6,2.3,1.6,1.6l10.2-6C25.5,35.4,23.5,33.4,22.1,30.9z"/>
		<path class="st2" d="M35,36.1c0.3,0,0.6,0,0.9,0c0.1,0,0.2,0,0.3,0c1-0.1,1.9-0.3,2.7-0.6c1.8-4.7,4.5-8.4,8.3-10.9
			c0-0.2,0-0.5,0-0.7c0-6.8-5.5-12.3-12.3-12.3c-6.8,0-12.3,5.5-12.3,12.3C22.7,30.6,28.2,36.1,35,36.1z"/>
	</g>
	<path class="st3" d="M9.5,21.4h46.2c1.5-0.3,3.2-0.4,5-0.4c0.3,0,0.6,0,0.9,0c0.3-0.2,0.4-0.5,0.4-0.8v0c0-0.7-0.7-1.2-1.5-1.2h-51
		C8.7,19,8,19.5,8,20.2v0C8,20.9,8.7,21.4,9.5,21.4z"/>
</g>
<use xlink:href="#cloud1_7_"  width="94" height="58" id="XMLID_14_" x="-2" y="-56" transform="matrix(1 0 0 -1 8 23)" style="display:none;overflow:visible;"/>
<path id="cloud1_4_" class="st4" d="M80.3,41.6C78.4,29.3,69.1,25,60.9,25c-9,0-16.9,5.4-19.3,15.7c-7.9-2.6-17,2.9-17.5,10.6
	c-3.7-0.8-14,1.3-14,11.3C10,72.9,19.5,75,27.5,75h43.6c7.4,0,13.2-0.8,16.4-2.4c7.1-3.4,9.3-11.1,8.3-17.3
	C94.8,49.5,90.6,42.3,80.3,41.6z"/>
<g id="lightning_16_">
</g>
<g id="sleet_29_">
</g>
<g id="sleet_28_">
</g>
</svg>
