<?xml version="1.0" encoding="utf-8"?>
<!-- Generator: Adobe Illustrator 17.1.0, SVG Export Plug-In . SVG Version: 6.00 Build 0)  -->
<!DOCTYPE svg PUBLIC "-//W3C//DTD SVG 1.1//EN" "http://www.w3.org/Graphics/SVG/1.1/DTD/svg11.dtd">
<svg version="1.1" id="symbol" xmlns="http://www.w3.org/2000/svg" xmlns:xlink="http://www.w3.org/1999/xlink" x="0px" y="0px"
	 viewBox="0 0 100 100" style="enable-background:new 0 0 100 100;" xml:space="preserve">
<style type="text/css">
	.st0{clip-path:url(#SVGID_2_);fill:#E88D15;}
	.st1{clip-path:url(#SVGID_2_);fill:#FABA2F;}
	.st2{fill:#4D4D4D;}
	.st3{fill:#E6E6E6;}
	.st4{fill:#E88D15;}
	.st5{fill:#FABA2F;}
	.st6{clip-path:url(#SVGID_4_);fill:#E88D15;}
	.st7{clip-path:url(#SVGID_4_);fill:#FABA2F;}
	.st8{clip-path:url(#SVGID_6_);fill:#FABA2F;}
	.st9{clip-path:url(#SVGID_6_);fill:#E88D15;}
	.st10{display:none;}
	.st11{display:inline;fill:#E6E6E6;stroke:#FFFFFF;stroke-width:4;stroke-miterlimit:10;}
	.st12{fill:#AFC1C9;}
	.st13{fill:#D9D9D9;}
	.st14{fill:#B3B3B3;}
	.st15{fill:#1671CC;}
	.st16{clip-path:url(#SVGID_8_);fill:#E88D15;}
	.st17{clip-path:url(#SVGID_8_);fill:#FABA2F;}
	.st18{fill:#999999;}
	.st19{clip-path:url(#SVGID_10_);fill:#E88D15;}
	.st20{clip-path:url(#SVGID_10_);fill:#FABA2F;}
	.st21{fill:#808080;}
	.st22{clip-path:url(#SVGID_12_);fill:#E88D15;}
	.st23{clip-path:url(#SVGID_12_);fill:#FABA2F;}
	.st24{fill:#1EB9D8;}
	.st25{clip-path:url(#SVGID_14_);fill:#E88D15;}
	.st26{clip-path:url(#SVGID_14_);fill:#FABA2F;}
	.st27{clip-path:url(#SVGID_16_);fill:#E88D15;}
	.st28{clip-path:url(#SVGID_16_);fill:#FABA2F;}
	.st29{clip-path:url(#SVGID_18_);fill:#E88D15;}
	.st30{clip-path:url(#SVGID_18_);fill:#FABA2F;}
	.st31{fill:#54BFE3;}
	.st32{clip-path:url(#SVGID_20_);fill:#E88D15;}
	.st33{clip-path:url(#SVGID_20_);fill:#FABA2F;}
	.st34{clip-path:url(#SVGID_22_);fill:#E88D15;}
	.st35{clip-path:url(#SVGID_22_);fill:#FABA2F;}
	.st36{clip-path:url(#SVGID_24_);fill:#E88D15;}
	.st37{clip-path:url(#SVGID_24_);fill:#FABA2F;}
	.st38{fill:#C9AF16;}
	.st39{clip-path:url(#SVGID_26_);fill:#E88D15;}
	.st40{clip-path:url(#SVGID_26_);fill:#FABA2F;}
	.st41{clip-path:url(#SVGID_28_);fill:#E88D15;}
	.st42{clip-path:url(#SVGID_28_);fill:#FABA2F;}
	.st43{clip-path:url(#SVGID_30_);fill:#E88D15;}
	.st44{clip-path:url(#SVGID_30_);fill:#FABA2F;}
	.st45{clip-path:url(#SVGID_32_);fill:#E88D15;}
	.st46{clip-path:url(#SVGID_32_);fill:#FABA2F;}
	.st47{clip-path:url(#SVGID_34_);fill:#E88D15;}
	.st48{clip-path:url(#SVGID_34_);fill:#FABA2F;}
	.st49{clip-path:url(#SVGID_36_);fill:#E88D15;}
	.st50{clip-path:url(#SVGID_36_);fill:#FABA2F;}
	.st51{clip-path:url(#SVGID_38_);fill:#E88D15;}
	.st52{clip-path:url(#SVGID_38_);fill:#FABA2F;}
	.st53{clip-path:url(#SVGID_40_);fill:#E88D15;}
	.st54{clip-path:url(#SVGID_40_);fill:#FABA2F;}
	.st55{clip-path:url(#SVGID_42_);fill:#E88D15;}
	.st56{clip-path:url(#SVGID_42_);fill:#FABA2F;}
</style>
<g id="sun-winter">
</g>
<path id="sleet_5_" class="st24" d="M74.9,88.6c-1.8,2.3-3.4,5.5-3.9,8.9c-0.1,0.5-0.6,0.7-1,0.4c-2.3-2.1-4.8-3.3-8.5-3.8
	c-0.4-0.1-0.6-0.5-0.4-0.8c2.3-4.2,2.5-11.1,1.8-16.2c2.7,4.2,7.1,9,11.8,10.7C75,87.8,75.1,88.3,74.9,88.6z"/>
<path id="sleet_4_" class="st24" d="M58.9,84.6c-1.8,2.3-3.4,5.5-3.9,8.9c-0.1,0.5-0.6,0.7-1,0.4c-2.3-2.1-4.8-3.3-8.5-3.8
	c-0.4-0.1-0.6-0.5-0.4-0.8c2.3-4.2,2.5-11.1,1.8-16.2c2.7,4.2,7.1,9,11.8,10.7C59,83.8,59.1,84.3,58.9,84.6z"/>
<path id="cloud4_5_" class="st18" d="M95.8,55.3c-1-5.8-5.2-13-15.5-13.7C78.4,29.3,69.1,25,60.9,25c-9,0-16.9,5.4-19.3,15.7
	c-7.9-2.6-17,2.9-17.5,10.6c-3.7-0.8-14,1.3-14,11.3C10,72.9,19.5,75,27.5,75h11.7c0.9-4,4.5-7,8.8-7c4.3,0,7.9,3,8.8,7h0.5
	c1.6-1.8,4-3,6.7-3c2.7,0,5,1.2,6.7,3h0.4c7.4,0,13.2-0.8,16.4-2.4C94.6,69.2,96.8,61.5,95.8,55.3z"/>
<g id="sun_7_">
	<path class="st4" d="M17.5,26.4c1.3-2.5,3.4-4.5,5.8-5.8l-10.2-6c-1.1-0.6-2.3,0.6-1.6,1.6L17.5,26.4z"/>
	<path class="st4" d="M30.4,18.7c1.4,0,2.8,0.2,4.1,0.6l-3-11.4c-0.3-1.2-2-1.2-2.3,0l-3,11.4C27.6,19,29,18.7,30.4,18.7z"/>
	<path class="st4" d="M15.7,33.4c0-1.4,0.2-2.8,0.6-4.1l-11.4,3c-1.2,0.3-1.2,2,0,2.3l11.4,3C16,36.3,15.7,34.9,15.7,33.4z"/>
	<path class="st4" d="M43.3,26.4l6-10.2c0.6-1.1-0.6-2.3-1.6-1.6l-10.2,6C40,21.9,42,23.9,43.3,26.4z"/>
	<path class="st5" d="M22.9,43.2c3.6-4.8,9.9-7.6,15.8-7.1c0.9-2.4,2-4.6,3.3-6.5c-1.6-4.9-6.2-8.4-11.7-8.4
		c-6.8,0-12.3,5.5-12.3,12.3C18.1,37.4,20,40.9,22.9,43.2z"/>
	<path class="st4" d="M20.8,47.2c0.2-0.7,0.5-1.4,0.9-2c-1.7-1.3-3.1-2.9-4.1-4.7l-6,10.2c-0.1,0.2-0.1,0.3-0.2,0.5
		C13.9,49,17.1,47.5,20.8,47.2z"/>
</g>
<g id="lightning_16_">
</g>
<g id="sleet_29_">
</g>
<g id="sleet_28_">
</g>
</svg>
