<?xml version="1.0" encoding="utf-8"?>
<!-- Generator: Adobe Illustrator 17.1.0, SVG Export Plug-In . SVG Version: 6.00 Build 0)  -->
<!DOCTYPE svg PUBLIC "-//W3C//DTD SVG 1.1//EN" "http://www.w3.org/Graphics/SVG/1.1/DTD/svg11.dtd">
<svg version="1.1" id="symbol" xmlns="http://www.w3.org/2000/svg" xmlns:xlink="http://www.w3.org/1999/xlink" x="0px" y="0px"
	 viewBox="0 0 100 100" style="enable-background:new 0 0 100 100;" xml:space="preserve">
<style type="text/css">
	.st0{fill:#D9D9D9;}
	.st1{clip-path:url(#SVGID_2_);fill:#E88D15;}
	.st2{clip-path:url(#SVGID_2_);fill:#FABA2F;}
	.st3{fill:#4D4D4D;}
	.st4{fill:#E6E6E6;}
	.st5{fill:#E88D15;}
	.st6{fill:#FABA2F;}
	.st7{clip-path:url(#SVGID_4_);fill:#E88D15;}
	.st8{clip-path:url(#SVGID_4_);fill:#FABA2F;}
	.st9{clip-path:url(#SVGID_6_);fill:#FABA2F;}
	.st10{clip-path:url(#SVGID_6_);fill:#E88D15;}
	.st11{display:none;}
	.st12{display:inline;fill:#E6E6E6;stroke:#FFFFFF;stroke-width:4;stroke-miterlimit:10;}
	.st13{fill:#AFC1C9;}
	.st14{fill:#B3B3B3;}
	.st15{fill:#1671CC;}
	.st16{clip-path:url(#SVGID_8_);fill:#E88D15;}
	.st17{clip-path:url(#SVGID_8_);fill:#FABA2F;}
	.st18{fill:#999999;}
	.st19{clip-path:url(#SVGID_10_);fill:#E88D15;}
	.st20{clip-path:url(#SVGID_10_);fill:#FABA2F;}
	.st21{fill:#808080;}
	.st22{clip-path:url(#SVGID_12_);fill:#E88D15;}
	.st23{clip-path:url(#SVGID_12_);fill:#FABA2F;}
	.st24{fill:#1EB9D8;}
	.st25{clip-path:url(#SVGID_14_);fill:#E88D15;}
	.st26{clip-path:url(#SVGID_14_);fill:#FABA2F;}
	.st27{clip-path:url(#SVGID_16_);fill:#E88D15;}
	.st28{clip-path:url(#SVGID_16_);fill:#FABA2F;}
	.st29{clip-path:url(#SVGID_18_);fill:#E88D15;}
	.st30{clip-path:url(#SVGID_18_);fill:#FABA2F;}
	.st31{fill:#54BFE3;}
	.st32{clip-path:url(#SVGID_20_);fill:#E88D15;}
	.st33{clip-path:url(#SVGID_20_);fill:#FABA2F;}
	.st34{clip-path:url(#SVGID_22_);fill:#E88D15;}
	.st35{clip-path:url(#SVGID_22_);fill:#FABA2F;}
	.st36{clip-path:url(#SVGID_24_);fill:#E88D15;}
	.st37{clip-path:url(#SVGID_24_);fill:#FABA2F;}
	.st38{fill:#C9AF16;}
	.st39{clip-path:url(#SVGID_26_);fill:#E88D15;}
	.st40{clip-path:url(#SVGID_26_);fill:#FABA2F;}
	.st41{clip-path:url(#SVGID_28_);fill:#E88D15;}
	.st42{clip-path:url(#SVGID_28_);fill:#FABA2F;}
	.st43{clip-path:url(#SVGID_30_);fill:#E88D15;}
	.st44{clip-path:url(#SVGID_30_);fill:#FABA2F;}
	.st45{clip-path:url(#SVGID_32_);fill:#E88D15;}
	.st46{clip-path:url(#SVGID_32_);fill:#FABA2F;}
	.st47{clip-path:url(#SVGID_34_);fill:#E88D15;}
	.st48{clip-path:url(#SVGID_34_);fill:#FABA2F;}
	.st49{clip-path:url(#SVGID_36_);fill:#E88D15;}
	.st50{clip-path:url(#SVGID_36_);fill:#FABA2F;}
	.st51{clip-path:url(#SVGID_38_);fill:#E88D15;}
	.st52{clip-path:url(#SVGID_38_);fill:#FABA2F;}
	.st53{clip-path:url(#SVGID_40_);fill:#E88D15;}
	.st54{clip-path:url(#SVGID_40_);fill:#FABA2F;}
	.st55{clip-path:url(#SVGID_42_);fill:#E88D15;}
	.st56{clip-path:url(#SVGID_42_);fill:#FABA2F;}
</style>
<symbol  id="fog" viewBox="2 -62 86 62">
	<path class="st0" d="M84.3-42H4.7C3.2-42,2-42.9,2-44s1.2-2,2.7-2h79.7c1.5,0,2.7,0.9,2.7,2S85.8-42,84.3-42z"/>
	<path class="st0" d="M82.1-50H7.9C6.3-50,5-50.9,5-52c0-1.1,1.3-2,2.9-2h74.3c1.6,0,2.9,0.9,2.9,2C85-50.9,83.7-50,82.1-50z"/>
	<path class="st0" d="M82.1-58H12.9c-1.6,0-2.9-0.9-2.9-2s1.3-2,2.9-2h69.2c1.6,0,2.9,0.9,2.9,2S83.7-58,82.1-58z"/>
	<path class="st0" d="M53.2,0c-9.1,0.3-17.6-4.8-20.5-14.6c-5.9,1.4-15.3-2.3-17-10.4C10.2-24.9,3.2-29,2.1-36
		C2-37,2.7-37.9,3.7-37.9l82.3,0c1,0,1.8,0.7,1.9,1.7c1,8.9-4.1,18.7-15.2,20.1C70.5-5.6,62.2-0.3,53.2,0z"/>
</symbol>
<g id="sun-winter">
</g>
<use xlink:href="#fog"  width="86" height="62" id="XMLID_17_" x="2" y="-62" transform="matrix(1 0 0 -1 4 18)" style="overflow:visible;"/>
<g id="lightning_16_">
</g>
<g id="sleet_29_">
</g>
<g id="sleet_28_">
</g>
</svg>
