<?xml version="1.0" encoding="utf-8"?>
<!-- Generator: Adobe Illustrator 17.1.0, SVG Export Plug-In . SVG Version: 6.00 Build 0)  -->
<!DOCTYPE svg PUBLIC "-//W3C//DTD SVG 1.1//EN" "http://www.w3.org/Graphics/SVG/1.1/DTD/svg11.dtd">
<svg version="1.1" id="symbol" xmlns="http://www.w3.org/2000/svg" xmlns:xlink="http://www.w3.org/1999/xlink" x="0px" y="0px"
	 viewBox="0 0 100 100" style="enable-background:new 0 0 100 100;" xml:space="preserve">
<style type="text/css">
	.st0{clip-path:url(#SVGID_2_);fill:#E88D15;}
	.st1{clip-path:url(#SVGID_2_);fill:#FABA2F;}
	.st2{fill:#4D4D4D;}
	.st3{fill:#E6E6E6;}
	.st4{fill:#E88D15;}
	.st5{fill:#FABA2F;}
	.st6{clip-path:url(#SVGID_4_);fill:#E88D15;}
	.st7{clip-path:url(#SVGID_4_);fill:#FABA2F;}
	.st8{clip-path:url(#SVGID_6_);fill:#FABA2F;}
	.st9{clip-path:url(#SVGID_6_);fill:#E88D15;}
	.st10{display:none;}
	.st11{display:inline;fill:#E6E6E6;stroke:#FFFFFF;stroke-width:4;stroke-miterlimit:10;}
	.st12{fill:#AFC1C9;}
	.st13{fill:#D9D9D9;}
	.st14{fill:#B3B3B3;}
	.st15{fill:#1671CC;}
	.st16{clip-path:url(#SVGID_8_);fill:#E88D15;}
	.st17{clip-path:url(#SVGID_8_);fill:#FABA2F;}
	.st18{fill:#999999;}
	.st19{clip-path:url(#SVGID_10_);fill:#E88D15;}
	.st20{clip-path:url(#SVGID_10_);fill:#FABA2F;}
	.st21{fill:#808080;}
	.st22{clip-path:url(#SVGID_12_);fill:#E88D15;}
	.st23{clip-path:url(#SVGID_12_);fill:#FABA2F;}
	.st24{fill:#1EB9D8;}
	.st25{clip-path:url(#SVGID_14_);fill:#E88D15;}
	.st26{clip-path:url(#SVGID_14_);fill:#FABA2F;}
	.st27{clip-path:url(#SVGID_16_);fill:#E88D15;}
	.st28{clip-path:url(#SVGID_16_);fill:#FABA2F;}
	.st29{clip-path:url(#SVGID_18_);fill:#E88D15;}
	.st30{clip-path:url(#SVGID_18_);fill:#FABA2F;}
	.st31{fill:#54BFE3;}
	.st32{clip-path:url(#SVGID_20_);fill:#E88D15;}
	.st33{clip-path:url(#SVGID_20_);fill:#FABA2F;}
	.st34{clip-path:url(#SVGID_22_);fill:#E88D15;}
	.st35{clip-path:url(#SVGID_22_);fill:#FABA2F;}
	.st36{clip-path:url(#SVGID_24_);fill:#E88D15;}
	.st37{clip-path:url(#SVGID_24_);fill:#FABA2F;}
	.st38{fill:#C9AF16;}
	.st39{clip-path:url(#SVGID_26_);fill:#E88D15;}
	.st40{clip-path:url(#SVGID_26_);fill:#FABA2F;}
	.st41{clip-path:url(#SVGID_28_);fill:#E88D15;}
	.st42{clip-path:url(#SVGID_28_);fill:#FABA2F;}
	.st43{clip-path:url(#SVGID_30_);fill:#E88D15;}
	.st44{clip-path:url(#SVGID_30_);fill:#FABA2F;}
	.st45{clip-path:url(#SVGID_32_);fill:#E88D15;}
	.st46{clip-path:url(#SVGID_32_);fill:#FABA2F;}
	.st47{clip-path:url(#SVGID_34_);fill:#E88D15;}
	.st48{clip-path:url(#SVGID_34_);fill:#FABA2F;}
	.st49{clip-path:url(#SVGID_36_);fill:#E88D15;}
	.st50{clip-path:url(#SVGID_36_);fill:#FABA2F;}
	.st51{clip-path:url(#SVGID_38_);fill:#E88D15;}
	.st52{clip-path:url(#SVGID_38_);fill:#FABA2F;}
	.st53{clip-path:url(#SVGID_40_);fill:#E88D15;}
	.st54{clip-path:url(#SVGID_40_);fill:#FABA2F;}
	.st55{clip-path:url(#SVGID_42_);fill:#E88D15;}
	.st56{clip-path:url(#SVGID_42_);fill:#FABA2F;}
</style>
<g id="sun-winter">
</g>
<g id="lightning_16_">
</g>
<g id="sleet_29_">
</g>
<g id="sleet_28_">
</g>
<path id="cloud4_26_" class="st18" d="M95.8,55.3c-1-5.8-5.2-13-15.5-13.7C78.4,29.3,69.1,25,60.9,25c-9,0-16.9,5.4-19.3,15.7
	c-7.9-2.6-17,2.9-17.5,10.6c-3.7-0.8-14,1.3-14,11.3C10,72.9,19.5,75,27.5,75h18c1.6-2.4,4.4-4,7.5-4s5.9,1.6,7.5,4h2
	c1.2-3.5,4.6-6,8.5-6c3.8,0,7,2.3,8.3,5.6c3.5-0.4,6.3-1.1,8.2-2C94.6,69.2,96.8,61.5,95.8,55.3z"/>
<path id="snowflake_31_" class="st31" d="M50.2,77.9l1.1,3.8c-0.3,0.2-0.6,0.5-0.9,0.8c-0.3,0.3-0.5,0.6-0.7,0.9l-3.8-1
	c-0.8-0.2-1.6,0.3-1.8,1.1c-0.2,0.8,0.3,1.6,1.1,1.8l3.8,1c0,0.8,0.3,1.6,0.6,2.3l-2.7,2.8c-0.6,0.6-0.6,1.5,0,2.1
	c0.6,0.6,1.5,0.6,2.1,0l2.7-2.8c0.7,0.4,1.5,0.6,2.3,0.6l1,3.8c0.2,0.8,1,1.2,1.8,1c0.8-0.2,1.2-1,1-1.8l-1.1-3.8
	c0.3-0.2,0.7-0.4,1-0.7c0.3-0.3,0.5-0.6,0.7-1l3.8,1c0.8,0.2,1.6-0.3,1.8-1.1c0.2-0.8-0.3-1.6-1.1-1.8l-3.8-1c0-0.8-0.3-1.6-0.7-2.3
	l2.7-2.8c0.6-0.6,0.5-1.5,0-2.1c-0.6-0.6-1.5-0.6-2.1,0l-2.7,2.8c-0.7-0.4-1.5-0.6-2.3-0.6l-1-3.8c-0.2-0.8-1-1.2-1.8-1
	C50.5,76.3,50,77.1,50.2,77.9z M55.8,84.2c1,1,1,2.6,0,3.6c-1,1-2.6,1-3.6,0c-1-1-1-2.6,0-3.6C53.2,83.2,54.8,83.2,55.8,84.2z"/>
<path id="snowflake_30_" class="st31" d="M68.2,75.9l1.1,3.8c-0.3,0.2-0.6,0.5-0.9,0.8c-0.3,0.3-0.5,0.6-0.7,0.9l-3.8-1
	c-0.8-0.2-1.6,0.3-1.8,1.1c-0.2,0.8,0.3,1.6,1.1,1.8l3.8,1c0,0.8,0.3,1.6,0.6,2.3l-2.7,2.8c-0.6,0.6-0.6,1.5,0,2.1
	c0.6,0.6,1.5,0.6,2.1,0l2.7-2.8c0.7,0.4,1.5,0.6,2.3,0.6l1,3.8c0.2,0.8,1,1.2,1.8,1c0.8-0.2,1.2-1,1-1.8l-1.1-3.8
	c0.3-0.2,0.7-0.4,1-0.7c0.3-0.3,0.5-0.6,0.7-1l3.8,1c0.8,0.2,1.6-0.3,1.8-1.1c0.2-0.8-0.3-1.6-1.1-1.8l-3.8-1c0-0.8-0.3-1.6-0.7-2.3
	l2.7-2.8c0.6-0.6,0.5-1.5,0-2.1c-0.6-0.6-1.5-0.6-2.1,0l-2.7,2.8c-0.7-0.4-1.5-0.6-2.3-0.6l-1-3.8c-0.2-0.8-1-1.2-1.8-1
	C68.5,74.3,68,75.1,68.2,75.9z M73.8,82.2c1,1,1,2.6,0,3.6c-1,1-2.6,1-3.6,0c-1-1-1-2.6,0-3.6C71.2,81.2,72.8,81.2,73.8,82.2z"/>
<path id="lightning_30_" class="st38" d="M39.9,79H27.5c0,0-0.1,0-0.1,0l-4.2,8.2h8.3L19,100l25-16.9h-8.3L39.9,79z"/>
<g id="sun-winter_18_">
	<g>
		<defs>
			<rect id="SVGID_39_" x="8" y="23.8" width="54" height="27"/>
		</defs>
		<clipPath id="SVGID_2_">
			<use xlink:href="#SVGID_39_"  style="overflow:visible;"/>
		</clipPath>
		<path class="st0" d="M20.3,23.8c0-1.4,0.2-2.8,0.6-4.1l-11.4,3c-1.2,0.3-1.2,2,0,2.3l11.4,3C20.6,26.7,20.3,25.3,20.3,23.8z"/>
		<path class="st0" d="M22.1,30.9l-6,10.2c-0.6,1.1,0.6,2.3,1.6,1.6l10.2-6C25.5,35.4,23.5,33.4,22.1,30.9z"/>
		<path class="st1" d="M35,36.1c0.3,0,0.6,0,0.9,0c0.1,0,0.2,0,0.3,0c1-0.1,1.9-0.3,2.7-0.6c1.8-4.7,4.5-8.4,8.3-10.9
			c0-0.2,0-0.5,0-0.7c0-6.8-5.5-12.3-12.3-12.3c-6.8,0-12.3,5.5-12.3,12.3C22.7,30.6,28.2,36.1,35,36.1z"/>
	</g>
	<path class="st2" d="M9.5,21.4h46.2c1.5-0.3,3.2-0.4,5-0.4c0.3,0,0.6,0,0.9,0c0.3-0.2,0.4-0.5,0.4-0.8v0c0-0.7-0.7-1.2-1.5-1.2h-51
		C8.7,19,8,19.5,8,20.2v0C8,20.9,8.7,21.4,9.5,21.4z"/>
</g>
</svg>
