<svg x="0" y="0" viewBox="0 0 100 100" xmlns="http://www.w3.org/2000/svg" xmlns:xlink="http://www.w3.org/1999/xlink"><style type="text/css"><![CDATA[.sun-primitive {
  color: #ffee8a;
  fill: #fbbe40;
  stroke: #f5b93f;
}.cloud2-primitive {
  color: #727272;
  fill: #cccccc;
}.raindrop-primitive {
  fill: #2874ba;
}.lightning-primitive {
  fill: #ffdd15;
}]]></style><symbol id="sun">
		<circle fill="currentColor" opacity="0.5" stroke-width="0" stroke-opacity="0" cx="45" cy="45" r="45"/>
		<circle fill="currentColor" opacity="0.95" stroke-width="0" stroke-opacity="0" cx="45" cy="45" r="37.8"/>
		<circle stroke-width="2" stroke-miterlimit="10" cx="45" cy="45" r="31.5"/>
	</symbol><symbol id="cloud">
		<path d="M87.8,26.9c-0.8-0.8-0.4-1.3-0.6-1.9c-0.4-0.8-1.1-1-1.6-1.3c-0.8-0.4-1.5-0.2-2.3-0.4 c-1.3-0.4-1.5-2.9-2.7-3.8c-1.6-1.1-0.5-3.1-2-4.3c-0.8-0.6-1.3-0.3-2.1-0.5c-0.8-0.2-1.7-0.8-2.5-1.2c-1.5-0.7-1.1-1.9-2.1-4 c-0.7-1.5-2.5-3-4-3.9c-0.6-0.3-1.2-0.5-1.8-0.7c-0.7-0.2-0.6-0.7-0.9-1.2c-0.9-1-2.2-1.5-3.6-0.8c-0.6,0.3-0.9,1-1.5,1.3 c-0.5,0.3-1.4,0.2-1.9-0.2c-6.7-5.7-14.9-5.2-16.3,0.2c-1.8,1.4-3.9,2.2-4.6,6.6c-1.8-1.1-2.7,0.3-2.8,0.2c0,0-1.1-0.5-2.3-0.2 c-1.6,0.4-2.8,1.5-3,3.1c-0.1,0.6,0.1,1.3-0.3,1.5c-0.5,0.4-1.2,0.5-1.7,0.2c-0.7-0.4-1.3-0.6-2.1-0.3c-0.8,0.3-1.5,0.3-2.3-0.1 c-0.6-0.4-1.7-1-4.2-0.5c-1.5,0.3-3,0.5-3.8,1.9c-1.6,3.1-1.9,1.8-3.6,3.5c-0.4,0.5-0.7,1.6-1.3,1.8c-0.6,0.2-1.1,0.2-1.6,0.7 c-0.6,0.5-1.5,0.1-2.2,0.6c-0.3,0.2-0.2,0.3-0.7,0.8c-0.5,0.4-1,0.7-1.4,1.2c-0.7,0.6-1.3,1.3-1.7,2.2c-0.3,0.7-0.4,1.6-1,2.1 c-0.7,0.6-0.4,1-0.7,1.8c-0.2,0.3-0.5,0.4-0.7,0.8C0,32.5,0,33.1,0,33.7c0.1,4.4,2.1,7,2.8,7.3c0.6,0.3,0.6,1,1.1,1.3 c0.3,0.1,0.7,0,1,0.2c0.4,0.2,0.6,0.6,0.9,0.8c0.7,0.6,1.6,0.4,2.5,0.3c1.2-0.1,1.9,0.5,3,0.8c1.9,0.6,4.8,0.9,6.8,1 c20.1,0.7,43.4,0.9,62.6-0.2c2.4-0.1,4-1,5.4-2.2c0.8-0.6,2.5-2,3.4-6.2S88.2,27.3,87.8,26.9z"/>
		<g fill="currentColor">
			<path opacity="0.14" d="M89.8,34c0-0.9-0.2-1.8-0.4-2.6c-0.5-0.7-2-0.2-2.7-0.2c-1.7,0-1.8-1.1-2.3-2.4 c-0.4-1.1-0.9-2.1-1.9-2.7c-0.6-0.4-2.4-1.3-2.9-0.6c-0.4,0.5-0.3,0.9-1,1.2c-0.8,0.4-1.7,0.2-2.4-0.2c-1.3-0.7-2.5-1.9-4-2.2 c-0.9-0.2-2-0.4-2.8,0.2c-0.6,0.4-1,0.5-1.7,0.2c-1.3-0.6-2.6-2.3-3.1-3.6c-0.5-1.6-0.6-3-2.3-3.9c-0.9-0.2-1.7,0.1-2.5-0.1 c-2.1-0.6-3.6-2.5-5.8-2.9c-1.8-0.3-3.6,0.4-5,1.5c-0.8,0.7-2.1,2-1.8,3.2c2.3-2.1,5.3-3.8,8.3-2c1,0.6,2.1,1.2,3,1.9 c0.7,0.5,1.5,1.1,1.8,1.9c0.4,1-0.3,1.9-0.4,2.9c-0.1,0.7,0.2,1.3,0.2,2c0,0.5-0.3,1-0.5,1.5c-0.1,0.4-0.2,1.2-0.7,1.3 c-0.2,0-0.5-0.2-0.8-0.2c-0.3,0-0.4,0.2-0.6,0.4c-0.3,0.4-0.5,0.9-0.9,1.1c-0.7,0.4-1.4,0-2.2,0.5c-0.7,0.4-1.3,1.2-2.1,1 c-0.4-0.1-0.7-0.3-1.1-0.4c-0.5-0.1-0.9,0.3-1.4,0.4c-0.2,0.1-0.4,0.1-0.5,0.1c-0.2,0.1-0.7,0.5-0.8,0.5c-0.3,0-0.3-0.2-0.4-0.5 c-0.1-0.3,0-0.5-0.3-0.7c-0.4-0.3-0.8,0.2-1.2-0.3c-0.2-0.2-0.1-0.6-0.3-0.8c-0.3-0.3-1-0.3-1.3-0.3c-0.4,0-1.1,0-1.3,0.4 c-0.2,0.4,0.2,0.9-0.1,1.2c-0.4-0.5-1.3-0.2-1.9-0.6c0.4-0.3,0.2-1-0.1-1.3c-0.5-0.4-0.6-0.1-0.8,0.2c-0.1,0.1-0.1,0.3-0.3,0.4 c-0.2,0.1-0.4,0-0.6,0.1c-0.3,0.3,0,0.9-0.2,1.3c-0.2,0.5-0.7,0.8-1,1.2c-0.3,0.5-0.5,1.1-1.1,1.3c-1.3,0.7-2.2-1-2.6-2 c-0.2-0.6,0.1-1.3-0.1-1.9c-0.1-0.7-0.5-0.6-1.1-0.7c-0.6-0.1-1.2-0.4-1.6-0.8c-0.4-0.4-0.5-0.9-1.1-1.2c-0.9-0.4-2.2-0.3-2.8,0.6 c-0.7,1.1-0.4,2.7-1.2,3.8c-0.7,0.9-1.9,0.9-3,0.9c-0.2,0-0.4,0-0.5,0c-0.1-0.1-0.2-0.3-0.3-0.3c-0.4-0.1-0.5,0.2-0.8,0.4 c-1,0.7-1.3-1.1-2.5-0.7c-1,0.4-1.5,2-2,2.9c-0.6,0.9-1.2,2-2.2,2.5c-0.4,0.2-0.7,0.3-1.1,0.2c-0.2-0.1-0.3-0.2-0.6-0.2 c-0.3,0.1-0.5,0.5-0.7,0.7c-0.3,0.5-0.7,0.9-1.1,1.3c-1.7,1.5-3.9,1.3-5.9,0.7c-1.6-0.5-3-1.3-4.4-2.1c-0.3-0.2-1.4-1-1.7-0.6 c0.4,1.3,1,2.8,2,3.8c0.4,0.3,0.6,0.6,0.9,1c0.1,0.1,0.2,0.3,0.3,0.4c0.4,0.3,0.8,0.1,1.2,0.3h0c0.5,0.3,0.8,0.9,1.4,1.1 c0.5,0.5,1.5,0.1,2.1,0h0c0.2,0,0.3,0,0.5,0h0c0.1,0,0.3,0,0.4,0.1l0,0c0,0,0,0,0,0c1.2,0.3,2.3,0.9,3.5,1.1 c2.8,0.6,5.6,0.6,8.4,0.7c2.9,0.1,5.7,0.2,8.6,0.2c6.2,0.1,12.3,0.2,18.5,0.2c5.8,0,11.6-0.1,17.5-0.2c3-0.1,6-0.2,9-0.3 c2.5-0.1,5.3,0,7.8-0.6C87.3,43.6,90,38.6,89.8,34C89.8,33.6,89.8,34.3,89.8,34z"/>
			<path opacity="0.16" d="M89.8,33.4c0,0.7-3,0.6-3.5,0.5c-0.6-0.1-0.9-0.3-1.1-0.8c-0.1-0.2-0.1-0.7-0.5-0.8 c-0.3,0-0.4,0.4-0.6,0.4c-0.6-0.1-0.2-1.3-0.3-1.6c-0.1-0.6-0.3-0.2-0.6-0.7C82.9,30,83,29.2,82.5,29c-0.2-0.1-0.5,0-0.8,0 c-0.5,0-0.9-0.3-1.4-0.4c-1.3-0.3-2.2,1.6-3.5,1.2c-0.6-0.2-1.3-1-1.8-1.3c-0.6-0.4-1.4-0.3-1.9-0.8c-1-0.7-1.7-2.8-3.1-1.6 c-0.5,0.4-0.8,0.9-1.5,0.9c-0.6-0.1-0.9-0.5-1.3-0.8c-1.1-1.2-2-2.6-2.9-3.9c-0.5-0.6-1.5-2.6-2.4-2.7c0.1,0.9,0.4,2.2-0.7,3.8 c0.1,0.7,0.3,1.4,0.5,2.1c0.1,0.4,0.5,1.2,0.4,1.6c-0.1,0.3-0.3,0.3-0.5,0.5c-0.2,0.3-0.2,0.8-0.2,1.1c0,0.3,0.4,1.8,0.2,2 c-0.4,0.2-1.9-1.5-2.5-1.4c-0.5,0-0.7,0.4-0.7,0.9c0,0.6,0.6,0.8,0.8,1.3c0.7,1.3-1.4,1.4-2,0.6c-0.2-0.2-0.5-1.3-0.8-1.3 c-0.4-0.1-0.6,0.8-0.8,1c-0.7,0.9-2,1.7-3.2,1.5c-0.4,0-0.7-0.2-1.1-0.3c-0.6-0.1-1.2,0.2-1.8,0.3c-0.7,0.1-1.5,0.4-2.2,0.3 c-0.7-0.2-1.3-0.9-2-0.9c-0.1,0.2-0.2,0.3-0.3,0.3c-0.2-0.1-0.3-0.3-0.3-0.5c-0.9-0.6-2.7-1.7-3.7-0.7c-0.8,0.7-0.6,1.5-1.8,1.8 c-0.9,0.2-2.3,0.7-3.2,0.2c-1-0.6-0.8-2-1.4-2.8c0.3-0.6-1-0.4-1.2-0.4c-0.5-0.1-1-0.4-1.5-0.3c-0.7,0.2-0.4,1.1-0.6,1.6 c-0.2,0.6-0.6,1-0.7,1.6c-0.1,0.5-0.3,0.7-0.8,0.9c-1,0.4-2.2,0.1-3.1-0.2c-0.4-0.1-0.8-0.3-1.2-0.5c-0.8-0.5-1.3-0.5-2.2-0.2 c-0.7,0.2-1.5,0.2-2.1,0.5c-0.5,0.3-0.6,1-1.2,1.2c-0.2,0.1-0.6,0.1-0.8-0.1c-0.2-0.1,0-0.4-0.4-0.4c-0.3,0-0.5,0.6-0.6,0.8 c-0.2,0.4-0.3,0.9-0.6,1.2c-0.3,0.4-0.2,0.1-0.5,0.2c-0.7,0.2-1.6,0.6-2.3,0.9c-0.8,0.3-1.3,1.2-2,1.8c-1.1,0.9-2.5,1.2-3.9,0.9 c-1.8-0.6-3.6-1.2-5.4-1.8C2.9,39,1,38.3,1.4,39.2c0.6,1,1.4,1.7,2.1,2.6c0.4,0.6,0.9,0.3,1.5,0.7c0.6,0.4,0.9,1,1.7,1.1 c0.6,0.1,1.3-0.1,1.9-0.1c0.8,0,1.5,0.4,2.2,0.7c1.4,0.5,3,0.7,4.5,0.9c3.4,0.4,6.9,0.4,10.3,0.5c3.5,0.1,7.1,0.2,10.6,0.2 c14.2,0.2,28.4,0.1,42.5-0.6c1.7-0.1,3.5-0.1,5.1-0.8c1.1-0.5,2.1-1.2,3-2.1c1.9-1.9,2.9-4.9,3-7.5C89.8,34.3,89.8,33.9,89.8,33.4z  M83.2,31.3C83.2,31.3,83.2,31.3,83.2,31.3L83.2,31.3C83.2,31.3,83.2,31.3,83.2,31.3z"/>
			<path opacity="0.18" d="M88.5,34.6c-0.2-1.4-2.1-0.6-2.9-0.9c-0.3-0.1-0.4-0.5-0.8-0.7c-0.7-0.2-1.7,0.5-2.2,0.8 c-0.4-0.7-0.6-1.5-0.7-2.3c-0.1-0.5,0.1-0.6-0.3-0.4c-0.2,0.1-0.3,0.5-0.6,0.5c-0.2,0-0.3,0-0.5-0.1c-0.3-0.2-0.5-0.6-0.8-0.7 c-0.4-0.2-0.9,0.1-1.3,0.1c-0.6,0-1.2-0.2-1.8-0.3c-0.2,0-0.8-0.3-1-0.1c-0.2,0.2,0,0.7-0.4,0.7c-0.3,0-0.7-1.1-0.8-1.3 c-0.3-0.5-0.6-1.2-1-1.5c-0.8-0.6-1.3,0.5-1.9,0.9c-0.5,0.4-1.5,0.9-1.4-0.1c0.1-0.8,0.3-1.6-0.9-1.3c-1,0.8-2.1,0.5-3-0.3 c-0.1-0.1-1.2-1.7-1.3-1.6c0.5-0.1-0.8,4.5-0.9,4.8c-0.1,0.2-0.2,0.5-0.3,0.6c-0.1,0.1-0.2-0.3-0.4-0.1c-0.3,0.3,0.2,1.6,0.1,2 c-0.1,0.3-0.1,0.4-0.4,0.4c-0.2,0-0.6-0.1-0.9-0.2c-0.4-0.1-0.7-0.3-1.1-0.4c-1.2-0.3-0.2,1.9-1.4,1.8c-0.5,0-1-0.9-1.5-0.5 c-0.3,0.3-0.1,0.9-0.2,1.2c-0.3,1.1-1.9,0.4-2.6,0.2c-0.8-0.2-0.9,0-1.6,0.3c-0.5,0.3-0.8,0.2-1.3-0.2c-0.6-0.5-0.9-0.6-1.7-0.6 c-1.1,0-2-0.7-3.1-0.6c0.5-0.6-1.7-1.3-2.1-1.2c-0.8,0.1-0.9,0.3-1.5-0.3c-0.5-0.5-1.2-0.9-1.9-0.8c-1.1,0.1-1.4,1.4-2,2.1 c-1,1-2.7,1.7-3.9,0.8c-1-0.7-1.2-2.1-2.2-2.8c-0.9-0.6-1.9-0.1-1.6,1c0.1,0.3,0.2,0.6,0.1,0.9c-0.1,0.2-0.6,0.3-0.7,0.5 c-0.3,0.3-0.6,0.7-1,0.8c-0.6,0.2-1.2-0.3-1.8-0.4c-0.7-0.1-1.2,0.4-1.8,0.1c-0.6-0.3-1.3-0.3-1.9-0.8c-0.7-0.5-1.2-0.6-2-0.3 c-0.9,0.3-1.5,0.9-2.2,1.5c-0.8,0.6-1.7,0.5-2.6,0.5c-0.6,1.5-1.9,2.2-3.3,2.7c-0.1,0-0.4,0.1-0.5,0.2c-0.1,0.1,0,0.2,0,0.3 c-0.4,0.6-0.8,0.9-1.5,1.2c-2.2,0.9-4.4,0.9-6.7,0.2c-0.6-0.2-1.4-0.5-1.7,0.3c-0.2,0.7,1.2,2.1,1.7,2.3c0.8,0.2,1.5-0.1,2.3,0 c0.8,0.1,1.5,0.5,2.2,0.7c2.2,0.9,5.1,1,7.5,1.1c2.9,0.1,5.9,0.2,8.8,0.3c6,0.2,12,0.2,18,0.3c6,0,12.1,0,18.1-0.1 c3.1-0.1,6.2-0.2,9.2-0.3c2.9-0.1,5.9-0.1,8.8-0.5c4.6-0.6,7.2-4.2,8.2-8.4C89.3,36.6,88.8,36.1,88.5,34.6z"/>
			<path opacity="0.14" d="M59.5,7.3c0.5-2,1.1-3.6,3.1-4.7c-0.7,0.1-1.2,0.3-1.7,0.8c-0.4,0.4-0.7,0.8-1.3,0.9 c-1.3,0.2-2.4-1.1-3.4-1.8C57.8,6.5,58.7,4.5,59.5,7.3C60,5.3,58.7,4.5,59.5,7.3z"/>
			<path opacity="0.14" d="M21.9,15.5c1.2,0.7,2,0.7,3.3,0.5c0.6-0.1,1,0,1.6,0.1c0.7,0.2,1.4,0.1,2.1,0.1 c3,0.1,5.7,2.6,7.2,5c-0.4-1.7-1.2-3.6-2.7-4.6c-1-0.7-2.2-0.8-3.1-1.6c-0.4-0.3-0.6-0.8-1.1-1.1c0,0.1,0,0.1,0,0.2 c0,0.2,0,0.4,0,0.6c0,2.2-2.6,0.4-3.7,0.6c-1,0.2-1.6,0.5-2.6,0c-0.4-0.2-0.8-0.4-1.2-0.5c-1.4-0.4-3,0-4.4,0.4 c-0.6,0.2-1.3,0.4-1.8,0.9c-0.5,0.5-0.8,1.3-1.2,1.9C17.3,14.5,21.6,15.3,21.9,15.5z"/>
			<path opacity="0.2" d="M89.1,38c-0.4-0.8-1.1-2.5-2.3-2c-0.3,0.1-0.6,0.2-0.9,0.4c-0.4,0.2-0.4,0.4-0.8,0.5 c-0.6,0.1-1.1-0.7-1.7-0.5c-0.3,0.1-0.4,0.3-0.5,0.6c-0.2,0.2-0.1,0.4-0.4,0.3c-0.5,0-1.2-1.2-1.5-1.5c-0.2,0.8-0.4,0.4-0.5-0.1 c-0.1-0.5-0.2-1.6-0.5-1.9c-0.2-0.2-0.1-0.1-0.3-0.1c-0.2,0.1-0.6,0.8-0.8,1c-0.3,0.3-0.7,0.5-1,0.7c-0.3,0.2-1.2,0.8-1.6,0.4 c-0.2-0.3,0-0.9,0-1.2c-0.1-0.6-0.3-0.9-0.9-1.1c-0.8-0.2-1.9,0.3-2.5,0c-0.5-0.3-1-0.9-1.5-1.3c-0.3-0.2-1.2-1-1.6-0.5 c-0.2,0.3,0,1,0.1,1.3c0,0.2,0.4,0.8,0.3,1c0.1-0.2-1.1-1.7-1.3-1.9c-0.8-1-1.8-2.1-3-2.3c-0.4,0.6-0.3,1.2-0.3,1.9 c0,0.5-0.2,0.6-0.4,1c-0.4,0.6-0.3,1.4-0.4,2c-0.3,0.9-0.7,1-1.5,0.8c-0.5-0.1-0.6-0.2-0.9,0.4c-0.3,0.6-0.4,1.2-0.9,1.8 c-0.8-0.6-1.8-0.8-2.7-0.2c-0.7,0.5-1.1,1.2-1.8,1.6c-1,0.5-2.1,0.6-3.2,0.6c-0.6,0-1.7-0.1-2.1,0.6c0.1-1-1.4-2.4-2.2-2.7 c-0.8-0.3-1.6,0.1-2.4,0c-1-0.1-2.1-0.4-3-0.8c-1.7-0.7-2.8,0.6-4.3,1.4c-0.7,0.4-1.5,1-2.3,0.6c-0.7-0.3-1-1.1-1.7-1.5 c-0.1,0-0.3,0.1-0.4,0.1c-0.2,0-0.2-0.1-0.3-0.1c-0.7-0.2-1.3,0-1.9,0.5c-1.1,0.9-1.4,2-3.1,1.7c-0.7-0.1-1.4-0.3-2.1-0.6 c-0.7-0.3-0.9-0.4-1.6,0.1c-0.7,0.5-0.9,0.5-1.7,0.1c-0.6-0.4-1-0.4-1.7-0.2c-0.8,0.2-1.5,0.3-2.4,0.2c-0.5-0.1-1.6-0.5-2.1-0.2 c-0.7,0.3-0.4,1.6-1.1,2c-0.4,0.2-0.8,0.1-1.1,0.4c-0.5,0.3-0.9,0.8-1.4,1.2c-1.1,0.9-2.2,0.7-3.6,0.8c-0.5,0-0.8,0.3-1.3,0.4 c-0.5,0.1-1,0-1.4-0.1c-0.5-0.1-2.1-0.8-2,0.2c0.1,0.1,0.1,0.2,0.2,0.3c0.7,0.1,1.5-0.2,2.2-0.1c0.7,0.1,1.2,0.4,1.9,0.6 c1.2,0.5,2.6,0.7,3.8,0.8c2.7,0.4,5.5,0.4,8.3,0.5c6.1,0.2,12.2,0.3,18.4,0.4c12.1,0.1,24.2,0,36.3-0.6c2.9-0.1,5.8-0.2,8.2-2.1 c1.7-1.4,2.8-3.1,3.5-5.2C89.2,38,89.2,38,89.1,38C87.4,34.6,89.2,38,89.1,38z"/>
		</g>
	</symbol><symbol id="raindrop">
		<path d="M1.9,13c-0.3,0-0.5-0.1-0.8-0.2c-1-0.4-1.4-1.6-0.9-2.6l4.2-9.1c0.4-1,1.6-1.4,2.5-0.9c1,0.4,1.4,1.6,0.9,2.6l-4.2,9.1 C3.3,12.6,2.6,13,1.9,13z"/>
	</symbol><symbol id="lightning">
		<polygon points="14.6,18.4 7.7,15.4 10.6,0 0,19.5 7.1,22.5 2.5,40 "/>
	</symbol><use class="sun-primitive" xlink:href="#sun" x="0" y="0" width="100" height="100" transform="translate(0,0) scale(0.666666667, 0.666666667)"></use><use class="cloud2-primitive" xlink:href="#cloud" x="0" y="0" width="100" height="100" transform="translate(5,25) scale(1, 1)"></use><use class="raindrop-primitive" xlink:href="#raindrop" x="0" y="0" width="100" height="100" transform="translate(28,87) scale(1, 1)"></use><use class="lightning-primitive" xlink:href="#lightning" x="0" y="0" width="100" height="100" transform="translate(42,51) scale(1, 1)"></use><use class="raindrop-primitive" xlink:href="#raindrop" x="0" y="0" width="100" height="100" transform="translate(58,78) scale(1, 1)"></use></svg>