<svg x="0" y="0" viewBox="0 0 100 100" xmlns="http://www.w3.org/2000/svg" xmlns:xlink="http://www.w3.org/1999/xlink"><style type="text/css"><![CDATA[.sun-primitive {
  color: #ffee8a;
  fill: #fbbe40;
  stroke: #f5b93f;
}.cloud4-primitive {
  color: #323232;
  fill: #999999;
}.raindrop-primitive {
  fill: #2874ba;
}.lightning-primitive {
  fill: #ffdd15;
}]]></style><symbol id="sun">
		<circle fill="currentColor" opacity="0.5" stroke-width="0" stroke-opacity="0" cx="45" cy="45" r="45"/>
		<circle fill="currentColor" opacity="0.95" stroke-width="0" stroke-opacity="0" cx="45" cy="45" r="37.8"/>
		<circle stroke-width="2" stroke-miterlimit="10" cx="45" cy="45" r="31.5"/>
	</symbol><symbol id="cloud">
		<path d="M88,27c-0.5-0.5-0.3-1.3-0.6-1.9c-0.3-0.6-1.1-1-1.6-1.3c-0.8-0.5-1.5-0.2-2.3-0.4c-1.3-0.4-1.5-2.9-2.7-3.8 c-1.6-1.1-0.5-3.1-2-4.4c-0.8-0.6-1.3-0.3-2.1-0.5c-0.8-0.2-1.7-0.8-2.5-1.2c-1.5-0.7-1.1-1.9-2.1-4c-0.7-1.5-2.5-3-4-3.9 c-0.6-0.3-1.2-0.5-1.8-0.7c-0.7-0.3-0.4-0.9-1-1.2c-1.2-0.5-2.2-1.5-3.6-0.8c-0.6,0.3-0.9,1-1.5,1.4c-0.5,0.3-1.4,0.2-1.9-0.2 c-6.7-5.7-15-5.2-16.3,0.2c-1.8,1.4-3.9,2.2-4.6,6.6c-1.8-1.1-2.7,0.3-2.8,0.2c0,0-1-0.3-2.3-0.2c-1.6,0.4-2.7,1.5-3,3.1 c-0.1,0.3,0.1,1.3-0.3,1.5c-0.6,0.3-1.2,0.5-1.8,0.2c-0.7-0.4-1.3-0.6-2.1-0.3c-0.8,0.3-1.5,0.4-2.3-0.1c-0.6-0.4-1.7-1-4.2-0.5 c-1.5,0.3-3,0.5-3.8,2c-1.6,3.1-1.9,1.8-3.6,3.6c-0.4,0.5-0.7,1.6-1.3,1.8c-0.5,0.2-1.1,0.3-1.6,0.7c-0.7,0.4-1.6,0.2-2.2,0.6 c-0.3,0.2-0.4,0.6-0.7,0.8c-0.5,0.4-1,0.8-1.4,1.2c-0.7,0.6-1.3,1.3-1.7,2.2c-0.3,0.7-0.4,1.6-1,2.1c-0.7,0.6-0.4,1-0.7,1.8 c-0.2,0.3-0.5,0.4-0.7,0.8C0,32.6,0,33.3,0,33.8c0,4.4,2.2,7,2.8,7.3c0.6,0.3,0.6,1,1.1,1.3c0.3,0.1,0.7,0,1,0.2 c0.4,0.2,0.6,0.6,0.9,0.8c0.7,0.6,1.6,0.4,2.5,0.3c1.2-0.1,1.9,0.5,3,0.8c1.9,0.6,4,0.5,6,0.6c2.4,0.1,4.7,0.3,7.1,0.1 c3.9-0.2,6.8-0.7,10.7,0c2.7,0.5,18.5-0.6,30.5,1.7c9.5,1.8,11.6-1.1,15.3-1.3c2.4-0.1,3.5-1.6,5.5-2.6c0.9-0.4,2.5-2,3.4-6.3 C90.7,32.5,88.4,27.4,88,27z"/>
		<g fill="currentColor">
			<path opacity="0.14" d="M89.8,31.7c-0.6-1.6-2-0.1-4.7-1.7c-1.1-3.7-2.1-4.2-4.6-4.9c-0.5,0.2-0.8,0.8-1.1,1.1 c-0.6,0.5-1.3,0.7-2.1,0.5c-1.5-0.4-3.4-2.3-4.9-2.6c-3.9-0.8-2.1,1-4.4,0.4c-0.6-0.2-1.5-1.4-2.1-1.8c-0.3-0.2-1.3-3.7-3.4-5.8 c-2.3-0.1-4-0.9-5.6-1.8c-2.7-1.5-13.2-2.9-7.3-0.2c0.7,0-3,3.7-2.4,3.7c5.7-5.4,8.3-2,9.6-1.2c2,1.1,4.4,2.5,3.5,4.6 c-1,2.2,0.2,3.2-0.3,3.8c-0.5,0.6-0.5,2.5-1.1,2.2c-1.8-0.8-1.2,2-3.3,1.5c-0.8-0.2-1.8,1-2.6,1.4c-0.8,0.3-1.7-0.7-2.4-0.3 c-0.6,0.4-1.5,0.3-2,0.8c-0.5,0.5-0.5-0.8-0.6-0.9c-0.3-0.4-0.9,0.1-1.2-0.3c-0.5-0.5,0.1-1-1-1.2c-0.5-0.1-1.4-0.2-1.9,0.2 c-0.4,0.3,0.1,1-0.3,1.4c-0.4-0.5-1.3-0.2-1.9-0.6c0.5-0.3,0.1-1.2-0.3-1.4c-0.7-0.4-0.5,0.7-1.1,0.7c-0.8,0-0.5,0.3-0.5,1 c0,0.6-0.7,1-1,1.4c-0.6,1.1-1.2,2.3-2.7,1.3c-0.5-0.3-0.6-1-0.9-1.5c-0.5-0.8-0.2-1.3-0.2-2.2c0-0.9-0.8-0.6-1.4-0.8 c-0.7-0.3-1.3-0.6-1.7-1.3c-0.5-1-2.5-1.1-3.3-0.3c-0.9,1-0.6,2.7-1.3,3.8c-0.4,0.7-0.9,1.1-1.7,1.1c-0.3,0-1.9,0.2-2,0 c-0.7-1-1.2,1.2-2.1,0c-1-1.3-2-0.4-2.6,0.8c-0.9,1.7-2.9,5.3-4.5,4.2c-1-0.7-1.7,5.3-8.9,2.3c-3.6-1.5-4.7-2.9-5.1-2.4 c0.3,2.7,2,3.6,3.1,5.2c1.2,0.1,1.9,0.9,2.5,1.4c0.6,0.7,2.2-0.2,2.7,0.1c1.3,0.1,2.5,0.9,3.8,1.1c1.7,0.2,3.4,0.2,5.1,0.3 c3.6,0.2,8.1-0.4,11.9-0.4c1.4,0,7.9,0.9,13.5,0.8c4.3-0.1,10.7,0.2,15.8,0.5c1.8,0.1,6.3,0.7,7.4,0.8c1.2,0.1,2.7,0.8,7.9,0.4 c1-0.1,4.1-1.3,5-1.5c0.8-0.1,2.5,0,3.1-0.5C83.8,43.9,91.3,42.7,89.8,31.7z"/>
			<path opacity="0.16" d="M85.7,33.6c-0.6-0.5-0.2-0.6-0.6-1.2c-0.4-0.6-0.7,0.6-1.1,0c-0.2-0.4,0.2-2.2-0.4-1.9 c-0.5,0.3-0.5-2-1.3-1.7c-0.5,0.2-1.7-0.3-2.2-0.4c-0.8-0.2-2.3,1.6-3,1.3c-0.4-0.1-2.1-1.8-3-1.8c-1.2,0-2-2.4-3.2-2.3 c-1.1,0.1-1.3,1.9-2.9,1c-1.2-0.6-5-7.1-6-7.2c0.1,0.9,0.4,2.2-0.7,3.8c0.2,2.1,1.4,3.9,0.6,4.1c-1.2,0.4,0.4,4-0.6,3.3 c-0.6-0.4-1.6-1.4-2.3-1.4c-0.8,0-0.9,1.1-0.4,1.6c0.6,0.6,1.3,1.4-0.1,1.7c-1.2,0.3-1.6-0.7-2-1.6c-0.4-0.9-0.6,0.5-1.3,1.1 c-2.5,2.1-3.5,0.8-4.3,0.9c-1,0.2-2.3,0.4-3.2,0.6c-0.9,0.2-1.6-0.9-2.5-0.9c-0.1,0.2-0.2,0.3-0.3,0.3c-0.2-0.1-0.3-0.3-0.3-0.5 c-0.9-0.6-2.1-1.3-3.2-1c-1.2,0.3-0.8,1.8-2.1,2c-0.8,0.2-2.5,0.7-3.3,0.4c-1.1-0.4-1-2.1-1.7-2.9c0.3-0.6-1-0.4-1.2-0.4 c-0.7-0.1-1.9-0.8-2,0.4c0,0.3,0,0.7-0.1,1.1c-0.2,0.4-0.7,0.7-0.7,1.3c-0.1,2.1-4,1.1-5.1,0.4c-0.8-0.5-1.3-0.7-2.2-0.2 c-0.7,0.4-1.7,0.1-2.3,0.7c-0.6,0.6-0.6,1.2-1.6,1.1c-0.5-0.1,0-0.5-0.6-0.5c-0.5,0-1.3,2.8-1.6,2.3c-0.2-0.3-1.7,0.7-2,0.7 c-1.5,0-2.2,3.6-6.3,2.8c-4.3-1.4-7.1-2.4-7.3-2c-0.3,0.5,1.5,2.1,2.6,3.5c0.9,0.2,1.2,0.3,1.7,0.8c1.2,1.4,3.3,0.2,4.2,0.8 c1.3,0.5,2.5,0.9,3.9,1c1.7,0.1,3.5,0.1,5.2,0.2c3.4,0.2,6.7,0,10.5-0.4c1.5-0.1,8.4,0.7,15,0.7c4.8,0,11.6,0.2,13,0.3 c1.5,0.1,7.5,1,8.9,1c1.6-0.1,4.5,1.5,11.2-0.4c1.2-0.4,3.4-0.7,4.5-0.9c1-0.2,2.1-1.2,5.2-3.3c1-0.6,3.4-5,2.5-8.8 C89.9,33.9,86.4,34.1,85.7,33.6z"/>
			<path opacity="0.18" d="M85.4,33.6c-0.4-0.7-0.9-1.1-2.9,0.2c-1-1.8-0.5-3.4-1-2.7c-1,1.5-1.6-0.7-2.4-0.4 c-1.3,0.6-3.7-0.7-3.8-0.2c-0.2,1.7-0.9-0.7-1.9-2.1c-1-1.4-1.6,1.3-3.3,1.3c-0.9,0,1-2.3-1.2-1.9c-2.7,2-4.8-3.3-4.2-1.7 c0.3,0.9-1.2,5.4-1.4,5.2c-0.9-1,0.5,2.9-0.8,2.2c-0.5-0.3-0.9,0.1-1.4-0.2c-0.3-0.2-0.6-0.6-0.9-0.1c-0.3,0.5,0.1,1.8-0.8,1.7 c-0.5,0-0.7-0.5-1.1-0.5c-0.9-0.2-0.4,1.3-0.7,1.6c-0.7,0.9-3-0.5-3.5-0.2c-1.9,1.4-1.7,0-2.8-0.3c-0.5-0.1-0.9,0.1-1.4-0.1 c-0.9-0.2-1.7-0.6-2.6-0.5c0.5-0.6-1.1-0.9-1.5-1.2c-0.6-0.4-1,0.3-1.6,0.1c-0.3-0.1-0.4-0.4-0.7-0.6c-0.4-0.3-0.8-0.5-1.3-0.6 c-1.6-0.3-1.7,1.5-2.8,2.3c-1.3,0.9-2.8,1.5-4,0.2c-0.7-0.7-1.4-2.7-2.6-2.7c-2,0.1-0.3,1.8-0.9,2.1c-0.5,0.3-0.8,0.5-1.2,0.9 c-0.6,0.7-1.3,0.3-2,0c-0.7-0.3-1.2,0.2-1.9,0.2c-0.2,0-0.3-0.4-0.5-0.4c-0.4-0.1-0.7,0-1.1-0.2c-0.5-0.3-0.9-0.9-1.6-0.9 c-0.6,0-1.4,0.4-1.9,0.7c-0.5,0.3-0.9,0.8-1.4,1.1c-0.7,0.4-1.6,0.4-2.4,0.3c-1.1,2.8-4.2,2.6-3.9,3.1c0.4,0.7-2.3,1.9-4.8,2 c-2.1,0.1-4-0.9-4.4-0.7c-1.5,0.7-0.2,1.6,0.9,2.7C6.6,44,7.7,43,9.6,43.7c0.8,0.3,1,0.6,2.5,0.9c2.9,0.5,6,0.5,9,0.5 c3.2,0.1,5.3-0.3,9.8-0.4c1.3,0,5.6,0.8,12.9,0.7c3.9,0,12.9,0.4,14.8,0.3c2.1-0.1,6.6,1.1,8.6,1.3c1.9,0.1,5.6,1.1,11.3-1 c0.6-0.2,3-0.3,4.5-1.1c0.6-0.3,2.9-1.9,3.5-2.2c1.4-0.8,2.7-3.6,3.2-6.1c0,0.2-1,0.2-1.3-1.9C88.2,33.3,85.5,33.9,85.4,33.6z"/>
			<path opacity="0.2" d="M35.2,35.7C35.1,35.6,34.8,35.5,35.2,35.7L35.2,35.7z M84.1,35.1c-2.5-1.2-0.6,2.7-3.5-0.9 c-0.5,2.1-0.9-3-1.4-2.1c-0.5,0.9-1.4,1.5-2.4,2c-2.7,1.3,1.5-3.3-4.3-2.1c0,0-4.6-4.5-2.9-0.1c0.8,2.1-1.3-3.1-4.1-3.7 c-0.8,1.4,0.2,2.2-0.7,2.8c-0.6,0.4,0,4-2.1,2.8c-0.9-0.5-0.8,1.1-1.7,2.2c-2.2-1.5-3.2,0.4-4,1.1c-2.2,1.7-5.1,0.3-5.8,1.5 c0.1-0.9-1.9-2.8-2.6-2.8c-0.8-0.1-1.6,0.3-2.4,0c-1-0.3-1.9-0.3-2.8-0.7c-1.5-0.8-2.7,0.8-4,1.4c-0.7,0.3-1.5,1-2.3,0.7 c-0.8-0.3-1.1-1.2-1.9-1.5c0,0-0.2,0-0.3,0.1c-0.4,0.3-0.2-0.1-0.6-0.2c-0.7-0.2-1.7,0.5-2.2,1c-0.6,0.7-0.6,1.1-1.6,1.4 c-0.9,0.3-1.7-0.2-2.5-0.4c-0.8-0.2-1.2-1-2.1-0.3c-0.6,0.5-0.9,0.8-1.7,0.3c-1-0.7-1.4-0.4-2.5-0.2c-1.1,0.2-2.5-0.1-3.6-0.3 c-1-0.1-0.6,2.2-1.7,2.1c-1-0.1-2.3,2-3.3,2.2c-1.7,0.3-2.8-0.1-3.4,0.4c-0.9,0.8-4-1.3-3.7,0.3c1.2,1.9,5.6,1.2,6.7,2.8 c2.9,0.4,6,0.4,8.9,0.4c3.1,0,6-0.5,9.8-0.4c1.3,0,8.9,0.7,12.5,0.6c3.7-0.1,13.2,0.4,14.9,0.4c2.1-0.1,5.8,1,8,1 c1.9,0,4.3,1.2,10.9-0.6c1.3-0.4,3-0.7,3.6-0.8c0.7-0.1,2.3-1.1,2.9-1.4c1.7-0.8,2.9-1.5,4.3-4.2c0,0.1,1.8-3.1,0.1-3.1 c-1.7-3.4-2.2-1.8-2.9-1.7C84.6,35,85.7,35.9,84.1,35.1z"/>
			<path opacity="0.14" d="M26,15.3c0.9-0.1,1.4,0.9,2.1,0.6c0.6-0.2,1.3,0.1,1.2-1.8c1,0.5,0.3,1.1,3.3,2.2c2.5,0.9,3.3,4.3,3.5,5.1 c-1.5-2.5-3.2-4-6-4.8c-1.6-0.5-1.7,0.3-3.3-0.1c-1.9-0.6-2.8-0.3-4.5-0.5c-1.3-0.2-3.5-1.9-8.1,2.3c0.9-1.4,0.7-1.8,1.4-2.3 c1.7-1.1,4.2-1.5,5.9-1.2c0.6,0.1,1.3,0.7,2.1,0.9C24.7,15.8,24.7,15.4,26,15.3z"/>
			<path opacity="0.14" d="M62.8,2.7c-1.9-0.3-1.9,2.2-3.9,1.6c-1.2-0.4-1.6-1.1-2.6-1.7c1.6,4.2,2.6,2.1,3.4,4.9C60.1,5.4,60.7,3.8,62.8,2.7z"/>
			<path opacity="0.16" d="M29.1,15.5c0.2-0.1,0.3-0.5,0.2-1.3c0.5,0.2,0.9,1.3,1.9,1.8c2,1,2.2,2,2.4,2.3c-2.2-1.4-3.1-2-4.6-1.9 c-1.6,0.1-3.4-0.3-4.2-0.4C25.8,15.5,27.9,16.4,29.1,15.5z"/>
		</g>
	</symbol><symbol id="raindrop">
		<path d="M1.9,13c-0.3,0-0.5-0.1-0.8-0.2c-1-0.4-1.4-1.6-0.9-2.6l4.2-9.1c0.4-1,1.6-1.4,2.5-0.9c1,0.4,1.4,1.6,0.9,2.6l-4.2,9.1 C3.3,12.6,2.6,13,1.9,13z"/>
	</symbol><symbol id="lightning">
		<polygon points="14.6,18.4 7.7,15.4 10.6,0 0,19.5 7.1,22.5 2.5,40 "/>
	</symbol><use class="sun-primitive" xlink:href="#sun" x="0" y="0" width="100" height="100" transform="translate(0,0) scale(0.666666667, 0.666666667)"></use><use class="cloud4-primitive" xlink:href="#cloud" x="0" y="0" width="100" height="100" transform="translate(5,25) scale(1, 1)"></use><use class="raindrop-primitive" xlink:href="#raindrop" x="0" y="0" width="100" height="100" transform="translate(18,78) scale(1, 1)"></use><use class="raindrop-primitive" xlink:href="#raindrop" x="0" y="0" width="100" height="100" transform="translate(29,87) scale(1, 1)"></use><use class="lightning-primitive" xlink:href="#lightning" x="0" y="0" width="100" height="100" transform="translate(42,51) scale(1, 1)"></use><use class="raindrop-primitive" xlink:href="#raindrop" x="0" y="0" width="100" height="100" transform="translate(55,79) scale(1, 1)"></use><use class="raindrop-primitive" xlink:href="#raindrop" x="0" y="0" width="100" height="100" transform="translate(68,78) scale(1, 1)"></use><use class="raindrop-primitive" xlink:href="#raindrop" x="0" y="0" width="100" height="100" transform="translate(82,87) scale(1, 1)"></use></svg>