<svg x="0" y="0" viewBox="0 0 100 100"><use class="sun-primitive" xlink:href="#sun" x="0" y="0" width="100" height="100" transform="translate(0,0) scale(0.666666667, 0.666666667)"></use><use class="cloud4-primitive" xlink:href="#cloud" x="0" y="0" width="100" height="100" transform="translate(5,25) scale(1, 1)"></use><use class="raindrop-primitive" xlink:href="#raindrop" x="0" y="0" width="100" height="100" transform="translate(18,78) scale(1, 1)"></use><use class="raindrop-primitive" xlink:href="#raindrop" x="0" y="0" width="100" height="100" transform="translate(29,87) scale(1, 1)"></use><use class="lightning-primitive" xlink:href="#lightning" x="0" y="0" width="100" height="100" transform="translate(42,51) scale(1, 1)"></use><use class="raindrop-primitive" xlink:href="#raindrop" x="0" y="0" width="100" height="100" transform="translate(55,79) scale(1, 1)"></use><use class="raindrop-primitive" xlink:href="#raindrop" x="0" y="0" width="100" height="100" transform="translate(68,78) scale(1, 1)"></use><use class="raindrop-primitive" xlink:href="#raindrop" x="0" y="0" width="100" height="100" transform="translate(82,87) scale(1, 1)"></use></svg>