<svg viewBox="0 0 100 100" xmlns="http://www.w3.org/2000/svg" xmlns:xlink="http://www.w3.org/1999/xlink"><style>.moon-primitive{fill:#354246}.cloud4-primitive{color:#424242;fill:#999}.snowflake-primitive{fill:#47c0e3}.raindrop-primitive{fill:#0062bf}.lightning-primitive{fill:#ffdd15}</style><symbol id="moon"><path d="M34.9 0c3 5.2 4.8 11.2 4.8 17.6C39.7 37 24 52.8 4.5 52.8c-1.5 0-3-.1-4.5-.3C6.1 62.9 17.4 70 30.4 70c19.4 0 35.2-15.7 35.2-35.2C65.6 17 52.2 2.2 34.9 0z"/></symbol><symbol id="cloud"><path d="M87.8 26.9c-.8-.8-.4-1.3-.6-1.9-.4-.8-1.1-1-1.6-1.3-.8-.4-1.5-.2-2.3-.4-1.3-.4-1.5-2.9-2.7-3.8-1.6-1.1-.5-3.1-2-4.3-.8-.6-1.3-.3-2.1-.5s-1.7-.8-2.5-1.2c-1.5-.7-1.1-1.9-2.1-4-.7-1.5-2.5-3-4-3.9-.6-.3-1.2-.5-1.8-.7-.7-.2-.6-.7-.9-1.2-.9-1-2.2-1.5-3.6-.8-.6.3-.9 1-1.5 1.3-.5.3-1.4.2-1.9-.2-6.7-5.7-14.9-5.2-16.3.2-1.8 1.4-3.9 2.2-4.6 6.6-1.8-1.1-2.7.3-2.8.2 0 0-1.1-.5-2.3-.2-1.6.4-2.8 1.5-3 3.1-.1.6.1 1.3-.3 1.5-.5.4-1.2.5-1.7.2-.7-.4-1.3-.6-2.1-.3s-1.5.3-2.3-.1c-.6-.4-1.7-1-4.2-.5-1.5.3-3 .5-3.8 1.9-1.6 3.1-1.9 1.8-3.6 3.5-.4.5-.7 1.6-1.3 1.8-.6.2-1.1.2-1.6.7-.6.5-1.5.1-2.2.6-.3.2-.2.3-.7.8-.5.4-1 .7-1.4 1.2-.7.6-1.3 1.3-1.7 2.2-.3.7-.4 1.6-1 2.1-.7.6-.4 1-.7 1.8-.2.3-.5.4-.7.8.1.4.1 1 .1 1.6.1 4.4 2.1 7 2.8 7.3.6.3.6 1 1.1 1.3.3.1.7 0 1 .2.4.2.6.6.9.8.7.6 1.6.4 2.5.3 1.2-.1 1.9.5 3 .8 1.9.6 4.8.9 6.8 1 20.1.7 43.4.9 62.6-.2 2.4-.1 4-1 5.4-2.2.8-.6 2.5-2 3.4-6.2s-1.3-9.5-1.7-9.9z"/><g fill="currentColor"><path opacity=".14" d="M89.8 34c0-.9-.2-1.8-.4-2.6-.5-.7-2-.2-2.7-.2-1.7 0-1.8-1.1-2.3-2.4-.4-1.1-.9-2.1-1.9-2.7-.6-.4-2.4-1.3-2.9-.6-.4.5-.3.9-1 1.2-.8.4-1.7.2-2.4-.2-1.3-.7-2.5-1.9-4-2.2-.9-.2-2-.4-2.8.2-.6.4-1 .5-1.7.2-1.3-.6-2.6-2.3-3.1-3.6-.5-1.6-.6-3-2.3-3.9-.9-.2-1.7.1-2.5-.1-2.1-.6-3.6-2.5-5.8-2.9-1.8-.3-3.6.4-5 1.5-.8.7-2.1 2-1.8 3.2 2.3-2.1 5.3-3.8 8.3-2 1 .6 2.1 1.2 3 1.9.7.5 1.5 1.1 1.8 1.9.4 1-.3 1.9-.4 2.9-.1.7.2 1.3.2 2 0 .5-.3 1-.5 1.5-.1.4-.2 1.2-.7 1.3-.2 0-.5-.2-.8-.2-.3 0-.4.2-.6.4-.3.4-.5.9-.9 1.1-.7.4-1.4 0-2.2.5-.7.4-1.3 1.2-2.1 1-.4-.1-.7-.3-1.1-.4-.5-.1-.9.3-1.4.4-.2.1-.4.1-.5.1-.2.1-.7.5-.8.5-.3 0-.3-.2-.4-.5-.1-.3 0-.5-.3-.7-.4-.3-.8.2-1.2-.3-.2-.2-.1-.6-.3-.8-.3-.3-1-.3-1.3-.3-.4 0-1.1 0-1.3.4-.2.4.2.9-.1 1.2-.4-.5-1.3-.2-1.9-.6.4-.3.2-1-.1-1.3-.5-.4-.6-.1-.8.2-.1.1-.1.3-.3.4-.2.1-.4 0-.6.1-.3.3 0 .9-.2 1.3-.2.5-.7.8-1 1.2-.3.5-.5 1.1-1.1 1.3-1.3.7-2.2-1-2.6-2-.2-.6.1-1.3-.1-1.9-.1-.7-.5-.6-1.1-.7-.6-.1-1.2-.4-1.6-.8-.4-.4-.5-.9-1.1-1.2-.9-.4-2.2-.3-2.8.6-.7 1.1-.4 2.7-1.2 3.8-.7.9-1.9.9-3 .9h-.5c-.1-.1-.2-.3-.3-.3-.4-.1-.5.2-.8.4-1 .7-1.3-1.1-2.5-.7-1 .4-1.5 2-2 2.9-.6.9-1.2 2-2.2 2.5-.4.2-.7.3-1.1.2-.2-.1-.3-.2-.6-.2-.3.1-.5.5-.7.7-.3.5-.7.9-1.1 1.3-1.7 1.5-3.9 1.3-5.9.7-1.6-.5-3-1.3-4.4-2.1-.3-.2-1.4-1-1.7-.6.4 1.3 1 2.8 2 3.8.4.3.6.6.9 1 .1.1.2.3.3.4.4.3.8.1 1.2.3.5.3.8.9 1.4 1.1.5.5 1.5.1 2.1 0h.5c.1 0 .3 0 .4.1 1.2.3 2.3.9 3.5 1.1 2.8.6 5.6.6 8.4.7 2.9.1 5.7.2 8.6.2 6.2.1 12.3.2 18.5.2 5.8 0 11.6-.1 17.5-.2l9-.3c2.5-.1 5.3 0 7.8-.6 4.9-1.1 7.6-6.1 7.4-10.7 0-.4 0 .3 0 0z"/><path opacity=".16" d="M89.8 33.4c0 .7-3 .6-3.5.5-.6-.1-.9-.3-1.1-.8-.1-.2-.1-.7-.5-.8-.3 0-.4.4-.6.4-.6-.1-.2-1.3-.3-1.6-.1-.6-.3-.2-.6-.7-.3-.4-.2-1.2-.7-1.4-.2-.1-.5 0-.8 0-.5 0-.9-.3-1.4-.4-1.3-.3-2.2 1.6-3.5 1.2-.6-.2-1.3-1-1.8-1.3-.6-.4-1.4-.3-1.9-.8-1-.7-1.7-2.8-3.1-1.6-.5.4-.8.9-1.5.9-.6-.1-.9-.5-1.3-.8-1.1-1.2-2-2.6-2.9-3.9-.5-.6-1.5-2.6-2.4-2.7.1.9.4 2.2-.7 3.8.1.7.3 1.4.5 2.1.1.4.5 1.2.4 1.6-.1.3-.3.3-.5.5-.2.3-.2.8-.2 1.1 0 .3.4 1.8.2 2-.4.2-1.9-1.5-2.5-1.4-.5 0-.7.4-.7.9 0 .6.6.8.8 1.3.7 1.3-1.4 1.4-2 .6-.2-.2-.5-1.3-.8-1.3-.4-.1-.6.8-.8 1-.7.9-2 1.7-3.2 1.5-.4 0-.7-.2-1.1-.3-.6-.1-1.2.2-1.8.3-.7.1-1.5.4-2.2.3-.7-.2-1.3-.9-2-.9-.1.2-.2.3-.3.3-.2-.1-.3-.3-.3-.5-.9-.6-2.7-1.7-3.7-.7-.8.7-.6 1.5-1.8 1.8-.9.2-2.3.7-3.2.2-1-.6-.8-2-1.4-2.8.3-.6-1-.4-1.2-.4-.5-.1-1-.4-1.5-.3-.7.2-.4 1.1-.6 1.6-.2.6-.6 1-.7 1.6-.1.5-.3.7-.8.9-1 .4-2.2.1-3.1-.2-.4-.1-.8-.3-1.2-.5-.8-.5-1.3-.5-2.2-.2-.7.2-1.5.2-2.1.5-.5.3-.6 1-1.2 1.2-.2.1-.6.1-.8-.1-.2-.1 0-.4-.4-.4-.3 0-.5.6-.6.8-.2.4-.3.9-.6 1.2-.3.4-.2.1-.5.2-.7.2-1.6.6-2.3.9-.8.3-1.3 1.2-2 1.8-1.1.9-2.5 1.2-3.9.9l-5.4-1.8c-.6.3-2.5-.4-2.1.5.6 1 1.4 1.7 2.1 2.6.4.6.9.3 1.5.7.6.4.9 1 1.7 1.1.6.1 1.3-.1 1.9-.1.8 0 1.5.4 2.2.7 1.4.5 3 .7 4.5.9 3.4.4 6.9.4 10.3.5 3.5.1 7.1.2 10.6.2 14.2.2 28.4.1 42.5-.6 1.7-.1 3.5-.1 5.1-.8 1.1-.5 2.1-1.2 3-2.1 1.9-1.9 2.9-4.9 3-7.5v-1.4zm-6.6-2.1z"/><path opacity=".18" d="M88.5 34.6c-.2-1.4-2.1-.6-2.9-.9-.3-.1-.4-.5-.8-.7-.7-.2-1.7.5-2.2.8-.4-.7-.6-1.5-.7-2.3-.1-.5.1-.6-.3-.4-.2.1-.3.5-.6.5-.2 0-.3 0-.5-.1-.3-.2-.5-.6-.8-.7-.4-.2-.9.1-1.3.1-.6 0-1.2-.2-1.8-.3-.2 0-.8-.3-1-.1-.2.2 0 .7-.4.7-.3 0-.7-1.1-.8-1.3-.3-.5-.6-1.2-1-1.5-.8-.6-1.3.5-1.9.9-.5.4-1.5.9-1.4-.1.1-.8.3-1.6-.9-1.3-1 .8-2.1.5-3-.3-.1-.1-1.2-1.7-1.3-1.6.5-.1-.8 4.5-.9 4.8-.1.2-.2.5-.3.6-.1.1-.2-.3-.4-.1-.3.3.2 1.6.1 2-.1.3-.1.4-.4.4-.2 0-.6-.1-.9-.2-.4-.1-.7-.3-1.1-.4-1.2-.3-.2 1.9-1.4 1.8-.5 0-1-.9-1.5-.5-.3.3-.1.9-.2 1.2-.3 1.1-1.9.4-2.6.2-.8-.2-.9 0-1.6.3-.5.3-.8.2-1.3-.2-.6-.5-.9-.6-1.7-.6-1.1 0-2-.7-3.1-.6.5-.6-1.7-1.3-2.1-1.2-.8.1-.9.3-1.5-.3-.5-.5-1.2-.9-1.9-.8-1.1.1-1.4 1.4-2 2.1-1 1-2.7 1.7-3.9.8-1-.7-1.2-2.1-2.2-2.8-.9-.6-1.9-.1-1.6 1 .1.3.2.6.1.9-.1.2-.6.3-.7.5-.3.3-.6.7-1 .8-.6.2-1.2-.3-1.8-.4-.7-.1-1.2.4-1.8.1-.6-.3-1.3-.3-1.9-.8-.7-.5-1.2-.6-2-.3-.9.3-1.5.9-2.2 1.5-.8.6-1.7.5-2.6.5-.6 1.5-1.9 2.2-3.3 2.7-.1 0-.4.1-.5.2-.1.1 0 .2 0 .3-.4.6-.8.9-1.5 1.2-2.2.9-4.4.9-6.7.2-.6-.2-1.4-.5-1.7.3-.2.7 1.2 2.1 1.7 2.3.8.2 1.5-.1 2.3 0 .8.1 1.5.5 2.2.7 2.2.9 5.1 1 7.5 1.1 2.9.1 5.9.2 8.8.3 6 .2 12 .2 18 .3 6 0 12.1 0 18.1-.1 3.1-.1 6.2-.2 9.2-.3 2.9-.1 5.9-.1 8.8-.5 4.6-.6 7.2-4.2 8.2-8.4-.3 0-.8-.5-1.1-2z"/><path opacity=".14" d="M59.5 7.3c.5-2 1.1-3.6 3.1-4.7-.7.1-1.2.3-1.7.8-.4.4-.7.8-1.3.9-1.3.2-2.4-1.1-3.4-1.8 1.6 4 2.5 2 3.3 4.8.5-2-.8-2.8 0 0zm-37.6 8.2c1.2.7 2 .7 3.3.5.6-.1 1 0 1.6.1.7.2 1.4.1 2.1.1 3 .1 5.7 2.6 7.2 5-.4-1.7-1.2-3.6-2.7-4.6-1-.7-2.2-.8-3.1-1.6-.4-.3-.6-.8-1.1-1.1v.8c0 2.2-2.6.4-3.7.6-1 .2-1.6.5-2.6 0-.4-.2-.8-.4-1.2-.5-1.4-.4-3 0-4.4.4-.6.2-1.3.4-1.8.9s-.8 1.3-1.2 1.9c3-3.5 7.3-2.7 7.6-2.5z"/><path opacity=".2" d="M89.1 38c-.4-.8-1.1-2.5-2.3-2-.3.1-.6.2-.9.4-.4.2-.4.4-.8.5-.6.1-1.1-.7-1.7-.5-.3.1-.4.3-.5.6-.2.2-.1.4-.4.3-.5 0-1.2-1.2-1.5-1.5-.2.8-.4.4-.5-.1-.1-.5-.2-1.6-.5-1.9-.2-.2-.1-.1-.3-.1-.2.1-.6.8-.8 1-.3.3-.7.5-1 .7-.3.2-1.2.8-1.6.4-.2-.3 0-.9 0-1.2-.1-.6-.3-.9-.9-1.1-.8-.2-1.9.3-2.5 0-.5-.3-1-.9-1.5-1.3-.3-.2-1.2-1-1.6-.5-.2.3 0 1 .1 1.3 0 .2.4.8.3 1 .1-.2-1.1-1.7-1.3-1.9-.8-1-1.8-2.1-3-2.3-.4.6-.3 1.2-.3 1.9 0 .5-.2.6-.4 1-.4.6-.3 1.4-.4 2-.3.9-.7 1-1.5.8-.5-.1-.6-.2-.9.4-.3.6-.4 1.2-.9 1.8-.8-.6-1.8-.8-2.7-.2-.7.5-1.1 1.2-1.8 1.6-1 .5-2.1.6-3.2.6-.6 0-1.7-.1-2.1.6.1-1-1.4-2.4-2.2-2.7-.8-.3-1.6.1-2.4 0-1-.1-2.1-.4-3-.8-1.7-.7-2.8.6-4.3 1.4-.7.4-1.5 1-2.3.6-.7-.3-1-1.1-1.7-1.5-.1 0-.3.1-.4.1-.2 0-.2-.1-.3-.1-.7-.2-1.3 0-1.9.5-1.1.9-1.4 2-3.1 1.7-.7-.1-1.4-.3-2.1-.6-.7-.3-.9-.4-1.6.1-.7.5-.9.5-1.7.1-.6-.4-1-.4-1.7-.2-.8.2-1.5.3-2.4.2-.5-.1-1.6-.5-2.1-.2-.7.3-.4 1.6-1.1 2-.4.2-.8.1-1.1.4-.5.3-.9.8-1.4 1.2-1.1.9-2.2.7-3.6.8-.5 0-.8.3-1.3.4-.5.1-1 0-1.4-.1-.5-.1-2.1-.8-2 .2.1.1.1.2.2.3.7.1 1.5-.2 2.2-.1.7.1 1.2.4 1.9.6 1.2.5 2.6.7 3.8.8 2.7.4 5.5.4 8.3.5 6.1.2 12.2.3 18.4.4 12.1.1 24.2 0 36.3-.6 2.9-.1 5.8-.2 8.2-2.1 1.7-1.4 2.8-3.1 3.5-5.2-.2-.4-.2-.4-.3-.4-1.7-3.4.1 0 0 0z"/></g></symbol><symbol id="snowflake"><path d="M4.6 10.6l1.5-3.3 2.1 2.9c.3.4.8.5 1.2.2.4-.3.5-.9.2-1.2l-2-2.9 3.6-.3c.5 0 .9-.5.8-1 0-.5-.5-.8-1-.8l-3.5.3L9 1.3c.2-.4 0-1-.4-1.2s-1 0-1.2.4L5.8 3.8l-2-3C3.5.4 2.9.3 2.5.6c-.1.1-.2.2-.2.4-.2.2-.2.6 0 .8l2.1 2.9-3.6.4c-.3 0-.6.2-.7.5-.1.2-.1.3-.1.5 0 .5.5.8 1 .8l3.6-.3L3 9.8c-.2.4 0 1 .4 1.2.5.2 1 0 1.2-.4z"/></symbol><symbol id="raindrop"><path d="M1.9 13c-.3 0-.5-.1-.8-.2-1-.4-1.4-1.6-.9-2.6l4.2-9.1C4.8.1 6-.3 6.9.2c1 .4 1.4 1.6.9 2.6l-4.2 9.1c-.3.7-1 1.1-1.7 1.1z"/></symbol><symbol id="lightning"><path d="M14.6 18.4l-6.9-3L10.6 0 0 19.5l7.1 3L2.5 40z"/></symbol><use xlink:href="#moon" class="moon-primitive" width="100" height="100" transform="translate(0 3) scale(.71429)"/><use xlink:href="#cloud" class="cloud4-primitive" width="100" height="100" transform="translate(5 25)"/><use xlink:href="#snowflake" class="snowflake-primitive" width="100" height="100" transform="translate(15 79)"/><use xlink:href="#raindrop" class="raindrop-primitive" width="100" height="100" transform="translate(30 86)"/><use xlink:href="#lightning" class="lightning-primitive" width="100" height="100" transform="translate(42 51)"/><use xlink:href="#raindrop" class="raindrop-primitive" width="100" height="100" transform="translate(55 80)"/><use xlink:href="#snowflake" class="snowflake-primitive" width="100" height="100" transform="translate(66 88)"/><use xlink:href="#raindrop" class="raindrop-primitive" width="100" height="100" transform="translate(82 80)"/></svg>