<svg x="0" y="0" viewBox="0 0 100 100" data-reactid=".1ipg3s7n4zk" data-react-checksum="-2142532507"><use class="sun-primitive" xlink:href="#sun" x="0" y="0" width="100" height="100" transform="translate(0,0) scale(0.666666667, 0.666666667)"></use><use class="cloud4-primitive" xlink:href="#cloud" x="0" y="0" width="100" height="100" transform="translate(5,25) scale(1, 1)"></use><use class="snowflake-primitive" xlink:href="#snowflake" x="0" y="0" width="100" height="100" transform="translate(13,79) scale(1, 1)"></use><use class="snowflake-primitive" xlink:href="#snowflake" x="0" y="0" width="100" height="100" transform="translate(27,88) scale(1, 1)"></use><use class="lightning-primitive" xlink:href="#lightning" x="0" y="0" width="100" height="100" transform="translate(42,51) scale(1, 1)"></use><use class="snowflake-primitive" xlink:href="#snowflake" x="0" y="0" width="100" height="100" transform="translate(55,79) scale(1, 1)"></use><use class="snowflake-primitive" xlink:href="#snowflake" x="0" y="0" width="100" height="100" transform="translate(69,88) scale(1, 1)"></use><use class="snowflake-primitive" xlink:href="#snowflake" x="0" y="0" width="100" height="100" transform="translate(83,79) scale(1, 1)"></use><image src="undefined/symbols/29d.png" xlink:href=""/></svg>