<svg x="0" y="0" viewBox="0 0 100 100" data-reactid=".q92v7jjugw" data-react-checksum="110726387"><use class="moon-primitive" xlink:href="#moon" x="0" y="0" width="100" height="100" transform="translate(0,3) scale(0.714285714, 0.714285714)"></use><use class="cloud4-primitive" xlink:href="#cloud" x="0" y="0" width="100" height="100" transform="translate(5,25) scale(1, 1)"></use><use class="snowflake-primitive" xlink:href="#snowflake" x="0" y="0" width="100" height="100" transform="translate(13,79) scale(1, 1)"></use><use class="snowflake-primitive" xlink:href="#snowflake" x="0" y="0" width="100" height="100" transform="translate(27,88) scale(1, 1)"></use><use class="lightning-primitive" xlink:href="#lightning" x="0" y="0" width="100" height="100" transform="translate(42,51) scale(1, 1)"></use><use class="snowflake-primitive" xlink:href="#snowflake" x="0" y="0" width="100" height="100" transform="translate(55,79) scale(1, 1)"></use><use class="snowflake-primitive" xlink:href="#snowflake" x="0" y="0" width="100" height="100" transform="translate(69,88) scale(1, 1)"></use><use class="snowflake-primitive" xlink:href="#snowflake" x="0" y="0" width="100" height="100" transform="translate(83,79) scale(1, 1)"></use><image src="undefined/symbols/29n.png" xlink:href=""/></svg>