<svg width="100" height="100" fill="none" xmlns="http://www.w3.org/2000/svg"><g clip-path="url(#01m__a)"><path fill-rule="evenodd" clip-rule="evenodd" d="m91 41-15.4 6.9 9.9 13.5-16.8-1.7 1.8 16.7-13.7-9.8L50 82l-6.9-15.4-13.6 9.9 1.7-16.8-16.7 1.8 9.9-13.7L9 41h82Z" fill="url(#01m__b)"/><path fill-rule="evenodd" clip-rule="evenodd" d="M62.493 62.715c-12.004 6.805-27.307 2.702-34.21-9.206A24.921 24.921 0 0 1 25 41h50c.005 8.695-4.447 17.145-12.507 21.715Z" fill="#FFD348"/><path fill-rule="evenodd" clip-rule="evenodd" d="M29 41a20.71 20.71 0 0 0 2.804 10.498c5.799 9.998 18.696 13.497 28.694 7.698C67.193 55.313 70.974 48.247 71 41H29Z" fill="url(#01m__c)"/><g clip-path="url(#01m__d)"><path fill-rule="evenodd" clip-rule="evenodd" d="M5 39.5A1.5 1.5 0 0 1 6.5 38h87a1.5 1.5 0 0 1 0 3h-87A1.5 1.5 0 0 1 5 39.5Z" fill="#171F28"/></g></g><defs><clipPath id="01m__a"><path fill="#fff" d="M0 0h100v100H0z"/></clipPath><clipPath id="01m__d"><path fill="#fff" transform="translate(5 38)" d="M0 0h90v3H0z"/></clipPath><radialGradient id="01m__b" cx="0" cy="0" r="1" gradientUnits="userSpaceOnUse" gradientTransform="matrix(41 0 0 41 50 41)"><stop offset=".514" stop-color="#D6B849"/><stop offset=".652" stop-color="#FFCE47"/><stop offset="1" stop-color="#FFDB73"/></radialGradient><linearGradient id="01m__c" x1="36.5" y1="24.912" x2="63.499" y2="57.089" gradientUnits="userSpaceOnUse"><stop stop-color="#FFAF22"/><stop offset=".99" stop-color="#F09900"/></linearGradient></defs></svg>