<svg width="100" height="100" viewBox="0 0 100 100" fill="none" xmlns="http://www.w3.org/2000/svg">
<g clip-path="url(#clip0_149_1403)">
<path fill-rule="evenodd" clip-rule="evenodd" d="M57.7 23C69.4 23 79.4 31.6 81.3 42.9C87.5 44.5 92 50.2 92 56.8C92 64.7 85.5 71.1 77.6 71.1H61.3625C60.9568 70.0514 60.2664 69.2847 59.2 68.8L55.2 67.1L57.4 54.8C57.8 52.9 56.6 51 54.8 50.3C54.4 50.1 54 50 53.6 50C52.2 50 50.8 50.8 50.1 52.1L39.7718 71.1H21.9C18 71.1 14.3 69.6 11.6 66.9C8.7 64.2 7.1 60.5 7 56.4V56.2C7 52.4 8.5 48.8 11.2 46C14 43.1 17.8 41.5 21.9 41.5C22.5 41.5 23 41.5 23.6 41.6C25 37.9 28.6 35.4 32.8 35.4C34 35.4 35.2 35.6 36.4 36.1C40.4 28.1 48.6 23 57.7 23Z" fill="#999999"/>
<g opacity="0.6">
<path fill-rule="evenodd" clip-rule="evenodd" d="M57.7 23C69.4 23 79.4 31.6 81.3 42.9C87.5 44.5 92 50.2 92 56.8C92 64.7 85.5 71.1 77.6 71.1H61.3625C60.9568 70.0514 60.2664 69.2847 59.2 68.8L55.2 67.1L57.4 54.8C57.8 52.9 56.6 51 54.8 50.3C54.4 50.1 54 50 53.6 50C52.2 50 50.8 50.8 50.1 52.1L39.7718 71.1H21.9C18 71.1 14.3 69.6 11.6 66.9C8.7 64.2 7.1 60.5 7 56.4V56.2C7 52.4 8.5 48.8 11.2 46C14 43.1 17.8 41.5 21.9 41.5C22.5 41.5 23 41.5 23.6 41.6C25 37.9 28.6 35.4 32.8 35.4C34 35.4 35.2 35.6 36.4 36.1C40.4 28.1 48.6 23 57.7 23Z" fill="url(#paint0_linear_149_1403)" style="mix-blend-mode:multiply"/>
</g>
<path d="M85.5 99C85.2 99 84.8 98.9 84.5 98.8C83.2 98.2 82.7 96.8 83.2 95.5L86.7 87.5C87.3 86.2 88.7 85.7 90 86.2C91.3 86.8 91.8 88.2 91.3 89.5L87.8 97.5C87.4 98.5 86.5 99 85.5 99Z" fill="#006EDB"/>
<path d="M32.5 99C32.2 99 31.8 98.9 31.5 98.8C30.2 98.2 29.7 96.8 30.2 95.5L33.7 87.5C34.3 86.2 35.7 85.7 37 86.2C38.3 86.8 38.8 88.2 38.3 89.5L34.8 97.5C34.4 98.5 33.5 99 32.5 99Z" fill="#006EDB"/>
<path d="M59.5 90C59.2 90 58.8 89.9 58.5 89.8C57.2 89.2 56.7 87.8 57.2 86.5L60.7 78.5C61.3 77.2 62.7 76.7 64 77.2C65.3 77.8 65.8 79.2 65.3 80.5L61.8 88.5C61.4 89.5 60.5 90 59.5 90Z" fill="#006EDB"/>
<path d="M71.5 90C71.2 90 70.8 89.9 70.5 89.8C69.2 89.2 68.7 87.8 69.2 86.5L72.7 78.5C73.3 77.2 74.7 76.7 76 77.2C77.3 77.8 77.8 79.2 77.3 80.5L73.8 88.5C73.4 89.5 72.5 90 71.5 90Z" fill="#006EDB"/>
<path d="M21.5 90C21.2 90 20.8 89.9 20.5 89.8C19.2 89.2 18.7 87.8 19.2 86.5L22.7 78.5C23.3 77.2 24.7 76.7 26 77.2C27.3 77.8 27.8 79.2 27.3 80.5L23.8 88.5C23.4 89.5 22.5 90 21.5 90Z" fill="#006EDB"/>
<path fill-rule="evenodd" clip-rule="evenodd" d="M50.8 69.4L53.6 54L43 73.5L50.1 76.5L45.5 94L57.7 72.4L50.8 69.4Z" fill="#FF9D00"/>
</g>
<defs>
<linearGradient id="paint0_linear_149_1403" x1="47.5" y1="38.5" x2="49.5" y2="71.1" gradientUnits="userSpaceOnUse">
<stop offset="0.484375" stop-color="white" stop-opacity="0"/>
<stop offset="1" stop-color="#B3B2B2"/>
</linearGradient>
<clipPath id="clip0_149_1403">
<rect width="100" height="100" fill="white"/>
</clipPath>
</defs>
</svg>
