<svg width="100" height="100" viewBox="0 0 100 100" fill="none" xmlns="http://www.w3.org/2000/svg">
<g clip-path="url(#clip0_149_1460)">
<path fill-rule="evenodd" clip-rule="evenodd" d="M81.3 42.9C79.4 31.6 69.4 23 57.7 23C48.6 23 40.4 28.1 36.4 36.1C35.2 35.6 34 35.4 32.8 35.4C28.6 35.4 25 37.9 23.6 41.6C23 41.5 22.5 41.5 21.9 41.5C17.8 41.5 14 43.1 11.2 46C8.5 48.8 7 52.4 7 56.2V56.4C7.1 60.5 8.7 64.2 11.6 66.9C14.3 69.6 18 71.1 21.9 71.1H77.6C85.5 71.1 92 64.7 92 56.8C92 50.2 87.5 44.5 81.3 42.9Z" fill="#CCCCCC"/>
<g opacity="0.6">
<path fill-rule="evenodd" clip-rule="evenodd" d="M81.3 42.9C79.4 31.6 69.4 23 57.7 23C48.6 23 40.4 28.1 36.4 36.1C35.2 35.6 34 35.4 32.8 35.4C28.6 35.4 25 37.9 23.6 41.6C23 41.5 22.5 41.5 21.9 41.5C17.8 41.5 14 43.1 11.2 46C8.5 48.8 7 52.4 7 56.2V56.4C7.1 60.5 8.7 64.2 11.6 66.9C14.3 69.6 18 71.1 21.9 71.1H77.6C85.5 71.1 92 64.7 92 56.8C92 50.2 87.5 44.5 81.3 42.9Z" fill="url(#paint0_linear_149_1460)" style="mix-blend-mode:multiply"/>
</g>
<path d="M40.7 92.5H37.9L39.3 90C39.7 89.4 39.5 88.5 38.8 88.2C38.1 87.8 37.3 88 36.9 88.7L35.5 91.1L34.1 88.7C33.7 88 32.9 87.8 32.3 88.2C31.9 88.4 31.7 88.7 31.6 89C31.5 89.3 31.6 89.7 31.7 90L33.1 92.4H30.4C29.6 92.5 29 93.1 29 93.8C29 94.5 29.6 95.2 30.4 95.2H33.2L31.8 97.6C31.6 97.9 31.6 98.3 31.7 98.6C31.8 98.9 32 99.2 32.3 99.4C32.9 99.8 33.8 99.5 34.1 98.9L35.5 96.5L36.9 99C37.1 99.4 37.6 99.7 38.1 99.7C38.3 99.7 38.6 99.6 38.8 99.5C39.4 99.1 39.7 98.3 39.3 97.7L37.9 95.2H40.7C41.4 95.2 42.1 94.6 42.1 93.8C42.1 93 41.4 92.5 40.7 92.5Z" fill="#00B8F1"/>
<path d="M69.7 83.5H66.9L68.3 81C68.7 80.4 68.5 79.5 67.8 79.2C67.1 78.8 66.3 79 65.9 79.7L64.5 82.1L63.1 79.7C62.7 79 61.9 78.8 61.3 79.2C60.9 79.4 60.7 79.7 60.6 80C60.5 80.3 60.6 80.7 60.7 81L62.1 83.4H59.4C58.6 83.5 58 84.1 58 84.8C58 85.5 58.6 86.2 59.4 86.2H62.2L60.8 88.6C60.6 88.9 60.6 89.3 60.7 89.6C60.8 89.9 61 90.2 61.3 90.4C61.9 90.8 62.8 90.5 63.1 89.9L64.5 87.5L65.9 90C66.1 90.4 66.6 90.7 67.1 90.7C67.3 90.7 67.6 90.6 67.8 90.5C68.4 90.1 68.7 89.3 68.3 88.7L66.9 86.2H69.7C70.4 86.2 71.1 85.6 71.1 84.8C71.1 84 70.4 83.5 69.7 83.5Z" fill="#00B8F1"/>
</g>
<defs>
<linearGradient id="paint0_linear_149_1460" x1="47.5" y1="38.5" x2="49.5" y2="71.1" gradientUnits="userSpaceOnUse">
<stop offset="0.484375" stop-color="white" stop-opacity="0"/>
<stop offset="1" stop-color="#B3B2B2"/>
</linearGradient>
<clipPath id="clip0_149_1460">
<rect width="100" height="100" fill="white"/>
</clipPath>
</defs>
</svg>
