<svg width="120" height="120" viewBox="0 0 120 120" fill="none" xmlns="http://www.w3.org/2000/svg">
<g clip-path="url(#clip0_1965_4979)" filter="url(#filter0_d_1965_4979)">
<path d="M85.6 63.9L101 57L85.6 50.2L95.4 36.5L78.7 38.3L80.4 21.5L66.8 31.4L60 16L53.2 31.4L39.5 21.5L41.3 38.2L24.5 36.5L34.4 50.1L19 57L34.4 63.8L24.5 77.5L41.2 75.7L39.5 92.5L53.1 82.6L60 98L66.8 82.6L80.5 92.4L78.7 75.7L95.5 77.4L85.6 63.9Z" fill="url(#paint0_radial_1965_4979)" stroke="#AE6D00" stroke-width="2"/>
<path d="M38.2835 69.5087C45.1853 81.417 60.4893 85.5198 72.4924 78.7151C84.4956 71.9104 88.4966 56.4997 81.6948 44.4913C74.793 32.583 59.489 28.4802 47.4859 35.2849C35.5828 42.1897 31.4817 57.6004 38.2835 69.5087Z" fill="#FFD348"/>
<path d="M41.7994 67.4934C47.5982 77.4913 60.4955 80.9905 70.4934 75.1917C80.4913 69.393 83.9905 56.4957 78.1918 46.4978C72.393 36.4999 59.4957 33.0006 49.4978 38.7994C39.4999 44.5982 36.0006 57.4955 41.7994 67.4934Z" fill="url(#paint1_linear_1965_4979)"/>
</g>
<defs>
<filter id="filter0_d_1965_4979" x="0" y="0" width="120" height="120" filterUnits="userSpaceOnUse" color-interpolation-filters="sRGB">
<feFlood flood-opacity="0" result="BackgroundImageFix"/>
<feColorMatrix in="SourceAlpha" type="matrix" values="0 0 0 0 0 0 0 0 0 0 0 0 0 0 0 0 0 0 127 0" result="hardAlpha"/>
<feMorphology radius="3" operator="dilate" in="SourceAlpha" result="effect1_dropShadow_1965_4979"/>
<feOffset dy="3"/>
<feGaussianBlur stdDeviation="3.5"/>
<feColorMatrix type="matrix" values="0 0 0 0 0 0 0 0 0 0 0 0 0 0 0 0 0 0 0.35 0"/>
<feBlend mode="normal" in2="BackgroundImageFix" result="effect1_dropShadow_1965_4979"/>
<feBlend mode="normal" in="SourceGraphic" in2="effect1_dropShadow_1965_4979" result="shape"/>
</filter>
<radialGradient id="paint0_radial_1965_4979" cx="0" cy="0" r="1" gradientUnits="userSpaceOnUse" gradientTransform="translate(60 57) scale(41)">
<stop offset="0.5143" stop-color="#D6B849"/>
<stop offset="0.6523" stop-color="#FFCE47"/>
<stop offset="1" stop-color="#FFDB73"/>
</radialGradient>
<linearGradient id="paint1_linear_1965_4979" x1="46.4958" y1="40.9076" x2="73.4952" y2="73.0842" gradientUnits="userSpaceOnUse">
<stop stop-color="#FFAF22"/>
<stop offset="0.9897" stop-color="#F09900"/>
</linearGradient>
<clipPath id="clip0_1965_4979">
<rect width="100" height="100" fill="white" transform="translate(10 7)"/>
</clipPath>
</defs>
</svg>
