<svg width="120" height="120" viewBox="0 0 120 120" fill="none" xmlns="http://www.w3.org/2000/svg">
<g clip-path="url(#clip0_1965_4980)" filter="url(#filter0_d_1965_4980)">
<path fill-rule="evenodd" clip-rule="evenodd" d="M101 48L85.6 54.9L95.5 68.4L78.7 66.7L80.5 83.4L66.8 73.6L60 89L53.1 73.6L39.5 83.5L41.2 66.7L24.5 68.5L34.4 54.8L19 48H60H101Z" fill="url(#paint0_radial_1965_4980)" stroke="#AE6D00" stroke-width="2"/>
<path fill-rule="evenodd" clip-rule="evenodd" d="M72.4927 69.7151C60.4895 76.5198 45.1856 72.417 38.2837 60.5087C36.0379 56.5769 34.9805 52.2632 35.0003 48H85.0003C85.0051 56.6949 80.5532 65.1455 72.4927 69.7151Z" fill="#FFD348"/>
<path fill-rule="evenodd" clip-rule="evenodd" d="M39.0001 48C38.9872 51.5754 39.8881 55.1948 41.8038 58.4978C47.6026 68.4957 60.4998 71.995 70.4978 66.1962C77.1926 62.3131 80.9735 55.247 80.9998 48H39.0001Z" fill="url(#paint1_linear_1965_4980)"/>
<path fill-rule="evenodd" clip-rule="evenodd" d="M15 46.5C15 45.6716 15.6716 45 16.5 45H103.5C104.328 45 105 45.6716 105 46.5C105 47.3284 104.328 48 103.5 48H16.5C15.6716 48 15 47.3284 15 46.5Z" fill="#171F28"/>
</g>
<defs>
<filter id="filter0_d_1965_4980" x="0" y="0" width="120" height="120" filterUnits="userSpaceOnUse" color-interpolation-filters="sRGB">
<feFlood flood-opacity="0" result="BackgroundImageFix"/>
<feColorMatrix in="SourceAlpha" type="matrix" values="0 0 0 0 0 0 0 0 0 0 0 0 0 0 0 0 0 0 127 0" result="hardAlpha"/>
<feMorphology radius="3" operator="dilate" in="SourceAlpha" result="effect1_dropShadow_1965_4980"/>
<feOffset dy="3"/>
<feGaussianBlur stdDeviation="3.5"/>
<feColorMatrix type="matrix" values="0 0 0 0 0 0 0 0 0 0 0 0 0 0 0 0 0 0 0.35 0"/>
<feBlend mode="normal" in2="BackgroundImageFix" result="effect1_dropShadow_1965_4980"/>
<feBlend mode="normal" in="SourceGraphic" in2="effect1_dropShadow_1965_4980" result="shape"/>
</filter>
<radialGradient id="paint0_radial_1965_4980" cx="0" cy="0" r="1" gradientUnits="userSpaceOnUse" gradientTransform="translate(60 48) scale(41)">
<stop offset="0.5143" stop-color="#D6B849"/>
<stop offset="0.6523" stop-color="#FFCE47"/>
<stop offset="1" stop-color="#FFDB73"/>
</radialGradient>
<linearGradient id="paint1_linear_1965_4980" x1="46.5002" y1="31.912" x2="73.4995" y2="64.0886" gradientUnits="userSpaceOnUse">
<stop stop-color="#FFAF22"/>
<stop offset="0.9897" stop-color="#F09900"/>
</linearGradient>
<clipPath id="clip0_1965_4980">
<rect width="100" height="100" fill="white" transform="translate(10 7)"/>
</clipPath>
</defs>
</svg>
