<svg width="120" height="120" viewBox="0 0 120 120" fill="none" xmlns="http://www.w3.org/2000/svg">
<g clip-path="url(#clip0_1965_4982)" filter="url(#filter0_d_1965_4982)">
<path fill-rule="evenodd" clip-rule="evenodd" d="M89.6983 44.4707L95.4 36.5L78.7 38.3L80.4 21.5L66.8 31.4L60 16L53.2 31.4L39.5 21.5L41.3 38.2L24.5 36.5L34.4 50.1L19 57L34.4 63.8L24.5 77.5L41.2 75.7L39.5 92.5L53.1 82.6L60 98L66.8 82.6L80.5 92.4L79.1501 79.8761H63.4664C60.2444 79.8761 57.2083 78.6988 54.9157 76.4682C52.4992 74.1756 51.1979 71.0775 51.136 67.7315V67.6076C51.136 64.4475 52.3752 61.4733 54.6059 59.2427C56.7745 57.012 59.6248 55.7108 62.7229 55.525C64.3959 53.1084 67.1842 51.6833 70.2203 51.6833H70.9019C74.2479 46.9742 79.7625 44 85.6489 44C87.0332 44 88.39 44.1629 89.6983 44.4707Z" fill="url(#paint0_radial_1965_4982)" stroke="#AE6D00" stroke-width="2"/>
<path fill-rule="evenodd" clip-rule="evenodd" d="M70.1784 79.8761C58.5871 84.9697 44.7488 80.6638 38.2835 69.5087C31.4817 57.6004 35.5828 42.1897 47.4859 35.2849C59.477 28.487 74.7624 32.5748 81.6741 44.4556C77.344 45.4575 73.4795 48.0556 70.9019 51.6833H70.2203C67.1842 51.6833 64.3959 53.1084 62.7229 55.525C59.6248 55.7108 56.7745 57.012 54.6059 59.2427C52.3752 61.4733 51.136 64.4475 51.136 67.6076V67.7315C51.1979 71.0775 52.4992 74.1756 54.9157 76.4682C57.2083 78.6988 60.2444 79.8761 63.4664 79.8761H70.1784Z" fill="#FFD348"/>
<path fill-rule="evenodd" clip-rule="evenodd" d="M56.3565 77.6654C50.4543 76.6101 45.0272 73.0585 41.7994 67.4934C36.0006 57.4955 39.4999 44.5982 49.4978 38.7994C59.2722 33.1302 71.8179 36.3481 77.7924 45.8372C75.0639 47.1739 72.6775 49.1843 70.9019 51.6833H70.2203C67.1842 51.6833 64.3959 53.1085 62.7229 55.525C59.6248 55.7109 56.7745 57.0121 54.6059 59.2427C52.3752 61.4734 51.136 64.4475 51.136 67.6076V67.7315C51.1979 71.0775 52.4992 74.1756 54.9157 76.4682C55.3684 76.9087 55.8501 77.3081 56.3565 77.6654Z" fill="url(#paint1_linear_1965_4982)"/>
<path d="M55.6495 60.2033L55.6488 60.2041C53.6927 62.2326 52.5841 64.8687 52.5841 67.6695V67.7934V67.8136L52.5846 67.8337C52.6565 70.7814 53.8112 73.4955 55.9385 75.487C57.9291 77.4663 60.6367 78.5519 63.4664 78.5519H97.9794C103.771 78.5519 108.552 73.8625 108.552 68.0413C108.552 63.5637 105.733 59.6462 101.697 58.1485C99.9877 50.8589 93.3573 45.4481 85.6489 45.4481C79.8603 45.4481 74.5914 48.4491 71.6488 53.262C71.1672 53.1711 70.69 53.1314 70.2203 53.1314C67.3889 53.1314 64.8651 54.5986 63.5146 56.9111C63.51 56.9111 63.5054 56.9111 63.5008 56.9111C63.4892 56.9111 63.4778 56.9111 63.4664 56.9111C60.4862 56.9111 57.7007 58.0788 55.6495 60.2033Z" fill="#DDDDDD" stroke="#56616C" stroke-width="3.3"/>
<g opacity="0.6">
<path fill-rule="evenodd" clip-rule="evenodd" d="M100.272 59.4285C99.0947 52.4268 92.8985 47.0981 85.6489 47.0981C80.0103 47.0981 74.9294 50.2582 72.451 55.2151C71.7074 54.9053 70.9639 54.7814 70.2203 54.7814C67.6179 54.7814 65.3873 56.3304 64.5198 58.623C64.148 58.5611 63.8382 58.5611 63.4664 58.5611C60.926 58.5611 58.5714 59.5525 56.8365 61.3494C55.1635 63.0843 54.2341 65.315 54.2341 67.6695V67.7934C54.296 70.3339 55.2874 72.6265 57.0843 74.2995C58.7573 75.9724 61.0499 76.9019 63.4664 76.9019H97.9794C102.874 76.9019 106.902 72.9363 106.902 68.0413C106.902 63.9518 104.114 60.4199 100.272 59.4285Z" fill="url(#paint2_linear_1965_4982)" style="mix-blend-mode:multiply"/>
</g>
<g style="mix-blend-mode:multiply" opacity="0.3" filter="url(#filter1_f_1965_4982)">
<path d="M68.1756 72.5026C69.2826 72.5026 83.572 71.7142 84.5831 71.2634C85.965 70.6473 83.1019 66.9435 84.5831 66.6352C85.2519 66.496 86.2353 66.0605 86.2353 66.0605C86.2353 66.0605 88.9325 65.0676 89.3976 65.0676C89.8627 65.0676 89.6296 63.2315 89.4844 62.0876L89.3976 61.2693C89.3976 60.7302 87.7916 59.6125 87.5387 58.2517C87.3629 57.3055 87.8013 56.0306 87.7096 55.7933C87.7096 55.7933 87.6782 55.7755 87.6874 55.7732C87.6964 55.771 87.7038 55.778 87.7096 55.7933C87.7794 55.826 88.2811 55.996 88.2811 55.996C89.488 56.405 91.3971 57.0736 93.1153 58.2517C94.1429 58.9563 95.5573 60.305 95.5573 60.305C95.5573 60.305 96.5764 61.0932 96.833 61.3498C97.4527 61.9694 99.3115 63.8283 100.551 63.8283H103.649L105.043 64.8135L105.353 66.8025C105.353 71.6975 101.325 75.6631 96.4303 75.6631H61.3597C61.3597 75.6631 64.148 72.5026 68.1756 72.5026Z" fill="#B6B6B6"/>
</g>
</g>
<defs>
<filter id="filter0_d_1965_4982" x="0" y="0" width="120" height="120" filterUnits="userSpaceOnUse" color-interpolation-filters="sRGB">
<feFlood flood-opacity="0" result="BackgroundImageFix"/>
<feColorMatrix in="SourceAlpha" type="matrix" values="0 0 0 0 0 0 0 0 0 0 0 0 0 0 0 0 0 0 127 0" result="hardAlpha"/>
<feMorphology radius="3" operator="dilate" in="SourceAlpha" result="effect1_dropShadow_1965_4982"/>
<feOffset dy="3"/>
<feGaussianBlur stdDeviation="3.5"/>
<feColorMatrix type="matrix" values="0 0 0 0 0 0 0 0 0 0 0 0 0 0 0 0 0 0 0.35 0"/>
<feBlend mode="normal" in2="BackgroundImageFix" result="effect1_dropShadow_1965_4982"/>
<feBlend mode="normal" in="SourceGraphic" in2="effect1_dropShadow_1965_4982" result="shape"/>
</filter>
<filter id="filter1_f_1965_4982" x="57.0224" y="51.4355" width="52.6678" height="28.565" filterUnits="userSpaceOnUse" color-interpolation-filters="sRGB">
<feFlood flood-opacity="0" result="BackgroundImageFix"/>
<feBlend mode="normal" in="SourceGraphic" in2="BackgroundImageFix" result="shape"/>
<feGaussianBlur stdDeviation="2.16867" result="effect1_foregroundBlur_1965_4982"/>
</filter>
<radialGradient id="paint0_radial_1965_4982" cx="0" cy="0" r="1" gradientUnits="userSpaceOnUse" gradientTransform="translate(57.2 57) scale(38.2 41)">
<stop offset="0.5143" stop-color="#D6B849"/>
<stop offset="0.6523" stop-color="#FFCE47"/>
<stop offset="1" stop-color="#FFDB73"/>
</radialGradient>
<linearGradient id="paint1_linear_1965_4982" x1="46.4958" y1="40.9076" x2="73.4951" y2="73.0842" gradientUnits="userSpaceOnUse">
<stop stop-color="#FFAF22"/>
<stop offset="0.9897" stop-color="#F09900"/>
</linearGradient>
<linearGradient id="paint2_linear_1965_4982" x1="79.3287" y1="56.7022" x2="80.568" y2="76.9019" gradientUnits="userSpaceOnUse">
<stop offset="0.484375" stop-color="white" stop-opacity="0"/>
<stop offset="1" stop-color="#B3B2B2"/>
</linearGradient>
<clipPath id="clip0_1965_4982">
<rect width="100" height="100" fill="white" transform="translate(10 7)"/>
</clipPath>
</defs>
</svg>
