<svg width="101" height="100" viewBox="0 0 101 100" fill="none" xmlns="http://www.w3.org/2000/svg">
<path fill-rule="evenodd" clip-rule="evenodd" d="M79.6983 37.4707L85.4 29.5L68.7 31.3L70.4 14.5L56.8 24.4L50 9L43.2 24.4L29.5 14.5L31.3 31.2L14.5 29.5L24.4 43.1L9 50L24.4 56.8L14.5 70.5L31.2 68.7L29.5 85.5L43.1 75.6L50 91L56.8 75.6L70.5 85.4L69.1501 72.8761H53.4664C50.2444 72.8761 47.2083 71.6988 44.9157 69.4682C42.4992 67.1756 41.1979 64.0775 41.136 60.7315V60.6076C41.136 57.4475 42.3752 54.4733 44.6059 52.2427C46.7745 50.012 49.6248 48.7108 52.7229 48.525C54.3959 46.1084 57.1842 44.6833 60.2203 44.6833H60.9019C64.2479 39.9742 69.7625 37 75.6489 37C77.0332 37 78.39 37.1629 79.6983 37.4707Z" fill="url(#paint0_radial_1965_4982)" stroke="#C37F0E" stroke-width="4"/>
<path fill-rule="evenodd" clip-rule="evenodd" d="M60.1784 72.8761C48.5871 77.9697 34.7488 73.6638 28.2835 62.5087C21.4817 50.6004 25.5828 35.1897 37.4859 28.2849C49.477 21.487 64.7624 25.5748 71.6741 37.4556C67.344 38.4575 63.4795 41.0556 60.9019 44.6833H60.2203C57.1842 44.6833 54.3959 46.1084 52.7229 48.525C49.6248 48.7108 46.7745 50.012 44.6059 52.2427C42.3752 54.4733 41.136 57.4475 41.136 60.6076V60.7315C41.1979 64.0775 42.4992 67.1756 44.9157 69.4682C47.2083 71.6988 50.2444 72.8761 53.4664 72.8761H60.1784Z" fill="#FFD348"/>
<path fill-rule="evenodd" clip-rule="evenodd" d="M46.3565 70.6654C40.4543 69.6101 35.0272 66.0585 31.7994 60.4934C26.0006 50.4955 29.4999 37.5982 39.4978 31.7994C49.2722 26.1302 61.8179 29.3481 67.7924 38.8372C65.0639 40.1739 62.6775 42.1843 60.9019 44.6833H60.2203C57.1842 44.6833 54.3959 46.1085 52.7229 48.525C49.6248 48.7109 46.7745 50.0121 44.6059 52.2427C42.3752 54.4734 41.136 57.4475 41.136 60.6076V60.7315C41.1979 64.0775 42.4992 67.1756 44.9157 69.4682C45.3684 69.9087 45.8501 70.3081 46.3565 70.6654Z" fill="url(#paint1_linear_1965_4982)"/>
<path d="M45.6495 53.2033L45.6488 53.2041C43.6927 55.2326 42.5841 57.8687 42.5841 60.6695V60.7934V60.8136L42.5846 60.8337C42.6565 63.7814 43.8112 66.4955 45.9385 68.487C47.9291 70.4663 50.6367 71.5519 53.4664 71.5519H87.9794C93.7706 71.5519 98.5519 66.8625 98.5519 61.0413C98.5519 56.5637 95.7326 52.6462 91.6967 51.1485C89.9877 43.8589 83.3573 38.4481 75.6489 38.4481C69.8603 38.4481 64.5914 41.4491 61.6488 46.262C61.1672 46.1711 60.69 46.1314 60.2203 46.1314C57.3889 46.1314 54.8651 47.5986 53.5146 49.9111C53.51 49.9111 53.5054 49.9111 53.5008 49.9111C53.4892 49.9111 53.4778 49.9111 53.4664 49.9111C50.4862 49.9111 47.7007 51.0788 45.6495 53.2033Z" fill="#DDDDDD" stroke="#606E7C" stroke-width="3.3"/>
<g opacity="0.6">
<path fill-rule="evenodd" clip-rule="evenodd" d="M90.272 52.4285C89.0947 45.4268 82.8985 40.0981 75.6489 40.0981C70.0103 40.0981 64.9294 43.2582 62.451 48.2151C61.7074 47.9053 60.9639 47.7814 60.2203 47.7814C57.6179 47.7814 55.3873 49.3304 54.5198 51.623C54.148 51.5611 53.8382 51.5611 53.4664 51.5611C50.926 51.5611 48.5714 52.5525 46.8365 54.3494C45.1635 56.0843 44.2341 58.315 44.2341 60.6695V60.7934C44.296 63.3339 45.2874 65.6265 47.0843 67.2995C48.7573 68.9724 51.0499 69.9019 53.4664 69.9019H87.9794C92.8744 69.9019 96.9019 65.9363 96.9019 61.0413C96.9019 56.9518 94.1136 53.4199 90.272 52.4285Z" fill="url(#paint2_linear_1965_4982)" style="mix-blend-mode:multiply"/>
</g>
<g style="mix-blend-mode:multiply" opacity="0.3" filter="url(#filter0_f_1965_4982)">
<path d="M58.1756 65.5026C59.2826 65.5026 73.572 64.7142 74.5831 64.2634C75.965 63.6473 73.1019 59.9435 74.5831 59.6352C75.2519 59.496 76.2353 59.0605 76.2353 59.0605C76.2353 59.0605 78.9325 58.0676 79.3976 58.0676C79.8627 58.0676 79.6296 56.2315 79.4844 55.0876L79.3976 54.2693C79.3976 53.7302 77.7916 52.6125 77.5387 51.2517C77.3629 50.3055 77.8013 49.0306 77.7096 48.7933C77.7096 48.7933 77.6782 48.7755 77.6874 48.7732C77.6964 48.771 77.7038 48.778 77.7096 48.7933C77.7794 48.826 78.2811 48.996 78.2811 48.996C79.488 49.405 81.3971 50.0736 83.1153 51.2517C84.1429 51.9563 85.5573 53.305 85.5573 53.305C85.5573 53.305 86.5764 54.0932 86.833 54.3498C87.4527 54.9694 89.3115 56.8283 90.5508 56.8283H93.6489L95.043 57.8135L95.3528 59.8025C95.3528 64.6975 91.3253 68.6631 86.4303 68.6631H51.3597C51.3597 68.6631 54.148 65.5026 58.1756 65.5026Z" fill="#B6B6B6"/>
</g>
<defs>
<filter id="filter0_f_1965_4982" x="47.0224" y="44.4355" width="52.6678" height="28.565" filterUnits="userSpaceOnUse" color-interpolation-filters="sRGB">
<feFlood flood-opacity="0" result="BackgroundImageFix"/>
<feBlend mode="normal" in="SourceGraphic" in2="BackgroundImageFix" result="shape"/>
<feGaussianBlur stdDeviation="2.16867" result="effect1_foregroundBlur_1965_4982"/>
</filter>
<radialGradient id="paint0_radial_1965_4982" cx="0" cy="0" r="1" gradientUnits="userSpaceOnUse" gradientTransform="translate(47.2 50) scale(38.2 41)">
<stop offset="0.5143" stop-color="#D6B849"/>
<stop offset="0.6523" stop-color="#FFCE47"/>
<stop offset="1" stop-color="#FFDB73"/>
</radialGradient>
<linearGradient id="paint1_linear_1965_4982" x1="36.4958" y1="33.9076" x2="63.4951" y2="66.0842" gradientUnits="userSpaceOnUse">
<stop stop-color="#FFAF22"/>
<stop offset="0.9897" stop-color="#F09900"/>
</linearGradient>
<linearGradient id="paint2_linear_1965_4982" x1="69.3287" y1="49.7022" x2="70.568" y2="69.9019" gradientUnits="userSpaceOnUse">
<stop offset="0.484375" stop-color="white" stop-opacity="0"/>
<stop offset="1" stop-color="#B3B2B2"/>
</linearGradient>
</defs>
</svg>
