<svg width="101" height="100" viewBox="0 0 101 100" fill="none" xmlns="http://www.w3.org/2000/svg">
<path fill-rule="evenodd" clip-rule="evenodd" d="M64.2478 41H9L24.4 47.8L14.5 61.5L31.2 59.7L29.5 76.5L42.7124 66.8822C41.6237 65.0478 41.041 62.9438 41 60.7315V60.6076C41 57.4475 42.2392 54.4733 44.4699 52.2427C46.6386 50.012 49.4888 48.7108 52.5869 48.525C54.2599 46.1084 57.0482 44.6833 60.0843 44.6833H60.7659C61.7531 43.2939 62.9291 42.0555 64.2478 41ZM44.0441 68.7071L50 82L54.0287 72.8761H53.3305C50.1084 72.8761 47.0723 71.6988 44.7797 69.4682C44.5217 69.2234 44.2765 68.9695 44.0441 68.7071ZM65.5737 72.8761L70.5 76.4L70.1202 72.8761H65.5737ZM88.1821 42.2626C87.7341 41.8179 87.2626 41.3964 86.77 41H91L88.1821 42.2626Z" fill="url(#paint0_radial_1965_4983)" stroke="#C37F0E" stroke-width="3"/>
<path fill-rule="evenodd" clip-rule="evenodd" d="M69.6587 38H6.5C5.67157 38 5 38.6716 5 39.5C5 40.3284 5.67157 41 6.5 41H64.2478C65.8652 39.7053 67.6973 38.6857 69.6587 38ZM86.77 41C85.1688 39.7117 83.3439 38.6888 81.376 38H93.5C94.3284 38 95 38.6716 95 39.5C95 40.3284 94.3284 41 93.5 41H86.77Z" fill="#171F28"/>
<path fill-rule="evenodd" clip-rule="evenodd" d="M64.2478 41C62.9291 42.0555 61.7531 43.2939 60.7659 44.6833H60.0843C57.0482 44.6833 54.2599 46.1084 52.5869 48.525C49.4888 48.7108 46.6386 50.012 44.4699 52.2427C42.2392 54.4733 41 57.4475 41 60.6076V60.7315C41.0246 62.06 41.2446 63.3495 41.6522 64.565C36.2045 62.6516 31.392 58.8717 28.2837 53.5087C26.0379 49.5769 24.9805 45.2632 25.0003 41H64.2478Z" fill="#FFD348"/>
<path fill-rule="evenodd" clip-rule="evenodd" d="M64.2478 41C62.9291 42.0555 61.7531 43.2939 60.7659 44.6833H60.0843C57.0482 44.6833 54.2599 46.1084 52.5869 48.525C49.4888 48.7108 46.6386 50.012 44.4699 52.2427C42.3916 54.321 41.1739 57.0447 41.0173 59.9629C37.2803 58.197 34.0225 55.3231 31.8038 51.4978C29.8881 48.1948 28.9872 44.5754 29.0001 41H64.2478Z" fill="url(#paint1_linear_1965_4983)"/>
<path d="M45.6495 53.2033L45.6488 53.2041C43.6927 55.2326 42.5841 57.8687 42.5841 60.6695V60.7934V60.8136L42.5846 60.8337C42.6565 63.7814 43.8112 66.4955 45.9385 68.487C47.9291 70.4663 50.6367 71.5519 53.4665 71.5519H87.9794C93.7706 71.5519 98.5519 66.8625 98.5519 61.0413C98.5519 56.5637 95.7326 52.6462 91.6968 51.1485C89.9877 43.8589 83.3573 38.4481 75.6489 38.4481C69.8603 38.4481 64.5914 41.4491 61.6488 46.262C61.1672 46.1711 60.6901 46.1314 60.2203 46.1314C57.389 46.1314 54.8652 47.5986 53.5146 49.9111C53.51 49.9111 53.5054 49.9111 53.5008 49.9111C53.4893 49.9111 53.4778 49.9111 53.4665 49.9111C50.4862 49.9111 47.7008 51.0788 45.6495 53.2033Z" fill="#DDDDDD" stroke="#606E7C" stroke-width="3.3"/>
<g opacity="0.6">
<path fill-rule="evenodd" clip-rule="evenodd" d="M90.272 52.4285C89.0947 45.4268 82.8985 40.0981 75.6489 40.0981C70.0103 40.0981 64.9295 43.2582 62.451 48.2151C61.7074 47.9053 60.9639 47.7814 60.2203 47.7814C57.6179 47.7814 55.3873 49.3304 54.5198 51.623C54.148 51.5611 53.8382 51.5611 53.4665 51.5611C50.926 51.5611 48.5714 52.5525 46.8365 54.3494C45.1635 56.0843 44.2341 58.315 44.2341 60.6695V60.7934C44.2961 63.3339 45.2875 65.6265 47.0844 67.2995C48.7573 68.9724 51.0499 69.9019 53.4665 69.9019H87.9794C92.8744 69.9019 96.9019 65.9363 96.9019 61.0413C96.9019 56.9518 94.1136 53.4199 90.272 52.4285Z" fill="url(#paint2_linear_1965_4983)" style="mix-blend-mode:multiply"/>
</g>
<g style="mix-blend-mode:multiply" opacity="0.3" filter="url(#filter0_f_1965_4983)">
<path d="M58.1756 65.5026C59.2826 65.5026 73.572 64.7142 74.5831 64.2634C75.965 63.6473 73.1019 59.9435 74.5831 59.6352C75.252 59.496 76.2353 59.0605 76.2353 59.0605C76.2353 59.0605 78.9325 58.0676 79.3976 58.0676C79.8627 58.0676 79.6296 56.2315 79.4844 55.0876L79.3976 54.2693C79.3976 53.7302 77.7916 52.6125 77.5387 51.2517C77.3629 50.3055 77.8013 49.0306 77.7097 48.7933C77.7097 48.7933 77.6782 48.7755 77.6875 48.7732C77.6964 48.771 77.7038 48.778 77.7097 48.7933C77.7794 48.826 78.2811 48.996 78.2811 48.996C79.488 49.405 81.3972 50.0736 83.1153 51.2517C84.1429 51.9563 85.5573 53.305 85.5573 53.305C85.5573 53.305 86.5764 54.0932 86.8331 54.3498C87.4527 54.9694 89.3115 56.8283 90.5508 56.8283H93.6489L95.043 57.8135L95.3529 59.8025C95.3529 64.6975 91.3253 68.6631 86.4303 68.6631H51.3597C51.3597 68.6631 54.148 65.5026 58.1756 65.5026Z" fill="#B6B6B6"/>
</g>
<defs>
<filter id="filter0_f_1965_4983" x="47.0224" y="44.4355" width="52.6678" height="28.565" filterUnits="userSpaceOnUse" color-interpolation-filters="sRGB">
<feFlood flood-opacity="0" result="BackgroundImageFix"/>
<feBlend mode="normal" in="SourceGraphic" in2="BackgroundImageFix" result="shape"/>
<feGaussianBlur stdDeviation="2.16867" result="effect1_foregroundBlur_1965_4983"/>
</filter>
<radialGradient id="paint0_radial_1965_4983" cx="0" cy="0" r="1" gradientUnits="userSpaceOnUse" gradientTransform="translate(50 41) scale(41)">
<stop offset="0.5143" stop-color="#D6B849"/>
<stop offset="0.6523" stop-color="#FFCE47"/>
<stop offset="1" stop-color="#FFDB73"/>
</radialGradient>
<linearGradient id="paint1_linear_1965_4983" x1="36.5002" y1="24.912" x2="63.4995" y2="57.0886" gradientUnits="userSpaceOnUse">
<stop stop-color="#FFAF22"/>
<stop offset="0.9897" stop-color="#F09900"/>
</linearGradient>
<linearGradient id="paint2_linear_1965_4983" x1="69.3288" y1="49.7022" x2="70.568" y2="69.9019" gradientUnits="userSpaceOnUse">
<stop offset="0.484375" stop-color="white" stop-opacity="0"/>
<stop offset="1" stop-color="#B3B2B2"/>
</linearGradient>
</defs>
</svg>
