<svg xmlns="http://www.w3.org/2000/svg" width="101" height="100" fill="none" viewBox="0 0 101 100"><path fill="url(#02n__02n__paint0_linear_1965_4984)" fill-rule="evenodd" d="M48.3 32.3c0-5.2-1.5-10.1-3.9-14.3 11.477 1.465 20.767 9.688 23.827 20.57a18.396 18.396 0 00-7.461 6.113h-.682c-3.036 0-5.824 1.425-7.497 3.842a12.25 12.25 0 00-8.117 3.718A11.765 11.765 0 0041 60.608v.123c.062 3.346 1.363 6.445 3.78 8.737 1.917 1.866 4.355 2.995 6.986 3.314A28.525 28.525 0 0140.7 75C30.2 75 21 69.2 16 60.6c1.2.2 2.4.3 3.7.3 15.8 0 28.6-12.8 28.6-28.6z" clip-rule="evenodd"/><path fill="#DDD" stroke="#606E7C" stroke-width="3.3" d="M45.65 53.203l-.001.001c-1.956 2.029-3.065 4.665-3.065 7.465v.165c.072 2.948 1.227 5.663 3.354 7.654 1.991 1.98 4.699 3.065 7.529 3.065h34.512c5.792 0 10.573-4.69 10.573-10.51 0-4.478-2.82-8.396-6.855-9.894-1.71-7.29-8.34-12.7-16.048-12.7-5.789 0-11.058 3.001-14 7.814a7.684 7.684 0 00-1.429-.13c-2.831 0-5.355 1.467-6.705 3.78h-.048c-2.98 0-5.766 1.167-7.817 3.291z"/><path fill="url(#02n__02n__paint1_linear_1965_4984)" fill-rule="evenodd" d="M90.272 52.428c-1.177-7.001-7.374-12.33-14.623-12.33-5.639 0-10.72 3.16-13.198 8.117a5.715 5.715 0 00-2.23-.434c-2.603 0-4.834 1.55-5.701 3.842-.372-.062-.682-.062-1.053-.062-2.541 0-4.896.992-6.63 2.788-1.674 1.735-2.603 3.966-2.603 6.32v.124c.062 2.54 1.053 4.833 2.85 6.506 1.673 1.673 3.966 2.603 6.383 2.603h34.512c4.895 0 8.923-3.966 8.923-8.86 0-4.09-2.788-7.622-6.63-8.614z" clip-rule="evenodd" style="mix-blend-mode:multiply" opacity=".6"/><g style="mix-blend-mode:multiply" filter="url(#02n__02n__filter0_f_1965_4984)" opacity=".3"><path fill="#B6B6B6" d="M58.176 65.503c1.107 0 15.396-.789 16.407-1.24 1.382-.616-1.481-4.32 0-4.628.669-.139 1.652-.575 1.652-.575s2.698-.992 3.163-.992c.465 0 .232-1.837.086-2.98l-.086-.819c0-.539-1.606-1.657-1.86-3.017-.175-.947.263-2.221.172-2.459 0 0-.032-.017-.022-.02.008-.002.016.005.022.02.07.033.571.203.571.203 1.207.409 3.116 1.078 4.834 2.256 1.028.704 2.442 2.053 2.442 2.053s1.02.788 1.276 1.045c.62.62 2.478 2.478 3.718 2.478h3.098l1.394.985.31 1.99c0 4.895-4.028 8.86-8.923 8.86H51.36s2.788-3.16 6.816-3.16z"/></g><defs><linearGradient id="02n__02n__paint0_linear_1965_4984" x1="27.425" x2="64.181" y1="72.492" y2="28.689" gradientUnits="userSpaceOnUse"><stop stop-color="#686E73"/><stop offset=".989" stop-color="#6A7075"/></linearGradient><linearGradient id="02n__02n__paint1_linear_1965_4984" x1="69.329" x2="70.568" y1="49.702" y2="69.902" gradientUnits="userSpaceOnUse"><stop offset=".484" stop-color="#fff" stop-opacity="0"/><stop offset="1" stop-color="#B3B2B2"/></linearGradient><filter id="02n__02n__filter0_f_1965_4984" width="52.668" height="28.565" x="47.022" y="44.435" color-interpolation-filters="sRGB" filterUnits="userSpaceOnUse"><feFlood flood-opacity="0" result="BackgroundImageFix"/><feBlend in="SourceGraphic" in2="BackgroundImageFix" result="shape"/><feGaussianBlur result="effect1_foregroundBlur_1965_4984" stdDeviation="2.169"/></filter></defs></svg>