<svg width="120" height="120" viewBox="0 0 120 120" fill="none" xmlns="http://www.w3.org/2000/svg">
<g clip-path="url(#clip0_1965_4984)" filter="url(#filter0_d_1965_4984)">
<path fill-rule="evenodd" clip-rule="evenodd" d="M58.3 39.3C58.3 34.1 56.8 29.2 54.4 25C65.8767 26.4651 75.1671 34.6878 78.2268 45.5699C75.2605 46.8984 72.6642 49.0116 70.7659 51.6833H70.0843C67.0482 51.6833 64.2599 53.1084 62.5869 55.525C59.4888 55.7108 56.6386 57.012 54.4699 59.2427C52.2392 61.4733 51 64.4475 51 67.6076V67.7315C51.062 71.0775 52.3632 74.1756 54.7797 76.4682C56.6971 78.3337 59.1345 79.4625 61.7658 79.782C58.3623 81.2106 54.6236 82 50.7 82C40.2 82 31 76.2 26 67.6C27.2 67.8 28.4 67.9 29.7 67.9C45.5 67.9 58.3 55.1 58.3 39.3Z" fill="url(#paint0_linear_1965_4984)"/>
<path d="M55.6495 60.2033L55.6488 60.2041C53.6927 62.2326 52.5841 64.8687 52.5841 67.6695V67.7934V67.8136L52.5846 67.8337C52.6565 70.7814 53.8112 73.4955 55.9385 75.487C57.9291 77.4663 60.6368 78.5519 63.4665 78.5519H97.9794C103.771 78.5519 108.552 73.8625 108.552 68.0413C108.552 63.5637 105.733 59.6462 101.697 58.1485C99.9877 50.8589 93.3573 45.4481 85.6489 45.4481C79.8603 45.4481 74.5914 48.4491 71.6488 53.262C71.1672 53.1711 70.6901 53.1314 70.2203 53.1314C67.389 53.1314 64.8652 54.5986 63.5146 56.9111C63.51 56.9111 63.5054 56.9111 63.5008 56.9111C63.4893 56.9111 63.4778 56.9111 63.4665 56.9111C60.4862 56.9111 57.7008 58.0788 55.6495 60.2033Z" fill="#DDDDDD" stroke="#56616C" stroke-width="3.3"/>
<g opacity="0.6">
<path fill-rule="evenodd" clip-rule="evenodd" d="M100.272 59.4285C99.0947 52.4268 92.8985 47.0981 85.6489 47.0981C80.0103 47.0981 74.9295 50.2582 72.451 55.2151C71.7074 54.9053 70.9639 54.7814 70.2203 54.7814C67.6179 54.7814 65.3873 56.3304 64.5198 58.623C64.148 58.5611 63.8382 58.5611 63.4665 58.5611C60.926 58.5611 58.5714 59.5525 56.8365 61.3494C55.1635 63.0843 54.2341 65.315 54.2341 67.6695V67.7934C54.2961 70.3339 55.2875 72.6265 57.0844 74.2995C58.7573 75.9724 61.0499 76.9019 63.4665 76.9019H97.9794C102.874 76.9019 106.902 72.9363 106.902 68.0413C106.902 63.9518 104.114 60.4199 100.272 59.4285Z" fill="url(#paint1_linear_1965_4984)" style="mix-blend-mode:multiply"/>
</g>
<g style="mix-blend-mode:multiply" opacity="0.3" filter="url(#filter1_f_1965_4984)">
<path d="M68.1756 72.5026C69.2826 72.5026 83.572 71.7142 84.5831 71.2634C85.965 70.6473 83.1019 66.9435 84.5831 66.6352C85.252 66.496 86.2353 66.0605 86.2353 66.0605C86.2353 66.0605 88.9325 65.0676 89.3976 65.0676C89.8627 65.0676 89.6296 63.2315 89.4844 62.0876L89.3976 61.2693C89.3976 60.7302 87.7916 59.6125 87.5387 58.2517C87.3629 57.3055 87.8013 56.0306 87.7097 55.7933C87.7097 55.7933 87.6782 55.7755 87.6875 55.7732C87.6964 55.771 87.7038 55.778 87.7097 55.7933C87.7794 55.826 88.2811 55.996 88.2811 55.996C89.488 56.405 91.3972 57.0736 93.1153 58.2517C94.1429 58.9563 95.5573 60.305 95.5573 60.305C95.5573 60.305 96.5764 61.0932 96.8331 61.3498C97.4527 61.9694 99.3115 63.8283 100.551 63.8283H103.649L105.043 64.8135L105.353 66.8025C105.353 71.6975 101.325 75.6631 96.4303 75.6631H61.3597C61.3597 75.6631 64.148 72.5026 68.1756 72.5026Z" fill="#B6B6B6"/>
</g>
</g>
<defs>
<filter id="filter0_d_1965_4984" x="0" y="0" width="120" height="120" filterUnits="userSpaceOnUse" color-interpolation-filters="sRGB">
<feFlood flood-opacity="0" result="BackgroundImageFix"/>
<feColorMatrix in="SourceAlpha" type="matrix" values="0 0 0 0 0 0 0 0 0 0 0 0 0 0 0 0 0 0 127 0" result="hardAlpha"/>
<feMorphology radius="3" operator="dilate" in="SourceAlpha" result="effect1_dropShadow_1965_4984"/>
<feOffset dy="3"/>
<feGaussianBlur stdDeviation="3.5"/>
<feColorMatrix type="matrix" values="0 0 0 0 0 0 0 0 0 0 0 0 0 0 0 0 0 0 0.35 0"/>
<feBlend mode="normal" in2="BackgroundImageFix" result="effect1_dropShadow_1965_4984"/>
<feBlend mode="normal" in="SourceGraphic" in2="effect1_dropShadow_1965_4984" result="shape"/>
</filter>
<filter id="filter1_f_1965_4984" x="57.0224" y="51.4355" width="52.6678" height="28.565" filterUnits="userSpaceOnUse" color-interpolation-filters="sRGB">
<feFlood flood-opacity="0" result="BackgroundImageFix"/>
<feBlend mode="normal" in="SourceGraphic" in2="BackgroundImageFix" result="shape"/>
<feGaussianBlur stdDeviation="2.16867" result="effect1_foregroundBlur_1965_4984"/>
</filter>
<linearGradient id="paint0_linear_1965_4984" x1="37.4251" y1="79.4921" x2="74.1806" y2="35.6887" gradientUnits="userSpaceOnUse">
<stop stop-color="#686E73"/>
<stop offset="0.9891" stop-color="#6A7075"/>
</linearGradient>
<linearGradient id="paint1_linear_1965_4984" x1="79.3288" y1="56.7022" x2="80.568" y2="76.9019" gradientUnits="userSpaceOnUse">
<stop offset="0.484375" stop-color="white" stop-opacity="0"/>
<stop offset="1" stop-color="#B3B2B2"/>
</linearGradient>
<clipPath id="clip0_1965_4984">
<rect width="100" height="100" fill="white" transform="translate(10 7)"/>
</clipPath>
</defs>
</svg>
