<svg width="120" height="120" viewBox="0 0 120 120" fill="none" xmlns="http://www.w3.org/2000/svg">
<g clip-path="url(#clip0_1965_4990)" filter="url(#filter0_d_1965_4990)">
<g clip-path="url(#clip1_1965_4990)">
<path fill-rule="evenodd" clip-rule="evenodd" d="M62.3146 25.5167L64.072 23.06L52.716 24.284L53.872 12.86L44.624 19.592L40 9.12L35.376 19.592L26.06 12.86L27.284 24.216L15.86 23.06L22.592 32.308L12.12 37L22.592 41.624L15.86 50.94L16.4302 50.8785C16.7989 50.4376 17.189 50.011 17.6 49.6C21.1 46 25.7 43.9 30.7 43.6C33.4 39.7 37.9 37.4 42.8 37.4H43.9C48.2631 31.2593 54.9113 26.9465 62.3146 25.5167Z" fill="url(#paint0_radial_1965_4990)" stroke="#AE6D00" stroke-width="2"/>
</g>
<path fill-rule="evenodd" clip-rule="evenodd" d="M24.867 44.8308C26.7147 44.1384 28.6745 43.7215 30.7 43.6C33.4 39.7 37.9 37.4 42.8 37.4H43.9C46.6679 33.5044 50.3553 30.3445 54.5718 28.1896C49.7966 20.3271 39.5494 17.665 31.4904 22.2337C23.6195 26.7995 20.7654 36.8348 24.867 44.8308Z" fill="#FFD348"/>
<path fill-rule="evenodd" clip-rule="evenodd" d="M27.5653 44.034C28.5875 43.8096 29.6347 43.6639 30.7 43.6C33.4 39.7 37.9 37.4 42.8 37.4H43.9C46.1324 34.2581 48.9631 31.5947 52.187 29.5511C48.1607 22.989 39.5536 20.7405 32.8585 24.6236C26.0937 28.5472 23.7042 37.2499 27.5653 44.034Z" fill="url(#paint1_linear_1965_4990)"/>
<path d="M69.4972 78.8216L69.9917 80.1H71.3625H87.6C96.5864 80.1 104 72.8227 104 63.8C104 56.73 99.4681 50.5618 93.0335 48.3354C90.4768 36.6911 79.9526 28 67.7 28C58.4299 28 50.0102 32.8893 45.4313 40.6938C44.5454 40.488 43.6662 40.4 42.8 40.4C38.3287 40.4 34.3727 42.7859 32.3647 46.5016C32.2209 46.5 32.0815 46.5 31.9457 46.5L31.9 46.5C27.2669 46.5 22.9446 48.3137 19.7612 51.6108L19.7603 51.6117C16.7172 54.7676 15 58.8591 15 63.2V63.4V63.4244L15.0006 63.4488C15.1126 68.0424 16.9106 72.2533 20.2111 75.3395C23.2961 78.4108 27.4992 80.1 31.9 80.1H49.7718H50.961L51.529 79.0552L61.8572 60.0552L61.8609 60.0482C62.2062 59.407 62.9232 59 63.6 59C63.6545 59 63.7502 59.0111 63.9056 59.0889L63.9886 59.1304L64.0751 59.164C65.0948 59.5605 65.6133 60.5783 65.4429 61.388L65.4366 61.4178L65.4312 61.4479L63.2312 73.7479L62.9506 75.3171L64.4177 75.9407L68.392 77.6297C68.9509 77.8886 69.2752 78.2478 69.4972 78.8216Z" fill="#B2B2B2" stroke="#56616C" stroke-width="4"/>
<g opacity="0.6">
<path fill-rule="evenodd" clip-rule="evenodd" d="M67.7 30C79.4 30 89.4 38.6 91.3 49.9C97.5 51.5 102 57.2 102 63.8C102 71.7 95.5 78.1 87.6 78.1H71.3625C70.9568 77.0514 70.2664 76.2847 69.2 75.8L65.2 74.1L67.4 61.8C67.8 59.9 66.6 58 64.8 57.3C64.4 57.1 64 57 63.6 57C62.2 57 60.8 57.8 60.1 59.1L49.7718 78.1H31.9C28 78.1 24.3 76.6 21.6 73.9C18.7 71.2 17.1 67.5 17 63.4V63.2C17 59.4 18.5 55.8 21.2 53C24 50.1 27.8 48.5 31.9 48.5C32.5 48.5 33 48.5 33.6 48.6C35 44.9 38.6 42.4 42.8 42.4C44 42.4 45.2 42.6 46.4 43.1C50.4 35.1 58.6 30 67.7 30Z" fill="url(#paint2_linear_1965_4990)" style="mix-blend-mode:multiply"/>
</g>
<g style="mix-blend-mode:multiply" opacity="0.3" filter="url(#filter1_f_1965_4990)">
<path fill-rule="evenodd" clip-rule="evenodd" d="M54.0731 70.1873C47.4845 70.6367 40.4547 71 39.5 71C33 71 28.5 76.1007 28.5 76.1007H50.8586L54.0731 70.1873ZM66.4846 66.9179L67.4 61.8C67.4512 61.5569 67.4762 61.3139 67.4771 61.0733C68.1252 60.834 68.6465 60.6032 68.6465 60.6032C68.6465 60.6032 72.9994 59.0007 73.75 59.0007C74.5006 59.0007 74.1244 56.0375 73.8901 54.1913L73.8901 54.1913L73.75 52.8707C73.75 52.509 73.3022 51.9861 72.7496 51.3407C71.9726 50.4334 70.9884 49.284 70.75 48.0007C70.5753 47.0605 70.7764 45.9193 70.9222 45.0915C71.0132 44.5748 71.0827 44.1802 71.0258 44.033C71.1384 44.0858 71.9481 44.3602 71.9481 44.3602C73.8959 45.0203 76.9771 46.0993 79.75 48.0007C81.4084 49.1378 83.6911 51.3144 83.6911 51.3144C83.6911 51.3144 85.3358 52.5864 85.75 53.0007C86.75 54.0007 89.75 57.0007 91.75 57.0007H96.75L99 58.5907L99.5 61.8007C99.5 69.7007 93 76.1007 85.1 76.1007H69.7581C69.5847 75.9906 69.3989 75.8904 69.2 75.8L65.2 74.1L66.1262 68.9217C66.6816 68.567 66.6884 67.8141 66.4846 66.9179ZM70.99 44.0007C71.0045 43.997 71.0163 44.0084 71.0258 44.033C71.0258 44.033 70.9751 44.0044 70.99 44.0007Z" fill="#B6B6B6"/>
</g>
<path d="M63.5 106C63.2 106 62.8 105.9 62.5 105.8C61.2 105.2 60.7 103.8 61.2 102.5L64.7 94.5C65.3 93.2 66.7 92.7 68 93.2C69.3 93.8 69.8 95.2 69.3 96.5L65.8 104.5C65.4 105.5 64.5 106 63.5 106Z" fill="#006EDB"/>
<path d="M78.5 97C78.2 97 77.8 96.9 77.5 96.8C76.2 96.2 75.7 94.8 76.2 93.5L79.7 85.5C80.3 84.2 81.7 83.7 83 84.2C84.3 84.8 84.8 86.2 84.3 87.5L80.8 95.5C80.4 96.5 79.5 97 78.5 97Z" fill="#006EDB"/>
<path d="M42.5 97C42.2 97 41.8 96.9 41.5 96.8C40.2 96.2 39.7 94.8 40.2 93.5L43.7 85.5C44.3 84.2 45.7 83.7 47 84.2C48.3 84.8 48.8 86.2 48.3 87.5L44.8 95.5C44.4 96.5 43.5 97 42.5 97Z" fill="#006EDB"/>
<path d="M65.5677 61.3578C65.7435 60.3913 65.1913 59.4403 64.2649 59.1137C63.3384 58.7872 62.312 59.1818 61.8428 60.0448L51.2428 79.5448C50.9732 80.0408 50.9258 80.6276 51.1122 81.1605C51.2986 81.6933 51.7016 82.1226 52.2216 82.3423L57.7251 84.6677L53.5657 100.492C53.3101 101.464 53.8162 102.475 54.7478 102.853C55.6794 103.231 56.747 102.859 57.2414 101.984L69.4414 80.3836C69.7201 79.8903 69.7764 79.3019 69.5964 78.7647C69.4164 78.2275 69.017 77.7918 68.4975 77.5659L63.0513 75.198L65.5677 61.3578Z" fill="#FF9D00" stroke="white" stroke-width="4" stroke-linejoin="round"/>
</g>
<defs>
<filter id="filter0_d_1965_4990" x="0" y="0" width="120" height="120" filterUnits="userSpaceOnUse" color-interpolation-filters="sRGB">
<feFlood flood-opacity="0" result="BackgroundImageFix"/>
<feColorMatrix in="SourceAlpha" type="matrix" values="0 0 0 0 0 0 0 0 0 0 0 0 0 0 0 0 0 0 127 0" result="hardAlpha"/>
<feMorphology radius="3" operator="dilate" in="SourceAlpha" result="effect1_dropShadow_1965_4990"/>
<feOffset dy="3"/>
<feGaussianBlur stdDeviation="3.5"/>
<feColorMatrix type="matrix" values="0 0 0 0 0 0 0 0 0 0 0 0 0 0 0 0 0 0 0.35 0"/>
<feBlend mode="normal" in2="BackgroundImageFix" result="effect1_dropShadow_1965_4990"/>
<feBlend mode="normal" in="SourceGraphic" in2="effect1_dropShadow_1965_4990" result="shape"/>
</filter>
<filter id="filter1_f_1965_4990" x="21.5" y="37" width="85" height="46.1007" filterUnits="userSpaceOnUse" color-interpolation-filters="sRGB">
<feFlood flood-opacity="0" result="BackgroundImageFix"/>
<feBlend mode="normal" in="SourceGraphic" in2="BackgroundImageFix" result="shape"/>
<feGaussianBlur stdDeviation="3.5" result="effect1_foregroundBlur_1965_4990"/>
</filter>
<radialGradient id="paint0_radial_1965_4990" cx="0" cy="0" r="1" gradientUnits="userSpaceOnUse" gradientTransform="translate(40 37) scale(27.88)">
<stop offset="0.5143" stop-color="#D6B849"/>
<stop offset="0.6523" stop-color="#FFCE47"/>
<stop offset="1" stop-color="#FFDB73"/>
</radialGradient>
<linearGradient id="paint1_linear_1965_4990" x1="30.8172" y1="26.0572" x2="49.1767" y2="47.9373" gradientUnits="userSpaceOnUse">
<stop stop-color="#FFAF22"/>
<stop offset="0.9897" stop-color="#F09900"/>
</linearGradient>
<linearGradient id="paint2_linear_1965_4990" x1="57.5" y1="45.5" x2="59.5" y2="78.1" gradientUnits="userSpaceOnUse">
<stop offset="0.484375" stop-color="white" stop-opacity="0"/>
<stop offset="1" stop-color="#B3B2B2"/>
</linearGradient>
<clipPath id="clip0_1965_4990">
<rect width="100" height="100" fill="white" transform="translate(10 7)"/>
</clipPath>
<clipPath id="clip1_1965_4990">
<rect width="100" height="100" fill="white" transform="translate(10 7)"/>
</clipPath>
</defs>
</svg>
