<svg width="104" height="103" viewBox="0 0 104 103" fill="none" xmlns="http://www.w3.org/2000/svg">
<mask id="mask0_1965_5056" style="mask-type:alpha" maskUnits="userSpaceOnUse" x="-4" y="21" width="82" height="41">
<rect x="-4" y="21" width="82" height="41" fill="#C4C4C4"/>
</mask>
<g mask="url(#mask0_1965_5056)">
<path d="M51.408 25.692L61.88 21L51.408 16.376L58.072 7.06L46.716 8.28399L47.872 -3.14L38.624 3.592L34 -6.88L29.376 3.592L20.06 -3.14L21.284 8.216L9.86 7.06L16.592 16.308L6.12 21L16.592 25.624L9.86 34.94L21.216 33.716L20.06 45.14L29.308 38.408L34 48.88L38.624 38.408L47.94 45.072L46.716 33.716L58.14 34.872L51.408 25.692Z" fill="url(#paint0_radial_1965_5056)" stroke="#C37F0E" stroke-width="3"/>
<path d="M19.2328 29.5059C23.926 37.6035 34.3327 40.3935 42.4948 35.7663C50.657 31.139 53.3777 20.6598 48.7525 12.4941C44.0593 4.39646 33.6525 1.60651 25.4904 6.23373C17.3963 10.929 14.6076 21.4083 19.2328 29.5059Z" fill="#FFD348"/>
<path d="M21.6236 28.1355C25.5668 34.9341 34.3369 37.3136 41.1355 33.3704C47.934 29.4273 50.3135 20.6571 46.3704 13.8585C42.4272 7.05997 33.6571 4.68047 26.8585 8.62364C20.0599 12.5668 17.6804 21.337 21.6236 28.1355Z" fill="url(#paint1_linear_1965_5056)"/>
</g>
<line x1="5.5" y1="19.5" x2="62.5" y2="19.5" stroke="#21292B" stroke-width="3" stroke-linecap="round"/>
<path d="M13.7612 44.6108L13.7603 44.6117C10.7172 47.7676 9 51.8591 9 56.2V56.4V56.4244L9.00059 56.4488C9.11263 61.0423 10.9106 65.2533 14.211 68.3394C17.2961 71.4108 21.4992 73.1 25.9 73.1H81.6C90.5864 73.1 98 65.8227 98 56.8C98 49.73 93.4681 43.5618 87.0335 41.3354C84.4768 29.6911 73.9526 21 61.7 21C52.4299 21 44.0102 25.8893 39.4313 33.6938C38.5454 33.488 37.6662 33.4 36.8 33.4C32.3287 33.4 28.3727 35.7859 26.3647 39.5016C26.2209 39.5 26.0815 39.5 25.9457 39.5L25.9 39.5C21.2669 39.5 16.9446 41.3137 13.7612 44.6108Z" fill="#B2B2B2" stroke="#606E7C" stroke-width="4"/>
<g opacity="0.6">
<path fill-rule="evenodd" clip-rule="evenodd" d="M85.3 42.9C83.4 31.6 73.4 23 61.7 23C52.6 23 44.4 28.1 40.4 36.1C39.2 35.6 38 35.4 36.8 35.4C32.6 35.4 29 37.9 27.6 41.6C27 41.5 26.5 41.5 25.9 41.5C21.8 41.5 18 43.1 15.2 46C12.5 48.8 11 52.4 11 56.2V56.4C11.1 60.5 12.7 64.2 15.6 66.9C18.3 69.6 22 71.1 25.9 71.1H81.6C89.5 71.1 96 64.7 96 56.8C96 50.2 91.5 44.5 85.3 42.9Z" fill="url(#paint2_linear_1965_5056)" style="mix-blend-mode:multiply"/>
</g>
<g style="mix-blend-mode:multiply" opacity="0.3" filter="url(#filter0_f_1965_5056)">
<path d="M33.5 64C35.2867 64 58.3482 62.7276 59.98 62C62.2101 61.0057 57.5895 55.0283 59.98 54.5307C61.0594 54.306 62.6465 53.6032 62.6465 53.6032C62.6465 53.6032 66.9994 52.0007 67.75 52.0007C68.5006 52.0007 68.1244 49.0374 67.8901 47.1913L67.75 45.8707C67.75 45.0007 65.158 43.1968 64.75 41.0007C64.4663 39.4736 65.1738 37.416 65.0258 37.033C65.0258 37.033 64.9751 37.0044 64.99 37.0007C65.0045 36.997 65.0163 37.0084 65.0258 37.033C65.1384 37.0858 65.9481 37.3602 65.9481 37.3602C67.8959 38.0203 70.9771 39.0993 73.75 41.0007C75.4084 42.1378 77.6911 44.3144 77.6911 44.3144C77.6911 44.3144 79.3358 45.5864 79.75 46.0007C80.75 47.0007 83.75 50.0007 85.75 50.0007H90.75L93 51.5907L93.5 54.8007C93.5 62.7007 87 69.1007 79.1 69.1007H22.5C22.5 69.1007 27 64 33.5 64Z" fill="#B6B6B6"/>
</g>
<path d="M34.4884 81.9H34.4H34.3066L34.2139 81.9115C32.8336 82.0841 31.5 83.1835 31.5 84.8C31.5 86.2586 32.7034 87.7 34.4 87.7H34.5884L34.5218 87.8143C34.0258 88.5957 34.0807 89.4856 34.277 90.0743C34.4662 90.6421 34.8505 91.2364 35.4679 91.648C36.2125 92.1444 37.0679 92.1619 37.7386 91.9632C38.3843 91.7718 39.0417 91.3282 39.4147 90.6231L39.4734 90.5225L39.5779 90.7091C40.0633 91.6395 41.0978 92.2 42.1 92.2C42.6399 92.2 43.1859 91.9841 43.4708 91.8416L43.5543 91.7998L43.6321 91.748C44.6587 91.0636 45.5356 89.4246 44.5853 87.9252L44.4592 87.7H44.7C46.1586 87.7 47.6 86.4965 47.6 84.8C47.6 82.9629 46.0032 82 44.7 82H44.4592L44.5865 81.7725C45.3817 80.505 45.0393 78.5874 43.4712 77.8571C42.098 77.1198 40.417 77.5298 39.6015 78.9491L39.5 79.123L39.3985 78.949C38.6264 77.6059 36.9299 77.043 35.5481 77.9003C34.7903 78.3069 34.3755 78.9301 34.177 79.5256C34.0228 79.9881 34.0492 80.4262 34.0901 80.7121C34.1333 81.0143 34.2141 81.2856 34.277 81.4743L34.3261 81.6216L34.4043 81.7558L34.4884 81.9Z" fill="#00A4D6" stroke="white" stroke-width="3"/>
<path d="M51.8714 101.162L51.9468 101.197L52.0257 101.223C52.3672 101.337 52.9528 101.5 53.5 101.5C55.0151 101.5 56.518 100.714 57.1828 99.0817L60.6742 91.1013L60.6878 91.0702L60.7 91.0385C61.464 89.052 60.6952 86.7919 58.6286 85.8381L58.5841 85.8176L58.5385 85.8C56.552 85.036 54.2919 85.8048 53.3381 87.8714L53.3318 87.8851L53.3258 87.8988L49.8258 95.8988L49.8122 95.9299L49.8 95.9616C49.036 97.948 49.8048 100.208 51.8714 101.162Z" fill="#006EDB" stroke="white" stroke-width="3"/>
<path d="M66.8714 93.162L66.9468 93.1968L67.0257 93.2231C67.3672 93.3369 67.9528 93.5 68.5 93.5C70.0151 93.5 71.518 92.7142 72.1828 91.0817L75.6742 83.1013L75.6878 83.0702L75.7 83.0385C76.464 81.052 75.6952 78.7919 73.6286 77.8381L73.5841 77.8176L73.5385 77.8C71.552 77.036 69.2919 77.8048 68.3381 79.8714L68.3318 79.8851L68.3258 79.8988L64.8258 87.8988L64.8122 87.9299L64.8 87.9616C64.036 89.948 64.8048 92.2081 66.8714 93.162Z" fill="#006EDB" stroke="white" stroke-width="3"/>
<defs>
<filter id="filter0_f_1965_5056" x="15.5" y="30" width="85" height="46.1007" filterUnits="userSpaceOnUse" color-interpolation-filters="sRGB">
<feFlood flood-opacity="0" result="BackgroundImageFix"/>
<feBlend mode="normal" in="SourceGraphic" in2="BackgroundImageFix" result="shape"/>
<feGaussianBlur stdDeviation="3.5" result="effect1_foregroundBlur_1965_5056"/>
</filter>
<radialGradient id="paint0_radial_1965_5056" cx="0" cy="0" r="1" gradientUnits="userSpaceOnUse" gradientTransform="translate(34 21) scale(27.88)">
<stop offset="0.5143" stop-color="#D6B849"/>
<stop offset="0.6523" stop-color="#FFCE47"/>
<stop offset="1" stop-color="#FFDB73"/>
</radialGradient>
<linearGradient id="paint1_linear_1965_5056" x1="24.8171" y1="10.0572" x2="43.1767" y2="31.9373" gradientUnits="userSpaceOnUse">
<stop stop-color="#FFAF22"/>
<stop offset="0.9897" stop-color="#F09900"/>
</linearGradient>
<linearGradient id="paint2_linear_1965_5056" x1="51.5" y1="38.5" x2="53.5" y2="71.1" gradientUnits="userSpaceOnUse">
<stop offset="0.484375" stop-color="white" stop-opacity="0"/>
<stop offset="1" stop-color="#B3B2B2"/>
</linearGradient>
</defs>
</svg>
