<svg width="106" height="109" viewBox="0 0 106 109" fill="none" xmlns="http://www.w3.org/2000/svg">
<path d="M31.5415 8.92688C33.3268 12.0513 34.4427 15.6964 34.4427 19.5647C34.4427 31.3183 24.9207 40.8403 13.1671 40.8403C12.2 40.8403 11.3073 40.7659 10.4146 40.6171C14.1342 47.0147 20.9781 51.3293 28.789 51.3293C40.5427 51.3293 50.0646 41.8074 50.0646 30.0537C50.0646 19.1927 42.0305 10.2659 31.5415 8.92688Z" fill="url(#paint0_linear_1965_5060)"/>
<path d="M15.7612 50.6108L15.7603 50.6117C12.7172 53.7676 11 57.8591 11 62.2V62.4V62.4244L11.0006 62.4488C11.1126 67.0423 12.9106 71.2533 16.211 74.3394C19.2961 77.4108 23.4992 79.1 27.9 79.1H83.6C92.5864 79.1 100 71.8227 100 62.8C100 55.73 95.4681 49.5618 89.0335 47.3354C86.4768 35.6911 75.9526 27 63.7 27C54.4299 27 46.0102 31.8893 41.4313 39.6938C40.5454 39.488 39.6662 39.4 38.8 39.4C34.3287 39.4 30.3727 41.7859 28.3647 45.5016C28.2209 45.5 28.0815 45.5 27.9457 45.5L27.9 45.5C23.2669 45.5 18.9446 47.3137 15.7612 50.6108Z" fill="#B2B2B2" stroke="#606E7C" stroke-width="4"/>
<g opacity="0.6">
<path fill-rule="evenodd" clip-rule="evenodd" d="M87.3 48.9C85.4 37.6 75.4 29 63.7 29C54.6 29 46.4 34.1 42.4 42.1C41.2 41.6 40 41.4 38.8 41.4C34.6 41.4 31 43.9 29.6 47.6C29 47.5 28.5 47.5 27.9 47.5C23.8 47.5 20 49.1 17.2 52C14.5 54.8 13 58.4 13 62.2V62.4C13.1 66.5 14.7 70.2 17.6 72.9C20.3 75.6 24 77.1 27.9 77.1H83.6C91.5 77.1 98 70.7 98 62.8C98 56.2 93.5 50.5 87.3 48.9Z" fill="url(#paint1_linear_1965_5060)" style="mix-blend-mode:multiply"/>
</g>
<g style="mix-blend-mode:multiply" opacity="0.3" filter="url(#filter0_f_1965_5060)">
<path d="M35.5 70C37.2867 70 60.3482 68.7276 61.98 68C64.2101 67.0057 59.5895 61.0283 61.98 60.5307C63.0594 60.306 64.6465 59.6032 64.6465 59.6032C64.6465 59.6032 68.9994 58.0007 69.75 58.0007C70.5006 58.0007 70.1244 55.0374 69.8901 53.1913L69.75 51.8707C69.75 51.0007 67.158 49.1968 66.75 47.0007C66.4663 45.4736 67.1738 43.416 67.0258 43.033C67.0258 43.033 66.9751 43.0044 66.99 43.0007C67.0045 42.997 67.0163 43.0084 67.0258 43.033C67.1384 43.0858 67.9481 43.3602 67.9481 43.3602C69.8959 44.0203 72.9771 45.0993 75.75 47.0007C77.4084 48.1378 79.6911 50.3144 79.6911 50.3144C79.6911 50.3144 81.3358 51.5864 81.75 52.0007C82.75 53.0007 85.75 56.0007 87.75 56.0007H92.75L95 57.5907L95.5 60.8007C95.5 68.7007 89 75.1007 81.1 75.1007H24.5C24.5 75.1007 29 70 35.5 70Z" fill="#B6B6B6"/>
</g>
<path d="M36.4884 87.9H36.4H36.3066L36.2139 87.9115C34.8336 88.0841 33.5 89.1835 33.5 90.8C33.5 92.2586 34.7034 93.7 36.4 93.7H36.5884L36.5218 93.8143C36.0258 94.5957 36.0807 95.4856 36.277 96.0743C36.4662 96.6421 36.8505 97.2364 37.4679 97.648C38.2125 98.1444 39.0679 98.1619 39.7386 97.9632C40.3843 97.7718 41.0417 97.3282 41.4147 96.6231L41.4734 96.5225L41.5779 96.7091C42.0633 97.6395 43.0978 98.2 44.1 98.2C44.6399 98.2 45.1859 97.9841 45.4708 97.8416L45.5543 97.7998L45.6321 97.748C46.6587 97.0636 47.5356 95.4246 46.5853 93.9252L46.4592 93.7H46.7C48.1586 93.7 49.6 92.4965 49.6 90.8C49.6 88.9629 48.0032 88 46.7 88H46.4592L46.5865 87.7725C47.3817 86.505 47.0393 84.5874 45.4712 83.8571C44.098 83.1198 42.417 83.5298 41.6015 84.9491L41.5 85.123L41.3985 84.949C40.6264 83.6059 38.9299 83.043 37.5481 83.9003C36.7903 84.3069 36.3755 84.9301 36.177 85.5256C36.0228 85.9881 36.0492 86.4262 36.0901 86.7121C36.1333 87.0143 36.2141 87.2856 36.277 87.4743L36.3261 87.6216L36.4043 87.7558L36.4884 87.9Z" fill="#00A4D6" stroke="white" stroke-width="3"/>
<path d="M53.8714 107.162L53.9468 107.197L54.0257 107.223C54.3672 107.337 54.9528 107.5 55.5 107.5C57.0151 107.5 58.518 106.714 59.1828 105.082L62.6742 97.1013L62.6878 97.0702L62.7 97.0385C63.464 95.052 62.6952 92.7919 60.6286 91.8381L60.5841 91.8176L60.5385 91.8C58.552 91.036 56.2919 91.8048 55.3381 93.8714L55.3318 93.8851L55.3258 93.8988L51.8258 101.899L51.8122 101.93L51.8 101.962C51.036 103.948 51.8048 106.208 53.8714 107.162Z" fill="#006EDB" stroke="white" stroke-width="3"/>
<path d="M68.8714 99.162L68.9468 99.1968L69.0257 99.2231C69.3672 99.3369 69.9528 99.5 70.5 99.5C72.0151 99.5 73.518 98.7142 74.1828 97.0817L77.6742 89.1013L77.6878 89.0702L77.7 89.0385C78.464 87.052 77.6952 84.7919 75.6286 83.8381L75.5841 83.8176L75.5385 83.8C73.552 83.036 71.2919 83.8048 70.3381 85.8714L70.3318 85.8851L70.3258 85.8988L66.8258 93.8988L66.8122 93.9299L66.8 93.9616C66.036 95.948 66.8048 98.2081 68.8714 99.162Z" fill="#006EDB" stroke="white" stroke-width="3"/>
<defs>
<filter id="filter0_f_1965_5060" x="17.5" y="36" width="85" height="46.1007" filterUnits="userSpaceOnUse" color-interpolation-filters="sRGB">
<feFlood flood-opacity="0" result="BackgroundImageFix"/>
<feBlend mode="normal" in="SourceGraphic" in2="BackgroundImageFix" result="shape"/>
<feGaussianBlur stdDeviation="3.5" result="effect1_foregroundBlur_1965_5060"/>
</filter>
<linearGradient id="paint0_linear_1965_5060" x1="18.9138" y1="49.4637" x2="46.2563" y2="16.8782" gradientUnits="userSpaceOnUse">
<stop stop-color="#686E73"/>
<stop offset="0.9891" stop-color="#6A7075"/>
</linearGradient>
<linearGradient id="paint1_linear_1965_5060" x1="53.5" y1="44.5" x2="55.5" y2="77.1" gradientUnits="userSpaceOnUse">
<stop offset="0.484375" stop-color="white" stop-opacity="0"/>
<stop offset="1" stop-color="#B3B2B2"/>
</linearGradient>
</defs>
</svg>
