<svg xmlns="http://www.w3.org/2000/svg" width="106" height="109" fill="none" viewBox="0 0 106 109"><path fill="url(#07n__07n__paint0_linear_1965_5060)" d="M31.541 8.927c1.786 3.124 2.902 6.77 2.902 10.638 0 11.753-9.522 21.275-21.276 21.275-.967 0-1.86-.074-2.752-.223 3.72 6.398 10.563 10.712 18.374 10.712 11.754 0 21.276-9.522 21.276-21.275 0-10.861-8.034-19.788-18.523-21.127z"/><path fill="#B2B2B2" stroke="#606E7C" stroke-width="4" d="M15.761 50.61v.002C12.716 53.768 11 57.859 11 62.2v.249c.113 4.593 1.91 8.804 5.211 11.89C19.296 77.411 23.499 79.1 27.9 79.1h55.7c8.986 0 16.4-7.277 16.4-16.3 0-7.07-4.532-13.238-10.966-15.465C86.477 35.691 75.953 27 63.7 27c-9.27 0-17.69 4.89-22.269 12.694A11.584 11.584 0 0038.8 39.4c-4.471 0-8.427 2.386-10.435 6.102-.144-.002-.284-.002-.42-.002H27.9c-4.633 0-8.955 1.814-12.139 5.11z"/><path fill="url(#07n__07n__paint1_linear_1965_5060)" fill-rule="evenodd" d="M87.3 48.9C85.4 37.6 75.4 29 63.7 29c-9.1 0-17.3 5.1-21.3 13.1-1.2-.5-2.4-.7-3.6-.7-4.2 0-7.8 2.5-9.2 6.2-.6-.1-1.1-.1-1.7-.1-4.1 0-7.9 1.6-10.7 4.5-2.7 2.8-4.2 6.4-4.2 10.2v.2c.1 4.1 1.7 7.8 4.6 10.5 2.7 2.7 6.4 4.2 10.3 4.2h55.7c7.9 0 14.4-6.4 14.4-14.3 0-6.6-4.5-12.3-10.7-13.9z" clip-rule="evenodd" style="mix-blend-mode:multiply" opacity=".6"/><g style="mix-blend-mode:multiply" filter="url(#07n__07n__filter0_f_1965_5060)" opacity=".3"><path fill="#B6B6B6" d="M35.5 70c1.787 0 24.848-1.272 26.48-2 2.23-.994-2.39-6.972 0-7.47 1.08-.224 2.667-.927 2.667-.927s4.352-1.602 5.103-1.602c.75 0 .374-2.964.14-4.81l-.14-1.32c0-.87-2.592-2.674-3-4.87-.284-1.527.424-3.585.276-3.968 0 0-.05-.029-.036-.032.014-.004.026.007.036.032.112.053.922.327.922.327 1.948.66 5.03 1.74 7.802 3.64 1.658 1.138 3.941 3.314 3.941 3.314s1.645 1.272 2.059 1.687c1 1 4 4 6 4h5L95 57.59l.5 3.21c0 7.9-6.5 14.3-14.4 14.3H24.5S29 70 35.5 70z"/></g><path fill="#00A4D6" stroke="#fff" stroke-width="3" d="M36.488 87.9h-.181l-.093.011c-1.38.173-2.714 1.272-2.714 2.889 0 1.459 1.203 2.9 2.9 2.9h.188l-.066.114c-.496.782-.441 1.672-.245 2.26a3.06 3.06 0 001.19 1.574c.745.496 1.6.514 2.272.315.645-.191 1.303-.635 1.676-1.34l.058-.1.105.186c.485.93 1.52 1.491 2.522 1.491.54 0 1.086-.216 1.37-.358l.084-.042.078-.052c1.027-.684 1.904-2.323.953-3.823l-.126-.225h.241c1.459 0 2.9-1.204 2.9-2.9 0-1.837-1.597-2.8-2.9-2.8h-.24l.127-.228c.795-1.267.452-3.185-1.116-3.915-1.373-.737-3.054-.327-3.87 1.092l-.101.174-.102-.174c-.772-1.343-2.468-1.906-3.85-1.049a2.832 2.832 0 00-1.371 1.626c-.154.462-.128.9-.087 1.186.043.302.124.574.187.762l.05.148.077.134.084.144z"/><path fill="#006EDB" stroke="#fff" stroke-width="3" d="M53.871 107.162l.076.035.079.026c.341.114.927.277 1.474.277 1.515 0 3.018-.786 3.683-2.418l3.491-7.98.014-.032.012-.031c.764-1.987-.005-4.247-2.071-5.2l-.045-.021-.046-.018c-1.986-.764-4.246.005-5.2 2.071l-.006.014-.006.014-3.5 8-.014.031-.012.032c-.764 1.986.005 4.246 2.071 5.2zm15-8l.076.035.079.026c.341.114.927.277 1.474.277 1.515 0 3.018-.786 3.683-2.418l3.491-7.98.014-.032.012-.031c.764-1.987-.005-4.247-2.071-5.2l-.045-.021-.046-.018c-1.986-.764-4.246.005-5.2 2.071l-.006.014-.006.014-3.5 8-.014.03-.012.033c-.764 1.986.005 4.246 2.071 5.2z"/><defs><linearGradient id="07n__07n__paint0_linear_1965_5060" x1="18.914" x2="46.256" y1="49.464" y2="16.878" gradientUnits="userSpaceOnUse"><stop stop-color="#686E73"/><stop offset=".989" stop-color="#6A7075"/></linearGradient><linearGradient id="07n__07n__paint1_linear_1965_5060" x1="53.5" x2="55.5" y1="44.5" y2="77.1" gradientUnits="userSpaceOnUse"><stop offset=".484" stop-color="#fff" stop-opacity="0"/><stop offset="1" stop-color="#B3B2B2"/></linearGradient><filter id="07n__07n__filter0_f_1965_5060" width="85" height="46.101" x="17.5" y="36" color-interpolation-filters="sRGB" filterUnits="userSpaceOnUse"><feFlood flood-opacity="0" result="BackgroundImageFix"/><feBlend in="SourceGraphic" in2="BackgroundImageFix" result="shape"/><feGaussianBlur result="effect1_foregroundBlur_1965_5060" stdDeviation="3.5"/></filter></defs></svg>