<svg width="100" height="103" viewBox="0 0 100 103" fill="none" xmlns="http://www.w3.org/2000/svg">
<path fill-rule="evenodd" clip-rule="evenodd" d="M45.3841 20.79C40.8289 22.9449 36.8442 26.2563 33.9 30.4H32.8C27.9 30.4 23.4 32.7 20.7 36.6C19.3206 36.6828 17.9716 36.9025 16.6678 37.253L17.028 33.693L5.50499 34.935L12.336 25.482L1.70999 20.79H45.3841Z" fill="url(#paint0_radial_1965_5057)" stroke="#C37F0E" stroke-width="3"/>
<path fill-rule="evenodd" clip-rule="evenodd" d="M45.3841 20.79C40.8289 22.9449 36.8442 26.2563 33.9 30.4H32.8C28.2763 30.4 24.0936 32.3603 21.3533 35.7301C18.8012 34.2682 16.5912 32.1393 15.0158 29.421C13.4662 26.7081 12.7365 23.7317 12.7502 20.79H45.3841Z" fill="#FFD348"/>
<path fill-rule="evenodd" clip-rule="evenodd" d="M44.4814 21.236C40.3026 23.3898 36.6481 26.5323 33.9 30.4H32.8C29.2921 30.4 25.9892 31.5788 23.405 33.6795C20.9931 32.4494 18.8964 30.5366 17.4446 28.0335C16.1228 25.7545 15.5012 23.2571 15.5101 20.79H44.4899C44.4893 20.9388 44.4865 21.0875 44.4814 21.236Z" fill="url(#paint1_linear_1965_5057)"/>
<path fill-rule="evenodd" clip-rule="evenodd" d="M1.5 18C0.671573 18 0 18.6716 0 19.5C0 20.3284 0.671573 21 1.5 21H44.9495C48.8623 19.0702 53.2143 18 57.7 18C58.0475 18 58.394 18.0064 58.7392 18.019C58.6613 18.0065 58.5814 18 58.5 18H57.7H1.5Z" fill="#21292B"/>
<path d="M9.7612 44.6108L9.76031 44.6117C6.71717 47.7676 5 51.8591 5 56.2V56.4V56.4244L5.00059 56.4488C5.11263 61.0423 6.91058 65.2533 10.211 68.3394C13.2961 71.4108 17.4992 73.1 21.9 73.1H77.6C86.5864 73.1 94 65.8227 94 56.8C94 49.73 89.4681 43.5618 83.0335 41.3354C80.4768 29.6911 69.9526 21 57.7 21C48.4299 21 40.0102 25.8893 35.4313 33.6938C34.5454 33.488 33.6662 33.4 32.8 33.4C28.3287 33.4 24.3727 35.7859 22.3647 39.5016C22.2209 39.5 22.0815 39.5 21.9457 39.5L21.9 39.5C17.2669 39.5 12.9446 41.3137 9.7612 44.6108Z" fill="#B2B2B2" stroke="#606E7C" stroke-width="4"/>
<g opacity="0.6">
<path fill-rule="evenodd" clip-rule="evenodd" d="M81.3 42.9C79.4 31.6 69.4 23 57.7 23C48.6 23 40.4 28.1 36.4 36.1C35.2 35.6 34 35.4 32.8 35.4C28.6 35.4 25 37.9 23.6 41.6C23 41.5 22.5 41.5 21.9 41.5C17.8 41.5 14 43.1 11.2 46C8.5 48.8 7 52.4 7 56.2V56.4C7.1 60.5 8.7 64.2 11.6 66.9C14.3 69.6 18 71.1 21.9 71.1H77.6C85.5 71.1 92 64.7 92 56.8C92 50.2 87.5 44.5 81.3 42.9Z" fill="url(#paint2_linear_1965_5057)" style="mix-blend-mode:multiply"/>
</g>
<g style="mix-blend-mode:multiply" opacity="0.3" filter="url(#filter0_f_1965_5057)">
<path d="M29.5 64C31.2867 64 54.3482 62.7276 55.98 62C58.2101 61.0057 53.5895 55.0283 55.98 54.5307C57.0594 54.306 58.6465 53.6032 58.6465 53.6032C58.6465 53.6032 62.9994 52.0007 63.75 52.0007C64.5006 52.0007 64.1244 49.0374 63.8901 47.1913L63.75 45.8707C63.75 45.0007 61.158 43.1968 60.75 41.0007C60.4663 39.4736 61.1738 37.416 61.0258 37.033C61.0258 37.033 60.9751 37.0044 60.99 37.0007C61.0045 36.997 61.0163 37.0084 61.0258 37.033C61.1384 37.0858 61.9481 37.3602 61.9481 37.3602C63.8959 38.0203 66.9771 39.0993 69.75 41.0007C71.4084 42.1378 73.6911 44.3144 73.6911 44.3144C73.6911 44.3144 75.3358 45.5864 75.75 46.0007C76.75 47.0007 79.75 50.0007 81.75 50.0007H86.75L89 51.5907L89.5 54.8007C89.5 62.7007 83 69.1007 75.1 69.1007H18.5C18.5 69.1007 23 64 29.5 64Z" fill="#B6B6B6"/>
</g>
<path d="M31.4884 81.9H31.4H31.3066L31.2139 81.9115C29.8336 82.0841 28.5 83.1835 28.5 84.8C28.5 86.2586 29.7034 87.7 31.4 87.7H31.5884L31.5218 87.8143C31.0258 88.5957 31.0807 89.4856 31.277 90.0743C31.4662 90.6421 31.8505 91.2364 32.4679 91.648C33.2125 92.1444 34.0679 92.1619 34.7386 91.9632C35.3843 91.7718 36.0417 91.3282 36.4147 90.6231L36.4734 90.5225L36.5779 90.7091C37.0633 91.6395 38.0978 92.2 39.1 92.2C39.6399 92.2 40.1859 91.9841 40.4708 91.8416L40.5543 91.7998L40.6321 91.748C41.6587 91.0636 42.5356 89.4246 41.5853 87.9252L41.4592 87.7H41.7C43.1586 87.7 44.6 86.4965 44.6 84.8C44.6 82.9629 43.0032 82 41.7 82H41.4592L41.5865 81.7725C42.3817 80.505 42.0393 78.5874 40.4712 77.8571C39.098 77.1198 37.417 77.5298 36.6015 78.9491L36.5 79.123L36.3985 78.949C35.6264 77.6059 33.9299 77.043 32.5481 77.9003C31.7903 78.3069 31.3755 78.9301 31.177 79.5256C31.0228 79.9881 31.0492 80.4262 31.0901 80.7121C31.1333 81.0143 31.2141 81.2856 31.277 81.4743L31.3261 81.6216L31.4043 81.7558L31.4884 81.9Z" fill="#00A4D6" stroke="white" stroke-width="3"/>
<path d="M59.4884 81.9H59.4H59.3066L59.2139 81.9115C57.8336 82.0841 56.5 83.1835 56.5 84.8C56.5 86.2586 57.7034 87.7 59.4 87.7H59.5884L59.5218 87.8143C59.0258 88.5957 59.0807 89.4856 59.277 90.0743C59.4662 90.6421 59.8505 91.2364 60.4679 91.648C61.2125 92.1444 62.0679 92.1619 62.7386 91.9632C63.3843 91.7718 64.0417 91.3282 64.4147 90.6231L64.4734 90.5225L64.5779 90.7091C65.0633 91.6395 66.0978 92.2 67.1 92.2C67.6399 92.2 68.1859 91.9841 68.4708 91.8416L68.5543 91.7998L68.6321 91.748C69.6587 91.0636 70.5356 89.4246 69.5853 87.9252L69.4592 87.7H69.7C71.1586 87.7 72.6 86.4965 72.6 84.8C72.6 82.9629 71.0032 82 69.7 82H69.4592L69.5865 81.7725C70.3817 80.505 70.0393 78.5874 68.4712 77.8571C67.098 77.1198 65.417 77.5298 64.6015 78.9491L64.5 79.123L64.3985 78.949C63.6264 77.6059 61.9299 77.043 60.5481 77.9003C59.7903 78.3069 59.3755 78.9301 59.177 79.5256C59.0228 79.9881 59.0492 80.4262 59.0901 80.7121C59.1333 81.0143 59.2141 81.2856 59.277 81.4743L59.3261 81.6216L59.4043 81.7558L59.4884 81.9Z" fill="#00A4D6" stroke="white" stroke-width="3"/>
<path d="M45.4884 90.9H45.4H45.3066L45.2139 90.9115C43.8336 91.0841 42.5 92.1835 42.5 93.8C42.5 95.2586 43.7034 96.7 45.4 96.7H45.5884L45.5218 96.8143C45.0258 97.5957 45.0807 98.4856 45.277 99.0743C45.4662 99.6421 45.8505 100.236 46.4679 100.648C47.2125 101.144 48.0679 101.162 48.7386 100.963C49.3843 100.772 50.0417 100.328 50.4147 99.6231L50.4734 99.5225L50.5779 99.7091C51.0633 100.64 52.0978 101.2 53.1 101.2C53.6399 101.2 54.1859 100.984 54.4708 100.842L54.5543 100.8L54.6321 100.748C55.6587 100.064 56.5356 98.4246 55.5853 96.9252L55.4592 96.7H55.7C57.1586 96.7 58.6 95.4965 58.6 93.8C58.6 91.9629 57.0032 91 55.7 91H55.4592L55.5865 90.7725C56.3817 89.505 56.0393 87.5874 54.4712 86.8571C53.098 86.1198 51.417 86.5298 50.6015 87.9491L50.5 88.123L50.3985 87.949C49.6264 86.6059 47.9299 86.043 46.5481 86.9003C45.7903 87.3069 45.3755 87.9301 45.177 88.5256C45.0228 88.9881 45.0492 89.4262 45.0901 89.7121C45.1333 90.0143 45.2141 90.2856 45.277 90.4743L45.3261 90.6216L45.4043 90.7558L45.4884 90.9Z" fill="#00A4D6" stroke="white" stroke-width="3"/>
<defs>
<filter id="filter0_f_1965_5057" x="11.5" y="30" width="85" height="46.1007" filterUnits="userSpaceOnUse" color-interpolation-filters="sRGB">
<feFlood flood-opacity="0" result="BackgroundImageFix"/>
<feBlend mode="normal" in="SourceGraphic" in2="BackgroundImageFix" result="shape"/>
<feGaussianBlur stdDeviation="3.5" result="effect1_foregroundBlur_1965_5057"/>
</filter>
<radialGradient id="paint0_radial_1965_5057" cx="0" cy="0" r="1" gradientUnits="userSpaceOnUse" gradientTransform="translate(23.547 29.0215) scale(21.837 8.23148)">
<stop offset="0.5143" stop-color="#D6B849"/>
<stop offset="0.6523" stop-color="#FFCE47"/>
<stop offset="1" stop-color="#FFDB73"/>
</radialGradient>
<linearGradient id="paint1_linear_1965_5057" x1="20.6851" y1="9.6893" x2="39.3147" y2="31.8912" gradientUnits="userSpaceOnUse">
<stop stop-color="#FFAF22"/>
<stop offset="0.9897" stop-color="#F09900"/>
</linearGradient>
<linearGradient id="paint2_linear_1965_5057" x1="47.5" y1="38.5" x2="49.5" y2="71.1" gradientUnits="userSpaceOnUse">
<stop offset="0.484375" stop-color="white" stop-opacity="0"/>
<stop offset="1" stop-color="#B3B2B2"/>
</linearGradient>
</defs>
</svg>
