<svg width="106" height="109" viewBox="0 0 106 109" fill="none" xmlns="http://www.w3.org/2000/svg">
<path d="M31.5415 8.92688C33.3268 12.0513 34.4427 15.6964 34.4427 19.5647C34.4427 31.3183 24.9207 40.8403 13.1671 40.8403C12.2 40.8403 11.3073 40.7659 10.4146 40.6171C14.1342 47.0147 20.9781 51.3293 28.789 51.3293C40.5427 51.3293 50.0646 41.8074 50.0646 30.0537C50.0646 19.1927 42.0305 10.2659 31.5415 8.92688Z" fill="url(#paint0_linear_1965_5061)"/>
<path d="M15.7612 50.6108L15.7603 50.6117C12.7172 53.7676 11 57.8591 11 62.2V62.4V62.4244L11.0006 62.4488C11.1126 67.0423 12.9106 71.2533 16.211 74.3394C19.2961 77.4108 23.4992 79.1 27.9 79.1H83.6C92.5864 79.1 100 71.8227 100 62.8C100 55.73 95.4681 49.5618 89.0335 47.3354C86.4768 35.6911 75.9526 27 63.7 27C54.4299 27 46.0102 31.8893 41.4313 39.6938C40.5454 39.488 39.6662 39.4 38.8 39.4C34.3287 39.4 30.3727 41.7859 28.3647 45.5016C28.2209 45.5 28.0815 45.5 27.9457 45.5L27.9 45.5C23.2669 45.5 18.9446 47.3137 15.7612 50.6108Z" fill="#B2B2B2" stroke="#606E7C" stroke-width="4"/>
<g opacity="0.6">
<path fill-rule="evenodd" clip-rule="evenodd" d="M87.3 48.9C85.4 37.6 75.4 29 63.7 29C54.6 29 46.4 34.1 42.4 42.1C41.2 41.6 40 41.4 38.8 41.4C34.6 41.4 31 43.9 29.6 47.6C29 47.5 28.5 47.5 27.9 47.5C23.8 47.5 20 49.1 17.2 52C14.5 54.8 13 58.4 13 62.2V62.4C13.1 66.5 14.7 70.2 17.6 72.9C20.3 75.6 24 77.1 27.9 77.1H83.6C91.5 77.1 98 70.7 98 62.8C98 56.2 93.5 50.5 87.3 48.9Z" fill="url(#paint1_linear_1965_5061)" style="mix-blend-mode:multiply"/>
</g>
<g style="mix-blend-mode:multiply" opacity="0.3" filter="url(#filter0_f_1965_5061)">
<path d="M35.5 70C37.2867 70 60.3482 68.7276 61.98 68C64.2101 67.0057 59.5895 61.0283 61.98 60.5307C63.0594 60.306 64.6465 59.6032 64.6465 59.6032C64.6465 59.6032 68.9994 58.0007 69.75 58.0007C70.5006 58.0007 70.1244 55.0374 69.8901 53.1913L69.75 51.8707C69.75 51.0007 67.158 49.1968 66.75 47.0007C66.4663 45.4736 67.1738 43.416 67.0258 43.033C67.0258 43.033 66.9751 43.0044 66.99 43.0007C67.0045 42.997 67.0163 43.0084 67.0258 43.033C67.1384 43.0858 67.9481 43.3602 67.9481 43.3602C69.8959 44.0203 72.9771 45.0993 75.75 47.0007C77.4084 48.1378 79.6911 50.3144 79.6911 50.3144C79.6911 50.3144 81.3358 51.5864 81.75 52.0007C82.75 53.0007 85.75 56.0007 87.75 56.0007H92.75L95 57.5907L95.5 60.8007C95.5 68.7007 89 75.1007 81.1 75.1007H24.5C24.5 75.1007 29 70 35.5 70Z" fill="#B6B6B6"/>
</g>
<path d="M37.4884 87.9H37.4H37.3066L37.2139 87.9115C35.8336 88.0841 34.5 89.1835 34.5 90.8C34.5 92.2586 35.7034 93.7 37.4 93.7H37.5884L37.5218 93.8143C37.0258 94.5957 37.0807 95.4856 37.277 96.0743C37.4662 96.6421 37.8505 97.2364 38.4679 97.648C39.2125 98.1444 40.0679 98.1619 40.7386 97.9632C41.3843 97.7718 42.0417 97.3282 42.4147 96.6231L42.4734 96.5225L42.5779 96.7091C43.0633 97.6395 44.0978 98.2 45.1 98.2C45.6399 98.2 46.1859 97.9841 46.4708 97.8416L46.5543 97.7998L46.6321 97.748C47.6587 97.0636 48.5356 95.4246 47.5853 93.9252L47.4592 93.7H47.7C49.1586 93.7 50.6 92.4965 50.6 90.8C50.6 88.9629 49.0032 88 47.7 88H47.4592L47.5865 87.7725C48.3817 86.505 48.0393 84.5874 46.4712 83.8571C45.098 83.1198 43.417 83.5298 42.6015 84.9491L42.5 85.123L42.3985 84.949C41.6264 83.6059 39.9299 83.043 38.5481 83.9003C37.7903 84.3069 37.3755 84.9301 37.177 85.5256C37.0228 85.9881 37.0492 86.4262 37.0901 86.7121C37.1333 87.0143 37.2141 87.2856 37.277 87.4743L37.3261 87.6216L37.4043 87.7558L37.4884 87.9Z" fill="#00A4D6" stroke="white" stroke-width="3"/>
<path d="M65.4884 87.9H65.4H65.3066L65.2139 87.9115C63.8336 88.0841 62.5 89.1835 62.5 90.8C62.5 92.2586 63.7034 93.7 65.4 93.7H65.5884L65.5218 93.8143C65.0258 94.5957 65.0807 95.4856 65.277 96.0743C65.4662 96.6421 65.8505 97.2364 66.4679 97.648C67.2125 98.1444 68.0679 98.1619 68.7386 97.9632C69.3843 97.7718 70.0417 97.3282 70.4147 96.6231L70.4734 96.5225L70.5779 96.7091C71.0633 97.6395 72.0978 98.2 73.1 98.2C73.6399 98.2 74.1859 97.9841 74.4708 97.8416L74.5543 97.7998L74.6321 97.748C75.6587 97.0636 76.5356 95.4246 75.5853 93.9252L75.4592 93.7H75.7C77.1586 93.7 78.6 92.4965 78.6 90.8C78.6 88.9629 77.0032 88 75.7 88H75.4592L75.5865 87.7725C76.3817 86.505 76.0393 84.5874 74.4712 83.8571C73.098 83.1198 71.417 83.5298 70.6015 84.9491L70.5 85.123L70.3985 84.949C69.6264 83.6059 67.9299 83.043 66.5481 83.9003C65.7903 84.3069 65.3755 84.9301 65.177 85.5256C65.0228 85.9881 65.0492 86.4262 65.0901 86.7121C65.1333 87.0143 65.2141 87.2856 65.277 87.4743L65.3261 87.6216L65.4043 87.7558L65.4884 87.9Z" fill="#00A4D6" stroke="white" stroke-width="3"/>
<path d="M51.4884 96.9H51.4H51.3066L51.2139 96.9115C49.8336 97.0841 48.5 98.1835 48.5 99.8C48.5 101.259 49.7034 102.7 51.4 102.7H51.5884L51.5218 102.814C51.0258 103.596 51.0807 104.486 51.277 105.074C51.4662 105.642 51.8505 106.236 52.4679 106.648C53.2125 107.144 54.0679 107.162 54.7386 106.963C55.3843 106.772 56.0417 106.328 56.4147 105.623L56.4734 105.522L56.5779 105.709C57.0633 106.64 58.0978 107.2 59.1 107.2C59.6399 107.2 60.1859 106.984 60.4708 106.842L60.5543 106.8L60.6321 106.748C61.6587 106.064 62.5356 104.425 61.5853 102.925L61.4592 102.7H61.7C63.1586 102.7 64.6 101.497 64.6 99.8C64.6 97.9629 63.0032 97 61.7 97H61.4592L61.5865 96.7725C62.3817 95.505 62.0393 93.5874 60.4712 92.8571C59.098 92.1198 57.417 92.5298 56.6015 93.9491L56.5 94.123L56.3985 93.949C55.6264 92.6059 53.9299 92.043 52.5481 92.9003C51.7903 93.3069 51.3755 93.9301 51.177 94.5256C51.0228 94.9881 51.0492 95.4262 51.0901 95.7121C51.1333 96.0143 51.2141 96.2856 51.277 96.4743L51.3261 96.6216L51.4043 96.7558L51.4884 96.9Z" fill="#00A4D6" stroke="white" stroke-width="3"/>
<defs>
<filter id="filter0_f_1965_5061" x="17.5" y="36" width="85" height="46.1007" filterUnits="userSpaceOnUse" color-interpolation-filters="sRGB">
<feFlood flood-opacity="0" result="BackgroundImageFix"/>
<feBlend mode="normal" in="SourceGraphic" in2="BackgroundImageFix" result="shape"/>
<feGaussianBlur stdDeviation="3.5" result="effect1_foregroundBlur_1965_5061"/>
</filter>
<linearGradient id="paint0_linear_1965_5061" x1="18.9138" y1="49.4637" x2="46.2563" y2="16.8782" gradientUnits="userSpaceOnUse">
<stop stop-color="#686E73"/>
<stop offset="0.9891" stop-color="#6A7075"/>
</linearGradient>
<linearGradient id="paint1_linear_1965_5061" x1="53.5" y1="44.5" x2="55.5" y2="77.1" gradientUnits="userSpaceOnUse">
<stop offset="0.484375" stop-color="white" stop-opacity="0"/>
<stop offset="1" stop-color="#B3B2B2"/>
</linearGradient>
</defs>
</svg>
