<svg width="100" height="102" viewBox="0 0 100 102" fill="none" xmlns="http://www.w3.org/2000/svg">
<path d="M9.7612 44.6108L9.76031 44.6117C6.71717 47.7676 5 51.8591 5 56.2V56.4V56.4244L5.00059 56.4488C5.11263 61.0423 6.91058 65.2533 10.211 68.3394C13.2961 71.4108 17.4992 73.1 21.9 73.1H77.6C86.5864 73.1 94 65.8227 94 56.8C94 49.73 89.4681 43.5618 83.0335 41.3354C80.4768 29.6911 69.9526 21 57.7 21C48.4299 21 40.0102 25.8893 35.4313 33.6938C34.5454 33.488 33.6662 33.4 32.8 33.4C28.3287 33.4 24.3727 35.7859 22.3647 39.5016C22.2209 39.5 22.0815 39.5 21.9457 39.5L21.9 39.5C17.2669 39.5 12.9446 41.3137 9.7612 44.6108Z" fill="#999999" stroke="#606E7C" stroke-width="4"/>
<g opacity="0.6">
<path fill-rule="evenodd" clip-rule="evenodd" d="M81.3 42.9C79.4 31.6 69.4 23 57.7 23C48.6 23 40.4 28.1 36.4 36.1C35.2 35.6 34 35.4 32.8 35.4C28.6 35.4 25 37.9 23.6 41.6C23 41.5 22.5 41.5 21.9 41.5C17.8 41.5 14 43.1 11.2 46C8.5 48.8 7 52.4 7 56.2V56.4C7.1 60.5 8.7 64.2 11.6 66.9C14.3 69.6 18 71.1 21.9 71.1H77.6C85.5 71.1 92 64.7 92 56.8C92 50.2 87.5 44.5 81.3 42.9Z" fill="url(#paint0_linear_1965_4994)" style="mix-blend-mode:multiply"/>
</g>
<g style="mix-blend-mode:multiply" opacity="0.3" filter="url(#filter0_f_1965_4994)">
<path d="M29.5 64C31.2867 64 54.3482 62.7276 55.98 62C58.2101 61.0057 53.5895 55.0283 55.98 54.5307C57.0594 54.306 58.6465 53.6032 58.6465 53.6032C58.6465 53.6032 62.9994 52.0007 63.75 52.0007C64.5006 52.0007 64.1244 49.0374 63.8901 47.1913L63.75 45.8707C63.75 45.0007 61.158 43.1968 60.75 41.0007C60.4663 39.4736 61.1738 37.416 61.0258 37.033C61.0258 37.033 60.9751 37.0044 60.99 37.0007C61.0045 36.997 61.0163 37.0084 61.0258 37.033C61.1384 37.0858 61.9481 37.3602 61.9481 37.3602C63.8959 38.0203 66.9771 39.0993 69.75 41.0007C71.4084 42.1378 73.6911 44.3144 73.6911 44.3144C73.6911 44.3144 75.3358 45.5864 75.75 46.0007C76.75 47.0007 79.75 50.0007 81.75 50.0007H86.75L89 51.5907L89.5 54.8007C89.5 62.7007 83 69.1007 75.1 69.1007H18.5C18.5 69.1007 23 64 29.5 64Z" fill="#B6B6B6"/>
</g>
<path d="M19.8714 91.162L19.9468 91.1968L20.0257 91.2231C20.3672 91.3369 20.9528 91.5 21.5 91.5C23.0151 91.5 24.518 90.7142 25.1828 89.0817L28.6742 81.1013L28.6878 81.0702L28.7 81.0385C29.464 79.052 28.6952 76.7919 26.6286 75.8381L26.5841 75.8176L26.5385 75.8C24.552 75.036 22.2919 75.8048 21.3381 77.8714L21.3318 77.8851L21.3258 77.8988L17.8258 85.8988L17.8122 85.9299L17.8 85.9616C17.036 87.948 17.8048 90.2081 19.8714 91.162Z" fill="#006EDB" stroke="white" stroke-width="3"/>
<path d="M33.8714 100.162L33.9468 100.197L34.0257 100.223C34.3672 100.337 34.9528 100.5 35.5 100.5C37.0151 100.5 38.518 99.7142 39.1828 98.0817L42.6742 90.1013L42.6878 90.0702L42.7 90.0385C43.464 88.052 42.6952 85.7919 40.6286 84.8381L40.5841 84.8176L40.5385 84.8C38.552 84.036 36.2919 84.8048 35.3381 86.8714L35.3318 86.8851L35.3258 86.8988L31.8258 94.8988L31.8122 94.9299L31.8 94.9616C31.036 96.948 31.8048 99.2081 33.8714 100.162Z" fill="#006EDB" stroke="white" stroke-width="3"/>
<path d="M75.8714 100.162L75.9468 100.197L76.0257 100.223C76.3672 100.337 76.9528 100.5 77.5 100.5C79.0151 100.5 80.518 99.7142 81.1828 98.0817L84.6742 90.1013L84.6878 90.0702L84.7 90.0385C85.464 88.052 84.6952 85.7919 82.6286 84.8381L82.5841 84.8176L82.5385 84.8C80.552 84.036 78.2919 84.8048 77.3381 86.8714L77.3318 86.8851L77.3258 86.8988L73.8258 94.8988L73.8122 94.9299L73.8 94.9616C73.036 96.948 73.8048 99.2081 75.8714 100.162Z" fill="#006EDB" stroke="white" stroke-width="3"/>
<path d="M61.8714 91.162L61.9468 91.1968L62.0257 91.2231C62.3672 91.3369 62.9528 91.5 63.5 91.5C65.0151 91.5 66.518 90.7142 67.1828 89.0817L70.6742 81.1013L70.6878 81.0702L70.7 81.0385C71.464 79.052 70.6952 76.7919 68.6286 75.8381L68.5841 75.8176L68.5385 75.8C66.552 75.036 64.2919 75.8048 63.3381 77.8714L63.3318 77.8851L63.3258 77.8988L59.8258 85.8988L59.8122 85.9299L59.8 85.9616C59.036 87.948 59.8048 90.2081 61.8714 91.162Z" fill="#006EDB" stroke="white" stroke-width="3"/>
<path d="M48.8714 91.162L48.9468 91.1968L49.0257 91.2231C49.3672 91.3369 49.9528 91.5 50.5 91.5C52.0151 91.5 53.518 90.7142 54.1828 89.0817L57.6742 81.1013L57.6878 81.0702L57.7 81.0385C58.464 79.052 57.6952 76.7919 55.6286 75.8381L55.5841 75.8176L55.5385 75.8C53.552 75.036 51.2919 75.8048 50.3381 77.8714L50.3318 77.8851L50.3258 77.8988L46.8258 85.8988L46.8122 85.9299L46.8 85.9616C46.036 87.948 46.8048 90.2081 48.8714 91.162Z" fill="#006EDB" stroke="white" stroke-width="3"/>
<defs>
<filter id="filter0_f_1965_4994" x="11.5" y="30" width="85" height="46.1007" filterUnits="userSpaceOnUse" color-interpolation-filters="sRGB">
<feFlood flood-opacity="0" result="BackgroundImageFix"/>
<feBlend mode="normal" in="SourceGraphic" in2="BackgroundImageFix" result="shape"/>
<feGaussianBlur stdDeviation="3.5" result="effect1_foregroundBlur_1965_4994"/>
</filter>
<linearGradient id="paint0_linear_1965_4994" x1="47.5" y1="38.5" x2="49.5" y2="71.1" gradientUnits="userSpaceOnUse">
<stop offset="0.484375" stop-color="white" stop-opacity="0"/>
<stop offset="1" stop-color="#B3B2B2"/>
</linearGradient>
</defs>
</svg>
