<svg width="100" height="103" viewBox="0 0 100 103" fill="none" xmlns="http://www.w3.org/2000/svg">
<path d="M9.7612 44.6108L9.76031 44.6117C6.71717 47.7676 5 51.8591 5 56.2V56.4V56.4244L5.00059 56.4488C5.11263 61.0423 6.91058 65.2533 10.211 68.3394C13.2961 71.4108 17.4992 73.1 21.9 73.1H77.6C86.5864 73.1 94 65.8227 94 56.8C94 49.73 89.4681 43.5618 83.0335 41.3354C80.4768 29.6911 69.9526 21 57.7 21C48.4299 21 40.0102 25.8893 35.4313 33.6938C34.5454 33.488 33.6662 33.4 32.8 33.4C28.3287 33.4 24.3727 35.7859 22.3647 39.5016C22.2209 39.5 22.0815 39.5 21.9457 39.5L21.9 39.5C17.2669 39.5 12.9446 41.3137 9.7612 44.6108Z" fill="#B2B2B2" stroke="#606E7C" stroke-width="4"/>
<g opacity="0.6">
<path fill-rule="evenodd" clip-rule="evenodd" d="M81.3 42.9C79.4 31.6 69.4 23 57.7 23C48.6 23 40.4 28.1 36.4 36.1C35.2 35.6 34 35.4 32.8 35.4C28.6 35.4 25 37.9 23.6 41.6C23 41.5 22.5 41.5 21.9 41.5C17.8 41.5 14 43.1 11.2 46C8.5 48.8 7 52.4 7 56.2V56.4C7.1 60.5 8.7 64.2 11.6 66.9C14.3 69.6 18 71.1 21.9 71.1H77.6C85.5 71.1 92 64.7 92 56.8C92 50.2 87.5 44.5 81.3 42.9Z" fill="url(#paint0_linear_1965_4996)" style="mix-blend-mode:multiply"/>
</g>
<g style="mix-blend-mode:multiply" opacity="0.3" filter="url(#filter0_f_1965_4996)">
<path d="M29.5 64C31.2867 64 54.3482 62.7276 55.98 62C58.2101 61.0057 53.5895 55.0283 55.98 54.5307C57.0594 54.306 58.6465 53.6032 58.6465 53.6032C58.6465 53.6032 62.9994 52.0007 63.75 52.0007C64.5006 52.0007 64.1244 49.0374 63.8901 47.1913L63.75 45.8707C63.75 45.0007 61.158 43.1968 60.75 41.0007C60.4663 39.4736 61.1738 37.416 61.0258 37.033C61.0258 37.033 60.9751 37.0044 60.99 37.0007C61.0045 36.997 61.0163 37.0084 61.0258 37.033C61.1384 37.0858 61.9481 37.3602 61.9481 37.3602C63.8959 38.0203 66.9771 39.0993 69.75 41.0007C71.4084 42.1378 73.6911 44.3144 73.6911 44.3144C73.6911 44.3144 75.3358 45.5864 75.75 46.0007C76.75 47.0007 79.75 50.0007 81.75 50.0007H86.75L89 51.5907L89.5 54.8007C89.5 62.7007 83 69.1007 75.1 69.1007H18.5C18.5 69.1007 23 64 29.5 64Z" fill="#B6B6B6"/>
</g>
<path d="M30.4884 81.9H30.4H30.3066L30.2139 81.9115C28.8336 82.0841 27.5 83.1835 27.5 84.8C27.5 86.2586 28.7034 87.7 30.4 87.7H30.5884L30.5218 87.8143C30.0258 88.5957 30.0807 89.4856 30.277 90.0743C30.4662 90.6421 30.8505 91.2364 31.4679 91.648C32.2125 92.1444 33.0679 92.1619 33.7386 91.9632C34.3843 91.7718 35.0417 91.3282 35.4147 90.6231L35.4734 90.5225L35.5779 90.7091C36.0633 91.6395 37.0978 92.2 38.1 92.2C38.6399 92.2 39.1859 91.9841 39.4708 91.8416L39.5543 91.7998L39.6321 91.748C40.6587 91.0636 41.5356 89.4246 40.5853 87.9252L40.4592 87.7H40.7C42.1586 87.7 43.6 86.4965 43.6 84.8C43.6 82.9629 42.0032 82 40.7 82H40.4592L40.5865 81.7725C41.3817 80.505 41.0393 78.5874 39.4712 77.8571C38.098 77.1198 36.417 77.5298 35.6015 78.9491L35.5 79.123L35.3985 78.949C34.6264 77.6059 32.9299 77.043 31.5481 77.9003C30.7903 78.3069 30.3755 78.9301 30.177 79.5256C30.0228 79.9881 30.0492 80.4262 30.0901 80.7121C30.1333 81.0143 30.2141 81.2856 30.277 81.4743L30.3261 81.6216L30.4043 81.7558L30.4884 81.9Z" fill="#00A4D6" stroke="white" stroke-width="3"/>
<path d="M47.8714 101.162L47.9468 101.197L48.0257 101.223C48.3672 101.337 48.9528 101.5 49.5 101.5C51.0151 101.5 52.518 100.714 53.1828 99.0817L56.6742 91.1013L56.6878 91.0702L56.7 91.0385C57.464 89.052 56.6952 86.7919 54.6286 85.8381L54.5841 85.8176L54.5385 85.8C52.552 85.036 50.2919 85.8048 49.3381 87.8714L49.3318 87.8851L49.3258 87.8988L45.8258 95.8988L45.8122 95.9299L45.8 95.9616C45.036 97.948 45.8048 100.208 47.8714 101.162Z" fill="#006EDB" stroke="white" stroke-width="3"/>
<path d="M62.8714 93.162L62.9468 93.1968L63.0257 93.2231C63.3672 93.3369 63.9528 93.5 64.5 93.5C66.0151 93.5 67.518 92.7142 68.1828 91.0817L71.6742 83.1013L71.6878 83.0702L71.7 83.0385C72.464 81.052 71.6952 78.7919 69.6286 77.8381L69.5841 77.8176L69.5385 77.8C67.552 77.036 65.2919 77.8048 64.3381 79.8714L64.3318 79.8851L64.3258 79.8988L60.8258 87.8988L60.8122 87.9299L60.8 87.9616C60.036 89.948 60.8048 92.2081 62.8714 93.162Z" fill="#006EDB" stroke="white" stroke-width="3"/>
<defs>
<filter id="filter0_f_1965_4996" x="11.5" y="30" width="85" height="46.1006" filterUnits="userSpaceOnUse" color-interpolation-filters="sRGB">
<feFlood flood-opacity="0" result="BackgroundImageFix"/>
<feBlend mode="normal" in="SourceGraphic" in2="BackgroundImageFix" result="shape"/>
<feGaussianBlur stdDeviation="3.5" result="effect1_foregroundBlur_1965_4996"/>
</filter>
<linearGradient id="paint0_linear_1965_4996" x1="47.5" y1="38.5" x2="49.5" y2="71.1" gradientUnits="userSpaceOnUse">
<stop offset="0.484375" stop-color="white" stop-opacity="0"/>
<stop offset="1" stop-color="#B3B2B2"/>
</linearGradient>
</defs>
</svg>
