<svg width="100" height="103" viewBox="0 0 100 103" fill="none" xmlns="http://www.w3.org/2000/svg">
<path d="M59.4972 71.8216L59.9917 73.1H61.3625H77.6C86.5864 73.1 94 65.8227 94 56.8C94 49.73 89.4681 43.5618 83.0335 41.3354C80.4768 29.6911 69.9526 21 57.7 21C48.4299 21 40.0102 25.8893 35.4313 33.6938C34.5454 33.488 33.6662 33.4 32.8 33.4C28.3287 33.4 24.3727 35.7859 22.3647 39.5016C22.2209 39.5 22.0815 39.5 21.9457 39.5L21.9 39.5C17.2669 39.5 12.9446 41.3137 9.7612 44.6108L9.76031 44.6117C6.71717 47.7676 5 51.8591 5 56.2V56.4V56.4244L5.00059 56.4488C5.11263 61.0424 6.91061 65.2533 10.2111 68.3395C13.2961 71.4108 17.4992 73.1 21.9 73.1H39.7718H40.961L41.529 72.0552L51.8572 53.0552L51.8609 53.0482C52.2062 52.407 52.9232 52 53.6 52C53.6545 52 53.7502 52.0111 53.9056 52.0889L53.9886 52.1304L54.0751 52.164C55.0948 52.5605 55.6133 53.5783 55.4429 54.388L55.4366 54.4178L55.4312 54.4479L53.2312 66.7479L52.9506 68.3171L54.4177 68.9407L58.392 70.6297C58.9509 70.8886 59.2752 71.2478 59.4972 71.8216Z" fill="#B2B2B2" stroke="#606E7C" stroke-width="4"/>
<g opacity="0.6">
<path fill-rule="evenodd" clip-rule="evenodd" d="M57.7 23C69.4 23 79.4 31.6 81.3 42.9C87.5 44.5 92 50.2 92 56.8C92 64.7 85.5 71.1 77.6 71.1H61.3625C60.9568 70.0514 60.2664 69.2847 59.2 68.8L55.2 67.1L57.4 54.8C57.8 52.9 56.6 51 54.8 50.3C54.4 50.1 54 50 53.6 50C52.2 50 50.8 50.8 50.1 52.1L39.7718 71.1H21.9C18 71.1 14.3 69.6 11.6 66.9C8.7 64.2 7.1 60.5 7 56.4V56.2C7 52.4 8.5 48.8 11.2 46C14 43.1 17.8 41.5 21.9 41.5C22.5 41.5 23 41.5 23.6 41.6C25 37.9 28.6 35.4 32.8 35.4C34 35.4 35.2 35.6 36.4 36.1C40.4 28.1 48.6 23 57.7 23Z" fill="url(#paint0_linear_1965_4998)" style="mix-blend-mode:multiply"/>
</g>
<g style="mix-blend-mode:multiply" opacity="0.3" filter="url(#filter0_f_1965_4998)">
<path fill-rule="evenodd" clip-rule="evenodd" d="M44.0731 63.1873C37.4845 63.6367 30.4547 64 29.5 64C23 64 18.5 69.1007 18.5 69.1007H40.8586L44.0731 63.1873ZM56.4846 59.9179L57.4 54.8C57.4512 54.5569 57.4762 54.3139 57.4771 54.0733C58.1252 53.834 58.6465 53.6032 58.6465 53.6032C58.6465 53.6032 62.9994 52.0007 63.75 52.0007C64.5006 52.0007 64.1244 49.0375 63.8901 47.1913L63.8901 47.1913L63.75 45.8707C63.75 45.509 63.3022 44.9861 62.7496 44.3407C61.9726 43.4334 60.9884 42.284 60.75 41.0007C60.5753 40.0605 60.7764 38.9193 60.9222 38.0915C61.0132 37.5748 61.0827 37.1802 61.0258 37.033C61.1384 37.0858 61.9481 37.3602 61.9481 37.3602C63.8959 38.0203 66.9771 39.0993 69.75 41.0007C71.4084 42.1378 73.6911 44.3144 73.6911 44.3144C73.6911 44.3144 75.3358 45.5864 75.75 46.0007C76.75 47.0007 79.75 50.0007 81.75 50.0007H86.75L89 51.5907L89.5 54.8007C89.5 62.7007 83 69.1007 75.1 69.1007H59.7581C59.5847 68.9906 59.3989 68.8904 59.2 68.8L55.2 67.1L56.1262 61.9217C56.6816 61.567 56.6884 60.8141 56.4846 59.9179ZM60.99 37.0007C61.0045 36.997 61.0163 37.0084 61.0258 37.033C61.0258 37.033 60.9751 37.0044 60.99 37.0007Z" fill="#B6B6B6"/>
</g>
<path d="M42.2216 75.3423L47.7251 77.6677L43.5657 93.4916C43.3101 94.464 43.8162 95.475 44.7478 95.8531C45.6794 96.2313 46.747 95.859 47.2414 94.9836L59.4414 73.3836C59.7201 72.8903 59.7764 72.3019 59.5964 71.7647C59.4164 71.2275 59.017 70.7918 58.4975 70.5659L53.0513 68.198L55.5677 54.3578C55.7435 53.3913 55.1913 52.4403 54.2649 52.1137C53.3384 51.7872 52.312 52.1818 51.8428 53.0448L41.2428 72.5448C40.9732 73.0408 40.9258 73.6276 41.1122 74.1605C41.2986 74.6933 41.7016 75.1226 42.2216 75.3423Z" fill="#FF9D00" stroke="white" stroke-width="4" stroke-linejoin="round"/>
<path d="M27.4884 81.9H27.4H27.3066L27.2139 81.9115C25.8336 82.0841 24.5 83.1835 24.5 84.8C24.5 86.2586 25.7034 87.7 27.4 87.7H27.5884L27.5218 87.8143C27.0258 88.5957 27.0807 89.4856 27.277 90.0743C27.4662 90.6421 27.8505 91.2364 28.4679 91.648C29.2125 92.1444 30.0679 92.1619 30.7386 91.9632C31.3843 91.7718 32.0417 91.3282 32.4147 90.6231L32.4734 90.5225L32.5779 90.7091C33.0633 91.6395 34.0978 92.2 35.1 92.2C35.6399 92.2 36.1859 91.9841 36.4708 91.8416L36.5543 91.7998L36.6321 91.748C37.6587 91.0636 38.5356 89.4246 37.5853 87.9252L37.4592 87.7H37.7C39.1586 87.7 40.6 86.4965 40.6 84.8C40.6 82.9629 39.0032 82 37.7 82H37.4592L37.5865 81.7725C38.3817 80.505 38.0393 78.5874 36.4712 77.8571C35.098 77.1198 33.417 77.5298 32.6015 78.9491L32.5 79.123L32.3985 78.949C31.6264 77.6059 29.9299 77.043 28.5481 77.9003C27.7903 78.3069 27.3755 78.9301 27.177 79.5256C27.0228 79.9881 27.0492 80.4262 27.0901 80.7121C27.1333 81.0143 27.2141 81.2856 27.277 81.4743L27.3261 81.6216L27.4043 81.7558L27.4884 81.9Z" fill="#00A4D6" stroke="white" stroke-width="3"/>
<path d="M54.4884 90.9H54.4H54.3066L54.2139 90.9115C52.8336 91.0841 51.5 92.1835 51.5 93.8C51.5 95.2586 52.7034 96.7 54.4 96.7H54.5884L54.5218 96.8143C54.0258 97.5957 54.0807 98.4856 54.277 99.0743C54.4662 99.6421 54.8505 100.236 55.4679 100.648C56.2125 101.144 57.0679 101.162 57.7386 100.963C58.3843 100.772 59.0417 100.328 59.4147 99.6231L59.4734 99.5225L59.5779 99.7091C60.0633 100.64 61.0978 101.2 62.1 101.2C62.6399 101.2 63.1859 100.984 63.4708 100.842L63.5543 100.8L63.6321 100.748C64.6587 100.064 65.5356 98.4246 64.5853 96.9252L64.4592 96.7H64.7C66.1586 96.7 67.6 95.4965 67.6 93.8C67.6 91.9629 66.0032 91 64.7 91H64.4592L64.5865 90.7725C65.3817 89.505 65.0393 87.5874 63.4712 86.8571C62.098 86.1198 60.417 86.5298 59.6015 87.9491L59.5 88.123L59.3985 87.949C58.6264 86.6059 56.9299 86.043 55.5481 86.9003C54.7903 87.3069 54.3755 87.9301 54.177 88.5256C54.0228 88.9881 54.0492 89.4262 54.0901 89.7121C54.1333 90.0143 54.2141 90.2856 54.277 90.4743L54.3261 90.6216L54.4043 90.7558L54.4884 90.9Z" fill="#00A4D6" stroke="white" stroke-width="3"/>
<path d="M67.4884 81.9H67.4H67.3066L67.2139 81.9115C65.8336 82.0841 64.5 83.1835 64.5 84.8C64.5 86.2586 65.7034 87.7 67.4 87.7H67.5884L67.5218 87.8143C67.0258 88.5957 67.0807 89.4856 67.277 90.0743C67.4662 90.6421 67.8505 91.2364 68.4679 91.648C69.2125 92.1444 70.0679 92.1619 70.7386 91.9632C71.3843 91.7718 72.0417 91.3282 72.4147 90.6231L72.4734 90.5225L72.5779 90.7091C73.0633 91.6395 74.0978 92.2 75.1 92.2C75.6399 92.2 76.1859 91.9841 76.4708 91.8416L76.5543 91.7998L76.6321 91.748C77.6587 91.0636 78.5356 89.4246 77.5853 87.9252L77.4592 87.7H77.7C79.1586 87.7 80.6 86.4965 80.6 84.8C80.6 82.9629 79.0032 82 77.7 82H77.4592L77.5865 81.7725C78.3817 80.505 78.0393 78.5874 76.4712 77.8571C75.098 77.1198 73.417 77.5298 72.6015 78.9491L72.5 79.123L72.3985 78.949C71.6264 77.6059 69.9299 77.043 68.5481 77.9003C67.7903 78.3069 67.3755 78.9301 67.177 79.5256C67.0228 79.9881 67.0492 80.4262 67.0901 80.7121C67.1333 81.0143 67.2141 81.2856 67.277 81.4743L67.3261 81.6216L67.4043 81.7558L67.4884 81.9Z" fill="#00A4D6" stroke="white" stroke-width="3"/>
<defs>
<filter id="filter0_f_1965_4998" x="11.5" y="30" width="85" height="46.1006" filterUnits="userSpaceOnUse" color-interpolation-filters="sRGB">
<feFlood flood-opacity="0" result="BackgroundImageFix"/>
<feBlend mode="normal" in="SourceGraphic" in2="BackgroundImageFix" result="shape"/>
<feGaussianBlur stdDeviation="3.5" result="effect1_foregroundBlur_1965_4998"/>
</filter>
<linearGradient id="paint0_linear_1965_4998" x1="47.5" y1="38.5" x2="49.5" y2="71.1" gradientUnits="userSpaceOnUse">
<stop offset="0.484375" stop-color="white" stop-opacity="0"/>
<stop offset="1" stop-color="#B3B2B2"/>
</linearGradient>
</defs>
</svg>
