<svg xmlns="http://www.w3.org/2000/svg" width="100" height="103" fill="none" viewBox="0 0 100 103"><path fill="#B2B2B2" stroke="#606E7C" stroke-width="4" d="M59.497 71.822l.495 1.278H77.6c8.986 0 16.4-7.277 16.4-16.3 0-7.07-4.532-13.238-10.966-15.465C80.477 29.691 69.953 21 57.7 21c-9.27 0-17.69 4.89-22.269 12.694A11.584 11.584 0 0032.8 33.4c-4.471 0-8.427 2.386-10.435 6.102-.144-.002-.284-.002-.42-.002H21.9c-4.633 0-8.955 1.814-12.139 5.11v.002C6.716 47.768 5 51.859 5 56.2v.249c.113 4.593 1.91 8.804 5.211 11.89C13.296 71.412 17.5 73.1 21.9 73.1h19.061l.568-1.045 10.328-19 .004-.007A2.043 2.043 0 0153.6 52a.68.68 0 01.306.089l.083.041.086.034c1.02.396 1.538 1.414 1.368 2.224l-.006.03-.006.03-2.2 12.3-.28 1.57 1.467.623 3.974 1.689c.559.259.883.618 1.105 1.192z"/><path fill="url(#14__14__paint0_linear_1965_4998)" fill-rule="evenodd" d="M57.7 23c11.7 0 21.7 8.6 23.6 19.9C87.5 44.5 92 50.2 92 56.8c0 7.9-6.5 14.3-14.4 14.3H61.363c-.406-1.049-1.097-1.815-2.163-2.3l-4-1.7 2.2-12.3c.4-1.9-.8-3.8-2.6-4.5-.4-.2-.8-.3-1.2-.3-1.4 0-2.8.8-3.5 2.1l-10.328 19H21.9c-3.9 0-7.6-1.5-10.3-4.2-2.9-2.7-4.5-6.4-4.6-10.5v-.2c0-3.8 1.5-7.4 4.2-10.2 2.8-2.9 6.6-4.5 10.7-4.5.6 0 1.1 0 1.7.1 1.4-3.7 5-6.2 9.2-6.2 1.2 0 2.4.2 3.6.7 4-8 12.2-13.1 21.3-13.1z" clip-rule="evenodd" style="mix-blend-mode:multiply" opacity=".6"/><g style="mix-blend-mode:multiply" filter="url(#14__14__filter0_f_1965_4998)" opacity=".3"><path fill="#B6B6B6" fill-rule="evenodd" d="M44.073 63.187c-6.589.45-13.618.813-14.573.813-6.5 0-11 5.1-11 5.1h22.359l3.214-5.913zm12.412-3.27L57.4 54.8c.051-.243.076-.486.077-.727.648-.239 1.17-.47 1.17-.47s4.352-1.602 5.103-1.602c.75 0 .374-2.963.14-4.81l-.14-1.32c0-.362-.448-.885-1-1.53-.777-.908-1.762-2.057-2-3.34-.175-.94.026-2.082.172-2.91.091-.516.16-.91.104-1.058.112.053.922.327.922.327 1.948.66 5.03 1.74 7.802 3.64 1.658 1.138 3.941 3.314 3.941 3.314s1.645 1.272 2.059 1.687c1 1 4 4 6 4h5L89 51.59l.5 3.21c0 7.9-6.5 14.3-14.4 14.3H59.758a4.69 4.69 0 00-.558-.301l-4-1.7.926-5.178c.556-.355.562-1.108.359-2.004zm4.505-22.916c.014-.004.026.007.036.032 0 0-.05-.029-.036-.032z" clip-rule="evenodd"/></g><path fill="#FF9D00" stroke="#fff" stroke-linejoin="round" stroke-width="4" d="M42.222 75.342l5.503 2.326-4.16 15.824a2 2 0 003.676 1.492l12.2-21.6a2 2 0 00-.944-2.818l-5.446-2.368 2.517-13.84a2 2 0 00-3.725-1.313l-10.6 19.5a2 2 0 00.979 2.797z"/><path fill="#00A4D6" stroke="#fff" stroke-width="3" d="M27.488 81.9h-.181l-.093.011c-1.38.173-2.714 1.272-2.714 2.889 0 1.459 1.203 2.9 2.9 2.9h.188l-.066.114c-.496.782-.441 1.672-.245 2.26a3.06 3.06 0 001.19 1.574c.745.496 1.6.514 2.272.315.645-.191 1.303-.635 1.676-1.34l.058-.1.105.186c.485.93 1.52 1.491 2.522 1.491.54 0 1.086-.216 1.37-.358l.084-.042.078-.052c1.027-.684 1.904-2.323.953-3.823l-.126-.225h.241c1.459 0 2.9-1.204 2.9-2.9 0-1.837-1.597-2.8-2.9-2.8h-.24l.127-.228c.795-1.267.452-3.185-1.116-3.915-1.373-.737-3.054-.327-3.87 1.092l-.101.174-.102-.174c-.772-1.343-2.468-1.906-3.85-1.049a2.832 2.832 0 00-1.371 1.626c-.154.462-.128.9-.087 1.186.043.302.124.574.187.762l.05.148.077.134.084.144zm27 9h-.181l-.093.011c-1.38.173-2.714 1.272-2.714 2.889 0 1.459 1.203 2.9 2.9 2.9h.188l-.066.114c-.496.782-.441 1.672-.245 2.26a3.06 3.06 0 001.19 1.574c.745.496 1.6.514 2.272.315.645-.191 1.303-.635 1.676-1.34l.058-.1.105.186c.485.931 1.52 1.491 2.522 1.491.54 0 1.086-.216 1.37-.358l.084-.042.078-.052c1.027-.684 1.904-2.323.953-3.823l-.126-.225h.241c1.459 0 2.9-1.204 2.9-2.9 0-1.837-1.597-2.8-2.9-2.8h-.24l.127-.228c.795-1.267.452-3.185-1.116-3.915-1.373-.737-3.054-.327-3.87 1.092l-.101.174-.102-.174c-.772-1.343-2.468-1.906-3.85-1.049a2.832 2.832 0 00-1.371 1.626c-.154.462-.128.9-.087 1.186.043.302.124.574.187.762l.05.148.077.134.084.144zm13-9h-.181l-.093.011c-1.38.173-2.714 1.272-2.714 2.889 0 1.459 1.203 2.9 2.9 2.9h.188l-.066.114c-.496.782-.441 1.672-.245 2.26a3.06 3.06 0 001.19 1.574c.746.496 1.6.514 2.272.315.645-.191 1.303-.635 1.676-1.34l.058-.1.105.186c.485.93 1.52 1.491 2.522 1.491.54 0 1.086-.216 1.37-.358l.084-.042.078-.052c1.027-.684 1.904-2.323.953-3.823l-.126-.225h.241c1.459 0 2.9-1.204 2.9-2.9 0-1.837-1.597-2.8-2.9-2.8h-.24l.127-.228c.795-1.267.452-3.185-1.116-3.915-1.373-.737-3.054-.327-3.87 1.092l-.101.174-.102-.174c-.772-1.343-2.468-1.906-3.85-1.049a2.832 2.832 0 00-1.371 1.626c-.154.462-.128.9-.087 1.186.043.302.124.574.187.762l.05.148.077.134.084.144z"/><defs><linearGradient id="14__14__paint0_linear_1965_4998" x1="47.5" x2="49.5" y1="38.5" y2="71.1" gradientUnits="userSpaceOnUse"><stop offset=".484" stop-color="#fff" stop-opacity="0"/><stop offset="1" stop-color="#B3B2B2"/></linearGradient><filter id="14__14__filter0_f_1965_4998" width="85" height="46.101" x="11.5" y="30" color-interpolation-filters="sRGB" filterUnits="userSpaceOnUse"><feFlood flood-opacity="0" result="BackgroundImageFix"/><feBlend in="SourceGraphic" in2="BackgroundImageFix" result="shape"/><feGaussianBlur result="effect1_foregroundBlur_1965_4998" stdDeviation="3.5"/></filter></defs></svg>