<svg width="120" height="120" viewBox="0 0 120 120" fill="none" xmlns="http://www.w3.org/2000/svg">
<g clip-path="url(#clip0_1965_4999)" filter="url(#filter0_d_1965_4999)">
<path d="M19.7612 51.6108L19.7603 51.6117C16.7172 54.7676 15 58.8591 15 63.2V63.4V63.4244L15.0006 63.4488C15.1126 68.0423 16.9106 72.2533 20.211 75.3394C23.2961 78.4108 27.4992 80.1 31.9 80.1H87.6C96.5864 80.1 104 72.8227 104 63.8C104 56.73 99.4681 50.5618 93.0335 48.3354C90.4768 36.6911 79.9526 28 67.7 28C58.4299 28 50.0102 32.8893 45.4313 40.6938C44.5454 40.488 43.6662 40.4 42.8 40.4C38.3287 40.4 34.3727 42.7859 32.3647 46.5016C32.2209 46.5 32.0815 46.5 31.9457 46.5L31.9 46.5C27.2669 46.5 22.9446 48.3137 19.7612 51.6108Z" fill="#DDDDDD" stroke="#56616C" stroke-width="4"/>
<g opacity="0.6">
<path fill-rule="evenodd" clip-rule="evenodd" d="M91.3 49.9C89.4 38.6 79.4 30 67.7 30C58.6 30 50.4 35.1 46.4 43.1C45.2 42.6 44 42.4 42.8 42.4C38.6 42.4 35 44.9 33.6 48.6C33 48.5 32.5 48.5 31.9 48.5C27.8 48.5 24 50.1 21.2 53C18.5 55.8 17 59.4 17 63.2V63.4C17.1 67.5 18.7 71.2 21.6 73.9C24.3 76.6 28 78.1 31.9 78.1H87.6C95.5 78.1 102 71.7 102 63.8C102 57.2 97.5 51.5 91.3 49.9Z" fill="url(#paint0_linear_1965_4999)" style="mix-blend-mode:multiply"/>
</g>
<g style="mix-blend-mode:multiply" opacity="0.3" filter="url(#filter1_f_1965_4999)">
<path d="M39.5 71C41.2867 71 64.3482 69.7276 65.98 69C68.2101 68.0057 63.5895 62.0283 65.98 61.5307C67.0594 61.306 68.6465 60.6032 68.6465 60.6032C68.6465 60.6032 72.9994 59.0007 73.75 59.0007C74.5006 59.0007 74.1244 56.0374 73.8901 54.1913L73.75 52.8707C73.75 52.0007 71.158 50.1968 70.75 48.0007C70.4663 46.4736 71.1738 44.416 71.0258 44.033C71.0258 44.033 70.9751 44.0044 70.99 44.0007C71.0045 43.997 71.0163 44.0084 71.0258 44.033C71.1384 44.0858 71.9481 44.3602 71.9481 44.3602C73.8959 45.0203 76.9771 46.0993 79.75 48.0007C81.4084 49.1378 83.6911 51.3144 83.6911 51.3144C83.6911 51.3144 85.3358 52.5864 85.75 53.0007C86.75 54.0007 89.75 57.0007 91.75 57.0007H96.75L99 58.5907L99.5 61.8007C99.5 69.7007 93 76.1007 85.1 76.1007H28.5C28.5 76.1007 33 71 39.5 71Z" fill="#B6B6B6"/>
</g>
<path d="M24.3 86.5H98.7C99.7424 86.5 100.5 85.5048 100.5 84.5C100.5 83.4952 99.7424 82.5 98.7 82.5H24.3C23.2576 82.5 22.5 83.4952 22.5 84.5C22.5 85.5048 23.2576 86.5 24.3 86.5Z" fill="#56616C" stroke="white"/>
<path d="M22.3 102.5H96.7C97.7424 102.5 98.5 101.505 98.5 100.5C98.5 99.4952 97.7424 98.5 96.7 98.5H22.3C21.2576 98.5 20.5 99.4952 20.5 100.5C20.5 101.505 21.2576 102.5 22.3 102.5Z" fill="#56616C" stroke="white"/>
<path d="M12.3 94.5H86.7C87.7424 94.5 88.5 93.5048 88.5 92.5C88.5 91.4952 87.7424 90.5 86.7 90.5H12.3C11.2576 90.5 10.5 91.4952 10.5 92.5C10.5 93.5048 11.2576 94.5 12.3 94.5Z" fill="#56616C" stroke="white"/>
</g>
<defs>
<filter id="filter0_d_1965_4999" x="0" y="0" width="120" height="120" filterUnits="userSpaceOnUse" color-interpolation-filters="sRGB">
<feFlood flood-opacity="0" result="BackgroundImageFix"/>
<feColorMatrix in="SourceAlpha" type="matrix" values="0 0 0 0 0 0 0 0 0 0 0 0 0 0 0 0 0 0 127 0" result="hardAlpha"/>
<feMorphology radius="3" operator="dilate" in="SourceAlpha" result="effect1_dropShadow_1965_4999"/>
<feOffset dy="3"/>
<feGaussianBlur stdDeviation="3.5"/>
<feColorMatrix type="matrix" values="0 0 0 0 0 0 0 0 0 0 0 0 0 0 0 0 0 0 0.35 0"/>
<feBlend mode="normal" in2="BackgroundImageFix" result="effect1_dropShadow_1965_4999"/>
<feBlend mode="normal" in="SourceGraphic" in2="effect1_dropShadow_1965_4999" result="shape"/>
</filter>
<filter id="filter1_f_1965_4999" x="21.5" y="37" width="85" height="46.1006" filterUnits="userSpaceOnUse" color-interpolation-filters="sRGB">
<feFlood flood-opacity="0" result="BackgroundImageFix"/>
<feBlend mode="normal" in="SourceGraphic" in2="BackgroundImageFix" result="shape"/>
<feGaussianBlur stdDeviation="3.5" result="effect1_foregroundBlur_1965_4999"/>
</filter>
<linearGradient id="paint0_linear_1965_4999" x1="57.5" y1="45.5" x2="59.5" y2="78.1" gradientUnits="userSpaceOnUse">
<stop offset="0.484375" stop-color="white" stop-opacity="0"/>
<stop offset="1" stop-color="#B3B2B2"/>
</linearGradient>
<clipPath id="clip0_1965_4999">
<rect width="100" height="100" fill="white" transform="translate(10 7)"/>
</clipPath>
</defs>
</svg>
