<svg width="100" height="100" viewBox="0 0 100 100" fill="none" xmlns="http://www.w3.org/2000/svg">
<g clip-path="url(#clip0_1965_5042)">
<path d="M25.5415 2.92676C27.3268 6.05115 28.4427 9.69627 28.4427 13.5646C28.4427 25.3182 18.9207 34.8402 7.16708 34.8402C6.20001 34.8402 5.30733 34.7658 4.41464 34.617C8.13415 41.0146 14.9781 45.3292 22.789 45.3292C34.5427 45.3292 44.0646 35.8072 44.0646 24.0536C44.0646 13.1926 36.0305 4.26578 25.5415 2.92676Z" fill="url(#paint0_linear_1965_5042)"/>
<path d="M59.4972 71.8216L59.9917 73.1H61.3625H77.6C86.5864 73.1 94 65.8227 94 56.8C94 49.73 89.4681 43.5618 83.0335 41.3354C80.4768 29.6911 69.9526 21 57.7 21C48.4299 21 40.0102 25.8893 35.4313 33.6938C34.5454 33.488 33.6662 33.4 32.8 33.4C28.3287 33.4 24.3727 35.7859 22.3647 39.5016C22.2209 39.5 22.0815 39.5 21.9457 39.5L21.9 39.5C17.2669 39.5 12.9446 41.3137 9.7612 44.6108L9.76031 44.6117C6.71717 47.7676 5 51.8591 5 56.2V56.4V56.4244L5.00059 56.4488C5.11263 61.0424 6.91061 65.2533 10.2111 68.3395C13.2961 71.4108 17.4992 73.1 21.9 73.1H39.7718H40.961L41.529 72.0552L51.8572 53.0552L51.8609 53.0482C52.2062 52.407 52.9232 52 53.6 52C53.6545 52 53.7502 52.0111 53.9056 52.0889L53.9886 52.1304L54.0751 52.164C55.0948 52.5605 55.6133 53.5783 55.4429 54.388L55.4366 54.4178L55.4312 54.4479L53.2312 66.7479L52.9506 68.3171L54.4177 68.9407L58.392 70.6297C58.9509 70.8886 59.2752 71.2478 59.4972 71.8216Z" fill="#B2B2B2" stroke="#56616C" stroke-width="4"/>
<g opacity="0.6">
<path fill-rule="evenodd" clip-rule="evenodd" d="M57.7 23C69.4 23 79.4 31.6 81.3 42.9C87.5 44.5 92 50.2 92 56.8C92 64.7 85.5 71.1 77.6 71.1H61.3625C60.9568 70.0514 60.2664 69.2847 59.2 68.8L55.2 67.1L57.4 54.8C57.8 52.9 56.6 51 54.8 50.3C54.4 50.1 54 50 53.6 50C52.2 50 50.8 50.8 50.1 52.1L39.7718 71.1H21.9C18 71.1 14.3 69.6 11.6 66.9C8.7 64.2 7.1 60.5 7 56.4V56.2C7 52.4 8.5 48.8 11.2 46C14 43.1 17.8 41.5 21.9 41.5C22.5 41.5 23 41.5 23.6 41.6C25 37.9 28.6 35.4 32.8 35.4C34 35.4 35.2 35.6 36.4 36.1C40.4 28.1 48.6 23 57.7 23Z" fill="url(#paint1_linear_1965_5042)" style="mix-blend-mode:multiply"/>
</g>
<g style="mix-blend-mode:multiply" opacity="0.3" filter="url(#filter0_f_1965_5042)">
<path fill-rule="evenodd" clip-rule="evenodd" d="M44.0731 63.1873C37.4845 63.6367 30.4547 64 29.5 64C23 64 18.5 69.1007 18.5 69.1007H40.8586L44.0731 63.1873ZM56.4846 59.9179L57.4 54.8C57.4512 54.5569 57.4762 54.3139 57.4771 54.0733C58.1252 53.834 58.6465 53.6032 58.6465 53.6032C58.6465 53.6032 62.9994 52.0007 63.75 52.0007C64.5006 52.0007 64.1244 49.0375 63.8901 47.1913L63.8901 47.1913L63.75 45.8707C63.75 45.509 63.3022 44.9861 62.7496 44.3407C61.9726 43.4334 60.9884 42.284 60.75 41.0007C60.5753 40.0605 60.7764 38.9193 60.9222 38.0915C61.0132 37.5748 61.0827 37.1802 61.0258 37.033C61.1384 37.0858 61.9481 37.3602 61.9481 37.3602C63.8959 38.0203 66.9771 39.0993 69.75 41.0007C71.4084 42.1378 73.6911 44.3144 73.6911 44.3144C73.6911 44.3144 75.3358 45.5864 75.75 46.0007C76.75 47.0007 79.75 50.0007 81.75 50.0007H86.75L89 51.5907L89.5 54.8007C89.5 62.7007 83 69.1007 75.1 69.1007H59.7581C59.5847 68.9906 59.3989 68.8904 59.2 68.8L55.2 67.1L56.1262 61.9217C56.6816 61.567 56.6884 60.8141 56.4846 59.9179ZM60.99 37.0007C61.0045 36.997 61.0163 37.0084 61.0258 37.033C61.0258 37.033 60.9751 37.0044 60.99 37.0007Z" fill="#B6B6B6"/>
</g>
<path d="M55.5677 54.3578C55.7435 53.3913 55.1913 52.4403 54.2649 52.1137C53.3384 51.7872 52.312 52.1818 51.8428 53.0448L41.2428 72.5448C40.9732 73.0408 40.9258 73.6276 41.1122 74.1605C41.2986 74.6933 41.7016 75.1226 42.2216 75.3423L47.7251 77.6677L43.5657 93.4916C43.3101 94.464 43.8162 95.475 44.7478 95.8531C45.6794 96.2313 46.747 95.859 47.2414 94.9836L59.4414 73.3836C59.7201 72.8903 59.7764 72.3019 59.5964 71.7647C59.4164 71.2275 59.017 70.7918 58.4975 70.5659L53.0513 68.198L55.5677 54.3578Z" fill="#FF9D00" stroke="white" stroke-width="4" stroke-linejoin="round"/>
<path d="M37.7 83.5H34.9L36.3 81C36.7 80.4 36.5 79.5 35.8 79.2C35.1 78.8 34.3 79 33.9 79.7L32.5 82.1L31.1 79.7C30.7 79 29.9 78.8 29.3 79.2C28.9 79.4 28.7 79.7 28.6 80C28.5 80.3 28.6 80.7 28.7 81L30.1 83.4H27.4C26.6 83.5 26 84.1 26 84.8C26 85.5 26.6 86.2 27.4 86.2H30.2L28.8 88.6C28.6 88.9 28.6 89.3 28.7 89.6C28.8 89.9 29 90.2 29.3 90.4C29.9 90.8 30.8 90.5 31.1 89.9L32.5 87.5L33.9 90C34.1 90.4 34.6 90.7 35.1 90.7C35.3 90.7 35.6 90.6 35.8 90.5C36.4 90.1 36.7 89.3 36.3 88.7L34.9 86.2H37.7C38.4 86.2 39.1 85.6 39.1 84.8C39.1 84 38.4 83.5 37.7 83.5Z" fill="#00A4D6"/>
<path d="M64.7 92.5H61.9L63.3 90C63.7 89.4 63.5 88.5 62.8 88.2C62.1 87.8 61.3 88 60.9 88.7L59.5 91.1L58.1 88.7C57.7 88 56.9 87.8 56.3 88.2C55.9 88.4 55.7 88.7 55.6 89C55.5 89.3 55.6 89.7 55.7 90L57.1 92.4H54.4C53.6 92.5 53 93.1 53 93.8C53 94.5 53.6 95.2 54.4 95.2H57.2L55.8 97.6C55.6 97.9 55.6 98.3 55.7 98.6C55.8 98.9 56 99.2 56.3 99.4C56.9 99.8 57.8 99.5 58.1 98.9L59.5 96.5L60.9 99C61.1 99.4 61.6 99.7 62.1 99.7C62.3 99.7 62.6 99.6 62.8 99.5C63.4 99.1 63.7 98.3 63.3 97.7L61.9 95.2H64.7C65.4 95.2 66.1 94.6 66.1 93.8C66.1 93 65.4 92.5 64.7 92.5Z" fill="#00A4D6"/>
<path d="M77.7 83.5H74.9L76.3 81C76.7 80.4 76.5 79.5 75.8 79.2C75.1 78.8 74.3 79 73.9 79.7L72.5 82.1L71.1 79.7C70.7 79 69.9 78.8 69.3 79.2C68.9 79.4 68.7 79.7 68.6 80C68.5 80.3 68.6 80.7 68.7 81L70.1 83.4H67.4C66.6 83.5 66 84.1 66 84.8C66 85.5 66.6 86.2 67.4 86.2H70.2L68.8 88.6C68.6 88.9 68.6 89.3 68.7 89.6C68.8 89.9 69 90.2 69.3 90.4C69.9 90.8 70.8 90.5 71.1 89.9L72.5 87.5L73.9 90C74.1 90.4 74.6 90.7 75.1 90.7C75.3 90.7 75.6 90.6 75.8 90.5C76.4 90.1 76.7 89.3 76.3 88.7L74.9 86.2H77.7C78.4 86.2 79.1 85.6 79.1 84.8C79.1 84 78.4 83.5 77.7 83.5Z" fill="#00A4D6"/>
</g>
<defs>
<filter id="filter0_f_1965_5042" x="11.5" y="30" width="85" height="46.1006" filterUnits="userSpaceOnUse" color-interpolation-filters="sRGB">
<feFlood flood-opacity="0" result="BackgroundImageFix"/>
<feBlend mode="normal" in="SourceGraphic" in2="BackgroundImageFix" result="shape"/>
<feGaussianBlur stdDeviation="3.5" result="effect1_foregroundBlur_1965_5042"/>
</filter>
<linearGradient id="paint0_linear_1965_5042" x1="12.9138" y1="43.4636" x2="40.2563" y2="10.8781" gradientUnits="userSpaceOnUse">
<stop stop-color="#686E73"/>
<stop offset="0.9891" stop-color="#6A7075"/>
</linearGradient>
<linearGradient id="paint1_linear_1965_5042" x1="47.5" y1="38.5" x2="49.5" y2="71.1" gradientUnits="userSpaceOnUse">
<stop offset="0.484375" stop-color="white" stop-opacity="0"/>
<stop offset="1" stop-color="#B3B2B2"/>
</linearGradient>
<clipPath id="clip0_1965_5042">
<rect width="100" height="100" fill="white"/>
</clipPath>
</defs>
</svg>
