<svg width="104" height="102" viewBox="0 0 104 102" fill="none" xmlns="http://www.w3.org/2000/svg">
<mask id="mask0_1965_5031" style="mask-type:alpha" maskUnits="userSpaceOnUse" x="-4" y="21" width="82" height="41">
<rect x="-4" y="21" width="82" height="41" fill="#C4C4C4"/>
</mask>
<g mask="url(#mask0_1965_5031)">
<path d="M51.408 25.6921L61.88 21.0001L51.408 16.3761L58.072 7.06012L46.716 8.28412L47.872 -3.13988L38.624 3.59212L34 -6.87988L29.376 3.59212L20.06 -3.13988L21.284 8.21612L9.86 7.06012L16.592 16.3081L6.12 21.0001L16.592 25.6241L9.86 34.9401L21.216 33.7161L20.06 45.1401L29.308 38.4081L34 48.8801L38.624 38.4081L47.94 45.0721L46.716 33.7161L58.14 34.8721L51.408 25.6921Z" fill="url(#paint0_radial_1965_5031)" stroke="#C37F0E" stroke-width="3"/>
<path d="M19.2328 29.5059C23.926 37.6035 34.3327 40.3935 42.4948 35.7663C50.657 31.139 53.3777 20.6598 48.7525 12.4941C44.0593 4.39646 33.6525 1.60651 25.4904 6.23373C17.3963 10.929 14.6076 21.4083 19.2328 29.5059Z" fill="#FFD348"/>
<path d="M21.6236 28.1355C25.5668 34.9341 34.3369 37.3136 41.1355 33.3704C47.934 29.4273 50.3135 20.6571 46.3704 13.8585C42.4272 7.05997 33.6571 4.68047 26.8585 8.62364C20.0599 12.5668 17.6804 21.337 21.6236 28.1355Z" fill="url(#paint1_linear_1965_5031)"/>
</g>
<line x1="5.5" y1="19.5" x2="62.5" y2="19.5" stroke="#21292B" stroke-width="3" stroke-linecap="round"/>
<path d="M63.4972 71.8216L63.9917 73.1H65.3625H81.6C90.5864 73.1 98 65.8227 98 56.8C98 49.73 93.4681 43.5618 87.0335 41.3354C84.4768 29.6911 73.9526 21 61.7 21C52.4299 21 44.0102 25.8893 39.4313 33.6938C38.5454 33.488 37.6662 33.4 36.8 33.4C32.3287 33.4 28.3727 35.7859 26.3647 39.5016C26.2209 39.5 26.0815 39.5 25.9457 39.5L25.9 39.5C21.2669 39.5 16.9446 41.3137 13.7612 44.6108L13.7603 44.6117C10.7172 47.7676 9 51.8591 9 56.2V56.4V56.4244L9.00059 56.4488C9.11263 61.0424 10.9106 65.2533 14.2111 68.3395C17.2961 71.4108 21.4992 73.1 25.9 73.1H43.7718H44.961L45.529 72.0552L55.8572 53.0552L55.8609 53.0482C56.2062 52.407 56.9232 52 57.6 52C57.6545 52 57.7502 52.0111 57.9056 52.0889L57.9886 52.1304L58.0751 52.164C59.0948 52.5605 59.6133 53.5783 59.4429 54.388L59.4366 54.4178L59.4312 54.4479L57.2312 66.7479L56.9506 68.3171L58.4177 68.9407L62.392 70.6297C62.9509 70.8886 63.2752 71.2478 63.4972 71.8216Z" fill="#999999" stroke="#606E7C" stroke-width="4"/>
<g opacity="0.6">
<path fill-rule="evenodd" clip-rule="evenodd" d="M61.7 23C73.4 23 83.4 31.6 85.3 42.9C91.5 44.5 96 50.2 96 56.8C96 64.7 89.5 71.1 81.6 71.1H65.3625C64.9568 70.0514 64.2664 69.2847 63.2 68.8L59.2 67.1L61.4 54.8C61.8 52.9 60.6 51 58.8 50.3C58.4 50.1 58 50 57.6 50C56.2 50 54.8 50.8 54.1 52.1L43.7718 71.1H25.9C22 71.1 18.3 69.6 15.6 66.9C12.7 64.2 11.1 60.5 11 56.4V56.2C11 52.4 12.5 48.8 15.2 46C18 43.1 21.8 41.5 25.9 41.5C26.5 41.5 27 41.5 27.6 41.6C29 37.9 32.6 35.4 36.8 35.4C38 35.4 39.2 35.6 40.4 36.1C44.4 28.1 52.6 23 61.7 23Z" fill="url(#paint2_linear_1965_5031)" style="mix-blend-mode:multiply"/>
</g>
<g style="mix-blend-mode:multiply" opacity="0.3" filter="url(#filter0_f_1965_5031)">
<path fill-rule="evenodd" clip-rule="evenodd" d="M48.0731 63.1873C41.4845 63.6367 34.4547 64 33.5 64C27 64 22.5 69.1007 22.5 69.1007H44.8586L48.0731 63.1873ZM60.4846 59.9179L61.4 54.8C61.4512 54.5569 61.4762 54.3139 61.4771 54.0733C62.1252 53.834 62.6465 53.6032 62.6465 53.6032C62.6465 53.6032 66.9994 52.0007 67.75 52.0007C68.5006 52.0007 68.1244 49.0375 67.8901 47.1913L67.8901 47.1913L67.75 45.8707C67.75 45.509 67.3022 44.9861 66.7496 44.3407C65.9726 43.4334 64.9884 42.284 64.75 41.0007C64.5753 40.0605 64.7764 38.9193 64.9222 38.0915C65.0132 37.5748 65.0827 37.1802 65.0258 37.033C65.1384 37.0858 65.9481 37.3602 65.9481 37.3602C67.8959 38.0203 70.9771 39.0993 73.75 41.0007C75.4084 42.1378 77.6911 44.3144 77.6911 44.3144C77.6911 44.3144 79.3358 45.5864 79.75 46.0007C80.75 47.0007 83.75 50.0007 85.75 50.0007H90.75L93 51.5907L93.5 54.8007C93.5 62.7007 87 69.1007 79.1 69.1007H63.7581C63.5847 68.9906 63.3989 68.8904 63.2 68.8L59.2 67.1L60.1262 61.9217C60.6816 61.567 60.6884 60.8141 60.4846 59.9179ZM64.99 37.0007C65.0045 36.997 65.0163 37.0084 65.0258 37.033C65.0258 37.033 64.9751 37.0044 64.99 37.0007Z" fill="#B6B6B6"/>
</g>
<path d="M87.8714 100.162L87.9468 100.197L88.0257 100.223C88.3672 100.337 88.9528 100.5 89.5 100.5C91.0151 100.5 92.518 99.7142 93.1828 98.0817L96.6742 90.1013L96.6878 90.0702L96.7 90.0385C97.464 88.052 96.6952 85.7919 94.6286 84.8381L94.5841 84.8176L94.5385 84.8C92.552 84.036 90.2919 84.8048 89.3381 86.8714L89.3318 86.8851L89.3258 86.8988L85.8258 94.8988L85.8122 94.9299L85.8 94.9616C85.036 96.948 85.8048 99.2081 87.8714 100.162Z" fill="#006EDB" stroke="white" stroke-width="3"/>
<path d="M34.8714 100.162L34.9468 100.197L35.0257 100.223C35.3672 100.337 35.9528 100.5 36.5 100.5C38.0151 100.5 39.518 99.7142 40.1828 98.0817L43.6742 90.1013L43.6878 90.0702L43.7 90.0385C44.464 88.052 43.6952 85.7919 41.6286 84.8381L41.5841 84.8176L41.5385 84.8C39.552 84.036 37.2919 84.8048 36.3381 86.8714L36.3318 86.8851L36.3258 86.8988L32.8258 94.8988L32.8122 94.9299L32.8 94.9616C32.036 96.948 32.8048 99.2081 34.8714 100.162Z" fill="#006EDB" stroke="white" stroke-width="3"/>
<path d="M61.8714 91.162L61.9468 91.1968L62.0257 91.2231C62.3672 91.3369 62.9528 91.5 63.5 91.5C65.0151 91.5 66.518 90.7142 67.1828 89.0817L70.6742 81.1013L70.6878 81.0702L70.7 81.0385C71.464 79.052 70.6952 76.7919 68.6286 75.8381L68.5841 75.8176L68.5385 75.8C66.552 75.036 64.2919 75.8048 63.3381 77.8714L63.3318 77.8851L63.3258 77.8988L59.8258 85.8988L59.8122 85.9299L59.8 85.9616C59.036 87.948 59.8048 90.2081 61.8714 91.162Z" fill="#006EDB" stroke="white" stroke-width="3"/>
<path d="M73.8714 91.162L73.9468 91.1968L74.0257 91.2231C74.3672 91.3369 74.9528 91.5 75.5 91.5C77.0151 91.5 78.518 90.7142 79.1828 89.0817L82.6742 81.1013L82.6878 81.0702L82.7 81.0385C83.464 79.052 82.6952 76.7919 80.6286 75.8381L80.5841 75.8176L80.5385 75.8C78.552 75.036 76.2919 75.8048 75.3381 77.8714L75.3318 77.8851L75.3258 77.8988L71.8258 85.8988L71.8122 85.9299L71.8 85.9616C71.036 87.948 71.8048 90.2081 73.8714 91.162Z" fill="#006EDB" stroke="white" stroke-width="3"/>
<path d="M23.8714 91.162L23.9468 91.1968L24.0257 91.2231C24.3672 91.3369 24.9528 91.5 25.5 91.5C27.0151 91.5 28.518 90.7142 29.1828 89.0817L32.6742 81.1013L32.6878 81.0702L32.7 81.0385C33.464 79.052 32.6952 76.7919 30.6286 75.8381L30.5841 75.8176L30.5385 75.8C28.552 75.036 26.2919 75.8048 25.3381 77.8714L25.3318 77.8851L25.3258 77.8988L21.8258 85.8988L21.8122 85.9299L21.8 85.9616C21.036 87.948 21.8048 90.2081 23.8714 91.162Z" fill="#006EDB" stroke="white" stroke-width="3"/>
<path d="M46.2216 75.3423L51.7251 77.6677L47.5657 93.4916C47.3101 94.464 47.8162 95.475 48.7478 95.8531C49.6794 96.2313 50.747 95.859 51.2414 94.9836L63.4414 73.3836C63.7201 72.8903 63.7764 72.3019 63.5964 71.7647C63.4164 71.2275 63.017 70.7918 62.4975 70.5659L57.0513 68.198L59.5677 54.3578C59.7435 53.3913 59.1913 52.4403 58.2649 52.1137C57.3384 51.7872 56.312 52.1818 55.8428 53.0448L45.2428 72.5448C44.9732 73.0408 44.9258 73.6276 45.1122 74.1605C45.2986 74.6933 45.7016 75.1226 46.2216 75.3423Z" fill="#FF9D00" stroke="white" stroke-width="4" stroke-linejoin="round"/>
<defs>
<filter id="filter0_f_1965_5031" x="15.5" y="30" width="85" height="46.1006" filterUnits="userSpaceOnUse" color-interpolation-filters="sRGB">
<feFlood flood-opacity="0" result="BackgroundImageFix"/>
<feBlend mode="normal" in="SourceGraphic" in2="BackgroundImageFix" result="shape"/>
<feGaussianBlur stdDeviation="3.5" result="effect1_foregroundBlur_1965_5031"/>
</filter>
<radialGradient id="paint0_radial_1965_5031" cx="0" cy="0" r="1" gradientUnits="userSpaceOnUse" gradientTransform="translate(34 21.0001) scale(27.88)">
<stop offset="0.5143" stop-color="#D6B849"/>
<stop offset="0.6523" stop-color="#FFCE47"/>
<stop offset="1" stop-color="#FFDB73"/>
</radialGradient>
<linearGradient id="paint1_linear_1965_5031" x1="24.8171" y1="10.0572" x2="43.1767" y2="31.9373" gradientUnits="userSpaceOnUse">
<stop stop-color="#FFAF22"/>
<stop offset="0.9897" stop-color="#F09900"/>
</linearGradient>
<linearGradient id="paint2_linear_1965_5031" x1="51.5" y1="38.5" x2="53.5" y2="71.1" gradientUnits="userSpaceOnUse">
<stop offset="0.484375" stop-color="white" stop-opacity="0"/>
<stop offset="1" stop-color="#B3B2B2"/>
</linearGradient>
</defs>
</svg>
