<svg width="100" height="103" viewBox="0 0 100 103" fill="none" xmlns="http://www.w3.org/2000/svg">
<g clip-path="url(#clip0_1965_5004)">
<path fill-rule="evenodd" clip-rule="evenodd" d="M52.3146 18.5169L54.072 16.0601L42.716 17.2841L43.872 5.86012L34.624 12.5921L30 2.12012L25.376 12.5921L16.06 5.86012L17.284 17.2161L5.86 16.0601L12.592 25.3081L2.12 30.0001L12.592 34.6241L5.86 43.9401L6.4302 43.8787C6.79888 43.4377 7.18901 43.0111 7.6 42.6001C11.1 39.0001 15.7 36.9001 20.7 36.6001C23.4 32.7001 27.9 30.4001 32.8 30.4001H33.9C38.2631 24.2594 44.9113 19.9466 52.3146 18.5169Z" fill="url(#paint0_radial_1965_5004)" stroke="#C37F0E" stroke-width="3"/>
</g>
<path fill-rule="evenodd" clip-rule="evenodd" d="M14.867 37.8308C16.7147 37.1384 18.6745 36.7215 20.7 36.6C23.4 32.7 27.9 30.4 32.8 30.4H33.9C36.6679 26.5044 40.3553 23.3445 44.5718 21.1896C39.7966 13.3271 29.5494 10.665 21.4904 15.2337C13.6195 19.7995 10.7654 29.8348 14.867 37.8308Z" fill="#FFD348"/>
<path fill-rule="evenodd" clip-rule="evenodd" d="M17.5653 37.034C18.5875 36.8096 19.6347 36.6639 20.7 36.6C23.4 32.7 27.9 30.4 32.8 30.4H33.9C36.1324 27.2581 38.9631 24.5947 42.187 22.5511C38.1607 15.989 29.5536 13.7405 22.8585 17.6236C16.0937 21.5472 13.7042 30.2499 17.5653 37.034Z" fill="url(#paint1_linear_1965_5004)"/>
<path d="M59.4972 71.8216L59.9917 73.1H61.3625H77.6C86.5864 73.1 94 65.8227 94 56.8C94 49.73 89.4681 43.5618 83.0335 41.3354C80.4768 29.6911 69.9526 21 57.7 21C48.4299 21 40.0102 25.8893 35.4313 33.6938C34.5454 33.488 33.6662 33.4 32.8 33.4C28.3287 33.4 24.3727 35.7859 22.3647 39.5016C22.2209 39.5 22.0815 39.5 21.9457 39.5L21.9 39.5C17.2669 39.5 12.9446 41.3137 9.7612 44.6108L9.76031 44.6117C6.71717 47.7676 5 51.8591 5 56.2V56.4V56.4244L5.00059 56.4488C5.11263 61.0424 6.91061 65.2533 10.2111 68.3395C13.2961 71.4108 17.4992 73.1 21.9 73.1H39.7718H40.961L41.529 72.0552L51.8572 53.0552L51.8609 53.0482C52.2062 52.407 52.9232 52 53.6 52C53.6545 52 53.7502 52.0111 53.9056 52.0889L53.9886 52.1304L54.0751 52.164C55.0948 52.5605 55.6133 53.5783 55.4429 54.388L55.4366 54.4178L55.4312 54.4479L53.2312 66.7479L52.9506 68.3171L54.4177 68.9407L58.392 70.6297C58.9509 70.8886 59.2752 71.2478 59.4972 71.8216Z" fill="#CCCCCC" stroke="#606E7C" stroke-width="4"/>
<g opacity="0.6">
<path fill-rule="evenodd" clip-rule="evenodd" d="M57.7 23C69.4 23 79.4 31.6 81.3 42.9C87.5 44.5 92 50.2 92 56.8C92 64.7 85.5 71.1 77.6 71.1H61.3625C60.9568 70.0514 60.2664 69.2847 59.2 68.8L55.2 67.1L57.4 54.8C57.8 52.9 56.6 51 54.8 50.3C54.4 50.1 54 50 53.6 50C52.2 50 50.8 50.8 50.1 52.1L39.7718 71.1H21.9C18 71.1 14.3 69.6 11.6 66.9C8.7 64.2 7.1 60.5 7 56.4V56.2C7 52.4 8.5 48.8 11.2 46C14 43.1 17.8 41.5 21.9 41.5C22.5 41.5 23 41.5 23.6 41.6C25 37.9 28.6 35.4 32.8 35.4C34 35.4 35.2 35.6 36.4 36.1C40.4 28.1 48.6 23 57.7 23Z" fill="url(#paint2_linear_1965_5004)" style="mix-blend-mode:multiply"/>
</g>
<g style="mix-blend-mode:multiply" opacity="0.3" filter="url(#filter0_f_1965_5004)">
<path fill-rule="evenodd" clip-rule="evenodd" d="M44.0731 63.1873C37.4845 63.6367 30.4547 64 29.5 64C23 64 18.5 69.1007 18.5 69.1007H40.8586L44.0731 63.1873ZM56.4846 59.9179L57.4 54.8C57.4512 54.5569 57.4762 54.3139 57.4771 54.0733C58.1252 53.834 58.6465 53.6032 58.6465 53.6032C58.6465 53.6032 62.9994 52.0007 63.75 52.0007C64.5006 52.0007 64.1244 49.0375 63.8901 47.1913L63.8901 47.1913L63.75 45.8707C63.75 45.509 63.3022 44.9861 62.7496 44.3407C61.9726 43.4334 60.9884 42.284 60.75 41.0007C60.5753 40.0605 60.7764 38.9193 60.9222 38.0915C61.0132 37.5748 61.0827 37.1802 61.0258 37.033C61.1384 37.0858 61.9481 37.3602 61.9481 37.3602C63.8959 38.0203 66.9771 39.0993 69.75 41.0007C71.4084 42.1378 73.6911 44.3144 73.6911 44.3144C73.6911 44.3144 75.3358 45.5864 75.75 46.0007C76.75 47.0007 79.75 50.0007 81.75 50.0007H86.75L89 51.5907L89.5 54.8007C89.5 62.7007 83 69.1007 75.1 69.1007H59.7581C59.5847 68.9906 59.3989 68.8904 59.2 68.8L55.2 67.1L56.1262 61.9217C56.6816 61.567 56.6884 60.8141 56.4846 59.9179ZM60.99 37.0007C61.0045 36.997 61.0163 37.0084 61.0258 37.033C61.0258 37.033 60.9751 37.0044 60.99 37.0007Z" fill="#B6B6B6"/>
</g>
<path d="M42.2216 75.3423L47.7251 77.6677L43.5657 93.4916C43.3101 94.464 43.8162 95.475 44.7478 95.8531C45.6794 96.2313 46.747 95.859 47.2414 94.9836L59.4414 73.3836C59.7201 72.8903 59.7764 72.3019 59.5964 71.7647C59.4164 71.2275 59.017 70.7918 58.4975 70.5659L53.0513 68.198L55.5677 54.3578C55.7435 53.3913 55.1913 52.4403 54.2649 52.1137C53.3384 51.7872 52.312 52.1818 51.8428 53.0448L41.2428 72.5448C40.9732 73.0408 40.9258 73.6276 41.1122 74.1605C41.2986 74.6933 41.7016 75.1226 42.2216 75.3423Z" fill="#FF9D00" stroke="white" stroke-width="4" stroke-linejoin="round"/>
<path d="M29.4884 90.9H29.4H29.3066L29.2139 90.9115C27.8336 91.0841 26.5 92.1835 26.5 93.8C26.5 95.2586 27.7034 96.7 29.4 96.7H29.5884L29.5218 96.8143C29.0258 97.5957 29.0807 98.4856 29.277 99.0743C29.4662 99.6421 29.8505 100.236 30.4679 100.648C31.2125 101.144 32.0679 101.162 32.7386 100.963C33.3843 100.772 34.0417 100.328 34.4147 99.6231L34.4734 99.5225L34.5779 99.7091C35.0633 100.64 36.0978 101.2 37.1 101.2C37.6399 101.2 38.1859 100.984 38.4708 100.842L38.5543 100.8L38.6321 100.748C39.6587 100.064 40.5356 98.4246 39.5853 96.9252L39.4592 96.7H39.7C41.1586 96.7 42.6 95.4965 42.6 93.8C42.6 91.9629 41.0032 91 39.7 91H39.4592L39.5865 90.7725C40.3817 89.505 40.0393 87.5874 38.4712 86.8571C37.098 86.1198 35.417 86.5298 34.6015 87.9491L34.5 88.123L34.3985 87.949C33.6264 86.6059 31.9299 86.043 30.5481 86.9003C29.7903 87.3069 29.3755 87.9301 29.177 88.5256C29.0228 88.9881 29.0492 89.4262 29.0901 89.7121C29.1333 90.0143 29.2141 90.2856 29.277 90.4743L29.3261 90.6216L29.4043 90.7558L29.4884 90.9Z" fill="#00A4D6" stroke="white" stroke-width="3"/>
<path d="M59.8714 94.162L59.9468 94.1968L60.0257 94.2231C60.3672 94.3369 60.9528 94.5 61.5 94.5C63.0151 94.5 64.518 93.7142 65.1828 92.0817L68.6742 84.1013L68.6878 84.0702L68.7 84.0385C69.464 82.052 68.6952 79.7919 66.6286 78.8381L66.5841 78.8176L66.5385 78.8C64.552 78.036 62.2919 78.8048 61.3381 80.8714L61.3318 80.8851L61.3258 80.8988L57.8258 88.8988L57.8122 88.9299L57.8 88.9616C57.036 90.948 57.8048 93.2081 59.8714 94.162Z" fill="#006EDB" stroke="white" stroke-width="3"/>
<defs>
<filter id="filter0_f_1965_5004" x="11.5" y="30" width="85" height="46.1006" filterUnits="userSpaceOnUse" color-interpolation-filters="sRGB">
<feFlood flood-opacity="0" result="BackgroundImageFix"/>
<feBlend mode="normal" in="SourceGraphic" in2="BackgroundImageFix" result="shape"/>
<feGaussianBlur stdDeviation="3.5" result="effect1_foregroundBlur_1965_5004"/>
</filter>
<radialGradient id="paint0_radial_1965_5004" cx="0" cy="0" r="1" gradientUnits="userSpaceOnUse" gradientTransform="translate(30 30.0001) scale(27.88)">
<stop offset="0.5143" stop-color="#D6B849"/>
<stop offset="0.6523" stop-color="#FFCE47"/>
<stop offset="1" stop-color="#FFDB73"/>
</radialGradient>
<linearGradient id="paint1_linear_1965_5004" x1="20.8172" y1="19.0572" x2="39.1767" y2="40.9373" gradientUnits="userSpaceOnUse">
<stop stop-color="#FFAF22"/>
<stop offset="0.9897" stop-color="#F09900"/>
</linearGradient>
<linearGradient id="paint2_linear_1965_5004" x1="47.5" y1="38.5" x2="49.5" y2="71.1" gradientUnits="userSpaceOnUse">
<stop offset="0.484375" stop-color="white" stop-opacity="0"/>
<stop offset="1" stop-color="#B3B2B2"/>
</linearGradient>
<clipPath id="clip0_1965_5004">
<rect width="100" height="100" fill="white"/>
</clipPath>
</defs>
</svg>
