<svg width="104" height="102" viewBox="0 0 104 102" fill="none" xmlns="http://www.w3.org/2000/svg">
<mask id="mask0_1965_5033" style="mask-type:alpha" maskUnits="userSpaceOnUse" x="-4" y="21" width="82" height="41">
<rect x="-4" y="21" width="82" height="41" fill="#C4C4C4"/>
</mask>
<g mask="url(#mask0_1965_5033)">
<path d="M51.408 25.6921L61.88 21.0001L51.408 16.3761L58.072 7.06012L46.716 8.28412L47.872 -3.13988L38.624 3.59212L34 -6.87988L29.376 3.59212L20.06 -3.13988L21.284 8.21612L9.86 7.06012L16.592 16.3081L6.12 21.0001L16.592 25.6241L9.86 34.9401L21.216 33.7161L20.06 45.1401L29.308 38.4081L34 48.8801L38.624 38.4081L47.94 45.0721L46.716 33.7161L58.14 34.8721L51.408 25.6921Z" fill="url(#paint0_radial_1965_5033)" stroke="#C37F0E" stroke-width="3"/>
<path d="M19.2328 29.5059C23.926 37.6035 34.3327 40.3935 42.4948 35.7663C50.657 31.139 53.3777 20.6598 48.7525 12.4941C44.0593 4.39646 33.6525 1.60651 25.4904 6.23373C17.3963 10.929 14.6076 21.4083 19.2328 29.5059Z" fill="#FFD348"/>
<path d="M21.6236 28.1355C25.5668 34.9341 34.3369 37.3136 41.1355 33.3704C47.934 29.4273 50.3135 20.6571 46.3704 13.8585C42.4272 7.05997 33.6571 4.68047 26.8585 8.62364C20.0599 12.5668 17.6804 21.337 21.6236 28.1355Z" fill="url(#paint1_linear_1965_5033)"/>
</g>
<line x1="5.5" y1="19.5" x2="62.5" y2="19.5" stroke="#21292B" stroke-width="3" stroke-linecap="round"/>
<path d="M63.4972 71.8216L63.9917 73.1H65.3625H81.6C90.5864 73.1 98 65.8227 98 56.8C98 49.73 93.4681 43.5618 87.0335 41.3354C84.4768 29.6911 73.9526 21 61.7 21C52.4299 21 44.0102 25.8893 39.4313 33.6938C38.5454 33.488 37.6662 33.4 36.8 33.4C32.3287 33.4 28.3727 35.7859 26.3647 39.5016C26.2209 39.5 26.0815 39.5 25.9457 39.5L25.9 39.5C21.2669 39.5 16.9446 41.3137 13.7612 44.6108L13.7603 44.6117C10.7172 47.7676 9 51.8591 9 56.2V56.4V56.4244L9.00059 56.4488C9.11263 61.0424 10.9106 65.2533 14.2111 68.3395C17.2961 71.4108 21.4992 73.1 25.9 73.1H43.7718H44.961L45.529 72.0552L55.8572 53.0552L55.8609 53.0482C56.2062 52.407 56.9232 52 57.6 52C57.6545 52 57.7502 52.0111 57.9056 52.0889L57.9886 52.1304L58.0751 52.164C59.0948 52.5605 59.6133 53.5783 59.4429 54.388L59.4366 54.4178L59.4312 54.4479L57.2312 66.7479L56.9506 68.3171L58.4177 68.9407L62.392 70.6297C62.9509 70.8886 63.2752 71.2478 63.4972 71.8216Z" fill="#999999" stroke="#606E7C" stroke-width="4"/>
<g opacity="0.6">
<path fill-rule="evenodd" clip-rule="evenodd" d="M61.7 23C73.4 23 83.4 31.6 85.3 42.9C91.5 44.5 96 50.2 96 56.8C96 64.7 89.5 71.1 81.6 71.1H65.3625C64.9568 70.0514 64.2664 69.2847 63.2 68.8L59.2 67.1L61.4 54.8C61.8 52.9 60.6 51 58.8 50.3C58.4 50.1 58 50 57.6 50C56.2 50 54.8 50.8 54.1 52.1L43.7718 71.1H25.9C22 71.1 18.3 69.6 15.6 66.9C12.7 64.2 11.1 60.5 11 56.4V56.2C11 52.4 12.5 48.8 15.2 46C18 43.1 21.8 41.5 25.9 41.5C26.5 41.5 27 41.5 27.6 41.6C29 37.9 32.6 35.4 36.8 35.4C38 35.4 39.2 35.6 40.4 36.1C44.4 28.1 52.6 23 61.7 23Z" fill="url(#paint2_linear_1965_5033)" style="mix-blend-mode:multiply"/>
</g>
<g style="mix-blend-mode:multiply" opacity="0.3" filter="url(#filter0_f_1965_5033)">
<path fill-rule="evenodd" clip-rule="evenodd" d="M48.0731 63.1873C41.4845 63.6367 34.4547 64 33.5 64C27 64 22.5 69.1007 22.5 69.1007H44.8586L48.0731 63.1873ZM60.4846 59.9179L61.4 54.8C61.4512 54.5569 61.4762 54.3139 61.4771 54.0733C62.1252 53.834 62.6465 53.6032 62.6465 53.6032C62.6465 53.6032 66.9994 52.0007 67.75 52.0007C68.5006 52.0007 68.1244 49.0375 67.8901 47.1913L67.8901 47.1913L67.75 45.8707C67.75 45.509 67.3022 44.9861 66.7496 44.3407C65.9726 43.4334 64.9884 42.284 64.75 41.0007C64.5753 40.0605 64.7764 38.9193 64.9222 38.0915C65.0132 37.5748 65.0827 37.1802 65.0258 37.033C65.1384 37.0858 65.9481 37.3602 65.9481 37.3602C67.8959 38.0203 70.9771 39.0993 73.75 41.0007C75.4084 42.1378 77.6911 44.3144 77.6911 44.3144C77.6911 44.3144 79.3358 45.5864 79.75 46.0007C80.75 47.0007 83.75 50.0007 85.75 50.0007H90.75L93 51.5907L93.5 54.8007C93.5 62.7007 87 69.1007 79.1 69.1007H63.7581C63.5847 68.9906 63.3989 68.8904 63.2 68.8L59.2 67.1L60.1262 61.9217C60.6816 61.567 60.6884 60.8141 60.4846 59.9179ZM64.99 37.0007C65.0045 36.997 65.0163 37.0084 65.0258 37.033C65.0258 37.033 64.9751 37.0044 64.99 37.0007Z" fill="#B6B6B6"/>
</g>
<path d="M46.2216 75.3423L51.7251 77.6677L47.5657 93.4916C47.3101 94.464 47.8162 95.475 48.7478 95.8531C49.6794 96.2313 50.747 95.859 51.2414 94.9836L63.4414 73.3836C63.7201 72.8903 63.7764 72.3019 63.5964 71.7647C63.4164 71.2275 63.017 70.7918 62.4975 70.5659L57.0513 68.198L59.5677 54.3578C59.7435 53.3913 59.1913 52.4403 58.2649 52.1137C57.3384 51.7872 56.312 52.1818 55.8428 53.0448L45.2428 72.5448C44.9732 73.0408 44.9258 73.6276 45.1122 74.1605C45.2986 74.6933 45.7016 75.1226 46.2216 75.3423Z" fill="#FF9D00" stroke="white" stroke-width="4" stroke-linejoin="round"/>
<path d="M20.4884 80.9H20.4H20.3066L20.2139 80.9115C18.8336 81.0841 17.5 82.1835 17.5 83.8C17.5 85.2586 18.7034 86.7 20.4 86.7H20.5884L20.5218 86.8143C20.0258 87.5957 20.0807 88.4856 20.277 89.0743C20.4662 89.6421 20.8505 90.2364 21.4679 90.648C22.2125 91.1444 23.0679 91.1619 23.7386 90.9632C24.3843 90.7718 25.0417 90.3282 25.4147 89.6231L25.4734 89.5225L25.5779 89.7091C26.0633 90.6395 27.0978 91.2 28.1 91.2C28.6399 91.2 29.1859 90.9841 29.4708 90.8416L29.5543 90.7998L29.6321 90.748C30.6587 90.0636 31.5356 88.4246 30.5853 86.9252L30.4592 86.7H30.7C32.1586 86.7 33.6 85.4965 33.6 83.8C33.6 81.9629 32.0032 81 30.7 81H30.4592L30.5865 80.7725C31.3817 79.505 31.0393 77.5874 29.4712 76.8571C28.098 76.1198 26.417 76.5298 25.6015 77.9491L25.5 78.123L25.3985 77.949C24.6264 76.6059 22.9299 76.043 21.5481 76.9003C20.7903 77.3069 20.3755 77.9301 20.177 78.5256C20.0228 78.9881 20.0492 79.4262 20.0901 79.7121C20.1333 80.0143 20.2141 80.2856 20.277 80.4743L20.3261 80.6216L20.4043 80.7558L20.4884 80.9Z" fill="#00A4D6" stroke="white" stroke-width="3"/>
<path d="M71.4884 89.9H71.4H71.3066L71.2139 89.9115C69.8336 90.0841 68.5 91.1835 68.5 92.8C68.5 94.2586 69.7034 95.7 71.4 95.7H71.5884L71.5218 95.8143C71.0258 96.5957 71.0807 97.4856 71.277 98.0743C71.4662 98.6421 71.8505 99.2364 72.4679 99.648C73.2125 100.144 74.0679 100.162 74.7386 99.9632C75.3843 99.7718 76.0417 99.3282 76.4147 98.6231L76.4734 98.5225L76.5779 98.7091C77.0633 99.6395 78.0978 100.2 79.1 100.2C79.6399 100.2 80.1859 99.9841 80.4708 99.8416L80.5543 99.7998L80.6321 99.748C81.6587 99.0636 82.5356 97.4246 81.5853 95.9252L81.4592 95.7H81.7C83.1586 95.7 84.6 94.4965 84.6 92.8C84.6 90.9629 83.0032 90 81.7 90H81.4592L81.5865 89.7725C82.3817 88.505 82.0393 86.5874 80.4712 85.8571C79.098 85.1198 77.417 85.5298 76.6015 86.9491L76.5 87.123L76.3985 86.949C75.6264 85.6059 73.9299 85.043 72.5481 85.9003C71.7903 86.3069 71.3755 86.9301 71.177 87.5256C71.0228 87.9881 71.0492 88.4262 71.0901 88.7121C71.1333 89.0143 71.2141 89.2856 71.277 89.4743L71.3261 89.6216L71.4043 89.7558L71.4884 89.9Z" fill="#00A4D6" stroke="white" stroke-width="3"/>
<path d="M88.8714 93.162L88.9468 93.1968L89.0257 93.2231C89.3672 93.3369 89.9528 93.5 90.5 93.5C92.0151 93.5 93.518 92.7142 94.1828 91.0817L97.6742 83.1013L97.6878 83.0702L97.7 83.0385C98.464 81.052 97.6952 78.7919 95.6286 77.8381L95.5841 77.8176L95.5385 77.8C93.552 77.036 91.2919 77.8048 90.3381 79.8714L90.3318 79.8851L90.3258 79.8988L86.8258 87.8988L86.8122 87.9299L86.8 87.9616C86.036 89.948 86.8048 92.2081 88.8714 93.162Z" fill="#006EDB" stroke="white" stroke-width="3"/>
<path d="M60.8714 93.162L60.9468 93.1968L61.0257 93.2231C61.3672 93.3369 61.9528 93.5 62.5 93.5C64.0151 93.5 65.518 92.7142 66.1828 91.0817L69.6742 83.1013L69.6878 83.0702L69.7 83.0385C70.464 81.052 69.6952 78.7919 67.6286 77.8381L67.5841 77.8176L67.5385 77.8C65.552 77.036 63.2919 77.8048 62.3381 79.8714L62.3318 79.8851L62.3258 79.8988L58.8258 87.8988L58.8122 87.9299L58.8 87.9616C58.036 89.948 58.8048 92.2081 60.8714 93.162Z" fill="#006EDB" stroke="white" stroke-width="3"/>
<path d="M35.8714 100.162L35.9468 100.197L36.0257 100.223C36.3672 100.337 36.9528 100.5 37.5 100.5C39.0151 100.5 40.518 99.7142 41.1828 98.0817L44.6742 90.1013L44.6878 90.0702L44.7 90.0385C45.464 88.052 44.6952 85.7919 42.6286 84.8381L42.5841 84.8176L42.5385 84.8C40.552 84.036 38.2919 84.8048 37.3381 86.8714L37.3318 86.8851L37.3258 86.8988L33.8258 94.8988L33.8122 94.9299L33.8 94.9616C33.036 96.948 33.8048 99.2081 35.8714 100.162Z" fill="#006EDB" stroke="white" stroke-width="3"/>
<defs>
<filter id="filter0_f_1965_5033" x="15.5" y="30" width="85" height="46.1006" filterUnits="userSpaceOnUse" color-interpolation-filters="sRGB">
<feFlood flood-opacity="0" result="BackgroundImageFix"/>
<feBlend mode="normal" in="SourceGraphic" in2="BackgroundImageFix" result="shape"/>
<feGaussianBlur stdDeviation="3.5" result="effect1_foregroundBlur_1965_5033"/>
</filter>
<radialGradient id="paint0_radial_1965_5033" cx="0" cy="0" r="1" gradientUnits="userSpaceOnUse" gradientTransform="translate(34 21.0001) scale(27.88)">
<stop offset="0.5143" stop-color="#D6B849"/>
<stop offset="0.6523" stop-color="#FFCE47"/>
<stop offset="1" stop-color="#FFDB73"/>
</radialGradient>
<linearGradient id="paint1_linear_1965_5033" x1="24.8171" y1="10.0572" x2="43.1767" y2="31.9373" gradientUnits="userSpaceOnUse">
<stop stop-color="#FFAF22"/>
<stop offset="0.9897" stop-color="#F09900"/>
</linearGradient>
<linearGradient id="paint2_linear_1965_5033" x1="51.5" y1="38.5" x2="53.5" y2="71.1" gradientUnits="userSpaceOnUse">
<stop offset="0.484375" stop-color="white" stop-opacity="0"/>
<stop offset="1" stop-color="#B3B2B2"/>
</linearGradient>
</defs>
</svg>
