<svg width="106" height="108" viewBox="0 0 106 108" fill="none" xmlns="http://www.w3.org/2000/svg">
<path d="M31.5415 8.92676C33.3268 12.0511 34.4427 15.6963 34.4427 19.5646C34.4427 31.3182 24.9207 40.8402 13.1671 40.8402C12.2 40.8402 11.3073 40.7658 10.4146 40.617C14.1342 47.0146 20.9781 51.3292 28.789 51.3292C40.5427 51.3292 50.0646 41.8072 50.0646 30.0536C50.0646 19.1926 42.0305 10.2658 31.5415 8.92676Z" fill="url(#paint0_linear_1965_5046)"/>
<path d="M65.4972 77.8216L65.9917 79.1H67.3625H83.6C92.5864 79.1 100 71.8227 100 62.8C100 55.73 95.4681 49.5618 89.0335 47.3354C86.4768 35.6911 75.9526 27 63.7 27C54.4299 27 46.0102 31.8893 41.4313 39.6938C40.5454 39.488 39.6662 39.4 38.8 39.4C34.3287 39.4 30.3727 41.7859 28.3647 45.5016C28.2209 45.5 28.0815 45.5 27.9457 45.5L27.9 45.5C23.2669 45.5 18.9446 47.3137 15.7612 50.6108L15.7603 50.6117C12.7172 53.7676 11 57.8591 11 62.2V62.4V62.4244L11.0006 62.4488C11.1126 67.0424 12.9106 71.2533 16.2111 74.3395C19.2961 77.4108 23.4992 79.1 27.9 79.1H45.7718H46.961L47.529 78.0552L57.8572 59.0552L57.8609 59.0482C58.2062 58.407 58.9232 58 59.6 58C59.6545 58 59.7502 58.0111 59.9056 58.0889L59.9886 58.1304L60.0751 58.164C61.0948 58.5605 61.6133 59.5783 61.4429 60.388L61.4366 60.4178L61.4312 60.4479L59.2312 72.7479L58.9506 74.3171L60.4177 74.9407L64.392 76.6297C64.9509 76.8886 65.2752 77.2478 65.4972 77.8216Z" fill="#999999" stroke="#606E7C" stroke-width="4"/>
<g opacity="0.6">
<path fill-rule="evenodd" clip-rule="evenodd" d="M63.7 29C75.4 29 85.4 37.6 87.3 48.9C93.5 50.5 98 56.2 98 62.8C98 70.7 91.5 77.1 83.6 77.1H67.3625C66.9568 76.0514 66.2664 75.2847 65.2 74.8L61.2 73.1L63.4 60.8C63.8 58.9 62.6 57 60.8 56.3C60.4 56.1 60 56 59.6 56C58.2 56 56.8 56.8 56.1 58.1L45.7718 77.1H27.9C24 77.1 20.3 75.6 17.6 72.9C14.7 70.2 13.1 66.5 13 62.4V62.2C13 58.4 14.5 54.8 17.2 52C20 49.1 23.8 47.5 27.9 47.5C28.5 47.5 29 47.5 29.6 47.6C31 43.9 34.6 41.4 38.8 41.4C40 41.4 41.2 41.6 42.4 42.1C46.4 34.1 54.6 29 63.7 29Z" fill="url(#paint1_linear_1965_5046)" style="mix-blend-mode:multiply"/>
</g>
<g style="mix-blend-mode:multiply" opacity="0.3" filter="url(#filter0_f_1965_5046)">
<path fill-rule="evenodd" clip-rule="evenodd" d="M50.0731 69.1873C43.4845 69.6367 36.4547 70 35.5 70C29 70 24.5 75.1007 24.5 75.1007H46.8586L50.0731 69.1873ZM62.4846 65.9179L63.4 60.8C63.4512 60.5569 63.4762 60.3139 63.4771 60.0733C64.1252 59.834 64.6465 59.6032 64.6465 59.6032C64.6465 59.6032 68.9994 58.0007 69.75 58.0007C70.5006 58.0007 70.1244 55.0375 69.8901 53.1913L69.8901 53.1913L69.75 51.8707C69.75 51.509 69.3022 50.9861 68.7496 50.3407C67.9726 49.4334 66.9884 48.284 66.75 47.0007C66.5753 46.0605 66.7764 44.9193 66.9222 44.0915C67.0132 43.5748 67.0827 43.1802 67.0258 43.033C67.1384 43.0858 67.9481 43.3602 67.9481 43.3602C69.8959 44.0203 72.9771 45.0993 75.75 47.0007C77.4084 48.1378 79.6911 50.3144 79.6911 50.3144C79.6911 50.3144 81.3358 51.5864 81.75 52.0007C82.75 53.0007 85.75 56.0007 87.75 56.0007H92.75L95 57.5907L95.5 60.8007C95.5 68.7007 89 75.1007 81.1 75.1007H65.7581C65.5847 74.9906 65.3989 74.8904 65.2 74.8L61.2 73.1L62.1262 67.9217C62.6816 67.567 62.6884 66.8141 62.4846 65.9179ZM66.99 43.0007C67.0045 42.997 67.0163 43.0084 67.0258 43.033C67.0258 43.033 66.9751 43.0044 66.99 43.0007Z" fill="#B6B6B6"/>
</g>
<path d="M48.2216 81.3423L53.7251 83.6677L49.5657 99.4916C49.3101 100.464 49.8162 101.475 50.7478 101.853C51.6794 102.231 52.747 101.859 53.2414 100.984L65.4414 79.3836C65.7201 78.8903 65.7764 78.3019 65.5964 77.7647C65.4164 77.2275 65.017 76.7918 64.4975 76.5659L59.0513 74.198L61.5677 60.3578C61.7435 59.3913 61.1913 58.4403 60.2649 58.1137C59.3384 57.7872 58.312 58.1818 57.8428 59.0448L47.2428 78.5448C46.9732 79.0408 46.9258 79.6276 47.1122 80.1605C47.2986 80.6933 47.7016 81.1226 48.2216 81.3423Z" fill="#FF9D00" stroke="white" stroke-width="4" stroke-linejoin="round"/>
<path d="M22.4884 86.9H22.4H22.3066L22.2139 86.9115C20.8336 87.0841 19.5 88.1835 19.5 89.8C19.5 91.2586 20.7034 92.7 22.4 92.7H22.5884L22.5218 92.8143C22.0258 93.5957 22.0807 94.4856 22.277 95.0743C22.4662 95.6421 22.8505 96.2364 23.4679 96.648C24.2125 97.1444 25.0679 97.1619 25.7386 96.9632C26.3843 96.7718 27.0417 96.3282 27.4147 95.6231L27.4734 95.5225L27.5779 95.7091C28.0633 96.6395 29.0978 97.2 30.1 97.2C30.6399 97.2 31.1859 96.9841 31.4708 96.8416L31.5543 96.7998L31.6321 96.748C32.6587 96.0636 33.5356 94.4246 32.5853 92.9252L32.4592 92.7H32.7C34.1586 92.7 35.6 91.4965 35.6 89.8C35.6 87.9629 34.0032 87 32.7 87H32.4592L32.5865 86.7725C33.3817 85.505 33.0393 83.5874 31.4712 82.8571C30.098 82.1198 28.417 82.5298 27.6015 83.9491L27.5 84.123L27.3985 83.949C26.6264 82.6059 24.9299 82.043 23.5481 82.9003C22.7903 83.3069 22.3755 83.9301 22.177 84.5256C22.0228 84.9881 22.0492 85.4262 22.0901 85.7121C22.1333 86.0143 22.2141 86.2856 22.277 86.4743L22.3261 86.6216L22.4043 86.7558L22.4884 86.9Z" fill="#00A4D6" stroke="white" stroke-width="3"/>
<path d="M73.4884 95.9H73.4H73.3066L73.2139 95.9115C71.8336 96.0841 70.5 97.1835 70.5 98.8C70.5 100.259 71.7034 101.7 73.4 101.7H73.5884L73.5218 101.814C73.0258 102.596 73.0807 103.486 73.277 104.074C73.4662 104.642 73.8505 105.236 74.4679 105.648C75.2125 106.144 76.0679 106.162 76.7386 105.963C77.3843 105.772 78.0417 105.328 78.4147 104.623L78.4734 104.522L78.5779 104.709C79.0633 105.64 80.0978 106.2 81.1 106.2C81.6399 106.2 82.1859 105.984 82.4708 105.842L82.5543 105.8L82.6321 105.748C83.6587 105.064 84.5356 103.425 83.5853 101.925L83.4592 101.7H83.7C85.1586 101.7 86.6 100.497 86.6 98.8C86.6 96.9629 85.0032 96 83.7 96H83.4592L83.5865 95.7725C84.3817 94.505 84.0393 92.5874 82.4712 91.8571C81.098 91.1198 79.417 91.5298 78.6015 92.9491L78.5 93.123L78.3985 92.949C77.6264 91.6059 75.9299 91.043 74.5481 91.9003C73.7903 92.3069 73.3755 92.9301 73.177 93.5256C73.0228 93.9881 73.0492 94.4262 73.0901 94.7121C73.1333 95.0143 73.2141 95.2856 73.277 95.4743L73.3261 95.6216L73.4043 95.7558L73.4884 95.9Z" fill="#00A4D6" stroke="white" stroke-width="3"/>
<path d="M90.8714 99.162L90.9468 99.1968L91.0257 99.2231C91.3672 99.3369 91.9528 99.5 92.5 99.5C94.0151 99.5 95.518 98.7142 96.1828 97.0817L99.6742 89.1013L99.6878 89.0702L99.7 89.0385C100.464 87.052 99.6952 84.7919 97.6286 83.8381L97.5841 83.8176L97.5385 83.8C95.552 83.036 93.2919 83.8048 92.3381 85.8714L92.3318 85.8851L92.3258 85.8988L88.8258 93.8988L88.8122 93.9299L88.8 93.9616C88.036 95.948 88.8048 98.2081 90.8714 99.162Z" fill="#006EDB" stroke="white" stroke-width="3"/>
<path d="M62.8714 99.162L62.9468 99.1968L63.0257 99.2231C63.3672 99.3369 63.9528 99.5 64.5 99.5C66.0151 99.5 67.518 98.7142 68.1828 97.0817L71.6742 89.1013L71.6878 89.0702L71.7 89.0385C72.464 87.052 71.6952 84.7919 69.6286 83.8381L69.5841 83.8176L69.5385 83.8C67.552 83.036 65.2919 83.8048 64.3381 85.8714L64.3318 85.8851L64.3258 85.8988L60.8258 93.8988L60.8122 93.9299L60.8 93.9616C60.036 95.948 60.8048 98.2081 62.8714 99.162Z" fill="#006EDB" stroke="white" stroke-width="3"/>
<path d="M37.8714 106.162L37.9468 106.197L38.0257 106.223C38.3672 106.337 38.9528 106.5 39.5 106.5C41.0151 106.5 42.518 105.714 43.1828 104.082L46.6742 96.1013L46.6878 96.0702L46.7 96.0385C47.464 94.052 46.6952 91.7919 44.6286 90.8381L44.5841 90.8176L44.5385 90.8C42.552 90.036 40.2919 90.8048 39.3381 92.8714L39.3318 92.8851L39.3258 92.8988L35.8258 100.899L35.8122 100.93L35.8 100.962C35.036 102.948 35.8048 105.208 37.8714 106.162Z" fill="#006EDB" stroke="white" stroke-width="3"/>
<defs>
<filter id="filter0_f_1965_5046" x="17.5" y="36" width="85" height="46.1006" filterUnits="userSpaceOnUse" color-interpolation-filters="sRGB">
<feFlood flood-opacity="0" result="BackgroundImageFix"/>
<feBlend mode="normal" in="SourceGraphic" in2="BackgroundImageFix" result="shape"/>
<feGaussianBlur stdDeviation="3.5" result="effect1_foregroundBlur_1965_5046"/>
</filter>
<linearGradient id="paint0_linear_1965_5046" x1="18.9138" y1="49.4636" x2="46.2563" y2="16.8781" gradientUnits="userSpaceOnUse">
<stop stop-color="#686E73"/>
<stop offset="0.9891" stop-color="#6A7075"/>
</linearGradient>
<linearGradient id="paint1_linear_1965_5046" x1="53.5" y1="44.5" x2="55.5" y2="77.1" gradientUnits="userSpaceOnUse">
<stop offset="0.484375" stop-color="white" stop-opacity="0"/>
<stop offset="1" stop-color="#B3B2B2"/>
</linearGradient>
</defs>
</svg>
