<svg width="120" height="120" viewBox="0 0 120 120" fill="none" xmlns="http://www.w3.org/2000/svg">
<g clip-path="url(#clip0_1965_5046)" filter="url(#filter0_d_1965_5046)">
<path d="M35.5415 9.92676C37.3268 13.0511 38.4427 16.6963 38.4427 20.5646C38.4427 32.3182 28.9207 41.8402 17.1671 41.8402C16.2 41.8402 15.3073 41.7658 14.4146 41.617C18.1342 48.0146 24.9781 52.3292 32.789 52.3292C44.5427 52.3292 54.0646 42.8072 54.0646 31.0536C54.0646 20.1926 46.0305 11.2658 35.5415 9.92676Z" fill="url(#paint0_linear_1965_5046)"/>
<path d="M69.4972 78.8216L69.9917 80.1H71.3625H87.6C96.5864 80.1 104 72.8227 104 63.8C104 56.73 99.4681 50.5618 93.0335 48.3354C90.4768 36.6911 79.9526 28 67.7 28C58.4299 28 50.0102 32.8893 45.4313 40.6938C44.5454 40.488 43.6662 40.4 42.8 40.4C38.3287 40.4 34.3727 42.7859 32.3647 46.5016C32.2209 46.5 32.0815 46.5 31.9457 46.5L31.9 46.5C27.2669 46.5 22.9446 48.3137 19.7612 51.6108L19.7603 51.6117C16.7172 54.7676 15 58.8591 15 63.2V63.4V63.4244L15.0006 63.4488C15.1126 68.0424 16.9106 72.2533 20.2111 75.3395C23.2961 78.4108 27.4992 80.1 31.9 80.1H49.7718H50.961L51.529 79.0552L61.8572 60.0552L61.8609 60.0482C62.2062 59.407 62.9232 59 63.6 59C63.6545 59 63.7502 59.0111 63.9056 59.0889L63.9886 59.1304L64.0751 59.164C65.0948 59.5605 65.6133 60.5783 65.4429 61.388L65.4366 61.4178L65.4312 61.4479L63.2312 73.7479L62.9506 75.3171L64.4177 75.9407L68.392 77.6297C68.9509 77.8886 69.2752 78.2478 69.4972 78.8216Z" fill="#999999" stroke="#56616C" stroke-width="4"/>
<g opacity="0.6">
<path fill-rule="evenodd" clip-rule="evenodd" d="M67.7 30C79.4 30 89.4 38.6 91.3 49.9C97.5 51.5 102 57.2 102 63.8C102 71.7 95.5 78.1 87.6 78.1H71.3625C70.9568 77.0514 70.2664 76.2847 69.2 75.8L65.2 74.1L67.4 61.8C67.8 59.9 66.6 58 64.8 57.3C64.4 57.1 64 57 63.6 57C62.2 57 60.8 57.8 60.1 59.1L49.7718 78.1H31.9C28 78.1 24.3 76.6 21.6 73.9C18.7 71.2 17.1 67.5 17 63.4V63.2C17 59.4 18.5 55.8 21.2 53C24 50.1 27.8 48.5 31.9 48.5C32.5 48.5 33 48.5 33.6 48.6C35 44.9 38.6 42.4 42.8 42.4C44 42.4 45.2 42.6 46.4 43.1C50.4 35.1 58.6 30 67.7 30Z" fill="url(#paint1_linear_1965_5046)" style="mix-blend-mode:multiply"/>
</g>
<g style="mix-blend-mode:multiply" opacity="0.3" filter="url(#filter1_f_1965_5046)">
<path fill-rule="evenodd" clip-rule="evenodd" d="M54.0731 70.1873C47.4845 70.6367 40.4547 71 39.5 71C33 71 28.5 76.1007 28.5 76.1007H50.8586L54.0731 70.1873ZM66.4846 66.9179L67.4 61.8C67.4512 61.5569 67.4762 61.3139 67.4771 61.0733C68.1252 60.834 68.6465 60.6032 68.6465 60.6032C68.6465 60.6032 72.9994 59.0007 73.75 59.0007C74.5006 59.0007 74.1244 56.0375 73.8901 54.1913L73.8901 54.1913L73.75 52.8707C73.75 52.509 73.3022 51.9861 72.7496 51.3407C71.9726 50.4334 70.9884 49.284 70.75 48.0007C70.5753 47.0605 70.7764 45.9193 70.9222 45.0915C71.0132 44.5748 71.0827 44.1802 71.0258 44.033C71.1384 44.0858 71.9481 44.3602 71.9481 44.3602C73.8959 45.0203 76.9771 46.0993 79.75 48.0007C81.4084 49.1378 83.6911 51.3144 83.6911 51.3144C83.6911 51.3144 85.3358 52.5864 85.75 53.0007C86.75 54.0007 89.75 57.0007 91.75 57.0007H96.75L99 58.5907L99.5 61.8007C99.5 69.7007 93 76.1007 85.1 76.1007H69.7581C69.5847 75.9906 69.3989 75.8904 69.2 75.8L65.2 74.1L66.1262 68.9217C66.6816 68.567 66.6884 67.8141 66.4846 66.9179ZM70.99 44.0007C71.0045 43.997 71.0163 44.0084 71.0258 44.033C71.0258 44.033 70.9751 44.0044 70.99 44.0007Z" fill="#B6B6B6"/>
</g>
<path d="M65.5677 61.3578C65.7435 60.3913 65.1913 59.4403 64.2649 59.1137C63.3384 58.7872 62.312 59.1818 61.8428 60.0448L51.2428 79.5448C50.9732 80.0408 50.9258 80.6276 51.1122 81.1605C51.2986 81.6933 51.7016 82.1226 52.2216 82.3423L57.7251 84.6677L53.5657 100.492C53.3101 101.464 53.8162 102.475 54.7478 102.853C55.6794 103.231 56.747 102.859 57.2414 101.984L69.4414 80.3836C69.7201 79.8903 69.7764 79.3019 69.5964 78.7647C69.4164 78.2275 69.017 77.7918 68.4975 77.5659L63.0513 75.198L65.5677 61.3578Z" fill="#FF9D00" stroke="white" stroke-width="4" stroke-linejoin="round"/>
<path d="M36.7 89.5H33.9L35.3 87C35.7 86.4 35.5 85.5 34.8 85.2C34.1 84.8 33.3 85 32.9 85.7L31.5 88.1L30.1 85.7C29.7 85 28.9 84.8 28.3 85.2C27.9 85.4 27.7 85.7 27.6 86C27.5 86.3 27.6 86.7 27.7 87L29.1 89.4H26.4C25.6 89.5 25 90.1 25 90.8C25 91.5 25.6 92.2 26.4 92.2H29.2L27.8 94.6C27.6 94.9 27.6 95.3 27.7 95.6C27.8 95.9 28 96.2 28.3 96.4C28.9 96.8 29.8 96.5 30.1 95.9L31.5 93.5L32.9 96C33.1 96.4 33.6 96.7 34.1 96.7C34.3 96.7 34.6 96.6 34.8 96.5C35.4 96.1 35.7 95.3 35.3 94.7L33.9 92.2H36.7C37.4 92.2 38.1 91.6 38.1 90.8C38.1 90 37.4 89.5 36.7 89.5Z" fill="#00A4D6"/>
<path d="M87.7 98.5H84.9L86.3 96C86.7 95.4 86.5 94.5 85.8 94.2C85.1 93.8 84.3 94 83.9 94.7L82.5 97.1L81.1 94.7C80.7 94 79.9 93.8 79.3 94.2C78.9 94.4 78.7 94.7 78.6 95C78.5 95.3 78.6 95.7 78.7 96L80.1 98.4H77.4C76.6 98.5 76 99.1 76 99.8C76 100.5 76.6 101.2 77.4 101.2H80.2L78.8 103.6C78.6 103.9 78.6 104.3 78.7 104.6C78.8 104.9 79 105.2 79.3 105.4C79.9 105.8 80.8 105.5 81.1 104.9L82.5 102.5L83.9 105C84.1 105.4 84.6 105.7 85.1 105.7C85.3 105.7 85.6 105.6 85.8 105.5C86.4 105.1 86.7 104.3 86.3 103.7L84.9 101.2H87.7C88.4 101.2 89.1 100.6 89.1 99.8C89.1 99 88.4 98.5 87.7 98.5Z" fill="#00A4D6"/>
<path d="M96.5 99C96.2 99 95.8 98.9 95.5 98.8C94.2 98.2 93.7 96.8 94.2 95.5L97.7 87.5C98.3 86.2 99.7 85.7 101 86.2C102.3 86.8 102.8 88.2 102.3 89.5L98.8 97.5C98.4 98.5 97.5 99 96.5 99Z" fill="#006EDB"/>
<path d="M68.5 99C68.2 99 67.8 98.9 67.5 98.8C66.2 98.2 65.7 96.8 66.2 95.5L69.7 87.5C70.3 86.2 71.7 85.7 73 86.2C74.3 86.8 74.8 88.2 74.3 89.5L70.8 97.5C70.4 98.5 69.5 99 68.5 99Z" fill="#006EDB"/>
<path d="M43.5 106C43.2 106 42.8 105.9 42.5 105.8C41.2 105.2 40.7 103.8 41.2 102.5L44.7 94.5C45.3 93.2 46.7 92.7 48 93.2C49.3 93.8 49.8 95.2 49.3 96.5L45.8 104.5C45.4 105.5 44.5 106 43.5 106Z" fill="#006EDB"/>
</g>
<defs>
<filter id="filter0_d_1965_5046" x="0" y="0" width="120" height="120" filterUnits="userSpaceOnUse" color-interpolation-filters="sRGB">
<feFlood flood-opacity="0" result="BackgroundImageFix"/>
<feColorMatrix in="SourceAlpha" type="matrix" values="0 0 0 0 0 0 0 0 0 0 0 0 0 0 0 0 0 0 127 0" result="hardAlpha"/>
<feMorphology radius="3" operator="dilate" in="SourceAlpha" result="effect1_dropShadow_1965_5046"/>
<feOffset dy="3"/>
<feGaussianBlur stdDeviation="3.5"/>
<feColorMatrix type="matrix" values="0 0 0 0 0 0 0 0 0 0 0 0 0 0 0 0 0 0 0.35 0"/>
<feBlend mode="normal" in2="BackgroundImageFix" result="effect1_dropShadow_1965_5046"/>
<feBlend mode="normal" in="SourceGraphic" in2="effect1_dropShadow_1965_5046" result="shape"/>
</filter>
<filter id="filter1_f_1965_5046" x="21.5" y="37" width="85" height="46.1006" filterUnits="userSpaceOnUse" color-interpolation-filters="sRGB">
<feFlood flood-opacity="0" result="BackgroundImageFix"/>
<feBlend mode="normal" in="SourceGraphic" in2="BackgroundImageFix" result="shape"/>
<feGaussianBlur stdDeviation="3.5" result="effect1_foregroundBlur_1965_5046"/>
</filter>
<linearGradient id="paint0_linear_1965_5046" x1="22.9138" y1="50.4636" x2="50.2563" y2="17.8781" gradientUnits="userSpaceOnUse">
<stop stop-color="#686E73"/>
<stop offset="0.9891" stop-color="#6A7075"/>
</linearGradient>
<linearGradient id="paint1_linear_1965_5046" x1="57.5" y1="45.5" x2="59.5" y2="78.1" gradientUnits="userSpaceOnUse">
<stop offset="0.484375" stop-color="white" stop-opacity="0"/>
<stop offset="1" stop-color="#B3B2B2"/>
</linearGradient>
<clipPath id="clip0_1965_5046">
<rect width="100" height="100" fill="white" transform="translate(10 7)"/>
</clipPath>
</defs>
</svg>
