<svg width="106" height="109" viewBox="0 0 106 109" fill="none" xmlns="http://www.w3.org/2000/svg">
<path d="M31.5415 8.92676C33.3268 12.0511 34.4427 15.6963 34.4427 19.5646C34.4427 31.3182 24.9207 40.8402 13.1671 40.8402C12.2 40.8402 11.3073 40.7658 10.4146 40.617C14.1342 47.0146 20.9781 51.3292 28.789 51.3292C40.5427 51.3292 50.0646 41.8072 50.0646 30.0536C50.0646 19.1926 42.0305 10.2658 31.5415 8.92676Z" fill="url(#paint0_linear_1965_5047)"/>
<path d="M65.4972 77.8216L65.9917 79.1H67.3625H83.6C92.5864 79.1 100 71.8227 100 62.8C100 55.73 95.4681 49.5618 89.0335 47.3354C86.4768 35.6911 75.9526 27 63.7 27C54.4299 27 46.0102 31.8893 41.4313 39.6938C40.5454 39.488 39.6662 39.4 38.8 39.4C34.3287 39.4 30.3727 41.7859 28.3647 45.5016C28.2209 45.5 28.0815 45.5 27.9457 45.5L27.9 45.5C23.2669 45.5 18.9446 47.3137 15.7612 50.6108L15.7603 50.6117C12.7172 53.7676 11 57.8591 11 62.2V62.4V62.4244L11.0006 62.4488C11.1126 67.0424 12.9106 71.2533 16.2111 74.3395C19.2961 77.4108 23.4992 79.1 27.9 79.1H45.7718H46.961L47.529 78.0552L57.8572 59.0552L57.8609 59.0482C58.2062 58.407 58.9232 58 59.6 58C59.6545 58 59.7502 58.0111 59.9056 58.0889L59.9886 58.1304L60.0751 58.164C61.0948 58.5605 61.6133 59.5783 61.4429 60.388L61.4366 60.4178L61.4312 60.4479L59.2312 72.7479L58.9506 74.3171L60.4177 74.9407L64.392 76.6297C64.9509 76.8886 65.2752 77.2478 65.4972 77.8216Z" fill="#CCCCCC" stroke="#606E7C" stroke-width="4"/>
<g opacity="0.6">
<path fill-rule="evenodd" clip-rule="evenodd" d="M63.7 29C75.4 29 85.4 37.6 87.3 48.9C93.5 50.5 98 56.2 98 62.8C98 70.7 91.5 77.1 83.6 77.1H67.3625C66.9568 76.0514 66.2664 75.2847 65.2 74.8L61.2 73.1L63.4 60.8C63.8 58.9 62.6 57 60.8 56.3C60.4 56.1 60 56 59.6 56C58.2 56 56.8 56.8 56.1 58.1L45.7718 77.1H27.9C24 77.1 20.3 75.6 17.6 72.9C14.7 70.2 13.1 66.5 13 62.4V62.2C13 58.4 14.5 54.8 17.2 52C20 49.1 23.8 47.5 27.9 47.5C28.5 47.5 29 47.5 29.6 47.6C31 43.9 34.6 41.4 38.8 41.4C40 41.4 41.2 41.6 42.4 42.1C46.4 34.1 54.6 29 63.7 29Z" fill="url(#paint1_linear_1965_5047)" style="mix-blend-mode:multiply"/>
</g>
<g style="mix-blend-mode:multiply" opacity="0.3" filter="url(#filter0_f_1965_5047)">
<path fill-rule="evenodd" clip-rule="evenodd" d="M50.0731 69.1873C43.4845 69.6367 36.4547 70 35.5 70C29 70 24.5 75.1007 24.5 75.1007H46.8586L50.0731 69.1873ZM62.4846 65.9179L63.4 60.8C63.4512 60.5569 63.4762 60.3139 63.4771 60.0733C64.1252 59.834 64.6465 59.6032 64.6465 59.6032C64.6465 59.6032 68.9994 58.0007 69.75 58.0007C70.5006 58.0007 70.1244 55.0375 69.8901 53.1913L69.8901 53.1913L69.75 51.8707C69.75 51.509 69.3022 50.9861 68.7496 50.3407C67.9726 49.4334 66.9884 48.284 66.75 47.0007C66.5753 46.0605 66.7764 44.9193 66.9222 44.0915C67.0132 43.5748 67.0827 43.1802 67.0258 43.033C67.1384 43.0858 67.9481 43.3602 67.9481 43.3602C69.8959 44.0203 72.9771 45.0993 75.75 47.0007C77.4084 48.1378 79.6911 50.3144 79.6911 50.3144C79.6911 50.3144 81.3358 51.5864 81.75 52.0007C82.75 53.0007 85.75 56.0007 87.75 56.0007H92.75L95 57.5907L95.5 60.8007C95.5 68.7007 89 75.1007 81.1 75.1007H65.7581C65.5847 74.9906 65.3989 74.8904 65.2 74.8L61.2 73.1L62.1262 67.9217C62.6816 67.567 62.6884 66.8141 62.4846 65.9179ZM66.99 43.0007C67.0045 42.997 67.0163 43.0084 67.0258 43.033C67.0258 43.033 66.9751 43.0044 66.99 43.0007Z" fill="#B6B6B6"/>
</g>
<path d="M48.2216 81.3423L53.7251 83.6677L49.5657 99.4916C49.3101 100.464 49.8162 101.475 50.7478 101.853C51.6794 102.231 52.747 101.859 53.2414 100.984L65.4414 79.3836C65.7201 78.8903 65.7764 78.3019 65.5964 77.7647C65.4164 77.2275 65.017 76.7918 64.4975 76.5659L59.0513 74.198L61.5677 60.3578C61.7435 59.3913 61.1913 58.4403 60.2649 58.1137C59.3384 57.7872 58.312 58.1818 57.8428 59.0448L47.2428 78.5448C46.9732 79.0408 46.9258 79.6276 47.1122 80.1605C47.2986 80.6933 47.7016 81.1226 48.2216 81.3423Z" fill="#FF9D00" stroke="white" stroke-width="4" stroke-linejoin="round"/>
<path d="M33.4884 96.9H33.4H33.3066L33.2139 96.9115C31.8336 97.0841 30.5 98.1835 30.5 99.8C30.5 101.259 31.7034 102.7 33.4 102.7H33.5884L33.5218 102.814C33.0258 103.596 33.0807 104.486 33.277 105.074C33.4662 105.642 33.8505 106.236 34.4679 106.648C35.2125 107.144 36.0679 107.162 36.7386 106.963C37.3843 106.772 38.0417 106.328 38.4147 105.623L38.4734 105.522L38.5779 105.709C39.0633 106.64 40.0978 107.2 41.1 107.2C41.6399 107.2 42.1859 106.984 42.4708 106.842L42.5543 106.8L42.6321 106.748C43.6587 106.064 44.5356 104.425 43.5853 102.925L43.4592 102.7H43.7C45.1586 102.7 46.6 101.497 46.6 99.8C46.6 97.9629 45.0032 97 43.7 97H43.4592L43.5865 96.7725C44.3817 95.505 44.0393 93.5874 42.4712 92.8571C41.098 92.1198 39.417 92.5298 38.6015 93.9491L38.5 94.123L38.3985 93.949C37.6264 92.6059 35.9299 92.043 34.5481 92.9003C33.7903 93.3069 33.3755 93.9301 33.177 94.5256C33.0228 94.9881 33.0492 95.4262 33.0901 95.7121C33.1333 96.0143 33.2141 96.2856 33.277 96.4743L33.3261 96.6216L33.4043 96.7558L33.4884 96.9Z" fill="#00A4D6" stroke="white" stroke-width="3"/>
<path d="M65.4884 87.9H65.4H65.3066L65.2139 87.9115C63.8336 88.0841 62.5 89.1835 62.5 90.8C62.5 92.2586 63.7034 93.7 65.4 93.7H65.5884L65.5218 93.8143C65.0258 94.5957 65.0807 95.4856 65.277 96.0743C65.4662 96.6421 65.8505 97.2364 66.4679 97.648C67.2125 98.1444 68.0679 98.1619 68.7386 97.9632C69.3843 97.7718 70.0417 97.3282 70.4147 96.6231L70.4734 96.5225L70.5779 96.7091C71.0633 97.6395 72.0978 98.2 73.1 98.2C73.6399 98.2 74.1859 97.9841 74.4708 97.8416L74.5543 97.7998L74.6321 97.748C75.6587 97.0636 76.5356 95.4246 75.5853 93.9252L75.4592 93.7H75.7C77.1586 93.7 78.6 92.4965 78.6 90.8C78.6 88.9629 77.0032 88 75.7 88H75.4592L75.5865 87.7725C76.3817 86.505 76.0393 84.5874 74.4712 83.8571C73.098 83.1198 71.417 83.5298 70.6015 84.9491L70.5 85.123L70.3985 84.949C69.6264 83.6059 67.9299 83.043 66.5481 83.9003C65.7903 84.3069 65.3755 84.9301 65.177 85.5256C65.0228 85.9881 65.0492 86.4262 65.0901 86.7121C65.1333 87.0143 65.2141 87.2856 65.277 87.4743L65.3261 87.6216L65.4043 87.7558L65.4884 87.9Z" fill="#00A4D6" stroke="white" stroke-width="3"/>
<defs>
<filter id="filter0_f_1965_5047" x="17.5" y="36" width="85" height="46.1006" filterUnits="userSpaceOnUse" color-interpolation-filters="sRGB">
<feFlood flood-opacity="0" result="BackgroundImageFix"/>
<feBlend mode="normal" in="SourceGraphic" in2="BackgroundImageFix" result="shape"/>
<feGaussianBlur stdDeviation="3.5" result="effect1_foregroundBlur_1965_5047"/>
</filter>
<linearGradient id="paint0_linear_1965_5047" x1="18.9138" y1="49.4636" x2="46.2563" y2="16.8781" gradientUnits="userSpaceOnUse">
<stop stop-color="#686E73"/>
<stop offset="0.9891" stop-color="#6A7075"/>
</linearGradient>
<linearGradient id="paint1_linear_1965_5047" x1="53.5" y1="44.5" x2="55.5" y2="77.1" gradientUnits="userSpaceOnUse">
<stop offset="0.484375" stop-color="white" stop-opacity="0"/>
<stop offset="1" stop-color="#B3B2B2"/>
</linearGradient>
</defs>
</svg>
