<svg width="100" height="103" viewBox="0 0 100 103" fill="none" xmlns="http://www.w3.org/2000/svg">
<g clip-path="url(#clip0_1965_5019)">
<path fill-rule="evenodd" clip-rule="evenodd" d="M52.3146 18.5169L54.072 16.0601L42.716 17.2841L43.872 5.86012L34.624 12.5921L30 2.12012L25.376 12.5921L16.06 5.86012L17.284 17.2161L5.86 16.0601L12.592 25.3081L2.12 30.0001L12.592 34.6241L5.86 43.9401L6.4302 43.8787C6.79888 43.4377 7.18901 43.0111 7.6 42.6001C11.1 39.0001 15.7 36.9001 20.7 36.6001C23.4 32.7001 27.9 30.4001 32.8 30.4001H33.9C38.2631 24.2594 44.9113 19.9466 52.3146 18.5169Z" fill="url(#paint0_radial_1965_5019)" stroke="#C37F0E" stroke-width="3"/>
</g>
<path fill-rule="evenodd" clip-rule="evenodd" d="M14.867 37.8308C16.7147 37.1384 18.6745 36.7215 20.7 36.6C23.4 32.7 27.9 30.4 32.8 30.4H33.9C36.6679 26.5044 40.3553 23.3445 44.5718 21.1896C39.7966 13.3271 29.5494 10.665 21.4904 15.2337C13.6195 19.7995 10.7654 29.8348 14.867 37.8308Z" fill="#FFD348"/>
<path fill-rule="evenodd" clip-rule="evenodd" d="M17.5653 37.034C18.5875 36.8096 19.6347 36.6639 20.7 36.6C23.4 32.7 27.9 30.4 32.8 30.4H33.9C36.1324 27.2581 38.9631 24.5947 42.187 22.5511C38.1607 15.989 29.5536 13.7405 22.8585 17.6236C16.0937 21.5472 13.7042 30.2499 17.5653 37.034Z" fill="url(#paint1_linear_1965_5019)"/>
<path d="M59.4972 71.8216L59.9917 73.1H61.3625H77.6C86.5864 73.1 94 65.8227 94 56.8C94 49.73 89.4681 43.5618 83.0335 41.3354C80.4768 29.6911 69.9526 21 57.7 21C48.4299 21 40.0102 25.8893 35.4313 33.6938C34.5454 33.488 33.6662 33.4 32.8 33.4C28.3287 33.4 24.3727 35.7859 22.3647 39.5016C22.2209 39.5 22.0815 39.5 21.9457 39.5L21.9 39.5C17.2669 39.5 12.9446 41.3137 9.7612 44.6108L9.76031 44.6117C6.71717 47.7676 5 51.8591 5 56.2V56.4V56.4244L5.00059 56.4488C5.11263 61.0424 6.91061 65.2533 10.2111 68.3395C13.2961 71.4108 17.4992 73.1 21.9 73.1H39.7718H40.961L41.529 72.0552L51.8572 53.0552L51.8609 53.0482C52.2062 52.407 52.9232 52 53.6 52C53.6545 52 53.7502 52.0111 53.9056 52.0889L53.9886 52.1304L54.0751 52.164C55.0948 52.5605 55.6133 53.5783 55.4429 54.388L55.4366 54.4178L55.4312 54.4479L53.2312 66.7479L52.9506 68.3171L54.4177 68.9407L58.392 70.6297C58.9509 70.8886 59.2752 71.2478 59.4972 71.8216Z" fill="#999999" stroke="#606E7C" stroke-width="4"/>
<g opacity="0.6">
<path fill-rule="evenodd" clip-rule="evenodd" d="M57.7 23C69.4 23 79.4 31.6 81.3 42.9C87.5 44.5 92 50.2 92 56.8C92 64.7 85.5 71.1 77.6 71.1H61.3625C60.9568 70.0514 60.2664 69.2847 59.2 68.8L55.2 67.1L57.4 54.8C57.8 52.9 56.6 51 54.8 50.3C54.4 50.1 54 50 53.6 50C52.2 50 50.8 50.8 50.1 52.1L39.7718 71.1H21.9C18 71.1 14.3 69.6 11.6 66.9C8.7 64.2 7.1 60.5 7 56.4V56.2C7 52.4 8.5 48.8 11.2 46C14 43.1 17.8 41.5 21.9 41.5C22.5 41.5 23 41.5 23.6 41.6C25 37.9 28.6 35.4 32.8 35.4C34 35.4 35.2 35.6 36.4 36.1C40.4 28.1 48.6 23 57.7 23Z" fill="url(#paint2_linear_1965_5019)" style="mix-blend-mode:multiply"/>
</g>
<g style="mix-blend-mode:multiply" opacity="0.3" filter="url(#filter0_f_1965_5019)">
<path fill-rule="evenodd" clip-rule="evenodd" d="M44.0731 63.1873C37.4845 63.6367 30.4547 64 29.5 64C23 64 18.5 69.1007 18.5 69.1007H40.8586L44.0731 63.1873ZM56.4846 59.9179L57.4 54.8C57.4512 54.5569 57.4762 54.3139 57.4771 54.0733C58.1252 53.834 58.6465 53.6032 58.6465 53.6032C58.6465 53.6032 62.9994 52.0007 63.75 52.0007C64.5006 52.0007 64.1244 49.0375 63.8901 47.1913L63.8901 47.1913L63.75 45.8707C63.75 45.509 63.3022 44.9861 62.7496 44.3407C61.9726 43.4334 60.9884 42.284 60.75 41.0007C60.5753 40.0605 60.7764 38.9193 60.9222 38.0915C61.0132 37.5748 61.0827 37.1802 61.0258 37.033C61.1384 37.0858 61.9481 37.3602 61.9481 37.3602C63.8959 38.0203 66.9771 39.0993 69.75 41.0007C71.4084 42.1378 73.6911 44.3144 73.6911 44.3144C73.6911 44.3144 75.3358 45.5864 75.75 46.0007C76.75 47.0007 79.75 50.0007 81.75 50.0007H86.75L89 51.5907L89.5 54.8007C89.5 62.7007 83 69.1007 75.1 69.1007H59.7581C59.5847 68.9906 59.3989 68.8904 59.2 68.8L55.2 67.1L56.1262 61.9217C56.6816 61.567 56.6884 60.8141 56.4846 59.9179ZM60.99 37.0007C61.0045 36.997 61.0163 37.0084 61.0258 37.033C61.0258 37.033 60.9751 37.0044 60.99 37.0007Z" fill="#B6B6B6"/>
</g>
<path d="M42.2216 75.3423L47.7251 77.6677L43.5657 93.4916C43.3101 94.464 43.8162 95.475 44.7478 95.8531C45.6794 96.2313 46.747 95.859 47.2414 94.9836L59.4414 73.3836C59.7201 72.8903 59.7764 72.3019 59.5964 71.7647C59.4164 71.2275 59.017 70.7918 58.4975 70.5659L53.0513 68.198L55.5677 54.3578C55.7435 53.3913 55.1913 52.4403 54.2649 52.1137C53.3384 51.7872 52.312 52.1818 51.8428 53.0448L41.2428 72.5448C40.9732 73.0408 40.9258 73.6276 41.1122 74.1605C41.2986 74.6933 41.7016 75.1226 42.2216 75.3423Z" fill="#FF9D00" stroke="white" stroke-width="4" stroke-linejoin="round"/>
<path d="M29.4884 90.9H29.4H29.3066L29.2139 90.9115C27.8336 91.0841 26.5 92.1835 26.5 93.8C26.5 95.2586 27.7034 96.7 29.4 96.7H29.5884L29.5218 96.8143C29.0258 97.5957 29.0807 98.4856 29.277 99.0743C29.4662 99.6421 29.8505 100.236 30.4679 100.648C31.2125 101.144 32.0679 101.162 32.7386 100.963C33.3843 100.772 34.0417 100.328 34.4147 99.6231L34.4734 99.5225L34.5779 99.7091C35.0633 100.64 36.0978 101.2 37.1 101.2C37.6399 101.2 38.1859 100.984 38.4708 100.842L38.5543 100.8L38.6321 100.748C39.6587 100.064 40.5356 98.4246 39.5853 96.9252L39.4592 96.7H39.7C41.1586 96.7 42.6 95.4965 42.6 93.8C42.6 91.9629 41.0032 91 39.7 91H39.4592L39.5865 90.7725C40.3817 89.505 40.0393 87.5874 38.4712 86.8571C37.098 86.1198 35.417 86.5298 34.6015 87.9491L34.5 88.123L34.3985 87.949C33.6264 86.6059 31.9299 86.043 30.5481 86.9003C29.7903 87.3069 29.3755 87.9301 29.177 88.5256C29.0228 88.9881 29.0492 89.4262 29.0901 89.7121C29.1333 90.0143 29.2141 90.2856 29.277 90.4743L29.3261 90.6216L29.4043 90.7558L29.4884 90.9Z" fill="#00A4D6" stroke="white" stroke-width="3"/>
<path d="M71.4884 90.9H71.4H71.3066L71.2139 90.9115C69.8336 91.0841 68.5 92.1835 68.5 93.8C68.5 95.2586 69.7034 96.7 71.4 96.7H71.5884L71.5218 96.8143C71.0258 97.5957 71.0807 98.4856 71.277 99.0743C71.4662 99.6421 71.8505 100.236 72.4679 100.648C73.2125 101.144 74.0679 101.162 74.7386 100.963C75.3843 100.772 76.0417 100.328 76.4147 99.6231L76.4734 99.5225L76.5779 99.7091C77.0633 100.64 78.0978 101.2 79.1 101.2C79.6399 101.2 80.1859 100.984 80.4708 100.842L80.5543 100.8L80.6321 100.748C81.6587 100.064 82.5356 98.4246 81.5853 96.9252L81.4592 96.7H81.7C83.1586 96.7 84.6 95.4965 84.6 93.8C84.6 91.9629 83.0032 91 81.7 91H81.4592L81.5865 90.7725C82.3817 89.505 82.0393 87.5874 80.4712 86.8571C79.098 86.1198 77.417 86.5298 76.6015 87.9491L76.5 88.123L76.3985 87.949C75.6264 86.6059 73.9299 86.043 72.5481 86.9003C71.7903 87.3069 71.3755 87.9301 71.177 88.5256C71.0228 88.9881 71.0492 89.4262 71.0901 89.7121C71.1333 90.0143 71.2141 90.2856 71.277 90.4743L71.3261 90.6216L71.4043 90.7558L71.4884 90.9Z" fill="#00A4D6" stroke="white" stroke-width="3"/>
<path d="M14.4884 81.9H14.4H14.3066L14.2139 81.9115C12.8336 82.0841 11.5 83.1835 11.5 84.8C11.5 86.2586 12.7034 87.7 14.4 87.7H14.5884L14.5218 87.8143C14.0258 88.5957 14.0807 89.4856 14.277 90.0743C14.4662 90.6421 14.8505 91.2364 15.4679 91.648C16.2125 92.1444 17.0679 92.1619 17.7386 91.9632C18.3843 91.7718 19.0417 91.3282 19.4147 90.6231L19.4734 90.5225L19.5779 90.7091C20.0633 91.6395 21.0978 92.2 22.1 92.2C22.6399 92.2 23.1859 91.9841 23.4708 91.8416L23.5543 91.7998L23.6321 91.748C24.6587 91.0636 25.5356 89.4246 24.5853 87.9252L24.4592 87.7H24.7C26.1586 87.7 27.6 86.4965 27.6 84.8C27.6 82.9629 26.0032 82 24.7 82H24.4592L24.5865 81.7725C25.3817 80.505 25.0393 78.5874 23.4712 77.8571C22.098 77.1198 20.417 77.5298 19.6015 78.9491L19.5 79.123L19.3985 78.949C18.6264 77.6059 16.9299 77.043 15.5481 77.9003C14.7903 78.3069 14.3755 78.9301 14.177 79.5256C14.0228 79.9881 14.0492 80.4262 14.0901 80.7121C14.1333 81.0143 14.2141 81.2856 14.277 81.4743L14.3261 81.6216L14.4043 81.7558L14.4884 81.9Z" fill="#00A4D6" stroke="white" stroke-width="3"/>
<path d="M84.4884 81.9H84.4H84.3066L84.2139 81.9115C82.8336 82.0841 81.5 83.1835 81.5 84.8C81.5 86.2586 82.7034 87.7 84.4 87.7H84.5884L84.5218 87.8143C84.0258 88.5957 84.0807 89.4856 84.277 90.0743C84.4662 90.6421 84.8505 91.2364 85.4679 91.648C86.2125 92.1444 87.0679 92.1619 87.7386 91.9632C88.3843 91.7718 89.0417 91.3282 89.4147 90.6231L89.4734 90.5225L89.5779 90.7091C90.0633 91.6395 91.0978 92.2 92.1 92.2C92.6399 92.2 93.1859 91.9841 93.4708 91.8416L93.5543 91.7998L93.6321 91.748C94.6587 91.0636 95.5356 89.4246 94.5853 87.9252L94.4592 87.7H94.7C96.1586 87.7 97.6 86.4965 97.6 84.8C97.6 82.9629 96.0032 82 94.7 82H94.4592L94.5865 81.7725C95.3817 80.505 95.0393 78.5874 93.4712 77.8571C92.098 77.1198 90.417 77.5298 89.6015 78.9491L89.5 79.123L89.3985 78.949C88.6264 77.6059 86.9299 77.043 85.5481 77.9003C84.7903 78.3069 84.3755 78.9301 84.177 79.5256C84.0228 79.9881 84.0492 80.4262 84.0901 80.7121C84.1333 81.0143 84.2141 81.2856 84.277 81.4743L84.3261 81.6216L84.4043 81.7558L84.4884 81.9Z" fill="#00A4D6" stroke="white" stroke-width="3"/>
<path d="M56.4884 81.9H56.4H56.3066L56.2139 81.9115C54.8336 82.0841 53.5 83.1835 53.5 84.8C53.5 86.2586 54.7034 87.7 56.4 87.7H56.5884L56.5218 87.8143C56.0258 88.5957 56.0807 89.4856 56.277 90.0743C56.4662 90.6421 56.8505 91.2364 57.4679 91.648C58.2125 92.1444 59.0679 92.1619 59.7386 91.9632C60.3843 91.7718 61.0417 91.3282 61.4147 90.6231L61.4734 90.5225L61.5779 90.7091C62.0633 91.6395 63.0978 92.2 64.1 92.2C64.6399 92.2 65.1859 91.9841 65.4708 91.8416L65.5543 91.7998L65.6321 91.748C66.6587 91.0636 67.5356 89.4246 66.5853 87.9252L66.4592 87.7H66.7C68.1586 87.7 69.6 86.4965 69.6 84.8C69.6 82.9629 68.0032 82 66.7 82H66.4592L66.5865 81.7725C67.3817 80.505 67.0393 78.5874 65.4712 77.8571C64.098 77.1198 62.417 77.5298 61.6015 78.9491L61.5 79.123L61.3985 78.949C60.6264 77.6059 58.9299 77.043 57.5481 77.9003C56.7903 78.3069 56.3755 78.9301 56.177 79.5256C56.0228 79.9881 56.0492 80.4262 56.0901 80.7121C56.1333 81.0143 56.2141 81.2856 56.277 81.4743L56.3261 81.6216L56.4043 81.7558L56.4884 81.9Z" fill="#00A4D6" stroke="white" stroke-width="3"/>
<defs>
<filter id="filter0_f_1965_5019" x="11.5" y="30" width="85" height="46.1006" filterUnits="userSpaceOnUse" color-interpolation-filters="sRGB">
<feFlood flood-opacity="0" result="BackgroundImageFix"/>
<feBlend mode="normal" in="SourceGraphic" in2="BackgroundImageFix" result="shape"/>
<feGaussianBlur stdDeviation="3.5" result="effect1_foregroundBlur_1965_5019"/>
</filter>
<radialGradient id="paint0_radial_1965_5019" cx="0" cy="0" r="1" gradientUnits="userSpaceOnUse" gradientTransform="translate(30 30.0001) scale(27.88)">
<stop offset="0.5143" stop-color="#D6B849"/>
<stop offset="0.6523" stop-color="#FFCE47"/>
<stop offset="1" stop-color="#FFDB73"/>
</radialGradient>
<linearGradient id="paint1_linear_1965_5019" x1="20.8172" y1="19.0572" x2="39.1767" y2="40.9373" gradientUnits="userSpaceOnUse">
<stop stop-color="#FFAF22"/>
<stop offset="0.9897" stop-color="#F09900"/>
</linearGradient>
<linearGradient id="paint2_linear_1965_5019" x1="47.5" y1="38.5" x2="49.5" y2="71.1" gradientUnits="userSpaceOnUse">
<stop offset="0.484375" stop-color="white" stop-opacity="0"/>
<stop offset="1" stop-color="#B3B2B2"/>
</linearGradient>
<clipPath id="clip0_1965_5019">
<rect width="100" height="100" fill="white"/>
</clipPath>
</defs>
</svg>
