<svg width="104" height="103" viewBox="0 0 104 103" fill="none" xmlns="http://www.w3.org/2000/svg">
<mask id="mask0_1965_5020" style="mask-type:alpha" maskUnits="userSpaceOnUse" x="-4" y="21" width="82" height="41">
<rect x="-4" y="21" width="82" height="41" fill="#C4C4C4"/>
</mask>
<g mask="url(#mask0_1965_5020)">
<path d="M51.408 25.6921L61.88 21.0001L51.408 16.3761L58.072 7.06012L46.716 8.28412L47.872 -3.13988L38.624 3.59212L34 -6.87988L29.376 3.59212L20.06 -3.13988L21.284 8.21612L9.86 7.06012L16.592 16.3081L6.12 21.0001L16.592 25.6241L9.86 34.9401L21.216 33.7161L20.06 45.1401L29.308 38.4081L34 48.8801L38.624 38.4081L47.94 45.0721L46.716 33.7161L58.14 34.8721L51.408 25.6921Z" fill="url(#paint0_radial_1965_5020)" stroke="#C37F0E" stroke-width="3"/>
<path d="M19.2328 29.5059C23.926 37.6035 34.3327 40.3935 42.4948 35.7663C50.657 31.139 53.3777 20.6598 48.7525 12.4941C44.0593 4.39646 33.6525 1.60651 25.4904 6.23373C17.3963 10.929 14.6076 21.4083 19.2328 29.5059Z" fill="#FFD348"/>
<path d="M21.6236 28.1355C25.5668 34.9341 34.3369 37.3136 41.1355 33.3704C47.934 29.4273 50.3135 20.6571 46.3704 13.8585C42.4272 7.05997 33.6571 4.68047 26.8585 8.62364C20.0599 12.5668 17.6804 21.337 21.6236 28.1355Z" fill="url(#paint1_linear_1965_5020)"/>
</g>
<line x1="5.5" y1="19.5" x2="62.5" y2="19.5" stroke="#21292B" stroke-width="3" stroke-linecap="round"/>
<path d="M63.4972 71.8216L63.9917 73.1H65.3625H81.6C90.5864 73.1 98 65.8227 98 56.8C98 49.73 93.4681 43.5618 87.0335 41.3354C84.4768 29.6911 73.9526 21 61.7 21C52.4299 21 44.0102 25.8893 39.4313 33.6938C38.5454 33.488 37.6662 33.4 36.8 33.4C32.3287 33.4 28.3727 35.7859 26.3647 39.5016C26.2209 39.5 26.0815 39.5 25.9457 39.5L25.9 39.5C21.2669 39.5 16.9446 41.3137 13.7612 44.6108L13.7603 44.6117C10.7172 47.7676 9 51.8591 9 56.2V56.4V56.4244L9.00059 56.4488C9.11263 61.0424 10.9106 65.2533 14.2111 68.3395C17.2961 71.4108 21.4992 73.1 25.9 73.1H43.7718H44.961L45.529 72.0552L55.8572 53.0552L55.8609 53.0482C56.2062 52.407 56.9232 52 57.6 52C57.6545 52 57.7502 52.0111 57.9056 52.0889L57.9886 52.1304L58.0751 52.164C59.0948 52.5605 59.6133 53.5783 59.4429 54.388L59.4366 54.4178L59.4312 54.4479L57.2312 66.7479L56.9506 68.3171L58.4177 68.9407L62.392 70.6297C62.9509 70.8886 63.2752 71.2478 63.4972 71.8216Z" fill="#999999" stroke="#606E7C" stroke-width="4"/>
<g opacity="0.6">
<path fill-rule="evenodd" clip-rule="evenodd" d="M61.7 23C73.4 23 83.4 31.6 85.3 42.9C91.5 44.5 96 50.2 96 56.8C96 64.7 89.5 71.1 81.6 71.1H65.3625C64.9568 70.0514 64.2664 69.2847 63.2 68.8L59.2 67.1L61.4 54.8C61.8 52.9 60.6 51 58.8 50.3C58.4 50.1 58 50 57.6 50C56.2 50 54.8 50.8 54.1 52.1L43.7718 71.1H25.9C22 71.1 18.3 69.6 15.6 66.9C12.7 64.2 11.1 60.5 11 56.4V56.2C11 52.4 12.5 48.8 15.2 46C18 43.1 21.8 41.5 25.9 41.5C26.5 41.5 27 41.5 27.6 41.6C29 37.9 32.6 35.4 36.8 35.4C38 35.4 39.2 35.6 40.4 36.1C44.4 28.1 52.6 23 61.7 23Z" fill="url(#paint2_linear_1965_5020)" style="mix-blend-mode:multiply"/>
</g>
<g style="mix-blend-mode:multiply" opacity="0.3" filter="url(#filter0_f_1965_5020)">
<path fill-rule="evenodd" clip-rule="evenodd" d="M48.0731 63.1873C41.4845 63.6367 34.4547 64 33.5 64C27 64 22.5 69.1007 22.5 69.1007H44.8586L48.0731 63.1873ZM60.4846 59.9179L61.4 54.8C61.4512 54.5569 61.4762 54.3139 61.4771 54.0733C62.1252 53.834 62.6465 53.6032 62.6465 53.6032C62.6465 53.6032 66.9994 52.0007 67.75 52.0007C68.5006 52.0007 68.1244 49.0375 67.8901 47.1913L67.8901 47.1913L67.75 45.8707C67.75 45.509 67.3022 44.9861 66.7496 44.3407C65.9726 43.4334 64.9884 42.284 64.75 41.0007C64.5753 40.0605 64.7764 38.9193 64.9222 38.0915C65.0132 37.5748 65.0827 37.1802 65.0258 37.033C65.1384 37.0858 65.9481 37.3602 65.9481 37.3602C67.8959 38.0203 70.9771 39.0993 73.75 41.0007C75.4084 42.1378 77.6911 44.3144 77.6911 44.3144C77.6911 44.3144 79.3358 45.5864 79.75 46.0007C80.75 47.0007 83.75 50.0007 85.75 50.0007H90.75L93 51.5907L93.5 54.8007C93.5 62.7007 87 69.1007 79.1 69.1007H63.7581C63.5847 68.9906 63.3989 68.8904 63.2 68.8L59.2 67.1L60.1262 61.9217C60.6816 61.567 60.6884 60.8141 60.4846 59.9179ZM64.99 37.0007C65.0045 36.997 65.0163 37.0084 65.0258 37.033C65.0258 37.033 64.9751 37.0044 64.99 37.0007Z" fill="#B6B6B6"/>
</g>
<path d="M46.2216 75.3423L51.7251 77.6677L47.5657 93.4916C47.3101 94.464 47.8162 95.475 48.7478 95.8531C49.6794 96.2313 50.747 95.859 51.2414 94.9836L63.4414 73.3836C63.7201 72.8903 63.7764 72.3019 63.5964 71.7647C63.4164 71.2275 63.017 70.7918 62.4975 70.5659L57.0513 68.198L59.5677 54.3578C59.7435 53.3913 59.1913 52.4403 58.2649 52.1137C57.3384 51.7872 56.312 52.1818 55.8428 53.0448L45.2428 72.5448C44.9732 73.0408 44.9258 73.6276 45.1122 74.1605C45.2986 74.6933 45.7016 75.1226 46.2216 75.3423Z" fill="#FF9D00" stroke="white" stroke-width="4" stroke-linejoin="round"/>
<path d="M33.4884 90.9H33.4H33.3066L33.2139 90.9115C31.8336 91.0841 30.5 92.1835 30.5 93.8C30.5 95.2586 31.7034 96.7 33.4 96.7H33.5884L33.5218 96.8143C33.0258 97.5957 33.0807 98.4856 33.277 99.0743C33.4662 99.6421 33.8505 100.236 34.4679 100.648C35.2125 101.144 36.0679 101.162 36.7386 100.963C37.3843 100.772 38.0417 100.328 38.4147 99.6231L38.4734 99.5225L38.5779 99.7091C39.0633 100.64 40.0978 101.2 41.1 101.2C41.6399 101.2 42.1859 100.984 42.4708 100.842L42.5543 100.8L42.6321 100.748C43.6587 100.064 44.5356 98.4246 43.5853 96.9252L43.4592 96.7H43.7C45.1586 96.7 46.6 95.4965 46.6 93.8C46.6 91.9629 45.0032 91 43.7 91H43.4592L43.5865 90.7725C44.3817 89.505 44.0393 87.5874 42.4712 86.8571C41.098 86.1198 39.417 86.5298 38.6015 87.9491L38.5 88.123L38.3985 87.949C37.6264 86.6059 35.9299 86.043 34.5481 86.9003C33.7903 87.3069 33.3755 87.9301 33.177 88.5256C33.0228 88.9881 33.0492 89.4262 33.0901 89.7121C33.1333 90.0143 33.2141 90.2856 33.277 90.4743L33.3261 90.6216L33.4043 90.7558L33.4884 90.9Z" fill="#00A4D6" stroke="white" stroke-width="3"/>
<path d="M75.4884 90.9H75.4H75.3066L75.2139 90.9115C73.8336 91.0841 72.5 92.1835 72.5 93.8C72.5 95.2586 73.7034 96.7 75.4 96.7H75.5884L75.5218 96.8143C75.0258 97.5957 75.0807 98.4856 75.277 99.0743C75.4662 99.6421 75.8505 100.236 76.4679 100.648C77.2125 101.144 78.0679 101.162 78.7386 100.963C79.3843 100.772 80.0417 100.328 80.4147 99.6231L80.4734 99.5225L80.5779 99.7091C81.0633 100.64 82.0978 101.2 83.1 101.2C83.6399 101.2 84.1859 100.984 84.4708 100.842L84.5543 100.8L84.6321 100.748C85.6587 100.064 86.5356 98.4246 85.5853 96.9252L85.4592 96.7H85.7C87.1586 96.7 88.6 95.4965 88.6 93.8C88.6 91.9629 87.0032 91 85.7 91H85.4592L85.5865 90.7725C86.3817 89.505 86.0393 87.5874 84.4712 86.8571C83.098 86.1198 81.417 86.5298 80.6015 87.9491L80.5 88.123L80.3985 87.949C79.6264 86.6059 77.9299 86.043 76.5481 86.9003C75.7903 87.3069 75.3755 87.9301 75.177 88.5256C75.0228 88.9881 75.0492 89.4262 75.0901 89.7121C75.1333 90.0143 75.2141 90.2856 75.277 90.4743L75.3261 90.6216L75.4043 90.7558L75.4884 90.9Z" fill="#00A4D6" stroke="white" stroke-width="3"/>
<path d="M18.4884 81.9H18.4H18.3066L18.2139 81.9115C16.8336 82.0841 15.5 83.1835 15.5 84.8C15.5 86.2586 16.7034 87.7 18.4 87.7H18.5884L18.5218 87.8143C18.0258 88.5957 18.0807 89.4856 18.277 90.0743C18.4662 90.6421 18.8505 91.2364 19.4679 91.648C20.2125 92.1444 21.0679 92.1619 21.7386 91.9632C22.3843 91.7718 23.0417 91.3282 23.4147 90.6231L23.4734 90.5225L23.5779 90.7091C24.0633 91.6395 25.0978 92.2 26.1 92.2C26.6399 92.2 27.1859 91.9841 27.4708 91.8416L27.5543 91.7998L27.6321 91.748C28.6587 91.0636 29.5356 89.4246 28.5853 87.9252L28.4592 87.7H28.7C30.1586 87.7 31.6 86.4965 31.6 84.8C31.6 82.9629 30.0032 82 28.7 82H28.4592L28.5865 81.7725C29.3817 80.505 29.0393 78.5874 27.4712 77.8571C26.098 77.1198 24.417 77.5298 23.6015 78.9491L23.5 79.123L23.3985 78.949C22.6264 77.6059 20.9299 77.043 19.5481 77.9003C18.7903 78.3069 18.3755 78.9301 18.177 79.5256C18.0228 79.9881 18.0492 80.4262 18.0901 80.7121C18.1333 81.0143 18.2141 81.2856 18.277 81.4743L18.3261 81.6216L18.4043 81.7558L18.4884 81.9Z" fill="#00A4D6" stroke="white" stroke-width="3"/>
<path d="M88.4884 81.9H88.4H88.3066L88.2139 81.9115C86.8336 82.0841 85.5 83.1835 85.5 84.8C85.5 86.2586 86.7034 87.7 88.4 87.7H88.5884L88.5218 87.8143C88.0258 88.5957 88.0807 89.4856 88.277 90.0743C88.4662 90.6421 88.8505 91.2364 89.4679 91.648C90.2125 92.1444 91.0679 92.1619 91.7386 91.9632C92.3843 91.7718 93.0417 91.3282 93.4147 90.6231L93.4734 90.5225L93.5779 90.7091C94.0633 91.6395 95.0978 92.2 96.1 92.2C96.6399 92.2 97.1859 91.9841 97.4708 91.8416L97.5543 91.7998L97.6321 91.748C98.6587 91.0636 99.5356 89.4246 98.5853 87.9252L98.4592 87.7H98.7C100.159 87.7 101.6 86.4965 101.6 84.8C101.6 82.9629 100.003 82 98.7 82H98.4592L98.5865 81.7725C99.3817 80.505 99.0393 78.5874 97.4712 77.8571C96.098 77.1198 94.417 77.5298 93.6015 78.9491L93.5 79.123L93.3985 78.949C92.6264 77.6059 90.9299 77.043 89.5481 77.9003C88.7903 78.3069 88.3755 78.9301 88.177 79.5256C88.0228 79.9881 88.0492 80.4262 88.0901 80.7121C88.1333 81.0143 88.2141 81.2856 88.277 81.4743L88.3261 81.6216L88.4043 81.7558L88.4884 81.9Z" fill="#00A4D6" stroke="white" stroke-width="3"/>
<path d="M60.4884 81.9H60.4H60.3066L60.2139 81.9115C58.8336 82.0841 57.5 83.1835 57.5 84.8C57.5 86.2586 58.7034 87.7 60.4 87.7H60.5884L60.5218 87.8143C60.0258 88.5957 60.0807 89.4856 60.277 90.0743C60.4662 90.6421 60.8505 91.2364 61.4679 91.648C62.2125 92.1444 63.0679 92.1619 63.7386 91.9632C64.3843 91.7718 65.0417 91.3282 65.4147 90.6231L65.4734 90.5225L65.5779 90.7091C66.0633 91.6395 67.0978 92.2 68.1 92.2C68.6399 92.2 69.1859 91.9841 69.4708 91.8416L69.5543 91.7998L69.6321 91.748C70.6587 91.0636 71.5356 89.4246 70.5853 87.9252L70.4592 87.7H70.7C72.1586 87.7 73.6 86.4965 73.6 84.8C73.6 82.9629 72.0032 82 70.7 82H70.4592L70.5865 81.7725C71.3817 80.505 71.0393 78.5874 69.4712 77.8571C68.098 77.1198 66.417 77.5298 65.6015 78.9491L65.5 79.123L65.3985 78.949C64.6264 77.6059 62.9299 77.043 61.5481 77.9003C60.7903 78.3069 60.3755 78.9301 60.177 79.5256C60.0228 79.9881 60.0492 80.4262 60.0901 80.7121C60.1333 81.0143 60.2141 81.2856 60.277 81.4743L60.3261 81.6216L60.4043 81.7558L60.4884 81.9Z" fill="#00A4D6" stroke="white" stroke-width="3"/>
<defs>
<filter id="filter0_f_1965_5020" x="15.5" y="30" width="85" height="46.1006" filterUnits="userSpaceOnUse" color-interpolation-filters="sRGB">
<feFlood flood-opacity="0" result="BackgroundImageFix"/>
<feBlend mode="normal" in="SourceGraphic" in2="BackgroundImageFix" result="shape"/>
<feGaussianBlur stdDeviation="3.5" result="effect1_foregroundBlur_1965_5020"/>
</filter>
<radialGradient id="paint0_radial_1965_5020" cx="0" cy="0" r="1" gradientUnits="userSpaceOnUse" gradientTransform="translate(34 21.0001) scale(27.88)">
<stop offset="0.5143" stop-color="#D6B849"/>
<stop offset="0.6523" stop-color="#FFCE47"/>
<stop offset="1" stop-color="#FFDB73"/>
</radialGradient>
<linearGradient id="paint1_linear_1965_5020" x1="24.8171" y1="10.0572" x2="43.1767" y2="31.9373" gradientUnits="userSpaceOnUse">
<stop stop-color="#FFAF22"/>
<stop offset="0.9897" stop-color="#F09900"/>
</linearGradient>
<linearGradient id="paint2_linear_1965_5020" x1="51.5" y1="38.5" x2="53.5" y2="71.1" gradientUnits="userSpaceOnUse">
<stop offset="0.484375" stop-color="white" stop-opacity="0"/>
<stop offset="1" stop-color="#B3B2B2"/>
</linearGradient>
</defs>
</svg>
