<svg width="106" height="109" viewBox="0 0 106 109" fill="none" xmlns="http://www.w3.org/2000/svg">
<path d="M31.5415 8.92676C33.3268 12.0511 34.4427 15.6963 34.4427 19.5646C34.4427 31.3182 24.9207 40.8402 13.1671 40.8402C12.2 40.8402 11.3073 40.7658 10.4146 40.617C14.1342 47.0146 20.9781 51.3292 28.789 51.3292C40.5427 51.3292 50.0646 41.8072 50.0646 30.0536C50.0646 19.1926 42.0305 10.2658 31.5415 8.92676Z" fill="url(#paint0_linear_1965_5021)"/>
<path d="M65.4972 77.8216L65.9917 79.1H67.3625H83.6C92.5864 79.1 100 71.8227 100 62.8C100 55.73 95.4681 49.5618 89.0335 47.3354C86.4768 35.6911 75.9526 27 63.7 27C54.4299 27 46.0102 31.8893 41.4313 39.6938C40.5454 39.488 39.6662 39.4 38.8 39.4C34.3287 39.4 30.3727 41.7859 28.3647 45.5016C28.2209 45.5 28.0815 45.5 27.9457 45.5L27.9 45.5C23.2669 45.5 18.9446 47.3137 15.7612 50.6108L15.7603 50.6117C12.7172 53.7676 11 57.8591 11 62.2V62.4V62.4244L11.0006 62.4488C11.1126 67.0424 12.9106 71.2533 16.2111 74.3395C19.2961 77.4108 23.4992 79.1 27.9 79.1H45.7718H46.961L47.529 78.0552L57.8572 59.0552L57.8609 59.0482C58.2062 58.407 58.9232 58 59.6 58C59.6545 58 59.7502 58.0111 59.9056 58.0889L59.9886 58.1304L60.0751 58.164C61.0948 58.5605 61.6133 59.5783 61.4429 60.388L61.4366 60.4178L61.4312 60.4479L59.2312 72.7479L58.9506 74.3171L60.4177 74.9407L64.392 76.6297C64.9509 76.8886 65.2752 77.2478 65.4972 77.8216Z" fill="#999999" stroke="#606E7C" stroke-width="4"/>
<g opacity="0.6">
<path fill-rule="evenodd" clip-rule="evenodd" d="M63.7 29C75.4 29 85.4 37.6 87.3 48.9C93.5 50.5 98 56.2 98 62.8C98 70.7 91.5 77.1 83.6 77.1H67.3625C66.9568 76.0514 66.2664 75.2847 65.2 74.8L61.2 73.1L63.4 60.8C63.8 58.9 62.6 57 60.8 56.3C60.4 56.1 60 56 59.6 56C58.2 56 56.8 56.8 56.1 58.1L45.7718 77.1H27.9C24 77.1 20.3 75.6 17.6 72.9C14.7 70.2 13.1 66.5 13 62.4V62.2C13 58.4 14.5 54.8 17.2 52C20 49.1 23.8 47.5 27.9 47.5C28.5 47.5 29 47.5 29.6 47.6C31 43.9 34.6 41.4 38.8 41.4C40 41.4 41.2 41.6 42.4 42.1C46.4 34.1 54.6 29 63.7 29Z" fill="url(#paint1_linear_1965_5021)" style="mix-blend-mode:multiply"/>
</g>
<g style="mix-blend-mode:multiply" opacity="0.3" filter="url(#filter0_f_1965_5021)">
<path fill-rule="evenodd" clip-rule="evenodd" d="M50.0731 69.1873C43.4845 69.6367 36.4547 70 35.5 70C29 70 24.5 75.1007 24.5 75.1007H46.8586L50.0731 69.1873ZM62.4846 65.9179L63.4 60.8C63.4512 60.5569 63.4762 60.3139 63.4771 60.0733C64.1252 59.834 64.6465 59.6032 64.6465 59.6032C64.6465 59.6032 68.9994 58.0007 69.75 58.0007C70.5006 58.0007 70.1244 55.0375 69.8901 53.1913L69.8901 53.1913L69.75 51.8707C69.75 51.509 69.3022 50.9861 68.7496 50.3407C67.9726 49.4334 66.9884 48.284 66.75 47.0007C66.5753 46.0605 66.7764 44.9193 66.9222 44.0915C67.0132 43.5748 67.0827 43.1802 67.0258 43.033C67.1384 43.0858 67.9481 43.3602 67.9481 43.3602C69.8959 44.0203 72.9771 45.0993 75.75 47.0007C77.4084 48.1378 79.6911 50.3144 79.6911 50.3144C79.6911 50.3144 81.3358 51.5864 81.75 52.0007C82.75 53.0007 85.75 56.0007 87.75 56.0007H92.75L95 57.5907L95.5 60.8007C95.5 68.7007 89 75.1007 81.1 75.1007H65.7581C65.5847 74.9906 65.3989 74.8904 65.2 74.8L61.2 73.1L62.1262 67.9217C62.6816 67.567 62.6884 66.8141 62.4846 65.9179ZM66.99 43.0007C67.0045 42.997 67.0163 43.0084 67.0258 43.033C67.0258 43.033 66.9751 43.0044 66.99 43.0007Z" fill="#B6B6B6"/>
</g>
<path d="M48.2216 81.3423L53.7251 83.6677L49.5657 99.4916C49.3101 100.464 49.8162 101.475 50.7478 101.853C51.6794 102.231 52.747 101.859 53.2414 100.984L65.4414 79.3836C65.7201 78.8903 65.7764 78.3019 65.5964 77.7647C65.4164 77.2275 65.017 76.7918 64.4975 76.5659L59.0513 74.198L61.5677 60.3578C61.7435 59.3913 61.1913 58.4403 60.2649 58.1137C59.3384 57.7872 58.312 58.1818 57.8428 59.0448L47.2428 78.5448C46.9732 79.0408 46.9258 79.6276 47.1122 80.1605C47.2986 80.6933 47.7016 81.1226 48.2216 81.3423Z" fill="#FF9D00" stroke="white" stroke-width="4" stroke-linejoin="round"/>
<path d="M35.4884 96.9H35.4H35.3066L35.2139 96.9115C33.8336 97.0841 32.5 98.1835 32.5 99.8C32.5 101.259 33.7034 102.7 35.4 102.7H35.5884L35.5218 102.814C35.0258 103.596 35.0807 104.486 35.277 105.074C35.4662 105.642 35.8505 106.236 36.4679 106.648C37.2125 107.144 38.0679 107.162 38.7386 106.963C39.3843 106.772 40.0417 106.328 40.4147 105.623L40.4734 105.522L40.5779 105.709C41.0633 106.64 42.0978 107.2 43.1 107.2C43.6399 107.2 44.1859 106.984 44.4708 106.842L44.5543 106.8L44.6321 106.748C45.6587 106.064 46.5356 104.425 45.5853 102.925L45.4592 102.7H45.7C47.1586 102.7 48.6 101.497 48.6 99.8C48.6 97.9629 47.0032 97 45.7 97H45.4592L45.5865 96.7725C46.3817 95.505 46.0393 93.5874 44.4712 92.8571C43.098 92.1198 41.417 92.5298 40.6015 93.9491L40.5 94.123L40.3985 93.949C39.6264 92.6059 37.9299 92.043 36.5481 92.9003C35.7903 93.3069 35.3755 93.9301 35.177 94.5256C35.0228 94.9881 35.0492 95.4262 35.0901 95.7121C35.1333 96.0143 35.2141 96.2856 35.277 96.4743L35.3261 96.6216L35.4043 96.7558L35.4884 96.9Z" fill="#00A4D6" stroke="white" stroke-width="3"/>
<path d="M77.4884 96.9H77.4H77.3066L77.2139 96.9115C75.8336 97.0841 74.5 98.1835 74.5 99.8C74.5 101.259 75.7034 102.7 77.4 102.7H77.5884L77.5218 102.814C77.0258 103.596 77.0807 104.486 77.277 105.074C77.4662 105.642 77.8505 106.236 78.4679 106.648C79.2125 107.144 80.0679 107.162 80.7386 106.963C81.3843 106.772 82.0417 106.328 82.4147 105.623L82.4734 105.522L82.5779 105.709C83.0633 106.64 84.0978 107.2 85.1 107.2C85.6399 107.2 86.1859 106.984 86.4708 106.842L86.5543 106.8L86.6321 106.748C87.6587 106.064 88.5356 104.425 87.5853 102.925L87.4592 102.7H87.7C89.1586 102.7 90.6 101.497 90.6 99.8C90.6 97.9629 89.0032 97 87.7 97H87.4592L87.5865 96.7725C88.3817 95.505 88.0393 93.5874 86.4712 92.8571C85.098 92.1198 83.417 92.5298 82.6015 93.9491L82.5 94.123L82.3985 93.949C81.6264 92.6059 79.9299 92.043 78.5481 92.9003C77.7903 93.3069 77.3755 93.9301 77.177 94.5256C77.0228 94.9881 77.0492 95.4262 77.0901 95.7121C77.1333 96.0143 77.2141 96.2856 77.277 96.4743L77.3261 96.6216L77.4043 96.7558L77.4884 96.9Z" fill="#00A4D6" stroke="white" stroke-width="3"/>
<path d="M20.4884 87.9H20.4H20.3066L20.2139 87.9115C18.8336 88.0841 17.5 89.1835 17.5 90.8C17.5 92.2586 18.7034 93.7 20.4 93.7H20.5884L20.5218 93.8143C20.0258 94.5957 20.0807 95.4856 20.277 96.0743C20.4662 96.6421 20.8505 97.2364 21.4679 97.648C22.2125 98.1444 23.0679 98.1619 23.7386 97.9632C24.3843 97.7718 25.0417 97.3282 25.4147 96.6231L25.4734 96.5225L25.5779 96.7091C26.0633 97.6395 27.0978 98.2 28.1 98.2C28.6399 98.2 29.1859 97.9841 29.4708 97.8416L29.5543 97.7998L29.6321 97.748C30.6587 97.0636 31.5356 95.4246 30.5853 93.9252L30.4592 93.7H30.7C32.1586 93.7 33.6 92.4965 33.6 90.8C33.6 88.9629 32.0032 88 30.7 88H30.4592L30.5865 87.7725C31.3817 86.505 31.0393 84.5874 29.4712 83.8571C28.098 83.1198 26.417 83.5298 25.6015 84.9491L25.5 85.123L25.3985 84.949C24.6264 83.6059 22.9299 83.043 21.5481 83.9003C20.7903 84.3069 20.3755 84.9301 20.177 85.5256C20.0228 85.9881 20.0492 86.4262 20.0901 86.7121C20.1333 87.0143 20.2141 87.2856 20.277 87.4743L20.3261 87.6216L20.4043 87.7558L20.4884 87.9Z" fill="#00A4D6" stroke="white" stroke-width="3"/>
<path d="M90.4884 87.9H90.4H90.3066L90.2139 87.9115C88.8336 88.0841 87.5 89.1835 87.5 90.8C87.5 92.2586 88.7034 93.7 90.4 93.7H90.5884L90.5218 93.8143C90.0258 94.5957 90.0807 95.4856 90.277 96.0743C90.4662 96.6421 90.8505 97.2364 91.4679 97.648C92.2125 98.1444 93.0679 98.1619 93.7386 97.9632C94.3843 97.7718 95.0417 97.3282 95.4147 96.6231L95.4734 96.5225L95.5779 96.7091C96.0633 97.6395 97.0978 98.2 98.1 98.2C98.6399 98.2 99.1859 97.9841 99.4708 97.8416L99.5543 97.7998L99.6321 97.748C100.659 97.0636 101.536 95.4246 100.585 93.9252L100.459 93.7H100.7C102.159 93.7 103.6 92.4965 103.6 90.8C103.6 88.9629 102.003 88 100.7 88H100.459L100.587 87.7725C101.382 86.505 101.039 84.5874 99.4712 83.8571C98.098 83.1198 96.417 83.5298 95.6015 84.9491L95.5 85.123L95.3985 84.949C94.6264 83.6059 92.9299 83.043 91.5481 83.9003C90.7903 84.3069 90.3755 84.9301 90.177 85.5256C90.0228 85.9881 90.0492 86.4262 90.0901 86.7121C90.1333 87.0143 90.2141 87.2856 90.277 87.4743L90.3261 87.6216L90.4043 87.7558L90.4884 87.9Z" fill="#00A4D6" stroke="white" stroke-width="3"/>
<path d="M62.4884 87.9H62.4H62.3066L62.2139 87.9115C60.8336 88.0841 59.5 89.1835 59.5 90.8C59.5 92.2586 60.7034 93.7 62.4 93.7H62.5884L62.5218 93.8143C62.0258 94.5957 62.0807 95.4856 62.277 96.0743C62.4662 96.6421 62.8505 97.2364 63.4679 97.648C64.2125 98.1444 65.0679 98.1619 65.7386 97.9632C66.3843 97.7718 67.0417 97.3282 67.4147 96.6231L67.4734 96.5225L67.5779 96.7091C68.0633 97.6395 69.0978 98.2 70.1 98.2C70.6399 98.2 71.1859 97.9841 71.4708 97.8416L71.5543 97.7998L71.6321 97.748C72.6587 97.0636 73.5356 95.4246 72.5853 93.9252L72.4592 93.7H72.7C74.1586 93.7 75.6 92.4965 75.6 90.8C75.6 88.9629 74.0032 88 72.7 88H72.4592L72.5865 87.7725C73.3817 86.505 73.0393 84.5874 71.4712 83.8571C70.098 83.1198 68.417 83.5298 67.6015 84.9491L67.5 85.123L67.3985 84.949C66.6264 83.6059 64.9299 83.043 63.5481 83.9003C62.7903 84.3069 62.3755 84.9301 62.177 85.5256C62.0228 85.9881 62.0492 86.4262 62.0901 86.7121C62.1333 87.0143 62.2141 87.2856 62.277 87.4743L62.3261 87.6216L62.4043 87.7558L62.4884 87.9Z" fill="#00A4D6" stroke="white" stroke-width="3"/>
<defs>
<filter id="filter0_f_1965_5021" x="17.5" y="36" width="85" height="46.1006" filterUnits="userSpaceOnUse" color-interpolation-filters="sRGB">
<feFlood flood-opacity="0" result="BackgroundImageFix"/>
<feBlend mode="normal" in="SourceGraphic" in2="BackgroundImageFix" result="shape"/>
<feGaussianBlur stdDeviation="3.5" result="effect1_foregroundBlur_1965_5021"/>
</filter>
<linearGradient id="paint0_linear_1965_5021" x1="18.9138" y1="49.4636" x2="46.2563" y2="16.8781" gradientUnits="userSpaceOnUse">
<stop stop-color="#686E73"/>
<stop offset="0.9891" stop-color="#6A7075"/>
</linearGradient>
<linearGradient id="paint1_linear_1965_5021" x1="53.5" y1="44.5" x2="55.5" y2="77.1" gradientUnits="userSpaceOnUse">
<stop offset="0.484375" stop-color="white" stop-opacity="0"/>
<stop offset="1" stop-color="#B3B2B2"/>
</linearGradient>
</defs>
</svg>
