<svg width="100" height="102" viewBox="0 0 100 102" fill="none" xmlns="http://www.w3.org/2000/svg">
<path d="M59.4972 71.8216L59.9917 73.1H61.3625H77.6C86.5864 73.1 94 65.8227 94 56.8C94 49.73 89.4681 43.5618 83.0335 41.3354C80.4768 29.6911 69.9526 21 57.7 21C48.4299 21 40.0102 25.8893 35.4313 33.6938C34.5454 33.488 33.6662 33.4 32.8 33.4C28.3287 33.4 24.3727 35.7859 22.3647 39.5016C22.2209 39.5 22.0815 39.5 21.9457 39.5L21.9 39.5C17.2669 39.5 12.9446 41.3137 9.7612 44.6108L9.76031 44.6117C6.71717 47.7676 5 51.8591 5 56.2V56.4V56.4244L5.00059 56.4488C5.11263 61.0424 6.91061 65.2533 10.2111 68.3395C13.2961 71.4108 17.4992 73.1 21.9 73.1H39.7718H40.961L41.529 72.0552L51.8572 53.0552L51.8609 53.0482C52.2062 52.407 52.9232 52 53.6 52C53.6545 52 53.7502 52.0111 53.9056 52.0889L53.9886 52.1304L54.0751 52.164C55.0948 52.5605 55.6133 53.5783 55.4429 54.388L55.4366 54.4178L55.4312 54.4479L53.2312 66.7479L52.9506 68.3171L54.4177 68.9407L58.392 70.6297C58.9509 70.8886 59.2752 71.2478 59.4972 71.8216Z" fill="#999999" stroke="#606E7C" stroke-width="4"/>
<g opacity="0.6">
<path fill-rule="evenodd" clip-rule="evenodd" d="M57.7 23C69.4 23 79.4 31.6 81.3 42.9C87.5 44.5 92 50.2 92 56.8C92 64.7 85.5 71.1 77.6 71.1H61.3625C60.9568 70.0514 60.2664 69.2847 59.2 68.8L55.2 67.1L57.4 54.8C57.8 52.9 56.6 51 54.8 50.3C54.4 50.1 54 50 53.6 50C52.2 50 50.8 50.8 50.1 52.1L39.7718 71.1H21.9C18 71.1 14.3 69.6 11.6 66.9C8.7 64.2 7.1 60.5 7 56.4V56.2C7 52.4 8.5 48.8 11.2 46C14 43.1 17.8 41.5 21.9 41.5C22.5 41.5 23 41.5 23.6 41.6C25 37.9 28.6 35.4 32.8 35.4C34 35.4 35.2 35.6 36.4 36.1C40.4 28.1 48.6 23 57.7 23Z" fill="url(#paint0_linear_1965_5023)" style="mix-blend-mode:multiply"/>
</g>
<g style="mix-blend-mode:multiply" opacity="0.3" filter="url(#filter0_f_1965_5023)">
<path fill-rule="evenodd" clip-rule="evenodd" d="M44.0731 63.1873C37.4845 63.6367 30.4547 64 29.5 64C23 64 18.5 69.1007 18.5 69.1007H40.8586L44.0731 63.1873ZM56.4846 59.9179L57.4 54.8C57.4512 54.5569 57.4762 54.3139 57.4771 54.0733C58.1252 53.834 58.6465 53.6032 58.6465 53.6032C58.6465 53.6032 62.9994 52.0007 63.75 52.0007C64.5006 52.0007 64.1244 49.0375 63.8901 47.1913L63.8901 47.1913L63.75 45.8707C63.75 45.509 63.3022 44.9861 62.7496 44.3407C61.9726 43.4334 60.9884 42.284 60.75 41.0007C60.5753 40.0605 60.7764 38.9193 60.9222 38.0915C61.0132 37.5748 61.0827 37.1802 61.0258 37.033C61.1384 37.0858 61.9481 37.3602 61.9481 37.3602C63.8959 38.0203 66.9771 39.0993 69.75 41.0007C71.4084 42.1378 73.6911 44.3144 73.6911 44.3144C73.6911 44.3144 75.3358 45.5864 75.75 46.0007C76.75 47.0007 79.75 50.0007 81.75 50.0007H86.75L89 51.5907L89.5 54.8007C89.5 62.7007 83 69.1007 75.1 69.1007H59.7581C59.5847 68.9906 59.3989 68.8904 59.2 68.8L55.2 67.1L56.1262 61.9217C56.6816 61.567 56.6884 60.8141 56.4846 59.9179ZM60.99 37.0007C61.0045 36.997 61.0163 37.0084 61.0258 37.033C61.0258 37.033 60.9751 37.0044 60.99 37.0007Z" fill="#B6B6B6"/>
</g>
<path d="M42.2216 75.3423L47.7251 77.6677L43.5657 93.4916C43.3101 94.464 43.8162 95.475 44.7478 95.8531C45.6794 96.2313 46.747 95.859 47.2414 94.9836L59.4414 73.3836C59.7201 72.8903 59.7764 72.3019 59.5964 71.7647C59.4164 71.2275 59.017 70.7918 58.4975 70.5659L53.0513 68.198L55.5677 54.3578C55.7435 53.3913 55.1913 52.4403 54.2649 52.1137C53.3384 51.7872 52.312 52.1818 51.8428 53.0448L41.2428 72.5448C40.9732 73.0408 40.9258 73.6276 41.1122 74.1605C41.2986 74.6933 41.7016 75.1226 42.2216 75.3423Z" fill="#FF9D00" stroke="white" stroke-width="4" stroke-linejoin="round"/>
<path d="M16.4884 80.9H16.4H16.3066L16.2139 80.9115C14.8336 81.0841 13.5 82.1835 13.5 83.8C13.5 85.2586 14.7034 86.7 16.4 86.7H16.5884L16.5218 86.8143C16.0258 87.5957 16.0807 88.4856 16.277 89.0743C16.4662 89.6421 16.8505 90.2364 17.4679 90.648C18.2125 91.1444 19.0679 91.1619 19.7386 90.9632C20.3843 90.7718 21.0417 90.3282 21.4147 89.6231L21.4734 89.5225L21.5779 89.7091C22.0633 90.6395 23.0978 91.2 24.1 91.2C24.6399 91.2 25.1859 90.9841 25.4708 90.8416L25.5543 90.7998L25.6321 90.748C26.6587 90.0636 27.5356 88.4246 26.5853 86.9252L26.4592 86.7H26.7C28.1586 86.7 29.6 85.4965 29.6 83.8C29.6 81.9629 28.0032 81 26.7 81H26.4592L26.5865 80.7725C27.3817 79.505 27.0393 77.5874 25.4712 76.8571C24.098 76.1198 22.417 76.5298 21.6015 77.9491L21.5 78.123L21.3985 77.949C20.6264 76.6059 18.9299 76.043 17.5481 76.9003C16.7903 77.3069 16.3755 77.9301 16.177 78.5256C16.0228 78.9881 16.0492 79.4262 16.0901 79.7121C16.1333 80.0143 16.2141 80.2856 16.277 80.4743L16.3261 80.6216L16.4043 80.7558L16.4884 80.9Z" fill="#00A4D6" stroke="white" stroke-width="3"/>
<path d="M67.4884 89.9H67.4H67.3066L67.2139 89.9115C65.8336 90.0841 64.5 91.1835 64.5 92.8C64.5 94.2586 65.7034 95.7 67.4 95.7H67.5884L67.5218 95.8143C67.0258 96.5957 67.0807 97.4856 67.277 98.0743C67.4662 98.6421 67.8505 99.2364 68.4679 99.648C69.2125 100.144 70.0679 100.162 70.7386 99.9632C71.3843 99.7718 72.0417 99.3282 72.4147 98.6231L72.4734 98.5225L72.5779 98.7091C73.0633 99.6395 74.0978 100.2 75.1 100.2C75.6399 100.2 76.1859 99.9841 76.4708 99.8416L76.5543 99.7998L76.6321 99.748C77.6587 99.0636 78.5356 97.4246 77.5853 95.9252L77.4592 95.7H77.7C79.1586 95.7 80.6 94.4965 80.6 92.8C80.6 90.9629 79.0032 90 77.7 90H77.4592L77.5865 89.7725C78.3817 88.505 78.0393 86.5874 76.4712 85.8571C75.098 85.1198 73.417 85.5298 72.6015 86.9491L72.5 87.123L72.3985 86.949C71.6264 85.6059 69.9299 85.043 68.5481 85.9003C67.7903 86.3069 67.3755 86.9301 67.177 87.5256C67.0228 87.9881 67.0492 88.4262 67.0901 88.7121C67.1333 89.0143 67.2141 89.2856 67.277 89.4743L67.3261 89.6216L67.4043 89.7558L67.4884 89.9Z" fill="#00A4D6" stroke="white" stroke-width="3"/>
<path d="M84.8714 93.162L84.9468 93.1968L85.0257 93.2231C85.3672 93.3369 85.9528 93.5 86.5 93.5C88.0151 93.5 89.518 92.7142 90.1828 91.0817L93.6742 83.1013L93.6878 83.0702L93.7 83.0385C94.464 81.052 93.6952 78.7919 91.6286 77.8381L91.5841 77.8176L91.5385 77.8C89.552 77.036 87.2919 77.8048 86.3381 79.8714L86.3318 79.8851L86.3258 79.8988L82.8258 87.8988L82.8122 87.9299L82.8 87.9616C82.036 89.948 82.8048 92.2081 84.8714 93.162Z" fill="#006EDB" stroke="white" stroke-width="3"/>
<path d="M56.8714 93.162L56.9468 93.1968L57.0257 93.2231C57.3672 93.3369 57.9528 93.5 58.5 93.5C60.0151 93.5 61.518 92.7142 62.1828 91.0817L65.6742 83.1013L65.6878 83.0702L65.7 83.0385C66.464 81.052 65.6952 78.7919 63.6286 77.8381L63.5841 77.8176L63.5385 77.8C61.552 77.036 59.2919 77.8048 58.3381 79.8714L58.3318 79.8851L58.3258 79.8988L54.8258 87.8988L54.8122 87.9299L54.8 87.9616C54.036 89.948 54.8048 92.2081 56.8714 93.162Z" fill="#006EDB" stroke="white" stroke-width="3"/>
<path d="M31.8714 100.162L31.9468 100.197L32.0257 100.223C32.3672 100.337 32.9528 100.5 33.5 100.5C35.0151 100.5 36.518 99.7142 37.1828 98.0817L40.6742 90.1013L40.6878 90.0702L40.7 90.0385C41.464 88.052 40.6952 85.7919 38.6286 84.8381L38.5841 84.8176L38.5385 84.8C36.552 84.036 34.2919 84.8048 33.3381 86.8714L33.3318 86.8851L33.3258 86.8988L29.8258 94.8988L29.8122 94.9299L29.8 94.9616C29.036 96.948 29.8048 99.2081 31.8714 100.162Z" fill="#006EDB" stroke="white" stroke-width="3"/>
<defs>
<filter id="filter0_f_1965_5023" x="11.5" y="30" width="85" height="46.1006" filterUnits="userSpaceOnUse" color-interpolation-filters="sRGB">
<feFlood flood-opacity="0" result="BackgroundImageFix"/>
<feBlend mode="normal" in="SourceGraphic" in2="BackgroundImageFix" result="shape"/>
<feGaussianBlur stdDeviation="3.5" result="effect1_foregroundBlur_1965_5023"/>
</filter>
<linearGradient id="paint0_linear_1965_5023" x1="47.5" y1="38.5" x2="49.5" y2="71.1" gradientUnits="userSpaceOnUse">
<stop offset="0.484375" stop-color="white" stop-opacity="0"/>
<stop offset="1" stop-color="#B3B2B2"/>
</linearGradient>
</defs>
</svg>
