<svg width="104" height="102" viewBox="0 0 104 102" fill="none" xmlns="http://www.w3.org/2000/svg">
<mask id="mask0_1965_5035" style="mask-type:alpha" maskUnits="userSpaceOnUse" x="-4" y="21" width="82" height="41">
<rect x="-4" y="21" width="82" height="41" fill="#C4C4C4"/>
</mask>
<g mask="url(#mask0_1965_5035)">
<path d="M51.408 25.6921L61.88 21.0001L51.408 16.3761L58.072 7.06012L46.716 8.28412L47.872 -3.13988L38.624 3.59212L34 -6.87988L29.376 3.59212L20.06 -3.13988L21.284 8.21612L9.86 7.06012L16.592 16.3081L6.12 21.0001L16.592 25.6241L9.86 34.9401L21.216 33.7161L20.06 45.1401L29.308 38.4081L34 48.8801L38.624 38.4081L47.94 45.0721L46.716 33.7161L58.14 34.8721L51.408 25.6921Z" fill="url(#paint0_radial_1965_5035)" stroke="#C37F0E" stroke-width="3"/>
<path d="M19.2328 29.5059C23.926 37.6035 34.3327 40.3935 42.4948 35.7663C50.657 31.139 53.3777 20.6598 48.7525 12.4941C44.0593 4.39646 33.6525 1.60651 25.4904 6.23373C17.3963 10.929 14.6076 21.4083 19.2328 29.5059Z" fill="#FFD348"/>
<path d="M21.6236 28.1358C25.5668 34.9344 34.3369 37.3139 41.1355 33.3707C47.934 29.4275 50.3135 20.6574 46.3704 13.8588C42.4272 7.06021 33.6571 4.68071 26.8585 8.62388C20.0599 12.5671 17.6804 21.3372 21.6236 28.1358Z" fill="url(#paint1_linear_1965_5035)"/>
</g>
<line x1="5.5" y1="19.5" x2="62.5" y2="19.5" stroke="#21292B" stroke-width="3" stroke-linecap="round"/>
<path d="M13.7612 44.6108L13.7603 44.6117C10.7172 47.7676 9 51.8591 9 56.2V56.4V56.4244L9.00059 56.4488C9.11263 61.0423 10.9106 65.2533 14.211 68.3394C17.2961 71.4108 21.4992 73.1 25.9 73.1H81.6C90.5864 73.1 98 65.8227 98 56.8C98 49.73 93.4681 43.5618 87.0335 41.3354C84.4768 29.6911 73.9526 21 61.7 21C52.4299 21 44.0102 25.8893 39.4313 33.6938C38.5454 33.488 37.6662 33.4 36.8 33.4C32.3287 33.4 28.3727 35.7859 26.3647 39.5016C26.2209 39.5 26.0815 39.5 25.9457 39.5L25.9 39.5C21.2669 39.5 16.9446 41.3137 13.7612 44.6108Z" fill="#CCCCCC" stroke="#606E7C" stroke-width="4"/>
<g opacity="0.6">
<path fill-rule="evenodd" clip-rule="evenodd" d="M85.3 42.9C83.4 31.6 73.4 23 61.7 23C52.6 23 44.4 28.1 40.4 36.1C39.2 35.6 38 35.4 36.8 35.4C32.6 35.4 29 37.9 27.6 41.6C27 41.5 26.5 41.5 25.9 41.5C21.8 41.5 18 43.1 15.2 46C12.5 48.8 11 52.4 11 56.2V56.4C11.1 60.5 12.7 64.2 15.6 66.9C18.3 69.6 22 71.1 25.9 71.1H81.6C89.5 71.1 96 64.7 96 56.8C96 50.2 91.5 44.5 85.3 42.9Z" fill="url(#paint2_linear_1965_5035)" style="mix-blend-mode:multiply"/>
</g>
<g style="mix-blend-mode:multiply" opacity="0.3" filter="url(#filter0_f_1965_5035)">
<path d="M33.5 64C35.2867 64 58.3482 62.7276 59.98 62C62.2101 61.0057 57.5895 55.0283 59.98 54.5307C61.0594 54.306 62.6465 53.6032 62.6465 53.6032C62.6465 53.6032 66.9994 52.0007 67.75 52.0007C68.5006 52.0007 68.1244 49.0374 67.8901 47.1913L67.75 45.8707C67.75 45.0007 65.158 43.1968 64.75 41.0007C64.4663 39.4736 65.1738 37.416 65.0258 37.033C65.0258 37.033 64.9751 37.0044 64.99 37.0007C65.0045 36.997 65.0163 37.0084 65.0258 37.033C65.1384 37.0858 65.9481 37.3602 65.9481 37.3602C67.8959 38.0203 70.9771 39.0993 73.75 41.0007C75.4084 42.1378 77.6911 44.3144 77.6911 44.3144C77.6911 44.3144 79.3358 45.5864 79.75 46.0007C80.75 47.0007 83.75 50.0007 85.75 50.0007H90.75L93 51.5907L93.5 54.8007C93.5 62.7007 87 69.1007 79.1 69.1007H22.5C22.5 69.1007 27 64 33.5 64Z" fill="#B6B6B6"/>
</g>
<path d="M37.8714 100.162L37.9468 100.197L38.0257 100.223C38.3672 100.337 38.9528 100.5 39.5 100.5C41.0151 100.5 42.518 99.7142 43.1828 98.0817L46.6742 90.1013L46.6878 90.0702L46.7 90.0385C47.464 88.052 46.6952 85.7919 44.6286 84.8381L44.5841 84.8176L44.5385 84.8C42.552 84.036 40.2919 84.8048 39.3381 86.8714L39.3318 86.8851L39.3258 86.8988L35.8258 94.8988L35.8122 94.9299L35.8 94.9616C35.036 96.948 35.8048 99.2081 37.8714 100.162Z" fill="#006EDB" stroke="white" stroke-width="3"/>
<path d="M61.8714 91.162L61.9468 91.1968L62.0257 91.2231C62.3672 91.3369 62.9528 91.5 63.5 91.5C65.0151 91.5 66.518 90.7142 67.1828 89.0817L70.6742 81.1013L70.6878 81.0702L70.7 81.0385C71.464 79.052 70.6952 76.7919 68.6286 75.8381L68.5841 75.8176L68.5385 75.8C66.552 75.036 64.2919 75.8048 63.3381 77.8714L63.3318 77.8851L63.3258 77.8988L59.8258 85.8988L59.8122 85.9299L59.8 85.9616C59.036 87.948 59.8048 90.2081 61.8714 91.162Z" fill="#006EDB" stroke="white" stroke-width="3"/>
<defs>
<filter id="filter0_f_1965_5035" x="15.5" y="30" width="85" height="46.1006" filterUnits="userSpaceOnUse" color-interpolation-filters="sRGB">
<feFlood flood-opacity="0" result="BackgroundImageFix"/>
<feBlend mode="normal" in="SourceGraphic" in2="BackgroundImageFix" result="shape"/>
<feGaussianBlur stdDeviation="3.5" result="effect1_foregroundBlur_1965_5035"/>
</filter>
<radialGradient id="paint0_radial_1965_5035" cx="0" cy="0" r="1" gradientUnits="userSpaceOnUse" gradientTransform="translate(34 21.0001) scale(27.88)">
<stop offset="0.5143" stop-color="#D6B849"/>
<stop offset="0.6523" stop-color="#FFCE47"/>
<stop offset="1" stop-color="#FFDB73"/>
</radialGradient>
<linearGradient id="paint1_linear_1965_5035" x1="24.8171" y1="10.0574" x2="43.1767" y2="31.9375" gradientUnits="userSpaceOnUse">
<stop stop-color="#FFAF22"/>
<stop offset="0.9897" stop-color="#F09900"/>
</linearGradient>
<linearGradient id="paint2_linear_1965_5035" x1="51.5" y1="38.5" x2="53.5" y2="71.1" gradientUnits="userSpaceOnUse">
<stop offset="0.484375" stop-color="white" stop-opacity="0"/>
<stop offset="1" stop-color="#B3B2B2"/>
</linearGradient>
</defs>
</svg>
