<svg xmlns="http://www.w3.org/2000/svg" width="104" height="102" fill="none" viewBox="0 0 104 102"><mask id="40m__a" style="mask-type:alpha" width="82" height="41" x="-4" y="21" maskUnits="userSpaceOnUse"><path fill="#C4C4C4" d="M-4 21h82v41H-4z"/></mask><g mask="url(#40m__a)"><path fill="url(#40m__40m__paint0_radial_1965_5035)" stroke="#C37F0E" stroke-width="3" d="M51.408 25.692L61.88 21l-10.472-4.624 6.664-9.316-11.356 1.224L47.872-3.14l-9.248 6.732L34-6.88 29.376 3.592 20.06-3.14l1.224 11.356L9.86 7.06l6.732 9.248L6.12 21l10.472 4.624L9.86 34.94l11.356-1.224L20.06 45.14l9.248-6.732L34 48.88l4.624-10.472 9.316 6.664-1.224-11.356 11.424 1.156-6.732-9.18z"/><path fill="#FFD348" d="M19.233 29.506c4.693 8.097 15.1 10.888 23.262 6.26 8.162-4.627 10.883-15.106 6.258-23.272-4.694-8.098-15.1-10.887-23.263-6.26-8.094 4.695-10.882 15.174-6.257 23.272z"/><path fill="url(#40m__40m__paint1_linear_1965_5035)" d="M21.624 28.136c3.943 6.798 12.713 9.178 19.512 5.235 6.798-3.944 9.177-12.714 5.234-19.512C42.427 7.06 33.657 4.68 26.86 8.624c-6.8 3.943-9.179 12.713-5.235 19.512z"/></g><path stroke="#21292B" stroke-linecap="round" stroke-width="3" d="M5.5 19.5h57"/><path fill="#CCC" stroke="#606E7C" stroke-width="4" d="M13.761 44.61v.002C10.716 47.768 9 51.859 9 56.2v.249c.113 4.593 1.91 8.804 5.211 11.89C17.296 71.411 21.499 73.1 25.9 73.1h55.7c8.986 0 16.4-7.277 16.4-16.3 0-7.07-4.532-13.238-10.966-15.465C84.477 29.691 73.953 21 61.7 21c-9.27 0-17.69 4.89-22.269 12.694A11.584 11.584 0 0036.8 33.4c-4.471 0-8.427 2.386-10.435 6.102-.144-.002-.284-.002-.42-.002H25.9c-4.633 0-8.955 1.814-12.139 5.11z"/><path fill="url(#40m__40m__paint2_linear_1965_5035)" fill-rule="evenodd" d="M85.3 42.9C83.4 31.6 73.4 23 61.7 23c-9.1 0-17.3 5.1-21.3 13.1-1.2-.5-2.4-.7-3.6-.7-4.2 0-7.8 2.5-9.2 6.2-.6-.1-1.1-.1-1.7-.1-4.1 0-7.9 1.6-10.7 4.5-2.7 2.8-4.2 6.4-4.2 10.2v.2c.1 4.1 1.7 7.8 4.6 10.5 2.7 2.7 6.4 4.2 10.3 4.2h55.7c7.9 0 14.4-6.4 14.4-14.3 0-6.6-4.5-12.3-10.7-13.9z" clip-rule="evenodd" style="mix-blend-mode:multiply" opacity=".6"/><g style="mix-blend-mode:multiply" filter="url(#40m__40m__filter0_f_1965_5035)" opacity=".3"><path fill="#B6B6B6" d="M33.5 64c1.787 0 24.848-1.272 26.48-2 2.23-.994-2.39-6.972 0-7.47 1.08-.224 2.667-.927 2.667-.927s4.352-1.602 5.103-1.602c.75 0 .374-2.964.14-4.81l-.14-1.32c0-.87-2.592-2.674-3-4.87-.284-1.527.424-3.585.276-3.968 0 0-.05-.029-.036-.032.014-.004.026.007.036.032.112.053.922.327.922.327 1.948.66 5.03 1.74 7.802 3.64 1.658 1.138 3.941 3.314 3.941 3.314s1.645 1.272 2.059 1.687c1 1 4 4 6 4h5L93 51.59l.5 3.21c0 7.9-6.5 14.3-14.4 14.3H22.5S27 64 33.5 64z"/></g><path fill="#006EDB" stroke="#fff" stroke-width="3" d="M37.871 100.162l.076.035.079.026c.341.114.927.277 1.474.277 1.515 0 3.018-.786 3.683-2.418l3.491-7.98.014-.032.012-.031c.764-1.987-.005-4.247-2.071-5.2l-.045-.021-.046-.018c-1.986-.764-4.246.005-5.2 2.071l-.006.014-.006.014-3.5 8-.014.03-.012.033c-.764 1.986.005 4.246 2.071 5.2zm24-9l.076.035.079.026c.341.114.927.277 1.474.277 1.515 0 3.018-.786 3.683-2.418l3.491-7.98.014-.032.012-.031c.764-1.987-.005-4.247-2.071-5.2l-.045-.021-.046-.018c-1.986-.764-4.246.005-5.2 2.071l-.006.014-.006.014-3.5 8-.014.03-.012.033c-.764 1.986.005 4.246 2.071 5.2z"/><defs><linearGradient id="40m__40m__paint1_linear_1965_5035" x1="24.817" x2="43.177" y1="10.057" y2="31.938" gradientUnits="userSpaceOnUse"><stop stop-color="#FFAF22"/><stop offset=".99" stop-color="#F09900"/></linearGradient><linearGradient id="40m__40m__paint2_linear_1965_5035" x1="51.5" x2="53.5" y1="38.5" y2="71.1" gradientUnits="userSpaceOnUse"><stop offset=".484" stop-color="#fff" stop-opacity="0"/><stop offset="1" stop-color="#B3B2B2"/></linearGradient><radialGradient id="40m__40m__paint0_radial_1965_5035" cx="0" cy="0" r="1" gradientTransform="translate(34 21) scale(27.88)" gradientUnits="userSpaceOnUse"><stop offset=".514" stop-color="#D6B849"/><stop offset=".652" stop-color="#FFCE47"/><stop offset="1" stop-color="#FFDB73"/></radialGradient><filter id="40m__40m__filter0_f_1965_5035" width="85" height="46.101" x="15.5" y="30" color-interpolation-filters="sRGB" filterUnits="userSpaceOnUse"><feFlood flood-opacity="0" result="BackgroundImageFix"/><feBlend in="SourceGraphic" in2="BackgroundImageFix" result="shape"/><feGaussianBlur result="effect1_foregroundBlur_1965_5035" stdDeviation="3.5"/></filter></defs></svg>