<svg width="106" height="108" viewBox="0 0 106 108" fill="none" xmlns="http://www.w3.org/2000/svg">
<path d="M31.5415 8.92676C33.3268 12.0511 34.4427 15.6963 34.4427 19.5646C34.4427 31.3182 24.9207 40.8402 13.1671 40.8402C12.2 40.8402 11.3073 40.7658 10.4146 40.617C14.1342 47.0146 20.9781 51.3292 28.789 51.3292C40.5427 51.3292 50.0646 41.8072 50.0646 30.0536C50.0646 19.1926 42.0305 10.2658 31.5415 8.92676Z" fill="url(#paint0_linear_1965_5048)"/>
<path d="M15.7612 50.6108L15.7603 50.6117C12.7172 53.7676 11 57.8591 11 62.2V62.4V62.4244L11.0006 62.4488C11.1126 67.0423 12.9106 71.2533 16.211 74.3394C19.2961 77.4108 23.4992 79.1 27.9 79.1H83.6C92.5864 79.1 100 71.8227 100 62.8C100 55.73 95.4681 49.5618 89.0335 47.3354C86.4768 35.6911 75.9526 27 63.7 27C54.4299 27 46.0102 31.8893 41.4313 39.6938C40.5454 39.488 39.6662 39.4 38.8 39.4C34.3287 39.4 30.3727 41.7859 28.3647 45.5016C28.2209 45.5 28.0815 45.5 27.9457 45.5L27.9 45.5C23.2669 45.5 18.9446 47.3137 15.7612 50.6108Z" fill="#CCCCCC" stroke="#606E7C" stroke-width="4"/>
<g opacity="0.6">
<path fill-rule="evenodd" clip-rule="evenodd" d="M87.3 48.9C85.4 37.6 75.4 29 63.7 29C54.6 29 46.4 34.1 42.4 42.1C41.2 41.6 40 41.4 38.8 41.4C34.6 41.4 31 43.9 29.6 47.6C29 47.5 28.5 47.5 27.9 47.5C23.8 47.5 20 49.1 17.2 52C14.5 54.8 13 58.4 13 62.2V62.4C13.1 66.5 14.7 70.2 17.6 72.9C20.3 75.6 24 77.1 27.9 77.1H83.6C91.5 77.1 98 70.7 98 62.8C98 56.2 93.5 50.5 87.3 48.9Z" fill="url(#paint1_linear_1965_5048)" style="mix-blend-mode:multiply"/>
</g>
<g style="mix-blend-mode:multiply" opacity="0.3" filter="url(#filter0_f_1965_5048)">
<path d="M35.5 70C37.2867 70 60.3482 68.7276 61.98 68C64.2101 67.0057 59.5895 61.0283 61.98 60.5307C63.0594 60.306 64.6465 59.6032 64.6465 59.6032C64.6465 59.6032 68.9994 58.0007 69.75 58.0007C70.5006 58.0007 70.1244 55.0374 69.8901 53.1913L69.75 51.8707C69.75 51.0007 67.158 49.1968 66.75 47.0007C66.4663 45.4736 67.1738 43.416 67.0258 43.033C67.0258 43.033 66.9751 43.0044 66.99 43.0007C67.0045 42.997 67.0163 43.0084 67.0258 43.033C67.1384 43.0858 67.9481 43.3602 67.9481 43.3602C69.8959 44.0203 72.9771 45.0993 75.75 47.0007C77.4084 48.1378 79.6911 50.3144 79.6911 50.3144C79.6911 50.3144 81.3358 51.5864 81.75 52.0007C82.75 53.0007 85.75 56.0007 87.75 56.0007H92.75L95 57.5907L95.5 60.8007C95.5 68.7007 89 75.1007 81.1 75.1007H24.5C24.5 75.1007 29 70 35.5 70Z" fill="#B6B6B6"/>
</g>
<path d="M39.8714 106.162L39.9468 106.197L40.0257 106.223C40.3672 106.337 40.9528 106.5 41.5 106.5C43.0151 106.5 44.518 105.714 45.1828 104.082L48.6742 96.1013L48.6878 96.0702L48.7 96.0385C49.464 94.052 48.6952 91.7919 46.6286 90.8381L46.5841 90.8176L46.5385 90.8C44.552 90.036 42.2919 90.8048 41.3381 92.8714L41.3318 92.8851L41.3258 92.8988L37.8258 100.899L37.8122 100.93L37.8 100.962C37.036 102.948 37.8048 105.208 39.8714 106.162Z" fill="#006EDB" stroke="white" stroke-width="3"/>
<path d="M63.8714 97.162L63.9468 97.1968L64.0257 97.2231C64.3672 97.3369 64.9528 97.5 65.5 97.5C67.0151 97.5 68.518 96.7142 69.1828 95.0817L72.6742 87.1013L72.6878 87.0702L72.7 87.0385C73.464 85.052 72.6952 82.7919 70.6286 81.8381L70.5841 81.8176L70.5385 81.8C68.552 81.036 66.2919 81.8048 65.3381 83.8714L65.3318 83.8851L65.3258 83.8988L61.8258 91.8988L61.8122 91.9299L61.8 91.9616C61.036 93.948 61.8048 96.2081 63.8714 97.162Z" fill="#006EDB" stroke="white" stroke-width="3"/>
<defs>
<filter id="filter0_f_1965_5048" x="17.5" y="36" width="85" height="46.1006" filterUnits="userSpaceOnUse" color-interpolation-filters="sRGB">
<feFlood flood-opacity="0" result="BackgroundImageFix"/>
<feBlend mode="normal" in="SourceGraphic" in2="BackgroundImageFix" result="shape"/>
<feGaussianBlur stdDeviation="3.5" result="effect1_foregroundBlur_1965_5048"/>
</filter>
<linearGradient id="paint0_linear_1965_5048" x1="18.9138" y1="49.4636" x2="46.2563" y2="16.8781" gradientUnits="userSpaceOnUse">
<stop stop-color="#686E73"/>
<stop offset="0.9891" stop-color="#6A7075"/>
</linearGradient>
<linearGradient id="paint1_linear_1965_5048" x1="53.5" y1="44.5" x2="55.5" y2="77.1" gradientUnits="userSpaceOnUse">
<stop offset="0.484375" stop-color="white" stop-opacity="0"/>
<stop offset="1" stop-color="#B3B2B2"/>
</linearGradient>
</defs>
</svg>
