<svg width="100" height="101" viewBox="0 0 100 101" fill="none" xmlns="http://www.w3.org/2000/svg">
<g clip-path="url(#clip0_1965_5009)">
<path fill-rule="evenodd" clip-rule="evenodd" d="M52.3146 18.5169L54.072 16.0601L42.716 17.2841L43.872 5.86012L34.624 12.5921L30 2.12012L25.376 12.5921L16.06 5.86012L17.284 17.2161L5.86 16.0601L12.592 25.3081L2.12 30.0001L12.592 34.6241L5.86 43.9401L6.4302 43.8787C6.79888 43.4377 7.18901 43.0111 7.6 42.6001C11.1 39.0001 15.7 36.9001 20.7 36.6001C23.4 32.7001 27.9 30.4001 32.8 30.4001H33.9C38.2631 24.2594 44.9113 19.9466 52.3146 18.5169Z" fill="url(#paint0_radial_1965_5009)" stroke="#C37F0E" stroke-width="3"/>
</g>
<path fill-rule="evenodd" clip-rule="evenodd" d="M14.867 37.8308C16.7147 37.1384 18.6745 36.7215 20.7 36.6C23.4 32.7 27.9 30.4 32.8 30.4H33.9C36.6679 26.5044 40.3553 23.3445 44.5718 21.1896C39.7966 13.3271 29.5494 10.665 21.4904 15.2337C13.6195 19.7995 10.7654 29.8348 14.867 37.8308Z" fill="#FFD348"/>
<path fill-rule="evenodd" clip-rule="evenodd" d="M17.5653 37.0338C18.5875 36.8093 19.6347 36.6637 20.7 36.5998C23.4 32.6998 27.9 30.3998 32.8 30.3998H33.9C36.1324 27.2578 38.9631 24.5944 42.187 22.5509C38.1607 15.9887 29.5536 13.7403 22.8585 17.6234C16.0937 21.547 13.7042 30.2496 17.5653 37.0338Z" fill="url(#paint1_linear_1965_5009)"/>
<path d="M9.7612 44.6108L9.76031 44.6117C6.71717 47.7676 5 51.8591 5 56.2V56.4V56.4244L5.00059 56.4488C5.11263 61.0423 6.91058 65.2533 10.211 68.3394C13.2961 71.4108 17.4992 73.1 21.9 73.1H77.6C86.5864 73.1 94 65.8227 94 56.8C94 49.73 89.4681 43.5618 83.0335 41.3354C80.4768 29.6911 69.9526 21 57.7 21C48.4299 21 40.0102 25.8893 35.4313 33.6938C34.5454 33.488 33.6662 33.4 32.8 33.4C28.3287 33.4 24.3727 35.7859 22.3647 39.5016C22.2209 39.5 22.0815 39.5 21.9457 39.5L21.9 39.5C17.2669 39.5 12.9446 41.3137 9.7612 44.6108Z" fill="#CCCCCC" stroke="#606E7C" stroke-width="4"/>
<g opacity="0.6">
<path fill-rule="evenodd" clip-rule="evenodd" d="M81.3 42.9C79.4 31.6 69.4 23 57.7 23C48.6 23 40.4 28.1 36.4 36.1C35.2 35.6 34 35.4 32.8 35.4C28.6 35.4 25 37.9 23.6 41.6C23 41.5 22.5 41.5 21.9 41.5C17.8 41.5 14 43.1 11.2 46C8.5 48.8 7 52.4 7 56.2V56.4C7.1 60.5 8.7 64.2 11.6 66.9C14.3 69.6 18 71.1 21.9 71.1H77.6C85.5 71.1 92 64.7 92 56.8C92 50.2 87.5 44.5 81.3 42.9Z" fill="url(#paint2_linear_1965_5009)" style="mix-blend-mode:multiply"/>
</g>
<g style="mix-blend-mode:multiply" opacity="0.3" filter="url(#filter0_f_1965_5009)">
<path d="M29.5 64C31.2867 64 54.3482 62.7276 55.98 62C58.2101 61.0057 53.5895 55.0283 55.98 54.5307C57.0594 54.306 58.6465 53.6032 58.6465 53.6032C58.6465 53.6032 62.9994 52.0007 63.75 52.0007C64.5006 52.0007 64.1244 49.0374 63.8901 47.1913L63.75 45.8707C63.75 45.0007 61.158 43.1968 60.75 41.0007C60.4663 39.4736 61.1738 37.416 61.0258 37.033C61.0258 37.033 60.9751 37.0044 60.99 37.0007C61.0045 36.997 61.0163 37.0084 61.0258 37.033C61.1384 37.0858 61.9481 37.3602 61.9481 37.3602C63.8959 38.0203 66.9771 39.0993 69.75 41.0007C71.4084 42.1378 73.6911 44.3144 73.6911 44.3144C73.6911 44.3144 75.3358 45.5864 75.75 46.0007C76.75 47.0007 79.75 50.0007 81.75 50.0007H86.75L89 51.5907L89.5 54.8007C89.5 62.7007 83 69.1007 75.1 69.1007H18.5C18.5 69.1007 23 64 29.5 64Z" fill="#B6B6B6"/>
</g>
<path d="M30.4884 88.9H30.4H30.3066L30.2139 88.9115C28.8336 89.0841 27.5 90.1835 27.5 91.8C27.5 93.2586 28.7034 94.7 30.4 94.7H30.5884L30.5218 94.8143C30.0258 95.5957 30.0807 96.4856 30.277 97.0743C30.4662 97.6421 30.8505 98.2364 31.4679 98.648C32.2125 99.1444 33.0679 99.1619 33.7386 98.9632C34.3843 98.7718 35.0417 98.3282 35.4147 97.6231L35.4734 97.5225L35.5779 97.7091C36.0633 98.6395 37.0978 99.2 38.1 99.2C38.6399 99.2 39.1859 98.9841 39.4708 98.8416L39.5543 98.7998L39.6321 98.748C40.6587 98.0636 41.5356 96.4246 40.5853 94.9252L40.4592 94.7H40.7C42.1586 94.7 43.6 93.4965 43.6 91.8C43.6 89.9629 42.0032 89 40.7 89H40.4592L40.5865 88.7725C41.3817 87.505 41.0393 85.5874 39.4712 84.8571C38.098 84.1198 36.417 84.5298 35.6015 85.9491L35.5 86.123L35.3985 85.949C34.6264 84.6059 32.9299 84.043 31.5481 84.9003C30.7903 85.3069 30.3755 85.9301 30.177 86.5256C30.0228 86.9881 30.0492 87.4262 30.0901 87.7121C30.1333 88.0143 30.2141 88.2856 30.277 88.4743L30.3261 88.6216L30.4043 88.7558L30.4884 88.9Z" fill="#00A4D6" stroke="white" stroke-width="3"/>
<path d="M61.8714 92.162L61.9468 92.1968L62.0257 92.2231C62.3672 92.3369 62.9528 92.5 63.5 92.5C65.0151 92.5 66.518 91.7142 67.1828 90.0817L70.6742 82.1013L70.6878 82.0702L70.7 82.0385C71.464 80.052 70.6952 77.7919 68.6286 76.8381L68.5841 76.8176L68.5385 76.8C66.552 76.036 64.2919 76.8048 63.3381 78.8714L63.3318 78.8851L63.3258 78.8988L59.8258 86.8988L59.8122 86.9299L59.8 86.9616C59.036 88.948 59.8048 91.2081 61.8714 92.162Z" fill="#006EDB" stroke="white" stroke-width="3"/>
<defs>
<filter id="filter0_f_1965_5009" x="11.5" y="30" width="85" height="46.1006" filterUnits="userSpaceOnUse" color-interpolation-filters="sRGB">
<feFlood flood-opacity="0" result="BackgroundImageFix"/>
<feBlend mode="normal" in="SourceGraphic" in2="BackgroundImageFix" result="shape"/>
<feGaussianBlur stdDeviation="3.5" result="effect1_foregroundBlur_1965_5009"/>
</filter>
<radialGradient id="paint0_radial_1965_5009" cx="0" cy="0" r="1" gradientUnits="userSpaceOnUse" gradientTransform="translate(30 30.0001) scale(27.88)">
<stop offset="0.5143" stop-color="#D6B849"/>
<stop offset="0.6523" stop-color="#FFCE47"/>
<stop offset="1" stop-color="#FFDB73"/>
</radialGradient>
<linearGradient id="paint1_linear_1965_5009" x1="20.8172" y1="19.0569" x2="39.1767" y2="40.9371" gradientUnits="userSpaceOnUse">
<stop stop-color="#FFAF22"/>
<stop offset="0.9897" stop-color="#F09900"/>
</linearGradient>
<linearGradient id="paint2_linear_1965_5009" x1="47.5" y1="38.5" x2="49.5" y2="71.1" gradientUnits="userSpaceOnUse">
<stop offset="0.484375" stop-color="white" stop-opacity="0"/>
<stop offset="1" stop-color="#B3B2B2"/>
</linearGradient>
<clipPath id="clip0_1965_5009">
<rect width="100" height="100" fill="white"/>
</clipPath>
</defs>
</svg>
