<svg width="100" height="100" viewBox="0 0 100 100" fill="none" xmlns="http://www.w3.org/2000/svg">
<g clip-path="url(#clip0_1965_5050)">
<path d="M25.5415 2.92676C27.3268 6.05115 28.4427 9.69627 28.4427 13.5646C28.4427 25.3182 18.9207 34.8402 7.16708 34.8402C6.20001 34.8402 5.30733 34.7658 4.41464 34.617C8.13415 41.0146 14.9781 45.3292 22.789 45.3292C34.5427 45.3292 44.0646 35.8072 44.0646 24.0536C44.0646 13.1926 36.0305 4.26578 25.5415 2.92676Z" fill="url(#paint0_linear_1965_5050)"/>
<path d="M9.7612 44.6108L9.76031 44.6117C6.71717 47.7676 5 51.8591 5 56.2V56.4V56.4244L5.00059 56.4488C5.11263 61.0423 6.91058 65.2533 10.211 68.3394C13.2961 71.4108 17.4992 73.1 21.9 73.1H77.6C86.5864 73.1 94 65.8227 94 56.8C94 49.73 89.4681 43.5618 83.0335 41.3354C80.4768 29.6911 69.9526 21 57.7 21C48.4299 21 40.0102 25.8893 35.4313 33.6938C34.5454 33.488 33.6662 33.4 32.8 33.4C28.3287 33.4 24.3727 35.7859 22.3647 39.5016C22.2209 39.5 22.0815 39.5 21.9457 39.5L21.9 39.5C17.2669 39.5 12.9446 41.3137 9.7612 44.6108Z" fill="#CCCCCC" stroke="#56616C" stroke-width="4"/>
<g opacity="0.6">
<path fill-rule="evenodd" clip-rule="evenodd" d="M81.3 42.9C79.4 31.6 69.4 23 57.7 23C48.6 23 40.4 28.1 36.4 36.1C35.2 35.6 34 35.4 32.8 35.4C28.6 35.4 25 37.9 23.6 41.6C23 41.5 22.5 41.5 21.9 41.5C17.8 41.5 14 43.1 11.2 46C8.5 48.8 7 52.4 7 56.2V56.4C7.1 60.5 8.7 64.2 11.6 66.9C14.3 69.6 18 71.1 21.9 71.1H77.6C85.5 71.1 92 64.7 92 56.8C92 50.2 87.5 44.5 81.3 42.9Z" fill="url(#paint1_linear_1965_5050)" style="mix-blend-mode:multiply"/>
</g>
<g style="mix-blend-mode:multiply" opacity="0.3" filter="url(#filter0_f_1965_5050)">
<path d="M29.5 64C31.2867 64 54.3482 62.7276 55.98 62C58.2101 61.0057 53.5895 55.0283 55.98 54.5307C57.0594 54.306 58.6465 53.6032 58.6465 53.6032C58.6465 53.6032 62.9994 52.0007 63.75 52.0007C64.5006 52.0007 64.1244 49.0374 63.8901 47.1913L63.75 45.8707C63.75 45.0007 61.158 43.1968 60.75 41.0007C60.4663 39.4736 61.1738 37.416 61.0258 37.033C61.0258 37.033 60.9751 37.0044 60.99 37.0007C61.0045 36.997 61.0163 37.0084 61.0258 37.033C61.1384 37.0858 61.9481 37.3602 61.9481 37.3602C63.8959 38.0203 66.9771 39.0993 69.75 41.0007C71.4084 42.1378 73.6911 44.3144 73.6911 44.3144C73.6911 44.3144 75.3358 45.5864 75.75 46.0007C76.75 47.0007 79.75 50.0007 81.75 50.0007H86.75L89 51.5907L89.5 54.8007C89.5 62.7007 83 69.1007 75.1 69.1007H18.5C18.5 69.1007 23 64 29.5 64Z" fill="#B6B6B6"/>
</g>
<path d="M40.7 90.5H37.9L39.3 88C39.7 87.4 39.5 86.5 38.8 86.2C38.1 85.8 37.3 86 36.9 86.7L35.5 89.1L34.1 86.7C33.7 86 32.9 85.8 32.3 86.2C31.9 86.4 31.7 86.7 31.6 87C31.5 87.3 31.6 87.7 31.7 88L33.1 90.4H30.4C29.6 90.5 29 91.1 29 91.8C29 92.5 29.6 93.2 30.4 93.2H33.2L31.8 95.6C31.6 95.9 31.6 96.3 31.7 96.6C31.8 96.9 32 97.2 32.3 97.4C32.9 97.8 33.8 97.5 34.1 96.9L35.5 94.5L36.9 97C37.1 97.4 37.6 97.7 38.1 97.7C38.3 97.7 38.6 97.6 38.8 97.5C39.4 97.1 39.7 96.3 39.3 95.7L37.9 93.2H40.7C41.4 93.2 42.1 92.6 42.1 91.8C42.1 91 41.4 90.5 40.7 90.5Z" fill="#00A4D6"/>
<path d="M63.5 91C63.2 91 62.8 90.9 62.5 90.8C61.2 90.2 60.7 88.8 61.2 87.5L64.7 79.5C65.3 78.2 66.7 77.7 68 78.2C69.3 78.8 69.8 80.2 69.3 81.5L65.8 89.5C65.4 90.5 64.5 91 63.5 91Z" fill="#006EDB"/>
</g>
<defs>
<filter id="filter0_f_1965_5050" x="11.5" y="30" width="85" height="46.1006" filterUnits="userSpaceOnUse" color-interpolation-filters="sRGB">
<feFlood flood-opacity="0" result="BackgroundImageFix"/>
<feBlend mode="normal" in="SourceGraphic" in2="BackgroundImageFix" result="shape"/>
<feGaussianBlur stdDeviation="3.5" result="effect1_foregroundBlur_1965_5050"/>
</filter>
<linearGradient id="paint0_linear_1965_5050" x1="12.9138" y1="43.4636" x2="40.2563" y2="10.8781" gradientUnits="userSpaceOnUse">
<stop stop-color="#686E73"/>
<stop offset="0.9891" stop-color="#6A7075"/>
</linearGradient>
<linearGradient id="paint1_linear_1965_5050" x1="47.5" y1="38.5" x2="49.5" y2="71.1" gradientUnits="userSpaceOnUse">
<stop offset="0.484375" stop-color="white" stop-opacity="0"/>
<stop offset="1" stop-color="#B3B2B2"/>
</linearGradient>
<clipPath id="clip0_1965_5050">
<rect width="100" height="100" fill="white"/>
</clipPath>
</defs>
</svg>
