<svg width="106" height="107" viewBox="0 0 106 107" fill="none" xmlns="http://www.w3.org/2000/svg">
<path d="M31.5415 8.92676C33.3268 12.0511 34.4427 15.6963 34.4427 19.5646C34.4427 31.3182 24.9207 40.8402 13.1671 40.8402C12.2 40.8402 11.3073 40.7658 10.4146 40.617C14.1342 47.0146 20.9781 51.3292 28.789 51.3292C40.5427 51.3292 50.0646 41.8072 50.0646 30.0536C50.0646 19.1926 42.0305 10.2658 31.5415 8.92676Z" fill="url(#paint0_linear_1965_5050)"/>
<path d="M15.7612 50.6108L15.7603 50.6117C12.7172 53.7676 11 57.8591 11 62.2V62.4V62.4244L11.0006 62.4488C11.1126 67.0423 12.9106 71.2533 16.211 74.3394C19.2961 77.4108 23.4992 79.1 27.9 79.1H83.6C92.5864 79.1 100 71.8227 100 62.8C100 55.73 95.4681 49.5618 89.0335 47.3354C86.4768 35.6911 75.9526 27 63.7 27C54.4299 27 46.0102 31.8893 41.4313 39.6938C40.5454 39.488 39.6662 39.4 38.8 39.4C34.3287 39.4 30.3727 41.7859 28.3647 45.5016C28.2209 45.5 28.0815 45.5 27.9457 45.5L27.9 45.5C23.2669 45.5 18.9446 47.3137 15.7612 50.6108Z" fill="#CCCCCC" stroke="#606E7C" stroke-width="4"/>
<g opacity="0.6">
<path fill-rule="evenodd" clip-rule="evenodd" d="M87.3 48.9C85.4 37.6 75.4 29 63.7 29C54.6 29 46.4 34.1 42.4 42.1C41.2 41.6 40 41.4 38.8 41.4C34.6 41.4 31 43.9 29.6 47.6C29 47.5 28.5 47.5 27.9 47.5C23.8 47.5 20 49.1 17.2 52C14.5 54.8 13 58.4 13 62.2V62.4C13.1 66.5 14.7 70.2 17.6 72.9C20.3 75.6 24 77.1 27.9 77.1H83.6C91.5 77.1 98 70.7 98 62.8C98 56.2 93.5 50.5 87.3 48.9Z" fill="url(#paint1_linear_1965_5050)" style="mix-blend-mode:multiply"/>
</g>
<g style="mix-blend-mode:multiply" opacity="0.3" filter="url(#filter0_f_1965_5050)">
<path d="M35.5 70C37.2867 70 60.3482 68.7276 61.98 68C64.2101 67.0057 59.5895 61.0283 61.98 60.5307C63.0594 60.306 64.6465 59.6032 64.6465 59.6032C64.6465 59.6032 68.9994 58.0007 69.75 58.0007C70.5006 58.0007 70.1244 55.0374 69.8901 53.1913L69.75 51.8707C69.75 51.0007 67.158 49.1968 66.75 47.0007C66.4663 45.4736 67.1738 43.416 67.0258 43.033C67.0258 43.033 66.9751 43.0044 66.99 43.0007C67.0045 42.997 67.0163 43.0084 67.0258 43.033C67.1384 43.0858 67.9481 43.3602 67.9481 43.3602C69.8959 44.0203 72.9771 45.0993 75.75 47.0007C77.4084 48.1378 79.6911 50.3144 79.6911 50.3144C79.6911 50.3144 81.3358 51.5864 81.75 52.0007C82.75 53.0007 85.75 56.0007 87.75 56.0007H92.75L95 57.5907L95.5 60.8007C95.5 68.7007 89 75.1007 81.1 75.1007H24.5C24.5 75.1007 29 70 35.5 70Z" fill="#B6B6B6"/>
</g>
<path d="M36.4884 94.9H36.4H36.3066L36.2139 94.9115C34.8336 95.0841 33.5 96.1835 33.5 97.8C33.5 99.2586 34.7034 100.7 36.4 100.7H36.5884L36.5218 100.814C36.0258 101.596 36.0807 102.486 36.277 103.074C36.4662 103.642 36.8505 104.236 37.4679 104.648C38.2125 105.144 39.0679 105.162 39.7386 104.963C40.3843 104.772 41.0417 104.328 41.4147 103.623L41.4734 103.522L41.5779 103.709C42.0633 104.64 43.0978 105.2 44.1 105.2C44.6399 105.2 45.1859 104.984 45.4708 104.842L45.5543 104.8L45.6321 104.748C46.6587 104.064 47.5356 102.425 46.5853 100.925L46.4592 100.7H46.7C48.1586 100.7 49.6 99.4965 49.6 97.8C49.6 95.9629 48.0032 95 46.7 95H46.4592L46.5865 94.7725C47.3817 93.505 47.0393 91.5874 45.4712 90.8571C44.098 90.1198 42.417 90.5298 41.6015 91.9491L41.5 92.123L41.3985 91.949C40.6264 90.6059 38.9299 90.043 37.5481 90.9003C36.7903 91.3069 36.3755 91.9301 36.177 92.5256C36.0228 92.9881 36.0492 93.4262 36.0901 93.7121C36.1333 94.0143 36.2141 94.2856 36.277 94.4743L36.3261 94.6216L36.4043 94.7558L36.4884 94.9Z" fill="#00A4D6" stroke="white" stroke-width="3"/>
<path d="M67.8714 98.162L67.9468 98.1968L68.0257 98.2231C68.3672 98.3369 68.9528 98.5 69.5 98.5C71.0151 98.5 72.518 97.7142 73.1828 96.0817L76.6742 88.1013L76.6878 88.0702L76.7 88.0385C77.464 86.052 76.6952 83.7919 74.6286 82.8381L74.5841 82.8176L74.5385 82.8C72.552 82.036 70.2919 82.8048 69.3381 84.8714L69.3318 84.8851L69.3258 84.8988L65.8258 92.8988L65.8122 92.9299L65.8 92.9616C65.036 94.948 65.8048 97.2081 67.8714 98.162Z" fill="#006EDB" stroke="white" stroke-width="3"/>
<defs>
<filter id="filter0_f_1965_5050" x="17.5" y="36" width="85" height="46.1006" filterUnits="userSpaceOnUse" color-interpolation-filters="sRGB">
<feFlood flood-opacity="0" result="BackgroundImageFix"/>
<feBlend mode="normal" in="SourceGraphic" in2="BackgroundImageFix" result="shape"/>
<feGaussianBlur stdDeviation="3.5" result="effect1_foregroundBlur_1965_5050"/>
</filter>
<linearGradient id="paint0_linear_1965_5050" x1="18.9138" y1="49.4636" x2="46.2563" y2="16.8781" gradientUnits="userSpaceOnUse">
<stop stop-color="#686E73"/>
<stop offset="0.9891" stop-color="#6A7075"/>
</linearGradient>
<linearGradient id="paint1_linear_1965_5050" x1="53.5" y1="44.5" x2="55.5" y2="77.1" gradientUnits="userSpaceOnUse">
<stop offset="0.484375" stop-color="white" stop-opacity="0"/>
<stop offset="1" stop-color="#B3B2B2"/>
</linearGradient>
</defs>
</svg>
