<svg width="100" height="102" viewBox="0 0 100 102" fill="none" xmlns="http://www.w3.org/2000/svg">
<g clip-path="url(#clip0_1965_5010)">
<path fill-rule="evenodd" clip-rule="evenodd" d="M52.3146 18.5169L54.072 16.0601L42.716 17.2841L43.872 5.86012L34.624 12.5921L30 2.12012L25.376 12.5921L16.06 5.86012L17.284 17.2161L5.86 16.0601L12.592 25.3081L2.12 30.0001L12.592 34.6241L5.86 43.9401L6.4302 43.8787C6.79888 43.4377 7.18901 43.0111 7.6 42.6001C11.1 39.0001 15.7 36.9001 20.7 36.6001C23.4 32.7001 27.9 30.4001 32.8 30.4001H33.9C38.2631 24.2594 44.9113 19.9466 52.3146 18.5169Z" fill="url(#paint0_radial_1965_5010)" stroke="#C37F0E" stroke-width="3"/>
</g>
<path fill-rule="evenodd" clip-rule="evenodd" d="M14.867 37.8308C16.7147 37.1384 18.6745 36.7215 20.7 36.6C23.4 32.7 27.9 30.4 32.8 30.4H33.9C36.6679 26.5044 40.3553 23.3445 44.5718 21.1896C39.7966 13.3271 29.5494 10.665 21.4904 15.2337C13.6195 19.7995 10.7654 29.8348 14.867 37.8308Z" fill="#FFD348"/>
<path fill-rule="evenodd" clip-rule="evenodd" d="M17.5653 37.0338C18.5875 36.8093 19.6347 36.6637 20.7 36.5998C23.4 32.6998 27.9 30.3998 32.8 30.3998H33.9C36.1324 27.2578 38.9631 24.5944 42.187 22.5509C38.1607 15.9887 29.5536 13.7403 22.8585 17.6234C16.0937 21.547 13.7042 30.2496 17.5653 37.0338Z" fill="url(#paint1_linear_1965_5010)"/>
<path d="M9.7612 44.6108L9.76031 44.6117C6.71717 47.7676 5 51.8591 5 56.2V56.4V56.4244L5.00059 56.4488C5.11263 61.0423 6.91058 65.2533 10.211 68.3394C13.2961 71.4108 17.4992 73.1 21.9 73.1H77.6C86.5864 73.1 94 65.8227 94 56.8C94 49.73 89.4681 43.5618 83.0335 41.3354C80.4768 29.6911 69.9526 21 57.7 21C48.4299 21 40.0102 25.8893 35.4313 33.6938C34.5454 33.488 33.6662 33.4 32.8 33.4C28.3287 33.4 24.3727 35.7859 22.3647 39.5016C22.2209 39.5 22.0815 39.5 21.9457 39.5L21.9 39.5C17.2669 39.5 12.9446 41.3137 9.7612 44.6108Z" fill="#999999" stroke="#606E7C" stroke-width="4"/>
<g opacity="0.6">
<path fill-rule="evenodd" clip-rule="evenodd" d="M81.3 42.9C79.4 31.6 69.4 23 57.7 23C48.6 23 40.4 28.1 36.4 36.1C35.2 35.6 34 35.4 32.8 35.4C28.6 35.4 25 37.9 23.6 41.6C23 41.5 22.5 41.5 21.9 41.5C17.8 41.5 14 43.1 11.2 46C8.5 48.8 7 52.4 7 56.2V56.4C7.1 60.5 8.7 64.2 11.6 66.9C14.3 69.6 18 71.1 21.9 71.1H77.6C85.5 71.1 92 64.7 92 56.8C92 50.2 87.5 44.5 81.3 42.9Z" fill="url(#paint2_linear_1965_5010)" style="mix-blend-mode:multiply"/>
</g>
<g style="mix-blend-mode:multiply" opacity="0.3" filter="url(#filter0_f_1965_5010)">
<path d="M29.5 64C31.2867 64 54.3482 62.7276 55.98 62C58.2101 61.0057 53.5895 55.0283 55.98 54.5307C57.0594 54.306 58.6465 53.6032 58.6465 53.6032C58.6465 53.6032 62.9994 52.0007 63.75 52.0007C64.5006 52.0007 64.1244 49.0374 63.8901 47.1913L63.75 45.8707C63.75 45.0007 61.158 43.1968 60.75 41.0007C60.4663 39.4736 61.1738 37.416 61.0258 37.033C61.0258 37.033 60.9751 37.0044 60.99 37.0007C61.0045 36.997 61.0163 37.0084 61.0258 37.033C61.1384 37.0858 61.9481 37.3602 61.9481 37.3602C63.8959 38.0203 66.9771 39.0993 69.75 41.0007C71.4084 42.1378 73.6911 44.3144 73.6911 44.3144C73.6911 44.3144 75.3358 45.5864 75.75 46.0007C76.75 47.0007 79.75 50.0007 81.75 50.0007H86.75L89 51.5907L89.5 54.8007C89.5 62.7007 83 69.1007 75.1 69.1007H18.5C18.5 69.1007 23 64 29.5 64Z" fill="#B6B6B6"/>
</g>
<path d="M16.4884 79.9H16.4H16.3066L16.2139 79.9115C14.8336 80.0841 13.5 81.1835 13.5 82.8C13.5 84.2586 14.7034 85.7 16.4 85.7H16.5884L16.5218 85.8143C16.0258 86.5957 16.0807 87.4856 16.277 88.0743C16.4662 88.6421 16.8505 89.2364 17.4679 89.648C18.2125 90.1444 19.0679 90.1619 19.7386 89.9632C20.3843 89.7718 21.0417 89.3282 21.4147 88.6231L21.4734 88.5225L21.5779 88.7091C22.0633 89.6395 23.0978 90.2 24.1 90.2C24.6399 90.2 25.1859 89.9841 25.4708 89.8416L25.5543 89.7998L25.6321 89.748C26.6587 89.0636 27.5356 87.4246 26.5853 85.9252L26.4592 85.7H26.7C28.1586 85.7 29.6 84.4965 29.6 82.8C29.6 80.9629 28.0032 80 26.7 80H26.4592L26.5865 79.7725C27.3817 78.505 27.0393 76.5874 25.4712 75.8571C24.098 75.1198 22.417 75.5298 21.6015 76.9491L21.5 77.123L21.3985 76.949C20.6264 75.6059 18.9299 75.043 17.5481 75.9003C16.7903 76.3069 16.3755 76.9301 16.177 77.5256C16.0228 77.9881 16.0492 78.4262 16.0901 78.7121C16.1333 79.0143 16.2141 79.2856 16.277 79.4743L16.3261 79.6216L16.4043 79.7558L16.4884 79.9Z" fill="#00A4D6" stroke="white" stroke-width="3"/>
<path d="M59.4884 88.9H59.4H59.3066L59.2139 88.9115C57.8336 89.0841 56.5 90.1835 56.5 91.8C56.5 93.2586 57.7034 94.7 59.4 94.7H59.5884L59.5218 94.8143C59.0258 95.5957 59.0807 96.4856 59.277 97.0743C59.4662 97.6421 59.8505 98.2364 60.4679 98.648C61.2125 99.1444 62.0679 99.1619 62.7386 98.9632C63.3843 98.7718 64.0417 98.3282 64.4147 97.6231L64.4734 97.5225L64.5779 97.7091C65.0633 98.6395 66.0978 99.2 67.1 99.2C67.6399 99.2 68.1859 98.9841 68.4708 98.8416L68.5543 98.7998L68.6321 98.748C69.6587 98.0636 70.5356 96.4246 69.5853 94.9252L69.4592 94.7H69.7C71.1586 94.7 72.6 93.4965 72.6 91.8C72.6 89.9629 71.0032 89 69.7 89H69.4592L69.5865 88.7725C70.3817 87.505 70.0393 85.5874 68.4712 84.8571C67.098 84.1198 65.417 84.5298 64.6015 85.9491L64.5 86.123L64.3985 85.949C63.6264 84.6059 61.9299 84.043 60.5481 84.9003C59.7903 85.3069 59.3755 85.9301 59.177 86.5256C59.0228 86.9881 59.0492 87.4262 59.0901 87.7121C59.1333 88.0143 59.2141 88.2856 59.277 88.4743L59.3261 88.6216L59.4043 88.7558L59.4884 88.9Z" fill="#00A4D6" stroke="white" stroke-width="3"/>
<path d="M33.8714 100.162L33.9468 100.197L34.0257 100.223C34.3672 100.337 34.9528 100.5 35.5 100.5C37.0151 100.5 38.518 99.7142 39.1828 98.0817L42.6742 90.1013L42.6878 90.0702L42.7 90.0385C43.464 88.052 42.6952 85.7919 40.6286 84.8381L40.5841 84.8176L40.5385 84.8C38.552 84.036 36.2919 84.8048 35.3381 86.8714L35.3318 86.8851L35.3258 86.8988L31.8258 94.8988L31.8122 94.9299L31.8 94.9616C31.036 96.948 31.8048 99.2081 33.8714 100.162Z" fill="#006EDB" stroke="white" stroke-width="3"/>
<path d="M48.8714 92.162L48.9468 92.1968L49.0257 92.2231C49.3672 92.3369 49.9528 92.5 50.5 92.5C52.0151 92.5 53.518 91.7142 54.1828 90.0817L57.6742 82.1013L57.6878 82.0702L57.7 82.0385C58.464 80.052 57.6952 77.7919 55.6286 76.8381L55.5841 76.8176L55.5385 76.8C53.552 76.036 51.2919 76.8048 50.3381 78.8714L50.3318 78.8851L50.3258 78.8988L46.8258 86.8988L46.8122 86.9299L46.8 86.9616C46.036 88.948 46.8048 91.2081 48.8714 92.162Z" fill="#006EDB" stroke="white" stroke-width="3"/>
<path d="M76.8714 92.162L76.9468 92.1968L77.0257 92.2231C77.3672 92.3369 77.9528 92.5 78.5 92.5C80.0151 92.5 81.518 91.7142 82.1828 90.0817L85.6742 82.1013L85.6878 82.0702L85.7 82.0385C86.464 80.052 85.6952 77.7919 83.6286 76.8381L83.5841 76.8176L83.5385 76.8C81.552 76.036 79.2919 76.8048 78.3381 78.8714L78.3318 78.8851L78.3258 78.8988L74.8258 86.8988L74.8122 86.9299L74.8 86.9616C74.036 88.948 74.8048 91.2081 76.8714 92.162Z" fill="#006EDB" stroke="white" stroke-width="3"/>
<defs>
<filter id="filter0_f_1965_5010" x="11.5" y="30" width="85" height="46.1006" filterUnits="userSpaceOnUse" color-interpolation-filters="sRGB">
<feFlood flood-opacity="0" result="BackgroundImageFix"/>
<feBlend mode="normal" in="SourceGraphic" in2="BackgroundImageFix" result="shape"/>
<feGaussianBlur stdDeviation="3.5" result="effect1_foregroundBlur_1965_5010"/>
</filter>
<radialGradient id="paint0_radial_1965_5010" cx="0" cy="0" r="1" gradientUnits="userSpaceOnUse" gradientTransform="translate(30 30.0001) scale(27.88)">
<stop offset="0.5143" stop-color="#D6B849"/>
<stop offset="0.6523" stop-color="#FFCE47"/>
<stop offset="1" stop-color="#FFDB73"/>
</radialGradient>
<linearGradient id="paint1_linear_1965_5010" x1="20.8172" y1="19.0569" x2="39.1767" y2="40.9371" gradientUnits="userSpaceOnUse">
<stop stop-color="#FFAF22"/>
<stop offset="0.9897" stop-color="#F09900"/>
</linearGradient>
<linearGradient id="paint2_linear_1965_5010" x1="47.5" y1="38.5" x2="49.5" y2="71.1" gradientUnits="userSpaceOnUse">
<stop offset="0.484375" stop-color="white" stop-opacity="0"/>
<stop offset="1" stop-color="#B3B2B2"/>
</linearGradient>
<clipPath id="clip0_1965_5010">
<rect width="100" height="100" fill="white"/>
</clipPath>
</defs>
</svg>
