<svg width="120" height="120" viewBox="0 0 120 120" fill="none" xmlns="http://www.w3.org/2000/svg">
<g clip-path="url(#clip0_1965_5038)" filter="url(#filter0_d_1965_5038)">
<mask id="mask0_1965_5038" style="mask-type:alpha" maskUnits="userSpaceOnUse" x="2" y="28" width="82" height="41">
<rect x="2" y="28" width="82" height="41" fill="#C4C4C4"/>
</mask>
<g mask="url(#mask0_1965_5038)">
<path d="M57.408 32.6921L67.88 28.0001L57.408 23.3761L64.072 14.0601L52.716 15.2841L53.872 3.86012L44.624 10.5921L40 0.120117L35.376 10.5921L26.06 3.86012L27.284 15.2161L15.86 14.0601L22.592 23.3081L12.12 28.0001L22.592 32.6241L15.86 41.9401L27.216 40.7161L26.06 52.1401L35.308 45.4081L40 55.8801L44.624 45.4081L53.94 52.0721L52.716 40.7161L64.14 41.8721L57.408 32.6921Z" fill="url(#paint0_radial_1965_5038)" stroke="#AE6D00" stroke-width="2"/>
<path d="M25.2328 36.5059C29.926 44.6035 40.3327 47.3935 48.4948 42.7663C56.657 38.139 59.3777 27.6598 54.7525 19.4941C50.0593 11.3965 39.6525 8.60651 31.4904 13.2337C23.3963 17.929 20.6076 28.4083 25.2328 36.5059Z" fill="#FFD348"/>
<path d="M27.6236 35.1358C31.5668 41.9344 40.3369 44.3139 47.1355 40.3707C53.9341 36.4275 56.3135 27.6574 52.3704 20.8588C48.4272 14.0602 39.6571 11.6807 32.8585 15.6239C26.0599 19.5671 23.6804 28.3372 27.6236 35.1358Z" fill="url(#paint1_linear_1965_5038)"/>
</g>
<line x1="11.5" y1="26.5" x2="68.5" y2="26.5" stroke="#21292B" stroke-width="3" stroke-linecap="round"/>
<path d="M19.7612 51.6108L19.7603 51.6117C16.7172 54.7676 15 58.8591 15 63.2V63.4V63.4244L15.0006 63.4488C15.1126 68.0423 16.9106 72.2533 20.211 75.3394C23.2961 78.4108 27.4992 80.1 31.9 80.1H87.6C96.5864 80.1 104 72.8227 104 63.8C104 56.73 99.4681 50.5618 93.0335 48.3354C90.4768 36.6911 79.9526 28 67.7 28C58.4299 28 50.0102 32.8893 45.4313 40.6938C44.5454 40.488 43.6662 40.4 42.8 40.4C38.3287 40.4 34.3727 42.7859 32.3647 46.5016C32.2209 46.5 32.0815 46.5 31.9457 46.5L31.9 46.5C27.2669 46.5 22.9446 48.3137 19.7612 51.6108Z" fill="#999999" stroke="#56616C" stroke-width="4"/>
<g opacity="0.6">
<path fill-rule="evenodd" clip-rule="evenodd" d="M91.3 49.9C89.4 38.6 79.4 30 67.7 30C58.6 30 50.4 35.1 46.4 43.1C45.2 42.6 44 42.4 42.8 42.4C38.6 42.4 35 44.9 33.6 48.6C33 48.5 32.5 48.5 31.9 48.5C27.8 48.5 24 50.1 21.2 53C18.5 55.8 17 59.4 17 63.2V63.4C17.1 67.5 18.7 71.2 21.6 73.9C24.3 76.6 28 78.1 31.9 78.1H87.6C95.5 78.1 102 71.7 102 63.8C102 57.2 97.5 51.5 91.3 49.9Z" fill="url(#paint2_linear_1965_5038)" style="mix-blend-mode:multiply"/>
</g>
<g style="mix-blend-mode:multiply" opacity="0.3" filter="url(#filter1_f_1965_5038)">
<path d="M39.5 71C41.2867 71 64.3482 69.7276 65.98 69C68.2101 68.0057 63.5895 62.0283 65.98 61.5307C67.0594 61.306 68.6465 60.6032 68.6465 60.6032C68.6465 60.6032 72.9994 59.0007 73.75 59.0007C74.5006 59.0007 74.1244 56.0374 73.8901 54.1913L73.75 52.8707C73.75 52.0007 71.158 50.1968 70.75 48.0007C70.4663 46.4736 71.1738 44.416 71.0258 44.033C71.0258 44.033 70.9751 44.0044 70.99 44.0007C71.0045 43.997 71.0163 44.0084 71.0258 44.033C71.1384 44.0858 71.9481 44.3602 71.9481 44.3602C73.8959 45.0203 76.9771 46.0993 79.75 48.0007C81.4084 49.1378 83.6911 51.3144 83.6911 51.3144C83.6911 51.3144 85.3358 52.5864 85.75 53.0007C86.75 54.0007 89.75 57.0007 91.75 57.0007H96.75L99 58.5907L99.5 61.8007C99.5 69.7007 93 76.1007 85.1 76.1007H28.5C28.5 76.1007 33 71 39.5 71Z" fill="#B6B6B6"/>
</g>
<path d="M36.7 88.5H33.9L35.3 86C35.7 85.4 35.5 84.5 34.8 84.2C34.1 83.8 33.3 84 32.9 84.7L31.5 87.1L30.1 84.7C29.7 84 28.9 83.8 28.3 84.2C27.9 84.4 27.7 84.7 27.6 85C27.5 85.3 27.6 85.7 27.7 86L29.1 88.4H26.4C25.6 88.5 25 89.1 25 89.8C25 90.5 25.6 91.2 26.4 91.2H29.2L27.8 93.6C27.6 93.9 27.6 94.3 27.7 94.6C27.8 94.9 28 95.2 28.3 95.4C28.9 95.8 29.8 95.5 30.1 94.9L31.5 92.5L32.9 95C33.1 95.4 33.6 95.7 34.1 95.7C34.3 95.7 34.6 95.6 34.8 95.5C35.4 95.1 35.7 94.3 35.3 93.7L33.9 91.2H36.7C37.4 91.2 38.1 90.6 38.1 89.8C38.1 89 37.4 88.5 36.7 88.5Z" fill="#00A4D6"/>
<path d="M79.7 97.5H76.9L78.3 95C78.7 94.4 78.5 93.5 77.8 93.2C77.1 92.8 76.3 93 75.9 93.7L74.5 96.1L73.1 93.7C72.7 93 71.9 92.8 71.3 93.2C70.9 93.4 70.7 93.7 70.6 94C70.5 94.3 70.6 94.7 70.7 95L72.1 97.4H69.4C68.6 97.5 68 98.1 68 98.8C68 99.5 68.6 100.2 69.4 100.2H72.2L70.8 102.6C70.6 102.9 70.6 103.3 70.7 103.6C70.8 103.9 71 104.2 71.3 104.4C71.9 104.8 72.8 104.5 73.1 103.9L74.5 101.5L75.9 104C76.1 104.4 76.6 104.7 77.1 104.7C77.3 104.7 77.6 104.6 77.8 104.5C78.4 104.1 78.7 103.3 78.3 102.7L76.9 100.2H79.7C80.4 100.2 81.1 99.6 81.1 98.8C81.1 98 80.4 97.5 79.7 97.5Z" fill="#00A4D6"/>
<path d="M45.5 106C45.2 106 44.8 105.9 44.5 105.8C43.2 105.2 42.7 103.8 43.2 102.5L46.7 94.5C47.3 93.2 48.7 92.7 50 93.2C51.3 93.8 51.8 95.2 51.3 96.5L47.8 104.5C47.4 105.5 46.5 106 45.5 106Z" fill="#006EDB"/>
<path d="M60.5 98C60.2 98 59.8 97.9 59.5 97.8C58.2 97.2 57.7 95.8 58.2 94.5L61.7 86.5C62.3 85.2 63.7 84.7 65 85.2C66.3 85.8 66.8 87.2 66.3 88.5L62.8 96.5C62.4 97.5 61.5 98 60.5 98Z" fill="#006EDB"/>
<path d="M88.5 98C88.2 98 87.8 97.9 87.5 97.8C86.2 97.2 85.7 95.8 86.2 94.5L89.7 86.5C90.3 85.2 91.7 84.7 93 85.2C94.3 85.8 94.8 87.2 94.3 88.5L90.8 96.5C90.4 97.5 89.5 98 88.5 98Z" fill="#006EDB"/>
</g>
<defs>
<filter id="filter0_d_1965_5038" x="0" y="0" width="120" height="120" filterUnits="userSpaceOnUse" color-interpolation-filters="sRGB">
<feFlood flood-opacity="0" result="BackgroundImageFix"/>
<feColorMatrix in="SourceAlpha" type="matrix" values="0 0 0 0 0 0 0 0 0 0 0 0 0 0 0 0 0 0 127 0" result="hardAlpha"/>
<feMorphology radius="3" operator="dilate" in="SourceAlpha" result="effect1_dropShadow_1965_5038"/>
<feOffset dy="3"/>
<feGaussianBlur stdDeviation="3.5"/>
<feColorMatrix type="matrix" values="0 0 0 0 0 0 0 0 0 0 0 0 0 0 0 0 0 0 0.35 0"/>
<feBlend mode="normal" in2="BackgroundImageFix" result="effect1_dropShadow_1965_5038"/>
<feBlend mode="normal" in="SourceGraphic" in2="effect1_dropShadow_1965_5038" result="shape"/>
</filter>
<filter id="filter1_f_1965_5038" x="21.5" y="37" width="85" height="46.1006" filterUnits="userSpaceOnUse" color-interpolation-filters="sRGB">
<feFlood flood-opacity="0" result="BackgroundImageFix"/>
<feBlend mode="normal" in="SourceGraphic" in2="BackgroundImageFix" result="shape"/>
<feGaussianBlur stdDeviation="3.5" result="effect1_foregroundBlur_1965_5038"/>
</filter>
<radialGradient id="paint0_radial_1965_5038" cx="0" cy="0" r="1" gradientUnits="userSpaceOnUse" gradientTransform="translate(40 28.0001) scale(27.88)">
<stop offset="0.5143" stop-color="#D6B849"/>
<stop offset="0.6523" stop-color="#FFCE47"/>
<stop offset="1" stop-color="#FFDB73"/>
</radialGradient>
<linearGradient id="paint1_linear_1965_5038" x1="30.8171" y1="17.0574" x2="49.1767" y2="38.9375" gradientUnits="userSpaceOnUse">
<stop stop-color="#FFAF22"/>
<stop offset="0.9897" stop-color="#F09900"/>
</linearGradient>
<linearGradient id="paint2_linear_1965_5038" x1="57.5" y1="45.5" x2="59.5" y2="78.1" gradientUnits="userSpaceOnUse">
<stop offset="0.484375" stop-color="white" stop-opacity="0"/>
<stop offset="1" stop-color="#B3B2B2"/>
</linearGradient>
<clipPath id="clip0_1965_5038">
<rect width="100" height="100" fill="white" transform="translate(10 7)"/>
</clipPath>
</defs>
</svg>
