<svg width="104" height="102" viewBox="0 0 104 102" fill="none" xmlns="http://www.w3.org/2000/svg">
<mask id="mask0_1965_5038" style="mask-type:alpha" maskUnits="userSpaceOnUse" x="-4" y="21" width="82" height="41">
<rect x="-4" y="21" width="82" height="41" fill="#C4C4C4"/>
</mask>
<g mask="url(#mask0_1965_5038)">
<path d="M51.408 25.6921L61.88 21.0001L51.408 16.3761L58.072 7.06012L46.716 8.28412L47.872 -3.13988L38.624 3.59212L34 -6.87988L29.376 3.59212L20.06 -3.13988L21.284 8.21612L9.86 7.06012L16.592 16.3081L6.12 21.0001L16.592 25.6241L9.86 34.9401L21.216 33.7161L20.06 45.1401L29.308 38.4081L34 48.8801L38.624 38.4081L47.94 45.0721L46.716 33.7161L58.14 34.8721L51.408 25.6921Z" fill="url(#paint0_radial_1965_5038)" stroke="#C37F0E" stroke-width="3"/>
<path d="M19.2328 29.5059C23.926 37.6035 34.3327 40.3935 42.4948 35.7663C50.657 31.139 53.3777 20.6598 48.7525 12.4941C44.0593 4.39646 33.6525 1.60651 25.4904 6.23373C17.3963 10.929 14.6076 21.4083 19.2328 29.5059Z" fill="#FFD348"/>
<path d="M21.6236 28.1358C25.5668 34.9344 34.3369 37.3139 41.1355 33.3707C47.934 29.4275 50.3135 20.6574 46.3704 13.8588C42.4272 7.06021 33.6571 4.68071 26.8585 8.62388C20.0599 12.5671 17.6804 21.3372 21.6236 28.1358Z" fill="url(#paint1_linear_1965_5038)"/>
</g>
<line x1="5.5" y1="19.5" x2="62.5" y2="19.5" stroke="#21292B" stroke-width="3" stroke-linecap="round"/>
<path d="M13.7612 44.6108L13.7603 44.6117C10.7172 47.7676 9 51.8591 9 56.2V56.4V56.4244L9.00059 56.4488C9.11263 61.0423 10.9106 65.2533 14.211 68.3394C17.2961 71.4108 21.4992 73.1 25.9 73.1H81.6C90.5864 73.1 98 65.8227 98 56.8C98 49.73 93.4681 43.5618 87.0335 41.3354C84.4768 29.6911 73.9526 21 61.7 21C52.4299 21 44.0102 25.8893 39.4313 33.6938C38.5454 33.488 37.6662 33.4 36.8 33.4C32.3287 33.4 28.3727 35.7859 26.3647 39.5016C26.2209 39.5 26.0815 39.5 25.9457 39.5L25.9 39.5C21.2669 39.5 16.9446 41.3137 13.7612 44.6108Z" fill="#999999" stroke="#606E7C" stroke-width="4"/>
<g opacity="0.6">
<path fill-rule="evenodd" clip-rule="evenodd" d="M85.3 42.9C83.4 31.6 73.4 23 61.7 23C52.6 23 44.4 28.1 40.4 36.1C39.2 35.6 38 35.4 36.8 35.4C32.6 35.4 29 37.9 27.6 41.6C27 41.5 26.5 41.5 25.9 41.5C21.8 41.5 18 43.1 15.2 46C12.5 48.8 11 52.4 11 56.2V56.4C11.1 60.5 12.7 64.2 15.6 66.9C18.3 69.6 22 71.1 25.9 71.1H81.6C89.5 71.1 96 64.7 96 56.8C96 50.2 91.5 44.5 85.3 42.9Z" fill="url(#paint2_linear_1965_5038)" style="mix-blend-mode:multiply"/>
</g>
<g style="mix-blend-mode:multiply" opacity="0.3" filter="url(#filter0_f_1965_5038)">
<path d="M33.5 64C35.2867 64 58.3482 62.7276 59.98 62C62.2101 61.0057 57.5895 55.0283 59.98 54.5307C61.0594 54.306 62.6465 53.6032 62.6465 53.6032C62.6465 53.6032 66.9994 52.0007 67.75 52.0007C68.5006 52.0007 68.1244 49.0374 67.8901 47.1913L67.75 45.8707C67.75 45.0007 65.158 43.1968 64.75 41.0007C64.4663 39.4736 65.1738 37.416 65.0258 37.033C65.0258 37.033 64.9751 37.0044 64.99 37.0007C65.0045 36.997 65.0163 37.0084 65.0258 37.033C65.1384 37.0858 65.9481 37.3602 65.9481 37.3602C67.8959 38.0203 70.9771 39.0993 73.75 41.0007C75.4084 42.1378 77.6911 44.3144 77.6911 44.3144C77.6911 44.3144 79.3358 45.5864 79.75 46.0007C80.75 47.0007 83.75 50.0007 85.75 50.0007H90.75L93 51.5907L93.5 54.8007C93.5 62.7007 87 69.1007 79.1 69.1007H22.5C22.5 69.1007 27 64 33.5 64Z" fill="#B6B6B6"/>
</g>
<path d="M20.4884 79.9H20.4H20.3066L20.2139 79.9115C18.8336 80.0841 17.5 81.1835 17.5 82.8C17.5 84.2586 18.7034 85.7 20.4 85.7H20.5884L20.5218 85.8143C20.0258 86.5957 20.0807 87.4856 20.277 88.0743C20.4662 88.6421 20.8505 89.2364 21.4679 89.648C22.2125 90.1444 23.0679 90.1619 23.7386 89.9632C24.3843 89.7718 25.0417 89.3282 25.4147 88.6231L25.4734 88.5225L25.5779 88.7091C26.0633 89.6395 27.0978 90.2 28.1 90.2C28.6399 90.2 29.1859 89.9841 29.4708 89.8416L29.5543 89.7998L29.6321 89.748C30.6587 89.0636 31.5356 87.4246 30.5853 85.9252L30.4592 85.7H30.7C32.1586 85.7 33.6 84.4965 33.6 82.8C33.6 80.9629 32.0032 80 30.7 80H30.4592L30.5865 79.7725C31.3817 78.505 31.0393 76.5874 29.4712 75.8571C28.098 75.1198 26.417 75.5298 25.6015 76.9491L25.5 77.123L25.3985 76.949C24.6264 75.6059 22.9299 75.043 21.5481 75.9003C20.7903 76.3069 20.3755 76.9301 20.177 77.5256C20.0228 77.9881 20.0492 78.4262 20.0901 78.7121C20.1333 79.0143 20.2141 79.2856 20.277 79.4743L20.3261 79.6216L20.4043 79.7558L20.4884 79.9Z" fill="#00A4D6" stroke="white" stroke-width="3"/>
<path d="M63.4884 88.9H63.4H63.3066L63.2139 88.9115C61.8336 89.0841 60.5 90.1835 60.5 91.8C60.5 93.2586 61.7034 94.7 63.4 94.7H63.5884L63.5218 94.8143C63.0258 95.5957 63.0807 96.4856 63.277 97.0743C63.4662 97.6421 63.8505 98.2364 64.4679 98.648C65.2125 99.1444 66.0679 99.1619 66.7386 98.9632C67.3843 98.7718 68.0417 98.3282 68.4147 97.6231L68.4734 97.5225L68.5779 97.7091C69.0633 98.6395 70.0978 99.2 71.1 99.2C71.6399 99.2 72.1859 98.9841 72.4708 98.8416L72.5543 98.7998L72.6321 98.748C73.6587 98.0636 74.5356 96.4246 73.5853 94.9252L73.4592 94.7H73.7C75.1586 94.7 76.6 93.4965 76.6 91.8C76.6 89.9629 75.0032 89 73.7 89H73.4592L73.5865 88.7725C74.3817 87.505 74.0393 85.5874 72.4712 84.8571C71.098 84.1198 69.417 84.5298 68.6015 85.9491L68.5 86.123L68.3985 85.949C67.6264 84.6059 65.9299 84.043 64.5481 84.9003C63.7903 85.3069 63.3755 85.9301 63.177 86.5256C63.0228 86.9881 63.0492 87.4262 63.0901 87.7121C63.1333 88.0143 63.2141 88.2856 63.277 88.4743L63.3261 88.6216L63.4043 88.7558L63.4884 88.9Z" fill="#00A4D6" stroke="white" stroke-width="3"/>
<path d="M37.8714 100.162L37.9468 100.197L38.0257 100.223C38.3672 100.337 38.9528 100.5 39.5 100.5C41.0151 100.5 42.518 99.7142 43.1828 98.0817L46.6742 90.1013L46.6878 90.0702L46.7 90.0385C47.464 88.052 46.6952 85.7919 44.6286 84.8381L44.5841 84.8176L44.5385 84.8C42.552 84.036 40.2919 84.8048 39.3381 86.8714L39.3318 86.8851L39.3258 86.8988L35.8258 94.8988L35.8122 94.9299L35.8 94.9616C35.036 96.948 35.8048 99.2081 37.8714 100.162Z" fill="#006EDB" stroke="white" stroke-width="3"/>
<path d="M52.8714 92.162L52.9468 92.1968L53.0257 92.2231C53.3672 92.3369 53.9528 92.5 54.5 92.5C56.0151 92.5 57.518 91.7142 58.1828 90.0817L61.6742 82.1013L61.6878 82.0702L61.7 82.0385C62.464 80.052 61.6952 77.7919 59.6286 76.8381L59.5841 76.8176L59.5385 76.8C57.552 76.036 55.2919 76.8048 54.3381 78.8714L54.3318 78.8851L54.3258 78.8988L50.8258 86.8988L50.8122 86.9299L50.8 86.9616C50.036 88.948 50.8048 91.2081 52.8714 92.162Z" fill="#006EDB" stroke="white" stroke-width="3"/>
<path d="M80.8714 92.162L80.9468 92.1968L81.0257 92.2231C81.3672 92.3369 81.9528 92.5 82.5 92.5C84.0151 92.5 85.518 91.7142 86.1828 90.0817L89.6742 82.1013L89.6878 82.0702L89.7 82.0385C90.464 80.052 89.6952 77.7919 87.6286 76.8381L87.5841 76.8176L87.5385 76.8C85.552 76.036 83.2919 76.8048 82.3381 78.8714L82.3318 78.8851L82.3258 78.8988L78.8258 86.8988L78.8122 86.9299L78.8 86.9616C78.036 88.948 78.8048 91.2081 80.8714 92.162Z" fill="#006EDB" stroke="white" stroke-width="3"/>
<defs>
<filter id="filter0_f_1965_5038" x="15.5" y="30" width="85" height="46.1006" filterUnits="userSpaceOnUse" color-interpolation-filters="sRGB">
<feFlood flood-opacity="0" result="BackgroundImageFix"/>
<feBlend mode="normal" in="SourceGraphic" in2="BackgroundImageFix" result="shape"/>
<feGaussianBlur stdDeviation="3.5" result="effect1_foregroundBlur_1965_5038"/>
</filter>
<radialGradient id="paint0_radial_1965_5038" cx="0" cy="0" r="1" gradientUnits="userSpaceOnUse" gradientTransform="translate(34 21.0001) scale(27.88)">
<stop offset="0.5143" stop-color="#D6B849"/>
<stop offset="0.6523" stop-color="#FFCE47"/>
<stop offset="1" stop-color="#FFDB73"/>
</radialGradient>
<linearGradient id="paint1_linear_1965_5038" x1="24.8171" y1="10.0574" x2="43.1767" y2="31.9375" gradientUnits="userSpaceOnUse">
<stop stop-color="#FFAF22"/>
<stop offset="0.9897" stop-color="#F09900"/>
</linearGradient>
<linearGradient id="paint2_linear_1965_5038" x1="51.5" y1="38.5" x2="53.5" y2="71.1" gradientUnits="userSpaceOnUse">
<stop offset="0.484375" stop-color="white" stop-opacity="0"/>
<stop offset="1" stop-color="#B3B2B2"/>
</linearGradient>
</defs>
</svg>
