<svg width="106" height="108" viewBox="0 0 106 108" fill="none" xmlns="http://www.w3.org/2000/svg">
<path d="M31.5415 8.92676C33.3268 12.0511 34.4427 15.6963 34.4427 19.5646C34.4427 31.3182 24.9207 40.8402 13.1671 40.8402C12.2 40.8402 11.3073 40.7658 10.4146 40.617C14.1342 47.0146 20.9781 51.3292 28.789 51.3292C40.5427 51.3292 50.0646 41.8072 50.0646 30.0536C50.0646 19.1926 42.0305 10.2658 31.5415 8.92676Z" fill="url(#paint0_linear_1965_5051)"/>
<path d="M15.7612 50.6108L15.7603 50.6117C12.7172 53.7676 11 57.8591 11 62.2V62.4V62.4244L11.0006 62.4488C11.1126 67.0423 12.9106 71.2533 16.211 74.3394C19.2961 77.4108 23.4992 79.1 27.9 79.1H83.6C92.5864 79.1 100 71.8227 100 62.8C100 55.73 95.4681 49.5618 89.0335 47.3354C86.4768 35.6911 75.9526 27 63.7 27C54.4299 27 46.0102 31.8893 41.4313 39.6938C40.5454 39.488 39.6662 39.4 38.8 39.4C34.3287 39.4 30.3727 41.7859 28.3647 45.5016C28.2209 45.5 28.0815 45.5 27.9457 45.5L27.9 45.5C23.2669 45.5 18.9446 47.3137 15.7612 50.6108Z" fill="#999999" stroke="#606E7C" stroke-width="4"/>
<g opacity="0.6">
<path fill-rule="evenodd" clip-rule="evenodd" d="M87.3 48.9C85.4 37.6 75.4 29 63.7 29C54.6 29 46.4 34.1 42.4 42.1C41.2 41.6 40 41.4 38.8 41.4C34.6 41.4 31 43.9 29.6 47.6C29 47.5 28.5 47.5 27.9 47.5C23.8 47.5 20 49.1 17.2 52C14.5 54.8 13 58.4 13 62.2V62.4C13.1 66.5 14.7 70.2 17.6 72.9C20.3 75.6 24 77.1 27.9 77.1H83.6C91.5 77.1 98 70.7 98 62.8C98 56.2 93.5 50.5 87.3 48.9Z" fill="url(#paint1_linear_1965_5051)" style="mix-blend-mode:multiply"/>
</g>
<g style="mix-blend-mode:multiply" opacity="0.3" filter="url(#filter0_f_1965_5051)">
<path d="M35.5 70C37.2867 70 60.3482 68.7276 61.98 68C64.2101 67.0057 59.5895 61.0283 61.98 60.5307C63.0594 60.306 64.6465 59.6032 64.6465 59.6032C64.6465 59.6032 68.9994 58.0007 69.75 58.0007C70.5006 58.0007 70.1244 55.0374 69.8901 53.1913L69.75 51.8707C69.75 51.0007 67.158 49.1968 66.75 47.0007C66.4663 45.4736 67.1738 43.416 67.0258 43.033C67.0258 43.033 66.9751 43.0044 66.99 43.0007C67.0045 42.997 67.0163 43.0084 67.0258 43.033C67.1384 43.0858 67.9481 43.3602 67.9481 43.3602C69.8959 44.0203 72.9771 45.0993 75.75 47.0007C77.4084 48.1378 79.6911 50.3144 79.6911 50.3144C79.6911 50.3144 81.3358 51.5864 81.75 52.0007C82.75 53.0007 85.75 56.0007 87.75 56.0007H92.75L95 57.5907L95.5 60.8007C95.5 68.7007 89 75.1007 81.1 75.1007H24.5C24.5 75.1007 29 70 35.5 70Z" fill="#B6B6B6"/>
</g>
<path d="M22.4884 85.9H22.4H22.3066L22.2139 85.9115C20.8336 86.0841 19.5 87.1835 19.5 88.8C19.5 90.2586 20.7034 91.7 22.4 91.7H22.5884L22.5218 91.8143C22.0258 92.5957 22.0807 93.4856 22.277 94.0743C22.4662 94.6421 22.8505 95.2364 23.4679 95.648C24.2125 96.1444 25.0679 96.1619 25.7386 95.9632C26.3843 95.7718 27.0417 95.3282 27.4147 94.6231L27.4734 94.5225L27.5779 94.7091C28.0633 95.6395 29.0978 96.2 30.1 96.2C30.6399 96.2 31.1859 95.9841 31.4708 95.8416L31.5543 95.7998L31.6321 95.748C32.6587 95.0636 33.5356 93.4246 32.5853 91.9252L32.4592 91.7H32.7C34.1586 91.7 35.6 90.4965 35.6 88.8C35.6 86.9629 34.0032 86 32.7 86H32.4592L32.5865 85.7725C33.3817 84.505 33.0393 82.5874 31.4712 81.8571C30.098 81.1198 28.417 81.5298 27.6015 82.9491L27.5 83.123L27.3985 82.949C26.6264 81.6059 24.9299 81.043 23.5481 81.9003C22.7903 82.3069 22.3755 82.9301 22.177 83.5256C22.0228 83.9881 22.0492 84.4262 22.0901 84.7121C22.1333 85.0143 22.2141 85.2856 22.277 85.4743L22.3261 85.6216L22.4043 85.7558L22.4884 85.9Z" fill="#00A4D6" stroke="white" stroke-width="3"/>
<path d="M65.4884 94.9H65.4H65.3066L65.2139 94.9115C63.8336 95.0841 62.5 96.1835 62.5 97.8C62.5 99.2586 63.7034 100.7 65.4 100.7H65.5884L65.5218 100.814C65.0258 101.596 65.0807 102.486 65.277 103.074C65.4662 103.642 65.8505 104.236 66.4679 104.648C67.2125 105.144 68.0679 105.162 68.7386 104.963C69.3843 104.772 70.0417 104.328 70.4147 103.623L70.4734 103.522L70.5779 103.709C71.0633 104.64 72.0978 105.2 73.1 105.2C73.6399 105.2 74.1859 104.984 74.4708 104.842L74.5543 104.8L74.6321 104.748C75.6587 104.064 76.5356 102.425 75.5853 100.925L75.4592 100.7H75.7C77.1586 100.7 78.6 99.4965 78.6 97.8C78.6 95.9629 77.0032 95 75.7 95H75.4592L75.5865 94.7725C76.3817 93.505 76.0393 91.5874 74.4712 90.8571C73.098 90.1198 71.417 90.5298 70.6015 91.9491L70.5 92.123L70.3985 91.949C69.6264 90.6059 67.9299 90.043 66.5481 90.9003C65.7903 91.3069 65.3755 91.9301 65.177 92.5256C65.0228 92.9881 65.0492 93.4262 65.0901 93.7121C65.1333 94.0143 65.2141 94.2856 65.277 94.4743L65.3261 94.6216L65.4043 94.7558L65.4884 94.9Z" fill="#00A4D6" stroke="white" stroke-width="3"/>
<path d="M39.8714 106.162L39.9468 106.197L40.0257 106.223C40.3672 106.337 40.9528 106.5 41.5 106.5C43.0151 106.5 44.518 105.714 45.1828 104.082L48.6742 96.1013L48.6878 96.0702L48.7 96.0385C49.464 94.052 48.6952 91.7919 46.6286 90.8381L46.5841 90.8176L46.5385 90.8C44.552 90.036 42.2919 90.8048 41.3381 92.8714L41.3318 92.8851L41.3258 92.8988L37.8258 100.899L37.8122 100.93L37.8 100.962C37.036 102.948 37.8048 105.208 39.8714 106.162Z" fill="#006EDB" stroke="white" stroke-width="3"/>
<path d="M54.8714 98.162L54.9468 98.1968L55.0257 98.2231C55.3672 98.3369 55.9528 98.5 56.5 98.5C58.0151 98.5 59.518 97.7142 60.1828 96.0817L63.6742 88.1013L63.6878 88.0702L63.7 88.0385C64.464 86.052 63.6952 83.7919 61.6286 82.8381L61.5841 82.8176L61.5385 82.8C59.552 82.036 57.2919 82.8048 56.3381 84.8714L56.3318 84.8851L56.3258 84.8988L52.8258 92.8988L52.8122 92.9299L52.8 92.9616C52.036 94.948 52.8048 97.2081 54.8714 98.162Z" fill="#006EDB" stroke="white" stroke-width="3"/>
<path d="M82.8714 98.162L82.9468 98.1968L83.0257 98.2231C83.3672 98.3369 83.9528 98.5 84.5 98.5C86.0151 98.5 87.518 97.7142 88.1828 96.0817L91.6742 88.1013L91.6878 88.0702L91.7 88.0385C92.464 86.052 91.6952 83.7919 89.6286 82.8381L89.5841 82.8176L89.5385 82.8C87.552 82.036 85.2919 82.8048 84.3381 84.8714L84.3318 84.8851L84.3258 84.8988L80.8258 92.8988L80.8122 92.9299L80.8 92.9616C80.036 94.948 80.8048 97.2081 82.8714 98.162Z" fill="#006EDB" stroke="white" stroke-width="3"/>
<defs>
<filter id="filter0_f_1965_5051" x="17.5" y="36" width="85" height="46.1006" filterUnits="userSpaceOnUse" color-interpolation-filters="sRGB">
<feFlood flood-opacity="0" result="BackgroundImageFix"/>
<feBlend mode="normal" in="SourceGraphic" in2="BackgroundImageFix" result="shape"/>
<feGaussianBlur stdDeviation="3.5" result="effect1_foregroundBlur_1965_5051"/>
</filter>
<linearGradient id="paint0_linear_1965_5051" x1="18.9138" y1="49.4636" x2="46.2563" y2="16.8781" gradientUnits="userSpaceOnUse">
<stop stop-color="#686E73"/>
<stop offset="0.9891" stop-color="#6A7075"/>
</linearGradient>
<linearGradient id="paint1_linear_1965_5051" x1="53.5" y1="44.5" x2="55.5" y2="77.1" gradientUnits="userSpaceOnUse">
<stop offset="0.484375" stop-color="white" stop-opacity="0"/>
<stop offset="1" stop-color="#B3B2B2"/>
</linearGradient>
</defs>
</svg>
