<svg width="100" height="103" viewBox="0 0 100 103" fill="none" xmlns="http://www.w3.org/2000/svg">
<g clip-path="url(#clip0_1965_5012)">
<path fill-rule="evenodd" clip-rule="evenodd" d="M52.3146 18.5169L54.072 16.0601L42.716 17.2841L43.872 5.86012L34.624 12.5921L30 2.12012L25.376 12.5921L16.06 5.86012L17.284 17.2161L5.86 16.0601L12.592 25.3081L2.12 30.0001L12.592 34.6241L5.86 43.9401L6.4302 43.8787C6.79888 43.4377 7.18901 43.0111 7.6 42.6001C11.1 39.0001 15.7 36.9001 20.7 36.6001C23.4 32.7001 27.9 30.4001 32.8 30.4001H33.9C38.2631 24.2594 44.9113 19.9466 52.3146 18.5169Z" fill="url(#paint0_radial_1965_5012)" stroke="#C37F0E" stroke-width="3"/>
</g>
<path fill-rule="evenodd" clip-rule="evenodd" d="M14.867 37.8308C16.7147 37.1384 18.6745 36.7215 20.7 36.6C23.4 32.7 27.9 30.4 32.8 30.4H33.9C36.6679 26.5044 40.3553 23.3445 44.5718 21.1896C39.7966 13.3271 29.5494 10.665 21.4904 15.2337C13.6195 19.7995 10.7654 29.8348 14.867 37.8308Z" fill="#FFD348"/>
<path fill-rule="evenodd" clip-rule="evenodd" d="M17.5653 37.0338C18.5875 36.8093 19.6347 36.6637 20.7 36.5998C23.4 32.6998 27.9 30.3998 32.8 30.3998H33.9C36.1324 27.2578 38.9631 24.5944 42.187 22.5509C38.1607 15.9887 29.5536 13.7403 22.8585 17.6234C16.0937 21.547 13.7042 30.2496 17.5653 37.0338Z" fill="url(#paint1_linear_1965_5012)"/>
<path d="M9.7612 44.6108L9.76031 44.6117C6.71717 47.7676 5 51.8591 5 56.2V56.4V56.4244L5.00059 56.4488C5.11263 61.0423 6.91058 65.2533 10.211 68.3394C13.2961 71.4108 17.4992 73.1 21.9 73.1H77.6C86.5864 73.1 94 65.8227 94 56.8C94 49.73 89.4681 43.5618 83.0335 41.3354C80.4768 29.6911 69.9526 21 57.7 21C48.4299 21 40.0102 25.8893 35.4313 33.6938C34.5454 33.488 33.6662 33.4 32.8 33.4C28.3287 33.4 24.3727 35.7859 22.3647 39.5016C22.2209 39.5 22.0815 39.5 21.9457 39.5L21.9 39.5C17.2669 39.5 12.9446 41.3137 9.7612 44.6108Z" fill="#999999" stroke="#606E7C" stroke-width="4"/>
<g opacity="0.6">
<path fill-rule="evenodd" clip-rule="evenodd" d="M81.3 42.9C79.4 31.6 69.4 23 57.7 23C48.6 23 40.4 28.1 36.4 36.1C35.2 35.6 34 35.4 32.8 35.4C28.6 35.4 25 37.9 23.6 41.6C23 41.5 22.5 41.5 21.9 41.5C17.8 41.5 14 43.1 11.2 46C8.5 48.8 7 52.4 7 56.2V56.4C7.1 60.5 8.7 64.2 11.6 66.9C14.3 69.6 18 71.1 21.9 71.1H77.6C85.5 71.1 92 64.7 92 56.8C92 50.2 87.5 44.5 81.3 42.9Z" fill="url(#paint2_linear_1965_5012)" style="mix-blend-mode:multiply"/>
</g>
<g style="mix-blend-mode:multiply" opacity="0.3" filter="url(#filter0_f_1965_5012)">
<path d="M29.5 64C31.2867 64 54.3482 62.7276 55.98 62C58.2101 61.0057 53.5895 55.0283 55.98 54.5307C57.0594 54.306 58.6465 53.6032 58.6465 53.6032C58.6465 53.6032 62.9994 52.0007 63.75 52.0007C64.5006 52.0007 64.1244 49.0374 63.8901 47.1913L63.75 45.8707C63.75 45.0007 61.158 43.1968 60.75 41.0007C60.4663 39.4736 61.1738 37.416 61.0258 37.033C61.0258 37.033 60.9751 37.0044 60.99 37.0007C61.0045 36.997 61.0163 37.0084 61.0258 37.033C61.1384 37.0858 61.9481 37.3602 61.9481 37.3602C63.8959 38.0203 66.9771 39.0993 69.75 41.0007C71.4084 42.1378 73.6911 44.3144 73.6911 44.3144C73.6911 44.3144 75.3358 45.5864 75.75 46.0007C76.75 47.0007 79.75 50.0007 81.75 50.0007H86.75L89 51.5907L89.5 54.8007C89.5 62.7007 83 69.1007 75.1 69.1007H18.5C18.5 69.1007 23 64 29.5 64Z" fill="#B6B6B6"/>
</g>
<path d="M44.4884 81.9H44.4H44.3066L44.2139 81.9115C42.8336 82.0841 41.5 83.1835 41.5 84.8C41.5 86.2586 42.7034 87.7 44.4 87.7H44.5884L44.5218 87.8143C44.0258 88.5957 44.0807 89.4856 44.277 90.0743C44.4662 90.6421 44.8505 91.2364 45.4679 91.648C46.2125 92.1444 47.0679 92.1619 47.7386 91.9632C48.3843 91.7718 49.0417 91.3282 49.4147 90.6231L49.4734 90.5225L49.5779 90.7091C50.0633 91.6395 51.0978 92.2 52.1 92.2C52.6399 92.2 53.1859 91.9841 53.4708 91.8416L53.5543 91.7998L53.6321 91.748C54.6587 91.0636 55.5356 89.4246 54.5853 87.9252L54.4592 87.7H54.7C56.1586 87.7 57.6 86.4965 57.6 84.8C57.6 82.9629 56.0032 82 54.7 82H54.4592L54.5865 81.7725C55.3817 80.505 55.0393 78.5874 53.4712 77.8571C52.098 77.1198 50.417 77.5298 49.6015 78.9491L49.5 79.123L49.3985 78.949C48.6264 77.6059 46.9299 77.043 45.5481 77.9003C44.7903 78.3069 44.3755 78.9301 44.177 79.5256C44.0228 79.9881 44.0492 80.4262 44.0901 80.7121C44.1333 81.0143 44.2141 81.2856 44.277 81.4743L44.3261 81.6216L44.4043 81.7558L44.4884 81.9Z" fill="#00A4D6" stroke="white" stroke-width="3"/>
<path d="M72.4884 81.9H72.4H72.3066L72.2139 81.9115C70.8336 82.0841 69.5 83.1835 69.5 84.8C69.5 86.2586 70.7034 87.7 72.4 87.7H72.5884L72.5218 87.8143C72.0258 88.5957 72.0807 89.4856 72.277 90.0743C72.4662 90.6421 72.8505 91.2364 73.4679 91.648C74.2125 92.1444 75.0679 92.1619 75.7386 91.9632C76.3843 91.7718 77.0417 91.3282 77.4147 90.6231L77.4734 90.5225L77.5779 90.7091C78.0633 91.6395 79.0978 92.2 80.1 92.2C80.6399 92.2 81.1859 91.9841 81.4708 91.8416L81.5543 91.7998L81.6321 91.748C82.6587 91.0636 83.5356 89.4246 82.5853 87.9252L82.4592 87.7H82.7C84.1586 87.7 85.6 86.4965 85.6 84.8C85.6 82.9629 84.0032 82 82.7 82H82.4592L82.5865 81.7725C83.3817 80.505 83.0393 78.5874 81.4712 77.8571C80.098 77.1198 78.417 77.5298 77.6015 78.9491L77.5 79.123L77.3985 78.949C76.6264 77.6059 74.9299 77.043 73.5481 77.9003C72.7903 78.3069 72.3755 78.9301 72.177 79.5256C72.0228 79.9881 72.0492 80.4262 72.0901 80.7121C72.1333 81.0143 72.2141 81.2856 72.277 81.4743L72.3261 81.6216L72.4043 81.7558L72.4884 81.9Z" fill="#00A4D6" stroke="white" stroke-width="3"/>
<path d="M58.4884 90.9H58.4H58.3066L58.2139 90.9115C56.8336 91.0841 55.5 92.1835 55.5 93.8C55.5 95.2586 56.7034 96.7 58.4 96.7H58.5884L58.5218 96.8143C58.0258 97.5957 58.0807 98.4856 58.277 99.0743C58.4662 99.6421 58.8505 100.236 59.4679 100.648C60.2125 101.144 61.0679 101.162 61.7386 100.963C62.3843 100.772 63.0417 100.328 63.4147 99.6231L63.4734 99.5225L63.5779 99.7091C64.0633 100.64 65.0978 101.2 66.1 101.2C66.6399 101.2 67.1859 100.984 67.4708 100.842L67.5543 100.8L67.6321 100.748C68.6587 100.064 69.5356 98.4246 68.5853 96.9252L68.4592 96.7H68.7C70.1586 96.7 71.6 95.4965 71.6 93.8C71.6 91.9629 70.0032 91 68.7 91H68.4592L68.5865 90.7725C69.3817 89.505 69.0393 87.5874 67.4712 86.8571C66.098 86.1198 64.417 86.5298 63.6015 87.9491L63.5 88.123L63.3985 87.949C62.6264 86.6059 60.9299 86.043 59.5481 86.9003C58.7903 87.3069 58.3755 87.9301 58.177 88.5256C58.0228 88.9881 58.0492 89.4262 58.0901 89.7121C58.1333 90.0143 58.2141 90.2856 58.277 90.4743L58.3261 90.6216L58.4043 90.7558L58.4884 90.9Z" fill="#00A4D6" stroke="white" stroke-width="3"/>
<path d="M30.4884 90.9H30.4H30.3066L30.2139 90.9115C28.8336 91.0841 27.5 92.1835 27.5 93.8C27.5 95.2586 28.7034 96.7 30.4 96.7H30.5884L30.5218 96.8143C30.0258 97.5957 30.0807 98.4856 30.277 99.0743C30.4662 99.6421 30.8505 100.236 31.4679 100.648C32.2125 101.144 33.0679 101.162 33.7386 100.963C34.3843 100.772 35.0417 100.328 35.4147 99.6231L35.4734 99.5225L35.5779 99.7091C36.0633 100.64 37.0978 101.2 38.1 101.2C38.6399 101.2 39.1859 100.984 39.4708 100.842L39.5543 100.8L39.6321 100.748C40.6587 100.064 41.5356 98.4246 40.5853 96.9252L40.4592 96.7H40.7C42.1586 96.7 43.6 95.4965 43.6 93.8C43.6 91.9629 42.0032 91 40.7 91H40.4592L40.5865 90.7725C41.3817 89.505 41.0393 87.5874 39.4712 86.8571C38.098 86.1198 36.417 86.5298 35.6015 87.9491L35.5 88.123L35.3985 87.949C34.6264 86.6059 32.9299 86.043 31.5481 86.9003C30.7903 87.3069 30.3755 87.9301 30.177 88.5256C30.0228 88.9881 30.0492 89.4262 30.0901 89.7121C30.1333 90.0143 30.2141 90.2856 30.277 90.4743L30.3261 90.6216L30.4043 90.7558L30.4884 90.9Z" fill="#00A4D6" stroke="white" stroke-width="3"/>
<path d="M16.4884 81.9H16.4H16.3066L16.2139 81.9115C14.8336 82.0841 13.5 83.1835 13.5 84.8C13.5 86.2586 14.7034 87.7 16.4 87.7H16.5884L16.5218 87.8143C16.0258 88.5957 16.0807 89.4856 16.277 90.0743C16.4662 90.6421 16.8505 91.2364 17.4679 91.648C18.2125 92.1444 19.0679 92.1619 19.7386 91.9632C20.3843 91.7718 21.0417 91.3282 21.4147 90.6231L21.4734 90.5225L21.5779 90.7091C22.0633 91.6395 23.0978 92.2 24.1 92.2C24.6399 92.2 25.1859 91.9841 25.4708 91.8416L25.5543 91.7998L25.6321 91.748C26.6587 91.0636 27.5356 89.4246 26.5853 87.9252L26.4592 87.7H26.7C28.1586 87.7 29.6 86.4965 29.6 84.8C29.6 82.9629 28.0032 82 26.7 82H26.4592L26.5865 81.7725C27.3817 80.505 27.0393 78.5874 25.4712 77.8571C24.098 77.1198 22.417 77.5298 21.6015 78.9491L21.5 79.123L21.3985 78.949C20.6264 77.6059 18.9299 77.043 17.5481 77.9003C16.7903 78.3069 16.3755 78.9301 16.177 79.5256C16.0228 79.9881 16.0492 80.4262 16.0901 80.7121C16.1333 81.0143 16.2141 81.2856 16.277 81.4743L16.3261 81.6216L16.4043 81.7558L16.4884 81.9Z" fill="#00A4D6" stroke="white" stroke-width="3"/>
<defs>
<filter id="filter0_f_1965_5012" x="11.5" y="30" width="85" height="46.1006" filterUnits="userSpaceOnUse" color-interpolation-filters="sRGB">
<feFlood flood-opacity="0" result="BackgroundImageFix"/>
<feBlend mode="normal" in="SourceGraphic" in2="BackgroundImageFix" result="shape"/>
<feGaussianBlur stdDeviation="3.5" result="effect1_foregroundBlur_1965_5012"/>
</filter>
<radialGradient id="paint0_radial_1965_5012" cx="0" cy="0" r="1" gradientUnits="userSpaceOnUse" gradientTransform="translate(30 30.0001) scale(27.88)">
<stop offset="0.5143" stop-color="#D6B849"/>
<stop offset="0.6523" stop-color="#FFCE47"/>
<stop offset="1" stop-color="#FFDB73"/>
</radialGradient>
<linearGradient id="paint1_linear_1965_5012" x1="20.8172" y1="19.0569" x2="39.1767" y2="40.9371" gradientUnits="userSpaceOnUse">
<stop stop-color="#FFAF22"/>
<stop offset="0.9897" stop-color="#F09900"/>
</linearGradient>
<linearGradient id="paint2_linear_1965_5012" x1="47.5" y1="38.5" x2="49.5" y2="71.1" gradientUnits="userSpaceOnUse">
<stop offset="0.484375" stop-color="white" stop-opacity="0"/>
<stop offset="1" stop-color="#B3B2B2"/>
</linearGradient>
<clipPath id="clip0_1965_5012">
<rect width="100" height="100" fill="white"/>
</clipPath>
</defs>
</svg>
