<svg width="100" height="100" viewBox="0 0 100 100" fill="none" xmlns="http://www.w3.org/2000/svg">
<g clip-path="url(#clip0_1965_5040)">
<mask id="mask0_1965_5040" style="mask-type:alpha" maskUnits="userSpaceOnUse" x="-8" y="21" width="82" height="41">
<rect x="-8" y="21" width="82" height="41" fill="#C4C4C4"/>
</mask>
<g mask="url(#mask0_1965_5040)">
<path d="M47.408 25.6921L57.88 21.0001L47.408 16.3761L54.072 7.06012L42.716 8.28412L43.872 -3.13988L34.624 3.59212L30 -6.87988L25.376 3.59212L16.06 -3.13988L17.284 8.21612L5.86 7.06012L12.592 16.3081L2.12 21.0001L12.592 25.6241L5.86 34.9401L17.216 33.7161L16.06 45.1401L25.308 38.4081L30 48.8801L34.624 38.4081L43.94 45.0721L42.716 33.7161L54.14 34.8721L47.408 25.6921Z" fill="url(#paint0_radial_1965_5040)" stroke="#AE6D00" stroke-width="2"/>
<path d="M15.2328 29.5059C19.926 37.6035 30.3327 40.3935 38.4948 35.7663C46.657 31.139 49.3777 20.6598 44.7525 12.4941C40.0593 4.39646 29.6525 1.60651 21.4904 6.23373C13.3963 10.929 10.6076 21.4083 15.2328 29.5059Z" fill="#FFD348"/>
<path d="M17.6236 28.1358C21.5668 34.9344 30.3369 37.3139 37.1355 33.3707C43.9341 29.4275 46.3135 20.6574 42.3704 13.8588C38.4272 7.06021 29.6571 4.68071 22.8585 8.62388C16.0599 12.5671 13.6804 21.3372 17.6236 28.1358Z" fill="url(#paint1_linear_1965_5040)"/>
</g>
<line x1="1.5" y1="19.5" x2="58.5" y2="19.5" stroke="#21292B" stroke-width="3" stroke-linecap="round"/>
<path d="M9.7612 44.6108L9.76031 44.6117C6.71717 47.7676 5 51.8591 5 56.2V56.4V56.4244L5.00059 56.4488C5.11263 61.0423 6.91058 65.2533 10.211 68.3394C13.2961 71.4108 17.4992 73.1 21.9 73.1H77.6C86.5864 73.1 94 65.8227 94 56.8C94 49.73 89.4681 43.5618 83.0335 41.3354C80.4768 29.6911 69.9526 21 57.7 21C48.4299 21 40.0102 25.8893 35.4313 33.6938C34.5454 33.488 33.6662 33.4 32.8 33.4C28.3287 33.4 24.3727 35.7859 22.3647 39.5016C22.2209 39.5 22.0815 39.5 21.9457 39.5L21.9 39.5C17.2669 39.5 12.9446 41.3137 9.7612 44.6108Z" fill="#999999" stroke="#56616C" stroke-width="4"/>
<g opacity="0.6">
<path fill-rule="evenodd" clip-rule="evenodd" d="M81.3 42.9C79.4 31.6 69.4 23 57.7 23C48.6 23 40.4 28.1 36.4 36.1C35.2 35.6 34 35.4 32.8 35.4C28.6 35.4 25 37.9 23.6 41.6C23 41.5 22.5 41.5 21.9 41.5C17.8 41.5 14 43.1 11.2 46C8.5 48.8 7 52.4 7 56.2V56.4C7.1 60.5 8.7 64.2 11.6 66.9C14.3 69.6 18 71.1 21.9 71.1H77.6C85.5 71.1 92 64.7 92 56.8C92 50.2 87.5 44.5 81.3 42.9Z" fill="url(#paint2_linear_1965_5040)" style="mix-blend-mode:multiply"/>
</g>
<g style="mix-blend-mode:multiply" opacity="0.3" filter="url(#filter0_f_1965_5040)">
<path d="M29.5 64C31.2867 64 54.3482 62.7276 55.98 62C58.2101 61.0057 53.5895 55.0283 55.98 54.5307C57.0594 54.306 58.6465 53.6032 58.6465 53.6032C58.6465 53.6032 62.9994 52.0007 63.75 52.0007C64.5006 52.0007 64.1244 49.0374 63.8901 47.1913L63.75 45.8707C63.75 45.0007 61.158 43.1968 60.75 41.0007C60.4663 39.4736 61.1738 37.416 61.0258 37.033C61.0258 37.033 60.9751 37.0044 60.99 37.0007C61.0045 36.997 61.0163 37.0084 61.0258 37.033C61.1384 37.0858 61.9481 37.3602 61.9481 37.3602C63.8959 38.0203 66.9771 39.0993 69.75 41.0007C71.4084 42.1378 73.6911 44.3144 73.6911 44.3144C73.6911 44.3144 75.3358 45.5864 75.75 46.0007C76.75 47.0007 79.75 50.0007 81.75 50.0007H86.75L89 51.5907L89.5 54.8007C89.5 62.7007 83 69.1007 75.1 69.1007H18.5C18.5 69.1007 23 64 29.5 64Z" fill="#B6B6B6"/>
</g>
<path d="M54.7 83.5H51.9L53.3 81C53.7 80.4 53.5 79.5 52.8 79.2C52.1 78.8 51.3 79 50.9 79.7L49.5 82.1L48.1 79.7C47.7 79 46.9 78.8 46.3 79.2C45.9 79.4 45.7 79.7 45.6 80C45.5 80.3 45.6 80.7 45.7 81L47.1 83.4H44.4C43.6 83.5 43 84.1 43 84.8C43 85.5 43.6 86.2 44.4 86.2H47.2L45.8 88.6C45.6 88.9 45.6 89.3 45.7 89.6C45.8 89.9 46 90.2 46.3 90.4C46.9 90.8 47.8 90.5 48.1 89.9L49.5 87.5L50.9 90C51.1 90.4 51.6 90.7 52.1 90.7C52.3 90.7 52.6 90.6 52.8 90.5C53.4 90.1 53.7 89.3 53.3 88.7L51.9 86.2H54.7C55.4 86.2 56.1 85.6 56.1 84.8C56.1 84 55.4 83.5 54.7 83.5Z" fill="#00A4D6"/>
<path d="M82.7 83.5H79.9L81.3 81C81.7 80.4 81.5 79.5 80.8 79.2C80.1 78.8 79.3 79 78.9 79.7L77.5 82.1L76.1 79.7C75.7 79 74.9 78.8 74.3 79.2C73.9 79.4 73.7 79.7 73.6 80C73.5 80.3 73.6 80.7 73.7 81L75.1 83.4H72.4C71.6 83.5 71 84.1 71 84.8C71 85.5 71.6 86.2 72.4 86.2H75.2L73.8 88.6C73.6 88.9 73.6 89.3 73.7 89.6C73.8 89.9 74 90.2 74.3 90.4C74.9 90.8 75.8 90.5 76.1 89.9L77.5 87.5L78.9 90C79.1 90.4 79.6 90.7 80.1 90.7C80.3 90.7 80.6 90.6 80.8 90.5C81.4 90.1 81.7 89.3 81.3 88.7L79.9 86.2H82.7C83.4 86.2 84.1 85.6 84.1 84.8C84.1 84 83.4 83.5 82.7 83.5Z" fill="#00A4D6"/>
<path d="M68.7 92.5H65.9L67.3 90C67.7 89.4 67.5 88.5 66.8 88.2C66.1 87.8 65.3 88 64.9 88.7L63.5 91.1L62.1 88.7C61.7 88 60.9 87.8 60.3 88.2C59.9 88.4 59.7 88.7 59.6 89C59.5 89.3 59.6 89.7 59.7 90L61.1 92.4H58.4C57.6 92.5 57 93.1 57 93.8C57 94.5 57.6 95.2 58.4 95.2H61.2L59.8 97.6C59.6 97.9 59.6 98.3 59.7 98.6C59.8 98.9 60 99.2 60.3 99.4C60.9 99.8 61.8 99.5 62.1 98.9L63.5 96.5L64.9 99C65.1 99.4 65.6 99.7 66.1 99.7C66.3 99.7 66.6 99.6 66.8 99.5C67.4 99.1 67.7 98.3 67.3 97.7L65.9 95.2H68.7C69.4 95.2 70.1 94.6 70.1 93.8C70.1 93 69.4 92.5 68.7 92.5Z" fill="#00A4D6"/>
<path d="M40.7 92.5H37.9L39.3 90C39.7 89.4 39.5 88.5 38.8 88.2C38.1 87.8 37.3 88 36.9 88.7L35.5 91.1L34.1 88.7C33.7 88 32.9 87.8 32.3 88.2C31.9 88.4 31.7 88.7 31.6 89C31.5 89.3 31.6 89.7 31.7 90L33.1 92.4H30.4C29.6 92.5 29 93.1 29 93.8C29 94.5 29.6 95.2 30.4 95.2H33.2L31.8 97.6C31.6 97.9 31.6 98.3 31.7 98.6C31.8 98.9 32 99.2 32.3 99.4C32.9 99.8 33.8 99.5 34.1 98.9L35.5 96.5L36.9 99C37.1 99.4 37.6 99.7 38.1 99.7C38.3 99.7 38.6 99.6 38.8 99.5C39.4 99.1 39.7 98.3 39.3 97.7L37.9 95.2H40.7C41.4 95.2 42.1 94.6 42.1 93.8C42.1 93 41.4 92.5 40.7 92.5Z" fill="#00A4D6"/>
<path d="M26.7 83.5H23.9L25.3 81C25.7 80.4 25.5 79.5 24.8 79.2C24.1 78.8 23.3 79 22.9 79.7L21.5 82.1L20.1 79.7C19.7 79 18.9 78.8 18.3 79.2C17.9 79.4 17.7 79.7 17.6 80C17.5 80.3 17.6 80.7 17.7 81L19.1 83.4H16.4C15.6 83.5 15 84.1 15 84.8C15 85.5 15.6 86.2 16.4 86.2H19.2L17.8 88.6C17.6 88.9 17.6 89.3 17.7 89.6C17.8 89.9 18 90.2 18.3 90.4C18.9 90.8 19.8 90.5 20.1 89.9L21.5 87.5L22.9 90C23.1 90.4 23.6 90.7 24.1 90.7C24.3 90.7 24.6 90.6 24.8 90.5C25.4 90.1 25.7 89.3 25.3 88.7L23.9 86.2H26.7C27.4 86.2 28.1 85.6 28.1 84.8C28.1 84 27.4 83.5 26.7 83.5Z" fill="#00A4D6"/>
</g>
<defs>
<filter id="filter0_f_1965_5040" x="11.5" y="30" width="85" height="46.1006" filterUnits="userSpaceOnUse" color-interpolation-filters="sRGB">
<feFlood flood-opacity="0" result="BackgroundImageFix"/>
<feBlend mode="normal" in="SourceGraphic" in2="BackgroundImageFix" result="shape"/>
<feGaussianBlur stdDeviation="3.5" result="effect1_foregroundBlur_1965_5040"/>
</filter>
<radialGradient id="paint0_radial_1965_5040" cx="0" cy="0" r="1" gradientUnits="userSpaceOnUse" gradientTransform="translate(30 21.0001) scale(27.88)">
<stop offset="0.5143" stop-color="#D6B849"/>
<stop offset="0.6523" stop-color="#FFCE47"/>
<stop offset="1" stop-color="#FFDB73"/>
</radialGradient>
<linearGradient id="paint1_linear_1965_5040" x1="20.8171" y1="10.0574" x2="39.1767" y2="31.9375" gradientUnits="userSpaceOnUse">
<stop stop-color="#FFAF22"/>
<stop offset="0.9897" stop-color="#F09900"/>
</linearGradient>
<linearGradient id="paint2_linear_1965_5040" x1="47.5" y1="38.5" x2="49.5" y2="71.1" gradientUnits="userSpaceOnUse">
<stop offset="0.484375" stop-color="white" stop-opacity="0"/>
<stop offset="1" stop-color="#B3B2B2"/>
</linearGradient>
<clipPath id="clip0_1965_5040">
<rect width="100" height="100" fill="white"/>
</clipPath>
</defs>
</svg>
