<svg width="106" height="109" viewBox="0 0 106 109" fill="none" xmlns="http://www.w3.org/2000/svg">
<path d="M31.5415 8.92676C33.3268 12.0511 34.4427 15.6963 34.4427 19.5646C34.4427 31.3182 24.9207 40.8402 13.1671 40.8402C12.2 40.8402 11.3073 40.7658 10.4146 40.617C14.1342 47.0146 20.9781 51.3292 28.789 51.3292C40.5427 51.3292 50.0646 41.8072 50.0646 30.0536C50.0646 19.1926 42.0305 10.2658 31.5415 8.92676Z" fill="url(#paint0_linear_1965_5053)"/>
<path d="M15.7612 50.6108L15.7603 50.6117C12.7172 53.7676 11 57.8591 11 62.2V62.4V62.4244L11.0006 62.4488C11.1126 67.0423 12.9106 71.2533 16.211 74.3394C19.2961 77.4108 23.4992 79.1 27.9 79.1H83.6C92.5864 79.1 100 71.8227 100 62.8C100 55.73 95.4681 49.5618 89.0335 47.3354C86.4768 35.6911 75.9526 27 63.7 27C54.4299 27 46.0102 31.8893 41.4313 39.6938C40.5454 39.488 39.6662 39.4 38.8 39.4C34.3287 39.4 30.3727 41.7859 28.3647 45.5016C28.2209 45.5 28.0815 45.5 27.9457 45.5L27.9 45.5C23.2669 45.5 18.9446 47.3137 15.7612 50.6108Z" fill="#999999" stroke="#606E7C" stroke-width="4"/>
<g opacity="0.6">
<path fill-rule="evenodd" clip-rule="evenodd" d="M87.3 48.9C85.4 37.6 75.4 29 63.7 29C54.6 29 46.4 34.1 42.4 42.1C41.2 41.6 40 41.4 38.8 41.4C34.6 41.4 31 43.9 29.6 47.6C29 47.5 28.5 47.5 27.9 47.5C23.8 47.5 20 49.1 17.2 52C14.5 54.8 13 58.4 13 62.2V62.4C13.1 66.5 14.7 70.2 17.6 72.9C20.3 75.6 24 77.1 27.9 77.1H83.6C91.5 77.1 98 70.7 98 62.8C98 56.2 93.5 50.5 87.3 48.9Z" fill="url(#paint1_linear_1965_5053)" style="mix-blend-mode:multiply"/>
</g>
<g style="mix-blend-mode:multiply" opacity="0.3" filter="url(#filter0_f_1965_5053)">
<path d="M35.5 70C37.2867 70 60.3482 68.7276 61.98 68C64.2101 67.0057 59.5895 61.0283 61.98 60.5307C63.0594 60.306 64.6465 59.6032 64.6465 59.6032C64.6465 59.6032 68.9994 58.0007 69.75 58.0007C70.5006 58.0007 70.1244 55.0374 69.8901 53.1913L69.75 51.8707C69.75 51.0007 67.158 49.1968 66.75 47.0007C66.4663 45.4736 67.1738 43.416 67.0258 43.033C67.0258 43.033 66.9751 43.0044 66.99 43.0007C67.0045 42.997 67.0163 43.0084 67.0258 43.033C67.1384 43.0858 67.9481 43.3602 67.9481 43.3602C69.8959 44.0203 72.9771 45.0993 75.75 47.0007C77.4084 48.1378 79.6911 50.3144 79.6911 50.3144C79.6911 50.3144 81.3358 51.5864 81.75 52.0007C82.75 53.0007 85.75 56.0007 87.75 56.0007H92.75L95 57.5907L95.5 60.8007C95.5 68.7007 89 75.1007 81.1 75.1007H24.5C24.5 75.1007 29 70 35.5 70Z" fill="#B6B6B6"/>
</g>
<path d="M50.4884 87.9H50.4H50.3066L50.2139 87.9115C48.8336 88.0841 47.5 89.1835 47.5 90.8C47.5 92.2586 48.7034 93.7 50.4 93.7H50.5884L50.5218 93.8143C50.0258 94.5957 50.0807 95.4856 50.277 96.0743C50.4662 96.6421 50.8505 97.2364 51.4679 97.648C52.2125 98.1444 53.0679 98.1619 53.7386 97.9632C54.3843 97.7718 55.0417 97.3282 55.4147 96.6231L55.4734 96.5225L55.5779 96.7091C56.0633 97.6395 57.0978 98.2 58.1 98.2C58.6399 98.2 59.1859 97.9841 59.4708 97.8416L59.5543 97.7998L59.6321 97.748C60.6587 97.0636 61.5356 95.4246 60.5853 93.9252L60.4592 93.7H60.7C62.1586 93.7 63.6 92.4965 63.6 90.8C63.6 88.9629 62.0032 88 60.7 88H60.4592L60.5865 87.7725C61.3817 86.505 61.0393 84.5874 59.4712 83.8571C58.098 83.1198 56.417 83.5298 55.6015 84.9491L55.5 85.123L55.3985 84.949C54.6264 83.6059 52.9299 83.043 51.5481 83.9003C50.7903 84.3069 50.3755 84.9301 50.177 85.5256C50.0228 85.9881 50.0492 86.4262 50.0901 86.7121C50.1333 87.0143 50.2141 87.2856 50.277 87.4743L50.3261 87.6216L50.4043 87.7558L50.4884 87.9Z" fill="#00A4D6" stroke="white" stroke-width="3"/>
<path d="M78.4884 87.9H78.4H78.3066L78.2139 87.9115C76.8336 88.0841 75.5 89.1835 75.5 90.8C75.5 92.2586 76.7034 93.7 78.4 93.7H78.5884L78.5218 93.8143C78.0258 94.5957 78.0807 95.4856 78.277 96.0743C78.4662 96.6421 78.8505 97.2364 79.4679 97.648C80.2125 98.1444 81.0679 98.1619 81.7386 97.9632C82.3843 97.7718 83.0417 97.3282 83.4147 96.6231L83.4734 96.5225L83.5779 96.7091C84.0633 97.6395 85.0978 98.2 86.1 98.2C86.6399 98.2 87.1859 97.9841 87.4708 97.8416L87.5543 97.7998L87.6321 97.748C88.6587 97.0636 89.5356 95.4246 88.5853 93.9252L88.4592 93.7H88.7C90.1586 93.7 91.6 92.4965 91.6 90.8C91.6 88.9629 90.0032 88 88.7 88H88.4592L88.5865 87.7725C89.3817 86.505 89.0393 84.5874 87.4712 83.8571C86.098 83.1198 84.417 83.5298 83.6015 84.9491L83.5 85.123L83.3985 84.949C82.6264 83.6059 80.9299 83.043 79.5481 83.9003C78.7903 84.3069 78.3755 84.9301 78.177 85.5256C78.0228 85.9881 78.0492 86.4262 78.0901 86.7121C78.1333 87.0143 78.2141 87.2856 78.277 87.4743L78.3261 87.6216L78.4043 87.7558L78.4884 87.9Z" fill="#00A4D6" stroke="white" stroke-width="3"/>
<path d="M64.4884 96.9H64.4H64.3066L64.2139 96.9115C62.8336 97.0841 61.5 98.1835 61.5 99.8C61.5 101.259 62.7034 102.7 64.4 102.7H64.5884L64.5218 102.814C64.0258 103.596 64.0807 104.486 64.277 105.074C64.4662 105.642 64.8505 106.236 65.4679 106.648C66.2125 107.144 67.0679 107.162 67.7386 106.963C68.3843 106.772 69.0417 106.328 69.4147 105.623L69.4734 105.522L69.5779 105.709C70.0633 106.64 71.0978 107.2 72.1 107.2C72.6399 107.2 73.1859 106.984 73.4708 106.842L73.5543 106.8L73.6321 106.748C74.6587 106.064 75.5356 104.425 74.5853 102.925L74.4592 102.7H74.7C76.1586 102.7 77.6 101.497 77.6 99.8C77.6 97.9629 76.0032 97 74.7 97H74.4592L74.5865 96.7725C75.3817 95.505 75.0393 93.5874 73.4712 92.8571C72.098 92.1198 70.417 92.5298 69.6015 93.9491L69.5 94.123L69.3985 93.949C68.6264 92.6059 66.9299 92.043 65.5481 92.9003C64.7903 93.3069 64.3755 93.9301 64.177 94.5256C64.0228 94.9881 64.0492 95.4262 64.0901 95.7121C64.1333 96.0143 64.2141 96.2856 64.277 96.4743L64.3261 96.6216L64.4043 96.7558L64.4884 96.9Z" fill="#00A4D6" stroke="white" stroke-width="3"/>
<path d="M36.4884 96.9H36.4H36.3066L36.2139 96.9115C34.8336 97.0841 33.5 98.1835 33.5 99.8C33.5 101.259 34.7034 102.7 36.4 102.7H36.5884L36.5218 102.814C36.0258 103.596 36.0807 104.486 36.277 105.074C36.4662 105.642 36.8505 106.236 37.4679 106.648C38.2125 107.144 39.0679 107.162 39.7386 106.963C40.3843 106.772 41.0417 106.328 41.4147 105.623L41.4734 105.522L41.5779 105.709C42.0633 106.64 43.0978 107.2 44.1 107.2C44.6399 107.2 45.1859 106.984 45.4708 106.842L45.5543 106.8L45.6321 106.748C46.6587 106.064 47.5356 104.425 46.5853 102.925L46.4592 102.7H46.7C48.1586 102.7 49.6 101.497 49.6 99.8C49.6 97.9629 48.0032 97 46.7 97H46.4592L46.5865 96.7725C47.3817 95.505 47.0393 93.5874 45.4712 92.8571C44.098 92.1198 42.417 92.5298 41.6015 93.9491L41.5 94.123L41.3985 93.949C40.6264 92.6059 38.9299 92.043 37.5481 92.9003C36.7903 93.3069 36.3755 93.9301 36.177 94.5256C36.0228 94.9881 36.0492 95.4262 36.0901 95.7121C36.1333 96.0143 36.2141 96.2856 36.277 96.4743L36.3261 96.6216L36.4043 96.7558L36.4884 96.9Z" fill="#00A4D6" stroke="white" stroke-width="3"/>
<path d="M22.4884 87.9H22.4H22.3066L22.2139 87.9115C20.8336 88.0841 19.5 89.1835 19.5 90.8C19.5 92.2586 20.7034 93.7 22.4 93.7H22.5884L22.5218 93.8143C22.0258 94.5957 22.0807 95.4856 22.277 96.0743C22.4662 96.6421 22.8505 97.2364 23.4679 97.648C24.2125 98.1444 25.0679 98.1619 25.7386 97.9632C26.3843 97.7718 27.0417 97.3282 27.4147 96.6231L27.4734 96.5225L27.5779 96.7091C28.0633 97.6395 29.0978 98.2 30.1 98.2C30.6399 98.2 31.1859 97.9841 31.4708 97.8416L31.5543 97.7998L31.6321 97.748C32.6587 97.0636 33.5356 95.4246 32.5853 93.9252L32.4592 93.7H32.7C34.1586 93.7 35.6 92.4965 35.6 90.8C35.6 88.9629 34.0032 88 32.7 88H32.4592L32.5865 87.7725C33.3817 86.505 33.0393 84.5874 31.4712 83.8571C30.098 83.1198 28.417 83.5298 27.6015 84.9491L27.5 85.123L27.3985 84.949C26.6264 83.6059 24.9299 83.043 23.5481 83.9003C22.7903 84.3069 22.3755 84.9301 22.177 85.5256C22.0228 85.9881 22.0492 86.4262 22.0901 86.7121C22.1333 87.0143 22.2141 87.2856 22.277 87.4743L22.3261 87.6216L22.4043 87.7558L22.4884 87.9Z" fill="#00A4D6" stroke="white" stroke-width="3"/>
<defs>
<filter id="filter0_f_1965_5053" x="17.5" y="36" width="85" height="46.1006" filterUnits="userSpaceOnUse" color-interpolation-filters="sRGB">
<feFlood flood-opacity="0" result="BackgroundImageFix"/>
<feBlend mode="normal" in="SourceGraphic" in2="BackgroundImageFix" result="shape"/>
<feGaussianBlur stdDeviation="3.5" result="effect1_foregroundBlur_1965_5053"/>
</filter>
<linearGradient id="paint0_linear_1965_5053" x1="18.9138" y1="49.4636" x2="46.2563" y2="16.8781" gradientUnits="userSpaceOnUse">
<stop stop-color="#686E73"/>
<stop offset="0.9891" stop-color="#6A7075"/>
</linearGradient>
<linearGradient id="paint1_linear_1965_5053" x1="53.5" y1="44.5" x2="55.5" y2="77.1" gradientUnits="userSpaceOnUse">
<stop offset="0.484375" stop-color="white" stop-opacity="0"/>
<stop offset="1" stop-color="#B3B2B2"/>
</linearGradient>
</defs>
</svg>
