<?xml version="1.0" encoding="utf-8"?>
<!-- Generator: Adobe Illustrator 16.0.0, SVG Export Plug-In . SVG Version: 6.00 Build 0)  -->
<!DOCTYPE svg PUBLIC "-//W3C//DTD SVG 1.1//EN" "http://www.w3.org/Graphics/SVG/1.1/DTD/svg11.dtd">
<svg version="1.1" id="Layer_1" xmlns="http://www.w3.org/2000/svg" xmlns:xlink="http://www.w3.org/1999/xlink" x="0px" y="0px"
	 width="100px" height="100px" viewBox="0 0 100 100" enable-background="new 0 0 100 100" xml:space="preserve">
<path fill="#FFFFFF" d="M23.247-4c-2.662,0-5.145,0.901-7.203,2.581c-0.967-0.195-1.941-0.294-2.916-0.294
	c-4.17,0-7.864,1.787-10.135,4.902C1.45,5.307,0.72,7.823,0.83,10.506C-2.061,12.29-4,15.501-4,19.035C-4,24.344,0.662,29,5.978,29
	h39.406c4.838-0.037,8.615-3.869,8.615-8.756c0-3.171-1.588-5.843-4.074-7.172c-1.35-2.484-4.045-4.619-7.449-4.932
	c-1.527-3.201-4.699-5.411-8.494-5.611C31.927-1.329,27.776-3.999,23.249-4l0,0C23.248-4,23.247-4,23.247-4L23.247-4z"/>
<path d="M45.313,25c2.506,0,4.686-1.933,4.686-4.752c0-1.854-0.969-3.708-3.15-4.03c-0.322-2.176-3.357-5.229-7.396-3.698
	c0-4.473-4.218-6.972-8.192-5.648c-0.889-6.285-9.371-9.751-14.055-3.788C10.016,0.264,2.827,5.259,5.331,13.078
	C2.503,13.396,0,15.896,0,19.038C0,22.182,2.827,25,5.978,25H45.313z"/>
</svg>
