<?xml version="1.0" encoding="utf-8"?>
<!-- Generator: Adobe Illustrator 16.0.0, SVG Export Plug-In . SVG Version: 6.00 Build 0)  -->
<!DOCTYPE svg PUBLIC "-//W3C//DTD SVG 1.1//EN" "http://www.w3.org/Graphics/SVG/1.1/DTD/svg11.dtd">
<svg version="1.1" id="Layer_1" xmlns="http://www.w3.org/2000/svg" xmlns:xlink="http://www.w3.org/1999/xlink" x="0px" y="0px"
	 width="100px" height="100px" viewBox="0 0 100 100" enable-background="new 0 0 100 100" xml:space="preserve">
<g>
	<path d="M77.5,35.001h-75c-1.377,0-2.5,1.123-2.5,2.5s1.123,2.5,2.5,2.5h75c1.377,0,2.5-1.123,2.5-2.5S78.877,35.001,77.5,35.001z"
		/>
	<path d="M72.5,45.001h-65c-1.377,0-2.5,1.123-2.5,2.5s1.123,2.5,2.5,2.5h65c1.377,0,2.5-1.123,2.5-2.5S73.877,45.001,72.5,45.001z"
		/>
	<path d="M72.5,55h-60c-1.377,0-2.5,1.123-2.5,2.5s1.123,2.5,2.5,2.5h60c1.377,0,2.5-1.123,2.5-2.5S73.877,55,72.5,55z"/>
	<path d="M79.978,30.006c-0.232-4.811-4.12-8.588-8.507-9.083c4.004-12.51-7.496-20.501-19-15.99
		c-7.492-9.542-21.063-3.995-22.486,6.058c-6.359-2.116-13.108,1.884-13.108,9.038c-6.461-2.445-11.317,2.438-11.833,5.917
		c-2.535,0.374-4.042,2.042-4.681,4.061H79.978z"/>
</g>
</svg>
