<?xml version="1.0" encoding="utf-8"?>
<!-- Generator: Adobe Illustrator 17.1.0, SVG Export Plug-In . SVG Version: 6.00 Build 0)  -->
<!DOCTYPE svg PUBLIC "-//W3C//DTD SVG 1.1 Basic//EN" "http://www.w3.org/Graphics/SVG/1.1/DTD/svg11-basic.dtd">
<svg version="1.1" baseProfile="basic" id="Layer_1"
	 xmlns="http://www.w3.org/2000/svg" xmlns:xlink="http://www.w3.org/1999/xlink" x="0px" y="0px" viewBox="0 0 100 100"
	 xml:space="preserve">
<path d="M82.3,42H2.7C1.2,42,0,42.9,0,44s1.2,2,2.7,2h79.7c1.5,0,2.7-0.9,2.7-2S83.8,42,82.3,42z"/>
<path d="M80.1,50H5.9C4.3,50,3,50.9,3,52c0,1.1,1.3,2,2.9,2h74.3c1.6,0,2.9-0.9,2.9-2C83,50.9,81.7,50,80.1,50z"/>
<path d="M80.1,58H10.9C9.3,58,8,58.9,8,60s1.3,2,2.9,2h69.2c1.6,0,2.9-0.9,2.9-2S81.7,58,80.1,58z"/>
<path d="M51.2,0c-9.1-0.3-17.6,4.8-20.5,14.6c-5.9-1.4-15.3,2.3-17,10.4C8.2,24.9,1.2,29,0.1,36C0,37,0.7,37.9,1.7,37.9l82.3,0
	c1,0,1.8-0.7,1.9-1.7c1-8.9-4.1-18.7-15.2-20.1C68.5,5.6,60.2,0.3,51.2,0z"/>
</svg>
