<?xml version="1.0" encoding="utf-8"?>
<!-- Generator: Adobe Illustrator 16.0.0, SVG Export Plug-In . SVG Version: 6.00 Build 0)  -->
<!DOCTYPE svg PUBLIC "-//W3C//DTD SVG 1.1//EN" "http://www.w3.org/Graphics/SVG/1.1/DTD/svg11.dtd">
<svg version="1.1" id="Layer_1" xmlns="http://www.w3.org/2000/svg" xmlns:xlink="http://www.w3.org/1999/xlink" x="0px" y="0px"
	 width="100px" height="100px" viewBox="0 0 100 100" enable-background="new 0 0 100 100" xml:space="preserve">
<g>
	<circle fill="#FFFFFF" cx="7" cy="2.875" r="8"/>
	<path d="M11.393,1.906L9.326,3.979C9.055,3.849,8.783,3.728,8.48,3.637c-0.292-0.07-0.583-0.101-0.875-0.11L6.842,0.688
		C6.681,0.105,6.077-0.247,5.494-0.086C4.91,0.065,4.549,0.668,4.719,1.268l0.755,2.828C4.966,4.412,4.539,4.845,4.222,5.353
		L1.391,4.604c-0.588-0.161-1.197,0.191-1.348,0.77c-0.172,0.604,0.186,1.202,0.779,1.363l2.826,0.751
		c0.02,0.604,0.176,1.202,0.453,1.73l-2.067,2.068c-0.433,0.422-0.423,1.121,0.011,1.555c0.432,0.432,1.126,0.442,1.553,0
		l2.066-2.074c0.262,0.152,0.539,0.278,0.836,0.354c0.307,0.07,0.593,0.105,0.884,0.105l0.76,2.837
		c0.156,0.584,0.771,0.931,1.354,0.775c0.594-0.161,0.936-0.756,0.774-1.349l-0.754-2.828c0.513-0.316,0.94-0.754,1.247-1.267
		l2.846,0.764c0.583,0.146,1.196-0.201,1.353-0.784c0.156-0.594-0.191-1.197-0.784-1.349l-2.836-0.765
		c-0.021-0.604-0.171-1.188-0.453-1.722l2.067-2.062c0.432-0.433,0.432-1.138,0.01-1.57C12.524,1.484,11.815,1.484,11.393,1.906z"/>
</g>
<circle fill="#FFFFFF" cx="7.5" cy="7.375" r="2"/>
</svg>
