<?xml version="1.0" encoding="utf-8"?>
<!-- Generator: Adobe Illustrator 16.0.4, SVG Export Plug-In . SVG Version: 6.00 Build 0)  -->
<!DOCTYPE svg PUBLIC "-//W3C//DTD SVG 1.1//EN" "http://www.w3.org/Graphics/SVG/1.1/DTD/svg11.dtd" [
	<!ENTITY ns_extend "http://ns.adobe.com/Extensibility/1.0/">
	<!ENTITY ns_ai "http://ns.adobe.com/AdobeIllustrator/10.0/">
	<!ENTITY ns_graphs "http://ns.adobe.com/Graphs/1.0/">
	<!ENTITY ns_vars "http://ns.adobe.com/Variables/1.0/">
	<!ENTITY ns_imrep "http://ns.adobe.com/ImageReplacement/1.0/">
	<!ENTITY ns_sfw "http://ns.adobe.com/SaveForWeb/1.0/">
	<!ENTITY ns_custom "http://ns.adobe.com/GenericCustomNamespace/1.0/">
	<!ENTITY ns_adobe_xpath "http://ns.adobe.com/XPath/1.0/">
]>
<svg version="1.1" id="Layer_1" xmlns:x="&ns_extend;" xmlns:i="&ns_ai;" xmlns:graph="&ns_graphs;"
	 xmlns="http://www.w3.org/2000/svg" xmlns:xlink="http://www.w3.org/1999/xlink" x="0px" y="0px" width="100px" height="100px"
	 viewBox="0 0 100 100" enable-background="new 0 0 100 100" xml:space="preserve">
<metadata>
	<sfw  xmlns="&ns_sfw;">
		<slices></slices>
		<sliceSourceBounds  y="-185" x="-2.5" bottomLeftOrigin="true" height="225" width="782.5"></sliceSourceBounds>
	</sfw>
</metadata>
<circle fill="#FFFFFF" cx="7.499" cy="7.375" r="2"/>
<g>
	<circle fill="#FFFFFF" cx="10" cy="3" r="9"/>
	<path d="M15.95,2.844l-2.893,2.899c-0.38-0.183-0.76-0.351-1.185-0.477c-0.409-0.1-0.815-0.142-1.226-0.157L9.579,1.14
		C9.354,0.322,8.51-0.171,7.692,0.055c-0.817,0.21-1.323,1.053-1.086,1.893l1.057,3.96C6.953,6.353,6.356,6.955,5.91,7.668
		L1.948,6.62C1.126,6.395,0.271,6.888,0.062,7.694c-0.242,0.848,0.259,1.684,1.09,1.909l3.957,1.055
		c0.028,0.845,0.246,1.683,0.635,2.423L2.85,15.977c-0.605,0.591-0.593,1.567,0.014,2.176c0.604,0.603,1.577,0.62,2.174,0
		l2.893-2.905c0.367,0.216,0.756,0.39,1.17,0.498c0.431,0.096,0.83,0.147,1.238,0.147l1.064,3.97
		c0.219,0.818,1.078,1.305,1.896,1.086c0.831-0.226,1.308-1.057,1.082-1.888L13.325,15.1c0.718-0.44,1.316-1.053,1.747-1.771
		l3.982,1.069c0.817,0.205,1.676-0.283,1.894-1.1c0.219-0.83-0.267-1.675-1.097-1.89l-3.97-1.069
		c-0.029-0.845-0.24-1.663-0.635-2.409l2.894-2.888c0.604-0.608,0.604-1.595,0.013-2.198C17.535,2.252,16.543,2.252,15.95,2.844z
		 M13.086,11.215c-0.367,1.436-1.859,2.296-3.296,1.899c-1.443-0.38-2.294-1.873-1.914-3.312c0.38-1.452,1.858-2.297,3.307-1.915
		C12.622,8.282,13.487,9.761,13.086,11.215z"/>
</g>
</svg>
