<?xml version="1.0" encoding="utf-8"?>
<!-- Generator: Adobe Illustrator 17.1.0, SVG Export Plug-In . SVG Version: 6.00 Build 0)  -->
<!DOCTYPE svg PUBLIC "-//W3C//DTD SVG 1.1 Basic//EN" "http://www.w3.org/Graphics/SVG/1.1/DTD/svg11-basic.dtd">
<svg version="1.1" baseProfile="basic" id="Layer_1"
	 xmlns="http://www.w3.org/2000/svg" xmlns:xlink="http://www.w3.org/1999/xlink" x="0px" y="0px" viewBox="0 0 100 100"
	 xml:space="preserve">
<circle style="fill:#FFFFFF;" cx="9" cy="9" r="9"/>
<path d="M6.2,6.9l1.1,3.8c-0.3,0.2-0.6,0.5-0.9,0.8C6,11.7,5.8,12,5.6,12.4l-3.8-1C1,11.2,0.2,11.7,0,12.5c-0.2,0.8,0.3,1.6,1.1,1.8
	l3.8,1c0,0.8,0.3,1.6,0.6,2.3l-2.7,2.8c-0.6,0.6-0.6,1.5,0,2.1c0.6,0.6,1.5,0.6,2.1,0l2.7-2.8c0.7,0.4,1.5,0.6,2.3,0.6l1,3.8
	c0.2,0.8,1,1.2,1.8,1c0.8-0.2,1.2-1,1-1.8l-1.1-3.8c0.3-0.2,0.7-0.4,1-0.7c0.3-0.3,0.5-0.6,0.7-1l3.8,1c0.8,0.2,1.6-0.3,1.8-1.1
	c0.2-0.8-0.3-1.6-1.1-1.8l-3.8-1c0-0.8-0.3-1.6-0.7-2.3l2.7-2.8c0.6-0.6,0.5-1.5,0-2.1c-0.6-0.6-1.5-0.6-2.1,0l-2.7,2.8
	c-0.7-0.4-1.5-0.6-2.3-0.6L9,6.1c-0.2-0.8-1-1.2-1.8-1C6.5,5.3,6,6.1,6.2,6.9z M11.8,13.2c1,1,1,2.6,0,3.6c-1,1-2.6,1-3.6,0
	c-1-1-1-2.6,0-3.6C9.2,12.2,10.8,12.2,11.8,13.2z"/>
</svg>
