<?xml version="1.0" encoding="utf-8"?>
<!-- Generator: Adobe Illustrator 17.1.0, SVG Export Plug-In . SVG Version: 6.00 Build 0)  -->
<!DOCTYPE svg PUBLIC "-//W3C//DTD SVG 1.1//EN" "http://www.w3.org/Graphics/SVG/1.1/DTD/svg11.dtd">
<svg version="1.1" id="Layer_1" xmlns="http://www.w3.org/2000/svg" xmlns:xlink="http://www.w3.org/1999/xlink" x="0px" y="0px"
	 viewBox="0 0 100 100" enable-background="new 0 0 100 100" xml:space="preserve">
<g>
	<defs>
		<rect id="SVGID_1_" y="8" width="90" height="45"/>
	</defs>
	<clipPath id="SVGID_2_">
		<use xlink:href="#SVGID_1_"  overflow="visible"/>
	</clipPath>
	<path clip-path="url(#SVGID_2_)" d="M65.6,8.1c0,11.3-9.2,20.5-20.5,20.5c-11.3,0-20.5-9.2-20.5-20.5c0-11.3,9.2-20.5,20.5-20.5
		C56.4-12.4,65.6-3.3,65.6,8.1z"/>
	<g clip-path="url(#SVGID_2_)">
		<path d="M87.6,6.1l-19.1-5c0.6,2.2,1,4.5,1,6.9c0,2.4-0.3,4.7-1,6.9l19.1-5C89.6,9.5,89.6,6.7,87.6,6.1z"/>
		<path d="M20.6,8.1c0-2.4,0.3-4.7,1-6.9l-19.1,5c-2,0.5-2,3.3,0,3.9l19.1,5C20.9,12.8,20.6,10.5,20.6,8.1z"/>
		<path d="M23.6,19.8l-10,17c-1,1.8,1,3.8,2.7,2.7l17-10C29.2,27.3,25.8,23.9,23.6,19.8z"/>
		<path d="M66.6,19.8c-2.2,4.1-5.6,7.5-9.7,9.7l17,10c1.8,1,3.8-1,2.7-2.7L66.6,19.8z"/>
		<path d="M45.1,32.6c-2.4,0-4.7-0.3-6.9-1l5,19.1c0.5,2,3.3,2,3.9,0l5-19.1C49.8,32.2,47.5,32.6,45.1,32.6z"/>
	</g>
</g>
<path d="M2.5,0h85.1C88.9,0,90,0.9,90,2v0c0,1.1-1.1,2-2.5,2H2.5C1.1,4,0,3.1,0,2v0C0,0.9,1.1,0,2.5,0z"/>
</svg>
