<?xml version="1.0" encoding="utf-8"?>
<!-- Generator: Adobe Illustrator 16.0.0, SVG Export Plug-In . SVG Version: 6.00 Build 0)  -->
<!DOCTYPE svg PUBLIC "-//W3C//DTD SVG 1.1//EN" "http://www.w3.org/Graphics/SVG/1.1/DTD/svg11.dtd">
<svg version="1.1" id="Layer_1" xmlns="http://www.w3.org/2000/svg" xmlns:xlink="http://www.w3.org/1999/xlink" x="0px" y="0px"
	 width="100px" height="100px" viewBox="0 0 100 100" enable-background="new 0 0 100 100" xml:space="preserve">
<polygon points="41.569,34.792 60,30 41.569,25.208 51.214,8.787 34.792,18.431 30,0 25.208,18.431 8.786,8.787 18.431,25.208 0,30 
	18.431,34.792 8.786,51.214 25.208,41.569 30,60 34.792,41.569 51.214,51.214 "/>
<circle fill="#FFFFFF" cx="30" cy="30" r="15"/>
<path d="M42,30c0,6.626-5.374,12-12,12c-6.624,0-12-5.374-12-12s5.376-12,12-12C36.626,18,42,23.374,42,30z"/>
</svg>
