<?xml version="1.0" encoding="utf-8"?>
<!-- Generator: Adobe Illustrator 17.1.0, SVG Export Plug-In . SVG Version: 6.00 Build 0)  -->
<!DOCTYPE svg PUBLIC "-//W3C//DTD SVG 1.1//EN" "http://www.w3.org/Graphics/SVG/1.1/DTD/svg11.dtd">
<svg version="1.1" id="Layer_1" xmlns="http://www.w3.org/2000/svg" xmlns:xlink="http://www.w3.org/1999/xlink" x="0px" y="0px"
	 viewBox="0 0 100 100" enable-background="new 0 0 100 100" xml:space="preserve">
<path d="M65.5,45c0,11.3-9.2,20.5-20.5,20.5c-11.3,0-20.5-9.2-20.5-20.5c0-11.3,9.2-20.5,20.5-20.5C56.3,24.5,65.5,33.7,65.5,45z"/>
<g>
	<path d="M23.5,33.2c2.2-4.1,5.6-7.5,9.7-9.7l-17-10c-1.8-1-3.8,1-2.7,2.7L23.5,33.2z"/>
	<path d="M45,20.5c2.4,0,4.7,0.3,6.9,1l-5-19.1c-0.5-2-3.3-2-3.9,0l-5,19.1C40.3,20.8,42.6,20.5,45,20.5z"/>
	<path d="M87.6,43.1l-19.1-5c0.6,2.2,1,4.5,1,6.9c0,2.4-0.3,4.7-1,6.9l19.1-5C89.6,46.4,89.6,43.6,87.6,43.1z"/>
	<path d="M20.5,45c0-2.4,0.3-4.7,1-6.9l-19.1,5c-2,0.5-2,3.3,0,3.9l19.1,5C20.8,49.7,20.5,47.4,20.5,45z"/>
	<path d="M66.5,33.2l10-17c1-1.8-1-3.8-2.7-2.7l-17,10C60.9,25.8,64.2,29.1,66.5,33.2z"/>
	<path d="M23.5,56.8l-10,17c-1,1.8,1,3.8,2.7,2.7l17-10C29.1,64.2,25.8,60.9,23.5,56.8z"/>
	<path d="M66.5,56.8c-2.2,4.1-5.6,7.5-9.7,9.7l17,10c1.8,1,3.8-1,2.7-2.7L66.5,56.8z"/>
	<path d="M45,69.5c-2.4,0-4.7-0.3-6.9-1l5,19.1c0.5,2,3.3,2,3.9,0l5-19.1C49.7,69.2,47.4,69.5,45,69.5z"/>
</g>
</svg>
