<svg width="100" height="100" viewBox="0 0 100 100" fill="none" xmlns="http://www.w3.org/2000/svg">
<g clip-path="url(#clip0_1334_7175)">
<path fill-rule="evenodd" clip-rule="evenodd" d="M81.3 42.9C79.4 31.6 69.4 23 57.7 23C48.6 23 40.4 28.1 36.4 36.1C35.2 35.6 34 35.4 32.8 35.4C28.6 35.4 25 37.9 23.6 41.6C23 41.5 22.5 41.5 21.9 41.5C17.8 41.5 14 43.1 11.2 46C8.5 48.8 7 52.4 7 56.2V56.4C7.1 60.5 8.7 64.2 11.6 66.9C14.3 69.6 18 71.1 21.9 71.1H77.6C85.5 71.1 92 64.7 92 56.8C92 50.2 87.5 44.5 81.3 42.9Z" fill="#B2B2B2"/>
<g opacity="0.6">
<path fill-rule="evenodd" clip-rule="evenodd" d="M81.3 42.9C79.4 31.6 69.4 23 57.7 23C48.6 23 40.4 28.1 36.4 36.1C35.2 35.6 34 35.4 32.8 35.4C28.6 35.4 25 37.9 23.6 41.6C23 41.5 22.5 41.5 21.9 41.5C17.8 41.5 14 43.1 11.2 46C8.5 48.8 7 52.4 7 56.2V56.4C7.1 60.5 8.7 64.2 11.6 66.9C14.3 69.6 18 71.1 21.9 71.1H77.6C85.5 71.1 92 64.7 92 56.8C92 50.2 87.5 44.5 81.3 42.9Z" fill="url(#paint0_linear_1334_7175)" style="mix-blend-mode:multiply"/>
</g>
<path d="M35.5 90C35.2 90 34.8 89.9 34.5 89.8C33.2 89.2 32.7 87.8 33.2 86.5L36.7 78.5C37.3 77.2 38.7 76.7 40 77.2C41.3 77.8 41.8 79.2 41.3 80.5L37.8 88.5C37.4 89.5 36.5 90 35.5 90Z" fill="#00B8F1"/>
<path d="M48.5 99C48.2 99 47.8 98.9 47.5 98.8C46.2 98.2 45.7 96.8 46.2 95.5L49.7 87.5C50.3 86.2 51.7 85.7 53 86.2C54.3 86.8 54.8 88.2 54.3 89.5L50.8 97.5C50.4 98.5 49.5 99 48.5 99Z" fill="#00B8F1"/>
<path d="M63.5 90C63.2 90 62.8 89.9 62.5 89.8C61.2 89.2 60.7 87.8 61.2 86.5L64.7 78.5C65.3 77.2 66.7 76.7 68 77.2C69.3 77.8 69.8 79.2 69.3 80.5L65.8 88.5C65.4 89.5 64.5 90 63.5 90Z" fill="#00B8F1"/>
</g>
<defs>
<linearGradient id="paint0_linear_1334_7175" x1="47.5" y1="38.5" x2="49.5" y2="71.1" gradientUnits="userSpaceOnUse">
<stop offset="0.484375" stop-color="white" stop-opacity="0"/>
<stop offset="1" stop-color="#B3B2B2"/>
</linearGradient>
<clipPath id="clip0_1334_7175">
<rect width="100" height="100" fill="white"/>
</clipPath>
</defs>
</svg>
