<svg width="124" height="124" viewBox="0 0 124 124" fill="none" xmlns="http://www.w3.org/2000/svg">
<g clip-path="url(#clip0_256_5903)">
<g filter="url(#filter0_d_256_5903)">
<path d="M87.6 68.9L103 62L87.6 55.2L97.4 41.5L80.7 43.3L82.4 26.5L68.8 36.4L62 21L55.2 36.4L41.5 26.5L43.3 43.2L26.5 41.5L36.4 55.1L21 62L36.4 68.8L26.5 82.5L43.2 80.7L41.5 97.5L55.1 87.6L62 103L68.8 87.6L82.5 97.4L80.7 80.7L97.5 82.4L87.6 68.9Z" fill="url(#paint0_radial_256_5903)"/>
<path d="M40.2835 74.5087C47.1853 86.417 62.4893 90.5198 74.4924 83.7151C86.4956 76.9104 90.4966 61.4997 83.6948 49.4913C76.793 37.583 61.489 33.4802 49.4859 40.2849C37.5828 47.1897 33.4817 62.6004 40.2835 74.5087Z" fill="#FFD348"/>
<path d="M43.7994 72.4934C49.5982 82.4913 62.4955 85.9906 72.4934 80.1918C82.4913 74.393 85.9905 61.4957 80.1918 51.4978C74.393 41.4999 61.4957 38.0006 51.4978 43.7994C41.4999 49.5982 38.0006 62.4955 43.7994 72.4934Z" fill="url(#paint1_linear_256_5903)"/>
</g>
</g>
<defs>
<filter id="filter0_d_256_5903" x="-1" y="0" width="126" height="126" filterUnits="userSpaceOnUse" color-interpolation-filters="sRGB">
<feFlood flood-opacity="0" result="BackgroundImageFix"/>
<feColorMatrix in="SourceAlpha" type="matrix" values="0 0 0 0 0 0 0 0 0 0 0 0 0 0 0 0 0 0 127 0" result="hardAlpha"/>
<feOffset dy="1"/>
<feGaussianBlur stdDeviation="6.5"/>
<feColorMatrix type="matrix" values="0 0 0 0 0 0 0 0 0 0 0 0 0 0 0 0 0 0 0.25 0"/>
<feBlend mode="normal" in2="BackgroundImageFix" result="effect1_dropShadow_256_5903"/>
<feBlend mode="normal" in="SourceGraphic" in2="effect1_dropShadow_256_5903" result="shape"/>
</filter>
<radialGradient id="paint0_radial_256_5903" cx="0" cy="0" r="1" gradientUnits="userSpaceOnUse" gradientTransform="translate(62 62) scale(41)">
<stop offset="0.5143" stop-color="#D6B849"/>
<stop offset="0.6523" stop-color="#FFCE47"/>
<stop offset="1" stop-color="#FFDB73"/>
</radialGradient>
<linearGradient id="paint1_linear_256_5903" x1="48.4958" y1="45.9076" x2="75.4952" y2="78.0842" gradientUnits="userSpaceOnUse">
<stop stop-color="#FFAF22"/>
<stop offset="0.9897" stop-color="#F09900"/>
</linearGradient>
<clipPath id="clip0_256_5903">
<rect width="124" height="124" fill="white"/>
</clipPath>
</defs>
</svg>
