<svg width="126" height="126" viewBox="0 0 126 126" fill="none" xmlns="http://www.w3.org/2000/svg">
<g filter="url(#filter0_d_256_5903)">
<path d="M88.6 68.9L104 62L88.6 55.2L98.4 41.5L81.7 43.3L83.4 26.5L69.8 36.4L63 21L56.2 36.4L42.5 26.5L44.3 43.2L27.5 41.5L37.4 55.1L22 62L37.4 68.8L27.5 82.5L44.2 80.7L42.5 97.5L56.1 87.6L63 103L69.8 87.6L83.5 97.4L81.7 80.7L98.5 82.4L88.6 68.9Z" fill="url(#paint0_radial_256_5903)"/>
<path d="M41.2835 74.5087C48.1853 86.417 63.4893 90.5198 75.4924 83.7151C87.4956 76.9104 91.4966 61.4997 84.6948 49.4913C77.793 37.583 62.489 33.4802 50.4859 40.2849C38.5828 47.1897 34.4817 62.6004 41.2835 74.5087Z" fill="#FFD348"/>
<path d="M44.7994 72.4934C50.5982 82.4913 63.4955 85.9906 73.4934 80.1918C83.4913 74.393 86.9905 61.4957 81.1918 51.4978C75.393 41.4999 62.4957 38.0006 52.4978 43.7994C42.4999 49.5982 39.0006 62.4955 44.7994 72.4934Z" fill="url(#paint1_linear_256_5903)"/>
</g>
<defs>
<filter id="filter0_d_256_5903" x="0" y="0" width="126" height="126" filterUnits="userSpaceOnUse" color-interpolation-filters="sRGB">
<feFlood flood-opacity="0" result="BackgroundImageFix"/>
<feColorMatrix in="SourceAlpha" type="matrix" values="0 0 0 0 0 0 0 0 0 0 0 0 0 0 0 0 0 0 127 0" result="hardAlpha"/>
<feOffset dy="1"/>
<feGaussianBlur stdDeviation="6.5"/>
<feColorMatrix type="matrix" values="0 0 0 0 0 0 0 0 0 0 0 0 0 0 0 0 0 0 0.25 0"/>
<feBlend mode="normal" in2="BackgroundImageFix" result="effect1_dropShadow_256_5903"/>
<feBlend mode="normal" in="SourceGraphic" in2="effect1_dropShadow_256_5903" result="shape"/>
</filter>
<radialGradient id="paint0_radial_256_5903" cx="0" cy="0" r="1" gradientUnits="userSpaceOnUse" gradientTransform="translate(63 62) scale(41)">
<stop offset="0.5143" stop-color="#D6B849"/>
<stop offset="0.6523" stop-color="#FFCE47"/>
<stop offset="1" stop-color="#FFDB73"/>
</radialGradient>
<linearGradient id="paint1_linear_256_5903" x1="49.4958" y1="45.9076" x2="76.4952" y2="78.0842" gradientUnits="userSpaceOnUse">
<stop stop-color="#FFAF22"/>
<stop offset="0.9897" stop-color="#F09900"/>
</linearGradient>
</defs>
</svg>
