<svg width="100" height="100" viewBox="0 0 100 100" fill="none" xmlns="http://www.w3.org/2000/svg">
<g clip-path="url(#clip0_1334_7105)">
<path fill-rule="evenodd" clip-rule="evenodd" d="M28.4427 13.5647C28.4427 9.69639 27.3268 6.05127 25.5415 2.92688C35.2069 4.16076 42.7878 11.8376 43.9187 21.5338C39.9745 23.675 36.524 26.707 33.9 30.4001H32.8C27.9 30.4001 23.4 32.7001 20.7 36.6C16.6415 36.8436 12.8466 38.273 9.68955 40.7279C7.57913 39.0481 5.78488 36.9739 4.41464 34.6171C5.30733 34.7659 6.20001 34.8403 7.16708 34.8403C18.9207 34.8403 28.4427 25.3183 28.4427 13.5647Z" fill="url(#paint0_linear_1334_7105)"/>
<path fill-rule="evenodd" clip-rule="evenodd" d="M81.3 42.9C79.4 31.6 69.4 23 57.7 23C48.6 23 40.4 28.1 36.4 36.1C35.2 35.6 34 35.4 32.8 35.4C28.6 35.4 25 37.9 23.6 41.6C23 41.5 22.5 41.5 21.9 41.5C17.8 41.5 14 43.1 11.2 46C8.5 48.8 7 52.4 7 56.2V56.4C7.1 60.5 8.7 64.2 11.6 66.9C14.3 69.6 18 71.1 21.9 71.1H77.6C85.5 71.1 92 64.7 92 56.8C92 50.2 87.5 44.5 81.3 42.9Z" fill="#B2B2B2"/>
<g opacity="0.6">
<path fill-rule="evenodd" clip-rule="evenodd" d="M81.3 42.9C79.4 31.6 69.4 23 57.7 23C48.6 23 40.4 28.1 36.4 36.1C35.2 35.6 34 35.4 32.8 35.4C28.6 35.4 25 37.9 23.6 41.6C23 41.5 22.5 41.5 21.9 41.5C17.8 41.5 14 43.1 11.2 46C8.5 48.8 7 52.4 7 56.2V56.4C7.1 60.5 8.7 64.2 11.6 66.9C14.3 69.6 18 71.1 21.9 71.1H77.6C85.5 71.1 92 64.7 92 56.8C92 50.2 87.5 44.5 81.3 42.9Z" fill="url(#paint1_linear_1334_7105)" style="mix-blend-mode:multiply"/>
</g>
<g clip-path="url(#clip1_1334_7105)">
<path d="M40.7 83.5H37.9L39.3 81C39.7 80.4 39.5 79.5 38.8 79.2C38.1 78.8 37.3 79 36.9 79.7L35.5 82.1L34.1 79.7C33.7 79 32.9 78.8 32.3 79.2C31.9 79.4 31.7 79.7 31.6 80C31.5 80.3 31.6 80.7 31.7 81L33.1 83.4H30.4C29.6 83.5 29 84.1 29 84.8C29 85.5 29.6 86.2 30.4 86.2H33.2L31.8 88.6C31.6 88.9 31.6 89.3 31.7 89.6C31.8 89.9 32 90.2 32.3 90.4C32.9 90.8 33.8 90.5 34.1 89.9L35.5 87.5L36.9 90C37.1 90.4 37.6 90.7 38.1 90.7C38.3 90.7 38.6 90.6 38.8 90.5C39.4 90.1 39.7 89.3 39.3 88.7L37.9 86.2H40.7C41.4 86.2 42.1 85.6 42.1 84.8C42.1 84 41.4 83.5 40.7 83.5Z" fill="white"/>
<path d="M49.5 100C49.2 100 48.8 99.9 48.5 99.8C47.2 99.2 46.7 97.8 47.2 96.5L50.7 88.5C51.3 87.2 52.7 86.7 54 87.2C55.3 87.8 55.8 89.2 55.3 90.5L51.8 98.5C51.4 99.5 50.5 100 49.5 100Z" fill="#00B8F1"/>
<path d="M64.5 92C64.2 92 63.8 91.9 63.5 91.8C62.2 91.2 61.7 89.8 62.2 88.5L65.7 80.5C66.3 79.2 67.7 78.7 69 79.2C70.3 79.8 70.8 81.2 70.3 82.5L66.8 90.5C66.4 91.5 65.5 92 64.5 92Z" fill="#00B8F1"/>
</g>
</g>
<defs>
<linearGradient id="paint0_linear_1334_7105" x1="12.8825" y1="39.0647" x2="36.651" y2="7.40752" gradientUnits="userSpaceOnUse">
<stop stop-color="#C7B789"/>
<stop offset="0.9891" stop-color="#E1C578"/>
</linearGradient>
<linearGradient id="paint1_linear_1334_7105" x1="47.5" y1="38.5" x2="49.5" y2="71.1" gradientUnits="userSpaceOnUse">
<stop offset="0.484375" stop-color="white" stop-opacity="0"/>
<stop offset="1" stop-color="#B3B2B2"/>
</linearGradient>
<clipPath id="clip0_1334_7105">
<rect width="100" height="100" fill="white"/>
</clipPath>
<clipPath id="clip1_1334_7105">
<rect width="100" height="100" fill="white"/>
</clipPath>
</defs>
</svg>
