<svg width="100" height="100" viewBox="0 0 100 100" fill="none" xmlns="http://www.w3.org/2000/svg">
<g clip-path="url(#clip0_1334_7271)">
<path fill-rule="evenodd" clip-rule="evenodd" d="M81.3 42.9C79.4 31.6 69.4 23 57.7 23C48.6 23 40.4 28.1 36.4 36.1C35.2 35.6 34 35.4 32.8 35.4C28.6 35.4 25 37.9 23.6 41.6C23 41.5 22.5 41.5 21.9 41.5C17.8 41.5 14 43.1 11.2 46C8.5 48.8 7 52.4 7 56.2V56.4C7.1 60.5 8.7 64.2 11.6 66.9C14.3 69.6 18 71.1 21.9 71.1H77.6C85.5 71.1 92 64.7 92 56.8C92 50.2 87.5 44.5 81.3 42.9Z" fill="#DDDDDD"/>
<g opacity="0.6">
<path fill-rule="evenodd" clip-rule="evenodd" d="M81.3 42.9C79.4 31.6 69.4 23 57.7 23C48.6 23 40.4 28.1 36.4 36.1C35.2 35.6 34 35.4 32.8 35.4C28.6 35.4 25 37.9 23.6 41.6C23 41.5 22.5 41.5 21.9 41.5C17.8 41.5 14 43.1 11.2 46C8.5 48.8 7 52.4 7 56.2V56.4C7.1 60.5 8.7 64.2 11.6 66.9C14.3 69.6 18 71.1 21.9 71.1H77.6C85.5 71.1 92 64.7 92 56.8C92 50.2 87.5 44.5 81.3 42.9Z" fill="url(#paint0_linear_1334_7271)" style="mix-blend-mode:multiply"/>
</g>
<path d="M88.7 79H14.3C13.6 79 13 78.3 13 77.5C13 76.7 13.6 76 14.3 76H88.7C89.4 76 90 76.7 90 77.5C90 78.3 89.4 79 88.7 79Z" fill="#ACACAC"/>
<path d="M86.7 95H12.3C11.6 95 11 94.3 11 93.5C11 92.7 11.6 92 12.3 92H86.7C87.4 92 88 92.7 88 93.5C88 94.3 87.4 95 86.7 95Z" fill="#ACACAC"/>
<path d="M76.7 87H2.3C1.6 87 1 86.3 1 85.5C1 84.7 1.6 84 2.3 84H76.7C77.4 84 78 84.7 78 85.5C78 86.3 77.4 87 76.7 87Z" fill="#ACACAC"/>
</g>
<defs>
<linearGradient id="paint0_linear_1334_7271" x1="47.5" y1="38.5" x2="49.5" y2="71.1" gradientUnits="userSpaceOnUse">
<stop offset="0.484375" stop-color="white" stop-opacity="0"/>
<stop offset="1" stop-color="#B3B2B2"/>
</linearGradient>
<clipPath id="clip0_1334_7271">
<rect width="100" height="100" fill="white"/>
</clipPath>
</defs>
</svg>
