<svg width="100" height="100" viewBox="0 0 100 100" fill="none" xmlns="http://www.w3.org/2000/svg">
<g clip-path="url(#clip0_1334_8017)">
<path fill-rule="evenodd" clip-rule="evenodd" d="M28.4427 13.5646C28.4427 9.69627 27.3268 6.05115 25.5415 2.92676C35.2069 4.16064 42.7878 11.8375 43.9187 21.5336C39.9745 23.6749 36.524 26.7068 33.9 30.3999H32.8C27.9 30.3999 23.4 32.6999 20.7 36.5999C16.6415 36.8434 12.8466 38.2729 9.68955 40.7278C7.57913 39.0479 5.78488 36.9738 4.41464 34.617C5.30733 34.7658 6.20001 34.8402 7.16708 34.8402C18.9207 34.8402 28.4427 25.3182 28.4427 13.5646Z" fill="url(#paint0_linear_1334_8017)"/>
<path fill-rule="evenodd" clip-rule="evenodd" d="M81.3 42.9C79.4 31.6 69.4 23 57.7 23C48.6 23 40.4 28.1 36.4 36.1C35.2 35.6 34 35.4 32.8 35.4C28.6 35.4 25 37.9 23.6 41.6C23 41.5 22.5 41.5 21.9 41.5C17.8 41.5 14 43.1 11.2 46C8.5 48.8 7 52.4 7 56.2V56.4C7.1 60.5 8.7 64.2 11.6 66.9C14.3 69.6 18 71.1 21.9 71.1H77.6C85.5 71.1 92 64.7 92 56.8C92 50.2 87.5 44.5 81.3 42.9Z" fill="#999999"/>
<g opacity="0.6">
<path fill-rule="evenodd" clip-rule="evenodd" d="M81.3 42.9C79.4 31.6 69.4 23 57.7 23C48.6 23 40.4 28.1 36.4 36.1C35.2 35.6 34 35.4 32.8 35.4C28.6 35.4 25 37.9 23.6 41.6C23 41.5 22.5 41.5 21.9 41.5C17.8 41.5 14 43.1 11.2 46C8.5 48.8 7 52.4 7 56.2V56.4C7.1 60.5 8.7 64.2 11.6 66.9C14.3 69.6 18 71.1 21.9 71.1H77.6C85.5 71.1 92 64.7 92 56.8C92 50.2 87.5 44.5 81.3 42.9Z" fill="url(#paint1_linear_1334_8017)" style="mix-blend-mode:multiply"/>
</g>
<path d="M21.5 90C21.2 90 20.8 89.9 20.5 89.8C19.2 89.2 18.7 87.8 19.2 86.5L22.7 78.5C23.3 77.2 24.7 76.7 26 77.2C27.3 77.8 27.8 79.2 27.3 80.5L23.8 88.5C23.4 89.5 22.5 90 21.5 90Z" fill="#00B8F1"/>
<path d="M35.5 99C35.2 99 34.8 98.9 34.5 98.8C33.2 98.2 32.7 96.8 33.2 95.5L36.7 87.5C37.3 86.2 38.7 85.7 40 86.2C41.3 86.8 41.8 88.2 41.3 89.5L37.8 97.5C37.4 98.5 36.5 99 35.5 99Z" fill="#00B8F1"/>
<path d="M77.5 99C77.2 99 76.8 98.9 76.5 98.8C75.2 98.2 74.7 96.8 75.2 95.5L78.7 87.5C79.3 86.2 80.7 85.7 82 86.2C83.3 86.8 83.8 88.2 83.3 89.5L79.8 97.5C79.4 98.5 78.5 99 77.5 99Z" fill="#00B8F1"/>
<path d="M63.5 90C63.2 90 62.8 89.9 62.5 89.8C61.2 89.2 60.7 87.8 61.2 86.5L64.7 78.5C65.3 77.2 66.7 76.7 68 77.2C69.3 77.8 69.8 79.2 69.3 80.5L65.8 88.5C65.4 89.5 64.5 90 63.5 90Z" fill="#00B8F1"/>
<path d="M50.5 90C50.2 90 49.8 89.9 49.5 89.8C48.2 89.2 47.7 87.8 48.2 86.5L51.7 78.5C52.3 77.2 53.7 76.7 55 77.2C56.3 77.8 56.8 79.2 56.3 80.5L52.8 88.5C52.4 89.5 51.5 90 50.5 90Z" fill="#00B8F1"/>
</g>
<defs>
<linearGradient id="paint0_linear_1334_8017" x1="12.8825" y1="39.0646" x2="36.651" y2="7.4074" gradientUnits="userSpaceOnUse">
<stop stop-color="#C7B789"/>
<stop offset="0.9891" stop-color="#E1C578"/>
</linearGradient>
<linearGradient id="paint1_linear_1334_8017" x1="47.5" y1="38.5" x2="49.5" y2="71.1" gradientUnits="userSpaceOnUse">
<stop offset="0.484375" stop-color="white" stop-opacity="0"/>
<stop offset="1" stop-color="#B3B2B2"/>
</linearGradient>
<clipPath id="clip0_1334_8017">
<rect width="100" height="100" fill="white"/>
</clipPath>
</defs>
</svg>
