<svg width="100" height="100" viewBox="0 0 100 100" fill="none" xmlns="http://www.w3.org/2000/svg">
<g clip-path="url(#clip0_1334_8253)">
<path fill-rule="evenodd" clip-rule="evenodd" d="M28.4427 13.5646C28.4427 9.69627 27.3268 6.05115 25.5415 2.92676C35.2069 4.16064 42.7878 11.8375 43.9187 21.5336C39.9745 23.6749 36.524 26.7068 33.9 30.3999H32.8C27.9 30.3999 23.4 32.6999 20.7 36.5999C16.6415 36.8434 12.8466 38.2729 9.68955 40.7278C7.57913 39.0479 5.78488 36.9738 4.41464 34.617C5.30733 34.7658 6.20001 34.8402 7.16708 34.8402C18.9207 34.8402 28.4427 25.3182 28.4427 13.5646Z" fill="url(#paint0_linear_1334_8253)"/>
<path fill-rule="evenodd" clip-rule="evenodd" d="M81.3 42.9C79.4 31.6 69.4 23 57.7 23C48.6 23 40.4 28.1 36.4 36.1C35.2 35.6 34 35.4 32.8 35.4C28.6 35.4 25 37.9 23.6 41.6C23 41.5 22.5 41.5 21.9 41.5C17.8 41.5 14 43.1 11.2 46C8.5 48.8 7 52.4 7 56.2V56.4C7.1 60.5 8.7 64.2 11.6 66.9C14.3 69.6 18 71.1 21.9 71.1H77.6C85.5 71.1 92 64.7 92 56.8C92 50.2 87.5 44.5 81.3 42.9Z" fill="#999999"/>
<g opacity="0.6">
<path fill-rule="evenodd" clip-rule="evenodd" d="M81.3 42.9C79.4 31.6 69.4 23 57.7 23C48.6 23 40.4 28.1 36.4 36.1C35.2 35.6 34 35.4 32.8 35.4C28.6 35.4 25 37.9 23.6 41.6C23 41.5 22.5 41.5 21.9 41.5C17.8 41.5 14 43.1 11.2 46C8.5 48.8 7 52.4 7 56.2V56.4C7.1 60.5 8.7 64.2 11.6 66.9C14.3 69.6 18 71.1 21.9 71.1H77.6C85.5 71.1 92 64.7 92 56.8C92 50.2 87.5 44.5 81.3 42.9Z" fill="url(#paint1_linear_1334_8253)" style="mix-blend-mode:multiply"/>
</g>
<path d="M54.7 83.5H51.9L53.3 81C53.7 80.4 53.5 79.5 52.8 79.2C52.1 78.8 51.3 79 50.9 79.7L49.5 82.1L48.1 79.7C47.7 79 46.9 78.8 46.3 79.2C45.9 79.4 45.7 79.7 45.6 80C45.5 80.3 45.6 80.7 45.7 81L47.1 83.4H44.4C43.6 83.5 43 84.1 43 84.8C43 85.5 43.6 86.2 44.4 86.2H47.2L45.8 88.6C45.6 88.9 45.6 89.3 45.7 89.6C45.8 89.9 46 90.2 46.3 90.4C46.9 90.8 47.8 90.5 48.1 89.9L49.5 87.5L50.9 90C51.1 90.4 51.6 90.7 52.1 90.7C52.3 90.7 52.6 90.6 52.8 90.5C53.4 90.1 53.7 89.3 53.3 88.7L51.9 86.2H54.7C55.4 86.2 56.1 85.6 56.1 84.8C56.1 84 55.4 83.5 54.7 83.5Z" fill="white"/>
<path d="M82.7 83.5H79.9L81.3 81C81.7 80.4 81.5 79.5 80.8 79.2C80.1 78.8 79.3 79 78.9 79.7L77.5 82.1L76.1 79.7C75.7 79 74.9 78.8 74.3 79.2C73.9 79.4 73.7 79.7 73.6 80C73.5 80.3 73.6 80.7 73.7 81L75.1 83.4H72.4C71.6 83.5 71 84.1 71 84.8C71 85.5 71.6 86.2 72.4 86.2H75.2L73.8 88.6C73.6 88.9 73.6 89.3 73.7 89.6C73.8 89.9 74 90.2 74.3 90.4C74.9 90.8 75.8 90.5 76.1 89.9L77.5 87.5L78.9 90C79.1 90.4 79.6 90.7 80.1 90.7C80.3 90.7 80.6 90.6 80.8 90.5C81.4 90.1 81.7 89.3 81.3 88.7L79.9 86.2H82.7C83.4 86.2 84.1 85.6 84.1 84.8C84.1 84 83.4 83.5 82.7 83.5Z" fill="white"/>
<path d="M68.7 92.5H65.9L67.3 90C67.7 89.4 67.5 88.5 66.8 88.2C66.1 87.8 65.3 88 64.9 88.7L63.5 91.1L62.1 88.7C61.7 88 60.9 87.8 60.3 88.2C59.9 88.4 59.7 88.7 59.6 89C59.5 89.3 59.6 89.7 59.7 90L61.1 92.4H58.4C57.6 92.5 57 93.1 57 93.8C57 94.5 57.6 95.2 58.4 95.2H61.2L59.8 97.6C59.6 97.9 59.6 98.3 59.7 98.6C59.8 98.9 60 99.2 60.3 99.4C60.9 99.8 61.8 99.5 62.1 98.9L63.5 96.5L64.9 99C65.1 99.4 65.6 99.7 66.1 99.7C66.3 99.7 66.6 99.6 66.8 99.5C67.4 99.1 67.7 98.3 67.3 97.7L65.9 95.2H68.7C69.4 95.2 70.1 94.6 70.1 93.8C70.1 93 69.4 92.5 68.7 92.5Z" fill="white"/>
<path d="M40.7 92.5H37.9L39.3 90C39.7 89.4 39.5 88.5 38.8 88.2C38.1 87.8 37.3 88 36.9 88.7L35.5 91.1L34.1 88.7C33.7 88 32.9 87.8 32.3 88.2C31.9 88.4 31.7 88.7 31.6 89C31.5 89.3 31.6 89.7 31.7 90L33.1 92.4H30.4C29.6 92.5 29 93.1 29 93.8C29 94.5 29.6 95.2 30.4 95.2H33.2L31.8 97.6C31.6 97.9 31.6 98.3 31.7 98.6C31.8 98.9 32 99.2 32.3 99.4C32.9 99.8 33.8 99.5 34.1 98.9L35.5 96.5L36.9 99C37.1 99.4 37.6 99.7 38.1 99.7C38.3 99.7 38.6 99.6 38.8 99.5C39.4 99.1 39.7 98.3 39.3 97.7L37.9 95.2H40.7C41.4 95.2 42.1 94.6 42.1 93.8C42.1 93 41.4 92.5 40.7 92.5Z" fill="white"/>
<path d="M26.7 83.5H23.9L25.3 81C25.7 80.4 25.5 79.5 24.8 79.2C24.1 78.8 23.3 79 22.9 79.7L21.5 82.1L20.1 79.7C19.7 79 18.9 78.8 18.3 79.2C17.9 79.4 17.7 79.7 17.6 80C17.5 80.3 17.6 80.7 17.7 81L19.1 83.4H16.4C15.6 83.5 15 84.1 15 84.8C15 85.5 15.6 86.2 16.4 86.2H19.2L17.8 88.6C17.6 88.9 17.6 89.3 17.7 89.6C17.8 89.9 18 90.2 18.3 90.4C18.9 90.8 19.8 90.5 20.1 89.9L21.5 87.5L22.9 90C23.1 90.4 23.6 90.7 24.1 90.7C24.3 90.7 24.6 90.6 24.8 90.5C25.4 90.1 25.7 89.3 25.3 88.7L23.9 86.2H26.7C27.4 86.2 28.1 85.6 28.1 84.8C28.1 84 27.4 83.5 26.7 83.5Z" fill="white"/>
</g>
<defs>
<linearGradient id="paint0_linear_1334_8253" x1="12.8825" y1="39.0646" x2="36.651" y2="7.4074" gradientUnits="userSpaceOnUse">
<stop stop-color="#C7B789"/>
<stop offset="0.9891" stop-color="#E1C578"/>
</linearGradient>
<linearGradient id="paint1_linear_1334_8253" x1="47.5" y1="38.5" x2="49.5" y2="71.1" gradientUnits="userSpaceOnUse">
<stop offset="0.484375" stop-color="white" stop-opacity="0"/>
<stop offset="1" stop-color="#B3B2B2"/>
</linearGradient>
<clipPath id="clip0_1334_8253">
<rect width="100" height="100" fill="white"/>
</clipPath>
</defs>
</svg>
