<?xml version="1.0" encoding="utf-8"?>
<!-- Generator: Adobe Illustrator 16.0.0, SVG Export Plug-In . SVG Version: 6.00 Build 0)  -->
<!DOCTYPE svg PUBLIC "-//W3C//DTD SVG 1.1//EN" "http://www.w3.org/Graphics/SVG/1.1/DTD/svg11.dtd">
<svg version="1.1" xmlns="http://www.w3.org/2000/svg" xmlns:xlink="http://www.w3.org/1999/xlink" x="0px" y="0px" width="100px"
	 height="100px" viewBox="0 0 100 100" enable-background="new 0 0 100 100" xml:space="preserve">
<g id="snow_shower_thunder">
</g>
<g id="sleet_shower_thunder">
</g>
<g id="rain_shower_thunder">
</g>
<g id="clouds">
</g>
<g id="snow_shower">
</g>
<g id="sleet_shower">
</g>
<g id="rain_shower">
</g>
<g id="partly_cloudy">
</g>
<g id="fair">
</g>
<g id="clear">
	<g id="day">
		<polygon fill="#E88D15" points="69.284,57.986 100,50 69.284,42.014 85.358,14.645 57.986,30.719 50,0 42.013,30.719 
			14.645,14.645 30.718,42.014 0,50 30.718,57.986 14.645,85.358 42.013,69.284 50,100 57.986,69.284 85.358,85.358 		"/>
		<path fill="#FABA2F" stroke="#FFFFFF" stroke-width="5" stroke-miterlimit="10" d="M72.5,50c0,12.427-10.073,22.5-22.5,22.5
			c-12.423,0-22.5-10.073-22.5-22.5c0-12.423,10.077-22.5,22.5-22.5C62.427,27.5,72.5,37.577,72.5,50z"/>
	</g>
</g>
</svg>
