<?xml version="1.0" encoding="utf-8"?>
<!-- Generator: Adobe Illustrator 16.0.4, SVG Export Plug-In . SVG Version: 6.00 Build 0)  -->
<!DOCTYPE svg PUBLIC "-//W3C//DTD SVG 1.1//EN" "http://www.w3.org/Graphics/SVG/1.1/DTD/svg11.dtd" [
	<!ENTITY ns_extend "http://ns.adobe.com/Extensibility/1.0/">
	<!ENTITY ns_ai "http://ns.adobe.com/AdobeIllustrator/10.0/">
	<!ENTITY ns_graphs "http://ns.adobe.com/Graphs/1.0/">
	<!ENTITY ns_vars "http://ns.adobe.com/Variables/1.0/">
	<!ENTITY ns_imrep "http://ns.adobe.com/ImageReplacement/1.0/">
	<!ENTITY ns_sfw "http://ns.adobe.com/SaveForWeb/1.0/">
	<!ENTITY ns_custom "http://ns.adobe.com/GenericCustomNamespace/1.0/">
	<!ENTITY ns_adobe_xpath "http://ns.adobe.com/XPath/1.0/">
]>
<svg version="1.1" xmlns:x="&ns_extend;" xmlns:i="&ns_ai;" xmlns:graph="&ns_graphs;"
	 xmlns="http://www.w3.org/2000/svg" xmlns:xlink="http://www.w3.org/1999/xlink" x="0px" y="0px" width="100px" height="100px"
	 viewBox="0 0 100 100" enable-background="new 0 0 100 100" xml:space="preserve">
<metadata>
	<sfw  xmlns="&ns_sfw;">
		<slices></slices>
		<sliceSourceBounds  x="0" y="-430" bottomLeftOrigin="true" width="1642.504" height="430"></sliceSourceBounds>
	</sfw>
</metadata>
<g id="overcast">
</g>
<g id="night">
</g>
<g id="winter_day">
	<g id="day-winter">
		<g>
			<defs>
				<rect id="SVGID_29_" y="150" width="100" height="50"/>
			</defs>
			<clipPath id="SVGID_2_">
				<use xlink:href="#SVGID_29_"  overflow="visible"/>
			</clipPath>
			<g clip-path="url(#SVGID_2_)">
				<polygon fill="#E88D15" points="69.284,157.986 100,150 69.284,142.014 85.358,114.645 57.986,130.719 50,100 42.014,130.719 
					14.645,114.645 30.719,142.014 0,150 30.719,157.986 14.645,185.358 42.014,169.284 50,200 57.986,169.284 85.358,185.358 				
					"/>
			</g>
		</g>
	</g>
</g>
<g id="day_15_">
	<g id="day">
		<polygon fill="#E88D15" points="69.284,57.986 100,50 69.284,42.014 85.358,14.645 57.986,30.719 50,0 42.013,30.719 
			14.645,14.645 30.718,42.014 0,50 30.718,57.986 14.645,85.358 42.013,69.284 50,100 57.986,69.284 85.358,85.358 		"/>
		<path fill="#FABA2F" stroke="#FFFFFF" stroke-width="5" stroke-miterlimit="10" d="M72.5,50c0,12.427-10.073,22.5-22.5,22.5
			c-12.423,0-22.5-10.073-22.5-22.5c0-12.423,10.077-22.5,22.5-22.5C62.427,27.5,72.5,37.577,72.5,50z"/>
	</g>
</g>
</svg>
