<?xml version="1.0" encoding="utf-8"?>
<!-- Generator: Adobe Illustrator 16.0.0, SVG Export Plug-In . SVG Version: 6.00 Build 0)  -->
<!DOCTYPE svg PUBLIC "-//W3C//DTD SVG 1.1//EN" "http://www.w3.org/Graphics/SVG/1.1/DTD/svg11.dtd">
<svg version="1.1" xmlns="http://www.w3.org/2000/svg" xmlns:xlink="http://www.w3.org/1999/xlink" x="0px" y="0px" width="100px"
	 height="100px" viewBox="0 0 100 100" enable-background="new 0 0 100 100" xml:space="preserve">
<g id="snow_shower_thunder">
</g>
<g id="sleet_shower_thunder">
</g>
<g id="rain_shower_thunder">
</g>
<g id="clouds">
	<g id="heavy_rain_thunder">
	</g>
	<g id="rain_thunder">
	</g>
	<g id="heavy_snow">
	</g>
	<g id="sleet">
	</g>
	<g id="heavy_rain">
	</g>
	<g id="rain_1_">
	</g>
	<g id="heavy_cloud">
	</g>
	<g id="fog">
	</g>
</g>
<g id="snow_shower">
</g>
<g id="sleet_shower">
</g>
<g id="rain_shower">
</g>
<g id="partly_cloudy">
</g>
<g id="fair">
</g>
<g id="clear">
	<g id="day">
		<path fill="#E88D15" d="M67.373,40.076l10.913-18.362L59.932,32.629C62.9,34.619,65.386,37.1,67.373,40.076z"/>
		<path fill="#E88D15" d="M40.081,32.629L21.719,21.714l10.92,18.362C34.619,37.1,37.1,34.619,40.081,32.629z"/>
		<path fill="#E88D15" d="M59.932,67.373l18.35,10.923L67.373,59.922C65.386,62.9,62.9,65.381,59.932,67.373z"/>
		<path fill="#E88D15" d="M30.701,44.729L10,49.995l20.701,5.269C30,51.75,30,48.24,30.701,44.729z"/>
		<path fill="#E88D15" d="M69.297,55.264L90,50.005l-20.703-5.276C70,48.24,70,51.75,69.297,55.264z"/>
		<path fill="#E88D15" d="M32.639,59.922l-10.92,18.369l18.362-10.928C37.1,65.381,34.619,62.9,32.639,59.922z"/>
		<path fill="#E88D15" d="M55.273,30.701L49.995,10l-5.266,20.701C48.245,30,51.758,30,55.273,30.701z"/>
		<path fill="#E88D15" d="M44.729,69.297L50.005,90l5.269-20.703C51.758,69.99,48.245,69.99,44.729,69.297z"/>
		<path fill="#FABA2F" d="M49.999,34.003C58.832,34.003,66,41.167,66,50.001c0,8.838-7.168,15.996-16.001,15.996
			C41.163,65.997,34,58.839,34,50.001C34,41.167,41.163,34.003,49.999,34.003z"/>
	</g>
</g>
</svg>
