<?xml version="1.0" encoding="utf-8"?>
<!-- Generator: Adobe Illustrator 16.0.0, SVG Export Plug-In . SVG Version: 6.00 Build 0)  -->
<!DOCTYPE svg PUBLIC "-//W3C//DTD SVG 1.1//EN" "http://www.w3.org/Graphics/SVG/1.1/DTD/svg11.dtd">
<svg version="1.1" xmlns="http://www.w3.org/2000/svg" xmlns:xlink="http://www.w3.org/1999/xlink" x="0px" y="0px" width="100px"
	 height="100px" viewBox="0 0 100 100" enable-background="new 0 0 100 100" xml:space="preserve">
<g id="snow_shower_thunder">
</g>
<g id="sleet_shower_thunder">
</g>
<g id="rain_shower_thunder">
</g>
<g id="clouds">
	<g id="heavy_rain_thunder">
	</g>
	<g id="rain_thunder">
	</g>
	<g id="heavy_snow">
	</g>
	<g id="sleet">
	</g>
	<g id="heavy_rain">
	</g>
	<g id="rain_1_">
	</g>
	<g id="heavy_cloud">
	</g>
	<g id="fog">
	</g>
</g>
<g id="snow_shower">
</g>
<g id="sleet_shower">
</g>
<g id="rain_shower">
</g>
<g id="partly_cloudy">
</g>
<g id="fair">
</g>
<g id="clear">
	<g id="day-winter">
		<path fill="#E88D15" d="M90,44H70c0,2.002-0.498,3.501-1.006,5L90,44z"/>
		<path fill="#E88D15" d="M60,61.5l18.496,11.006L67.5,54C65.498,56.998,62.998,59.498,60,61.5z"/>
		<path fill="#E88D15" d="M30,44H10l21.001,5C30.498,47.501,30,46.002,30,44z"/>
		<path fill="#E88D15" d="M32.5,54L21.499,72.506L40,61.5C37.002,59.498,34.502,56.998,32.5,54z"/>
		<path fill="#E88D15" d="M44.697,63.136L50.005,84l5.298-20.859C51.768,63.844,48.232,63.844,44.697,63.136z"/>
		<path fill="#FABA2F" d="M66,44c0,8.833-7.166,16-16,16c-8.839,0-16-7.167-16-16H66z"/>
		<rect x="10" y="36" fill="#4D4D4D" width="80" height="4"/>
	</g>
</g>
</svg>
