<?xml version="1.0" encoding="utf-8"?>
<!-- Generator: Adobe Illustrator 16.0.4, SVG Export Plug-In . SVG Version: 6.00 Build 0)  -->
<!DOCTYPE svg PUBLIC "-//W3C//DTD SVG 1.1//EN" "http://www.w3.org/Graphics/SVG/1.1/DTD/svg11.dtd" [
	<!ENTITY ns_extend "http://ns.adobe.com/Extensibility/1.0/">
	<!ENTITY ns_ai "http://ns.adobe.com/AdobeIllustrator/10.0/">
	<!ENTITY ns_graphs "http://ns.adobe.com/Graphs/1.0/">
	<!ENTITY ns_vars "http://ns.adobe.com/Variables/1.0/">
	<!ENTITY ns_imrep "http://ns.adobe.com/ImageReplacement/1.0/">
	<!ENTITY ns_sfw "http://ns.adobe.com/SaveForWeb/1.0/">
	<!ENTITY ns_custom "http://ns.adobe.com/GenericCustomNamespace/1.0/">
	<!ENTITY ns_adobe_xpath "http://ns.adobe.com/XPath/1.0/">
]>
<svg version="1.1" xmlns:x="&ns_extend;" xmlns:i="&ns_ai;" xmlns:graph="&ns_graphs;"
	 xmlns="http://www.w3.org/2000/svg" xmlns:xlink="http://www.w3.org/1999/xlink" x="0px" y="0px" width="100px" height="100px"
	 viewBox="0 0 100 100" enable-background="new 0 0 100 100" xml:space="preserve">
<metadata>
	<sfw  xmlns="&ns_sfw;">
		<slices></slices>
		<sliceSourceBounds  x="-2.5" y="-8242" height="16383" width="1095" bottomLeftOrigin="true"></sliceSourceBounds>
	</sfw>
</metadata>
<g id="snow_shower_thunder">
</g>
<g id="sleet_shower_thunder">
</g>
<g id="rain_shower_thunder">
</g>
<g id="clouds">
</g>
<g id="snow_shower">
</g>
<g id="sleet_shower">
</g>
<g id="rain_shower">
</g>
<g id="partly_cloudy">
</g>
<g id="fair">
	<g id="day-winter_1_">
		<g>
			<defs>
				<rect id="SVGID_15_" y="150" width="100" height="50"/>
			</defs>
			<clipPath id="SVGID_2_">
				<use xlink:href="#SVGID_15_"  overflow="visible"/>
			</clipPath>
			<g clip-path="url(#SVGID_2_)">
				<polygon fill="#E88D15" points="69.284,157.986 100,150 69.284,142.014 85.358,114.645 57.986,130.719 50,100 42.014,130.719 
					14.645,114.645 30.719,142.014 0,150 30.719,157.986 14.645,185.358 42.014,169.284 50,200 57.986,169.284 85.358,185.358 				
					"/>
			</g>
		</g>
	</g>
</g>
<g id="clear">
	<g id="day-winter">
		<g>
			<defs>
				<rect id="SVGID_17_" y="40" width="100" height="50"/>
			</defs>
			<clipPath id="SVGID_4_">
				<use xlink:href="#SVGID_17_"  overflow="visible"/>
			</clipPath>
			<g clip-path="url(#SVGID_4_)">
				<polygon fill="#E88D15" points="69.284,47.986 100,40 69.284,32.014 85.358,4.645 57.986,20.719 50,-10 42.014,20.719 
					14.645,4.645 30.719,32.014 0,40 30.719,47.986 14.645,75.358 42.014,59.284 50,90 57.986,59.284 85.358,75.358 				"/>
				<circle fill="#FABA2F" stroke="#FFFFFF" stroke-width="5" stroke-miterlimit="10" cx="50" cy="40" r="22.5"/>
			</g>
		</g>
		<rect y="30" fill="#4D4D4D" width="100" height="5"/>
	</g>
</g>
</svg>
