<?xml version="1.0" encoding="utf-8"?>
<!-- Generator: Adobe Illustrator 16.0.0, SVG Export Plug-In . SVG Version: 6.00 Build 0)  -->
<!DOCTYPE svg PUBLIC "-//W3C//DTD SVG 1.1//EN" "http://www.w3.org/Graphics/SVG/1.1/DTD/svg11.dtd">
<svg version="1.1" xmlns="http://www.w3.org/2000/svg" xmlns:xlink="http://www.w3.org/1999/xlink" x="0px" y="0px" width="100px"
	 height="100px" viewBox="0 0 100 100" enable-background="new 0 0 100 100" xml:space="preserve">
<g id="snow_shower_thunder">
</g>
<g id="sleet_shower_thunder">
</g>
<g id="rain_shower_thunder">
</g>
<g id="clouds">
	<g id="heavy_rain_thunder">
	</g>
	<g id="rain_thunder">
	</g>
	<g id="heavy_snow">
	</g>
	<g id="sleet">
	</g>
	<g id="heavy_rain">
	</g>
	<g id="rain_1_">
	</g>
	<g id="heavy_cloud">
	</g>
	<g id="fog">
	</g>
</g>
<g id="snow_shower">
</g>
<g id="sleet_shower">
</g>
<g id="rain_shower">
</g>
<g id="partly_cloudy">
</g>
<g id="fair">
	<g id="day_1_">
		<g id="sun">
			<path fill="#E88D15" d="M67.373,40.076l10.913-18.362L59.932,32.629C62.9,34.619,65.386,37.1,67.373,40.076z"/>
			<path fill="#E88D15" d="M40.081,32.629L21.719,21.714l10.92,18.362C34.619,37.1,37.1,34.619,40.081,32.629z"/>
			<path fill="#E88D15" d="M59.932,67.373l18.35,10.923L67.373,59.922C65.386,62.9,62.9,65.381,59.932,67.373z"/>
			<path fill="#E88D15" d="M30.701,44.729L10,49.995l20.701,5.269C30,51.75,30,48.24,30.701,44.729z"/>
			<path fill="#E88D15" d="M69.297,55.264L90,50.005l-20.703-5.276C70,48.24,70,51.75,69.297,55.264z"/>
			<path fill="#E88D15" d="M55.273,30.701L49.995,10l-5.266,20.701C48.245,30,51.758,30,55.273,30.701z"/>
			<path fill="#FABA2F" d="M49.999,34.003C58.832,34.003,66,41.167,66,50.001c0,8.838-7.168,15.996-16.001,15.996
				C41.163,65.997,34,58.839,34,50.001C34,41.167,41.163,34.003,49.999,34.003z"/>
		</g>
		<g>
			<path fill="#FFFFFF" d="M38.247,54c-2.662,0-5.145,0.901-7.203,2.581c-0.967-0.195-1.941-0.294-2.915-0.294
				c-4.171,0-7.865,1.787-10.136,4.902c-1.542,2.117-2.273,4.634-2.163,7.316C12.939,70.29,11,73.501,11,77.035
				C11,82.344,15.662,87,20.978,87h39.407C65.223,86.963,69,83.131,69,78.244c0-3.171-1.588-5.843-4.074-7.172
				c-1.35-2.484-4.045-4.619-7.449-4.932c-1.527-3.201-4.699-5.411-8.495-5.611c-2.054-3.858-6.205-6.528-10.732-6.529l0,0
				C38.248,54,38.248,54,38.247,54L38.247,54z"/>
			<path fill="#BFBFBF" d="M60.314,83.004c2.506,0,4.686-1.933,4.686-4.752c0-1.854-0.969-3.708-3.15-4.03
				c-0.322-2.176-3.357-5.229-7.396-3.698c0-4.473-4.219-6.972-8.193-5.648c-0.889-6.285-9.371-9.751-14.055-3.788
				c-7.189-2.819-14.377,2.176-11.874,9.995C17.504,71.4,15,73.9,15,77.042c0,3.144,2.828,5.962,5.978,5.962H60.314z"/>
		</g>
	</g>
</g>
<g id="clear">
</g>
</svg>
