<?xml version="1.0" encoding="utf-8"?>
<!-- Generator: Adobe Illustrator 16.0.4, SVG Export Plug-In . SVG Version: 6.00 Build 0)  -->
<!DOCTYPE svg PUBLIC "-//W3C//DTD SVG 1.1//EN" "http://www.w3.org/Graphics/SVG/1.1/DTD/svg11.dtd" [
	<!ENTITY ns_extend "http://ns.adobe.com/Extensibility/1.0/">
	<!ENTITY ns_ai "http://ns.adobe.com/AdobeIllustrator/10.0/">
	<!ENTITY ns_graphs "http://ns.adobe.com/Graphs/1.0/">
	<!ENTITY ns_vars "http://ns.adobe.com/Variables/1.0/">
	<!ENTITY ns_imrep "http://ns.adobe.com/ImageReplacement/1.0/">
	<!ENTITY ns_sfw "http://ns.adobe.com/SaveForWeb/1.0/">
	<!ENTITY ns_custom "http://ns.adobe.com/GenericCustomNamespace/1.0/">
	<!ENTITY ns_adobe_xpath "http://ns.adobe.com/XPath/1.0/">
]>
<svg version="1.1" xmlns:x="&ns_extend;" xmlns:i="&ns_ai;" xmlns:graph="&ns_graphs;"
	 xmlns="http://www.w3.org/2000/svg" xmlns:xlink="http://www.w3.org/1999/xlink" x="0px" y="0px" width="100px" height="100px"
	 viewBox="0 0 100 100" enable-background="new 0 0 100 100" xml:space="preserve">
<metadata>
	<sfw  xmlns="&ns_sfw;">
		<slices></slices>
		<sliceSourceBounds  y="-8242" x="-2.5" bottomLeftOrigin="true" height="16383" width="1095"></sliceSourceBounds>
	</sfw>
</metadata>
<g id="snow_shower_thunder">
</g>
<g id="sleet_shower_thunder">
</g>
<g id="rain_shower_thunder">
</g>
<g id="clouds">
</g>
<g id="snow_shower">
</g>
<g id="sleet_shower">
</g>
<g id="rain_shower">
</g>
<g id="partly_cloudy">
</g>
<g id="fair">
	<g id="day_1_">
		<polygon fill="#E88D15" points="69.284,57.986 100,50 69.284,42.014 85.358,14.645 57.986,30.719 50,0 42.013,30.719 
			14.645,14.645 30.718,42.014 0,50 30.718,57.986 14.645,85.358 42.013,69.284 50,100 57.986,69.284 85.358,85.358 		"/>
		<path fill="#FABA2F" stroke="#FFFFFF" stroke-width="5" stroke-miterlimit="10" d="M72.5,50c0,12.427-10.073,22.5-22.5,22.5
			c-12.423,0-22.5-10.073-22.5-22.5c0-12.424,10.077-22.5,22.5-22.5C62.427,27.5,72.5,37.576,72.5,50z"/>
	</g>
	<path id="cloud_9_" fill="#D9D9D9" stroke="#FFFFFF" stroke-width="3" stroke-miterlimit="10" d="M59.373,85
		C62.385,85,65,82.367,65,79.631c0-2.768-1.339-5.062-4.162-6.115c-0.975-3.254-3.938-5.504-7.725-5.615
		c-0.826-4.163-6.113-6.647-9.826-5.597c-1.635-5.812-11.248-10.576-17.587-4.426C16.438,55.327,9.937,61.1,10.936,69.875
		C7.274,70.925,5,74.141,5,77.902C5,81.681,8.387,85,12.167,85H59.373z"/>
</g>
<g id="clear">
</g>
</svg>
