<?xml version="1.0" encoding="utf-8"?>
<!-- Generator: Adobe Illustrator 16.0.0, SVG Export Plug-In . SVG Version: 6.00 Build 0)  -->
<!DOCTYPE svg PUBLIC "-//W3C//DTD SVG 1.1//EN" "http://www.w3.org/Graphics/SVG/1.1/DTD/svg11.dtd">
<svg version="1.1" xmlns="http://www.w3.org/2000/svg" xmlns:xlink="http://www.w3.org/1999/xlink" x="0px" y="0px" width="100px"
	 height="100px" viewBox="0 0 100 100" enable-background="new 0 0 100 100" xml:space="preserve">
<g id="snow_shower_thunder">
</g>
<g id="sleet_shower_thunder">
</g>
<g id="rain_shower_thunder">
</g>
<g id="clouds">
</g>
<g id="snow_shower">
</g>
<g id="sleet_shower">
</g>
<g id="rain_shower">
</g>
<g id="partly_cloudy">
</g>
<g id="fair">
	<path id="night-5" fill="#AFC1C9" d="M50,20c-16.541,0-30,13.459-30,30s13.459,30,30,30s30-13.459,30-30S66.541,20,50,20z"/>
	<path id="cloud_3_" fill="#D9D9D9" stroke="#FFFFFF" stroke-width="3" stroke-miterlimit="10" d="M59.373,85
		C62.385,85,65,82.367,65,79.631c0-2.768-1.338-5.062-4.162-6.115c-0.975-3.254-3.938-5.504-7.725-5.615
		c-0.826-4.163-6.113-6.647-9.826-5.597c-1.635-5.812-11.248-10.576-17.588-4.426C16.438,55.327,9.938,61.1,10.936,69.875
		C7.275,70.925,5,74.141,5,77.902C5,81.681,8.387,85,12.168,85H59.373z"/>
</g>
<g id="clear">
</g>
</svg>
