<?xml version="1.0" encoding="utf-8"?>
<!-- Generator: Adobe Illustrator 16.0.4, SVG Export Plug-In . SVG Version: 6.00 Build 0)  -->
<!DOCTYPE svg PUBLIC "-//W3C//DTD SVG 1.1//EN" "http://www.w3.org/Graphics/SVG/1.1/DTD/svg11.dtd" [
	<!ENTITY ns_extend "http://ns.adobe.com/Extensibility/1.0/">
	<!ENTITY ns_ai "http://ns.adobe.com/AdobeIllustrator/10.0/">
	<!ENTITY ns_graphs "http://ns.adobe.com/Graphs/1.0/">
	<!ENTITY ns_vars "http://ns.adobe.com/Variables/1.0/">
	<!ENTITY ns_imrep "http://ns.adobe.com/ImageReplacement/1.0/">
	<!ENTITY ns_sfw "http://ns.adobe.com/SaveForWeb/1.0/">
	<!ENTITY ns_custom "http://ns.adobe.com/GenericCustomNamespace/1.0/">
	<!ENTITY ns_adobe_xpath "http://ns.adobe.com/XPath/1.0/">
]>
<svg version="1.1" xmlns:x="&ns_extend;" xmlns:i="&ns_ai;" xmlns:graph="&ns_graphs;"
	 xmlns="http://www.w3.org/2000/svg" xmlns:xlink="http://www.w3.org/1999/xlink" x="0px" y="0px" width="100px" height="100px"
	 viewBox="0 0 100 100" enable-background="new 0 0 100 100" xml:space="preserve">
<metadata>
	<sfw  xmlns="&ns_sfw;">
		<slices></slices>
		<sliceSourceBounds  x="-2.5" y="-8242" height="16383" width="1095" bottomLeftOrigin="true"></sliceSourceBounds>
	</sfw>
</metadata>
<g id="snow_shower_thunder">
</g>
<g id="sleet_shower_thunder">
</g>
<g id="rain_shower_thunder">
</g>
<g id="clouds">
</g>
<g id="snow_shower">
</g>
<g id="sleet_shower">
</g>
<g id="rain_shower">
</g>
<g id="partly_cloudy">
	<g id="day_3_">
		<polygon fill="#E88D15" points="46.57,49.791 65,45 46.57,40.209 56.214,23.786 39.792,33.431 35,15 30.208,33.431 13.787,23.786 
			23.431,40.209 5,45 23.431,49.791 13.787,66.214 30.208,56.569 35,75 39.792,56.569 56.214,66.214 		"/>
		<circle fill="#FABA2F" stroke="#FFFFFF" stroke-width="3" stroke-miterlimit="10" cx="35" cy="45" r="13.5"/>
	</g>
	<path id="cloud_29_" fill="#BFBFBF" stroke="#FFFFFF" stroke-width="5" stroke-miterlimit="10" d="M9.377,85
		C4.357,85,0,80.609,0,76.051c0-4.613,2.231-8.439,6.938-10.191c1.625-5.422,6.562-9.172,12.875-9.359
		C21.188,49.562,30,45.422,36.188,47.172c2.727-9.688,18.748-17.625,29.312-7.375c15.438-4.25,26.272,5.37,24.607,19.992
		C96.21,61.542,100,66.901,100,73.172C100,79.466,94.355,85,88.054,85H9.377z"/>
</g>
<g id="fair">
</g>
<g id="clear">
</g>
</svg>
