<?xml version="1.0" encoding="utf-8"?>
<!-- Generator: Adobe Illustrator 16.0.4, SVG Export Plug-In . SVG Version: 6.00 Build 0)  -->
<!DOCTYPE svg PUBLIC "-//W3C//DTD SVG 1.1//EN" "http://www.w3.org/Graphics/SVG/1.1/DTD/svg11.dtd" [
	<!ENTITY ns_extend "http://ns.adobe.com/Extensibility/1.0/">
	<!ENTITY ns_ai "http://ns.adobe.com/AdobeIllustrator/10.0/">
	<!ENTITY ns_graphs "http://ns.adobe.com/Graphs/1.0/">
	<!ENTITY ns_vars "http://ns.adobe.com/Variables/1.0/">
	<!ENTITY ns_imrep "http://ns.adobe.com/ImageReplacement/1.0/">
	<!ENTITY ns_sfw "http://ns.adobe.com/SaveForWeb/1.0/">
	<!ENTITY ns_custom "http://ns.adobe.com/GenericCustomNamespace/1.0/">
	<!ENTITY ns_adobe_xpath "http://ns.adobe.com/XPath/1.0/">
]>
<svg version="1.1" xmlns:x="&ns_extend;" xmlns:i="&ns_ai;" xmlns:graph="&ns_graphs;"
	 xmlns="http://www.w3.org/2000/svg" xmlns:xlink="http://www.w3.org/1999/xlink" x="0px" y="0px" width="100px" height="100px"
	 viewBox="0 0 100 100" enable-background="new 0 0 100 100" xml:space="preserve">
<metadata>
	<sfw  xmlns="&ns_sfw;">
		<slices></slices>
		<sliceSourceBounds  x="0" y="-430" bottomLeftOrigin="true" width="1642.504" height="430"></sliceSourceBounds>
	</sfw>
</metadata>
<g id="overcast">
</g>
<g id="night">
</g>
<g id="winter_day">
	<g id="day-winter_3_">
		<g>
			<defs>
				<rect id="SVGID_23_" x="10" y="130" width="60" height="30"/>
			</defs>
			<clipPath id="SVGID_2_">
				<use xlink:href="#SVGID_23_"  overflow="visible"/>
			</clipPath>
			<g clip-path="url(#SVGID_2_)">
				<polygon fill="#E88D15" points="51.569,134.791 70,130 51.569,125.209 61.214,108.786 44.791,118.431 40,100 35.209,118.431 
					18.786,108.786 28.431,125.209 10,130 28.431,134.791 18.786,151.214 35.209,141.569 40,160 44.791,141.569 61.214,151.214 				
					"/>
			</g>
		</g>
	</g>
</g>
<g id="day_15_">
	<g id="day_3_">
		<polygon fill="#E88D15" points="46.57,39.791 65,35 46.57,30.209 56.214,13.786 39.791,23.431 35,5 30.209,23.431 13.787,13.786 
			23.432,30.209 5,35 23.432,39.791 13.787,56.214 30.209,46.569 35,65 39.791,46.569 56.214,56.214 		"/>
		<circle fill="#FABA2F" stroke="#FFFFFF" stroke-width="3" stroke-miterlimit="10" cx="35" cy="35" r="13.5"/>
	</g>
	<path id="cloud_29_" fill="#D9D9D9" stroke="#FFFFFF" stroke-width="5" stroke-miterlimit="10" d="M9.377,75
		C4.357,75,0,70.609,0,66.051c0-4.613,2.231-8.439,6.938-10.191c1.625-5.422,6.562-9.172,12.875-9.359
		C21.188,39.562,30,35.422,36.188,37.172c2.727-9.688,18.748-17.625,29.312-7.375c15.438-4.25,26.272,5.37,24.607,19.992
		C96.21,51.542,100,56.901,100,63.172C100,69.466,94.355,75,88.054,75H9.377z"/>
</g>
</svg>
