<?xml version="1.0" encoding="utf-8"?>
<!-- Generator: Adobe Illustrator 17.1.0, SVG Export Plug-In . SVG Version: 6.00 Build 0)  -->
<!DOCTYPE svg PUBLIC "-//W3C//DTD SVG 1.1//EN" "http://www.w3.org/Graphics/SVG/1.1/DTD/svg11.dtd">
<svg version="1.1" id="symbol" xmlns="http://www.w3.org/2000/svg" xmlns:xlink="http://www.w3.org/1999/xlink" x="0px" y="0px"
	 viewBox="0 0 100 100" enable-background="new 0 0 100 100" xml:space="preserve">
<symbol  id="cloud1" viewBox="-2 -56 94 58">
	<path fill="#E6E6E6" stroke="#FFFFFF" stroke-width="4" stroke-miterlimit="10" d="M53.6,0C44,0.3,35.1-5,32.1-15.3
		c-6.1,1.5-16-2.4-17.8-10.9C8.1-26,0-31.1,0-39.6C0-49,7-54,19.5-54h43.6c5.6,0,12.9,0.5,17.3,2.6c14.9,7.2,12.3,32.3-6.4,34.6
		C71.7-5.9,63.1-0.3,53.6,0z"/>
</symbol>
<symbol  id="sun" viewBox="0 -88.1 88.1 88.1">
	<path fill="#FABA2F" d="M64.6-44.1c0-11.3-9.2-20.5-20.5-20.5c-11.3,0-20.5,9.2-20.5,20.5c0,11.3,9.2,20.5,20.5,20.5
		C55.4-23.6,64.6-32.7,64.6-44.1z"/>
	<path fill="#E88D15" d="M22.6-32.3c2.2,4.1,5.6,7.5,9.7,9.7l-17,10c-1.8,1-3.8-1-2.7-2.7L22.6-32.3z"/>
	<path fill="#E88D15" d="M44.1-19.6c2.4,0,4.7-0.3,6.9-1L46-1.5c-0.5,2-3.3,2-3.9,0l-5-19.1C39.4-19.9,41.7-19.6,44.1-19.6z"/>
	<path fill="#E88D15" d="M86.6-42.1l-19.1,5c0.6-2.2,1-4.5,1-6.9c0-2.4-0.3-4.7-1-6.9l19.1,5C88.6-45.5,88.6-42.7,86.6-42.1z"/>
	<path fill="#E88D15" d="M19.6-44.1c0,2.4,0.3,4.7,1,6.9l-19.1-5c-2-0.5-2-3.3,0-3.9l19.1-5C19.9-48.8,19.6-46.5,19.6-44.1z"/>
	<path fill="#E88D15" d="M65.6-32.3l10,17c1,1.8-1,3.8-2.7,2.7l-17-10C59.9-24.8,63.3-28.2,65.6-32.3z"/>
	<path fill="#E88D15" d="M22.6-55.8l-10-17c-1-1.8,1-3.8,2.7-2.7l17,10C28.2-63.3,24.8-59.9,22.6-55.8z"/>
	<path fill="#E88D15" d="M65.6-55.8c-2.2-4.1-5.6-7.5-9.7-9.7l17-10c1.8-1,3.8,1,2.7,2.7L65.6-55.8z"/>
	<path fill="#E88D15" d="M44.1-68.6c-2.4,0-4.7,0.3-6.9,1l5-19.1c0.5-2,3.3-2,3.9,0l5,19.1C48.8-68.2,46.5-68.6,44.1-68.6z"/>
</symbol>
<use xlink:href="#sun"  width="88.1" height="88.1" x="0" y="-88.1" transform="matrix(0.6 0 0 -0.6 4 7)" overflow="visible"/>
<use xlink:href="#cloud1"  width="94" height="58" id="XMLID_27_" x="-2" y="-56" transform="matrix(1 0 0 -1 8 23)" overflow="visible"/>
</svg>
