<?xml version="1.0" encoding="utf-8"?>
<!-- Generator: Adobe Illustrator 16.0.0, SVG Export Plug-In . SVG Version: 6.00 Build 0)  -->
<!DOCTYPE svg PUBLIC "-//W3C//DTD SVG 1.1//EN" "http://www.w3.org/Graphics/SVG/1.1/DTD/svg11.dtd">
<svg version="1.1" xmlns="http://www.w3.org/2000/svg" xmlns:xlink="http://www.w3.org/1999/xlink" x="0px" y="0px" width="100px"
	 height="100px" viewBox="0 0 100 100" enable-background="new 0 0 100 100" xml:space="preserve">
<g id="snow_shower_thunder">
</g>
<g id="sleet_shower_thunder">
</g>
<g id="rain_shower_thunder">
</g>
<g id="clouds">
</g>
<g id="snow_shower">
</g>
<g id="sleet_shower">
</g>
<g id="rain_shower">
	<g id="day-winter_2_">
		<g>
			<defs>
				<rect id="SVGID_11_" x="10" y="130" width="60" height="30"/>
			</defs>
			<clipPath id="SVGID_2_">
				<use xlink:href="#SVGID_11_"  overflow="visible"/>
			</clipPath>
			<g clip-path="url(#SVGID_2_)">
				<polygon fill="#E88D15" points="51.569,134.791 70,130 51.569,125.209 61.214,108.786 44.791,118.431 40,100 35.209,118.431 
					18.786,108.786 28.431,125.209 10,130 28.431,134.791 18.786,151.214 35.209,141.569 40,160 44.791,141.569 61.214,151.214 				
					"/>
			</g>
		</g>
	</g>
</g>
<g id="partly_cloudy">
	<g id="day-winter_3_">
		<g>
			<defs>
				<rect id="SVGID_13_" x="10" y="30" width="60" height="30"/>
			</defs>
			<clipPath id="SVGID_4_">
				<use xlink:href="#SVGID_13_"  overflow="visible"/>
			</clipPath>
			<g clip-path="url(#SVGID_4_)">
				<polygon fill="#E88D15" points="51.569,34.791 70,30 51.569,25.209 61.214,8.786 44.791,18.431 40,0 35.209,18.431 
					18.786,8.786 28.431,25.209 10,30 28.431,34.791 18.786,51.214 35.209,41.569 40,60 44.791,41.569 61.214,51.214 				"/>
				<circle fill="#FABA2F" stroke="#FFFFFF" stroke-width="3" stroke-miterlimit="10" cx="40" cy="30" r="13.5"/>
			</g>
		</g>
		<rect x="10" y="24" fill="#4D4D4D" width="60" height="3"/>
	</g>
	<path id="cloud_28_" fill="#A6A6A6" stroke="#FFFFFF" stroke-width="5" stroke-miterlimit="10" d="M9.377,85
		C4.357,85,0,80.609,0,76.051c0-4.613,2.231-8.439,6.938-10.191c1.625-5.422,6.562-9.172,12.875-9.359
		C21.188,49.562,30,45.422,36.188,47.172c2.727-9.688,18.748-17.625,29.312-7.375c15.438-4.25,26.272,5.37,24.607,19.992
		C96.21,61.542,100,66.901,100,73.172C100,79.466,94.355,85,88.054,85H9.377z"/>
</g>
<g id="fair">
</g>
<g id="clear">
</g>
</svg>
