<?xml version="1.0" encoding="utf-8"?>
<!-- Generator: Adobe Illustrator 16.0.0, SVG Export Plug-In . SVG Version: 6.00 Build 0)  -->
<!DOCTYPE svg PUBLIC "-//W3C//DTD SVG 1.1//EN" "http://www.w3.org/Graphics/SVG/1.1/DTD/svg11.dtd">
<svg version="1.1" xmlns="http://www.w3.org/2000/svg" xmlns:xlink="http://www.w3.org/1999/xlink" x="0px" y="0px" width="100px"
	 height="100px" viewBox="0 0 100 100" enable-background="new 0 0 100 100" xml:space="preserve">
<g id="snow_shower_thunder">
</g>
<g id="sleet_shower_thunder">
</g>
<g id="rain_shower_thunder">
</g>
<g id="clouds">
</g>
<g id="snow_shower">
</g>
<g id="sleet_shower">
</g>
<g id="rain_shower">
</g>
<g id="partly_cloudy">
	<path id="night-1_3_" fill="#AFC1C9" d="M33,22c-9.926,0-18,8.074-18,18s8.074,18,18,18s18-8.074,18-18S42.926,22,33,22z
		 M33,54.398c-7.941,0-14.398-6.457-14.398-14.398S25.059,25.602,33,25.602S47.398,32.059,47.398,40S40.941,54.398,33,54.398z"/>
	<path id="cloud_27_" fill="#A6A6A6" stroke="#FFFFFF" stroke-width="5" stroke-miterlimit="10" d="M9.377,85
		C4.357,85,0,80.609,0,76.051c0-4.613,2.231-8.439,6.938-10.191c1.625-5.422,6.562-9.172,12.875-9.359
		C21.188,49.562,30,45.422,36.188,47.172c2.727-9.688,18.748-17.625,29.312-7.375c15.438-4.25,26.272,5.37,24.607,19.992
		C96.21,61.542,100,66.901,100,73.172C100,79.466,94.355,85,88.054,85H9.377z"/>
</g>
<g id="fair">
</g>
<g id="clear">
</g>
</svg>
