<?xml version="1.0" encoding="utf-8"?>
<!-- Generator: Adobe Illustrator 17.1.0, SVG Export Plug-In . SVG Version: 6.00 Build 0)  -->
<!DOCTYPE svg PUBLIC "-//W3C//DTD SVG 1.1//EN" "http://www.w3.org/Graphics/SVG/1.1/DTD/svg11.dtd">
<svg version="1.1" id="symbol" xmlns="http://www.w3.org/2000/svg" xmlns:xlink="http://www.w3.org/1999/xlink" x="0px" y="0px"
	 viewBox="0 0 100 100" enable-background="new 0 0 100 100" xml:space="preserve">
<symbol  id="cloud1" viewBox="-2 -56 94 58">
	<path fill="#E6E6E6" stroke="#FFFFFF" stroke-width="4" stroke-miterlimit="10" d="M53.6,0C44,0.3,35.1-5,32.1-15.3
		c-6.1,1.5-16-2.4-17.8-10.9C8.1-26,0-31.1,0-39.6C0-49,7-54,19.5-54h43.6c5.6,0,12.9,0.5,17.3,2.6c14.9,7.2,12.3,32.3-6.4,34.6
		C71.7-5.9,63.1-0.3,53.6,0z"/>
</symbol>
<symbol  id="moon" viewBox="0 -60 52.4 60">
	<path fill="#AFC1C9" d="M23-20c0,7.7,2.9,14.7,7.6,20c-0.2,0-0.4,0-0.6,0C13.4,0,0-13.4,0-30s13.4-30,30-30c8.9,0,16.9,3.9,22.4,10
		C36.1-49.6,23-36.4,23-20z"/>
</symbol>
<use xlink:href="#moon"  width="52.4" height="60" y="-60" transform="matrix(0.6667 0 0 -0.6667 18 13)" overflow="visible"/>
<use xlink:href="#cloud1"  width="94" height="58" id="XMLID_44_" x="-2" y="-56" transform="matrix(1 0 0 -1 8 23)" overflow="visible"/>
</svg>
