<?xml version="1.0" encoding="utf-8"?>
<!-- Generator: Adobe Illustrator 16.0.0, SVG Export Plug-In . SVG Version: 6.00 Build 0)  -->
<!DOCTYPE svg PUBLIC "-//W3C//DTD SVG 1.1//EN" "http://www.w3.org/Graphics/SVG/1.1/DTD/svg11.dtd">
<svg version="1.1" xmlns="http://www.w3.org/2000/svg" xmlns:xlink="http://www.w3.org/1999/xlink" x="0px" y="0px" width="100px"
	 height="100px" viewBox="0 0 100 100" enable-background="new 0 0 100 100" xml:space="preserve">
<g id="snow_shower_thunder">
</g>
<g id="sleet_shower_thunder">
</g>
<g id="rain_shower_thunder">
</g>
<g id="clouds">
</g>
<g id="snow_shower">
</g>
<g id="sleet_shower">
</g>
<g id="rain_shower">
</g>
<g id="partly_cloudy">
	<path id="night-2_3_" fill="#AFC1C9" d="M15,40c0,9.926,8.07,18,18,18c9.922,0,18-8.074,18-18s-8.078-18-18-18
		C23.07,22,15,30.074,15,40z M18.602,40c0-7.941,6.453-14.398,14.398-14.398c2.195,0,7.199,6.457,7.199,14.398
		S34.969,54.398,33,54.398C25.055,54.398,18.602,47.941,18.602,40z"/>
	<path id="cloud_26_" fill="#A6A6A6" stroke="#FFFFFF" stroke-width="5" stroke-miterlimit="10" d="M9.377,85
		C4.357,85,0,80.609,0,76.051c0-4.613,2.231-8.439,6.938-10.191c1.625-5.422,6.562-9.172,12.875-9.359
		C21.188,49.562,30,45.422,36.188,47.172c2.727-9.688,18.748-17.625,29.312-7.375c15.438-4.25,26.272,5.37,24.607,19.992
		C96.21,61.542,100,66.901,100,73.172C100,79.466,94.355,85,88.054,85H9.377z"/>
</g>
<g id="fair">
</g>
<g id="clear">
</g>
</svg>
