<?xml version="1.0" encoding="utf-8"?>
<!-- Generator: Adobe Illustrator 16.0.4, SVG Export Plug-In . SVG Version: 6.00 Build 0)  -->
<!DOCTYPE svg PUBLIC "-//W3C//DTD SVG 1.1//EN" "http://www.w3.org/Graphics/SVG/1.1/DTD/svg11.dtd" [
	<!ENTITY ns_extend "http://ns.adobe.com/Extensibility/1.0/">
	<!ENTITY ns_ai "http://ns.adobe.com/AdobeIllustrator/10.0/">
	<!ENTITY ns_graphs "http://ns.adobe.com/Graphs/1.0/">
	<!ENTITY ns_vars "http://ns.adobe.com/Variables/1.0/">
	<!ENTITY ns_imrep "http://ns.adobe.com/ImageReplacement/1.0/">
	<!ENTITY ns_sfw "http://ns.adobe.com/SaveForWeb/1.0/">
	<!ENTITY ns_custom "http://ns.adobe.com/GenericCustomNamespace/1.0/">
	<!ENTITY ns_adobe_xpath "http://ns.adobe.com/XPath/1.0/">
]>
<svg version="1.1" xmlns:x="&ns_extend;" xmlns:i="&ns_ai;" xmlns:graph="&ns_graphs;"
	 xmlns="http://www.w3.org/2000/svg" xmlns:xlink="http://www.w3.org/1999/xlink" x="0px" y="0px" width="100px" height="100px"
	 viewBox="0 0 100 100" enable-background="new 0 0 100 100" xml:space="preserve">
<metadata>
	<sfw  xmlns="&ns_sfw;">
		<slices></slices>
		<sliceSourceBounds  y="-8242" x="-2.5" bottomLeftOrigin="true" height="16383" width="1095"></sliceSourceBounds>
	</sfw>
</metadata>
<g id="snow_shower_thunder">
</g>
<g id="sleet_shower_thunder">
</g>
<g id="rain_shower_thunder">
</g>
<g id="clouds">
</g>
<g id="snow_shower">
</g>
<g id="sleet_shower">
</g>
<g id="rain_shower">
</g>
<g id="partly_cloudy">
	<path id="night-5_3_" fill="#AFC1C9" d="M30,22c-11.027,0-20,8.973-20,20s8.973,20,20,20s20-8.973,20-20S41.027,22,30,22z"/>
	<path id="cloud_23_" fill="#A6A6A6" stroke="#FFFFFF" stroke-width="5" stroke-miterlimit="10" d="M9.377,85
		C4.357,85,0,80.609,0,76.051c0-4.613,2.231-8.439,6.938-10.191c1.625-5.422,6.562-9.172,12.875-9.359
		C21.188,49.562,30,45.422,36.188,47.172c2.727-9.688,18.748-17.625,29.312-7.375c15.438-4.25,26.272,5.37,24.607,19.992
		C96.21,61.542,100,66.901,100,73.172C100,79.466,94.355,85,88.054,85H9.377z"/>
</g>
<g id="fair">
</g>
<g id="clear">
</g>
</svg>
