<?xml version="1.0" encoding="utf-8"?>
<!-- Generator: Adobe Illustrator 16.0.4, SVG Export Plug-In . SVG Version: 6.00 Build 0)  -->
<!DOCTYPE svg PUBLIC "-//W3C//DTD SVG 1.1//EN" "http://www.w3.org/Graphics/SVG/1.1/DTD/svg11.dtd" [
	<!ENTITY ns_extend "http://ns.adobe.com/Extensibility/1.0/">
	<!ENTITY ns_ai "http://ns.adobe.com/AdobeIllustrator/10.0/">
	<!ENTITY ns_graphs "http://ns.adobe.com/Graphs/1.0/">
	<!ENTITY ns_vars "http://ns.adobe.com/Variables/1.0/">
	<!ENTITY ns_imrep "http://ns.adobe.com/ImageReplacement/1.0/">
	<!ENTITY ns_sfw "http://ns.adobe.com/SaveForWeb/1.0/">
	<!ENTITY ns_custom "http://ns.adobe.com/GenericCustomNamespace/1.0/">
	<!ENTITY ns_adobe_xpath "http://ns.adobe.com/XPath/1.0/">
]>
<svg version="1.1" xmlns:x="&ns_extend;" xmlns:i="&ns_ai;" xmlns:graph="&ns_graphs;"
	 xmlns="http://www.w3.org/2000/svg" xmlns:xlink="http://www.w3.org/1999/xlink" x="0px" y="0px" width="100px" height="100px"
	 viewBox="0 0 100 100" enable-background="new 0 0 100 100" xml:space="preserve">
<metadata>
	<sfw  xmlns="&ns_sfw;">
		<slices></slices>
		<sliceSourceBounds  y="-8242" x="-2.5" bottomLeftOrigin="true" height="16383" width="1095"></sliceSourceBounds>
	</sfw>
</metadata>
<g id="snow_shower_thunder">
</g>
<g id="sleet_shower_thunder">
</g>
<g id="rain_shower_thunder">
</g>
<g id="clouds">
</g>
<g id="snow_shower">
</g>
<g id="sleet_shower">
	<g id="day-winter_4_">
		<g>
			<defs>
				<rect id="SVGID_9_" x="10" y="130" width="60" height="30"/>
			</defs>
			<clipPath id="SVGID_2_">
				<use xlink:href="#SVGID_9_"  overflow="visible"/>
			</clipPath>
			<g clip-path="url(#SVGID_2_)">
				<polygon fill="#E88D15" points="51.569,134.791 70,130 51.569,125.209 61.214,108.786 44.791,118.431 40,100 35.209,118.431 
					18.786,108.786 28.431,125.209 10,130 28.431,134.791 18.786,151.214 35.209,141.569 40,160 44.791,141.569 61.214,151.214 				
					"/>
			</g>
		</g>
	</g>
</g>
<g id="rain_shower">
	<g id="day-winter_2_">
		<g>
			<defs>
				<rect id="SVGID_11_" x="10" y="20" width="60" height="30"/>
			</defs>
			<clipPath id="SVGID_4_">
				<use xlink:href="#SVGID_11_"  overflow="visible"/>
			</clipPath>
			<g clip-path="url(#SVGID_4_)">
				<polygon fill="#E88D15" points="51.569,24.791 70,20 51.569,15.209 61.214,-1.214 44.791,8.431 40,-10 35.209,8.431 
					18.786,-1.214 28.431,15.209 10,20 28.431,24.791 18.786,41.214 35.209,31.569 40,50 44.791,31.569 61.214,41.214 				"/>
				<circle fill="#FABA2F" stroke="#FFFFFF" stroke-width="3" stroke-miterlimit="10" cx="40" cy="20" r="13.5"/>
			</g>
		</g>
		<rect x="10" y="14" fill="#4D4D4D" width="60" height="3"/>
	</g>
	<path id="cloud_18_" fill="#808080" stroke="#FFFFFF" stroke-width="5" stroke-miterlimit="10" d="M9.377,75
		C4.357,75,0,70.609,0,66.051c0-4.613,2.231-8.439,6.938-10.191c1.625-5.422,6.562-9.172,12.875-9.359
		C21.188,39.562,30,35.422,36.188,37.172c2.727-9.688,18.748-17.625,29.312-7.375c15.438-4.25,26.272,5.37,24.607,19.992
		C96.21,51.542,100,56.901,100,63.172C100,69.466,94.355,75,88.054,75H9.377z"/>
	<g>
		<path fill="#FFFFFF" d="M79,77c0,4.969-4.031,9-9.001,9C65.031,86,61,81.969,61,77s4.031-9,8.999-9C74.969,68,79,72.031,79,77z"/>
		<path fill="#1362B1" d="M85,87.368C85,91.586,81.634,95,77.502,95C73.355,95,70,91.586,70,87.368C70,84.986,70,74,70,74
			C76.853,80.748,85,80.447,85,87.368z"/>
	</g>
	<g>
		<path fill="#FFFFFF" d="M61,74c0,4.969-4.031,9-9.001,9C47.031,83,43,78.969,43,74s4.031-9,8.999-9C56.969,65,61,69.031,61,74z"/>
		<path fill="#1362B1" d="M67,84.368C67,88.586,63.634,92,59.502,92C55.355,92,52,88.586,52,84.368C52,81.986,52,71,52,71
			C58.853,77.748,67,77.447,67,84.368z"/>
	</g>
</g>
<g id="partly_cloudy">
</g>
<g id="fair">
</g>
<g id="clear">
</g>
</svg>
