<?xml version="1.0" encoding="utf-8"?>
<!-- Generator: Adobe Illustrator 16.0.4, SVG Export Plug-In . SVG Version: 6.00 Build 0)  -->
<!DOCTYPE svg PUBLIC "-//W3C//DTD SVG 1.1//EN" "http://www.w3.org/Graphics/SVG/1.1/DTD/svg11.dtd" [
	<!ENTITY ns_extend "http://ns.adobe.com/Extensibility/1.0/">
	<!ENTITY ns_ai "http://ns.adobe.com/AdobeIllustrator/10.0/">
	<!ENTITY ns_graphs "http://ns.adobe.com/Graphs/1.0/">
	<!ENTITY ns_vars "http://ns.adobe.com/Variables/1.0/">
	<!ENTITY ns_imrep "http://ns.adobe.com/ImageReplacement/1.0/">
	<!ENTITY ns_sfw "http://ns.adobe.com/SaveForWeb/1.0/">
	<!ENTITY ns_custom "http://ns.adobe.com/GenericCustomNamespace/1.0/">
	<!ENTITY ns_adobe_xpath "http://ns.adobe.com/XPath/1.0/">
]>
<svg version="1.1" xmlns:x="&ns_extend;" xmlns:i="&ns_ai;" xmlns:graph="&ns_graphs;"
	 xmlns="http://www.w3.org/2000/svg" xmlns:xlink="http://www.w3.org/1999/xlink" x="0px" y="0px" width="100px" height="100px"
	 viewBox="0 0 100 100" enable-background="new 0 0 100 100" xml:space="preserve">
<metadata>
	<sfw  xmlns="&ns_sfw;">
		<slices></slices>
		<sliceSourceBounds  y="-8242" x="-2.5" bottomLeftOrigin="true" height="16383" width="1095"></sliceSourceBounds>
	</sfw>
</metadata>
<g id="snow_shower_thunder">
</g>
<g id="sleet_shower_thunder">
</g>
<g id="rain_shower_thunder">
</g>
<g id="clouds">
</g>
<g id="snow_shower">
</g>
<g id="sleet_shower">
</g>
<g id="rain_shower">
	<path id="night-4_2_" fill="#AFC1C9" d="M30,12c-11.027,0-20,8.973-20,20s8.973,20,20,20s20-8.973,20-20S41.027,12,30,12z M14,32
		c0-8.836,7.164-16,16-16c-2.438,0-8,7.176-8,16s5.809,16,8,16C21.164,48,14,40.836,14,32z"/>
	<path id="cloud_14_" fill="#808080" stroke="#FFFFFF" stroke-width="5" stroke-miterlimit="10" d="M9.377,75
		C4.357,75,0,70.609,0,66.051c0-4.613,2.231-8.439,6.938-10.191c1.625-5.422,6.562-9.172,12.875-9.359
		C21.188,39.562,30,35.422,36.188,37.172c2.727-9.688,18.748-17.625,29.312-7.375c15.438-4.25,26.272,5.37,24.607,19.992
		C96.21,51.542,100,56.901,100,63.172C100,69.466,94.355,75,88.054,75H9.377z"/>
	<g>
		<path fill="#FFFFFF" d="M80.5,77c0,4.969-4.031,9-9.001,9c-4.968,0-8.999-4.031-8.999-9s4.031-9,8.999-9
			C76.469,68,80.5,72.031,80.5,77z"/>
		<path fill="#1362B1" d="M86.5,87.368c0,4.218-3.366,7.632-7.498,7.632c-4.146,0-7.502-3.414-7.502-7.632
			c0-2.382,0-13.368,0-13.368C78.353,80.748,86.5,80.447,86.5,87.368z"/>
	</g>
	<g>
		<path fill="#FFFFFF" d="M62.5,74c0,4.969-4.031,9-9.001,9c-4.968,0-8.999-4.031-8.999-9s4.031-9,8.999-9
			C58.469,65,62.5,69.031,62.5,74z"/>
		<path fill="#1362B1" d="M68.5,84.368c0,4.218-3.366,7.632-7.498,7.632c-4.146,0-7.502-3.414-7.502-7.632
			c0-2.382,0-13.368,0-13.368C60.353,77.748,68.5,77.447,68.5,84.368z"/>
	</g>
</g>
<g id="partly_cloudy">
</g>
<g id="fair">
</g>
<g id="clear">
</g>
</svg>
