<?xml version="1.0" encoding="utf-8"?>
<!-- Generator: Adobe Illustrator 16.0.0, SVG Export Plug-In . SVG Version: 6.00 Build 0)  -->
<!DOCTYPE svg PUBLIC "-//W3C//DTD SVG 1.1//EN" "http://www.w3.org/Graphics/SVG/1.1/DTD/svg11.dtd">
<svg version="1.1" xmlns="http://www.w3.org/2000/svg" xmlns:xlink="http://www.w3.org/1999/xlink" x="0px" y="0px" width="100px"
	 height="100px" viewBox="0 0 100 100" enable-background="new 0 0 100 100" xml:space="preserve">
<g id="snow_shower_thunder">
</g>
<g id="sleet_shower_thunder">
</g>
<g id="rain_shower_thunder">
</g>
<g id="clouds">
</g>
<g id="snow_shower">
</g>
<g id="sleet_shower">
</g>
<g id="rain_shower">
	<path id="night-5_2_" fill="#AFC1C9" d="M33,12c-9.926,0-18,8.074-18,18s8.074,18,18,18s18-8.074,18-18S42.926,12,33,12z"/>
	<path id="cloud_13_" fill="#808080" stroke="#FFFFFF" stroke-width="5" stroke-miterlimit="10" d="M9.377,75
		C4.357,75,0,70.609,0,66.051c0-4.613,2.231-8.439,6.938-10.191c1.625-5.422,6.562-9.172,12.875-9.359
		C21.188,39.562,30,35.422,36.188,37.172c2.727-9.688,18.748-17.625,29.312-7.375c15.438-4.25,26.272,5.37,24.607,19.992
		C96.21,51.542,100,56.901,100,63.172C100,69.466,94.355,75,88.054,75H9.377z"/>
	<g>
		<path fill="#FFFFFF" d="M81,77c0,4.969-4.031,9-9.001,9C67.031,86,63,81.969,63,77s4.031-9,8.999-9C76.969,68,81,72.031,81,77z"/>
		<path fill="#1362B1" d="M87,87.368C87,91.586,83.634,95,79.502,95C75.355,95,72,91.586,72,87.368C72,84.986,72,74,72,74
			C78.853,80.748,87,80.447,87,87.368z"/>
	</g>
	<g>
		<path fill="#FFFFFF" d="M63,74c0,4.969-4.031,9-9.001,9C49.031,83,45,78.969,45,74s4.031-9,8.999-9C58.969,65,63,69.031,63,74z"/>
		<path fill="#1362B1" d="M69,84.368C69,88.586,65.634,92,61.502,92C57.355,92,54,88.586,54,84.368C54,81.986,54,71,54,71
			C60.853,77.748,69,77.447,69,84.368z"/>
	</g>
</g>
<g id="partly_cloudy">
</g>
<g id="fair">
</g>
<g id="clear">
</g>
</svg>
