<?xml version="1.0" encoding="utf-8"?>
<!-- Generator: Adobe Illustrator 16.0.0, SVG Export Plug-In . SVG Version: 6.00 Build 0)  -->
<!DOCTYPE svg PUBLIC "-//W3C//DTD SVG 1.1//EN" "http://www.w3.org/Graphics/SVG/1.1/DTD/svg11.dtd">
<svg version="1.1" xmlns="http://www.w3.org/2000/svg" xmlns:xlink="http://www.w3.org/1999/xlink" x="0px" y="0px" width="100px"
	 height="100px" viewBox="0 0 100 100" enable-background="new 0 0 100 100" xml:space="preserve">
<g id="snow_shower_thunder">
</g>
<g id="sleet_shower_thunder">
</g>
<g id="rain_shower_thunder">
</g>
<g id="clouds">
	<g id="heavy_rain_thunder">
	</g>
	<g id="rain_thunder">
	</g>
	<g id="heavy_snow">
	</g>
	<g id="sleet">
	</g>
	<g id="heavy_rain">
	</g>
	<g id="rain_1_">
	</g>
	<g id="heavy_cloud">
	</g>
	<g id="fog">
	</g>
</g>
<g id="snow_shower">
</g>
<g id="sleet_shower">
</g>
<g id="rain_shower">
	<g id="night-4_7_">
		<path id="night-4_5_" fill="#AFC1C9" d="M29,19c-10.476,0-19,8.524-19,19s8.524,19,19,19s19-8.524,19-19S39.476,19,29,19z
			 M13.8,38c0-8.395,6.806-15.2,15.2-15.2c-2.315,0-7.6,6.817-7.6,15.2s5.518,15.2,7.6,15.2C20.605,53.2,13.8,46.395,13.8,38z"/>
		<g>
			<path fill="#FFFFFF" d="M52.804,30c-6.845,0-13.075,4.347-15.664,10.438c-0.2-0.009-0.401-0.013-0.603-0.013
				c-6.129,0-11.072,3.622-12.899,8.945c-0.071-0.001-0.144-0.002-0.215-0.002c-5.479,0-9.766,3.463-11.538,7.351
				C8.28,58.292,6,61.908,6,66.393C6,72.901,11.051,78,17.498,78h62.938C87.662,78,94,71.672,94,64.457
				c0-5.306-3.22-10.078-7.846-12.291c0.509-4.308-0.474-8.347-2.889-11.655c-3.176-4.353-8.377-6.85-14.27-6.851
				c-1.778,0.001-3.559,0.229-5.32,0.685C60.646,31.524,56.871,30,52.804,30L52.804,30z"/>
			<path fill="#808080" d="M17.498,74C13.489,74,10,70.907,10,66.393c0-2.964,1.551-5.932,5.043-6.447
				c0.516-3.479,5.373-8.362,11.834-5.917c0-7.154,6.748-11.154,13.108-9.038c1.423-10.053,14.993-15.6,22.486-6.058
				c11.503-4.511,23.004,3.48,18.999,15.99C85.995,55.434,90,59.432,90,64.457C90,69.488,85.476,74,80.437,74H17.498z"/>
		</g>
		<g>
			<circle fill="#FFFFFF" cx="66" cy="79" r="8"/>
			<path fill="#1362B1" d="M75,84.909C75,87.724,72.759,90,70,90c-2.763,0-5-2.276-5-5.091C65,83.327,65,76,65,76
				C69.57,80.494,75,80.295,75,84.909z"/>
		</g>
		<g>
			<circle fill="#FFFFFF" cx="51" cy="76" r="8"/>
			<path fill="#1362B1" d="M60,81.909C60,84.724,57.759,87,55,87c-2.763,0-5-2.276-5-5.091C50,80.327,50,73,50,73
				C54.57,77.494,60,77.295,60,81.909z"/>
		</g>
	</g>
</g>
<g id="partly_cloudy">
</g>
<g id="fair">
</g>
<g id="clear">
</g>
</svg>
