<?xml version="1.0" encoding="utf-8"?>
<!-- Generator: Adobe Illustrator 16.0.0, SVG Export Plug-In . SVG Version: 6.00 Build 0)  -->
<!DOCTYPE svg PUBLIC "-//W3C//DTD SVG 1.1//EN" "http://www.w3.org/Graphics/SVG/1.1/DTD/svg11.dtd">
<svg version="1.1" xmlns="http://www.w3.org/2000/svg" xmlns:xlink="http://www.w3.org/1999/xlink" x="0px" y="0px" width="100px"
	 height="100px" viewBox="0 0 100 100" enable-background="new 0 0 100 100" xml:space="preserve">
<g id="snow_shower_thunder">
</g>
<g id="sleet_shower_thunder">
</g>
<g id="rain_shower_thunder">
</g>
<g id="clouds">
</g>
<g id="snow_shower">
</g>
<g id="sleet_shower">
</g>
<g id="rain_shower">
	<path id="night-2_2_" fill="#AFC1C9" d="M15,30c0,9.926,8.07,18,18,18c9.922,0,18-8.074,18-18s-8.078-18-18-18
		C23.07,12,15,20.074,15,30z M18.602,30c0-7.941,6.453-14.398,14.398-14.398c2.195,0,7.199,6.457,7.199,14.398
		S34.969,44.398,33,44.398C25.055,44.398,18.602,37.941,18.602,30z"/>
	<path id="cloud_16_" fill="#808080" stroke="#FFFFFF" stroke-width="5" stroke-miterlimit="10" d="M9.377,75
		C4.357,75,0,70.609,0,66.051c0-4.613,2.231-8.439,6.938-10.191c1.625-5.422,6.562-9.172,12.875-9.359
		C21.188,39.562,30,35.422,36.188,37.172c2.727-9.688,18.748-17.625,29.312-7.375c15.438-4.25,26.272,5.37,24.607,19.992
		C96.21,51.542,100,56.901,100,63.172C100,69.466,94.355,75,88.054,75H9.377z"/>
	<g>
		<path fill="#FFFFFF" d="M79.5,77c0,4.969-4.031,9-9.001,9c-4.968,0-8.999-4.031-8.999-9s4.031-9,8.999-9
			C75.469,68,79.5,72.031,79.5,77z"/>
		<path fill="#1362B1" d="M85.5,87.368c0,4.218-3.366,7.632-7.498,7.632c-4.146,0-7.502-3.414-7.502-7.632
			c0-2.382,0-13.368,0-13.368C77.353,80.748,85.5,80.447,85.5,87.368z"/>
	</g>
	<g>
		<path fill="#FFFFFF" d="M61.5,74c0,4.969-4.031,9-9.001,9c-4.968,0-8.999-4.031-8.999-9s4.031-9,8.999-9
			C57.469,65,61.5,69.031,61.5,74z"/>
		<path fill="#1362B1" d="M67.5,84.368c0,4.218-3.366,7.632-7.498,7.632c-4.146,0-7.502-3.414-7.502-7.632
			c0-2.382,0-13.368,0-13.368C59.353,77.748,67.5,77.447,67.5,84.368z"/>
	</g>
</g>
<g id="partly_cloudy">
</g>
<g id="fair">
</g>
<g id="clear">
</g>
</svg>
