<?xml version="1.0" encoding="utf-8"?>
<!-- Generator: Adobe Illustrator 16.0.0, SVG Export Plug-In . SVG Version: 6.00 Build 0)  -->
<!DOCTYPE svg PUBLIC "-//W3C//DTD SVG 1.1//EN" "http://www.w3.org/Graphics/SVG/1.1/DTD/svg11.dtd">
<svg version="1.1" xmlns="http://www.w3.org/2000/svg" xmlns:xlink="http://www.w3.org/1999/xlink" x="0px" y="0px" width="100px"
	 height="100px" viewBox="0 0 100 100" enable-background="new 0 0 100 100" xml:space="preserve">
<g id="snow_shower_thunder">
</g>
<g id="sleet_shower_thunder">
</g>
<g id="rain_shower_thunder">
</g>
<g id="clouds">
</g>
<g id="snow_shower">
</g>
<g id="sleet_shower">
</g>
<g id="rain_shower">
	<path id="night-7_2_" fill="#AFC1C9" d="M15,30c0,9.926,8.074,18,18,18s18-8.074,18-18s-8.074-18-18-18S15,20.074,15,30z
		 M33,15.602c7.941,0,14.398,6.457,14.398,14.398S40.941,44.398,33,44.398V15.602z"/>
	<path id="cloud_11_" fill="#808080" stroke="#FFFFFF" stroke-width="5" stroke-miterlimit="10" d="M9.377,75
		C4.357,75,0,70.609,0,66.051c0-4.613,2.231-8.439,6.938-10.191c1.625-5.422,6.562-9.172,12.875-9.359
		C21.188,39.562,30,35.422,36.188,37.172c2.727-9.688,18.748-17.625,29.312-7.375c15.438-4.25,26.272,5.37,24.607,19.992
		C96.21,51.542,100,56.901,100,63.172C100,69.466,94.355,75,88.054,75H9.377z"/>
	<g>
		<path fill="#FFFFFF" d="M82,77c0,4.969-4.031,9-9.001,9C68.031,86,64,81.969,64,77s4.031-9,8.999-9C77.969,68,82,72.031,82,77z"/>
		<path fill="#1362B1" d="M88,87.368C88,91.586,84.634,95,80.502,95C76.355,95,73,91.586,73,87.368C73,84.986,73,74,73,74
			C79.853,80.748,88,80.447,88,87.368z"/>
	</g>
	<g>
		<path fill="#FFFFFF" d="M64,74c0,4.969-4.031,9-9.001,9C50.031,83,46,78.969,46,74s4.031-9,8.999-9C59.969,65,64,69.031,64,74z"/>
		<path fill="#1362B1" d="M70,84.368C70,88.586,66.634,92,62.502,92C58.355,92,55,88.586,55,84.368C55,81.986,55,71,55,71
			C61.853,77.748,70,77.447,70,84.368z"/>
	</g>
</g>
<g id="partly_cloudy">
</g>
<g id="fair">
</g>
<g id="clear">
</g>
</svg>
