<?xml version="1.0" encoding="utf-8"?>
<!-- Generator: Adobe Illustrator 16.0.4, SVG Export Plug-In . SVG Version: 6.00 Build 0)  -->
<!DOCTYPE svg PUBLIC "-//W3C//DTD SVG 1.1//EN" "http://www.w3.org/Graphics/SVG/1.1/DTD/svg11.dtd" [
	<!ENTITY ns_extend "http://ns.adobe.com/Extensibility/1.0/">
	<!ENTITY ns_ai "http://ns.adobe.com/AdobeIllustrator/10.0/">
	<!ENTITY ns_graphs "http://ns.adobe.com/Graphs/1.0/">
	<!ENTITY ns_vars "http://ns.adobe.com/Variables/1.0/">
	<!ENTITY ns_imrep "http://ns.adobe.com/ImageReplacement/1.0/">
	<!ENTITY ns_sfw "http://ns.adobe.com/SaveForWeb/1.0/">
	<!ENTITY ns_custom "http://ns.adobe.com/GenericCustomNamespace/1.0/">
	<!ENTITY ns_adobe_xpath "http://ns.adobe.com/XPath/1.0/">
]>
<svg version="1.1" xmlns:x="&ns_extend;" xmlns:i="&ns_ai;" xmlns:graph="&ns_graphs;"
	 xmlns="http://www.w3.org/2000/svg" xmlns:xlink="http://www.w3.org/1999/xlink" x="0px" y="0px" width="100px" height="100px"
	 viewBox="0 0 100 100" enable-background="new 0 0 100 100" xml:space="preserve">
<metadata>
	<sfw  xmlns="&ns_sfw;">
		<slices></slices>
		<sliceSourceBounds  x="-2.5" y="-8242" height="16383" width="1095" bottomLeftOrigin="true"></sliceSourceBounds>
	</sfw>
</metadata>
<g id="snow_shower_thunder">
</g>
<g id="sleet_shower_thunder">
</g>
<g id="rain_shower_thunder">
	<path fill="#C9AF16" d="M40.413,75l-6.25,12.484h8.325L30,100l25.001-16.68h-8.338L54.995,75H40.413z"/>
	<g id="day_6_">
		<polygon fill="#E88D15" points="46.57,39.791 65,35 46.57,30.209 56.214,13.786 39.792,23.431 35,5 30.208,23.431 13.787,13.786 
			23.431,30.209 5,35 23.431,39.791 13.787,56.214 30.208,46.569 35,65 39.792,46.569 56.214,56.214 		"/>
		<circle fill="#FABA2F" stroke="#FFFFFF" stroke-width="3" stroke-miterlimit="10" cx="35" cy="35" r="13.5"/>
	</g>
	<path id="cloud_77_" fill="#808080" stroke="#FFFFFF" stroke-width="5" stroke-miterlimit="10" d="M9.377,75
		C4.357,75,0,70.609,0,66.051c0-4.613,2.231-8.439,6.938-10.191c1.625-5.422,6.562-9.172,12.875-9.359
		C21.188,39.562,30,35.422,36.188,37.172c2.727-9.688,18.748-17.625,29.312-7.375c15.438-4.25,26.272,5.37,24.607,19.992
		C96.21,51.542,100,56.901,100,63.172C100,69.466,94.355,75,88.054,75H9.377z"/>
	<g>
		<path fill="#FFFFFF" d="M72,74c0,4.969-4.031,9-9.001,9C58.031,83,54,78.969,54,74s4.031-9,8.999-9C67.969,65,72,69.031,72,74z"/>
		<path fill="#1362B1" d="M78,84.368C78,88.586,74.634,92,70.502,92C66.355,92,63,88.586,63,84.368C63,81.986,63,71,63,71
			C69.853,77.748,78,77.447,78,84.368z"/>
	</g>
</g>
<g id="clouds">
</g>
<g id="snow_shower">
</g>
<g id="sleet_shower">
</g>
<g id="rain_shower">
</g>
<g id="partly_cloudy">
</g>
<g id="fair">
</g>
<g id="clear">
</g>
</svg>
