<?xml version="1.0" encoding="utf-8"?>
<!-- Generator: Adobe Illustrator 16.0.0, SVG Export Plug-In . SVG Version: 6.00 Build 0)  -->
<!DOCTYPE svg PUBLIC "-//W3C//DTD SVG 1.1//EN" "http://www.w3.org/Graphics/SVG/1.1/DTD/svg11.dtd">
<svg version="1.1" xmlns="http://www.w3.org/2000/svg" xmlns:xlink="http://www.w3.org/1999/xlink" x="0px" y="0px" width="100px"
	 height="100px" viewBox="0 0 100 100" enable-background="new 0 0 100 100" xml:space="preserve">
<g id="snow_shower_thunder">
</g>
<g id="sleet_shower_thunder">
</g>
<g id="rain_shower_thunder">
	<path id="night-4_6_" fill="#AFC1C9" d="M33,12c-9.926,0-18,8.074-18,18s8.074,18,18,18s18-8.074,18-18S42.926,12,33,12z
		 M18.602,30c0-7.953,6.445-14.398,14.398-14.398c-2.195,0-7.199,6.457-7.199,14.398S31.027,44.398,33,44.398
		C25.047,44.398,18.602,37.953,18.602,30z"/>
	<path fill="#C9AF16" d="M40.413,75l-6.25,12.484h8.325L30,100l25.001-16.68h-8.338L54.995,75H40.413z"/>
	<path id="cloud_72_" fill="#808080" stroke="#FFFFFF" stroke-width="5" stroke-miterlimit="10" d="M9.377,75
		C4.357,75,0,70.609,0,66.051c0-4.613,2.231-8.439,6.938-10.191c1.625-5.422,6.562-9.172,12.875-9.359
		C21.188,39.562,30,35.422,36.188,37.172c2.727-9.688,18.748-17.625,29.312-7.375c15.438-4.25,26.272,5.37,24.607,19.992
		C96.21,51.542,100,56.901,100,63.172C100,69.466,94.355,75,88.054,75H9.377z"/>
	<g>
		<path fill="#FFFFFF" d="M72,74c0,4.969-4.031,9-9.001,9C58.031,83,54,78.969,54,74s4.031-9,8.999-9C67.969,65,72,69.031,72,74z"/>
		<path fill="#1362B1" d="M78,84.368C78,88.586,74.634,92,70.502,92C66.355,92,63,88.586,63,84.368C63,81.986,63,71,63,71
			C69.853,77.748,78,77.447,78,84.368z"/>
	</g>
</g>
<g id="clouds">
</g>
<g id="snow_shower">
</g>
<g id="sleet_shower">
</g>
<g id="rain_shower">
</g>
<g id="partly_cloudy">
</g>
<g id="fair">
</g>
<g id="clear">
</g>
</svg>
