<?xml version="1.0" encoding="utf-8"?>
<!-- Generator: Adobe Illustrator 16.0.4, SVG Export Plug-In . SVG Version: 6.00 Build 0)  -->
<!DOCTYPE svg PUBLIC "-//W3C//DTD SVG 1.1//EN" "http://www.w3.org/Graphics/SVG/1.1/DTD/svg11.dtd" [
	<!ENTITY ns_extend "http://ns.adobe.com/Extensibility/1.0/">
	<!ENTITY ns_ai "http://ns.adobe.com/AdobeIllustrator/10.0/">
	<!ENTITY ns_graphs "http://ns.adobe.com/Graphs/1.0/">
	<!ENTITY ns_vars "http://ns.adobe.com/Variables/1.0/">
	<!ENTITY ns_imrep "http://ns.adobe.com/ImageReplacement/1.0/">
	<!ENTITY ns_sfw "http://ns.adobe.com/SaveForWeb/1.0/">
	<!ENTITY ns_custom "http://ns.adobe.com/GenericCustomNamespace/1.0/">
	<!ENTITY ns_adobe_xpath "http://ns.adobe.com/XPath/1.0/">
]>
<svg version="1.1" xmlns:x="&ns_extend;" xmlns:i="&ns_ai;" xmlns:graph="&ns_graphs;"
	 xmlns="http://www.w3.org/2000/svg" xmlns:xlink="http://www.w3.org/1999/xlink" x="0px" y="0px" width="100px" height="100px"
	 viewBox="0 0 100 100" enable-background="new 0 0 100 100" xml:space="preserve">
<metadata>
	<sfw  xmlns="&ns_sfw;">
		<slices></slices>
		<sliceSourceBounds  x="0" y="-430" bottomLeftOrigin="true" width="1642.504" height="430"></sliceSourceBounds>
	</sfw>
</metadata>
<g id="overcast">
</g>
<g id="night">
</g>
<g id="winter_day">
	<g id="day-winter_4_">
		<g>
			<defs>
				<rect id="SVGID_15_" x="10" y="130" width="60" height="30"/>
			</defs>
			<clipPath id="SVGID_2_">
				<use xlink:href="#SVGID_15_"  overflow="visible"/>
			</clipPath>
			<g clip-path="url(#SVGID_2_)">
				<polygon fill="#E88D15" points="51.569,134.791 70,130 51.569,125.209 61.214,108.786 44.791,118.431 40,100 35.209,118.431 
					18.786,108.786 28.431,125.209 10,130 28.431,134.791 18.786,151.214 35.209,141.569 40,160 44.791,141.569 61.214,151.214 				
					"/>
			</g>
		</g>
	</g>
</g>
<g id="day_15_">
	<g id="day_4_">
		<polygon fill="#E88D15" points="46.57,39.792 65,35 46.57,30.209 56.214,13.786 39.791,23.431 35,5 30.209,23.431 13.787,13.786 
			23.432,30.209 5,35 23.432,39.792 13.787,56.214 30.209,46.569 35,65.001 39.791,46.569 56.214,56.214 		"/>
		<circle fill="#FABA2F" stroke="#FFFFFF" stroke-width="3" stroke-miterlimit="10" cx="35" cy="35" r="13.5"/>
	</g>
	<path id="cloud_39_" fill="#999999" stroke="#FFFFFF" stroke-width="5" stroke-miterlimit="10" d="M9.377,75.001
		C4.357,75.001,0,70.61,0,66.052c0-4.613,2.231-8.439,6.938-10.191c1.625-5.422,6.562-9.172,12.875-9.359
		C21.188,39.563,30,35.422,36.188,37.173c2.727-9.688,18.748-17.626,29.312-7.375c15.438-4.25,26.272,5.369,24.607,19.993
		C96.21,51.542,100,56.901,100,63.173c0,6.293-5.645,11.828-11.946,11.828H9.377z"/>
	<g>
		<path fill="#FFFFFF" d="M70,77.001c0,4.969-4.031,9-9.001,9c-4.968,0-8.999-4.031-8.999-9s4.031-9,8.999-9
			C65.969,68.001,70,72.032,70,77.001z"/>
		<path fill="#1362B1" d="M76,87.368c0,4.219-3.366,7.633-7.498,7.633c-4.146,0-7.502-3.414-7.502-7.633c0-2.381,0-13.367,0-13.367
			C67.853,80.749,76,80.448,76,87.368z"/>
	</g>
	<g>
		<circle fill="#FFFFFF" cx="43" cy="74.001" r="9"/>
		<path fill="#6FC6E3" d="M48.95,73.845l-2.893,2.898c-0.38-0.182-0.76-0.35-1.185-0.477c-0.409-0.1-0.815-0.141-1.226-0.156
			l-1.068-3.971c-0.226-0.816-1.069-1.311-1.887-1.084c-0.817,0.209-1.323,1.053-1.086,1.893l1.057,3.959
			c-0.71,0.445-1.307,1.049-1.753,1.762l-3.962-1.049c-0.822-0.225-1.678,0.268-1.887,1.074c-0.242,0.848,0.259,1.684,1.09,1.91
			l3.957,1.055c0.028,0.844,0.246,1.682,0.635,2.422l-2.894,2.896c-0.605,0.59-0.593,1.566,0.014,2.176
			c0.604,0.602,1.577,0.619,2.174,0l2.893-2.906c0.367,0.217,0.756,0.391,1.17,0.498c0.431,0.096,0.83,0.148,1.238,0.148
			l1.064,3.969c0.219,0.818,1.078,1.305,1.896,1.086c0.831-0.225,1.308-1.057,1.082-1.887l-1.055-3.961
			c0.718-0.441,1.316-1.053,1.747-1.771l3.982,1.068c0.817,0.205,1.676-0.283,1.894-1.1c0.219-0.83-0.267-1.674-1.097-1.889
			l-3.97-1.07c-0.029-0.844-0.24-1.662-0.635-2.408l2.894-2.889c0.604-0.607,0.604-1.594,0.013-2.197
			C50.535,73.253,49.543,73.253,48.95,73.845z M46.086,82.216c-0.367,1.436-1.859,2.295-3.296,1.898
			c-1.443-0.379-2.294-1.873-1.914-3.311c0.38-1.453,1.858-2.297,3.307-1.916C45.622,79.282,46.487,80.761,46.086,82.216z"/>
	</g>
</g>
</svg>
