<?xml version="1.0" encoding="utf-8"?>
<!-- Generator: Adobe Illustrator 16.0.4, SVG Export Plug-In . SVG Version: 6.00 Build 0)  -->
<!DOCTYPE svg PUBLIC "-//W3C//DTD SVG 1.1//EN" "http://www.w3.org/Graphics/SVG/1.1/DTD/svg11.dtd" [
	<!ENTITY ns_extend "http://ns.adobe.com/Extensibility/1.0/">
	<!ENTITY ns_ai "http://ns.adobe.com/AdobeIllustrator/10.0/">
	<!ENTITY ns_graphs "http://ns.adobe.com/Graphs/1.0/">
	<!ENTITY ns_vars "http://ns.adobe.com/Variables/1.0/">
	<!ENTITY ns_imrep "http://ns.adobe.com/ImageReplacement/1.0/">
	<!ENTITY ns_sfw "http://ns.adobe.com/SaveForWeb/1.0/">
	<!ENTITY ns_custom "http://ns.adobe.com/GenericCustomNamespace/1.0/">
	<!ENTITY ns_adobe_xpath "http://ns.adobe.com/XPath/1.0/">
]>
<svg version="1.1" xmlns:x="&ns_extend;" xmlns:i="&ns_ai;" xmlns:graph="&ns_graphs;"
	 xmlns="http://www.w3.org/2000/svg" xmlns:xlink="http://www.w3.org/1999/xlink" x="0px" y="0px" width="100px" height="100px"
	 viewBox="0 0 100 100" enable-background="new 0 0 100 100" xml:space="preserve">
<metadata>
	<sfw  xmlns="&ns_sfw;">
		<slices></slices>
		<sliceSourceBounds  y="-8242" x="-2.5" bottomLeftOrigin="true" height="16383" width="1095"></sliceSourceBounds>
	</sfw>
</metadata>
<g id="snow_shower_thunder">
</g>
<g id="sleet_shower_thunder">
</g>
<g id="rain_shower_thunder">
</g>
<g id="clouds">
</g>
<g id="snow_shower">
	<g id="day-winter_5_">
		<g>
			<defs>
				<rect id="SVGID_7_" x="10" y="130" width="60" height="30"/>
			</defs>
			<clipPath id="SVGID_2_">
				<use xlink:href="#SVGID_7_"  overflow="visible"/>
			</clipPath>
			<g clip-path="url(#SVGID_2_)">
				<polygon fill="#E88D15" points="51.569,134.791 70,130 51.569,125.209 61.214,108.786 44.791,118.431 40,100 35.209,118.431 
					18.786,108.786 28.431,125.209 10,130 28.431,134.791 18.786,151.214 35.209,141.569 40,160 44.791,141.569 61.214,151.214 				
					"/>
			</g>
		</g>
	</g>
</g>
<g id="sleet_shower">
	<g id="day-winter_4_">
		<g>
			<defs>
				<rect id="SVGID_9_" x="10" y="20" width="60" height="30"/>
			</defs>
			<clipPath id="SVGID_4_">
				<use xlink:href="#SVGID_9_"  overflow="visible"/>
			</clipPath>
			<g clip-path="url(#SVGID_4_)">
				<polygon fill="#E88D15" points="51.569,24.791 70,20 51.569,15.209 61.214,-1.214 44.791,8.431 40,-10 35.209,8.431 
					18.786,-1.214 28.431,15.209 10,20 28.431,24.791 18.786,41.214 35.209,31.569 40,50 44.791,31.569 61.214,41.214 				"/>
				<circle fill="#FABA2F" stroke="#FFFFFF" stroke-width="3" stroke-miterlimit="10" cx="40" cy="20" r="13.5"/>
			</g>
		</g>
		<rect x="10" y="14" fill="#4D4D4D" width="60" height="3"/>
	</g>
	<path id="cloud_30_" fill="#808080" stroke="#FFFFFF" stroke-width="5" stroke-miterlimit="10" d="M9.377,75
		C4.357,75,0,70.609,0,66.051c0-4.613,2.231-8.439,6.938-10.191c1.625-5.422,6.562-9.172,12.875-9.359
		C21.188,39.562,30,35.422,36.188,37.172c2.727-9.688,18.748-17.625,29.312-7.375c15.438-4.25,26.272,5.37,24.607,19.992
		C96.21,51.542,100,56.901,100,63.172C100,69.466,94.355,75,88.054,75H9.377z"/>
	<g>
		<path fill="#FFFFFF" d="M70,77c0,4.969-4.031,9-9.001,9C56.031,86,52,81.969,52,77s4.031-9,8.999-9C65.969,68,70,72.031,70,77z"/>
		<path fill="#1362B1" d="M76,87.368C76,91.586,72.634,95,68.502,95C64.355,95,61,91.586,61,87.368C61,84.986,61,74,61,74
			C67.853,80.748,76,80.447,76,87.368z"/>
	</g>
	<g>
		<circle fill="#FFFFFF" cx="43" cy="74" r="9"/>
		<path fill="#6FC6E3" d="M48.95,73.844l-2.893,2.899c-0.38-0.183-0.76-0.351-1.185-0.477c-0.409-0.1-0.815-0.142-1.226-0.157
			l-1.068-3.97c-0.226-0.817-1.069-1.311-1.887-1.085c-0.817,0.21-1.323,1.053-1.086,1.893l1.057,3.96
			c-0.71,0.445-1.307,1.048-1.753,1.761l-3.962-1.048c-0.822-0.226-1.678,0.268-1.887,1.074c-0.242,0.848,0.259,1.684,1.09,1.909
			l3.957,1.055c0.028,0.845,0.246,1.683,0.635,2.423l-2.894,2.896c-0.605,0.591-0.593,1.567,0.014,2.176
			c0.604,0.603,1.577,0.62,2.174,0l2.893-2.905c0.367,0.216,0.756,0.39,1.17,0.498c0.431,0.096,0.83,0.147,1.238,0.147l1.064,3.97
			c0.219,0.818,1.078,1.305,1.896,1.086c0.831-0.226,1.308-1.057,1.082-1.888L46.325,86.1c0.718-0.44,1.316-1.053,1.747-1.771
			l3.982,1.069c0.817,0.205,1.676-0.283,1.894-1.1c0.219-0.83-0.267-1.675-1.097-1.89l-3.97-1.069
			c-0.029-0.845-0.24-1.663-0.635-2.409l2.894-2.888c0.604-0.608,0.604-1.595,0.013-2.198C50.535,73.252,49.543,73.252,48.95,73.844
			z M46.086,82.215c-0.367,1.436-1.859,2.296-3.296,1.899c-1.443-0.38-2.294-1.873-1.914-3.312c0.38-1.452,1.858-2.297,3.307-1.915
			C45.622,79.282,46.487,80.761,46.086,82.215z"/>
	</g>
</g>
<g id="rain_shower">
</g>
<g id="partly_cloudy">
</g>
<g id="fair">
</g>
<g id="clear">
</g>
</svg>
