<?xml version="1.0" encoding="utf-8"?>
<!-- Generator: Adobe Illustrator 16.0.4, SVG Export Plug-In . SVG Version: 6.00 Build 0)  -->
<!DOCTYPE svg PUBLIC "-//W3C//DTD SVG 1.1//EN" "http://www.w3.org/Graphics/SVG/1.1/DTD/svg11.dtd" [
	<!ENTITY ns_extend "http://ns.adobe.com/Extensibility/1.0/">
	<!ENTITY ns_ai "http://ns.adobe.com/AdobeIllustrator/10.0/">
	<!ENTITY ns_graphs "http://ns.adobe.com/Graphs/1.0/">
	<!ENTITY ns_vars "http://ns.adobe.com/Variables/1.0/">
	<!ENTITY ns_imrep "http://ns.adobe.com/ImageReplacement/1.0/">
	<!ENTITY ns_sfw "http://ns.adobe.com/SaveForWeb/1.0/">
	<!ENTITY ns_custom "http://ns.adobe.com/GenericCustomNamespace/1.0/">
	<!ENTITY ns_adobe_xpath "http://ns.adobe.com/XPath/1.0/">
]>
<svg version="1.1" xmlns:x="&ns_extend;" xmlns:i="&ns_ai;" xmlns:graph="&ns_graphs;"
	 xmlns="http://www.w3.org/2000/svg" xmlns:xlink="http://www.w3.org/1999/xlink" x="0px" y="0px" width="100px" height="100px"
	 viewBox="0 0 100 100" enable-background="new 0 0 100 100" xml:space="preserve">
<metadata>
	<sfw  xmlns="&ns_sfw;">
		<slices></slices>
		<sliceSourceBounds  x="0" y="-430" bottomLeftOrigin="true" width="1642.504" height="430"></sliceSourceBounds>
	</sfw>
</metadata>
<g id="overcast">
</g>
<g id="night">
	<path fill="#AFC1C9" d="M25.333,25.334c0-5.119,1.926-9.785,5.087-13.324C30.28,12.008,30.142,12,30,12c-11.046,0-20,8.955-20,20
		s8.954,20,20,20c5.927,0,11.25-2.58,14.912-6.678C34.062,45.098,25.333,36.237,25.333,25.334z"/>
	<path id="cloud_35_" fill="#999999" stroke="#FFFFFF" stroke-width="5" stroke-miterlimit="10" d="M9.381,75
		c-5.02,0-9.377-4.391-9.377-8.949c0-4.613,2.231-8.439,6.938-10.191c1.625-5.422,6.562-9.172,12.875-9.359
		c1.375-6.938,10.188-11.078,16.375-9.328c2.727-9.688,18.748-17.625,29.312-7.375c15.438-4.25,26.272,5.37,24.607,19.992
		c6.103,1.753,9.893,7.112,9.893,13.383c0,6.294-5.645,11.828-11.946,11.828H9.381z"/>
	<g>
		<path fill="#FFFFFF" d="M70.004,77c0,4.969-4.031,9-9.001,9c-4.968,0-8.999-4.031-8.999-9s4.031-9,8.999-9
			C65.973,68,70.004,72.031,70.004,77z"/>
		<path fill="#1362B1" d="M76.004,87.368c0,4.218-3.366,7.632-7.498,7.632c-4.146,0-7.502-3.414-7.502-7.632
			c0-2.382,0-13.368,0-13.368C67.856,80.748,76.004,80.447,76.004,87.368z"/>
	</g>
	<g>
		<circle fill="#FFFFFF" cx="43.004" cy="74" r="9"/>
		<path fill="#6FC6E3" d="M48.954,73.844l-2.893,2.899c-0.38-0.183-0.76-0.351-1.185-0.477c-0.409-0.1-0.815-0.142-1.226-0.157
			l-1.068-3.97c-0.226-0.817-1.069-1.311-1.887-1.085c-0.817,0.21-1.323,1.053-1.086,1.893l1.057,3.96
			c-0.71,0.445-1.307,1.048-1.753,1.761l-3.962-1.048c-0.822-0.226-1.678,0.268-1.887,1.074c-0.242,0.848,0.259,1.684,1.09,1.909
			l3.957,1.055c0.028,0.845,0.246,1.683,0.635,2.423l-2.894,2.896c-0.605,0.591-0.593,1.567,0.014,2.176
			c0.604,0.603,1.577,0.62,2.174,0l2.893-2.905c0.367,0.216,0.756,0.39,1.17,0.498c0.431,0.096,0.83,0.147,1.238,0.147l1.064,3.97
			c0.219,0.818,1.078,1.305,1.896,1.086c0.831-0.226,1.308-1.057,1.082-1.888L46.329,86.1c0.718-0.44,1.316-1.053,1.747-1.771
			l3.982,1.069c0.817,0.205,1.676-0.283,1.894-1.1c0.219-0.83-0.267-1.675-1.097-1.89l-3.97-1.069
			c-0.029-0.845-0.24-1.663-0.635-2.409l2.894-2.888c0.604-0.608,0.604-1.595,0.013-2.198
			C50.539,73.252,49.547,73.252,48.954,73.844z M46.09,82.215c-0.367,1.436-1.859,2.296-3.296,1.899
			c-1.443-0.38-2.294-1.873-1.914-3.312c0.38-1.452,1.858-2.297,3.307-1.915C45.626,79.282,46.491,80.761,46.09,82.215z"/>
	</g>
</g>
<g id="winter_day">
</g>
<g id="day_15_">
</g>
</svg>
