<?xml version="1.0" encoding="utf-8"?>
<!-- Generator: Adobe Illustrator 16.0.0, SVG Export Plug-In . SVG Version: 6.00 Build 0)  -->
<!DOCTYPE svg PUBLIC "-//W3C//DTD SVG 1.1//EN" "http://www.w3.org/Graphics/SVG/1.1/DTD/svg11.dtd">
<svg version="1.1" xmlns="http://www.w3.org/2000/svg" xmlns:xlink="http://www.w3.org/1999/xlink" x="0px" y="0px" width="100px"
	 height="100px" viewBox="0 0 100 100" enable-background="new 0 0 100 100" xml:space="preserve">
<g id="snow_shower_thunder">
</g>
<g id="sleet_shower_thunder">
</g>
<g id="rain_shower_thunder">
</g>
<g id="clouds">
	<path id="cloud_59_" fill="#808080" stroke="#FFFFFF" stroke-width="4" stroke-miterlimit="10" d="M77.498,49
		C81.514,49,85,45.488,85,41.84c0-3.689-1.785-6.75-5.551-8.152c-1.299-4.338-5.25-7.338-10.299-7.488
		c-1.1-5.549-8.15-8.861-13.1-7.461c-2.182-7.75-15-14.102-23.451-5.9c-12.35-3.4-21.018,4.296-19.686,15.994
		C8.032,30.233,5,34.521,5,39.537C5,44.573,9.516,49,14.558,49H77.498z"/>
	<path id="cloud_58_" fill="#666666" stroke="#FFFFFF" stroke-width="5" stroke-miterlimit="10" d="M9.377,75
		C4.357,75,0,70.609,0,66.051c0-4.613,2.231-8.439,6.938-10.191c1.625-5.422,6.562-9.172,12.875-9.359
		C21.188,39.562,30,35.422,36.188,37.172c2.727-9.688,18.748-17.625,29.312-7.375c15.438-4.25,26.272,5.37,24.607,19.992
		C96.21,51.542,100,56.901,100,63.172C100,69.466,94.355,75,88.054,75H9.377z"/>
	<g>
		<circle fill="#FFFFFF" cx="22" cy="76" r="9"/>
		<path fill="#6FC6E3" d="M27.95,75.844l-2.893,2.899c-0.38-0.183-0.76-0.351-1.185-0.477c-0.409-0.1-0.815-0.142-1.226-0.157
			l-1.068-3.97c-0.226-0.817-1.069-1.311-1.887-1.085c-0.817,0.21-1.323,1.053-1.086,1.893l1.057,3.96
			c-0.71,0.445-1.307,1.048-1.753,1.761l-3.962-1.048c-0.822-0.226-1.678,0.268-1.887,1.074c-0.242,0.848,0.259,1.684,1.09,1.909
			l3.957,1.055c0.028,0.845,0.246,1.683,0.635,2.423l-2.894,2.896c-0.605,0.591-0.593,1.567,0.014,2.176
			c0.604,0.603,1.577,0.62,2.174,0l2.893-2.905c0.367,0.216,0.756,0.39,1.17,0.498c0.431,0.096,0.83,0.147,1.238,0.147l1.064,3.97
			c0.219,0.818,1.078,1.305,1.896,1.086c0.831-0.226,1.308-1.057,1.082-1.888L25.325,88.1c0.718-0.44,1.316-1.053,1.747-1.771
			l3.982,1.069c0.817,0.205,1.676-0.283,1.894-1.1c0.219-0.83-0.267-1.675-1.097-1.89l-3.97-1.069
			c-0.029-0.845-0.24-1.663-0.635-2.409l2.894-2.888c0.604-0.608,0.604-1.595,0.013-2.198C29.535,75.252,28.543,75.252,27.95,75.844
			z M25.086,84.215c-0.367,1.436-1.859,2.296-3.296,1.899c-1.443-0.38-2.294-1.873-1.914-3.312c0.38-1.452,1.858-2.297,3.307-1.915
			C24.622,81.282,25.487,82.761,25.086,84.215z"/>
	</g>
	<g>
		<circle fill="#FFFFFF" cx="42.999" cy="76.999" r="9"/>
		<path fill="#6FC6E3" d="M48.949,76.843l-2.893,2.899c-0.38-0.183-0.76-0.351-1.185-0.477c-0.409-0.1-0.815-0.142-1.226-0.157
			l-1.068-3.97c-0.226-0.817-1.069-1.311-1.887-1.085c-0.817,0.21-1.323,1.053-1.086,1.893l1.057,3.96
			c-0.71,0.445-1.307,1.048-1.753,1.761l-3.962-1.048c-0.822-0.226-1.678,0.268-1.887,1.074c-0.242,0.848,0.259,1.684,1.09,1.909
			l3.957,1.055c0.028,0.845,0.246,1.683,0.635,2.423l-2.894,2.896c-0.605,0.591-0.593,1.567,0.014,2.176
			c0.604,0.603,1.577,0.62,2.174,0l2.893-2.905c0.367,0.216,0.756,0.39,1.17,0.498c0.431,0.096,0.83,0.147,1.238,0.147l1.064,3.97
			c0.219,0.818,1.078,1.305,1.896,1.086c0.831-0.226,1.308-1.057,1.082-1.888l-1.055-3.961c0.718-0.44,1.316-1.053,1.747-1.771
			l3.982,1.069c0.817,0.205,1.676-0.283,1.894-1.1c0.219-0.83-0.267-1.675-1.097-1.89l-3.97-1.069
			c-0.029-0.845-0.24-1.663-0.635-2.409l2.894-2.888c0.604-0.608,0.604-1.595,0.013-2.198
			C50.534,76.251,49.542,76.251,48.949,76.843z M46.085,85.214c-0.367,1.436-1.859,2.296-3.296,1.899
			c-1.443-0.38-2.294-1.873-1.914-3.312c0.38-1.452,1.858-2.297,3.307-1.915C45.621,82.281,46.486,83.76,46.085,85.214z"/>
	</g>
	<g>
		<circle fill="#FFFFFF" cx="63.999" cy="74" r="9"/>
		<path fill="#6FC6E3" d="M69.949,73.844l-2.893,2.899c-0.38-0.183-0.76-0.351-1.185-0.477c-0.409-0.1-0.815-0.142-1.226-0.157
			l-1.068-3.97c-0.226-0.817-1.069-1.311-1.887-1.085c-0.817,0.21-1.323,1.053-1.086,1.893l1.057,3.96
			c-0.71,0.445-1.307,1.048-1.753,1.761l-3.962-1.048c-0.822-0.226-1.678,0.268-1.887,1.074c-0.242,0.848,0.259,1.684,1.09,1.909
			l3.957,1.055c0.028,0.845,0.246,1.683,0.635,2.423l-2.894,2.896c-0.605,0.591-0.593,1.567,0.014,2.176
			c0.604,0.603,1.577,0.62,2.174,0l2.893-2.905c0.367,0.216,0.756,0.39,1.17,0.498c0.431,0.096,0.83,0.147,1.238,0.147l1.064,3.97
			c0.219,0.818,1.078,1.305,1.896,1.086c0.831-0.226,1.308-1.057,1.082-1.888L67.324,86.1c0.718-0.44,1.316-1.053,1.747-1.771
			l3.982,1.069c0.817,0.205,1.676-0.283,1.894-1.1c0.219-0.83-0.267-1.675-1.097-1.89l-3.97-1.069
			c-0.029-0.845-0.24-1.663-0.635-2.409l2.894-2.888c0.604-0.608,0.604-1.595,0.013-2.198
			C71.534,73.252,70.542,73.252,69.949,73.844z M67.085,82.215c-0.367,1.436-1.859,2.296-3.296,1.899
			c-1.443-0.38-2.294-1.873-1.914-3.312c0.38-1.452,1.858-2.297,3.307-1.915C66.621,79.282,67.486,80.761,67.085,82.215z"/>
	</g>
</g>
<g id="snow_shower">
</g>
<g id="sleet_shower">
</g>
<g id="rain_shower">
</g>
<g id="partly_cloudy">
</g>
<g id="fair">
</g>
<g id="clear">
</g>
</svg>
