<?xml version="1.0" encoding="utf-8"?>
<!-- Generator: Adobe Illustrator 17.1.0, SVG Export Plug-In . SVG Version: 6.00 Build 0)  -->
<!DOCTYPE svg PUBLIC "-//W3C//DTD SVG 1.1 Basic//EN" "http://www.w3.org/Graphics/SVG/1.1/DTD/svg11-basic.dtd">
<svg version="1.1" baseProfile="basic" id="symbol" xmlns="http://www.w3.org/2000/svg" xmlns:xlink="http://www.w3.org/1999/xlink"
	 x="0px" y="0px" viewBox="0 0 100 100" xml:space="preserve">
<symbol  id="fog" viewBox="2 -62 86 62">
	<path style="fill:#D9D9D9;" d="M84.3-42H4.7C3.2-42,2-42.9,2-44s1.2-2,2.7-2h79.7c1.5,0,2.7,0.9,2.7,2S85.8-42,84.3-42z"/>
	<path style="fill:#D9D9D9;" d="M82.1-50H7.9C6.3-50,5-50.9,5-52c0-1.1,1.3-2,2.9-2h74.3c1.6,0,2.9,0.9,2.9,2
		C85-50.9,83.7-50,82.1-50z"/>
	<path style="fill:#D9D9D9;" d="M82.1-58H12.9c-1.6,0-2.9-0.9-2.9-2s1.3-2,2.9-2h69.2c1.6,0,2.9,0.9,2.9,2S83.7-58,82.1-58z"/>
	<path style="fill:#D9D9D9;" d="M53.2,0c-9.1,0.3-17.6-4.8-20.5-14.6c-5.9,1.4-15.3-2.3-17-10.4C10.2-24.9,3.2-29,2.1-36
		C2-37,2.7-37.9,3.7-37.9l82.3,0c1,0,1.8,0.7,1.9,1.7c1,8.9-4.1,18.7-15.2,20.1C70.5-5.6,62.2-0.3,53.2,0z"/>
</symbol>
<use xlink:href="#fog"  width="86" height="62" id="XMLID_17_" x="2" y="-62" transform="matrix(1 0 0 -1 4 18)" style="overflow:visible;"/>
</svg>
