<?xml version="1.0" encoding="utf-8"?>
<!-- Generator: Adobe Illustrator 17.1.0, SVG Export Plug-In . SVG Version: 6.00 Build 0)  -->
<!DOCTYPE svg PUBLIC "-//W3C//DTD SVG 1.1//EN" "http://www.w3.org/Graphics/SVG/1.1/DTD/svg11.dtd">
<svg version="1.1" id="symbol" xmlns="http://www.w3.org/2000/svg" xmlns:xlink="http://www.w3.org/1999/xlink" x="0px" y="0px"
	 viewBox="0 0 100 100" enable-background="new 0 0 100 100" xml:space="preserve">
<symbol  id="cloud4" viewBox="-2 -56 94 58">
	<path fill="#999999" stroke="#FFFFFF" stroke-width="4" stroke-miterlimit="10" d="M53.6,0C44,0.3,35.1-5,32.1-15.3
		c-6.1,1.5-16-2.4-17.8-10.9C8.1-26,0-31.1,0-39.6C0-49,7-54,19.5-54h43.6c5.6,0,12.9,0.5,17.3,2.6c14.9,7.2,12.3,32.3-6.4,34.6
		C71.7-5.9,63.1-0.3,53.6,0z"/>
</symbol>
<symbol  id="lightning" viewBox="0 -25 25 25">
	<path fill="#C9AF16" d="M10.4,0L4.2-12.2h8.3L0-25L25-8.1h-8.3L25,0H10.4z"/>
</symbol>
<symbol  id="moon" viewBox="0 -60 52.4 60">
	<path fill="#AFC1C9" d="M23-20c0,7.7,2.9,14.7,7.6,20c-0.2,0-0.4,0-0.6,0C13.4,0,0-13.4,0-30s13.4-30,30-30c8.9,0,16.9,3.9,22.4,10
		C36.1-49.6,23-36.4,23-20z"/>
</symbol>
<symbol  id="sleet" viewBox="0 -26 20 26">
	<path fill="#FFFFFF" d="M18-9c0-5-4-9-9-9c-5,0-9,4-9,9c0,5,4,9,9,9C14,0,18-4,18-9z"/>
	<path fill="#1EB9D8" d="M19.9-16.6c-1.8-2.3-3.4-5.5-3.9-8.9c-0.1-0.5-0.6-0.7-1-0.4c-2.3,2.1-4.8,3.3-8.5,3.8
		c-0.4,0.1-0.6,0.5-0.4,0.8C8.4-17,8.6-10.1,7.8-5c2.7-4.2,7.1-9,11.8-10.7C20-15.8,20.1-16.3,19.9-16.6z"/>
</symbol>
<use xlink:href="#moon"  width="52.4" height="60" y="-60" transform="matrix(0.6667 0 0 -0.6667 18 13)" overflow="visible"/>
<use xlink:href="#lightning"  width="25" height="25" y="-25" transform="matrix(1 0 0 -1 19 75)" overflow="visible"/>
<use xlink:href="#cloud4"  width="94" height="58" x="-2" y="-56" transform="matrix(1 0 0 -1 8 23)" overflow="visible"/>
<use xlink:href="#sleet"  width="20" height="26" y="-26" transform="matrix(1 0 0 -1 58 72)" overflow="visible"/>
<use xlink:href="#sleet"  width="20" height="26" y="-26" transform="matrix(1 0 0 -1 42 68)" overflow="visible"/>
</svg>
