<?xml version="1.0" encoding="utf-8"?>
<!-- Generator: Adobe Illustrator 16.0.4, SVG Export Plug-In . SVG Version: 6.00 Build 0)  -->
<!DOCTYPE svg PUBLIC "-//W3C//DTD SVG 1.1//EN" "http://www.w3.org/Graphics/SVG/1.1/DTD/svg11.dtd" [
	<!ENTITY ns_extend "http://ns.adobe.com/Extensibility/1.0/">
	<!ENTITY ns_ai "http://ns.adobe.com/AdobeIllustrator/10.0/">
	<!ENTITY ns_graphs "http://ns.adobe.com/Graphs/1.0/">
	<!ENTITY ns_vars "http://ns.adobe.com/Variables/1.0/">
	<!ENTITY ns_imrep "http://ns.adobe.com/ImageReplacement/1.0/">
	<!ENTITY ns_sfw "http://ns.adobe.com/SaveForWeb/1.0/">
	<!ENTITY ns_custom "http://ns.adobe.com/GenericCustomNamespace/1.0/">
	<!ENTITY ns_adobe_xpath "http://ns.adobe.com/XPath/1.0/">
]>
<svg version="1.1" xmlns:x="&ns_extend;" xmlns:i="&ns_ai;" xmlns:graph="&ns_graphs;"
	 xmlns="http://www.w3.org/2000/svg" xmlns:xlink="http://www.w3.org/1999/xlink" x="0px" y="0px" width="100px" height="100px"
	 viewBox="0 0 100 100" enable-background="new 0 0 100 100" xml:space="preserve">
<metadata>
	<sfw  xmlns="&ns_sfw;">
		<slices></slices>
		<sliceSourceBounds  x="-2.5" y="-8242" height="16383" width="1095" bottomLeftOrigin="true"></sliceSourceBounds>
	</sfw>
</metadata>
<g id="snow_shower_thunder">
	<path id="night-7_8_" fill="#AFC1C9" d="M10,32c0,11.027,8.973,20,20,20s20-8.973,20-20s-8.973-20-20-20S10,20.973,10,32z M30,16
		c8.824,0,16,7.176,16,16s-7.176,16-16,16V16z"/>
	<path fill="#C9AF16" d="M24.412,75l-6.25,12.484h8.326L14,100l25-16.68h-8.338L38.994,75H24.412z"/>
	<path id="cloud_95_" fill="#808080" stroke="#FFFFFF" stroke-width="5" stroke-miterlimit="10" d="M9.377,75
		C4.357,75,0,70.609,0,66.051c0-4.613,2.23-8.439,6.938-10.191c1.625-5.422,6.562-9.172,12.875-9.359
		C21.188,39.562,30,35.422,36.188,37.172c2.727-9.688,18.748-17.625,29.312-7.375c15.438-4.25,26.271,5.37,24.607,19.992
		C96.209,51.542,100,56.901,100,63.172C100,69.466,94.355,75,88.053,75H9.377z"/>
	<g>
		<circle fill="#FFFFFF" cx="54" cy="74" r="9"/>
		<path fill="#6FC6E3" d="M59.949,73.844l-2.893,2.899c-0.379-0.183-0.76-0.351-1.184-0.477c-0.41-0.1-0.816-0.142-1.227-0.157
			l-1.068-3.97c-0.225-0.817-1.068-1.311-1.887-1.085c-0.816,0.21-1.322,1.053-1.086,1.893l1.057,3.96
			c-0.709,0.445-1.307,1.048-1.752,1.761l-3.963-1.048c-0.822-0.226-1.678,0.268-1.887,1.074c-0.242,0.848,0.26,1.684,1.09,1.909
			l3.957,1.055c0.029,0.845,0.246,1.683,0.635,2.423l-2.893,2.896c-0.605,0.591-0.594,1.567,0.014,2.176
			c0.604,0.603,1.576,0.62,2.174,0l2.893-2.905c0.367,0.216,0.756,0.39,1.17,0.498c0.43,0.096,0.83,0.147,1.238,0.147l1.064,3.97
			c0.219,0.818,1.078,1.305,1.895,1.086c0.832-0.226,1.309-1.057,1.082-1.888L57.324,86.1c0.719-0.44,1.316-1.053,1.748-1.771
			l3.982,1.069c0.816,0.205,1.676-0.283,1.893-1.1c0.219-0.83-0.266-1.675-1.096-1.89l-3.971-1.069
			c-0.029-0.845-0.24-1.663-0.635-2.409l2.895-2.888c0.604-0.608,0.604-1.595,0.012-2.198
			C61.535,73.252,60.543,73.252,59.949,73.844z M57.086,82.215c-0.367,1.436-1.859,2.296-3.297,1.899
			c-1.443-0.38-2.293-1.873-1.914-3.312c0.381-1.452,1.859-2.297,3.307-1.915C56.621,79.282,57.486,80.761,57.086,82.215z"/>
	</g>
</g>
<g id="sleet_shower_thunder">
</g>
<g id="rain_shower_thunder">
</g>
<g id="clouds">
</g>
<g id="snow_shower">
</g>
<g id="sleet_shower">
</g>
<g id="rain_shower">
</g>
<g id="partly_cloudy">
</g>
<g id="fair">
</g>
<g id="clear">
</g>
</svg>
