<?xml version="1.0" encoding="utf-8"?>
<!-- Generator: Adobe Illustrator 16.0.0, SVG Export Plug-In . SVG Version: 6.00 Build 0)  -->
<!DOCTYPE svg PUBLIC "-//W3C//DTD SVG 1.1//EN" "http://www.w3.org/Graphics/SVG/1.1/DTD/svg11.dtd">
<svg version="1.1" xmlns="http://www.w3.org/2000/svg" xmlns:xlink="http://www.w3.org/1999/xlink" x="0px" y="0px" width="100px"
	 height="100px" viewBox="0 0 100 100" enable-background="new 0 0 100 100" xml:space="preserve">
<g id="snow_shower_thunder">
</g>
<g id="sleet_shower_thunder">
</g>
<g id="rain_shower_thunder">
</g>
<g id="clouds">
	<path fill="#C9AF16" d="M40.413,75l-6.25,12.484h8.325L30,100l25.001-16.68h-8.338L54.995,75H40.413z"/>
	<path id="cloud_61_" fill="#A6A6A6" stroke="#FFFFFF" stroke-width="4" stroke-miterlimit="10" d="M77.498,49
		C81.514,49,85,45.488,85,41.84c0-3.689-1.785-6.75-5.551-8.152c-1.299-4.338-5.25-7.338-10.299-7.488
		c-1.1-5.549-8.15-8.861-13.1-7.461c-2.182-7.75-15-14.102-23.451-5.9c-12.35-3.4-21.018,4.296-19.686,15.994
		C8.032,30.233,5,34.521,5,39.537C5,44.573,9.516,49,14.558,49H77.498z"/>
	<path id="cloud_60_" fill="#808080" stroke="#FFFFFF" stroke-width="5" stroke-miterlimit="10" d="M9.377,75
		C4.357,75,0,70.609,0,66.051c0-4.613,2.231-8.439,6.938-10.191c1.625-5.422,6.562-9.172,12.875-9.359
		C21.188,39.562,30,35.422,36.188,37.172c2.727-9.688,18.748-17.625,29.312-7.375c15.438-4.25,26.272,5.37,24.607,19.992
		C96.21,51.542,100,56.901,100,63.172C100,69.466,94.355,75,88.054,75H9.377z"/>
	<g>
		<path fill="#FFFFFF" d="M72,74c0,4.969-4.031,9-9.001,9C58.031,83,54,78.969,54,74s4.031-9,8.999-9C67.969,65,72,69.031,72,74z"/>
		<path fill="#1362B1" d="M78,84.368C78,88.586,74.634,92,70.502,92C66.355,92,63,88.586,63,84.368C63,81.986,63,71,63,71
			C69.853,77.748,78,77.447,78,84.368z"/>
	</g>
</g>
<g id="snow_shower">
</g>
<g id="sleet_shower">
</g>
<g id="rain_shower">
</g>
<g id="partly_cloudy">
</g>
<g id="fair">
</g>
<g id="clear">
</g>
</svg>
