<?xml version="1.0" encoding="utf-8"?>
<!-- Generator: Adobe Illustrator 17.1.0, SVG Export Plug-In . SVG Version: 6.00 Build 0)  -->
<!DOCTYPE svg PUBLIC "-//W3C//DTD SVG 1.1 Basic//EN" "http://www.w3.org/Graphics/SVG/1.1/DTD/svg11-basic.dtd">
<svg version="1.1" baseProfile="basic" id="symbol" xmlns="http://www.w3.org/2000/svg" xmlns:xlink="http://www.w3.org/1999/xlink"
	 x="0px" y="0px" viewBox="0 0 100 100" xml:space="preserve">
<symbol  id="cloud2" viewBox="-2 -56 94 58">
	<path style="fill:#D9D9D9;stroke:#FFFFFF;stroke-width:4;stroke-miterlimit:10;" d="M53.6,0C44,0.3,35.1-5,32.1-15.3
		c-6.1,1.5-16-2.4-17.8-10.9C8.1-26,0-31.1,0-39.6C0-49,7-54,19.5-54h43.6c5.6,0,12.9,0.5,17.3,2.6c14.9,7.2,12.3,32.3-6.4,34.6
		C71.7-5.9,63.1-0.3,53.6,0z"/>
</symbol>
<symbol  id="cloud3" viewBox="-2 -56 94 58">
	<path style="fill:#B3B3B3;stroke:#FFFFFF;stroke-width:4;stroke-miterlimit:10;" d="M53.6,0C44,0.3,35.1-5,32.1-15.3
		c-6.1,1.5-16-2.4-17.8-10.9C8.1-26,0-31.1,0-39.6C0-49,7-54,19.5-54h43.6c5.6,0,12.9,0.5,17.3,2.6c14.9,7.2,12.3,32.3-6.4,34.6
		C71.7-5.9,63.1-0.3,53.6,0z"/>
</symbol>
<symbol  id="lightning" viewBox="0 -25 25 25">
	<path style="fill:#C9AF16;" d="M10.4,0L4.2-12.2h8.3L0-25L25-8.1h-8.3L25,0H10.4z"/>
</symbol>
<symbol  id="raindrop" viewBox="0 -23 20 23">
	<path style="fill:#FFFFFF;" d="M18-9c0-5-4-9-9-9c-5,0-9,4-9,9c0,5,4,9,9,9C14,0,18-4,18-9z"/>
	<path style="fill:#1671CC;" d="M20-16.8c0-3.4-2.7-6.2-6-6.2c-3.3,0-6,2.8-6,6.2C8-14.9,8-6,8-6C13.5-11.5,20-11.2,20-16.8z"/>
</symbol>
<use xlink:href="#cloud2"  width="94" height="58" x="-2" y="-56" transform="matrix(-0.8 0 0 -0.8 80 10)" style="overflow:visible;"/>
<use xlink:href="#lightning"  width="25" height="25" y="-25" transform="matrix(1 0 0 -1 31 75)" style="overflow:visible;"/>
<use xlink:href="#cloud3"  width="94" height="58" id="XMLID_73_" x="-2" y="-56" transform="matrix(1 0 0 -1 8 23)" style="overflow:visible;"/>
<use xlink:href="#raindrop"  width="20" height="23" y="-23" transform="matrix(1 0 0 -1 55 68)" style="overflow:visible;"/>
</svg>
