<?xml version="1.0" encoding="utf-8"?>
<!-- Generator: Adobe Illustrator 16.0.4, SVG Export Plug-In . SVG Version: 6.00 Build 0)  -->
<!DOCTYPE svg PUBLIC "-//W3C//DTD SVG 1.1//EN" "http://www.w3.org/Graphics/SVG/1.1/DTD/svg11.dtd" [
	<!ENTITY ns_extend "http://ns.adobe.com/Extensibility/1.0/">
	<!ENTITY ns_ai "http://ns.adobe.com/AdobeIllustrator/10.0/">
	<!ENTITY ns_graphs "http://ns.adobe.com/Graphs/1.0/">
	<!ENTITY ns_vars "http://ns.adobe.com/Variables/1.0/">
	<!ENTITY ns_imrep "http://ns.adobe.com/ImageReplacement/1.0/">
	<!ENTITY ns_sfw "http://ns.adobe.com/SaveForWeb/1.0/">
	<!ENTITY ns_custom "http://ns.adobe.com/GenericCustomNamespace/1.0/">
	<!ENTITY ns_adobe_xpath "http://ns.adobe.com/XPath/1.0/">
]>
<svg version="1.1" xmlns:x="&ns_extend;" xmlns:i="&ns_ai;" xmlns:graph="&ns_graphs;"
	 xmlns="http://www.w3.org/2000/svg" xmlns:xlink="http://www.w3.org/1999/xlink" x="0px" y="0px" width="100px" height="100px"
	 viewBox="0 0 100 100" enable-background="new 0 0 100 100" xml:space="preserve">
<metadata>
	<sfw  xmlns="&ns_sfw;">
		<slices></slices>
		<sliceSourceBounds  x="0" y="-430" bottomLeftOrigin="true" width="1642.504" height="430"></sliceSourceBounds>
	</sfw>
</metadata>
<g id="overcast">
</g>
<g id="night">
</g>
<g id="winter_day">
	<g id="day-winter_10_">
		<g>
			<defs>
				<rect id="SVGID_21_" x="10" y="20" width="60" height="30"/>
			</defs>
			<clipPath id="SVGID_2_">
				<use xlink:href="#SVGID_21_"  overflow="visible"/>
			</clipPath>
			<g clip-path="url(#SVGID_2_)">
				<polygon fill="#E88D15" points="51.569,24.791 70,20 51.569,15.209 61.214,-1.214 44.791,8.431 40,-10 35.209,8.431 
					18.786,-1.214 28.431,15.209 10,20 28.431,24.791 18.786,41.214 35.209,31.569 40,50 44.791,31.569 61.214,41.214 				"/>
				<circle fill="#FABA2F" stroke="#FFFFFF" stroke-width="3" stroke-miterlimit="10" cx="40" cy="20" r="13.5"/>
			</g>
		</g>
		<rect x="10" y="14" fill="#4D4D4D" width="60" height="3"/>
	</g>
	<path id="cloud_15_" fill="#808080" stroke="#FFFFFF" stroke-width="5" stroke-miterlimit="10" d="M9.377,75
		C4.357,75,0,70.609,0,66.051c0-4.613,2.231-8.439,6.938-10.191c1.625-5.422,6.562-9.172,12.875-9.359
		C21.188,39.562,30,35.422,36.188,37.172c2.727-9.688,18.748-17.625,29.312-7.375c15.438-4.25,26.272,5.37,24.607,19.992
		C96.21,51.542,100,56.901,100,63.172C100,69.466,94.355,75,88.054,75H9.377z"/>
	<g>
		<path fill="#FFFFFF" d="M87,76c0,4.969-4.031,9-9.001,9C73.031,85,69,80.969,69,76s4.031-9,8.999-9C82.969,67,87,71.031,87,76z"/>
		<path fill="#1362B1" d="M93,86.368C93,90.586,89.634,94,85.502,94C81.355,94,78,90.586,78,86.368C78,83.986,78,73,78,73
			C84.853,79.748,93,79.447,93,86.368z"/>
	</g>
	<g>
		<path fill="#FFFFFF" d="M68,76c0,4.969-4.031,9-9.001,9C54.031,85,50,80.969,50,76s4.031-9,8.999-9C63.969,67,68,71.031,68,76z"/>
		<path fill="#1362B1" d="M74,86.368C74,90.586,70.634,94,66.502,94C62.355,94,59,90.586,59,86.368C59,83.986,59,73,59,73
			C65.853,79.748,74,79.447,74,86.368z"/>
	</g>
	<g>
		<path fill="#FFFFFF" d="M49,74c0,4.969-4.031,9-9.001,9C35.031,83,31,78.969,31,74s4.031-9,8.999-9C44.969,65,49,69.031,49,74z"/>
		<path fill="#1362B1" d="M55,84.368C55,88.586,51.634,92,47.502,92C43.355,92,40,88.586,40,84.368C40,81.986,40,71,40,71
			C46.853,77.748,55,77.447,55,84.368z"/>
	</g>
</g>
<g id="day_15_">
</g>
</svg>
