<?xml version="1.0" encoding="utf-8"?>
<!-- Generator: Adobe Illustrator 16.0.1, SVG Export Plug-In . SVG Version: 6.00 Build 0)  -->
<!DOCTYPE svg PUBLIC "-//W3C//DTD SVG 1.1//EN" "http://www.w3.org/Graphics/SVG/1.1/DTD/svg11.dtd" [
	<!ENTITY ns_extend "http://ns.adobe.com/Extensibility/1.0/">
	<!ENTITY ns_ai "http://ns.adobe.com/AdobeIllustrator/10.0/">
	<!ENTITY ns_graphs "http://ns.adobe.com/Graphs/1.0/">
	<!ENTITY ns_vars "http://ns.adobe.com/Variables/1.0/">
	<!ENTITY ns_imrep "http://ns.adobe.com/ImageReplacement/1.0/">
	<!ENTITY ns_sfw "http://ns.adobe.com/SaveForWeb/1.0/">
	<!ENTITY ns_custom "http://ns.adobe.com/GenericCustomNamespace/1.0/">
	<!ENTITY ns_adobe_xpath "http://ns.adobe.com/XPath/1.0/">
]>
<svg version="1.1" xmlns:x="&ns_extend;" xmlns:i="&ns_ai;" xmlns:graph="&ns_graphs;"
	 xmlns="http://www.w3.org/2000/svg" xmlns:xlink="http://www.w3.org/1999/xlink" x="0px" y="0px" width="100px" height="100px"
	 viewBox="0 0 100 100" enable-background="new 0 0 100 100" xml:space="preserve">
<metadata>
	<sfw  xmlns="&ns_sfw;">
		<slices></slices>
		<sliceSourceBounds  bottomLeftOrigin="true" height="16383" width="1078" y="-8242" x="6"></sliceSourceBounds>
	</sfw>
</metadata>
<g id="snow_shower_thunder">
</g>
<g id="sleet_shower_thunder">
</g>
<g id="rain_shower_thunder">
</g>
<g id="clouds">
	<g id="heavy_rain_thunder">
	</g>
	<g id="rain_thunder">
	</g>
	<g id="heavy_snow">
	</g>
	<g id="sleet">
	</g>
	<g id="heavy_rain">
	</g>
	<g id="rain_1_">
	</g>
	<g id="heavy_cloud">
	</g>
	<g id="fog">
	</g>
</g>
<g id="snow_shower">
</g>
<g id="sleet_shower">
</g>
<g id="rain_shower">
</g>
<g id="partly_cloudy">
</g>
<g id="fair">
	<g id="night-2_1_">
		<path id="night-2_2_" fill="#AFC1C9" d="M25,46c0,13.784,11.211,25,25,25c13.779,0,25-11.216,25-25S63.779,21,50,21
			C36.211,21,25,32.216,25,46z M30,46c0-11.03,8.965-20,20-20c3.047,0,10,8.97,10,20s-7.266,20-10,20C38.965,66,30,57.03,30,46z"/>
		<g>
			<path fill="#FFFFFF" d="M38.248,50c-2.662,0-5.145,0.901-7.203,2.581c-0.967-0.195-1.941-0.294-2.916-0.294
				c-4.17,0-7.864,1.787-10.135,4.902c-1.543,2.117-2.273,4.634-2.163,7.316c-2.891,1.784-4.83,4.995-4.83,8.529
				c0,5.309,4.662,9.965,9.978,9.965h39.406C65.223,82.963,69,79.131,69,74.244c0-3.171-1.588-5.843-4.074-7.172
				c-1.35-2.484-4.045-4.619-7.449-4.932c-1.527-3.201-4.699-5.411-8.494-5.611C46.928,52.671,42.777,50.001,38.25,50l0,0
				C38.249,50,38.248,50,38.248,50L38.248,50z"/>
			<path fill="#BFBFBF" d="M60.314,79.004c2.506,0,4.686-1.933,4.686-4.752c0-1.854-0.969-3.708-3.15-4.03
				c-0.322-2.176-3.357-5.229-7.396-3.698c0-4.473-4.218-6.972-8.192-5.648c-0.889-6.285-9.371-9.751-14.055-3.788
				c-7.189-2.819-14.378,2.176-11.874,9.995c-2.828,0.318-5.331,2.818-5.331,5.96c0,3.144,2.827,5.962,5.978,5.962H60.314z"/>
		</g>
	</g>
</g>
<g id="clear">
</g>
</svg>
