<?xml version="1.0" encoding="utf-8"?>
<!-- Generator: Adobe Illustrator 16.0.1, SVG Export Plug-In . SVG Version: 6.00 Build 0)  -->
<!DOCTYPE svg PUBLIC "-//W3C//DTD SVG 1.1//EN" "http://www.w3.org/Graphics/SVG/1.1/DTD/svg11.dtd" [
	<!ENTITY ns_extend "http://ns.adobe.com/Extensibility/1.0/">
	<!ENTITY ns_ai "http://ns.adobe.com/AdobeIllustrator/10.0/">
	<!ENTITY ns_graphs "http://ns.adobe.com/Graphs/1.0/">
	<!ENTITY ns_vars "http://ns.adobe.com/Variables/1.0/">
	<!ENTITY ns_imrep "http://ns.adobe.com/ImageReplacement/1.0/">
	<!ENTITY ns_sfw "http://ns.adobe.com/SaveForWeb/1.0/">
	<!ENTITY ns_custom "http://ns.adobe.com/GenericCustomNamespace/1.0/">
	<!ENTITY ns_adobe_xpath "http://ns.adobe.com/XPath/1.0/">
]>
<svg version="1.1" xmlns:x="&ns_extend;" xmlns:i="&ns_ai;" xmlns:graph="&ns_graphs;"
	 xmlns="http://www.w3.org/2000/svg" xmlns:xlink="http://www.w3.org/1999/xlink" x="0px" y="0px" width="100px" height="100px"
	 viewBox="0 0 100 100" enable-background="new 0 0 100 100" xml:space="preserve">
<metadata>
	<sfw  xmlns="&ns_sfw;">
		<slices></slices>
		<sliceSourceBounds  bottomLeftOrigin="true" height="16383" width="1078" y="-8242" x="6"></sliceSourceBounds>
	</sfw>
</metadata>
<g id="snow_shower_thunder">
</g>
<g id="sleet_shower_thunder">
</g>
<g id="rain_shower_thunder">
</g>
<g id="clouds">
	<g id="heavy_rain_thunder">
		<path fill="#C9AF16" d="M35.413,67l-6.25,12.484h8.325L25,92l25.001-16.68h-8.338L49.995,67H35.413z"/>
		<g>
			<path fill="#FFFFFF" d="M41.197,5c-4.068,0-7.844,1.524-10.873,4.345c-1.762-0.455-3.541-0.684-5.32-0.685
				c-5.893,0.001-11.094,2.498-14.27,6.851c-2.414,3.309-3.396,7.348-2.889,11.655C3.221,29.379,0,34.151,0,39.457
				C0,46.672,6.338,53,13.564,53h62.938C82.949,53,88,47.901,88,41.393c0-4.484-2.279-8.101-5.884-9.674
				c-1.772-3.888-6.06-7.351-11.538-7.351c-0.072,0-0.144,0.001-0.215,0.002c-1.828-5.323-6.771-8.945-12.9-8.945
				c-0.201,0-0.401,0.004-0.602,0.013C54.271,9.347,48.041,5,41.197,5L41.197,5z"/>
			<path fill="#808080" d="M76.503,49C80.512,49,84,45.907,84,41.393c0-2.964-1.551-5.932-5.043-6.447
				c-0.516-3.479-5.372-8.362-11.833-5.917c0-7.154-6.749-11.154-13.108-9.038c-1.423-10.053-14.994-15.6-22.486-6.058
				c-11.504-4.511-23.004,3.48-19,15.99C8.006,30.434,4,34.432,4,39.457C4,44.488,8.525,49,13.564,49H76.503z"/>
		</g>
		<g>
			<path fill="#FFFFFF" d="M52.803,23c-6.844,0-13.074,4.347-15.664,10.438c-0.2-0.009-0.4-0.013-0.602-0.013
				c-6.129,0-11.072,3.622-12.9,8.945c-0.071-0.001-0.143-0.002-0.215-0.002c-5.479,0-9.766,3.463-11.538,7.351
				C8.279,51.292,6,54.908,6,59.393C6,65.901,11.051,71,17.497,71h62.938C87.662,71,94,64.672,94,57.457
				c0-5.306-3.221-10.078-7.846-12.291c0.508-4.308-0.475-8.347-2.889-11.655c-3.176-4.353-8.377-6.85-14.27-6.851
				c-1.779,0.001-3.559,0.229-5.32,0.685C60.646,24.524,56.871,23,52.803,23L52.803,23z"/>
			<path fill="#666666" d="M17.497,67C13.488,67,10,63.907,10,59.393c0-2.964,1.551-5.932,5.043-6.447
				c0.516-3.479,5.372-8.362,11.833-5.917c0-7.154,6.749-11.154,13.108-9.038c1.423-10.053,14.994-15.6,22.486-6.058
				c11.504-4.511,23.004,3.48,19,15.99C85.994,48.434,90,52.432,90,57.457C90,62.488,85.475,67,80.436,67H17.497z"/>
		</g>
		<g>
			<circle fill="#FFFFFF" cx="73.5" cy="72" r="8"/>
			<path fill="#1362B1" d="M82.5,77.909c0,2.814-2.241,5.091-5,5.091c-2.763,0-5-2.276-5-5.091c0-1.582,0-8.909,0-8.909
				C77.07,73.494,82.5,73.295,82.5,77.909z"/>
		</g>
		<g>
			<circle fill="#FFFFFF" cx="58.5" cy="70" r="8"/>
			<path fill="#1362B1" d="M67.5,75.909c0,2.814-2.241,5.091-5,5.091c-2.763,0-5-2.276-5-5.091c0-1.582,0-8.909,0-8.909
				C62.07,71.494,67.5,71.295,67.5,75.909z"/>
		</g>
	</g>
	<g id="rain_thunder">
	</g>
	<g id="heavy_snow">
	</g>
	<g id="sleet">
	</g>
	<g id="heavy_rain">
	</g>
	<g id="rain_1_">
	</g>
	<g id="heavy_cloud">
	</g>
	<g id="fog">
	</g>
</g>
<g id="snow_shower">
</g>
<g id="sleet_shower">
</g>
<g id="rain_shower">
</g>
<g id="partly_cloudy">
</g>
<g id="fair">
</g>
<g id="clear">
</g>
</svg>
