<svg width="100" height="100" viewBox="0 0 100 100" fill="none" xmlns="http://www.w3.org/2000/svg">
<mask id="mask0" mask-type="alpha" maskUnits="userSpaceOnUse" x="9" y="41" width="82" height="41">
<rect x="9" y="41" width="82" height="41" fill="#C4C4C4"/>
</mask>
<g mask="url(#mask0)">
<path d="M75.6 47.9L91 41L75.6 34.2L85.4 20.5L68.7 22.3L70.4 5.5L56.8 15.4L50 0L43.2 15.4L29.5 5.5L31.3 22.2L14.5 20.5L24.4 34.1L9 41L24.4 47.8L14.5 61.5L31.2 59.7L29.5 76.5L43.1 66.6L50 82L56.8 66.6L70.5 76.4L68.7 59.7L85.5 61.4L75.6 47.9Z" fill="url(#paint0_radial)"/>
<path d="M28.2835 53.5087C35.1853 65.417 50.4893 69.5198 62.4924 62.7151C74.4956 55.9104 78.4966 40.4997 71.6948 28.4913C64.793 16.583 49.489 12.4802 37.4859 19.2849C25.5828 26.1897 21.4817 41.6004 28.2835 53.5087Z" fill="#FFD348"/>
<path d="M31.7994 51.4934C37.5982 61.4913 50.4955 64.9905 60.4934 59.1917C70.4913 53.393 73.9905 40.4957 68.1917 30.4978C62.393 20.4999 49.4957 17.0006 39.4978 22.7994C29.4999 28.5982 26.0006 41.4955 31.7994 51.4934Z" fill="url(#paint1_linear)"/>
</g>
<line x1="6.5" y1="39.5" x2="93.5" y2="39.5" stroke="#171F28" stroke-width="3" stroke-linecap="round"/>
<defs>
<radialGradient id="paint0_radial" cx="0" cy="0" r="1" gradientUnits="userSpaceOnUse" gradientTransform="translate(50 41) scale(41)">
<stop offset="0.5143" stop-color="#D6B849"/>
<stop offset="0.6523" stop-color="#FFCE47"/>
<stop offset="1" stop-color="#FFDB73"/>
</radialGradient>
<linearGradient id="paint1_linear" x1="36.4958" y1="24.9076" x2="63.4951" y2="57.0842" gradientUnits="userSpaceOnUse">
<stop stop-color="#FFAF22"/>
<stop offset="0.9897" stop-color="#F09900"/>
</linearGradient>
</defs>
</svg>
