<svg width="100" height="100" viewBox="0 0 100 100" fill="none" xmlns="http://www.w3.org/2000/svg">
<path fill-rule="evenodd" clip-rule="evenodd" d="M57.7 23C69.4 23 79.4 31.6 81.3 42.9C87.5 44.5 92 50.2 92 56.8C92 64.7 85.5 71.1 77.6 71.1H61.3625C60.9568 70.0514 60.2664 69.2847 59.2 68.8L55.2 67.1L57.4 54.8C57.8 52.9 56.6 51 54.8 50.3C54.4 50.1 54 50 53.6 50C52.2 50 50.8 50.8 50.1 52.1L39.7718 71.1H21.9C18 71.1 14.3 69.6 11.6 66.9C8.7 64.2 7.1 60.5 7 56.4V56.2C7 52.4 8.5 48.8 11.2 46C14 43.1 17.8 41.5 21.9 41.5C22.5 41.5 23 41.5 23.6 41.6C25 37.9 28.6 35.4 32.8 35.4C34 35.4 35.2 35.6 36.4 36.1C40.4 28.1 48.6 23 57.7 23Z" fill="#999999"/>
<g opacity="0.6">
<path fill-rule="evenodd" clip-rule="evenodd" d="M57.7 23C69.4 23 79.4 31.6 81.3 42.9C87.5 44.5 92 50.2 92 56.8C92 64.7 85.5 71.1 77.6 71.1H61.3625C60.9568 70.0514 60.2664 69.2847 59.2 68.8L55.2 67.1L57.4 54.8C57.8 52.9 56.6 51 54.8 50.3C54.4 50.1 54 50 53.6 50C52.2 50 50.8 50.8 50.1 52.1L39.7718 71.1H21.9C18 71.1 14.3 69.6 11.6 66.9C8.7 64.2 7.1 60.5 7 56.4V56.2C7 52.4 8.5 48.8 11.2 46C14 43.1 17.8 41.5 21.9 41.5C22.5 41.5 23 41.5 23.6 41.6C25 37.9 28.6 35.4 32.8 35.4C34 35.4 35.2 35.6 36.4 36.1C40.4 28.1 48.6 23 57.7 23Z" fill="url(#paint0_linear_149_1403)" style="mix-blend-mode:multiply"/>
</g>
<g style="mix-blend-mode:multiply" opacity="0.3" filter="url(#filter0_f_149_1403)">
<path fill-rule="evenodd" clip-rule="evenodd" d="M44.0731 63.1873C37.4845 63.6367 30.4547 64 29.5 64C23 64 18.5 69.1007 18.5 69.1007H40.8586L44.0731 63.1873ZM56.4846 59.9179L57.4 54.8C57.4512 54.5569 57.4762 54.3139 57.4771 54.0733C58.1252 53.834 58.6465 53.6032 58.6465 53.6032C58.6465 53.6032 62.9994 52.0007 63.75 52.0007C64.5006 52.0007 64.1244 49.0375 63.8901 47.1913L63.8901 47.1913L63.75 45.8707C63.75 45.509 63.3022 44.9861 62.7496 44.3407C61.9726 43.4334 60.9884 42.284 60.75 41.0007C60.5753 40.0605 60.7764 38.9193 60.9222 38.0915C61.0132 37.5748 61.0827 37.1802 61.0258 37.033C61.1384 37.0858 61.9481 37.3602 61.9481 37.3602C63.8959 38.0203 66.9771 39.0993 69.75 41.0007C71.4084 42.1378 73.6911 44.3144 73.6911 44.3144C73.6911 44.3144 75.3358 45.5864 75.75 46.0007C76.75 47.0007 79.75 50.0007 81.75 50.0007H86.75L89 51.5907L89.5 54.8007C89.5 62.7007 83 69.1007 75.1 69.1007H59.7581C59.5847 68.9906 59.3989 68.8904 59.2 68.8L55.2 67.1L56.1262 61.9217C56.6816 61.567 56.6884 60.8141 56.4846 59.9179ZM60.99 37.0007C61.0045 36.997 61.0163 37.0084 61.0258 37.033C61.0258 37.033 60.9751 37.0044 60.99 37.0007Z" fill="url(#paint1_radial_149_1403)"/>
</g>
<path d="M84.2905 99.254L84.3156 99.2656L84.3419 99.2744C84.6557 99.379 85.1176 99.5 85.5 99.5C86.6717 99.5 87.773 98.9047 88.2611 97.6934L91.7581 89.7004L91.7626 89.6901L91.7667 89.6795C92.3547 88.1507 91.7651 86.464 90.2095 85.746L90.1947 85.7392L90.1795 85.7334C88.6507 85.1453 86.964 85.735 86.246 87.2905L86.2459 87.2905L86.2419 87.2996L82.7419 95.2996L82.7374 95.31L82.7333 95.3205C82.1453 96.8494 82.7349 98.5361 84.2905 99.254Z" fill="#006EDB" stroke="white"/>
<path d="M31.2905 99.254L31.3156 99.2656L31.3419 99.2744C31.6557 99.379 32.1176 99.5 32.5 99.5C33.6717 99.5 34.773 98.9047 35.2611 97.6934L38.7581 89.7004L38.7626 89.6901L38.7667 89.6795C39.3547 88.1507 38.7651 86.464 37.2095 85.746L37.1947 85.7392L37.1795 85.7334C35.6507 85.1453 33.964 85.735 33.246 87.2905L33.2459 87.2905L33.2419 87.2996L29.7419 95.2996L29.7374 95.31L29.7333 95.3205C29.1453 96.8494 29.7349 98.5361 31.2905 99.254Z" fill="#006EDB" stroke="white"/>
<path d="M58.2905 90.254L58.3156 90.2656L58.3419 90.2744C58.6557 90.379 59.1176 90.5 59.5 90.5C60.6717 90.5 61.773 89.9047 62.2611 88.6934L65.7581 80.7004L65.7626 80.6901L65.7667 80.6795C66.3547 79.1507 65.7651 77.464 64.2095 76.746L64.1947 76.7392L64.1795 76.7334C62.6507 76.1453 60.964 76.735 60.246 78.2905L60.2459 78.2905L60.2419 78.2996L56.7419 86.2996L56.7374 86.31L56.7333 86.3205C56.1453 87.8494 56.7349 89.5361 58.2905 90.254Z" fill="#006EDB" stroke="white"/>
<path d="M70.2905 90.254L70.3156 90.2656L70.3419 90.2744C70.6557 90.379 71.1176 90.5 71.5 90.5C72.6717 90.5 73.773 89.9047 74.2611 88.6934L77.7581 80.7004L77.7626 80.6901L77.7667 80.6795C78.3547 79.1507 77.7651 77.464 76.2095 76.746L76.1947 76.7392L76.1795 76.7334C74.6507 76.1453 72.964 76.735 72.246 78.2905L72.2459 78.2905L72.2419 78.2996L68.7419 86.2996L68.7374 86.31L68.7333 86.3205C68.1453 87.8494 68.7349 89.5361 70.2905 90.254Z" fill="#006EDB" stroke="white"/>
<path d="M20.2905 90.254L20.3156 90.2656L20.3419 90.2744C20.6557 90.379 21.1176 90.5 21.5 90.5C22.6717 90.5 23.773 89.9047 24.2611 88.6934L27.7581 80.7004L27.7626 80.6901L27.7667 80.6795C28.3547 79.1507 27.7651 77.464 26.2095 76.746L26.1947 76.7392L26.1795 76.7334C24.6507 76.1453 22.964 76.735 22.246 78.2905L22.2459 78.2905L22.2419 78.2996L18.7419 86.2996L18.7374 86.31L18.7333 86.3205C18.1453 87.8494 18.7349 89.5361 20.2905 90.254Z" fill="#006EDB" stroke="white"/>
<path fill-rule="evenodd" clip-rule="evenodd" d="M50.8 69.4L53.6 54L43 73.5L50.1 76.5L45.5 94L57.7 72.4L50.8 69.4Z" fill="#FFC524"/>
<defs>
<filter id="filter0_f_149_1403" x="14.5" y="33" width="79" height="40.1007" filterUnits="userSpaceOnUse" color-interpolation-filters="sRGB">
<feFlood flood-opacity="0" result="BackgroundImageFix"/>
<feBlend mode="normal" in="SourceGraphic" in2="BackgroundImageFix" result="shape"/>
<feGaussianBlur stdDeviation="2" result="effect1_foregroundBlur_149_1403"/>
</filter>
<linearGradient id="paint0_linear_149_1403" x1="47.5" y1="38.5" x2="49.5" y2="71.1" gradientUnits="userSpaceOnUse">
<stop offset="0.484375" stop-color="white" stop-opacity="0"/>
<stop offset="1" stop-color="#B3B2B2"/>
</linearGradient>
<radialGradient id="paint1_radial_149_1403" cx="0" cy="0" r="1" gradientUnits="userSpaceOnUse" gradientTransform="translate(68 41) rotate(75.0686) scale(23.2863 33.7318)">
<stop stop-color="#D5D5D5"/>
<stop offset="1" stop-color="#D0D0D0"/>
<stop offset="1" stop-color="#9B9B9B" stop-opacity="0"/>
</radialGradient>
</defs>
</svg>
