<svg width="100" height="100" viewBox="0 0 100 100" fill="none" xmlns="http://www.w3.org/2000/svg">
<path fill-rule="evenodd" clip-rule="evenodd" d="M28.4427 13.5646C28.4427 9.69627 27.3268 6.05115 25.5415 2.92676C35.2069 4.16064 42.7878 11.8375 43.9187 21.5336C39.9745 23.6749 36.524 26.7068 33.9 30.3999H32.8C27.9 30.3999 23.4 32.6999 20.7 36.5999C16.6415 36.8434 12.8466 38.2729 9.68955 40.7278C7.57913 39.0479 5.78488 36.9738 4.41464 34.617C5.30733 34.7658 6.20001 34.8402 7.16708 34.8402C18.9207 34.8402 28.4427 25.3182 28.4427 13.5646Z" fill="url(#paint0_linear_149_1410)"/>
<path fill-rule="evenodd" clip-rule="evenodd" d="M57.7 23C69.4 23 79.4 31.6 81.3 42.9C87.5 44.5 92 50.2 92 56.8C92 64.7 85.5 71.1 77.6 71.1H61.3625C60.9568 70.0514 60.2664 69.2847 59.2 68.8L55.2 67.1L57.4 54.8C57.8 52.9 56.6 51 54.8 50.3C54.4 50.1 54 50 53.6 50C52.2 50 50.8 50.8 50.1 52.1L39.7718 71.1H21.9C18 71.1 14.3 69.6 11.6 66.9C8.7 64.2 7.1 60.5 7 56.4V56.2C7 52.4 8.5 48.8 11.2 46C14 43.1 17.8 41.5 21.9 41.5C22.5 41.5 23 41.5 23.6 41.6C25 37.9 28.6 35.4 32.8 35.4C34 35.4 35.2 35.6 36.4 36.1C40.4 28.1 48.6 23 57.7 23Z" fill="#B2B2B2"/>
<g opacity="0.6">
<path fill-rule="evenodd" clip-rule="evenodd" d="M57.7 23C69.4 23 79.4 31.6 81.3 42.9C87.5 44.5 92 50.2 92 56.8C92 64.7 85.5 71.1 77.6 71.1H61.3625C60.9568 70.0514 60.2664 69.2847 59.2 68.8L55.2 67.1L57.4 54.8C57.8 52.9 56.6 51 54.8 50.3C54.4 50.1 54 50 53.6 50C52.2 50 50.8 50.8 50.1 52.1L39.7718 71.1H21.9C18 71.1 14.3 69.6 11.6 66.9C8.7 64.2 7.1 60.5 7 56.4V56.2C7 52.4 8.5 48.8 11.2 46C14 43.1 17.8 41.5 21.9 41.5C22.5 41.5 23 41.5 23.6 41.6C25 37.9 28.6 35.4 32.8 35.4C34 35.4 35.2 35.6 36.4 36.1C40.4 28.1 48.6 23 57.7 23Z" fill="url(#paint1_linear_149_1410)" style="mix-blend-mode:multiply"/>
</g>
<g style="mix-blend-mode:multiply" opacity="0.3" filter="url(#filter0_f_149_1410)">
<path fill-rule="evenodd" clip-rule="evenodd" d="M44.0731 63.1873C37.4845 63.6367 30.4547 64 29.5 64C23 64 18.5 69.1007 18.5 69.1007H40.8586L44.0731 63.1873ZM56.4846 59.9179L57.4 54.8C57.4512 54.5569 57.4762 54.3139 57.4771 54.0733C58.1252 53.834 58.6465 53.6032 58.6465 53.6032C58.6465 53.6032 62.9994 52.0007 63.75 52.0007C64.5006 52.0007 64.1244 49.0375 63.8901 47.1913L63.8901 47.1913L63.75 45.8707C63.75 45.509 63.3022 44.9861 62.7496 44.3407C61.9726 43.4334 60.9884 42.284 60.75 41.0007C60.5753 40.0605 60.7764 38.9193 60.9222 38.0915C61.0132 37.5748 61.0827 37.1802 61.0258 37.033C61.1384 37.0858 61.9481 37.3602 61.9481 37.3602C63.8959 38.0203 66.9771 39.0993 69.75 41.0007C71.4084 42.1378 73.6911 44.3144 73.6911 44.3144C73.6911 44.3144 75.3358 45.5864 75.75 46.0007C76.75 47.0007 79.75 50.0007 81.75 50.0007H86.75L89 51.5907L89.5 54.8007C89.5 62.7007 83 69.1007 75.1 69.1007H59.7581C59.5847 68.9906 59.3989 68.8904 59.2 68.8L55.2 67.1L56.1262 61.9217C56.6816 61.567 56.6884 60.8141 56.4846 59.9179ZM60.99 37.0007C61.0045 36.997 61.0163 37.0084 61.0258 37.033C61.0258 37.033 60.9751 37.0044 60.99 37.0007Z" fill="url(#paint2_radial_149_1410)"/>
</g>
<path fill-rule="evenodd" clip-rule="evenodd" d="M50.8 69.4L53.6 54L43 73.5L50.1 76.5L45.5 94L57.7 72.4L50.8 69.4Z" fill="#FFC524"/>
<g clip-path="url(#clip0_149_1410)">
<path d="M37.7 82.5H34.9L36.3 80C36.7 79.4 36.5 78.5 35.8 78.2C35.1 77.8 34.3 78 33.9 78.7L32.5 81.1L31.1 78.7C30.7 78 29.9 77.8 29.3 78.2C28.9 78.4 28.7 78.7 28.6 79C28.5 79.3 28.6 79.7 28.7 80L30.1 82.4H27.4C26.6 82.5 26 83.1 26 83.8C26 84.5 26.6 85.2 27.4 85.2H30.2L28.8 87.6C28.6 87.9 28.6 88.3 28.7 88.6C28.8 88.9 29 89.2 29.3 89.4C29.9 89.8 30.8 89.5 31.1 88.9L32.5 86.5L33.9 89C34.1 89.4 34.6 89.7 35.1 89.7C35.3 89.7 35.6 89.6 35.8 89.5C36.4 89.1 36.7 88.3 36.3 87.7L34.9 85.2H37.7C38.4 85.2 39.1 84.6 39.1 83.8C39.1 83 38.4 82.5 37.7 82.5Z" fill="#00B8F1"/>
</g>
<path d="M66.2905 92.254L66.3156 92.2656L66.3419 92.2744C66.6557 92.379 67.1176 92.5 67.5 92.5C68.6717 92.5 69.773 91.9047 70.2611 90.6934L73.7581 82.7004L73.7626 82.6901L73.7667 82.6795C74.3547 81.1507 73.7651 79.464 72.2095 78.746L72.1947 78.7392L72.1795 78.7334C70.6507 78.1453 68.964 78.735 68.246 80.2905L68.2459 80.2905L68.2419 80.2996L64.7419 88.2996L64.7374 88.31L64.7333 88.3205C64.1453 89.8494 64.7349 91.5361 66.2905 92.254Z" fill="#006EDB" stroke="white"/>
<path d="M52.2905 99.254L52.3156 99.2656L52.3419 99.2744C52.6557 99.379 53.1176 99.5 53.5 99.5C54.6717 99.5 55.773 98.9047 56.2611 97.6934L59.7581 89.7004L59.7626 89.6901L59.7667 89.6795C60.3547 88.1507 59.7651 86.464 58.2095 85.746L58.1947 85.7392L58.1795 85.7334C56.6507 85.1453 54.964 85.735 54.246 87.2905L54.2459 87.2905L54.2419 87.2996L50.7419 95.2996L50.7374 95.31L50.7333 95.3205C50.1453 96.8494 50.7349 98.5361 52.2905 99.254Z" fill="#006EDB" stroke="white"/>
<defs>
<filter id="filter0_f_149_1410" x="14.5" y="33" width="79" height="40.1006" filterUnits="userSpaceOnUse" color-interpolation-filters="sRGB">
<feFlood flood-opacity="0" result="BackgroundImageFix"/>
<feBlend mode="normal" in="SourceGraphic" in2="BackgroundImageFix" result="shape"/>
<feGaussianBlur stdDeviation="2" result="effect1_foregroundBlur_149_1410"/>
</filter>
<linearGradient id="paint0_linear_149_1410" x1="12.9138" y1="43.4636" x2="40.2563" y2="10.8781" gradientUnits="userSpaceOnUse">
<stop stop-color="#686E73"/>
<stop offset="0.9891" stop-color="#6A7075"/>
</linearGradient>
<linearGradient id="paint1_linear_149_1410" x1="47.5" y1="38.5" x2="49.5" y2="71.1" gradientUnits="userSpaceOnUse">
<stop offset="0.484375" stop-color="white" stop-opacity="0"/>
<stop offset="1" stop-color="#B3B2B2"/>
</linearGradient>
<radialGradient id="paint2_radial_149_1410" cx="0" cy="0" r="1" gradientUnits="userSpaceOnUse" gradientTransform="translate(68 41) rotate(75.0686) scale(23.2863 33.7318)">
<stop stop-color="#D5D5D5"/>
<stop offset="1" stop-color="#D0D0D0"/>
<stop offset="1" stop-color="#9B9B9B" stop-opacity="0"/>
</radialGradient>
<clipPath id="clip0_149_1410">
<rect width="13" height="11.6" fill="white" transform="translate(26 78)"/>
</clipPath>
</defs>
</svg>
