<svg width="100" height="100" viewBox="0 0 100 100" fill="none" xmlns="http://www.w3.org/2000/svg">
<path fill-rule="evenodd" clip-rule="evenodd" d="M45.3841 20.79C40.8289 22.9449 36.8442 26.2563 33.9 30.4H32.8C27.9 30.4 23.4 32.7 20.7 36.6C19.3206 36.6828 17.9716 36.9025 16.6678 37.253L17.028 33.693L5.50499 34.935L12.336 25.482L1.70999 20.79H45.3841Z" fill="url(#paint0_radial_149_1423)"/>
<path fill-rule="evenodd" clip-rule="evenodd" d="M45.3841 20.79C40.8289 22.9449 36.8442 26.2563 33.9 30.4H32.8C28.2763 30.4 24.0936 32.3603 21.3533 35.7301C18.8012 34.2682 16.5912 32.1393 15.0158 29.421C13.4662 26.7081 12.7365 23.7317 12.7502 20.79H45.3841Z" fill="#FFD348"/>
<path fill-rule="evenodd" clip-rule="evenodd" d="M44.4814 21.236C40.3026 23.3898 36.6481 26.5323 33.9 30.4H32.8C29.2921 30.4 25.9892 31.5788 23.405 33.6795C20.9931 32.4494 18.8964 30.5366 17.4446 28.0335C16.1228 25.7545 15.5012 23.2571 15.5101 20.79H44.4899C44.4893 20.9388 44.4865 21.0875 44.4814 21.236Z" fill="url(#paint1_linear_149_1423)"/>
<path fill-rule="evenodd" clip-rule="evenodd" d="M1.5 18C0.671573 18 0 18.6716 0 19.5C0 20.3284 0.671573 21 1.5 21H44.9495C48.8623 19.0702 53.2143 18 57.7 18C58.0475 18 58.394 18.0064 58.7392 18.019C58.6613 18.0065 58.5814 18 58.5 18H57.7H1.5Z" fill="#21292B"/>
<path fill-rule="evenodd" clip-rule="evenodd" d="M57.7 23C69.4 23 79.4 31.6 81.3 42.9C87.5 44.5 92 50.2 92 56.8C92 64.7 85.5 71.1 77.6 71.1H61.3625C60.9568 70.0514 60.2664 69.2847 59.2 68.8L55.2 67.1L57.4 54.8C57.8 52.9 56.6 51 54.8 50.3C54.4 50.1 54 50 53.6 50C52.2 50 50.8 50.8 50.1 52.1L39.7718 71.1H21.9C18 71.1 14.3 69.6 11.6 66.9C8.7 64.2 7.1 60.5 7 56.4V56.2C7 52.4 8.5 48.8 11.2 46C14 43.1 17.8 41.5 21.9 41.5C22.5 41.5 23 41.5 23.6 41.6C25 37.9 28.6 35.4 32.8 35.4C34 35.4 35.2 35.6 36.4 36.1C40.4 28.1 48.6 23 57.7 23Z" fill="#CCCCCC"/>
<g opacity="0.6">
<path fill-rule="evenodd" clip-rule="evenodd" d="M57.7 23C69.4 23 79.4 31.6 81.3 42.9C87.5 44.5 92 50.2 92 56.8C92 64.7 85.5 71.1 77.6 71.1H61.3625C60.9568 70.0514 60.2664 69.2847 59.2 68.8L55.2 67.1L57.4 54.8C57.8 52.9 56.6 51 54.8 50.3C54.4 50.1 54 50 53.6 50C52.2 50 50.8 50.8 50.1 52.1L39.7718 71.1H21.9C18 71.1 14.3 69.6 11.6 66.9C8.7 64.2 7.1 60.5 7 56.4V56.2C7 52.4 8.5 48.8 11.2 46C14 43.1 17.8 41.5 21.9 41.5C22.5 41.5 23 41.5 23.6 41.6C25 37.9 28.6 35.4 32.8 35.4C34 35.4 35.2 35.6 36.4 36.1C40.4 28.1 48.6 23 57.7 23Z" fill="url(#paint2_linear_149_1423)" style="mix-blend-mode:multiply"/>
</g>
<g style="mix-blend-mode:multiply" opacity="0.3" filter="url(#filter0_f_149_1423)">
<path fill-rule="evenodd" clip-rule="evenodd" d="M44.0731 63.1873C37.4845 63.6367 30.4547 64 29.5 64C23 64 18.5 69.1007 18.5 69.1007H40.8586L44.0731 63.1873ZM56.4846 59.9179L57.4 54.8C57.4512 54.5569 57.4762 54.3139 57.4771 54.0733C58.1252 53.834 58.6465 53.6032 58.6465 53.6032C58.6465 53.6032 62.9994 52.0007 63.75 52.0007C64.5006 52.0007 64.1244 49.0375 63.8901 47.1913L63.8901 47.1913L63.75 45.8707C63.75 45.509 63.3022 44.9861 62.7496 44.3407C61.9726 43.4334 60.9884 42.284 60.75 41.0007C60.5753 40.0605 60.7764 38.9193 60.9222 38.0915C61.0132 37.5748 61.0827 37.1802 61.0258 37.033C61.1384 37.0858 61.9481 37.3602 61.9481 37.3602C63.8959 38.0203 66.9771 39.0993 69.75 41.0007C71.4084 42.1378 73.6911 44.3144 73.6911 44.3144C73.6911 44.3144 75.3358 45.5864 75.75 46.0007C76.75 47.0007 79.75 50.0007 81.75 50.0007H86.75L89 51.5907L89.5 54.8007C89.5 62.7007 83 69.1007 75.1 69.1007H59.7581C59.5847 68.9906 59.3989 68.8904 59.2 68.8L55.2 67.1L56.1262 61.9217C56.6816 61.567 56.6884 60.8141 56.4846 59.9179ZM60.99 37.0007C61.0045 36.997 61.0163 37.0084 61.0258 37.033C61.0258 37.033 60.9751 37.0044 60.99 37.0007Z" fill="url(#paint3_radial_149_1423)"/>
</g>
<path fill-rule="evenodd" clip-rule="evenodd" d="M50.8 69.4L53.6 54L43 73.5L50.1 76.5L45.5 94L57.7 72.4L50.8 69.4Z" fill="#FF9D00"/>
<g clip-path="url(#clip0_149_1423)">
<path d="M39.7 92.5H36.9L38.3 90C38.7 89.4 38.5 88.5 37.8 88.2C37.1 87.8 36.3 88 35.9 88.7L34.5 91.1L33.1 88.7C32.7 88 31.9 87.8 31.3 88.2C30.9 88.4 30.7 88.7 30.6 89C30.5 89.3 30.6 89.7 30.7 90L32.1 92.4H29.4C28.6 92.5 28 93.1 28 93.8C28 94.5 28.6 95.2 29.4 95.2H32.2L30.8 97.6C30.6 97.9 30.6 98.3 30.7 98.6C30.8 98.9 31 99.2 31.3 99.4C31.9 99.8 32.8 99.5 33.1 98.9L34.5 96.5L35.9 99C36.1 99.4 36.6 99.7 37.1 99.7C37.3 99.7 37.6 99.6 37.8 99.5C38.4 99.1 38.7 98.3 38.3 97.7L36.9 95.2H39.7C40.4 95.2 41.1 94.6 41.1 93.8C41.1 93 40.4 92.5 39.7 92.5Z" fill="#00B8F1"/>
</g>
<path d="M61.5 93C61.2 93 60.8 92.9 60.5 92.8C59.2 92.2 58.7 90.8 59.2 89.5L62.7 81.5C63.3 80.2 64.7 79.7 66 80.2C67.3 80.8 67.8 82.2 67.3 83.5L63.8 91.5C63.4 92.5 62.5 93 61.5 93Z" fill="#006EDB"/>
<defs>
<filter id="filter0_f_149_1423" x="14.5" y="33" width="79" height="40.1006" filterUnits="userSpaceOnUse" color-interpolation-filters="sRGB">
<feFlood flood-opacity="0" result="BackgroundImageFix"/>
<feBlend mode="normal" in="SourceGraphic" in2="BackgroundImageFix" result="shape"/>
<feGaussianBlur stdDeviation="2" result="effect1_foregroundBlur_149_1423"/>
</filter>
<radialGradient id="paint0_radial_149_1423" cx="0" cy="0" r="1" gradientUnits="userSpaceOnUse" gradientTransform="translate(30 20.79) scale(28.29)">
<stop offset="0.5143" stop-color="#D6B849"/>
<stop offset="0.6523" stop-color="#FFCE47"/>
<stop offset="1" stop-color="#FFDB73"/>
</radialGradient>
<linearGradient id="paint1_linear_149_1423" x1="20.6851" y1="9.6893" x2="39.3147" y2="31.8912" gradientUnits="userSpaceOnUse">
<stop stop-color="#FFAF22"/>
<stop offset="0.9897" stop-color="#F09900"/>
</linearGradient>
<linearGradient id="paint2_linear_149_1423" x1="47.5" y1="38.5" x2="49.5" y2="71.1" gradientUnits="userSpaceOnUse">
<stop offset="0.484375" stop-color="white" stop-opacity="0"/>
<stop offset="1" stop-color="#B3B2B2"/>
</linearGradient>
<radialGradient id="paint3_radial_149_1423" cx="0" cy="0" r="1" gradientUnits="userSpaceOnUse" gradientTransform="translate(68 41) rotate(75.0686) scale(23.2863 33.7318)">
<stop stop-color="#D5D5D5"/>
<stop offset="1" stop-color="#D0D0D0"/>
<stop offset="1" stop-color="#9B9B9B" stop-opacity="0"/>
</radialGradient>
<clipPath id="clip0_149_1423">
<rect width="13" height="11.6" fill="white" transform="translate(28 88)"/>
</clipPath>
</defs>
</svg>
