<svg width="100" height="100" viewBox="0 0 100 100" fill="none" xmlns="http://www.w3.org/2000/svg">
<path fill-rule="evenodd" clip-rule="evenodd" d="M45.3841 20.79C40.8289 22.9449 36.8442 26.2563 33.9 30.4H32.8C27.9 30.4 23.4 32.7 20.7 36.6C19.3206 36.6828 17.9716 36.9025 16.6678 37.253L17.028 33.693L5.50499 34.935L12.336 25.482L1.70999 20.79H45.3841Z" fill="url(#paint0_radial_149_1426)"/>
<path fill-rule="evenodd" clip-rule="evenodd" d="M45.3841 20.79C40.8289 22.9449 36.8442 26.2563 33.9 30.4H32.8C28.2763 30.4 24.0936 32.3603 21.3533 35.7301C18.8012 34.2682 16.5912 32.1393 15.0158 29.421C13.4662 26.7081 12.7365 23.7317 12.7502 20.79H45.3841Z" fill="#FFD348"/>
<path fill-rule="evenodd" clip-rule="evenodd" d="M44.4814 21.236C40.3026 23.3898 36.6481 26.5323 33.9 30.4H32.8C29.2921 30.4 25.9892 31.5788 23.405 33.6795C20.9931 32.4494 18.8964 30.5366 17.4446 28.0335C16.1228 25.7545 15.5012 23.2571 15.5101 20.79H44.4899C44.4893 20.9388 44.4865 21.0875 44.4814 21.236Z" fill="url(#paint1_linear_149_1426)"/>
<path fill-rule="evenodd" clip-rule="evenodd" d="M1.5 18C0.671573 18 0 18.6716 0 19.5C0 20.3284 0.671573 21 1.5 21H44.9495C48.8623 19.0702 53.2143 18 57.7 18C58.0475 18 58.394 18.0064 58.7392 18.019C58.6613 18.0065 58.5814 18 58.5 18H57.7H1.5Z" fill="#21292B"/>
<path fill-rule="evenodd" clip-rule="evenodd" d="M57.7 23C69.4 23 79.4 31.6 81.3 42.9C87.5 44.5 92 50.2 92 56.8C92 64.7 85.5 71.1 77.6 71.1H61.3625C60.9568 70.0514 60.2664 69.2847 59.2 68.8L55.2 67.1L57.4 54.8C57.8 52.9 56.6 51 54.8 50.3C54.4 50.1 54 50 53.6 50C52.2 50 50.8 50.8 50.1 52.1L39.7718 71.1H21.9C18 71.1 14.3 69.6 11.6 66.9C8.7 64.2 7.1 60.5 7 56.4V56.2C7 52.4 8.5 48.8 11.2 46C14 43.1 17.8 41.5 21.9 41.5C22.5 41.5 23 41.5 23.6 41.6C25 37.9 28.6 35.4 32.8 35.4C34 35.4 35.2 35.6 36.4 36.1C40.4 28.1 48.6 23 57.7 23Z" fill="#999999"/>
<g opacity="0.6">
<path fill-rule="evenodd" clip-rule="evenodd" d="M57.7 23C69.4 23 79.4 31.6 81.3 42.9C87.5 44.5 92 50.2 92 56.8C92 64.7 85.5 71.1 77.6 71.1H61.3625C60.9568 70.0514 60.2664 69.2847 59.2 68.8L55.2 67.1L57.4 54.8C57.8 52.9 56.6 51 54.8 50.3C54.4 50.1 54 50 53.6 50C52.2 50 50.8 50.8 50.1 52.1L39.7718 71.1H21.9C18 71.1 14.3 69.6 11.6 66.9C8.7 64.2 7.1 60.5 7 56.4V56.2C7 52.4 8.5 48.8 11.2 46C14 43.1 17.8 41.5 21.9 41.5C22.5 41.5 23 41.5 23.6 41.6C25 37.9 28.6 35.4 32.8 35.4C34 35.4 35.2 35.6 36.4 36.1C40.4 28.1 48.6 23 57.7 23Z" fill="url(#paint2_linear_149_1426)" style="mix-blend-mode:multiply"/>
</g>
<g style="mix-blend-mode:multiply" opacity="0.3" filter="url(#filter0_f_149_1426)">
<path fill-rule="evenodd" clip-rule="evenodd" d="M44.0731 63.1873C37.4845 63.6367 30.4547 64 29.5 64C23 64 18.5 69.1007 18.5 69.1007H40.8586L44.0731 63.1873ZM56.4846 59.9179L57.4 54.8C57.4512 54.5569 57.4762 54.3139 57.4771 54.0733C58.1252 53.834 58.6465 53.6032 58.6465 53.6032C58.6465 53.6032 62.9994 52.0007 63.75 52.0007C64.5006 52.0007 64.1244 49.0375 63.8901 47.1913L63.8901 47.1913L63.75 45.8707C63.75 45.509 63.3022 44.9861 62.7496 44.3407C61.9726 43.4334 60.9884 42.284 60.75 41.0007C60.5753 40.0605 60.7764 38.9193 60.9222 38.0915C61.0132 37.5748 61.0827 37.1802 61.0258 37.033C61.1384 37.0858 61.9481 37.3602 61.9481 37.3602C63.8959 38.0203 66.9771 39.0993 69.75 41.0007C71.4084 42.1378 73.6911 44.3144 73.6911 44.3144C73.6911 44.3144 75.3358 45.5864 75.75 46.0007C76.75 47.0007 79.75 50.0007 81.75 50.0007H86.75L89 51.5907L89.5 54.8007C89.5 62.7007 83 69.1007 75.1 69.1007H59.7581C59.5847 68.9906 59.3989 68.8904 59.2 68.8L55.2 67.1L56.1262 61.9217C56.6816 61.567 56.6884 60.8141 56.4846 59.9179ZM60.99 37.0007C61.0045 36.997 61.0163 37.0084 61.0258 37.033C61.0258 37.033 60.9751 37.0044 60.99 37.0007Z" fill="url(#paint3_radial_149_1426)"/>
</g>
<path fill-rule="evenodd" clip-rule="evenodd" d="M50.8 69.4L53.6 54L43 73.5L50.1 76.5L45.5 94L57.7 72.4L50.8 69.4Z" fill="#FFC524"/>
<g clip-path="url(#clip0_149_1426)">
<path d="M26.7 82.5H23.9L25.3 80C25.7 79.4 25.5 78.5 24.8 78.2C24.1 77.8 23.3 78 22.9 78.7L21.5 81.1L20.1 78.7C19.7 78 18.9 77.8 18.3 78.2C17.9 78.4 17.7 78.7 17.6 79C17.5 79.3 17.6 79.7 17.7 80L19.1 82.4H16.4C15.6 82.5 15 83.1 15 83.8C15 84.5 15.6 85.2 16.4 85.2H19.2L17.8 87.6C17.6 87.9 17.6 88.3 17.7 88.6C17.8 88.9 18 89.2 18.3 89.4C18.9 89.8 19.8 89.5 20.1 88.9L21.5 86.5L22.9 89C23.1 89.4 23.6 89.7 24.1 89.7C24.3 89.7 24.6 89.6 24.8 89.5C25.4 89.1 25.7 88.3 25.3 87.7L23.9 85.2H26.7C27.4 85.2 28.1 84.6 28.1 83.8C28.1 83 27.4 82.5 26.7 82.5Z" fill="#00B8F1"/>
</g>
<g clip-path="url(#clip1_149_1426)">
<path d="M77.7 91.5H74.9L76.3 89C76.7 88.4 76.5 87.5 75.8 87.2C75.1 86.8 74.3 87 73.9 87.7L72.5 90.1L71.1 87.7C70.7 87 69.9 86.8 69.3 87.2C68.9 87.4 68.7 87.7 68.6 88C68.5 88.3 68.6 88.7 68.7 89L70.1 91.4H67.4C66.6 91.5 66 92.1 66 92.8C66 93.5 66.6 94.2 67.4 94.2H70.2L68.8 96.6C68.6 96.9 68.6 97.3 68.7 97.6C68.8 97.9 69 98.2 69.3 98.4C69.9 98.8 70.8 98.5 71.1 97.9L72.5 95.5L73.9 98C74.1 98.4 74.6 98.7 75.1 98.7C75.3 98.7 75.6 98.6 75.8 98.5C76.4 98.1 76.7 97.3 76.3 96.7L74.9 94.2H77.7C78.4 94.2 79.1 93.6 79.1 92.8C79.1 92 78.4 91.5 77.7 91.5Z" fill="#00B8F1"/>
</g>
<path d="M85.2905 92.254L85.3156 92.2656L85.3419 92.2744C85.6557 92.379 86.1176 92.5 86.5 92.5C87.6717 92.5 88.773 91.9047 89.2611 90.6934L92.7581 82.7004L92.7626 82.6901L92.7667 82.6795C93.3547 81.1507 92.7651 79.464 91.2095 78.746L91.1947 78.7392L91.1795 78.7334C89.6507 78.1453 87.964 78.735 87.246 80.2905L87.2459 80.2905L87.2419 80.2996L83.7419 88.2996L83.7374 88.31L83.7333 88.3205C83.1453 89.8494 83.7349 91.5361 85.2905 92.254Z" fill="#006EDB" stroke="white"/>
<path d="M57.2905 92.254L57.3156 92.2656L57.3419 92.2744C57.6557 92.379 58.1176 92.5 58.5 92.5C59.6717 92.5 60.773 91.9047 61.2611 90.6934L64.7581 82.7004L64.7626 82.6901L64.7667 82.6795C65.3547 81.1507 64.7651 79.464 63.2095 78.746L63.1947 78.7392L63.1795 78.7334C61.6507 78.1453 59.964 78.735 59.246 80.2905L59.2459 80.2905L59.2419 80.2996L55.7419 88.2996L55.7374 88.31L55.7333 88.3205C55.1453 89.8494 55.7349 91.5361 57.2905 92.254Z" fill="#006EDB" stroke="white"/>
<path d="M32.2905 99.254L32.3156 99.2656L32.3419 99.2744C32.6557 99.379 33.1176 99.5 33.5 99.5C34.6717 99.5 35.773 98.9047 36.2611 97.6934L39.7581 89.7004L39.7626 89.6901L39.7667 89.6795C40.3547 88.1507 39.7651 86.464 38.2095 85.746L38.1947 85.7392L38.1795 85.7334C36.6507 85.1453 34.964 85.735 34.246 87.2905L34.2459 87.2905L34.2419 87.2996L30.7419 95.2996L30.7374 95.31L30.7333 95.3205C30.1453 96.8494 30.7349 98.5361 32.2905 99.254Z" fill="#006EDB" stroke="white"/>
<defs>
<filter id="filter0_f_149_1426" x="14.5" y="33" width="79" height="40.1006" filterUnits="userSpaceOnUse" color-interpolation-filters="sRGB">
<feFlood flood-opacity="0" result="BackgroundImageFix"/>
<feBlend mode="normal" in="SourceGraphic" in2="BackgroundImageFix" result="shape"/>
<feGaussianBlur stdDeviation="2" result="effect1_foregroundBlur_149_1426"/>
</filter>
<radialGradient id="paint0_radial_149_1426" cx="0" cy="0" r="1" gradientUnits="userSpaceOnUse" gradientTransform="translate(30 20.79) scale(28.29)">
<stop offset="0.5143" stop-color="#D6B849"/>
<stop offset="0.6523" stop-color="#FFCE47"/>
<stop offset="1" stop-color="#FFDB73"/>
</radialGradient>
<linearGradient id="paint1_linear_149_1426" x1="20.6851" y1="9.6893" x2="39.3147" y2="31.8912" gradientUnits="userSpaceOnUse">
<stop stop-color="#FFAF22"/>
<stop offset="0.9897" stop-color="#F09900"/>
</linearGradient>
<linearGradient id="paint2_linear_149_1426" x1="47.5" y1="38.5" x2="49.5" y2="71.1" gradientUnits="userSpaceOnUse">
<stop offset="0.484375" stop-color="white" stop-opacity="0"/>
<stop offset="1" stop-color="#B3B2B2"/>
</linearGradient>
<radialGradient id="paint3_radial_149_1426" cx="0" cy="0" r="1" gradientUnits="userSpaceOnUse" gradientTransform="translate(68 41) rotate(75.0686) scale(23.2863 33.7318)">
<stop stop-color="#D5D5D5"/>
<stop offset="1" stop-color="#D0D0D0"/>
<stop offset="1" stop-color="#9B9B9B" stop-opacity="0"/>
</radialGradient>
<clipPath id="clip0_149_1426">
<rect width="13" height="11.6" fill="white" transform="translate(15 78)"/>
</clipPath>
<clipPath id="clip1_149_1426">
<rect width="13" height="11.6" fill="white" transform="translate(66 87)"/>
</clipPath>
</defs>
</svg>
