<svg width="100" height="100" viewBox="0 0 100 100" fill="none" xmlns="http://www.w3.org/2000/svg">
<path fill-rule="evenodd" clip-rule="evenodd" d="M57.7 23C69.4 23 79.4 31.6 81.3 42.9C87.5 44.5 92 50.2 92 56.8C92 64.7 85.5 71.1 77.6 71.1H61.3625C60.9568 70.0514 60.2664 69.2847 59.2 68.8L55.2 67.1L57.4 54.8C57.8 52.9 56.6 51 54.8 50.3C54.4 50.1 54 50 53.6 50C52.2 50 50.8 50.8 50.1 52.1L39.7718 71.1H21.9C18 71.1 14.3 69.6 11.6 66.9C8.7 64.2 7.1 60.5 7 56.4V56.2C7 52.4 8.5 48.8 11.2 46C14 43.1 17.8 41.5 21.9 41.5C22.5 41.5 23 41.5 23.6 41.6C25 37.9 28.6 35.4 32.8 35.4C34 35.4 35.2 35.6 36.4 36.1C40.4 28.1 48.6 23 57.7 23Z" fill="#999999"/>
<g opacity="0.6">
<path fill-rule="evenodd" clip-rule="evenodd" d="M57.7 23C69.4 23 79.4 31.6 81.3 42.9C87.5 44.5 92 50.2 92 56.8C92 64.7 85.5 71.1 77.6 71.1H61.3625C60.9568 70.0514 60.2664 69.2847 59.2 68.8L55.2 67.1L57.4 54.8C57.8 52.9 56.6 51 54.8 50.3C54.4 50.1 54 50 53.6 50C52.2 50 50.8 50.8 50.1 52.1L39.7718 71.1H21.9C18 71.1 14.3 69.6 11.6 66.9C8.7 64.2 7.1 60.5 7 56.4V56.2C7 52.4 8.5 48.8 11.2 46C14 43.1 17.8 41.5 21.9 41.5C22.5 41.5 23 41.5 23.6 41.6C25 37.9 28.6 35.4 32.8 35.4C34 35.4 35.2 35.6 36.4 36.1C40.4 28.1 48.6 23 57.7 23Z" fill="url(#paint0_linear_149_1436)" style="mix-blend-mode:multiply"/>
</g>
<g style="mix-blend-mode:multiply" opacity="0.3" filter="url(#filter0_f_149_1436)">
<path fill-rule="evenodd" clip-rule="evenodd" d="M44.0731 63.1873C37.4845 63.6367 30.4547 64 29.5 64C23 64 18.5 69.1007 18.5 69.1007H40.8586L44.0731 63.1873ZM56.4846 59.9179L57.4 54.8C57.4512 54.5569 57.4762 54.3139 57.4771 54.0733C58.1252 53.834 58.6465 53.6032 58.6465 53.6032C58.6465 53.6032 62.9994 52.0007 63.75 52.0007C64.5006 52.0007 64.1244 49.0375 63.8901 47.1913L63.8901 47.1913L63.75 45.8707C63.75 45.509 63.3022 44.9861 62.7496 44.3407C61.9726 43.4334 60.9884 42.284 60.75 41.0007C60.5753 40.0605 60.7764 38.9193 60.9222 38.0915C61.0132 37.5748 61.0827 37.1802 61.0258 37.033C61.1384 37.0858 61.9481 37.3602 61.9481 37.3602C63.8959 38.0203 66.9771 39.0993 69.75 41.0007C71.4084 42.1378 73.6911 44.3144 73.6911 44.3144C73.6911 44.3144 75.3358 45.5864 75.75 46.0007C76.75 47.0007 79.75 50.0007 81.75 50.0007H86.75L89 51.5907L89.5 54.8007C89.5 62.7007 83 69.1007 75.1 69.1007H59.7581C59.5847 68.9906 59.3989 68.8904 59.2 68.8L55.2 67.1L56.1262 61.9217C56.6816 61.567 56.6884 60.8141 56.4846 59.9179ZM60.99 37.0007C61.0045 36.997 61.0163 37.0084 61.0258 37.033C61.0258 37.033 60.9751 37.0044 60.99 37.0007Z" fill="url(#paint1_radial_149_1436)"/>
</g>
<path fill-rule="evenodd" clip-rule="evenodd" d="M50.8 69.4L53.6 54L43 73.5L50.1 76.5L45.5 94L57.7 72.4L50.8 69.4Z" fill="#FF9D00"/>
<g clip-path="url(#clip0_149_1436)">
<path d="M26.7 82.5H23.9L25.3 80C25.7 79.4 25.5 78.5 24.8 78.2C24.1 77.8 23.3 78 22.9 78.7L21.5 81.1L20.1 78.7C19.7 78 18.9 77.8 18.3 78.2C17.9 78.4 17.7 78.7 17.6 79C17.5 79.3 17.6 79.7 17.7 80L19.1 82.4H16.4C15.6 82.5 15 83.1 15 83.8C15 84.5 15.6 85.2 16.4 85.2H19.2L17.8 87.6C17.6 87.9 17.6 88.3 17.7 88.6C17.8 88.9 18 89.2 18.3 89.4C18.9 89.8 19.8 89.5 20.1 88.9L21.5 86.5L22.9 89C23.1 89.4 23.6 89.7 24.1 89.7C24.3 89.7 24.6 89.6 24.8 89.5C25.4 89.1 25.7 88.3 25.3 87.7L23.9 85.2H26.7C27.4 85.2 28.1 84.6 28.1 83.8C28.1 83 27.4 82.5 26.7 82.5Z" fill="#00B8F1"/>
</g>
<g clip-path="url(#clip1_149_1436)">
<path d="M77.7 91.5H74.9L76.3 89C76.7 88.4 76.5 87.5 75.8 87.2C75.1 86.8 74.3 87 73.9 87.7L72.5 90.1L71.1 87.7C70.7 87 69.9 86.8 69.3 87.2C68.9 87.4 68.7 87.7 68.6 88C68.5 88.3 68.6 88.7 68.7 89L70.1 91.4H67.4C66.6 91.5 66 92.1 66 92.8C66 93.5 66.6 94.2 67.4 94.2H70.2L68.8 96.6C68.6 96.9 68.6 97.3 68.7 97.6C68.8 97.9 69 98.2 69.3 98.4C69.9 98.8 70.8 98.5 71.1 97.9L72.5 95.5L73.9 98C74.1 98.4 74.6 98.7 75.1 98.7C75.3 98.7 75.6 98.6 75.8 98.5C76.4 98.1 76.7 97.3 76.3 96.7L74.9 94.2H77.7C78.4 94.2 79.1 93.6 79.1 92.8C79.1 92 78.4 91.5 77.7 91.5Z" fill="#00B8F1"/>
</g>
<path d="M86.5 92C86.2 92 85.8 91.9 85.5 91.8C84.2 91.2 83.7 89.8 84.2 88.5L87.7 80.5C88.3 79.2 89.7 78.7 91 79.2C92.3 79.8 92.8 81.2 92.3 82.5L88.8 90.5C88.4 91.5 87.5 92 86.5 92Z" fill="#006EDB"/>
<path d="M58.5 92C58.2 92 57.8 91.9 57.5 91.8C56.2 91.2 55.7 89.8 56.2 88.5L59.7 80.5C60.3 79.2 61.7 78.7 63 79.2C64.3 79.8 64.8 81.2 64.3 82.5L60.8 90.5C60.4 91.5 59.5 92 58.5 92Z" fill="#006EDB"/>
<path d="M33.5 99C33.2 99 32.8 98.9 32.5 98.8C31.2 98.2 30.7 96.8 31.2 95.5L34.7 87.5C35.3 86.2 36.7 85.7 38 86.2C39.3 86.8 39.8 88.2 39.3 89.5L35.8 97.5C35.4 98.5 34.5 99 33.5 99Z" fill="#006EDB"/>
<defs>
<filter id="filter0_f_149_1436" x="14.5" y="33" width="79" height="40.1006" filterUnits="userSpaceOnUse" color-interpolation-filters="sRGB">
<feFlood flood-opacity="0" result="BackgroundImageFix"/>
<feBlend mode="normal" in="SourceGraphic" in2="BackgroundImageFix" result="shape"/>
<feGaussianBlur stdDeviation="2" result="effect1_foregroundBlur_149_1436"/>
</filter>
<linearGradient id="paint0_linear_149_1436" x1="47.5" y1="38.5" x2="49.5" y2="71.1" gradientUnits="userSpaceOnUse">
<stop offset="0.484375" stop-color="white" stop-opacity="0"/>
<stop offset="1" stop-color="#B3B2B2"/>
</linearGradient>
<radialGradient id="paint1_radial_149_1436" cx="0" cy="0" r="1" gradientUnits="userSpaceOnUse" gradientTransform="translate(68 41) rotate(75.0686) scale(23.2863 33.7318)">
<stop stop-color="#D5D5D5"/>
<stop offset="1" stop-color="#D0D0D0"/>
<stop offset="1" stop-color="#9B9B9B" stop-opacity="0"/>
</radialGradient>
<clipPath id="clip0_149_1436">
<rect width="13" height="11.6" fill="white" transform="translate(15 78)"/>
</clipPath>
<clipPath id="clip1_149_1436">
<rect width="13" height="11.6" fill="white" transform="translate(66 87)"/>
</clipPath>
</defs>
</svg>
