<svg width="100" height="100" viewBox="0 0 100 100" fill="none" xmlns="http://www.w3.org/2000/svg">
<path fill-rule="evenodd" clip-rule="evenodd" d="M45.3841 20.79C40.8289 22.9449 36.8442 26.2563 33.9 30.4H32.8C27.9 30.4 23.4 32.7 20.7 36.6C19.3206 36.6828 17.9716 36.9025 16.6678 37.253L17.028 33.693L5.50499 34.935L12.336 25.482L1.70999 20.79H45.3841Z" fill="url(#paint0_radial_149_1440)"/>
<path fill-rule="evenodd" clip-rule="evenodd" d="M45.3841 20.79C40.8289 22.9449 36.8442 26.2563 33.9 30.4H32.8C28.2763 30.4 24.0936 32.3603 21.3533 35.7301C18.8012 34.2682 16.5912 32.1393 15.0158 29.421C13.4662 26.7081 12.7365 23.7317 12.7502 20.79H45.3841Z" fill="#FFD348"/>
<path fill-rule="evenodd" clip-rule="evenodd" d="M44.4814 21.236C40.3026 23.3898 36.6481 26.5323 33.9 30.4H32.8C29.2921 30.4 25.9892 31.5788 23.405 33.6795C20.9931 32.4494 18.8964 30.5366 17.4446 28.0335C16.1228 25.7545 15.5012 23.2571 15.5101 20.79H44.4899C44.4893 20.9388 44.4865 21.0875 44.4814 21.236Z" fill="url(#paint1_linear_149_1440)"/>
<path fill-rule="evenodd" clip-rule="evenodd" d="M1.5 18C0.671573 18 0 18.6716 0 19.5C0 20.3284 0.671573 21 1.5 21H44.9495C48.8623 19.0702 53.2143 18 57.7 18C58.0475 18 58.394 18.0064 58.7392 18.019C58.6613 18.0065 58.5814 18 58.5 18H57.7H1.5Z" fill="#21292B"/>
<path fill-rule="evenodd" clip-rule="evenodd" d="M81.3 42.9C79.4 31.6 69.4 23 57.7 23C48.6 23 40.4 28.1 36.4 36.1C35.2 35.6 34 35.4 32.8 35.4C28.6 35.4 25 37.9 23.6 41.6C23 41.5 22.5 41.5 21.9 41.5C17.8 41.5 14 43.1 11.2 46C8.5 48.8 7 52.4 7 56.2V56.4C7.1 60.5 8.7 64.2 11.6 66.9C14.3 69.6 18 71.1 21.9 71.1H77.6C85.5 71.1 92 64.7 92 56.8C92 50.2 87.5 44.5 81.3 42.9Z" fill="#CCCCCC"/>
<g opacity="0.6">
<path fill-rule="evenodd" clip-rule="evenodd" d="M81.3 42.9C79.4 31.6 69.4 23 57.7 23C48.6 23 40.4 28.1 36.4 36.1C35.2 35.6 34 35.4 32.8 35.4C28.6 35.4 25 37.9 23.6 41.6C23 41.5 22.5 41.5 21.9 41.5C17.8 41.5 14 43.1 11.2 46C8.5 48.8 7 52.4 7 56.2V56.4C7.1 60.5 8.7 64.2 11.6 66.9C14.3 69.6 18 71.1 21.9 71.1H77.6C85.5 71.1 92 64.7 92 56.8C92 50.2 87.5 44.5 81.3 42.9Z" fill="url(#paint2_linear_149_1440)" style="mix-blend-mode:multiply"/>
</g>
<g style="mix-blend-mode:multiply" opacity="0.3" filter="url(#filter0_f_149_1440)">
<path d="M29.5 64C31.2867 64 54.3482 62.7276 55.98 62C58.2101 61.0057 53.5895 55.0283 55.98 54.5307C57.0594 54.306 58.6465 53.6032 58.6465 53.6032C58.6465 53.6032 62.9994 52.0007 63.75 52.0007C64.5006 52.0007 64.1244 49.0374 63.8901 47.1913L63.75 45.8707C63.75 45.0007 61.158 43.1968 60.75 41.0007C60.4663 39.4736 61.1738 37.416 61.0258 37.033C61.0258 37.033 60.9751 37.0044 60.99 37.0007C61.0045 36.997 61.0163 37.0084 61.0258 37.033C61.1384 37.0858 61.9481 37.3602 61.9481 37.3602C63.8959 38.0203 66.9771 39.0993 69.75 41.0007C71.4084 42.1378 73.6911 44.3144 73.6911 44.3144C73.6911 44.3144 75.3358 45.5864 75.75 46.0007C76.75 47.0007 79.75 50.0007 81.75 50.0007H86.75L89 51.5907L89.5 54.8007C89.5 62.7007 83 69.1007 75.1 69.1007H18.5C18.5 69.1007 23 64 29.5 64Z" fill="url(#paint3_radial_149_1440)"/>
</g>
<path d="M35.5 99C35.2 99 34.8 98.9 34.5 98.8C33.2 98.2 32.7 96.8 33.2 95.5L36.7 87.5C37.3 86.2 38.7 85.7 40 86.2C41.3 86.8 41.8 88.2 41.3 89.5L37.8 97.5C37.4 98.5 36.5 99 35.5 99Z" fill="#006EDB"/>
<path d="M59.5 90C59.2 90 58.8 89.9 58.5 89.8C57.2 89.2 56.7 87.8 57.2 86.5L60.7 78.5C61.3 77.2 62.7 76.7 64 77.2C65.3 77.8 65.8 79.2 65.3 80.5L61.8 88.5C61.4 89.5 60.5 90 59.5 90Z" fill="#006EDB"/>
<defs>
<filter id="filter0_f_149_1440" x="14.5" y="33" width="79" height="40.1006" filterUnits="userSpaceOnUse" color-interpolation-filters="sRGB">
<feFlood flood-opacity="0" result="BackgroundImageFix"/>
<feBlend mode="normal" in="SourceGraphic" in2="BackgroundImageFix" result="shape"/>
<feGaussianBlur stdDeviation="2" result="effect1_foregroundBlur_149_1440"/>
</filter>
<radialGradient id="paint0_radial_149_1440" cx="0" cy="0" r="1" gradientUnits="userSpaceOnUse" gradientTransform="translate(30 20.79) scale(28.29)">
<stop offset="0.5143" stop-color="#D6B849"/>
<stop offset="0.6523" stop-color="#FFCE47"/>
<stop offset="1" stop-color="#FFDB73"/>
</radialGradient>
<linearGradient id="paint1_linear_149_1440" x1="20.6851" y1="9.6893" x2="39.3147" y2="31.8912" gradientUnits="userSpaceOnUse">
<stop stop-color="#FFAF22"/>
<stop offset="0.9897" stop-color="#F09900"/>
</linearGradient>
<linearGradient id="paint2_linear_149_1440" x1="47.5" y1="38.5" x2="49.5" y2="71.1" gradientUnits="userSpaceOnUse">
<stop offset="0.484375" stop-color="white" stop-opacity="0"/>
<stop offset="1" stop-color="#B3B2B2"/>
</linearGradient>
<radialGradient id="paint3_radial_149_1440" cx="0" cy="0" r="1" gradientUnits="userSpaceOnUse" gradientTransform="translate(68 41) rotate(75.0686) scale(23.2863 33.7318)">
<stop stop-color="#D5D5D5"/>
<stop offset="1" stop-color="#D0D0D0"/>
<stop offset="1" stop-color="#9B9B9B" stop-opacity="0"/>
</radialGradient>
</defs>
</svg>
