<svg width="100" height="100" viewBox="0 0 100 100" fill="none" xmlns="http://www.w3.org/2000/svg">
<path fill-rule="evenodd" clip-rule="evenodd" d="M28.4427 13.5646C28.4427 9.69627 27.3268 6.05115 25.5415 2.92676C35.2069 4.16064 42.7878 11.8375 43.9187 21.5336C39.9745 23.6749 36.524 26.7068 33.9 30.3999H32.8C27.9 30.3999 23.4 32.6999 20.7 36.5999C16.6415 36.8434 12.8466 38.2729 9.68955 40.7278C7.57913 39.0479 5.78488 36.9738 4.41464 34.617C5.30733 34.7658 6.20001 34.8402 7.16708 34.8402C18.9207 34.8402 28.4427 25.3182 28.4427 13.5646Z" fill="url(#paint0_linear_149_1444)"/>
<path fill-rule="evenodd" clip-rule="evenodd" d="M81.3 42.9C79.4 31.6 69.4 23 57.7 23C48.6 23 40.4 28.1 36.4 36.1C35.2 35.6 34 35.4 32.8 35.4C28.6 35.4 25 37.9 23.6 41.6C23 41.5 22.5 41.5 21.9 41.5C17.8 41.5 14 43.1 11.2 46C8.5 48.8 7 52.4 7 56.2V56.4C7.1 60.5 8.7 64.2 11.6 66.9C14.3 69.6 18 71.1 21.9 71.1H77.6C85.5 71.1 92 64.7 92 56.8C92 50.2 87.5 44.5 81.3 42.9Z" fill="#999999"/>
<g opacity="0.6">
<path fill-rule="evenodd" clip-rule="evenodd" d="M81.3 42.9C79.4 31.6 69.4 23 57.7 23C48.6 23 40.4 28.1 36.4 36.1C35.2 35.6 34 35.4 32.8 35.4C28.6 35.4 25 37.9 23.6 41.6C23 41.5 22.5 41.5 21.9 41.5C17.8 41.5 14 43.1 11.2 46C8.5 48.8 7 52.4 7 56.2V56.4C7.1 60.5 8.7 64.2 11.6 66.9C14.3 69.6 18 71.1 21.9 71.1H77.6C85.5 71.1 92 64.7 92 56.8C92 50.2 87.5 44.5 81.3 42.9Z" fill="url(#paint1_linear_149_1444)" style="mix-blend-mode:multiply"/>
</g>
<g style="mix-blend-mode:multiply" opacity="0.3" filter="url(#filter0_f_149_1444)">
<path d="M29.5 64C31.2867 64 54.3482 62.7276 55.98 62C58.2101 61.0057 53.5895 55.0283 55.98 54.5307C57.0594 54.306 58.6465 53.6032 58.6465 53.6032C58.6465 53.6032 62.9994 52.0007 63.75 52.0007C64.5006 52.0007 64.1244 49.0374 63.8901 47.1913L63.75 45.8707C63.75 45.0007 61.158 43.1968 60.75 41.0007C60.4663 39.4736 61.1738 37.416 61.0258 37.033C61.0258 37.033 60.9751 37.0044 60.99 37.0007C61.0045 36.997 61.0163 37.0084 61.0258 37.033C61.1384 37.0858 61.9481 37.3602 61.9481 37.3602C63.8959 38.0203 66.9771 39.0993 69.75 41.0007C71.4084 42.1378 73.6911 44.3144 73.6911 44.3144C73.6911 44.3144 75.3358 45.5864 75.75 46.0007C76.75 47.0007 79.75 50.0007 81.75 50.0007H86.75L89 51.5907L89.5 54.8007C89.5 62.7007 83 69.1007 75.1 69.1007H18.5C18.5 69.1007 23 64 29.5 64Z" fill="url(#paint2_radial_149_1444)"/>
</g>
<path d="M20.2905 90.254L20.3156 90.2656L20.3419 90.2744C20.6557 90.379 21.1176 90.5 21.5 90.5C22.6717 90.5 23.773 89.9047 24.2611 88.6934L27.7581 80.7004L27.7626 80.6901L27.7667 80.6795C28.3547 79.1507 27.7651 77.464 26.2095 76.746L26.1947 76.7392L26.1795 76.7334C24.6507 76.1453 22.964 76.735 22.246 78.2905L22.2459 78.2905L22.2419 78.2996L18.7419 86.2996L18.7374 86.31L18.7333 86.3205C18.1453 87.8494 18.7349 89.5361 20.2905 90.254Z" fill="#006EDB" stroke="white"/>
<path d="M34.2905 99.254L34.3156 99.2656L34.3419 99.2744C34.6557 99.379 35.1176 99.5 35.5 99.5C36.6717 99.5 37.773 98.9047 38.2611 97.6934L41.7581 89.7004L41.7626 89.6901L41.7667 89.6795C42.3547 88.1507 41.7651 86.464 40.2095 85.746L40.1947 85.7392L40.1795 85.7334C38.6507 85.1453 36.964 85.735 36.246 87.2905L36.2459 87.2905L36.2419 87.2996L32.7419 95.2996L32.7374 95.31L32.7333 95.3205C32.1453 96.8494 32.7349 98.5361 34.2905 99.254Z" fill="#006EDB" stroke="white"/>
<path d="M76.2905 99.254L76.3156 99.2656L76.3419 99.2744C76.6557 99.379 77.1176 99.5 77.5 99.5C78.6717 99.5 79.773 98.9047 80.2611 97.6934L83.7581 89.7004L83.7626 89.6901L83.7667 89.6795C84.3547 88.1507 83.7651 86.464 82.2095 85.746L82.1947 85.7392L82.1795 85.7334C80.6507 85.1453 78.964 85.735 78.246 87.2905L78.2459 87.2905L78.2419 87.2996L74.7419 95.2996L74.7374 95.31L74.7333 95.3205C74.1453 96.8494 74.7349 98.5361 76.2905 99.254Z" fill="#006EDB" stroke="white"/>
<path d="M62.2905 90.254L62.3156 90.2656L62.3419 90.2744C62.6557 90.379 63.1176 90.5 63.5 90.5C64.6717 90.5 65.773 89.9047 66.2611 88.6934L69.7581 80.7004L69.7626 80.6901L69.7667 80.6795C70.3547 79.1507 69.7651 77.464 68.2095 76.746L68.1947 76.7392L68.1795 76.7334C66.6507 76.1453 64.964 76.735 64.246 78.2905L64.2459 78.2905L64.2419 78.2996L60.7419 86.2996L60.7374 86.31L60.7333 86.3205C60.1453 87.8494 60.7349 89.5361 62.2905 90.254Z" fill="#006EDB" stroke="white"/>
<path d="M49.2905 90.254L49.3156 90.2656L49.3419 90.2744C49.6557 90.379 50.1176 90.5 50.5 90.5C51.6717 90.5 52.773 89.9047 53.2611 88.6934L56.7581 80.7004L56.7626 80.6901L56.7667 80.6795C57.3547 79.1507 56.7651 77.464 55.2095 76.746L55.1947 76.7392L55.1795 76.7334C53.6507 76.1453 51.964 76.735 51.246 78.2905L51.2459 78.2905L51.2419 78.2996L47.7419 86.2996L47.7374 86.31L47.7333 86.3205C47.1453 87.8494 47.7349 89.5361 49.2905 90.254Z" fill="#006EDB" stroke="white"/>
<defs>
<filter id="filter0_f_149_1444" x="14.5" y="33" width="79" height="40.1006" filterUnits="userSpaceOnUse" color-interpolation-filters="sRGB">
<feFlood flood-opacity="0" result="BackgroundImageFix"/>
<feBlend mode="normal" in="SourceGraphic" in2="BackgroundImageFix" result="shape"/>
<feGaussianBlur stdDeviation="2" result="effect1_foregroundBlur_149_1444"/>
</filter>
<linearGradient id="paint0_linear_149_1444" x1="12.9138" y1="43.4636" x2="40.2563" y2="10.8781" gradientUnits="userSpaceOnUse">
<stop stop-color="#686E73"/>
<stop offset="0.9891" stop-color="#6A7075"/>
</linearGradient>
<linearGradient id="paint1_linear_149_1444" x1="47.5" y1="38.5" x2="49.5" y2="71.1" gradientUnits="userSpaceOnUse">
<stop offset="0.484375" stop-color="white" stop-opacity="0"/>
<stop offset="1" stop-color="#B3B2B2"/>
</linearGradient>
<radialGradient id="paint2_radial_149_1444" cx="0" cy="0" r="1" gradientUnits="userSpaceOnUse" gradientTransform="translate(68 41) rotate(75.0686) scale(23.2863 33.7318)">
<stop stop-color="#D5D5D5"/>
<stop offset="1" stop-color="#D0D0D0"/>
<stop offset="1" stop-color="#9B9B9B" stop-opacity="0"/>
</radialGradient>
</defs>
</svg>
