<svg width="100" height="100" viewBox="0 0 100 100" fill="none" xmlns="http://www.w3.org/2000/svg">
<path fill-rule="evenodd" clip-rule="evenodd" d="M28.4427 13.5646C28.4427 9.69627 27.3268 6.05115 25.5415 2.92676C35.2069 4.16064 42.7878 11.8375 43.9187 21.5336C39.9745 23.6749 36.524 26.7068 33.9 30.3999H32.8C27.9 30.3999 23.4 32.6999 20.7 36.5999C16.6415 36.8434 12.8466 38.2729 9.68955 40.7278C7.57913 39.0479 5.78488 36.9738 4.41464 34.617C5.30733 34.7658 6.20001 34.8402 7.16708 34.8402C18.9207 34.8402 28.4427 25.3182 28.4427 13.5646Z" fill="url(#paint0_linear_149_1453)"/>
<path fill-rule="evenodd" clip-rule="evenodd" d="M81.3 42.9C79.4 31.6 69.4 23 57.7 23C48.6 23 40.4 28.1 36.4 36.1C35.2 35.6 34 35.4 32.8 35.4C28.6 35.4 25 37.9 23.6 41.6C23 41.5 22.5 41.5 21.9 41.5C17.8 41.5 14 43.1 11.2 46C8.5 48.8 7 52.4 7 56.2V56.4C7.1 60.5 8.7 64.2 11.6 66.9C14.3 69.6 18 71.1 21.9 71.1H77.6C85.5 71.1 92 64.7 92 56.8C92 50.2 87.5 44.5 81.3 42.9Z" fill="#CCCCCC"/>
<g opacity="0.6">
<path fill-rule="evenodd" clip-rule="evenodd" d="M81.3 42.9C79.4 31.6 69.4 23 57.7 23C48.6 23 40.4 28.1 36.4 36.1C35.2 35.6 34 35.4 32.8 35.4C28.6 35.4 25 37.9 23.6 41.6C23 41.5 22.5 41.5 21.9 41.5C17.8 41.5 14 43.1 11.2 46C8.5 48.8 7 52.4 7 56.2V56.4C7.1 60.5 8.7 64.2 11.6 66.9C14.3 69.6 18 71.1 21.9 71.1H77.6C85.5 71.1 92 64.7 92 56.8C92 50.2 87.5 44.5 81.3 42.9Z" fill="url(#paint1_linear_149_1453)" style="mix-blend-mode:multiply"/>
</g>
<g style="mix-blend-mode:multiply" opacity="0.3" filter="url(#filter0_f_149_1453)">
<path d="M29.5 64C31.2867 64 54.3482 62.7276 55.98 62C58.2101 61.0057 53.5895 55.0283 55.98 54.5307C57.0594 54.306 58.6465 53.6032 58.6465 53.6032C58.6465 53.6032 62.9994 52.0007 63.75 52.0007C64.5006 52.0007 64.1244 49.0374 63.8901 47.1913L63.75 45.8707C63.75 45.0007 61.158 43.1968 60.75 41.0007C60.4663 39.4736 61.1738 37.416 61.0258 37.033C61.0258 37.033 60.9751 37.0044 60.99 37.0007C61.0045 36.997 61.0163 37.0084 61.0258 37.033C61.1384 37.0858 61.9481 37.3602 61.9481 37.3602C63.8959 38.0203 66.9771 39.0993 69.75 41.0007C71.4084 42.1378 73.6911 44.3144 73.6911 44.3144C73.6911 44.3144 75.3358 45.5864 75.75 46.0007C76.75 47.0007 79.75 50.0007 81.75 50.0007H86.75L89 51.5907L89.5 54.8007C89.5 62.7007 83 69.1007 75.1 69.1007H18.5C18.5 69.1007 23 64 29.5 64Z" fill="url(#paint2_radial_149_1453)"/>
</g>
<g clip-path="url(#clip0_149_1453)">
<path d="M40.7 92.5H37.9L39.3 90C39.7 89.4 39.5 88.5 38.8 88.2C38.1 87.8 37.3 88 36.9 88.7L35.5 91.1L34.1 88.7C33.7 88 32.9 87.8 32.3 88.2C31.9 88.4 31.7 88.7 31.6 89C31.5 89.3 31.6 89.7 31.7 90L33.1 92.4H30.4C29.6 92.5 29 93.1 29 93.8C29 94.5 29.6 95.2 30.4 95.2H33.2L31.8 97.6C31.6 97.9 31.6 98.3 31.7 98.6C31.8 98.9 32 99.2 32.3 99.4C32.9 99.8 33.8 99.5 34.1 98.9L35.5 96.5L36.9 99C37.1 99.4 37.6 99.7 38.1 99.7C38.3 99.7 38.6 99.6 38.8 99.5C39.4 99.1 39.7 98.3 39.3 97.7L37.9 95.2H40.7C41.4 95.2 42.1 94.6 42.1 93.8C42.1 93 41.4 92.5 40.7 92.5Z" fill="#00B8F1"/>
</g>
<g clip-path="url(#clip1_149_1453)">
<path d="M69.7 83.5H66.9L68.3 81C68.7 80.4 68.5 79.5 67.8 79.2C67.1 78.8 66.3 79 65.9 79.7L64.5 82.1L63.1 79.7C62.7 79 61.9 78.8 61.3 79.2C60.9 79.4 60.7 79.7 60.6 80C60.5 80.3 60.6 80.7 60.7 81L62.1 83.4H59.4C58.6 83.5 58 84.1 58 84.8C58 85.5 58.6 86.2 59.4 86.2H62.2L60.8 88.6C60.6 88.9 60.6 89.3 60.7 89.6C60.8 89.9 61 90.2 61.3 90.4C61.9 90.8 62.8 90.5 63.1 89.9L64.5 87.5L65.9 90C66.1 90.4 66.6 90.7 67.1 90.7C67.3 90.7 67.6 90.6 67.8 90.5C68.4 90.1 68.7 89.3 68.3 88.7L66.9 86.2H69.7C70.4 86.2 71.1 85.6 71.1 84.8C71.1 84 70.4 83.5 69.7 83.5Z" fill="#00B8F1"/>
</g>
<defs>
<filter id="filter0_f_149_1453" x="14.5" y="33" width="79" height="40.1006" filterUnits="userSpaceOnUse" color-interpolation-filters="sRGB">
<feFlood flood-opacity="0" result="BackgroundImageFix"/>
<feBlend mode="normal" in="SourceGraphic" in2="BackgroundImageFix" result="shape"/>
<feGaussianBlur stdDeviation="2" result="effect1_foregroundBlur_149_1453"/>
</filter>
<linearGradient id="paint0_linear_149_1453" x1="12.9138" y1="43.4636" x2="40.2563" y2="10.8781" gradientUnits="userSpaceOnUse">
<stop stop-color="#686E73"/>
<stop offset="0.9891" stop-color="#6A7075"/>
</linearGradient>
<linearGradient id="paint1_linear_149_1453" x1="47.5" y1="38.5" x2="49.5" y2="71.1" gradientUnits="userSpaceOnUse">
<stop offset="0.484375" stop-color="white" stop-opacity="0"/>
<stop offset="1" stop-color="#B3B2B2"/>
</linearGradient>
<radialGradient id="paint2_radial_149_1453" cx="0" cy="0" r="1" gradientUnits="userSpaceOnUse" gradientTransform="translate(68 41) rotate(75.0686) scale(23.2863 33.7318)">
<stop stop-color="#D5D5D5"/>
<stop offset="1" stop-color="#D0D0D0"/>
<stop offset="1" stop-color="#9B9B9B" stop-opacity="0"/>
</radialGradient>
<clipPath id="clip0_149_1453">
<rect width="13" height="11.6" fill="white" transform="translate(29 88)"/>
</clipPath>
<clipPath id="clip1_149_1453">
<rect width="13" height="11.6" fill="white" transform="translate(58 79)"/>
</clipPath>
</defs>
</svg>
