<svg width="100" height="100" viewBox="0 0 100 100" fill="none" xmlns="http://www.w3.org/2000/svg">
<path fill-rule="evenodd" clip-rule="evenodd" d="M81.3 42.9C79.4 31.6 69.4 23 57.7 23C48.6 23 40.4 28.1 36.4 36.1C35.2 35.6 34 35.4 32.8 35.4C28.6 35.4 25 37.9 23.6 41.6C23 41.5 22.5 41.5 21.9 41.5C17.8 41.5 14 43.1 11.2 46C8.5 48.8 7 52.4 7 56.2V56.4C7.1 60.5 8.7 64.2 11.6 66.9C14.3 69.6 18 71.1 21.9 71.1H77.6C85.5 71.1 92 64.7 92 56.8C92 50.2 87.5 44.5 81.3 42.9Z" fill="#CCCCCC"/>
<g opacity="0.6">
<path fill-rule="evenodd" clip-rule="evenodd" d="M81.3 42.9C79.4 31.6 69.4 23 57.7 23C48.6 23 40.4 28.1 36.4 36.1C35.2 35.6 34 35.4 32.8 35.4C28.6 35.4 25 37.9 23.6 41.6C23 41.5 22.5 41.5 21.9 41.5C17.8 41.5 14 43.1 11.2 46C8.5 48.8 7 52.4 7 56.2V56.4C7.1 60.5 8.7 64.2 11.6 66.9C14.3 69.6 18 71.1 21.9 71.1H77.6C85.5 71.1 92 64.7 92 56.8C92 50.2 87.5 44.5 81.3 42.9Z" fill="url(#paint0_linear_149_1458)" style="mix-blend-mode:multiply"/>
</g>
<g style="mix-blend-mode:multiply" opacity="0.3" filter="url(#filter0_f_149_1458)">
<path d="M29.5 64C31.2867 64 54.3482 62.7276 55.98 62C58.2101 61.0057 53.5895 55.0283 55.98 54.5307C57.0594 54.306 58.6465 53.6032 58.6465 53.6032C58.6465 53.6032 62.9994 52.0007 63.75 52.0007C64.5006 52.0007 64.1244 49.0374 63.8901 47.1913L63.75 45.8707C63.75 45.0007 61.158 43.1968 60.75 41.0007C60.4663 39.4736 61.1738 37.416 61.0258 37.033C61.0258 37.033 60.9751 37.0044 60.99 37.0007C61.0045 36.997 61.0163 37.0084 61.0258 37.033C61.1384 37.0858 61.9481 37.3602 61.9481 37.3602C63.8959 38.0203 66.9771 39.0993 69.75 41.0007C71.4084 42.1378 73.6911 44.3144 73.6911 44.3144C73.6911 44.3144 75.3358 45.5864 75.75 46.0007C76.75 47.0007 79.75 50.0007 81.75 50.0007H86.75L89 51.5907L89.5 54.8007C89.5 62.7007 83 69.1007 75.1 69.1007H18.5C18.5 69.1007 23 64 29.5 64Z" fill="url(#paint1_radial_149_1458)"/>
</g>
<g clip-path="url(#clip0_149_1458)">
<path d="M40.7 90.5H37.9L39.3 88C39.7 87.4 39.5 86.5 38.8 86.2C38.1 85.8 37.3 86 36.9 86.7L35.5 89.1L34.1 86.7C33.7 86 32.9 85.8 32.3 86.2C31.9 86.4 31.7 86.7 31.6 87C31.5 87.3 31.6 87.7 31.7 88L33.1 90.4H30.4C29.6 90.5 29 91.1 29 91.8C29 92.5 29.6 93.2 30.4 93.2H33.2L31.8 95.6C31.6 95.9 31.6 96.3 31.7 96.6C31.8 96.9 32 97.2 32.3 97.4C32.9 97.8 33.8 97.5 34.1 96.9L35.5 94.5L36.9 97C37.1 97.4 37.6 97.7 38.1 97.7C38.3 97.7 38.6 97.6 38.8 97.5C39.4 97.1 39.7 96.3 39.3 95.7L37.9 93.2H40.7C41.4 93.2 42.1 92.6 42.1 91.8C42.1 91 41.4 90.5 40.7 90.5Z" fill="#00B8F1"/>
</g>
<path d="M62.2905 91.254L62.3156 91.2656L62.3419 91.2744C62.6557 91.379 63.1176 91.5 63.5 91.5C64.6717 91.5 65.773 90.9047 66.2611 89.6934L69.7581 81.7004L69.7626 81.6901L69.7667 81.6795C70.3547 80.1507 69.7651 78.464 68.2095 77.746L68.1947 77.7392L68.1795 77.7334C66.6507 77.1453 64.964 77.735 64.246 79.2905L64.2459 79.2905L64.2419 79.2996L60.7419 87.2996L60.7374 87.31L60.7333 87.3205C60.1453 88.8494 60.7349 90.5361 62.2905 91.254Z" fill="#006EDB" stroke="white"/>
<defs>
<filter id="filter0_f_149_1458" x="14.5" y="33" width="79" height="40.1006" filterUnits="userSpaceOnUse" color-interpolation-filters="sRGB">
<feFlood flood-opacity="0" result="BackgroundImageFix"/>
<feBlend mode="normal" in="SourceGraphic" in2="BackgroundImageFix" result="shape"/>
<feGaussianBlur stdDeviation="2" result="effect1_foregroundBlur_149_1458"/>
</filter>
<linearGradient id="paint0_linear_149_1458" x1="47.5" y1="38.5" x2="49.5" y2="71.1" gradientUnits="userSpaceOnUse">
<stop offset="0.484375" stop-color="white" stop-opacity="0"/>
<stop offset="1" stop-color="#B3B2B2"/>
</linearGradient>
<radialGradient id="paint1_radial_149_1458" cx="0" cy="0" r="1" gradientUnits="userSpaceOnUse" gradientTransform="translate(68 41) rotate(75.0686) scale(23.2863 33.7318)">
<stop stop-color="#D5D5D5"/>
<stop offset="1" stop-color="#D0D0D0"/>
<stop offset="1" stop-color="#9B9B9B" stop-opacity="0"/>
</radialGradient>
<clipPath id="clip0_149_1458">
<rect width="13" height="11.6" fill="white" transform="translate(29 86)"/>
</clipPath>
</defs>
</svg>
