<svg width="24" height="24" viewBox="0 0 24 24" fill="none" xmlns="http://www.w3.org/2000/svg">
<path d="M12.4946 5.43981C12.4128 5.28854 12.5385 5.10477 12.7061 5.14321C15.832 5.86 18.1641 8.66232 18.1641 12.0113C18.1641 15.9031 15.0149 19.0581 11.1302 19.0581C8.77171 19.0581 6.68552 17.8944 5.40957 16.1095C5.30955 15.9696 5.43076 15.7831 5.60185 15.8006C5.83377 15.8242 6.06898 15.8367 6.30706 15.8367C10.1917 15.8367 13.3409 12.6818 13.3409 8.78992C13.3409 7.5769 13.0337 6.43626 12.4946 5.43981Z" fill="#0F245F"/>
<path d="M9 6C9 7.10457 9.89543 8 11 8C9.89543 8 9 8.89543 9 10C9 8.89543 8.10457 8 7 8C8.10457 8 9 7.10457 9 6Z" fill="#163EA4"/>
<path d="M6 11C6 11.5523 6.44772 12 7 12C6.44772 12 6 12.4477 6 13C6 12.4477 5.55228 12 5 12C5.55228 12 6 11.5523 6 11Z" fill="#163EA4"/>
</svg>
