<svg width="24" height="24" viewBox="0 0 24 24" fill="none" xmlns="http://www.w3.org/2000/svg">
<g clip-path="url(#clip0_1607_1010)">
<path d="M18.3398 14.0608C18.1748 13.8357 18.2593 13.5157 18.514 13.4016L20.741 12.4034C21.0874 12.2482 21.086 11.7558 20.7388 11.6024L18.5119 10.6187C18.2577 10.5064 18.1709 10.1888 18.3325 9.96272L19.7543 7.97438C19.9745 7.66648 19.7272 7.24297 19.351 7.28354L16.9341 7.54414C16.6573 7.57399 16.4232 7.34133 16.4512 7.06419L16.6978 4.62622C16.7359 4.24921 16.3102 4.00469 16.004 4.2277L14.0381 5.65926C13.8122 5.82375 13.4922 5.7376 13.3794 5.48193L12.4008 3.26506C12.2471 2.91668 11.7529 2.91668 11.5992 3.26506L10.6199 5.4837C10.5073 5.7388 10.1883 5.82526 9.96237 5.66193L7.97779 4.22729C7.67025 4.00497 7.24482 4.25217 7.28549 4.62955L7.54531 7.04103C7.57515 7.31798 7.34257 7.55217 7.06554 7.52412L4.62847 7.27743C4.2516 7.23928 4.00716 7.66515 4.23009 7.97152L5.6629 9.94054C5.82675 10.1657 5.74188 10.4847 5.4878 10.5985L3.25901 11.5975C2.91263 11.7528 2.91397 12.2452 3.26119 12.3985L5.48563 13.3811C5.74064 13.4938 5.82706 13.8128 5.66379 14.0388L4.22968 16.0242C4.00745 16.3318 4.25455 16.7574 4.63179 16.7167L7.04239 16.4568C7.31924 16.4269 7.55334 16.6596 7.5253 16.9367L7.2787 19.3747C7.24056 19.7517 7.66628 19.9962 7.97253 19.7732L9.94083 18.3399C10.1659 18.176 10.4847 18.2609 10.5986 18.5151L11.5972 20.7447C11.7524 21.0912 12.2446 21.0898 12.3979 20.7425L13.3812 18.5148C13.4935 18.2605 13.811 18.1736 14.037 18.3353L16.0246 19.7577C16.3324 19.9779 16.7557 19.7306 16.7152 19.3542L16.4547 16.9364C16.4249 16.6594 16.6574 16.4252 16.9345 16.4533L19.3669 16.6995C19.7445 16.7377 19.9888 16.3103 19.7644 16.0042L18.3398 14.0608Z" fill="#FFBC04"/>
<path d="M11.5992 3.26506C11.7529 2.91668 12.2471 2.91668 12.4008 3.26506L13.3794 5.48193C13.4922 5.7376 13.8122 5.82375 14.0381 5.65926L16.004 4.2277C16.3102 4.00469 16.7359 4.24921 16.6978 4.62622L16.4512 7.06419C16.4232 7.34133 16.6573 7.57399 16.9341 7.54414L19.351 7.28354C19.7272 7.24297 19.9745 7.66648 19.7543 7.97438L18.3325 9.96272C18.1709 10.1888 18.2577 10.5064 18.5119 10.6187L20.7388 11.6024C21.086 11.7558 21.0874 12.2482 20.741 12.4034L20.2969 12.6014L18.514 13.4016C18.2593 13.5157 18.1748 13.8357 18.3398 14.0608L19.4766 15.6112L19.4102 16.2626L18.8828 16.6493L16.9345 16.4533C16.6574 16.4252 16.4249 16.6594 16.4547 16.9364L16.6621 18.8661L16.2793 19.4003L15.624 19.4706L14.037 18.3353C13.811 18.1736 13.4935 18.2605 13.3812 18.5148L12.3979 20.7425C12.2542 21.0682 11.8124 21.0897 11.6299 20.8055L11.5972 20.7447L10.5986 18.5151C10.4847 18.2609 10.1659 18.176 9.94083 18.3399L7.97253 19.7732L7.91406 19.8094C7.6151 19.9652 7.24309 19.7281 7.2787 19.3747L7.32715 18.8866L7.5253 16.9367C7.55334 16.6596 7.31924 16.4269 7.04239 16.4568L4.63179 16.7167L4.5625 16.7186C4.22551 16.7041 4.02158 16.3125 4.22968 16.0242L4.51367 15.6298L5.66379 14.0388C5.82706 13.8128 5.74064 13.4938 5.48563 13.3811L3.26119 12.3985C2.91397 12.2452 2.91263 11.7528 3.25901 11.5975L3.70215 11.3983L5.4878 10.5985C5.7097 10.4988 5.80264 10.2424 5.71289 10.0292L5.6629 9.94054L4.23009 7.97152C4.00716 7.66515 4.2516 7.23928 4.62847 7.27743L5.11621 7.32604L7.06554 7.52412C7.34257 7.55217 7.57515 7.31798 7.54531 7.04103L7.28549 4.62955C7.24482 4.25217 7.67025 4.00497 7.97779 4.22729L9.96237 5.66193C10.1601 5.80484 10.4288 5.75637 10.5684 5.57116L10.6199 5.4837L11.5992 3.26506ZM16.7152 19.3542C16.7531 19.7068 16.3838 19.9462 16.084 19.7938L16.0246 19.7577L15.624 19.4706L16.2793 19.4003L16.6621 18.8661L16.7152 19.3542ZM11.9922 6.08971C11.4943 7.21734 10.0836 7.60009 9.08398 6.8778L9.03223 6.84069L9.03711 6.88073C9.1687 8.10451 8.14001 9.14057 6.91406 9.01647L6.83984 9.00866L6.87598 9.05749C7.60026 10.0528 7.22542 11.4639 6.10156 11.9676L6.0498 11.9901L6.0918 12.0087C7.21973 12.5069 7.60133 13.9178 6.87988 14.9169L6.84082 14.9696L6.88184 14.9657L7.1084 14.954C8.23142 14.9625 9.13374 15.9394 9.01758 17.0878L9.00977 17.162L9.05762 17.1278L9.24902 17.0038C10.1614 16.4885 11.3282 16.7996 11.8633 17.7001L11.9678 17.9022L11.9893 17.951L12.0088 17.909C12.4741 16.8549 13.7376 16.4509 14.7178 16.994L14.9102 17.1151L14.9688 17.1571L14.9629 17.0975C14.8393 15.95 15.7356 14.967 16.8584 14.951L17.0859 14.9608L17.1426 14.9657L17.1299 14.9481C16.4005 13.9531 16.774 12.538 17.9004 12.0331L17.9502 12.0106L17.9062 11.9911C16.7818 11.4944 16.3979 10.0901 17.1123 9.09069L17.1562 9.02819L17.0947 9.03503C15.8695 9.16706 14.8351 8.13772 14.959 6.91296L14.9658 6.83874L14.9209 6.87194C13.9215 7.59957 12.5058 7.21817 12.0068 6.08776L11.999 6.07214L11.9922 6.08971ZM19.7644 16.0042C19.9747 16.2911 19.7734 16.6841 19.4365 16.701L19.3669 16.6995L18.8828 16.6493L19.4102 16.2626L19.4766 15.6112L19.7644 16.0042Z" fill="#EB7500"/>
<circle opacity="0.6" cx="12" cy="12.0038" r="4" fill="url(#paint0_linear_1607_1010)"/>
</g>
<path d="M16.2081 10.5C17.1547 10.5002 17.9697 11.0684 18.3291 11.8848L18.4961 12.2646L18.8995 12.1709C19.0695 12.1313 19.2468 12.1094 19.4278 12.1094C20.7072 12.1096 21.744 13.1473 21.7442 14.4268C21.7442 15.5834 20.8964 16.5417 19.7881 16.7148L13.2803 16.7402C12.2743 16.6834 11.4756 15.8496 11.4756 14.8291C11.4759 13.7718 12.3333 12.915 13.3907 12.915C13.408 12.915 13.4071 12.915 13.4131 12.915L13.8516 12.9199L13.9141 12.4854C14.0748 11.363 15.0411 10.5 16.2081 10.5Z" fill="#ECF3F6" stroke="#729AAA" stroke-miterlimit="2.13005"/>
<g opacity="0.2" filter="url(#filter0_f_1607_1010)" style="mix-blend-mode:multiply">
<path d="M21.1115 14.201C20.9125 14.111 20.5662 14.201 20.5662 14.201C20.0851 14.201 19.8743 12.8363 19.2576 13.0344C18.9399 13.1364 18.6117 13.2746 18.6033 13.6657C18.5976 13.9317 18.7341 14.1917 18.6033 14.4603C18.429 14.8183 18.036 14.67 17.756 14.7883C18.2428 16.4684 16.6647 14.4072 15.0262 16.6176L19.9362 16.6403C20.2089 16.7272 21.572 16.3163 21.572 14.7883C21.443 14.5598 21.358 14.3126 21.1115 14.201Z" fill="#BBCBD3"/>
</g>
<defs>
<filter id="filter0_f_1607_1010" x="14.0262" y="12.0147" width="8.54584" height="5.63657" filterUnits="userSpaceOnUse" color-interpolation-filters="sRGB">
<feFlood flood-opacity="0" result="BackgroundImageFix"/>
<feBlend mode="normal" in="SourceGraphic" in2="BackgroundImageFix" result="shape"/>
<feGaussianBlur stdDeviation="0.5" result="effect1_foregroundBlur_1607_1010"/>
</filter>
<linearGradient id="paint0_linear_1607_1010" x1="9.54657" y1="8.94681" x2="14.6536" y2="15.4839" gradientUnits="userSpaceOnUse">
<stop stop-color="#FFAF22"/>
<stop offset="0.9897" stop-color="#F09900"/>
</linearGradient>
<clipPath id="clip0_1607_1010">
<rect width="24" height="24" fill="white"/>
</clipPath>
</defs>
</svg>
