<svg width="24" height="24" viewBox="0 0 24 24" fill="none" xmlns="http://www.w3.org/2000/svg">
<g clip-path="url(#clip0_2558_8062)">
<path d="M5.2582 1.30757C5.19564 1.18498 5.29666 1.03824 5.43002 1.07227C7.17694 1.51807 8.46875 3.1016 8.46875 4.98739C8.46875 7.21921 6.6595 9.02846 4.42769 9.02846C3.10862 9.02846 1.93782 8.39604 1.20038 7.41826C1.11751 7.30837 1.21376 7.15869 1.35098 7.16927C1.45188 7.17706 1.55381 7.18111 1.65667 7.18111C3.88849 7.18111 5.69774 5.37187 5.69774 3.14005C5.69774 2.48015 5.53891 1.85761 5.2582 1.30757Z" fill="#5C7985"/>
</g>
<mask id="path-2-outside-1_2558_8062" maskUnits="userSpaceOnUse" x="1.00018" y="3" width="22" height="15" fill="black">
<rect fill="white" x="1.00018" y="3" width="22" height="15"/>
<path d="M11.5002 5C13.1247 5 14.5479 5.86098 15.3391 7.15137C15.7095 7.05271 16.0987 7 16.5002 7C18.9855 7 21.0002 9.01472 21.0002 11.5C21.0002 13.9853 18.9855 16 16.5002 16C15.974 16 15.4695 15.9081 15.0002 15.7422V16H8.00018V15.6631C7.54552 15.8791 7.03704 16 6.50018 16C4.56719 16 3.00018 14.433 3.00018 12.5C3.00032 10.5671 4.56727 9 6.50018 9C6.67807 9 6.85287 9.01346 7.02362 9.03906C7.25446 6.77032 9.17052 5 11.5002 5Z"/>
</mask>
<path d="M11.5002 5C13.1247 5 14.5479 5.86098 15.3391 7.15137C15.7095 7.05271 16.0987 7 16.5002 7C18.9855 7 21.0002 9.01472 21.0002 11.5C21.0002 13.9853 18.9855 16 16.5002 16C15.974 16 15.4695 15.9081 15.0002 15.7422V16H8.00018V15.6631C7.54552 15.8791 7.03704 16 6.50018 16C4.56719 16 3.00018 14.433 3.00018 12.5C3.00032 10.5671 4.56727 9 6.50018 9C6.67807 9 6.85287 9.01346 7.02362 9.03906C7.25446 6.77032 9.17052 5 11.5002 5Z" fill="#7D99A4"/>
<path d="M15.3391 7.15137L14.2734 7.80473L14.7604 8.59905L15.6607 8.35926L15.3391 7.15137ZM15.0002 15.7422L15.4169 14.5637L13.7502 13.9743V15.7422H15.0002ZM15.0002 16V17.25H16.2502V16H15.0002ZM8.00018 16H6.75018V17.25H8.00018V16ZM8.00018 15.6631H9.25018V13.6853L7.46377 14.534L8.00018 15.6631ZM3.00018 12.5L1.75018 12.4999V12.5H3.00018ZM7.02362 9.03906L6.83825 10.2752L8.13452 10.4696L8.2672 9.16559L7.02362 9.03906ZM11.5002 5V6.25C12.6718 6.25 13.6999 6.86938 14.2734 7.80473L15.3391 7.15137L16.4047 6.498C15.3959 4.85259 13.5776 3.75 11.5002 3.75V5ZM15.3391 7.15137L15.6607 8.35926C15.9274 8.28824 16.2085 8.25 16.5002 8.25V7V5.75C15.9888 5.75 15.4915 5.81719 15.0174 5.94347L15.3391 7.15137ZM16.5002 7V8.25C18.2951 8.25 19.7502 9.70507 19.7502 11.5H21.0002H22.2502C22.2502 8.32436 19.6758 5.75 16.5002 5.75V7ZM21.0002 11.5H19.7502C19.7502 13.2949 18.2951 14.75 16.5002 14.75V16V17.25C19.6758 17.25 22.2502 14.6756 22.2502 11.5H21.0002ZM16.5002 16V14.75C16.1206 14.75 15.7568 14.6839 15.4169 14.5637L15.0002 15.7422L14.5835 16.9207C15.1822 17.1324 15.8274 17.25 16.5002 17.25V16ZM15.0002 15.7422H13.7502V16H15.0002H16.2502V15.7422H15.0002ZM15.0002 16V14.75H8.00018V16V17.25H15.0002V16ZM8.00018 16H9.25018V15.6631H8.00018H6.75018V16H8.00018ZM8.00018 15.6631L7.46377 14.534C7.17308 14.6721 6.84748 14.75 6.50018 14.75V16V17.25C7.22659 17.25 7.91796 17.0861 8.5366 16.7921L8.00018 15.6631ZM6.50018 16V14.75C5.25754 14.75 4.25018 13.7426 4.25018 12.5H3.00018H1.75018C1.75018 15.1234 3.87683 17.25 6.50018 17.25V16ZM3.00018 12.5L4.25018 12.5001C4.25027 11.2574 5.25772 10.25 6.50018 10.25V9V7.75C3.87683 7.75 1.75037 9.87684 1.75018 12.4999L3.00018 12.5ZM6.50018 9V10.25C6.61494 10.25 6.72778 10.2587 6.83825 10.2752L7.02362 9.03906L7.20899 7.80288C6.97796 7.76824 6.7412 7.75 6.50018 7.75V9ZM7.02362 9.03906L8.2672 9.16559C8.43378 7.52834 9.81847 6.25 11.5002 6.25V5V3.75C8.52258 3.75 6.07513 6.01229 5.78004 8.91253L7.02362 9.03906Z" fill="white" mask="url(#path-2-outside-1_2558_8062)"/>
<mask id="path-4-inside-2_2558_8062" fill="white">
<path d="M11.5002 5C13.1247 5 14.5479 5.86098 15.3391 7.15137C15.7095 7.05271 16.0987 7 16.5002 7C18.9855 7 21.0002 9.01472 21.0002 11.5C21.0002 13.8162 19.2501 15.7219 17.0002 15.9707V16H6.50018C4.56719 16 3.00018 14.433 3.00018 12.5C3.00032 10.5671 4.56727 9 6.50018 9C6.67807 9 6.85287 9.01346 7.02362 9.03906C7.25446 6.77032 9.17052 5 11.5002 5Z"/>
</mask>
<path d="M11.5002 5C13.1247 5 14.5479 5.86098 15.3391 7.15137C15.7095 7.05271 16.0987 7 16.5002 7C18.9855 7 21.0002 9.01472 21.0002 11.5C21.0002 13.8162 19.2501 15.7219 17.0002 15.9707V16H6.50018C4.56719 16 3.00018 14.433 3.00018 12.5C3.00032 10.5671 4.56727 9 6.50018 9C6.67807 9 6.85287 9.01346 7.02362 9.03906C7.25446 6.77032 9.17052 5 11.5002 5Z" fill="#A0B2B9"/>
<path d="M15.3391 7.15137L14.2734 7.80473L14.7604 8.59905L15.6607 8.35926L15.3391 7.15137ZM17.0002 15.9707L16.8628 14.7283L15.7502 14.8513V15.9707H17.0002ZM17.0002 16V17.25H18.2502V16H17.0002ZM3.00018 12.5L1.75018 12.4999V12.5H3.00018ZM7.02362 9.03906L6.83825 10.2752L8.13452 10.4696L8.2672 9.16559L7.02362 9.03906ZM11.5002 5V6.25C12.6718 6.25 13.6999 6.86938 14.2734 7.80473L15.3391 7.15137L16.4047 6.498C15.3959 4.85259 13.5776 3.75 11.5002 3.75V5ZM15.3391 7.15137L15.6607 8.35926C15.9274 8.28824 16.2085 8.25 16.5002 8.25V7V5.75C15.9888 5.75 15.4915 5.81719 15.0174 5.94347L15.3391 7.15137ZM16.5002 7V8.25C18.2951 8.25 19.7502 9.70507 19.7502 11.5H21.0002H22.2502C22.2502 8.32436 19.6758 5.75 16.5002 5.75V7ZM21.0002 11.5H19.7502C19.7502 13.1713 18.4871 14.5486 16.8628 14.7283L17.0002 15.9707L17.1376 17.2131C20.013 16.8951 22.2502 14.4611 22.2502 11.5H21.0002ZM17.0002 15.9707H15.7502V16H17.0002H18.2502V15.9707H17.0002ZM17.0002 16V14.75H6.50018V16V17.25H17.0002V16ZM6.50018 16V14.75C5.25754 14.75 4.25018 13.7426 4.25018 12.5H3.00018H1.75018C1.75018 15.1234 3.87683 17.25 6.50018 17.25V16ZM3.00018 12.5L4.25018 12.5001C4.25027 11.2574 5.25772 10.25 6.50018 10.25V9V7.75C3.87683 7.75 1.75037 9.87684 1.75018 12.4999L3.00018 12.5ZM6.50018 9V10.25C6.61494 10.25 6.72778 10.2587 6.83825 10.2752L7.02362 9.03906L7.20899 7.80288C6.97796 7.76824 6.7412 7.75 6.50018 7.75V9ZM7.02362 9.03906L8.2672 9.16559C8.43378 7.52834 9.81847 6.25 11.5002 6.25V5V3.75C8.52258 3.75 6.07513 6.01229 5.78004 8.91253L7.02362 9.03906Z" fill="#7D99A4" mask="url(#path-4-inside-2_2558_8062)"/>
<g clip-path="url(#clip1_2558_8062)">
<path d="M7.5 18L6 21" stroke="#298BCD" stroke-width="1.5" stroke-linecap="round"/>
</g>
<g clip-path="url(#clip2_2558_8062)">
<path d="M12.5 18L11 21" stroke="#298BCD" stroke-width="1.5" stroke-linecap="round"/>
</g>
<g clip-path="url(#clip3_2558_8062)">
<path d="M17.5 18L16 21" stroke="#298BCD" stroke-width="1.5" stroke-linecap="round"/>
</g>
<defs>
<clipPath id="clip0_2558_8062">
<rect width="8" height="8" fill="white" transform="translate(1 1)"/>
</clipPath>
<clipPath id="clip1_2558_8062">
<rect width="4" height="5" fill="white" transform="matrix(1 0 0 -1 5 22)"/>
</clipPath>
<clipPath id="clip2_2558_8062">
<rect width="4" height="5" fill="white" transform="matrix(1 0 0 -1 10 22)"/>
</clipPath>
<clipPath id="clip3_2558_8062">
<rect width="4" height="5" fill="white" transform="matrix(1 0 0 -1 15 22)"/>
</clipPath>
</defs>
</svg>
