<svg width="100" height="100" viewBox="0 0 100 100" fill="none" xmlns="http://www.w3.org/2000/svg">
<g clip-path="url(#clip0_2550_9323)">
<path fill-rule="evenodd" clip-rule="evenodd" d="M45.3841 20.79C40.8289 22.9449 36.8442 26.2563 33.9 30.4H32.8C27.9 30.4 23.4 32.7 20.7 36.6C19.3206 36.6828 17.9716 36.9025 16.6678 37.253L17.028 33.693L5.505 34.935L12.336 25.482L1.71 20.79H45.3841Z" fill="url(#paint0_radial_2550_9323)"/>
<path fill-rule="evenodd" clip-rule="evenodd" d="M45.3841 20.79C40.8289 22.9449 36.8442 26.2563 33.9 30.4H32.8C28.2763 30.4 24.0936 32.3603 21.3533 35.7301C18.8012 34.2682 16.5912 32.1393 15.0158 29.421C13.4662 26.7081 12.7365 23.7317 12.7502 20.79H45.3841Z" fill="#FFD348"/>
<path fill-rule="evenodd" clip-rule="evenodd" d="M44.4814 21.236C40.3026 23.3898 36.6481 26.5323 33.9 30.4H32.8C29.2921 30.4 25.9892 31.5788 23.405 33.6795C20.993 32.4494 18.8964 30.5366 17.4446 28.0335C16.1228 25.7545 15.5012 23.2571 15.5101 20.79H44.4898C44.4893 20.9388 44.4865 21.0875 44.4814 21.236Z" fill="url(#paint1_linear_2550_9323)"/>
<path fill-rule="evenodd" clip-rule="evenodd" d="M1.5 18C0.671573 18 0 18.6716 0 19.5C0 20.3284 0.671573 21 1.5 21H44.9495C48.8623 19.0702 53.2143 18 57.7 18C58.0475 18 58.394 18.0064 58.7392 18.019C58.6613 18.0065 58.5814 18 58.5 18H57.7H1.5Z" fill="#21292B"/>
<path fill-rule="evenodd" clip-rule="evenodd" d="M81.3 42.9C79.4 31.6 69.4 23 57.7 23C48.6 23 40.4 28.1 36.4 36.1C35.2 35.6 34 35.4 32.8 35.4C28.6 35.4 25 37.9 23.6 41.6C23 41.5 22.5 41.5 21.9 41.5C17.8 41.5 14 43.1 11.2 46C8.5 48.8 7 52.4 7 56.2V56.4C7.1 60.5 8.7 64.2 11.6 66.9C14.3 69.6 18 71.1 21.9 71.1H77.6C85.5 71.1 92 64.7 92 56.8C92 50.2 87.5 44.5 81.3 42.9Z" fill="#B2B2B2"/>
<g opacity="0.6">
<path fill-rule="evenodd" clip-rule="evenodd" d="M81.3 42.9C79.4 31.6 69.4 23 57.7 23C48.6 23 40.4 28.1 36.4 36.1C35.2 35.6 34 35.4 32.8 35.4C28.6 35.4 25 37.9 23.6 41.6C23 41.5 22.5 41.5 21.9 41.5C17.8 41.5 14 43.1 11.2 46C8.5 48.8 7 52.4 7 56.2V56.4C7.1 60.5 8.7 64.2 11.6 66.9C14.3 69.6 18 71.1 21.9 71.1H77.6C85.5 71.1 92 64.7 92 56.8C92 50.2 87.5 44.5 81.3 42.9Z" fill="url(#paint2_linear_2550_9323)" style="mix-blend-mode:multiply"/>
</g>
<g opacity="0.3" filter="url(#filter0_f_2550_9323)" style="mix-blend-mode:multiply">
<path d="M29.5 64C31.2867 64 54.3482 62.7276 55.98 62C58.2101 61.0057 53.5895 55.0283 55.98 54.5307C57.0594 54.306 58.6465 53.6032 58.6465 53.6032C58.6465 53.6032 62.9994 52.0007 63.75 52.0007C64.5006 52.0007 64.1244 49.0374 63.8901 47.1913L63.75 45.8707C63.75 45.0007 61.158 43.1968 60.75 41.0007C60.4663 39.4736 61.1738 37.416 61.0258 37.033C61.0258 37.033 60.9751 37.0044 60.99 37.0007C61.0045 36.997 61.0163 37.0084 61.0258 37.033C61.1384 37.0858 61.9481 37.3602 61.9481 37.3602C63.8959 38.0203 66.9771 39.0993 69.75 41.0007C71.4084 42.1378 73.6911 44.3144 73.6911 44.3144C73.6911 44.3144 75.3358 45.5864 75.75 46.0007C76.75 47.0007 79.75 50.0007 81.75 50.0007H86.75L89 51.5907L89.5 54.8007C89.5 62.7007 83 69.1007 75.1 69.1007H18.5C18.5 69.1007 23 64 29.5 64Z" fill="#B6B6B6"/>
</g>
<path d="M40.8 83.6553H38.2154L39.5077 81.0691C39.8769 80.4484 39.6923 79.5173 39.0462 79.207C38.4 78.7932 37.6615 79.0001 37.2923 79.7242L36 82.207L34.7077 79.7242C34.3385 79.0001 33.6 78.7932 33.0462 79.207C32.6769 79.4139 32.4923 79.7242 32.4 80.0346C32.3077 80.3449 32.4 80.7587 32.4923 81.0691L33.7846 83.5518H31.2923C30.5538 83.6553 30 84.276 30 85.0001C30 85.7242 30.5538 86.4484 31.2923 86.4484H33.8769L32.5846 88.9311C32.4 89.2415 32.4 89.6553 32.4923 89.9656C32.5846 90.276 32.7692 90.5863 33.0462 90.7932C33.6 91.207 34.4308 90.8966 34.7077 90.276L36 87.7932L37.2923 90.3794C37.4769 90.7932 37.9385 91.1035 38.4 91.1035C38.5846 91.1035 38.8615 91.0001 39.0462 90.8966C39.6 90.4829 39.8769 89.6553 39.5077 89.0346L38.2154 86.4484H40.8C41.4462 86.4484 42.0923 85.8277 42.0923 85.0001C42.0923 84.1725 41.4462 83.6553 40.8 83.6553Z" fill="#00B8F1"/>
<path d="M68.8 83.6553H66.2154L67.5077 81.0691C67.8769 80.4484 67.6923 79.5173 67.0462 79.207C66.4 78.7932 65.6615 79.0001 65.2923 79.7242L64 82.207L62.7077 79.7242C62.3385 79.0001 61.6 78.7932 61.0462 79.207C60.6769 79.4139 60.4923 79.7242 60.4 80.0346C60.3077 80.3449 60.4 80.7587 60.4923 81.0691L61.7846 83.5518H59.2923C58.5538 83.6553 58 84.276 58 85.0001C58 85.7242 58.5538 86.4484 59.2923 86.4484H61.8769L60.5846 88.9311C60.4 89.2415 60.4 89.6553 60.4923 89.9656C60.5846 90.276 60.7692 90.5863 61.0462 90.7932C61.6 91.207 62.4308 90.8966 62.7077 90.276L64 87.7932L65.2923 90.3794C65.4769 90.7932 65.9385 91.1035 66.4 91.1035C66.5846 91.1035 66.8615 91.0001 67.0462 90.8966C67.6 90.4829 67.8769 89.6553 67.5077 89.0346L66.2154 86.4484H68.8C69.4462 86.4484 70.0923 85.8277 70.0923 85.0001C70.0923 84.1725 69.4462 83.6553 68.8 83.6553Z" fill="#00B8F1"/>
<path d="M54.8 92.6553H52.2154L53.5077 90.0691C53.8769 89.4484 53.6923 88.5173 53.0462 88.207C52.4 87.7932 51.6615 88.0001 51.2923 88.7242L50 91.207L48.7077 88.7242C48.3385 88.0001 47.6 87.7932 47.0462 88.207C46.6769 88.4139 46.4923 88.7242 46.4 89.0346C46.3077 89.3449 46.4 89.7587 46.4923 90.0691L47.7846 92.5518H45.2923C44.5538 92.6553 44 93.276 44 94.0001C44 94.7242 44.5538 95.4484 45.2923 95.4484H47.8769L46.5846 97.9311C46.4 98.2415 46.4 98.6553 46.4923 98.9656C46.5846 99.276 46.7692 99.5863 47.0462 99.7932C47.6 100.207 48.4308 99.8966 48.7077 99.276L50 96.7932L51.2923 99.3794C51.4769 99.7932 51.9385 100.104 52.4 100.104C52.5846 100.104 52.8615 100 53.0462 99.8966C53.6 99.4829 53.8769 98.6553 53.5077 98.0346L52.2154 95.4484H54.8C55.4462 95.4484 56.0923 94.8277 56.0923 94.0001C56.0923 93.1725 55.4462 92.6553 54.8 92.6553Z" fill="#00B8F1"/>
</g>
<defs>
<filter id="filter0_f_2550_9323" x="11.5" y="30" width="85" height="46.1007" filterUnits="userSpaceOnUse" color-interpolation-filters="sRGB">
<feFlood flood-opacity="0" result="BackgroundImageFix"/>
<feBlend mode="normal" in="SourceGraphic" in2="BackgroundImageFix" result="shape"/>
<feGaussianBlur stdDeviation="3.5" result="effect1_foregroundBlur_2550_9323"/>
</filter>
<radialGradient id="paint0_radial_2550_9323" cx="0" cy="0" r="1" gradientUnits="userSpaceOnUse" gradientTransform="translate(30 20.79) scale(28.29)">
<stop offset="0.5143" stop-color="#D6B849"/>
<stop offset="0.6523" stop-color="#FFCE47"/>
<stop offset="1" stop-color="#FFDB73"/>
</radialGradient>
<linearGradient id="paint1_linear_2550_9323" x1="20.6851" y1="9.6893" x2="39.3147" y2="31.8912" gradientUnits="userSpaceOnUse">
<stop stop-color="#FFAF22"/>
<stop offset="0.9897" stop-color="#F09900"/>
</linearGradient>
<linearGradient id="paint2_linear_2550_9323" x1="47.5" y1="38.5" x2="49.5" y2="71.1" gradientUnits="userSpaceOnUse">
<stop offset="0.484375" stop-color="white" stop-opacity="0"/>
<stop offset="1" stop-color="#B3B2B2"/>
</linearGradient>
<clipPath id="clip0_2550_9323">
<rect width="100" height="100" fill="white"/>
</clipPath>
</defs>
</svg>
