<svg xmlns="http://www.w3.org/2000/svg" xmlns:xlink="http://www.w3.org/1999/xlink" width="130" height="130"><defs><symbol id="b" data-name="sun-shadow 2" viewBox="0 0 154.56 154.56"><g opacity=".6" filter="url(#a)"><g fill="#e6e6e6"><path d="M78.21 76l14.46-6.51L78.21 63l9.27-12.86-15.75 1.68L73.33 36l-12.81 9.35L54 30.89l-6.42 14.47-12.87-9.27 1.66 15.74-15.77-1.59 9.31 12.81-14.46 6.5L29.91 76l-9.27 12.85 15.75-1.66-1.6 15.81 12.81-9.34 6.51 14.46 6.43-14.47 12.87 9.27-1.66-15.74 15.77 1.59z"/><path d="M78.21 76l14.46-6.51L78.21 63l9.27-12.86-15.75 1.68L73.33 36l-12.81 9.35L54 30.89l-6.42 14.47-12.87-9.27 1.66 15.74-15.77-1.59 9.31 12.81-14.46 6.5L29.91 76l-9.27 12.85 15.75-1.66-1.6 15.81 12.81-9.34 6.51 14.46 6.43-14.47 12.87 9.27-1.66-15.74 15.77 1.59z"/></g></g></symbol><symbol id="e" data-name="sun" viewBox="0 0 154.56 154.56"><use width="154.56" height="154.56" xlink:href="#b"/><path d="M79.85 76.46l15.36-6.91-15.36-6.83 9.84-13.66L73 50.82l1.7-16.75L61.07 44l-6.91-15.4L47.33 44l-13.66-9.88 1.76 16.72-16.75-1.7 9.88 13.6-15.35 6.91 15.36 6.83-9.84 13.66 16.72-1.76-1.7 16.75 13.6-9.89 6.91 15.36 6.83-15.36 13.66 9.84L73 88.36l16.75 1.7z" fill="url(#c)"/><path d="M32.49 82.1a25 25 0 109.15-34.16 25 25 0 00-9.15 34.16z" fill="#ffd348"/><path data-name="path-2" d="M36 80.1a21 21 0 107.69-28.69A21 21 0 0036 80.1z" fill="url(#d)"/><path d="M79.85 76.46l15.36-6.91-15.36-6.83 9.84-13.66L73 50.82l1.7-16.75L61.07 44l-6.91-15.4L47.33 44l-13.66-9.88 1.76 16.72-16.75-1.7 9.88 13.6-15.35 6.91 15.36 6.83-9.84 13.66 16.72-1.76-1.7 16.75 13.6-9.89 6.91 15.36 6.83-15.36 13.66 9.84L73 88.36l16.75 1.7z" fill="none" stroke="#f29b1c" stroke-miterlimit="10" stroke-width="2"/></symbol><radialGradient id="c" cx="54.21" cy="69.6" r="41" gradientUnits="userSpaceOnUse"><stop offset=".51" stop-color="#d6b849"/><stop offset=".65" stop-color="#ffce47"/><stop offset="1" stop-color="#ffdb73"/></radialGradient><linearGradient id="d" x1="40.64" y1="53.51" x2="67.65" y2="85.69" gradientUnits="userSpaceOnUse"><stop offset="0" stop-color="#ffaf22"/><stop offset=".99" stop-color="#f09900"/></linearGradient><filter id="a" x="-20" y="-40" width="200" height="200" filterUnits="userSpaceOnUse"><feGaussianBlur result="blur" stdDeviation="10" in="SourceAlpha"/><feOffset result="offsetBlur" dy="7" in="blur"/><feSpecularLighting result="specOut" surfaceScale="5" specularExponent="10" in="blur"><fePointLight x="-5000" y="-10000" z="-20000"/></feSpecularLighting><feComposite result="specOut" operator="in" in="specOut" in2="SourceAlpha"/><feComposite result="litPaint" operator="arithmetic" k2="1" k3="1" in="SourceGraphic" in2="specOut"/><feMerge><feMergeNode in="offsetBlur"/><feMergeNode in="litPaint"/></feMerge></filter></defs><use width="154.56" height="154.56" transform="translate(10.86 -4.6)" xlink:href="#e"/></svg>