<?xml version="1.0" encoding="utf-8"?>
<svg id="symbolPrimitiveDefs" xmlns="http://www.w3.org/2000/svg" xmlns:xlink="http://www.w3.org/1999/xlink">
	<defs>
		<linearGradient id="sun-grad" x1="0%" y1="0%" x2="100%" y2="100%">
			<stop offset="0%" style="stop-color:#FFAF22;stop-opacity:1" />
			<stop offset="100%" style="stop-color:#F09900;stop-opacity:1" />
		</linearGradient>
		<linearGradient id="moon-grad" x1="0%" y1="10%" x2="100%" y2="0%">
			<stop offset="0%" style="stop-color:#D1A24F;stop-opacity:1" />
			<stop offset="100%" style="stop-color:#DBB700;stop-opacity:1" />
		</linearGradient>
		<filter id="sun-shadow" width="150%" height="150%">
			<feOffset result="offOut" in="SourceAlpha" dx="0" dy="0"/>
			<feGaussianBlur result = "blurOut" in="offOut" stdDeviation = "5"/>
			<feBlend in="SourceGraphic" in2="blurOut" mode="normal"/>
			<feComponentTransfer>
		    <feFuncA type="linear" slope="0.2"/>
		  </feComponentTransfer>
		  <feMerge>
		    <feMergeNode/>
		    <feMergeNode in="SourceGraphic"/>
		  </feMerge>
		</filter>
	</defs>
	<symbol id="cloud">
		<path class="cls-1" d="M81.37,43.81a23.92,23.92,0,0,0-44.89-6.87A9.9,9.9,0,0,0,23.69,42.5,15,15,0,0,0,22,42.4,14.81,14.81,0,0,0,11.3,46.88,14.63,14.63,0,0,0,7.1,57.06v.21A14.83,14.83,0,0,0,22,71.94H77.7a14.3,14.3,0,0,0,3.67-28.14Z" transform="translate(-2.1 -18.89)"/><path class="cloud-outline" d="M85.65,40A28.93,28.93,0,0,0,34,31.31q-.57,0-1.14,0a14.78,14.78,0,0,0-12.1,6.17A19.82,19.82,0,0,0,2.1,57v.32A19.83,19.83,0,0,0,22,76.94H77.7a19.29,19.29,0,0,0,8-36.92ZM77.7,71.95H22A14.83,14.83,0,0,1,7.1,57.27v-.21a14.63,14.63,0,0,1,4.2-10.18A14.81,14.81,0,0,1,22,42.4a15,15,0,0,1,1.71.1,9.9,9.9,0,0,1,12.78-5.56,23.92,23.92,0,0,1,44.89,6.87A14.3,14.3,0,0,1,77.7,71.95Z" transform="translate(-2.1 -18.89)"/></g>
		<image x="0" y="0" width="100" height="100" xlink:href="cloud-bg.png" />
	</symbol>
	<symbol id="sun">
		<path class="sun-glow" d="M85.6,70.45,68.85,68.76l1.71,16.72L56.9,75.64,50.07,91,43.21,75.64l-13.6,9.89,1.7-16.75L14.59,70.54l9.84-13.71L9.07,50l15.36-6.86-9.89-13.6,16.75,1.7L29.53,14.52l13.66,9.84L50.07,9l6.86,15.36,13.6-9.89-1.7,16.75,16.72-1.76L75.71,43.12,91.07,50,75.71,56.86Z" transform="translate(-9.07 -9)"/>
		<path class="sun-outer" d="M28.34,62.49A25,25,0,1,1,62.5,71.64a25,25,0,0,1-34.16-9.15Z" transform="translate(-9.07 -9)" filter="url(#sun-shadow)"/>
		<path class="sun-inner" d="M31.81,60.49A21,21,0,1,1,60.5,68.18a21,21,0,0,1-28.69-7.69Z" transform="translate(-9.07 -9)" fill="url(#sun-grad)"/>
	</symbol>
	<symbol id="sunWinter">
		<polygon class="sun-glow" points="15.36 6.83 5.52 20.54 22.24 18.78 20.54 35.53 34.14 25.64 41 41 47.83 25.64 61.49 35.48 59.78 18.76 76.53 20.45 66.64 6.86 82 0 0 0 15.36 6.83"/>
		<path class="sun-outer" d="M29,50H25a24.88,24.88,0,0,0,3.34,12.49h0A25,25,0,0,0,75,50H29Z" transform="translate(-9.07 -50)" filter="url(#sun-shadow)"/>
		<path class="sun-inner" d="M31.81,60.49h0A21,21,0,0,0,71,50H29A20.88,20.88,0,0,0,31.81,60.49Z" transform="translate(-9.07 -50)" fill="url(#sun-grad)"/>
		<path fill="#333333" stroke-width="0" d="M88.3,2.7H1.7C0.8,2.7,0,2.1,0,1.4S0.8,0,1.7,0h86.6C89.2,0,90,0.6,90,1.4S89.2,2.7,88.3,2.7z"></path>
	</symbol>
	<symbol id="moon">
		<path d="M34.9,0c3,5.2,4.8,11.2,4.8,17.6C39.7,37,24,52.8,4.5,52.8c-1.5,0-3-0.1-4.5-0.3C6.1,62.9,17.4,70,30.4,70 c19.4,0,35.2-15.7,35.2-35.2C65.6,17,52.2,2.2,34.9,0z" fill="url(#moon-grad)"/>
	</symbol>
	<symbol id="fog">
		<g fill="currentColor">
			<path d="M88.7,3H14.3C13.6,3,13,2.3,13,1.5S13.6,0,14.3,0h74.4C89.4,0,90,0.7,90,1.5S89.4,3,88.7,3z"></path>
			<path d="M75.7,11H1.3C0.6,11,0,10.3,0,9.5S0.6,8,1.3,8h74.4C76.4,8,77,8.7,77,9.5S76.4,11,75.7,11z"></path>
			<path d="M86.7,19H12.3c-0.7,0-1.3-0.7-1.3-1.5s0.6-1.5,1.3-1.5h74.4c0.7,0,1.3,0.7,1.3,1.5S87.4,19,86.7,19z"></path>
		</g>
	</symbol>
	<symbol id="raindrop">
		<path d="M1.9,13c-0.3,0-0.5-0.1-0.8-0.2c-1-0.4-1.4-1.6-0.9-2.6l4.2-9.1c0.4-1,1.6-1.4,2.5-0.9c1,0.4,1.4,1.6,0.9,2.6l-4.2,9.1 C3.3,12.6,2.6,13,1.9,13z"></path>
	</symbol>
	<symbol id="snowflake">
		<path d="M4.6,10.6l1.5-3.3l2.1,2.9c0.3,0.4,0.8,0.5,1.2,0.2c0.4-0.3,0.5-0.9,0.2-1.2L7.6,6.3L11.2,6c0.5,0,0.9-0.5,0.8-1 c0-0.5-0.5-0.8-1-0.8L7.5,4.5L9,1.3c0.2-0.4,0-1-0.4-1.2s-1,0-1.2,0.4L5.8,3.8L3.8,0.8C3.5,0.4,2.9,0.3,2.5,0.6 C2.4,0.7,2.3,0.8,2.3,1C2.1,1.2,2.1,1.6,2.3,1.8l2.1,2.9L0.8,5.1c-0.3,0-0.6,0.2-0.7,0.5C0,5.8,0,5.9,0,6.1c0,0.5,0.5,0.8,1,0.8 l3.6-0.3L3,9.8c-0.2,0.4,0,1,0.4,1.2C3.9,11.2,4.4,11,4.6,10.6z"></path>
	</symbol>
	<symbol id="lightning">
		<polygon points="14.6,18.4 7.7,15.4 10.6,0 0,19.5 7.1,22.5 2.5,40 "></polygon>
	</symbol>
</svg>
